<svg width="3235" height="107" viewBox="0 0 3235 107" fill="none" xmlns="http://www.w3.org/2000/svg">
<rect x="-4" y="14.6836" width="3167.97" height="69.3059" fill="url(#paint0_linear_264_231)"/>
<rect x="119.098" y="3.59375" width="13.577" height="94.256" fill="white"/>
<rect x="149.871" y="3.59375" width="13.577" height="94.256" fill="white"/>
<rect x="179.742" y="0.822266" width="13.577" height="94.256" fill="white"/>
<rect x="210.516" y="0.822266" width="13.577" height="94.256" fill="white"/>
<rect x="329.994" y="11.9102" width="18.1417" height="94.256" fill="white"/>
<rect x="371.115" y="11.9102" width="18.1417" height="94.256" fill="white"/>
<rect x="411.025" y="9.13867" width="18.1417" height="94.256" fill="white"/>
<rect x="452.148" y="9.13867" width="18.1417" height="94.256" fill="white"/>
<rect x="611.492" y="14.6855" width="23.5335" height="69.3059" fill="white"/>
<rect x="664.896" y="14.6855" width="23.5335" height="69.3059" fill="white"/>
<rect x="716.488" y="14.6855" width="23.5335" height="69.3059" fill="white"/>
<rect x="769.889" y="14.6855" width="23.5335" height="69.3059" fill="white"/>
<rect x="982.595" y="12.2812" width="28.3246" height="75.4049" fill="white"/>
<rect x="1046.8" y="12.2812" width="28.3246" height="75.4049" fill="white"/>
<rect x="1109.11" y="10.0625" width="28.3246" height="75.4049" fill="white"/>
<rect x="1173.31" y="10.0625" width="28.3246" height="75.4049" fill="white"/>
<rect x="1390.81" y="12.2285" width="43.4232" height="73.6095" fill="white"/>
<rect x="1489.24" y="12.2285" width="43.4232" height="73.6095" fill="white"/>
<rect x="1584.77" y="10.0625" width="43.4232" height="73.6095" fill="white"/>
<rect x="1683.19" y="10.0625" width="43.4232" height="73.6095" fill="white"/>
<rect x="1970.1" y="12.2812" width="57.4684" height="75.4049" fill="white"/>
<rect x="2100.36" y="12.2812" width="57.4684" height="75.4049" fill="white"/>
<rect x="2226.79" y="10.0625" width="57.4684" height="75.4049" fill="white"/>
<rect x="2357.05" y="10.0625" width="57.4684" height="75.4049" fill="white"/>
<rect x="2685.15" y="12.2832" width="71.7478" height="75.4049" fill="white"/>
<rect x="2847.78" y="12.2832" width="71.7478" height="75.4049" fill="white"/>
<rect x="3005.62" y="10.0645" width="71.7478" height="75.4049" fill="white"/>
<rect x="3168.25" y="10.0645" width="71.7478" height="75.4049" fill="white"/>
<defs>
<linearGradient id="paint0_linear_264_231" x1="-4" y1="49.3365" x2="3163.97" y2="49.3365" gradientUnits="userSpaceOnUse">
<stop stop-color="white"/>
<stop offset="1" stop-color="#B55BDB"/>
</linearGradient>
</defs>
</svg>
