<svg width="3235" height="83" viewBox="0 0 3235 83" fill="none" xmlns="http://www.w3.org/2000/svg">
<rect width="3235" height="52.9999" transform="matrix(-1 1.83401e-08 3.03606e-08 1 3235 12)" fill="#BD7DD8"/>
<rect width="13.5378" height="72.6548" transform="matrix(-1 1.86236e-08 2.98984e-08 1 3111.88 3.11719)" fill="#F5EBF9"/>
<rect width="13.5378" height="72.6548" transform="matrix(-1 1.86236e-08 2.98984e-08 1 3081.2 3.11719)" fill="#F5EBF9"/>
<rect width="13.5378" height="72.6548" transform="matrix(-1 1.86236e-08 2.98984e-08 1 3051.41 0.980469)" fill="#F5EBF9"/>
<rect width="13.5378" height="72.6548" transform="matrix(-1 1.86236e-08 2.98984e-08 1 3020.73 0.980469)" fill="#F5EBF9"/>
<rect width="18.0893" height="72.6548" transform="matrix(-1 1.86236e-08 2.98984e-08 1 2901.59 9.5293)" fill="#E8D3F1"/>
<rect width="18.0893" height="72.6548" transform="matrix(-1 1.86236e-08 2.98984e-08 1 2860.59 9.5293)" fill="#E8D3F1"/>
<rect width="18.0893" height="72.6548" transform="matrix(-1 1.86236e-08 2.98984e-08 1 2820.8 7.39258)" fill="#E8D3F1"/>
<rect width="18.0893" height="72.6548" transform="matrix(-1 1.86236e-08 2.98984e-08 1 2779.79 7.39258)" fill="#E8D3F1"/>
<rect width="23.4655" height="53.4226" transform="matrix(-1 1.86236e-08 2.98984e-08 1 2620.91 11.6641)" fill="#F0E1F6"/>
<rect width="23.4655" height="53.4226" transform="matrix(-1 1.86236e-08 2.98984e-08 1 2567.66 11.6641)" fill="#F0E1F6"/>
<rect width="23.4655" height="53.4226" transform="matrix(-1 1.86236e-08 2.98984e-08 1 2516.22 11.6641)" fill="#F0E1F6"/>
<rect width="23.4655" height="53.4226" transform="matrix(-1 1.86236e-08 2.98984e-08 1 2462.97 11.6641)" fill="#F0E1F6"/>
<rect width="28.2427" height="58.1238" transform="matrix(-1 1.86236e-08 2.98984e-08 1 2250.88 9.81445)" fill="white"/>
<rect width="28.2427" height="58.1238" transform="matrix(-1 1.86236e-08 2.98984e-08 1 2186.86 9.81445)" fill="white"/>
<rect width="28.2427" height="58.1238" transform="matrix(-1 1.86236e-08 2.98984e-08 1 2124.73 8.10352)" fill="white"/>
<rect width="28.2427" height="58.1238" transform="matrix(-1 1.86236e-08 2.98984e-08 1 2060.71 8.10352)" fill="white"/>
<rect width="43.2977" height="56.7399" transform="matrix(-1 1.86236e-08 2.98984e-08 1 1843.84 9.77344)" fill="white"/>
<rect width="43.2977" height="56.7399" transform="matrix(-1 1.86236e-08 2.98984e-08 1 1745.7 9.77344)" fill="white"/>
<rect width="43.2977" height="56.7399" transform="matrix(-1 1.86236e-08 2.98984e-08 1 1650.45 8.10352)" fill="white"/>
<rect width="43.2977" height="56.7399" transform="matrix(-1 1.86236e-08 2.98984e-08 1 1552.31 8.10352)" fill="white"/>
<rect width="57.3023" height="58.1238" transform="matrix(-1 1.86236e-08 2.98984e-08 1 1266.23 9.81445)" fill="white"/>
<rect width="57.3023" height="58.1238" transform="matrix(-1 1.86236e-08 2.98984e-08 1 1136.35 9.81445)" fill="white"/>
<rect width="57.3023" height="58.1238" transform="matrix(-1 1.86236e-08 2.98984e-08 1 1010.29 8.10352)" fill="white"/>
<rect width="57.3023" height="58.1238" transform="matrix(-1 1.86236e-08 2.98984e-08 1 880.4 8.10352)" fill="white"/>
<rect width="50.0749" height="58.1238" transform="matrix(-1 1.86236e-08 2.98984e-08 1 553.244 9.81445)" fill="white"/>
<rect width="50.0749" height="58.1238" transform="matrix(-1 1.86236e-08 2.98984e-08 1 439.74 9.81445)" fill="white"/>
<rect width="50.0749" height="58.1238" transform="matrix(-1 1.86236e-08 2.98984e-08 1 329.578 8.10352)" fill="white"/>
<rect width="50.0749" height="58.1238" transform="matrix(-1 1.86236e-08 2.98984e-08 1 216.074 8.10352)" fill="white"/>
</svg>
