<svg width="3235" height="98" viewBox="0 0 3235 98" fill="none" xmlns="http://www.w3.org/2000/svg">
<rect y="14.5684" width="3234.28" height="69.3059" fill="#BD7DD8"/>
<rect x="125.674" y="3.47852" width="13.8612" height="94.256" fill="white"/>
<rect x="157.092" y="3.47852" width="13.8612" height="94.256" fill="white"/>
<rect x="187.588" y="0.707031" width="13.8612" height="94.256" fill="white"/>
<rect x="219.006" y="0.707031" width="13.8612" height="94.256" fill="white"/>
<rect x="628.373" y="14.5703" width="24.026" height="69.3059" fill="white"/>
<rect x="682.895" y="14.5703" width="24.026" height="69.3059" fill="white"/>
<rect x="735.566" y="14.5703" width="24.026" height="69.3059" fill="white"/>
<rect x="790.086" y="14.5703" width="24.026" height="69.3059" fill="white"/>
<rect x="1424.01" y="12.1152" width="44.3321" height="73.6095" fill="white"/>
<rect x="1524.49" y="12.1152" width="44.3321" height="73.6095" fill="white"/>
<rect x="1622.02" y="9.94922" width="44.3321" height="73.6095" fill="white"/>
<rect x="1722.51" y="9.94922" width="44.3321" height="73.6095" fill="white"/>
<rect x="2015.42" y="12.168" width="58.6712" height="75.4049" fill="white"/>
<rect x="2148.4" y="12.168" width="58.6712" height="75.4049" fill="white"/>
<rect x="2277.48" y="9.94922" width="58.6712" height="75.4049" fill="white"/>
<rect x="2410.47" y="9.94922" width="58.6712" height="75.4049" fill="white"/>
<rect x="2745.44" y="12.168" width="73.2495" height="75.4049" fill="white"/>
<rect x="2911.47" y="12.168" width="73.2495" height="75.4049" fill="white"/>
<rect x="3072.62" y="9.94922" width="73.2495" height="75.4049" fill="white"/>
</svg>
