<svg width="3235" height="107" viewBox="0 0 3235 107" fill="none" xmlns="http://www.w3.org/2000/svg">
<rect x="-3" y="15" width="3233" height="69" fill="#BD7DD8"/>
<rect x="106.674" y="3.65625" width="13.8612" height="94.256" fill="black"/>
<rect x="138.092" y="3.65625" width="13.8612" height="94.256" fill="black"/>
<rect x="168.588" y="0.884766" width="13.8612" height="94.256" fill="black"/>
<rect x="200.006" y="0.884766" width="13.8612" height="94.256" fill="black"/>
<rect x="321.984" y="11.9746" width="18.5214" height="94.256" fill="black"/>
<rect x="363.967" y="11.9746" width="18.5214" height="94.256" fill="black"/>
<rect x="404.713" y="9.20312" width="18.5214" height="94.256" fill="black"/>
<rect x="446.695" y="9.20312" width="18.5214" height="94.256" fill="black"/>
<rect x="609.373" y="14.748" width="24.026" height="69.3059" fill="black"/>
<rect x="663.895" y="14.748" width="24.026" height="69.3059" fill="black"/>
<rect x="716.566" y="14.748" width="24.026" height="69.3059" fill="black"/>
<rect x="771.086" y="14.748" width="24.026" height="69.3059" fill="black"/>
<rect x="988.246" y="12.3457" width="28.9174" height="75.4049" fill="black"/>
<rect x="1053.79" y="12.3457" width="28.9174" height="75.4049" fill="black"/>
<rect x="1117.41" y="10.127" width="28.9174" height="75.4049" fill="black"/>
<rect x="1182.96" y="10.127" width="28.9174" height="75.4049" fill="black"/>
<rect x="1405.01" y="12.293" width="44.3321" height="73.6095" fill="black"/>
<rect x="1505.49" y="12.293" width="44.3321" height="73.6095" fill="black"/>
<rect x="1603.02" y="10.127" width="44.3321" height="73.6095" fill="black"/>
<rect x="1703.51" y="10.127" width="44.3321" height="73.6095" fill="black"/>
<rect x="1996.42" y="12.3457" width="58.6712" height="75.4049" fill="black"/>
<rect x="2129.4" y="12.3457" width="58.6712" height="75.4049" fill="black"/>
<rect x="2258.48" y="10.127" width="58.6712" height="75.4049" fill="black"/>
<rect x="2391.47" y="10.127" width="58.6712" height="75.4049" fill="black"/>
<rect x="2726.44" y="12.3457" width="73.2495" height="75.4049" fill="black"/>
<rect x="2892.47" y="12.3457" width="73.2495" height="75.4049" fill="black"/>
<rect x="3053.62" y="10.127" width="73.2495" height="75.4049" fill="black"/>
<rect x="3219.65" y="10.127" width="73.2495" height="75.4049" fill="black"/>
</svg>
