<svg width="162" height="216" viewBox="0 0 162 216" fill="none" xmlns="http://www.w3.org/2000/svg">
<g clip-path="url(#clip0_117_9019)">
<rect width="160.784" height="214.762" transform="translate(0.694092 0.481445)" fill="black"/>
<path d="M15.3965 110.367C28.862 101.884 48.4842 78.9189 19.2811 54.4553" stroke="white" stroke-width="3.22717"/>
<path d="M16.6836 110.446C5.26623 100.237 -9.94775 74.8553 20.5674 54.5449" stroke="white" stroke-width="3.22717"/>
<path d="M15.612 57.5093C29.0774 49.0268 48.6996 26.0613 19.4966 1.59767" stroke="white" stroke-width="3.22717"/>
<path d="M16.899 57.5884C5.48168 47.3789 -9.73229 21.9976 20.7829 1.68722" stroke="white" stroke-width="3.22717"/>
<path d="M16.639 214.157C30.1044 205.675 49.7266 182.709 20.5236 158.246" stroke="white" stroke-width="3.22717"/>
<path d="M17.926 214.236C6.50866 204.027 -8.70532 178.645 21.8098 158.335" stroke="white" stroke-width="3.22717"/>
<path d="M16.8528 161.298C30.3183 152.816 49.9405 129.85 20.7374 105.387" stroke="white" stroke-width="3.22717"/>
<path d="M18.1399 161.377C6.72253 151.168 -8.49145 125.787 22.0237 105.476" stroke="white" stroke-width="3.22717"/>
<path d="M139.426 110.368C152.892 101.885 172.514 78.9197 143.311 54.4561" stroke="white" stroke-width="3.22717"/>
<path d="M140.713 110.447C129.296 100.237 114.082 74.856 144.597 54.5456" stroke="white" stroke-width="3.22717"/>
<path d="M139.645 57.5092C153.111 49.0267 172.733 26.0611 143.53 1.59755" stroke="white" stroke-width="3.22717"/>
<path d="M140.932 57.5883C129.515 47.3788 114.301 21.9975 144.816 1.6871" stroke="white" stroke-width="3.22717"/>
<path d="M140.673 214.157C154.138 205.674 173.76 182.709 144.557 158.245" stroke="white" stroke-width="3.22717"/>
<path d="M141.96 214.236C130.542 204.026 115.328 178.645 145.844 158.335" stroke="white" stroke-width="3.22717"/>
<path d="M140.885 161.298C154.35 152.816 173.972 129.85 144.769 105.387" stroke="white" stroke-width="3.22717"/>
<path d="M142.172 161.377C130.755 151.168 115.541 125.786 146.056 105.476" stroke="white" stroke-width="3.22717"/>
<path d="M74.124 107.857C92.6055 107.178 125.718 95.526 110.618 53.9106" stroke="white" stroke-width="3.22717"/>
<path d="M75.3722 108.686C69.8444 91.7673 69.3427 57.3828 111.859 54.7496" stroke="white" stroke-width="3.22717"/>
<path d="M105.148 54.8403C123.63 54.1608 156.742 42.5093 141.642 0.893848" stroke="white" stroke-width="3.22717"/>
<path d="M106.396 55.6712C100.868 38.7525 100.367 4.368 142.883 1.7348" stroke="white" stroke-width="3.22717"/>
<path d="M14.8797 212.925C33.3612 212.245 66.4739 200.594 51.3733 158.978" stroke="white" stroke-width="3.22717"/>
<path d="M16.1276 213.754C10.5998 196.835 10.098 162.451 52.6143 159.817" stroke="white" stroke-width="3.22717"/>
<path d="M45.9055 159.908C64.387 159.228 97.4996 147.577 82.3991 105.961" stroke="white" stroke-width="3.22717"/>
<path d="M47.1537 160.739C41.6259 143.82 41.1241 109.436 83.6404 106.802" stroke="white" stroke-width="3.22717"/>
</g>
<defs>
<clipPath id="clip0_117_9019">
<rect width="160.784" height="214.762" fill="white" transform="translate(0.694092 0.481445)"/>
</clipPath>
</defs>
</svg>
