<svg width="151" height="200" viewBox="0 0 151 200" fill="none" xmlns="http://www.w3.org/2000/svg">
<g clip-path="url(#clip0_205_2921)">
<rect width="149.426" height="199.59" transform="translate(0.71582 0.4104) rotate(-0.0977007)" fill="black"/>
<path d="M149.516 131.356C120.013 128.252 64.5207 136.791 77.9842 196.318" stroke="white" stroke-width="2.99918"/>
<path d="M147.732 129.965C152.236 154.032 144.355 200.61 76.2141 194.914" stroke="white" stroke-width="2.99918"/>
<path d="M99.34 195.76C102.28 170.574 90.9344 123.486 21.388 136.134" stroke="white" stroke-width="2.99918"/>
<path d="M100.938 194.217C72.7966 198.53 17.9403 192.744 23.0001 134.602" stroke="white" stroke-width="2.99918"/>
<path d="M21.0492 134.497C50.5588 137.553 106.032 128.924 92.435 69.4189" stroke="white" stroke-width="2.99918"/>
<path d="M22.8292 135.887C18.2719 111.826 26.0484 65.2361 94.2015 70.8208" stroke="white" stroke-width="2.99918"/>
<path d="M71.064 70.0166C68.1803 95.2076 79.6314 142.277 149.149 129.516" stroke="white" stroke-width="2.99918"/>
<path d="M69.4713 71.5584C97.6024 67.1997 152.471 72.897 147.542 131.047" stroke="white" stroke-width="2.99918"/>
<path d="M25.8905 72.6405C9.08405 61.82 -13.2427 33.9037 25.9547 7.08206" stroke="white" stroke-width="2.99918"/>
<path d="M24.2244 72.6485C39.5896 61.4053 61.7213 33.3984 23.7069 7.60102" stroke="white" stroke-width="2.99918"/>
<path d="M25.1563 135.702C8.35086 124.882 -15.4584 96.6711 23.7367 69.8495" stroke="white" stroke-width="2.99918"/>
<path d="M23.4912 135.711C38.8564 124.468 60.0863 95.6681 22.0719 69.8708" stroke="white" stroke-width="2.99918"/>
<path d="M25.1563 135.702C8.35086 124.882 -15.4584 96.6711 23.7367 69.8495" stroke="white" stroke-width="2.99918"/>
<path d="M23.4912 135.711C38.8564 124.468 60.0863 95.6681 22.0719 69.8708" stroke="white" stroke-width="2.99918"/>
<path d="M77.5311 22.4046C89.3267 6.97869 120.074 -14.8798 149.288 21.0825" stroke="white" stroke-width="2.99918"/>
<path d="M77.5245 20.8765C89.7712 34.9742 121.147 54.4489 149.268 19.5547" stroke="white" stroke-width="2.99918"/>
<path d="M9.94665 21.949C21.7422 6.52312 51.0754 -15.6616 80.2903 20.3007" stroke="white" stroke-width="2.99918"/>
<path d="M9.66449 21.0441C21.9112 35.1418 52.4293 53.7942 80.5507 18.9" stroke="white" stroke-width="2.99918"/>
<path d="M24.3121 198.929C7.50663 188.109 -16.3026 159.898 22.8925 133.077" stroke="white" stroke-width="2.99918"/>
<path d="M22.6469 198.938C38.0122 187.695 59.2421 158.895 21.2277 133.097" stroke="white" stroke-width="2.99918"/>
<path d="M32.6412 23.245C33.0917 24.5253 32.4838 26.3147 32.1741 27.5521C31.5686 29.9715 30.7643 32.2692 29.8627 34.5873C28.7561 37.4324 27.6018 40.2665 26.6171 43.1568C26.4625 43.6107 26.3077 45.5549 25.331 45.1054C22.0763 43.6073 19.4695 39.2502 17.1179 36.8474" stroke="white" stroke-width="10.9769" stroke-linecap="round"/>
<path d="M33.5081 17.3313C32.788 19.2471 32.256 21.0343 31.1331 22.7852C29.4582 25.3966 28.1249 28.1232 26.6946 30.8701C24.5698 34.9507 22.806 39.2025 20.9012 43.3853C20.1307 45.0772 19.2565 46.9786 18.9315 43.9726C18.2431 37.6051 18.9138 31.3737 22.051 25.6837C23.6382 22.8048 26.266 20.7695 28.3762 18.3132C28.5316 18.1324 29.9389 16.8224 29.225 16.6939C28.6799 16.5957 28.0501 16.6837 27.4976 16.6847C26.2758 16.6867 24.2632 16.1769 23.4837 16.9591C22.4927 17.9535 25.7083 15.2285 26.9344 14.5446C27.6182 14.1632 26.4712 13.887 26.058 14.2785C23.7311 16.4837 22.4551 19.6484 20.1591 21.9523C19.1743 22.9405 18.3941 24.0739 17.6466 25.2411C17.2925 25.794 15.2683 28.8184 16.1524 26.4601C16.8668 24.5543 18.5931 23.0118 19.7201 21.3449C19.8378 21.1707 21.1838 20.1989 20.2656 20.2004C19.3233 20.202 18.1068 21.6684 17.6417 22.3946C17.0265 23.3552 16.0612 24.0525 15.4687 25.0259C13.8746 27.6445 12.2903 30.5888 11.5907 33.6208C10.9638 36.337 10.5531 38.6537 10.5579 41.4566C10.5596 42.4785 10.5613 43.5003 10.5631 44.5221C10.5659 46.1904 11.3744 47.6103 11.9942 49.118C13.2508 52.1747 15.2319 53.984 17.2619 56.4565C18.2892 57.7077 19.1502 59.1376 20.2244 60.2711C20.8814 60.9644 21.5169 62.811 22.5405 63.1016C22.9963 63.231 24.0221 64.9473 24.1732 64.6437" stroke="white" stroke-width="10.9769" stroke-linecap="round"/>
<path d="M19.3295 49.7623C19.6315 48.9526 21.9831 50.4427 22.3724 50.7424C22.9755 51.2069 23.4281 51.9884 23.6044 52.7232C23.9624 54.2154 23.6709 55.576 23.1859 56.9694C22.7704 58.163 22.4073 60.28 23.3392 61.3119C23.8676 61.897 25.3934 61.5761 26.1376 61.5748C27.2464 61.5729 26.9376 61.8687 26.2487 62.5599C26.0197 62.7898 25.8017 63.5257 26.1522 62.998C26.426 62.5857 26.8658 62.315 27.1356 61.8894C28.0899 60.3841 29.5482 59.2786 30.7784 58.0148C31.3737 57.4033 33.3957 55.5621 32.2574 54.9954" stroke="white" stroke-width="10.9769" stroke-linecap="round"/>
<path d="M39.4478 22.4155C39.4545 26.3558 36.7754 29.8637 35.9982 33.6407C35.6551 35.3077 34.7393 36.9275 34.0552 38.4678C32.2194 42.6015 31.8212 46.3803 31.2039 50.9657" stroke="white" stroke-width="10.9769" stroke-linecap="round"/>
<path d="M30.721 53.6497C30.8487 54.6575 33.0886 52.7902 33.4021 52.6154C34.424 52.0453 34.7263 51.1393 35.1051 50.0922C36.0214 47.5587 36.8498 44.9904 37.6529 42.405C37.9821 41.3451 38.1368 40.0725 38.2704 38.9894C38.4365 37.6419 38.9795 36.4197 39.4156 35.1528C39.7565 34.1623 41.2538 33.1443 42.2712 33.1426C43.2536 33.1409 44.4186 33.3288 45.3196 32.9477C46.3124 32.5277 47.7164 32.5415 48.7871 32.2101C50.078 31.8105 51.4536 31.5547 52.7552 31.0516C54.1368 30.5175 55.5908 30.0088 57.021 29.6487C58.4746 29.2826 60.1963 29.2134 61.5449 28.5976C65.2054 26.9262 72.3783 24.796 72.37 19.9208" stroke="white" stroke-width="10.9769" stroke-linecap="round"/>
<path d="M38.9627 45.5036C38.9632 45.8167 38.8968 46.3317 39.2478 46.448" stroke="white" stroke-width="10.9769" stroke-linecap="round"/>
<path d="M45.4545 28.8611C45.7308 28.9814 45.9436 27.4205 46.0238 27.1383C46.4413 25.6675 46.8281 24.2375 46.9349 22.7062C46.9706 22.1936 47.0292 21.4785 46.4285 21.2634C46.0945 21.1438 45.6835 21.2092 45.3364 21.1655C44.4967 21.0599 43.6924 20.8058 42.8891 20.5503C41.4766 20.1009 40.1289 19.6879 38.6458 19.5601C37.9771 19.5025 37.5167 19.6118 37.3715 20.3444C37.2187 21.1153 37.2659 21.9567 38.094 22.2908C39.1742 22.7265 39.7932 22.0537 40.1287 21.0799C40.8774 18.9071 40.4187 15.3876 38.1328 14.259C36.8148 13.6082 35.5213 13.5387 34.0951 13.8039C32.8957 14.027 29.9726 14.3854 29.5315 12.7303C29.4466 12.4117 29.2906 11.7859 29.6451 11.6172C29.9481 11.473 30.2818 11.5369 30.5949 11.4423C31.3024 11.2288 32.037 10.8631 32.709 10.5516C33.6997 10.0922 34.7587 9.81921 35.7358 9.31277C36.7721 8.77566 37.6816 8.33576 38.8257 8.08436C41.3595 7.52759 44.0934 7.59268 46.6783 7.69826C49.4442 7.81123 52.2799 8.46202 54.813 9.56896C55.9893 10.083 57.0288 10.8536 58.1863 11.4058C59.9098 12.228 61.6786 12.8587 63.3088 13.8801C64.5074 14.631 65.6836 15.4286 66.9033 16.1417C67.1981 16.3141 67.4505 16.4355 67.6864 16.6706C67.7338 16.7179 67.5586 16.2881 67.4914 16.209C67.0607 15.7018 66.5294 15.2126 66.0191 14.7889C65.3833 14.2609 64.8658 13.6104 64.2313 13.0701C62.2544 11.3865 60.0898 10.4669 57.6583 9.60611C55.2218 8.74356 53.0876 7.30412 50.4258 7.30865C48.7115 7.31158 47.5794 8.53965 46.5244 9.80357C45.7805 10.6948 45.7086 11.6053 45.7105 12.7289C45.7132 14.3136 45.4907 16.1179 46.1178 17.6155C46.8831 19.4436 48.1965 20.9924 49.8106 22.1238C51.2734 23.1492 52.8155 24.0374 54.1939 25.1821C54.8658 25.74 55.513 26.4912 56.4013 26.7006C57.546 26.9706 58.5739 26.2097 59.3178 25.3938C59.8964 24.7591 60.1183 23.9044 59.5765 23.1886C58.0724 21.2011 55.7569 20.1232 53.3552 19.745C51.9794 19.5283 50.6269 19.4977 49.2392 19.5C48.9214 19.5006 48.6406 19.5525 48.5563 19.2177" stroke="white" stroke-width="10.9769" stroke-linecap="round"/>
<path d="M64.9917 16.4505C65.3677 16.7836 66.6713 16.5421 67.1652 16.5413C67.4941 16.5407 67.8231 16.5402 68.1521 16.5396C68.2898 16.5394 69.6184 16.5742 68.9603 16.4437" stroke="white" stroke-width="10.9769" stroke-linecap="round"/>
<path d="M87.7279 19.9683C87.9201 19.9679 89.667 20.013 89.5221 20.0815C89.1764 20.2449 88.5189 20.1164 88.1352 20.1171C87.7934 20.1176 85.3886 19.8668 85.187 20.2716" stroke="white" stroke-width="10.9769" stroke-linecap="round"/>
<path d="M89.5202 18.7689C90.3146 18.6793 91.2868 17.831 91.8931 17.353C92.4943 16.879 93.1555 16.4947 93.8511 16.1454C96.3206 14.9053 98.0808 12.6444 100.42 11.2091C100.817 10.9656 101.199 10.6846 101.607 10.4596C101.867 10.3159 102.709 10.0757 102.412 10.0762C101.717 10.0774 100.909 10.8139 100.337 11.1345C99.4052 11.6568 98.5538 12.2894 97.616 12.8085C96.2764 13.55 94.913 14.1907 93.5499 14.8752C92.9868 15.1579 92.0533 15.7556 91.9055 14.878" stroke="white" stroke-width="10.9769" stroke-linecap="round"/>
<path d="M99.527 13.9677C99.0139 13.9686 100.561 13.92 101.055 13.7824C102.171 13.4715 103.196 12.9009 104.308 12.5809C105.169 12.3335 106.288 11.2127 106.697 10.5171C107.087 9.85254 107.316 8.98576 106.362 9.02271C105.877 9.04153 104.783 10.0719 105.052 10.0714C105.651 10.0704 106.468 9.61723 107.061 9.47001C108.118 9.20741 109.104 8.81048 110.132 8.45152C111.361 8.02237 112.965 7.54644 114.283 7.51425C116.984 7.44826 119.324 8.22566 121.942 8.69715C125.071 9.26055 127.507 11.2608 130.403 12.3537C132.631 13.1943 134.071 14.5168 135.709 16.1485C136.35 16.7877 137.083 17.5191 137.871 17.947C138.309 18.1847 138.648 18.7932 139.077 18.9832C139.646 19.2348 139.835 19.6766 140.275 20.0276C140.463 20.1778 140.8 21.1643 140.799 20.6247" stroke="white" stroke-width="10.9769" stroke-linecap="round"/>
<path d="M136.541 19.7875C138.029 19.7849 138.919 19.8123 140.224 20.5766C140.539 20.761 140.845 20.965 141.247 21.0066C141.588 21.0419 142.272 21.5187 141.963 21.0054" stroke="white" stroke-width="10.9769" stroke-linecap="round"/>
<path d="M91.2477 21.0261C91.3222 21.9728 91.8727 22.8061 91.9693 23.7554C92.0635 24.682 90.7846 24.4999 90.126 24.5077C89.3121 24.5173 88.1202 24.7342 87.3389 24.4319C87.1626 24.3637 86.0156 23.8068 86.3229 23.7892C87.5426 23.7194 88.7789 23.8471 89.9722 24.0891C93.7445 24.854 97.3374 26.1586 101.197 26.5186C102.833 26.6712 104.584 26.8575 106.166 26.3007C106.65 26.1304 106.693 26.1164 106.334 25.6399" stroke="white" stroke-width="10.9769" stroke-linecap="round"/>
<path d="M102.264 19.703C105.512 19.6974 108.761 19.6919 112.01 19.6863C112.423 19.6856 113.609 19.7604 113.242 19.5715C111.514 18.6815 109.616 17.9407 107.801 17.2609C104.549 16.0426 101.137 15.1454 97.6801 14.7651C96.6431 14.651 95.4584 14.5265 94.4096 14.674C94.2106 14.702 93.6728 14.9289 93.9756 15.1983C95.0373 16.143 96.8004 16.7017 98.1351 17.068C103.24 18.4693 108.861 18.7862 114.135 18.8128C116.245 18.8235 118.576 19.0748 120.61 18.3668C121.229 18.1516 122.866 17.4594 123.429 17.9915C124.326 18.8386 125.176 19.6079 126.236 20.2904C126.861 20.6929 128.829 21.7132 128.123 21.4793C127.633 21.3168 126.97 20.3715 126.622 20.0642C124.737 18.396 122.717 16.7901 120.541 15.5155C118.207 14.1485 115.244 12.8789 112.514 12.6133C111.21 12.4865 109.167 12.1864 109.745 14.0679C110.464 16.4095 113.4 17.6961 114.877 19.5365" stroke="white" stroke-width="10.9769" stroke-linecap="round"/>
<path d="M95.1619 20.5849C95.1652 22.4949 95.0233 24.3564 95.0265 26.2396C95.0279 27.0182 94.7172 28.5377 95.2893 29.1712C95.5998 29.5149 96.1815 30.5156 96.3371 29.5721" stroke="white" stroke-width="10.9769" stroke-linecap="round"/>
<path d="M98.2139 25.6541C99.6559 27.0912 101.055 28.9663 102.781 30.0604C103.355 30.4248 104.043 30.455 104.602 30.75C105.19 31.0601 104.976 31.2971 104.377 31.2981C103.271 31.3 104.341 31.2982 104.829 31.2973C105.721 31.2958 106.501 31.7302 107.367 31.873C108.186 32.008 109.014 32.2154 109.825 32.4165C110.851 32.6713 111.942 32.8801 113.015 32.8782C114.357 32.876 116.056 33.14 117.365 32.8386C118.836 32.4996 120.163 32.4813 121.567 31.7762C122.684 31.2157 124.053 30.5607 125.254 30.2154C125.876 30.0366 126.631 29.6528 127.218 29.3743C127.973 29.0164 128.728 28.6887 129.463 28.2911C131.021 27.449 132.743 26.4958 134.058 25.2708C134.422 24.9311 134.838 24.4287 135.216 24.1411C135.833 23.6699 136.063 23.3364 135.158 23.4888C132.961 23.8588 130.64 23.7139 128.425 23.7177C124.553 23.7243 120.637 23.5757 116.769 23.7698C114.117 23.9029 111.504 23.8895 108.859 23.7511C108.375 23.7257 108.697 23.0264 109.172 23.0256C112.187 23.0205 115.194 22.9822 118.202 23.2277C121.086 23.463 124.167 23.6669 127 24.3001C128.427 24.6191 130.008 24.44 131.462 24.4375C132.335 24.436 133.459 24.6264 134.306 24.3601C134.799 24.2051 135.391 24.0898 135.908 23.9949C136.327 23.918 137.405 23.8945 136.922 23.4133" stroke="white" stroke-width="10.9769" stroke-linecap="round"/>
<path d="M101.542 32.1263C101.485 32.1427 102.319 33.0493 102.397 32.8928" stroke="white" stroke-width="10.9769" stroke-linecap="round"/>
<path d="M81.1857 97.5319C70.8573 97.5495 59.867 101.316 52.5814 108.887C49.7771 111.802 46.3371 114.094 43.9275 117.392C43.486 117.996 42.6466 118.771 42.3838 119.458C42.2127 119.905 41.9505 121.25 41.9485 120.093" stroke="white" stroke-width="10.9769" stroke-linecap="round"/>
<path d="M25.4782 109.12C25.4805 110.457 25.4873 114.467 25.4851 113.131C25.4781 109.072 22.3632 104.502 21.3727 100.515C20.1153 95.4546 19.077 89.9937 18.6815 84.7755C18.5291 82.7645 20.4258 88.1272 20.8418 89.0511C25.3184 98.9919 30.4388 112.503 43.4082 112.481" stroke="white" stroke-width="10.9769" stroke-linecap="round"/>
<path d="M25.478 109.12C25.1506 106.22 29.2973 104.108 31.2796 102.328C33.9194 99.9582 36.8227 98.1263 39.396 95.6398C40.1474 94.9138 43.8862 90.5534 41.8108 91.2758C39.8222 91.9679 37.4943 93.9355 36.0046 95.4303C33.9118 97.5303 36.877 102.047 38.9238 102.8C43.7188 104.562 49.5482 102.089 54.0722 100.594C59.2798 98.8728 64.6571 97.4333 70.0787 96.5564C76.5511 95.5095 57.3384 99.7178 50.8699 100.788C47.5193 101.342 44.1594 101.486 40.8063 101.935C40.427 101.986 38.4742 102.724 39.3524 101.615C40.8428 99.7313 44.2583 98.2788 46.5042 97.4578C47.735 97.0079 45.8261 96.8282 45.3184 96.4909" stroke="white" stroke-width="10.9769" stroke-linecap="round"/>
<path d="M36.1269 90.2591C36.627 90.2056 37.2188 89.6841 37.6037 89.3681C37.814 89.1954 37.9724 88.9402 38.1701 88.7474C38.3156 88.6054 38.543 88.5266 38.5427 88.3062" stroke="white" stroke-width="10.9769" stroke-linecap="round"/>
<path d="M29.1195 92.7403C29.1175 91.5518 29.1155 90.3633 29.1134 89.1748C29.1126 88.717 29.2426 87.6665 28.9005 87.2876C28.6873 87.0516 28.4854 86.9419 28.2893 86.6976C27.9536 86.2794 28.5747 86.134 28.8607 86.3153C29.5712 86.7657 30.5508 87.2707 29.9659 85.9607C29.6231 85.1928 28.9767 84.6275 28.247 84.1999C26.9607 83.4463 25.5933 81.8511 24.9802 80.478C24.7343 79.9273 24.0674 79.3285 23.5287 79.0219C23.0132 78.7285 22.9695 78.0983 22.7446 77.6505" stroke="white" stroke-width="10.9769" stroke-linecap="round"/>
<path d="M27.4751 79.4913C28.1122 80.1263 28.7911 80.793 29.283 81.5553C29.7303 82.2485 30.2691 82.8937 30.7796 83.5438C31.0608 83.9018 31.3278 84.2853 31.5593 84.6762C31.5957 84.7377 31.8403 85.3089 31.84 85.0836" stroke="white" stroke-width="10.9769" stroke-linecap="round"/>
<path d="M24.2456 64.4465C24.2467 65.0622 24.3758 65.6369 24.3768 66.2404" stroke="white" stroke-width="10.9769" stroke-linecap="round"/>
<path d="M17.9941 80.0912C16.8328 81.2564 15.5779 82.6026 14.9255 84.1687C13.6509 87.2282 12.0543 89.9871 11.4739 93.3087C11.0774 95.5786 10.5515 97.8059 10.2396 100.096C10.1429 100.806 10.2136 101.556 10.2149 102.274C10.215 102.357 10.2009 101.992 10.1573 101.918C9.87895 101.445 9.76554 101.034 9.63516 100.488C9.19837 98.6578 8.7156 96.3731 9.81753 94.714" stroke="white" stroke-width="10.9769" stroke-linecap="round"/>
<path d="M9.05498 102.599C9.05746 104.056 8.98646 105.192 9.58891 106.512C10.212 107.877 11.5038 109.872 12.8651 110.701C16.8021 113.098 15.5953 103.926 15.5927 102.448C15.5923 102.184 15.5884 99.9022 15.591 101.416C15.5936 102.982 15.5345 104.564 15.6459 106.127C15.8225 108.604 16.451 111.06 16.4553 113.542C16.4561 114.062 16.8135 115.763 16.0257 115.863C15.0524 115.986 13.5713 114.16 12.8231 113.56C12.2525 113.103 11.1816 112.509 10.7582 111.982C10.5383 111.708 9.79609 111.198 9.79669 111.55C9.79687 111.658 10.3096 112.086 10.3836 112.181C11.0439 113.034 11.8426 113.753 12.5202 114.591C13.4888 115.79 14.5201 116.709 15.6189 117.773C17.0585 119.168 18.2234 120.79 19.6336 122.195" stroke="white" stroke-width="10.9769" stroke-linecap="round"/>
<path d="M18.4101 110.042C18.4068 108.057 18.4034 106.072 18.4 104.087C18.3993 103.68 18.112 102.983 17.8086 102.681" stroke="white" stroke-width="10.9769" stroke-linecap="round"/>
<path d="M16.0732 121.531C16.1491 122.784 17.5986 124.084 18.549 124.652C19.193 125.037 19.8466 125.746 20.5636 125.949C20.8284 126.024 21.0885 126.729 21.0877 126.235" stroke="white" stroke-width="10.9769" stroke-linecap="round"/>
<path d="M22.6382 129.56C22.9157 129.282 23.2239 129.069 23.5015 128.819C23.7568 128.588 24.0753 128.495 24.2849 128.189C25.0778 127.031 25.813 125.873 26.3824 124.58C26.8553 123.505 27.1667 122.346 27.7629 121.328C28.4316 120.187 29.1837 119.097 29.901 117.986C30.4889 117.076 31.2136 116.283 32.1166 115.678C32.8374 115.196 33.3728 115.772 33.054 116.546C32.8112 117.136 32.0249 117.496 31.5453 117.85C30.5528 118.583 29.6258 119.399 28.7237 120.239C28.1721 120.753 27.3125 121.214 27.0776 121.976C26.8959 122.565 26.8726 123.181 26.7375 123.777C26.585 124.449 27.5089 123.908 27.7179 123.691C28.3736 123.01 28.9916 122.125 29.4252 121.285C29.5406 121.062 29.6028 120.853 29.6024 120.603C29.601 119.834 29.6738 119.022 29.478 118.272C28.8475 115.857 27.2575 114.003 24.8922 113.226C24.5523 113.114 23.7325 112.698 23.7334 113.233C23.7339 113.483 23.7251 113.87 23.9754 113.994" stroke="white" stroke-width="10.9769" stroke-linecap="round"/>
<path d="M39.5069 122.216C38.8576 123.342 37.4851 124.079 36.6596 125.107C35.4123 126.661 33.652 127.826 32.228 129.216C31.8892 129.547 31.4037 129.78 31.1664 130.197C31.0517 130.398 32.0455 130.019 32.1955 129.975C34.1608 129.401 36.2455 129.38 38.2697 129.087C40.4217 128.776 46.872 128.018 44.698 127.979C41.3252 127.92 37.6684 127.573 34.4889 128.874C33.7769 129.166 32.9637 129.475 32.3135 129.891C31.9423 130.128 32.0773 129.944 32.0766 129.52" stroke="white" stroke-width="10.9769" stroke-linecap="round"/>
<path d="M35.3079 123.648C35.6615 125.052 40.8276 124.353 42.0899 124.35C44.1839 124.347 46.6609 122.356 48.4291 121.128C52.4239 118.352 57.5802 117.134 61.3837 113.928C65.7315 110.263 69.9451 106.767 73.9746 102.724C77.2833 99.4042 76.3077 99.9362 71.6701 100.032C63.1726 100.206 54.6636 102.094 46.1366 102.217C43.6778 102.252 37.4223 104.396 36.6977 101.519" stroke="white" stroke-width="10.9769" stroke-linecap="round"/>
<path d="M42.1171 97.51C42.2577 96.0795 44.6648 95.0697 45.753 94.5398C47.7482 93.5683 49.9323 92.7495 51.9772 91.8662C55.3147 90.4246 58.2546 88.4259 61.4319 86.6744C61.7079 86.5223 64.8782 85.0129 63.2204 85.558C58.1281 87.2324 52.8258 88.3953 47.7919 90.2484C46.498 90.7247 45.2711 91.4194 44.0184 91.97C43.177 92.3399 43.1916 92.3649 43.19 91.4148C43.1873 89.8544 45.5005 87.8712 46.5826 86.9405C47.0668 86.524 51.4375 83.5992 48.866 84.8904C47.9239 85.3635 47.1884 86.1497 46.2812 86.6702C45.4305 87.1582 45.946 86.6068 46.4311 86.3389C47.3484 85.8324 48.1997 85.0852 49.076 84.4989C50.5423 83.5177 52.3277 83.3178 53.8871 82.5348C54.7894 82.0817 56.0163 82.2701 56.9853 81.8374C57.987 81.3902 58.9615 80.9249 59.962 80.4782C60.2645 80.3432 61.4602 80.1447 60.473 80.1464C59.3594 80.1483 57.8116 80.4798 56.8637 81.0853C55.6321 81.872 54.5726 81.0365 56.5619 80.5593C58.2932 80.1439 60.2057 80.2615 61.8715 79.7378C62.6295 79.4995 63.2963 79.6322 64.0222 79.2677C64.6323 78.9613 65.5169 78.6619 66.1874 78.5117C67.4799 78.2222 69.0137 77.7443 70.3085 77.6922C73.1124 77.5796 75.8278 76.5996 78.7019 76.5947C81.5675 76.5898 84.5271 76.3139 87.4428 76.3089C88.5326 76.3071 87.5831 79.1568 87.5845 79.9647C87.5875 81.72 87.5905 83.4753 87.5934 85.2306C87.6 89.0954 87.3849 92.2481 85.7158 95.8107C84.0007 99.4715 83.7701 103.582 81.3415 106.922C80.0359 108.717 78.9615 110.214 77.1366 111.533C75.9939 112.358 75.2367 113.559 74.1023 114.382C70.2676 117.161 66.3444 119.539 62.3499 122.105C59.7205 123.794 56.6974 125.146 53.8114 126.332C52.0987 127.036 50.7941 127.556 48.9387 127.559" stroke="white" stroke-width="10.9769" stroke-linecap="round"/>
<path d="M67.3025 97.1965C67.2995 95.4261 66.8343 93.4833 68.4075 92.3199C71.1907 90.2618 74.1955 88.7492 77.6996 88.7835C78.7858 88.7941 79.704 88.8581 80.5445 89.5911C80.7706 89.7883 81.1811 90.6432 81.4942 90.6426C81.8575 90.642 81.5623 89.0697 81.5213 88.9274C81.0262 87.2055 79.4276 85.8749 77.8139 85.2326C76.5705 84.7377 74.3875 84.8072 73.1198 85.2707C72.7989 85.388 71.7013 86.3564 71.8879 86.356C72.2538 86.3554 72.8523 86.4159 72.9554 85.948C73.1366 85.1261 74.0534 85.3017 74.7446 85.2528C76.1195 85.1557 80.568 84.9381 81.0906 83.3614" stroke="white" stroke-width="10.9769" stroke-linecap="round"/>
<path d="M89.0459 75.7102L89.0468 76.2465" stroke="white" stroke-width="10.9769" stroke-linecap="round"/>
<path d="M65.3326 77.1822C65.172 77.1646 65.0409 77.0282 64.9141 76.944" stroke="white" stroke-width="10.9769" stroke-linecap="round"/>
<path d="M83.765 89.1016C83.8206 90.1754 84.3261 91.2986 84.597 92.3362C84.978 93.7957 84.8383 95.398 84.8409 96.8919C84.842 97.5431 84.8431 98.1942 84.8442 98.8453C84.8453 99.5086 86.4363 97.8372 86.5435 97.7262C87.0875 97.163 88.3043 96.129 88.3156 95.2439C88.3264 94.3999 88.3127 93.5549 88.3113 92.7109C88.3112 92.6776 88.2691 92.0632 88.2192 92.2388C88.1616 92.4417 88.2147 92.7373 88.215 92.9418C88.2166 93.8372 88.1542 94.723 88.0747 95.6146C87.8297 98.3611 87.382 100.933 86.0111 103.351C85.142 104.884 83.9728 106.523 82.5462 107.597C81.7073 108.228 81.0614 109.118 80.2154 109.731C79.5347 110.225 78.8265 110.891 78.2973 111.543C77.5169 112.505 76.621 113.32 75.6936 114.134C73.4154 116.134 70.9648 117.939 68.3237 119.454C66.0608 120.752 63.7277 121.834 61.4123 122.997C60.9131 123.248 60.1927 123.538 59.7932 123.939C59.2023 124.532 61.3066 123.223 62.0668 122.872C62.3642 122.735 63.0127 122.485 62.4736 122.271" stroke="white" stroke-width="10.9769" stroke-linecap="round"/>
<path d="M62.7649 122.946C62.7828 123.087 63.9058 123.113 64.1174 123.019C65.0028 122.624 65.9441 122.317 66.8202 121.877C67.3979 121.587 68.1548 121.587 68.6974 121.24C69.4451 120.763 70.3897 120.4 71.0454 119.766C71.9343 118.906 73.0237 118.158 73.9821 117.367C75.3714 116.221 76.7388 115.021 78.0116 113.743C78.743 113.01 79.4166 112.332 80.0471 111.518C80.4136 111.045 81.5692 110.174 81.0956 109.584" stroke="white" stroke-width="10.9769" stroke-linecap="round"/>
<path d="M17.8369 161.85C17.8388 162.92 17.6968 164.086 17.8499 165.145C17.8702 165.286 18.2948 165.768 18.363 165.459C18.4446 165.088 18.3275 164.601 18.2511 164.251C18.0054 163.125 17.7176 162.002 17.4399 160.884C16.7924 158.277 16.2044 155.392 16.7156 152.698C16.8513 151.983 17.0622 150.949 17.4878 150.332C17.7777 149.911 18.4483 149.695 18.8629 149.45C20.1102 148.714 20.7421 147.368 20.944 145.983C21.0347 145.361 21.1234 144.229 20.8668 143.655C20.4931 142.818 21.6578 141.405 20.9646 140.887" stroke="white" stroke-width="10.9769" stroke-linecap="round"/>
<path d="M18.3352 145.109C18.3367 146.009 17.4072 146.647 16.955 147.345C16.3124 148.337 15.8017 149.326 15.2833 150.387C14.7296 151.52 14.1762 153.097 13.2757 154C12.9826 154.294 13.5281 152.288 13.5728 152.162C14.0329 150.858 14.4804 149.516 15.1186 148.285C15.4822 147.584 16.0112 146.997 16.404 146.321C16.4328 146.271 15.9692 146.819 15.834 146.959C13.5225 149.344 11.5183 152.246 9.91652 155.141C8.28243 158.094 7.68612 161.214 7.69183 164.562C7.69584 166.913 8.86834 168.562 9.92816 170.555C10.6664 171.944 11.3132 173.432 11.9273 174.88C12.0101 175.075 12.4737 175.526 12.3236 175.377C11.8162 174.871 11.2395 174.428 10.6736 173.988C10.4362 173.804 8.32532 171.767 8.36426 172.411C8.37724 172.625 9.85935 173.295 10.0502 173.433C12.06 174.881 14.0482 176.258 16.252 177.406C17.5187 178.066 18.9978 178.789 20.4721 178.717C21.2361 178.679 21.8437 178.181 22.3743 177.674C23.6941 176.412 24.7833 174.835 25.6913 173.26C27.4819 170.153 28.7318 166.694 28.0757 163.062C27.6716 160.826 25.8388 158.471 23.8481 157.343C22.3587 156.5 22.8337 159.045 22.8491 159.813C22.8659 160.651 22.8996 164.49 24.4167 164.431C25.2997 164.396 25.9733 163.33 26.3469 162.67C27.2517 161.071 27.831 159.106 27.8901 157.271C27.959 155.13 27.0477 153.749 25.078 152.882C24.2147 152.502 23.2236 152.44 22.3891 152C21.0902 151.316 22.1434 150.195 22.1646 149.189" stroke="white" stroke-width="10.9769" stroke-linecap="round"/>
<path d="M18.4761 166.646C18.4817 169.923 19.5047 174.73 17.8575 177.624C17.1404 178.883 13.5378 175.804 12.596 175.597C11.8029 175.422 12.1224 178.19 12.1234 178.766C12.1248 179.597 12.496 180.262 13.2243 180.677C13.6529 180.921 11.8603 178.822 11.5564 178.52C11.3135 178.277 10.002 176.575 9.72958 176.575C9.5029 176.576 11.2962 178.578 11.486 178.768C12.9356 180.212 14.7888 181.8 15.6371 183.7C15.9543 184.41 17.5287 186.827 17.8708 185.449" stroke="white" stroke-width="10.9769" stroke-linecap="round"/>
<path d="M27.2968 172.956C27.301 175.434 27.3052 177.913 27.3095 180.392C27.3117 181.683 27.0206 183.386 26.1289 184.402C25.1357 185.532 23.4793 185.766 22.5785 187.072C22.1642 187.673 21.4256 188.81 21.7813 189.589C21.9716 190.006 22.9467 190.96 22.6502 189.929" stroke="white" stroke-width="10.9769" stroke-linecap="round"/>
<path d="M22.6201 189.781C22.6206 190.084 22.6744 190.407 22.8235 190.674C22.9066 190.823 23.1343 191.454 22.9104 190.934" stroke="white" stroke-width="10.9769" stroke-linecap="round"/>
<path d="M27.3435 186.485C27.3437 186.616 27.2977 186.815 27.4275 186.889C27.5283 186.946 27.5984 187.131 27.6332 187.235" stroke="white" stroke-width="10.9769" stroke-linecap="round"/>
<path d="M29.4395 182.85C30.2046 181.468 31.2743 180.416 31.8766 178.936C32.5767 177.216 33.2535 175.541 33.8151 173.766C34.6544 171.112 34.8437 168.263 35.1432 165.525C35.1694 165.284 35.3163 164.751 35.2669 165.33C35.1741 166.419 34.9365 167.505 34.8303 168.597C34.668 170.267 34.5797 171.606 33.6897 173.068C33.4796 173.413 32.9318 174.432 32.9324 174.815C32.9329 175.105 33.7292 174.157 33.7536 174.123C34.1231 173.608 34.4738 173.088 34.8371 172.569C35.8476 171.126 35.9799 169.442 35.9771 167.758C35.9761 167.206 35.9308 165.851 35.6269 167.137C35.2001 168.944 35.3197 170.781 35.1165 172.616C35.0008 173.659 34.8969 174.724 34.3846 175.65C34.1454 176.082 34.0246 176.623 33.8962 175.86" stroke="white" stroke-width="10.9769" stroke-linecap="round"/>
<path d="M36.3948 165.942C36.6897 165.904 36.6384 163.876 36.3907 163.568C35.9323 162.997 35.5071 162.208 35.1925 161.537C34.3227 159.681 33.6116 157.718 32.9173 155.784C32.713 155.215 32.3256 154.534 32.3246 153.939C32.3229 152.962 33.1395 155.717 33.5781 156.59C33.9984 157.427 34.1982 158.344 34.5678 159.172C35.1041 160.373 35.0991 158.79 34.8144 158.202C33.8982 156.307 33.2083 154.526 31.9736 152.823C31.1149 151.638 30.6909 149.403 29.3829 148.607C28.8747 148.297 28.3298 147.346 27.9835 146.856C27.7048 146.461 27.1286 145.988 26.7789 145.64C26.2429 145.105 25.72 144.233 25.0459 143.897" stroke="white" stroke-width="10.9769" stroke-linecap="round"/>
<path d="M28.7598 137.98C30.0199 138.052 30.7384 139.169 31.6237 139.916C33.2408 141.28 35.4213 142.097 37.1333 143.386C43.5752 148.236 51.4917 151.299 57.6316 156.583C60.4813 159.036 63.4877 161.552 66.0091 164.348C66.1522 164.507 69.3246 168.755 69.0949 168.859C68.5577 169.105 65.8164 166.152 65.4764 165.854C62.4237 163.184 59.634 160.244 56.6295 157.522C52.1079 153.425 47.3534 149.312 42.4735 145.635C40.7147 144.31 39.0084 143.038 37.7319 141.277C37.4945 140.95 35.8322 139.173 37.0592 139.171C41.8284 139.162 47.2885 140.011 51.7179 141.789C52.5719 142.131 53.4932 142.16 54.3621 142.453C55.5746 142.863 56.6136 143.635 57.811 144.087C59.7026 144.801 61.5588 146.069 63.2865 147.139C65.9204 148.77 68.4936 150.741 70.707 152.898C71.7704 153.934 72.6021 154.683 70.6413 153.567" stroke="white" stroke-width="10.9769" stroke-linecap="round"/>
<path d="M44.0317 139.139C45.8105 139.136 47.6151 139.044 49.3915 139.13C49.8514 139.152 50.2828 139.481 50.7269 139.497C51.4781 139.525 52.1992 139.653 52.9451 139.678C54.0572 139.716 55.4216 140.426 56.4586 140.822C57.5083 141.224 58.5336 141.675 59.6435 141.875C60.5771 142.043 61.6234 142.208 62.5196 142.527C63.8411 142.996 65.308 143.245 66.5776 143.814C70.0672 145.377 73.3846 146.611 76.3103 149.126C77.8484 150.449 79.5393 151.782 80.8763 153.308C82.3472 154.986 83.6941 156.862 84.6233 158.887C85.2283 160.205 85.6804 161.823 86.4376 163.053C87.2984 164.45 90.6403 164.294 91.9433 164.337C96.0047 164.472 100.246 163.318 103.499 160.806C105.565 159.209 107.75 157.295 108.931 154.923C109.762 153.253 109.995 151.291 110.965 149.683C111.443 148.891 112.319 148.335 113.026 147.77C114.202 146.83 115.4 145.919 116.553 144.95C118.157 143.603 119.166 142.244 120.17 140.396C121.529 137.893 121.835 135.316 121.83 132.507C121.825 129.457 122.051 126.314 121.527 123.297C120.697 118.517 118.401 112.976 114.327 110.105C112.351 108.712 109.812 107.829 108.108 106.132" stroke="white" stroke-width="10.9769" stroke-linecap="round"/>
<path d="M112.369 112.039C109.046 112.045 106.203 111.108 103.001 110.207C99.7966 109.304 96.5331 108.37 93.2835 107.636C92.1609 107.382 91.0477 107.108 89.9348 106.82C88.6806 106.495 88.5172 106.458 88.5151 105.241" stroke="white" stroke-width="10.9769" stroke-linecap="round"/>
<path d="M42.5044 155.388C42.6261 157.627 45.5849 160.441 47.1279 161.896C49.0299 163.689 51.6022 165.284 53.9461 166.451C55.0246 166.987 56.191 167.729 57.3695 168.039C60.7178 168.919 65.4077 169.729 68.7467 168.499C70.7186 167.773 71.3715 166.244 70.0403 164.628C67.6563 161.732 64.7082 159.097 61.7925 156.748C61.164 156.242 59.3 155.638 60.088 155.636C64.8044 155.628 68.3387 157.218 72.6004 159.221C75.7688 160.711 79.0069 162.095 82.0191 163.895C82.7082 164.307 83.4757 164.872 83.4773 165.766C83.4802 167.487 79.4858 169.809 78.0365 170.217C70.4907 172.344 61.4056 169.118 54.2413 167.085C51.1987 166.221 48.0901 165.638 45.028 164.856C44.0159 164.598 43.156 164.302 42.1017 164.304C42.0424 164.304 40.9746 164.286 40.9718 164.306C40.7988 165.532 41.7892 166.647 42.3088 167.771C43.8634 171.133 46.6407 176.787 48.1183 179.896" stroke="white" stroke-width="10.9769" stroke-linecap="round"/>
<path d="M42.9276 173.267C43.1968 173.296 44.078 174.286 44.2868 174.546C44.537 174.858 44.8718 175.124 45.126 175.449C45.4849 175.909 46.1777 176.012 46.627 176.36C47.1135 176.737 47.5045 177.174 47.9861 177.547C48.3203 177.806 48.9867 178.224 49.3445 178.382C49.7371 178.556 49.9282 178.878 50.2505 179.135C50.5325 179.359 51.3671 179.887 50.545 179.888C50.2664 179.889 49.9229 179.942 49.6486 179.881C49.3651 179.819 49.3217 179.506 49.0531 179.43C48.1686 179.179 47.3746 178.901 46.5551 178.421C45.619 177.872 48.3332 176.301 48.6621 176.122C51.1189 174.783 53.69 173.239 56.4971 172.758C56.9258 172.684 57.5246 172.473 57.8877 172.822C58.5767 173.484 59.0507 174.302 59.8179 174.896C61.1684 175.943 62.3012 176.523 64.0095 176.782C65.8309 177.06 67.7189 177.075 69.5556 177.175C72.0011 177.309 74.4446 177.297 76.8939 177.28C79.8491 177.259 82.6848 176.635 85.5701 176.059C88.0609 175.562 90.4695 174.727 93.0229 174.572C93.3593 174.551 96.4002 174.23 96.5747 174.599C96.8724 175.229 94.3797 175.468 94.1303 175.508C91.943 175.861 89.7938 176.391 87.5814 176.575C85.3341 176.762 83.4645 176.445 81.3977 175.622C80.5169 175.271 79.2081 174.739 78.8313 173.775C77.0806 169.296 88.7795 168.891 90.8181 168.653C93.7004 168.316 97.0466 168.317 99.661 166.921C100.727 166.352 101.573 165.75 101.785 164.496C102.274 161.598 94.9236 162.473 93.3625 162.475C90.6269 162.48 87.8791 162.564 85.1449 162.481C84.8393 162.471 82.0303 162.389 82.6552 161.413C83.1444 160.649 84.4765 160.23 85.2746 159.926C86.7765 159.353 88.3448 158.974 89.9131 158.636C95.6045 157.409 101.471 156.711 106.97 154.712C108.693 154.085 110.522 153.27 112.076 152.282C113.05 151.663 111.844 151.887 111.288 151.99C104.911 153.171 99.0389 155.986 92.7087 157.341C90.2505 157.868 87.7685 158.28 85.3061 158.786C84.7063 158.91 83.8437 159.308 83.2463 159.309C82.4378 159.311 84.4753 158.255 85.1369 157.79C86.078 157.129 86.9401 156.327 87.8473 155.616C89.2664 154.503 90.7244 153.464 92.2061 152.442C93.4416 151.589 94.7945 150.939 96.0387 150.106C97.3554 149.225 98.5921 148.326 100.013 147.612C101.338 146.947 102.589 146.144 103.88 145.419C105.396 144.566 107.105 144.069 108.668 143.308C110.337 142.495 111.919 141.714 113.707 141.18C114.712 140.88 115.725 140.601 116.721 140.304C116.765 140.291 117.726 140.252 117.474 140.001C117.335 139.862 116.269 139.827 116.033 139.819C115.7 139.808 114.468 139.635 114.224 139.856C113.368 140.629 111.683 141.02 110.575 141.521C109.784 141.878 108.833 142.127 108.013 142.363C106.981 142.659 106.035 143.108 105.032 143.49C101.106 144.987 97.4451 147.844 94.7587 151.03C92.9587 153.165 91.5774 155.872 90.474 158.417C88.7129 162.48 86.8748 166.507 84.706 170.372C81.5295 176.033 76.5108 181.409 70.2956 183.766C68.9284 184.285 67.2815 184.632 65.8153 184.503C64.701 184.404 63.6174 183.687 62.6634 183.151C61.1238 182.286 59.3516 181.125 57.633 180.663C56.7432 180.425 55.5217 179.926 54.5831 180.216C54.0158 180.392 53.0224 180.53 52.6243 180.974C52.4133 181.209 53.7395 181.686 53.9492 181.809C54.4843 182.123 54.9835 182.442 55.5424 182.744C56.4145 183.216 57.2206 183.873 58.0582 184.399C58.389 184.606 58.8322 184.836 59.1985 184.966C59.5123 185.078 59.8269 185.417 60.1375 185.451C60.8758 185.531 59.8504 185.753 59.6019 185.753C58.8975 185.754 58.4047 185.467 57.7915 185.153C57.1783 184.839 56.3138 184.402 55.6122 184.403C55.4951 184.403 55.0689 184.253 55.3439 184.253C55.9889 184.252 56.6451 184.216 57.2874 184.283C59.3868 184.5 61.3445 185.49 63.4219 185.864C64.8042 186.113 66.1659 186.415 67.528 186.762C68.8837 187.107 70.1727 187.092 71.5662 187.09C73.3873 187.087 75.1805 187.385 76.9949 187.382C78.729 187.379 81.3326 187.862 82.9083 187.07" stroke="white" stroke-width="10.9769" stroke-linecap="round"/>
<path d="M37.4985 171.768C38.3407 171.673 38.9662 172.831 39.6038 173.347C40.4399 174.024 41.3656 175.071 41.9538 175.982C42.2892 176.502 42.8008 177.052 43.238 177.488C43.709 177.957 44.4883 177.887 45.0154 178.356C45.7719 179.029 46.7539 179.471 47.5482 180.119C48.2016 180.652 48.8675 181.168 49.5779 181.623C51.0664 182.577 52.4279 183.019 54.2548 183.199" stroke="white" stroke-width="10.9769" stroke-linecap="round"/>
<path d="M68.7236 180.762C68.3586 180.808 69.7454 182.801 69.9421 183.022C70.5512 183.704 71.3617 184.159 72.0142 184.794C72.6165 185.38 73.475 185.769 73.9354 186.483C74.1546 186.823 74.4633 187.532 74.7668 187.721C75.0166 187.877 75.2208 188.68 75.2213 188.968C75.2218 189.287 77.3651 189.5 77.7522 189.643C78.6229 189.963 79.7036 190.393 80.6435 190.392C81.0065 190.391 81.3695 190.39 81.7324 190.39C82.4679 190.389 82.1248 190.405 83.4242 190.169C86.1184 189.68 89.8587 188.917 92.3676 188.403C94.5126 187.964 98.5578 187.134 100.984 186.571C102.092 186.313 102.056 186.635 102.056 186.133" stroke="white" stroke-width="10.9769" stroke-linecap="round"/>
<path d="M65.4028 178.506C65.4062 180.504 66.009 181.994 67.3631 183.478C68.1092 184.296 69.0796 185.195 69.6043 186.188C69.9469 186.837 70.1685 187.552 70.4706 188.214C70.5772 188.448 70.8502 189.757 70.8487 188.9" stroke="white" stroke-width="10.9769" stroke-linecap="round"/>
<path d="M86.8184 180.429C87.3849 180.491 88.0302 181.249 88.4873 181.549C89.5084 182.218 90.9149 182.765 92.1002 183.059C93.3373 183.366 95.1858 183.547 95.9062 184.786C96.4388 185.703 96.7441 186.819 96.2465 187.818C95.8879 188.538 95.0773 189.377 95.1281 190.216C95.1646 190.819 97.2751 189.713 97.4641 189.6C99.1918 188.573 101.451 188.749 103.418 188.694C105.151 188.645 106.74 187.78 108.207 186.91C110.034 185.826 112.431 185.651 114.453 185.09C116.139 184.622 117.665 183.751 119.241 182.937C120.196 182.444 121.301 182.072 122.195 181.491C123.2 180.839 124.048 180.161 125.116 179.61C126.006 179.15 126.695 178.345 127.382 177.654C128.355 176.679 129.181 176.125 129.178 174.627" stroke="white" stroke-width="10.9769" stroke-linecap="round"/>
<path d="M134.42 154.414C133.924 155.3 133.79 156.382 133.269 157.305C132.114 159.356 130.464 161.056 128.914 162.808C125.835 166.289 122.168 169.4 118.434 172.166C113.185 176.054 106.021 175.601 100.864 179.71C100.741 179.808 99.7954 180.689 100.119 180.038C100.868 178.535 101.877 177.071 102.759 175.644C106.732 169.22 111.864 163.65 116.919 158.071C119.551 155.166 121.822 152.089 124.242 149.036C124.891 148.217 124.335 148.55 123.705 148.551" stroke="white" stroke-width="10.9769" stroke-linecap="round"/>
<path d="M120.553 156.699C120.557 159.096 120.561 161.43 119.626 163.67C119.545 163.866 118.685 165.544 118.8 165.64C119.324 166.074 121.187 162.437 121.383 162.126C123.908 158.127 127.917 155.274 130.646 151.404C132.579 148.664 134.414 145.882 136.504 143.26C138.27 141.045 133.683 140.737 132.362 141.081C130.599 141.542 128.851 143.252 127.77 144.632C127.42 145.079 127.148 145.617 126.75 146.016C126.201 146.567 126.894 144.449 127.165 143.72C127.678 142.341 127.708 141.024 128.029 139.648C128.134 139.198 127.909 138.664 128.513 138.591C129.007 138.533 129.391 137.826 129.416 137.384C129.433 137.087 130.845 137.23 131.091 137.23C132.196 137.228 133.161 137.053 134.24 136.931C134.836 136.864 135.42 136.633 136.016 136.619C136.526 136.606 137.06 136.679 137.557 136.541C138.216 136.356 138.921 136.6 139.575 136.453C140.462 136.255 140.953 136.053 141.929 136.458" stroke="white" stroke-width="10.9769" stroke-linecap="round"/>
<path d="M143.286 136.154C142.841 136.155 142.984 134.763 142.798 135.099C142.344 135.92 142.382 136.774 142.384 137.697C142.387 139.957 142.063 142.61 141.34 144.752C140.95 145.908 140.495 147.116 139.989 148.222C139.451 149.397 139.405 150.808 138.94 152.027C138.532 153.098 137.522 154.589 137.589 155.765C137.621 156.319 138.788 155.402 138.879 155.311C139.554 154.634 139.851 153.866 140.299 153.08C140.876 152.067 140.929 150.701 141.348 149.61C141.776 148.499 141.774 147.182 142.281 146.107C142.345 145.97 142.626 145.359 142.397 145.806C142.029 146.524 141.554 147.113 141.346 147.918C140.838 149.881 140.704 151.88 140.149 153.834C139.697 155.427 139.32 157.155 138.465 158.595C138.154 159.12 137.766 159.594 137.48 160.138C137.159 160.747 138.197 158.962 138.498 158.344C139.224 156.859 139.547 155.228 139.998 153.65C140.467 152.013 141.168 150.418 141.917 148.889C142.179 148.354 142.445 147.843 142.702 147.313C142.963 146.773 143.195 146.06 143.528 145.578C143.621 145.443 144.038 144.849 144.037 144.697C144.037 144.349 143.576 145.219 143.335 145.469C142.986 145.831 142.678 146.202 142.407 146.627C141.218 148.492 141.081 150.827 140.676 152.962C139.855 157.289 137.641 161.231 134.815 164.583C133.66 165.952 132.392 167.324 131.128 168.593C130.717 169.005 129.367 170.255 130.444 170.253C131.063 170.252 131.622 170.401 132.253 170.4C133.047 170.399 133.356 169.311 133.775 168.815C135.834 166.373 137.313 163.433 139.332 160.956C139.55 160.688 139.62 160.347 139.926 160.143C140.206 159.955 139.344 160.499 139.106 160.739C137.847 162.002 136.97 163.409 136.097 164.966C135.67 165.728 135.199 166.373 135.037 167.246C134.895 168.011 134.737 169.008 134.371 169.702C133.91 170.576 133.416 171.567 132.709 172.276C131.948 173.039 130.884 174.625 129.781 174.627" stroke="white" stroke-width="10.9769" stroke-linecap="round"/>
<path d="M88.6254 109.087C88.37 109.151 88.6167 110.46 88.6644 110.655C88.8352 111.352 89.0378 111.899 89.4013 112.512C89.8862 113.329 90.6219 113.923 91.4644 114.343C92.7473 114.981 94.0801 115.553 95.386 116.146C97.0546 116.904 98.7128 117.755 100.433 118.391C101.384 118.742 102.313 119.152 103.261 119.511C104.283 119.898 105.453 120.125 106.528 120.304C107.81 120.517 109.107 120.686 110.343 121.095C111.376 121.438 112.054 122.004 112.813 122.76C113.219 123.165 113.548 123.61 113.976 123.992C114.115 124.116 114.296 124.16 114.428 124.265C114.61 124.41 114.973 124.497 115.194 124.586C115.405 124.672 115.635 125.012 115.864 124.859" stroke="white" stroke-width="10.9769" stroke-linecap="round"/>
<path d="M93.2051 113.433C93.2438 113.814 93.6845 114.187 93.9325 114.447C94.2782 114.81 94.6913 115.122 95.0187 115.498C95.7757 116.365 96.4246 117.366 97.2405 118.179C97.8424 118.779 98.6583 119.056 99.4719 119.372C100.576 119.802 101.724 120.184 102.796 120.689C104.123 121.313 105.61 121.796 107.047 122.081C108.042 122.278 109.076 122.331 110.056 122.547C110.56 122.658 111.297 122.81 111.669 123.181C111.847 123.359 112.525 123.942 112.524 123.486" stroke="white" stroke-width="10.9769" stroke-linecap="round"/>
<path d="M110.055 122.402L110.056 123.345" stroke="white" stroke-width="10.9769" stroke-linecap="round"/>
<path d="M97.2293 107.859C97.2245 105.058 97.2197 102.257 97.2149 99.4555C97.2122 97.8772 96.8975 95.6251 97.5638 94.1527C98.4284 92.242 99.3564 96.534 99.65 97.1714C100.845 99.7659 102.235 102.338 103.772 104.746C104.735 106.255 106.093 108.251 107.717 109.141C107.915 109.249 108.551 109.86 108.791 109.722C109.395 109.376 108.318 107.718 108.164 107.43C106.352 104.046 104.622 100.669 103.03 97.1656C102.19 95.3161 101.397 93.4688 100.423 91.6823C99.8201 90.5771 99.2046 89.1336 98.1504 88.3458C96.6678 87.2378 94.3292 86.215 94.3255 84.0575C94.324 83.2096 94.2262 82.3947 94.6129 81.618C94.9341 80.9729 95.2731 80.0857 95.2719 79.3502C95.2712 78.9775 95.0603 77.6372 95.3215 77.3751C95.7905 76.9044 96.6884 77.7105 97.0589 77.9156C99.3819 79.201 102.896 78.9793 105.531 78.9748C107.072 78.9722 108.597 79.294 109.947 80.041C111.676 80.9977 113.52 81.3882 115.306 82.166C116.615 82.7363 117.838 83.2954 119.14 83.9092C120.78 84.6827 122.121 85.8523 123.678 86.7646C125.108 87.6026 126.415 88.6347 127.845 89.5412C128.658 90.057 129.423 90.8762 130.128 91.5786C130.754 92.202 131.33 93.0823 132.027 93.6035C132.669 94.0828 133.388 95.2953 133.821 95.9731C134.267 96.6713 134.836 97.3969 135.388 98.0118C136.664 99.4329 137.341 101.456 137.969 103.204C138.521 104.742 139.021 106.237 139.819 107.667C140.259 108.456 140.242 109.359 140.605 110.171C140.92 110.878 140.663 111.798 141.02 112.437C141.359 113.046 141.142 114.134 141.143 114.823C141.145 115.666 141.317 116.928 141.572 117.752C142.026 119.216 141.87 121.028 141.872 122.576C141.875 123.968 141.877 125.36 141.879 126.752C141.883 128.786 140.286 129.305 138.557 129.74C136.746 130.196 133.984 130.856 132.288 129.751C129.241 127.766 129.288 123.957 132.035 121.639C133.043 120.788 134.593 119.754 135.185 118.532C136.074 116.693 134.858 114.834 133.983 113.285C133.34 112.146 132.473 111.164 131.949 109.961C131.463 108.844 130.687 107.594 129.809 106.743C127.78 104.776 127.847 107.64 127.639 109.054C126.992 113.462 126.116 117.532 126.124 122.007C126.126 123.074 126.417 124.841 127.561 125.411C128.954 126.105 129.468 124.313 129.466 123.3C129.46 119.39 129.034 115.638 128.678 111.756C128 104.374 125.857 95.1027 119.508 90.417C115.113 87.1723 110.924 85.1692 105.422 85.1786C103.539 85.1818 106.102 88.7303 106.41 89.127C109.467 93.0652 112.9 96.6927 116.066 100.537C117.802 102.645 120.055 105.522 120.613 108.283C120.704 108.735 121.332 110.629 121.33 109.25" stroke="white" stroke-width="10.9769" stroke-linecap="round"/>
<path d="M103.395 86.8869C103.301 86.7821 103.333 86.6373 103.333 86.505C103.332 85.9897 103.352 85.4695 103.296 84.9565C103.193 84.016 102.854 83.1974 102.65 82.2903C102.474 81.5039 101.983 80.7653 101.637 80.0443C101.427 79.6081 101.191 79.2137 100.85 78.8621C100.564 78.5663 100.21 77.6216 99.7568 77.6224" stroke="white" stroke-width="10.9769" stroke-linecap="round"/>
</g>
<defs>
<clipPath id="clip0_205_2921">
<rect width="149.426" height="199.59" fill="white" transform="translate(0.71582 0.4104) rotate(-0.0977007)"/>
</clipPath>
</defs>
</svg>
