<svg width="162" height="216" viewBox="0 0 162 216" fill="none" xmlns="http://www.w3.org/2000/svg">
<g clip-path="url(#clip0_117_8961)">
<rect width="160.784" height="214.762" transform="translate(0.872925 0.481445)" fill="black"/>
<path d="M111.693 110.832C123.132 98.22 136.243 69.3604 97.06 54.3555" stroke="white" stroke-width="3.22717"/>
<path d="M113.086 110.505C97.5502 104.001 72.8985 83.6955 98.4552 54.0386" stroke="white" stroke-width="3.22717"/>
<path d="M94.2297 58.6445C105.668 46.032 118.779 17.1724 79.5965 2.16752" stroke="white" stroke-width="3.22717"/>
<path d="M95.6217 58.318C80.0862 51.8141 55.4345 31.5085 80.9912 1.85162" stroke="white" stroke-width="3.22717"/>
<path d="M147.865 213.138C159.303 200.525 172.415 171.666 133.232 156.661" stroke="white" stroke-width="3.22717"/>
<path d="M149.258 212.81C133.723 206.306 109.071 186.001 134.628 156.344" stroke="white" stroke-width="3.22717"/>
<path d="M130.364 160.833C141.803 148.22 154.914 119.361 115.731 104.356" stroke="white" stroke-width="3.22717"/>
<path d="M131.757 160.505C116.221 154.001 91.5694 133.696 117.126 104.039" stroke="white" stroke-width="3.22717"/>
<path d="M40.5301 109.302C57.5594 104.762 85.691 87.5883 62.1617 54.7621" stroke="white" stroke-width="3.22717"/>
<path d="M41.877 109.753C32.8796 96.2772 24.573 66.5947 63.5045 55.2238" stroke="white" stroke-width="3.22717"/>
<path d="M57.2495 56.8598C74.2787 52.32 102.41 35.1462 78.881 2.32013" stroke="white" stroke-width="3.22717"/>
<path d="M58.5985 57.3114C49.6011 43.8353 41.2945 14.1528 80.2259 2.78189" stroke="white" stroke-width="3.22717"/>
<path d="M9.35958 213.118C26.3888 208.578 54.5205 191.404 30.9912 158.578" stroke="white" stroke-width="3.22717"/>
<path d="M10.7067 213.569C1.70933 200.093 -6.59726 170.41 32.3342 159.039" stroke="white" stroke-width="3.22717"/>
<path d="M26.1207 160.553C43.15 156.013 71.2816 138.84 47.7523 106.014" stroke="white" stroke-width="3.22717"/>
<path d="M27.4691 161.005C18.4717 147.529 10.1651 117.846 49.0965 106.475" stroke="white" stroke-width="3.22717"/>
</g>
<defs>
<clipPath id="clip0_117_8961">
<rect width="160.784" height="214.762" fill="white" transform="translate(0.872925 0.481445)"/>
</clipPath>
</defs>
</svg>
