<svg width="151" height="201" viewBox="0 0 151 201" fill="none" xmlns="http://www.w3.org/2000/svg">
<g clip-path="url(#clip0_205_3517)">
<rect width="149.426" height="199.59" transform="translate(0.803955 0.834351) rotate(-0.0977007)" fill="black"/>
<path d="M14.6455 102.82C27.1462 94.9156 45.3457 73.5414 18.167 50.8524" stroke="white" stroke-width="2.99918"/>
<path d="M15.8414 102.891C5.21447 93.4208 -8.96491 69.8568 19.3622 50.9328" stroke="white" stroke-width="2.99918"/>
<path d="M14.7634 53.8078C27.2641 45.9032 45.4637 24.529 18.2849 1.83998" stroke="white" stroke-width="2.99918"/>
<path d="M15.9591 53.8776C5.33214 44.4074 -8.84723 20.8434 19.4799 1.91947" stroke="white" stroke-width="2.99918"/>
<path d="M15.9611 199.386C28.4619 191.482 46.6614 170.108 19.4827 147.418" stroke="white" stroke-width="2.99918"/>
<path d="M17.1571 199.458C6.53014 189.987 -7.64924 166.423 20.6779 147.499" stroke="white" stroke-width="2.99918"/>
<path d="M16.0817 150.263C28.5825 142.358 46.782 120.984 19.6033 98.2948" stroke="white" stroke-width="2.99918"/>
<path d="M17.2765 150.334C6.64952 140.864 -7.52985 117.3 20.7973 98.376" stroke="white" stroke-width="2.99918"/>
<path d="M129.914 102.735C142.415 94.8309 160.615 73.4567 133.436 50.7677" stroke="white" stroke-width="2.99918"/>
<path d="M131.11 102.806C120.483 93.3363 106.304 69.7723 134.631 50.8484" stroke="white" stroke-width="2.99918"/>
<path d="M130.036 53.6109C142.536 45.7063 160.736 24.3321 133.557 1.64308" stroke="white" stroke-width="2.99918"/>
<path d="M131.23 53.6823C120.603 44.2122 106.424 20.6481 134.751 1.72422" stroke="white" stroke-width="2.99918"/>
<path d="M131.237 199.19C143.737 191.286 161.937 169.911 134.758 147.222" stroke="white" stroke-width="2.99918"/>
<path d="M132.432 199.261C121.806 189.791 107.626 166.227 135.953 147.303" stroke="white" stroke-width="2.99918"/>
<path d="M131.351 150.066C143.852 142.161 162.051 120.787 134.872 98.0982" stroke="white" stroke-width="2.99918"/>
<path d="M132.546 150.137C121.919 140.667 107.74 117.103 136.067 98.1788" stroke="white" stroke-width="2.99918"/>
<path d="M69.2208 100.504C86.3956 99.843 117.15 88.9621 103.051 50.3106" stroke="white" stroke-width="2.99918"/>
<path d="M70.3821 101.274C65.2181 85.559 64.6972 53.6044 104.206 51.0899" stroke="white" stroke-width="2.99918"/>
<path d="M97.9713 51.1855C115.146 50.5248 145.901 39.6439 131.801 0.992395" stroke="white" stroke-width="2.99918"/>
<path d="M99.1346 51.955C93.9705 36.2403 93.4497 4.28572 132.958 1.77117" stroke="white" stroke-width="2.99918"/>
<path d="M14.3285 198.242C31.5033 197.581 62.2581 186.7 48.1584 148.049" stroke="white" stroke-width="2.99918"/>
<path d="M15.4893 199.012C10.3252 183.298 9.80441 151.343 49.3129 148.828" stroke="white" stroke-width="2.99918"/>
<path d="M43.0763 148.924C60.2511 148.263 91.0059 137.383 76.9062 98.731" stroke="white" stroke-width="2.99918"/>
<path d="M44.2376 149.695C39.0735 133.98 38.5527 102.025 78.0612 99.5108" stroke="white" stroke-width="2.99918"/>
<path d="M14.0349 31.4489C14.0369 32.6157 14.1191 33.4645 14.4836 34.552" stroke="white" stroke-width="10.9769" stroke-linecap="round"/>
<path d="M16.4866 168.902C16.4921 172.135 18.3493 173.224 21.4466 173.993C25.1518 174.912 27.7683 172.388 29.9872 169.667C31.7394 167.518 33.5886 165.51 35.544 163.548C37.1101 161.977 38.7787 161.383 37.3108 159.555" stroke="white" stroke-width="10.9769" stroke-linecap="round"/>
<path d="M53.2172 127.158C53.91 127.676 53.651 126.088 53.6582 125.729C53.7083 123.23 54.8806 121.87 56.7528 120.304C57.4897 119.688 64.0041 115.029 62.5068 114.284" stroke="white" stroke-width="10.9769" stroke-linecap="round"/>
<path d="M79.7527 86.3195C83.3285 80.5839 87.1787 75.2522 91.4013 69.9921C92.0967 69.1258 93.0244 68.3936 93.0224 67.2304" stroke="white" stroke-width="10.9769" stroke-linecap="round"/>
<path d="M110.703 34.8321C111.176 32.2079 113.886 29.309 115.297 27.1386C116.874 24.7103 118.388 21.0063 121.097 19.5661C124.919 17.5345 131.248 19.5503 133.395 23.0185C136.471 27.9878 137.327 45.952 137.317 40.1076" stroke="white" stroke-width="10.9769" stroke-linecap="round"/>
<path d="M135.151 70.2629C135.158 74.404 134.736 86.8201 134.729 82.679" stroke="white" stroke-width="10.9769" stroke-linecap="round"/>
<path d="M132.128 118.156L132.156 134.562" stroke="white" stroke-width="10.9769" stroke-linecap="round"/>
<path d="M134.427 165.596L134.453 181.116" stroke="white" stroke-width="10.9769" stroke-linecap="round"/>
<path d="M17.2759 111.701C18.4572 111.847 17.7398 123.712 17.7427 125.446" stroke="white" stroke-width="10.9769" stroke-linecap="round"/>
<path d="M14.5391 67.3643L14.5663 83.3269" stroke="white" stroke-width="10.9769" stroke-linecap="round"/>
<path d="M18.142 175.778C18.1365 172.535 18.1531 182.266 18.1586 185.509C18.16 186.296 18.3892 187.187 17.9688 187.899C17.8706 188.066 17.6695 188.54 17.4512 188.602C17.1784 188.681 16.6213 190.943 16.9945 191.155C17.5009 191.443 18.0044 190.888 18.4032 190.629C19.3388 190.021 20.4768 189.871 21.5508 189.643C22.868 189.364 24.1997 189.136 25.5216 188.877C27.2584 188.536 29.2756 188.502 30.8277 187.573C32.8267 186.377 34.4519 184.319 35.6607 182.372C36.3021 181.339 36.897 180.238 37.4002 179.131C37.5786 178.738 37.8837 178.157 37.8431 177.699C37.8106 177.332 35.0704 177.538 34.7355 177.553C32.1402 177.668 29.7158 178.961 27.4823 180.18C26.5952 180.664 25.7314 181.22 24.8911 181.783C24.4678 182.066 23.7422 181.999 23.2566 181.995C22.1295 181.985 20.9749 181.785 19.8504 181.948C18.7625 182.107 17.8059 182.739 16.8342 183.211C12.109 185.506 12.6662 178.046 12.3878 175.474C12.2645 174.334 12.1291 173.199 12.0256 172.058C11.9907 171.672 12.101 170.887 11.6041 170.717C10.5589 170.359 10.0089 172.048 10.0252 172.795C10.0567 174.249 10.3603 175.698 10.7137 177.101C11.3071 179.457 11.9376 181.859 12.7799 184.14C12.8274 184.269 13.9056 186.738 14.1045 186.538" stroke="white" stroke-width="10.9769" stroke-linecap="round"/>
<path d="M11.7286 176.921C11.7241 174.24 11.7195 171.558 11.7149 168.877C11.7132 167.883 11.7634 167.051 12.1661 166.12C12.2386 165.953 12.4768 165.576 12.3587 165.37C12.2185 165.126 11.1768 166.23 11.0713 166.342C10.8782 166.548 10.7785 166.696 11.0871 166.363C11.4353 165.987 11.7953 165.618 12.1227 165.224C13.1564 163.979 14.014 162.516 14.9088 161.169C15.6567 160.043 16.6663 158.917 17.7122 158.067C18.3576 157.542 19.0337 156.811 19.4066 156.062C19.5467 155.781 19.008 155.106 18.7655 155.026" stroke="white" stroke-width="10.9769" stroke-linecap="round"/>
<path d="M17.74 161.725C17.7423 163.11 20.3955 162.663 21.2315 162.662C21.6087 162.661 22.4326 162.798 22.7404 162.471C22.8949 162.307 22.836 161.988 22.8126 161.795C22.7048 160.905 22.4111 160.01 22.0536 159.192C21.7933 158.595 21.4401 157.862 20.9292 157.433C20.768 157.297 20.9534 157.69 20.9611 157.705C21.91 159.595 22.9599 161.292 23.3918 163.413C23.5413 164.147 23.7567 165.143 23.4222 165.865C23.2109 166.321 22.8489 166.646 22.5071 166.999C22.2231 167.291 22.7189 166.887 22.7479 166.862C23.3435 166.353 23.9305 165.84 24.5584 165.371C26.5611 163.874 28.3762 162.163 30.2935 160.561C31.6016 159.468 32.9384 158.739 34.4813 158.039C35.5611 157.548 36.6376 157.041 37.7804 156.712C37.954 156.662 37.4259 156.795 37.2619 156.87C36.0799 157.417 35.0565 158.344 34.043 159.14C29.1394 162.99 23.9593 166.418 18.865 170.002C18.0581 170.57 17.219 171.156 16.5573 171.898C16.5085 171.953 16.082 172.455 16.448 172.343C17.2637 172.095 18.0033 171.54 18.7885 171.208C20.5245 170.474 22.3741 170.03 24.1777 169.501C26.7212 168.754 29.2708 167.956 31.7139 166.92C32.684 166.509 33.3759 166.112 34.0641 165.375" stroke="white" stroke-width="10.9769" stroke-linecap="round"/>
<path d="M34.3457 164.526C35.8251 163.24 37.5068 162.2 39.1767 161.185C40.6421 160.294 42.2414 159.524 43.663 158.573C44.0249 158.331 43.9493 158.152 44.0703 157.718C44.2312 157.142 44.3231 156.589 44.3294 155.989C44.3305 155.879 44.3944 155.477 44.3074 155.381C44.1907 155.252 44.3442 155.298 44.6111 155.26C45.2203 155.172 44.3901 154.893 44.2436 154.846C43.7487 154.69 43.0987 154.92 42.63 155.08C42.4027 155.157 42.052 155.608 41.9702 155.364" stroke="white" stroke-width="10.9769" stroke-linecap="round"/>
<path d="M41.9697 155.269C41.973 157.191 41.9762 159.112 41.9795 161.033C41.9831 163.16 42.1782 165.368 41.5922 167.438C40.9065 169.859 39.6868 172.073 38.2761 174.145C37.0974 175.877 35.815 177.664 33.8976 178.581" stroke="white" stroke-width="10.9769" stroke-linecap="round"/>
<path d="M43.5759 156.682C43.6192 157.232 43.8489 157.771 44.0188 158.29C44.4882 159.722 44.9606 161.176 45.1372 162.679C45.4475 165.319 45.3696 167.778 44.3327 170.263C43.6461 171.908 42.7623 173.523 41.8413 175.046C41.2427 176.036 40.5544 176.965 39.8076 177.848C38.5018 179.392 36.9712 180.217 35.223 181.22" stroke="white" stroke-width="10.9769" stroke-linecap="round"/>
<path d="M15.1396 185.499C15.2938 185.675 15.7451 185.617 15.9627 185.697C16.297 185.819 16.6278 186.029 16.9591 186.172C18.2606 186.735 19.5622 187.147 20.9074 187.596C21.6487 187.843 22.2496 188.25 22.8796 188.698C23.5073 189.145 23.6878 190.071 23.9207 190.766" stroke="white" stroke-width="10.9769" stroke-linecap="round"/>
<path d="M23.9209 190.765C25.4151 190.763 26.86 190.85 28.3064 190.428C30.921 189.664 33.1984 187.942 35.463 186.48C36.6061 185.743 37.3387 184.599 38.1934 183.573C39.7648 181.686 41.2594 179.579 42.4641 177.44C43.2965 175.961 43.5132 174.333 44.1226 172.778C44.369 172.149 44.4942 171.799 44.3555 171.111" stroke="white" stroke-width="10.9769" stroke-linecap="round"/>
<path d="M18.4592 140.784C18.4599 141.215 18.409 139.919 18.305 139.5C17.7101 137.107 16.9848 134.774 16.5164 132.345C15.6732 127.974 15.0812 123.55 14.094 119.212C13.9602 118.624 14.0106 117.492 13.4197 117.138C12.8779 116.815 12.3941 117.701 12.2161 118.063C11.8238 118.86 11.7115 119.819 11.445 120.663C10.8893 122.423 10.4621 124.26 10.6578 126.114C10.7776 127.25 10.9751 128.412 11.3709 129.488C11.6728 130.308 12.1823 131.058 12.5906 131.828C13.2266 133.027 13.8597 134.228 14.478 135.435C14.9151 136.289 15.4072 137.045 15.6771 137.964C15.8737 138.634 16.1248 139.306 16.0998 140.013C16.092 140.233 15.9127 140.357 15.7961 140.118C15.4899 139.489 15.1409 138.914 14.7554 138.327C13.5706 136.524 12.4289 134.698 11.2771 132.873" stroke="white" stroke-width="10.9769" stroke-linecap="round"/>
<path d="M10.8027 131.176L13.1643 133.247" stroke="white" stroke-width="10.9769" stroke-linecap="round"/>
<path d="M22.6711 121.912C22.6683 120.273 22.6767 125.189 22.6795 126.827C22.683 128.919 22.8587 131.002 21.7046 132.839C21.2833 133.51 20.7002 134.057 20.0935 134.561C19.1714 135.326 18.5016 136.351 17.887 137.368C17.4525 138.087 16.9463 138.864 16.9478 139.728C16.9485 140.159 16.9492 140.591 16.95 141.022C16.9503 141.244 16.8586 142.737 16.8572 141.918" stroke="white" stroke-width="10.9769" stroke-linecap="round"/>
<path d="M16.8572 141.824C16.8574 141.972 16.8819 143.027 17.0476 142.861" stroke="white" stroke-width="10.9769" stroke-linecap="round"/>
<path d="M21.1898 138.232C22.5392 137.284 23.9956 136.162 24.9516 134.782C25.0976 134.572 25.2123 134.396 25.2544 134.148C25.4886 132.768 25.7572 131.402 25.9391 130.012C26.1038 128.754 26.2649 127.52 26.2628 126.249C26.2609 125.131 26.388 123.928 26.0945 122.838C25.3391 120.033 23.5875 117.55 22.3762 114.937C21.4927 113.031 20.5051 111.172 19.8197 109.182C19.6194 108.601 19.4428 107.848 19.1353 107.318C19.0066 107.096 18.7478 107.046 18.5167 107.151C18.0687 107.356 17.9146 108.056 17.649 108.432C17.0521 109.275 16.416 110.03 15.7561 110.824C15.0841 111.634 14.3844 112.591 13.9057 113.531C13.7789 113.781 13.7749 114.209 13.6032 114.381" stroke="white" stroke-width="10.9769" stroke-linecap="round"/>
<path d="M11.9067 115.611C11.8691 116.033 11.6251 116.413 11.6259 116.837" stroke="white" stroke-width="10.9769" stroke-linecap="round"/>
<path d="M28.0571 127.657C28.104 127.082 28.3879 126.627 28.5628 126.099C28.8259 125.305 28.91 124.34 28.8989 123.505C28.8895 122.789 28.6198 122.107 28.4238 121.425C28.1584 120.503 27.9037 119.578 27.6226 118.66C27.1217 117.024 26.5271 115.463 25.6548 113.984C24.7861 112.511 23.8627 111.134 22.8545 109.76C22.3225 109.034 21.6694 108.389 21.3049 107.556C20.9031 106.638 20.3667 105.767 19.8123 104.939" stroke="white" stroke-width="10.9769" stroke-linecap="round"/>
<path d="M11.3594 70.8077C11.306 71.1312 11.0946 71.4559 10.968 71.7516C10.4735 72.9058 10.1542 74.0861 9.91028 75.3167C9.42092 77.7854 9.24186 80.7774 10.0599 83.1925C10.5181 84.5449 11.0641 85.8222 11.8586 87.0095C11.8814 87.0435 11.9426 87.1098 11.9427 87.1561C11.9431 87.4104 11.7501 86.6849 11.669 86.4439C10.8845 84.1121 10.3312 81.79 10.1686 79.3303C9.99757 76.7417 10.0445 74.1416 10.0401 71.5488C10.0397 71.3312 10.072 71.2711 9.98235 71.4913C9.65601 72.2929 9.4644 73.0638 9.48872 73.9445C9.55647 76.3979 10.3181 78.7677 11.2196 81.0263C12.1634 83.391 13.1318 85.7536 14.1556 88.085C14.6446 89.1985 15.1941 90.289 15.7333 91.3627" stroke="white" stroke-width="10.9769" stroke-linecap="round"/>
<path d="M12.0497 88.0674C12.0256 88.0493 11.9556 90.0513 11.9645 90.3522C11.9857 91.0706 12.0597 91.797 12.5182 92.3845C12.8366 92.7923 13.2868 93.0702 13.6519 93.4306C14.6154 94.3816 15.363 95.504 16.2144 96.5493" stroke="white" stroke-width="10.9769" stroke-linecap="round"/>
<path d="M23.912 75.0312L19.1316 92.6778" stroke="white" stroke-width="10.9769" stroke-linecap="round"/>
<path d="M23.628 74.4655C23.8868 75.0772 23.7249 75.9812 23.7261 76.6348C23.7277 77.5892 23.7878 78.5653 23.7153 79.5169C23.5933 81.1168 22.8555 82.9365 22.1567 84.372C21.9165 84.8655 21.6483 85.3637 21.4414 85.8719C21.3221 86.1648 22.0764 85.7622 22.3527 85.6083C22.9381 85.2824 23.4754 84.9319 23.9175 84.4266C24.9308 83.2687 25.4929 81.9836 25.8496 80.4775C26.1511 79.2045 26.0863 77.8979 26.0841 76.5993C26.0829 75.889 26.3358 74.516 25.8175 73.9168C25.6291 73.699 25.5804 74.3379 25.5564 74.4413C25.2068 75.9467 25.0581 77.4679 24.8043 78.9911C24.2466 82.3382 23.4179 85.7094 21.9756 88.795C21.7101 89.363 21.4478 89.9542 21.1086 90.4838C20.9739 90.6941 21.0146 90.6453 21.0142 90.4106" stroke="white" stroke-width="10.9769" stroke-linecap="round"/>
<path d="M24.8533 74.0858C24.8516 73.047 24.8537 72.0725 24.4604 71.0891C23.9185 69.7338 23.2798 68.4762 22.5831 67.2041C21.3582 64.9675 19.2999 62.9676 19.0813 60.293C19.0327 59.6982 19.0254 59.229 18.2259 59.5504C17.735 59.7477 17.941 58.3932 17.9406 58.157" stroke="white" stroke-width="10.9769" stroke-linecap="round"/>
<path d="M17.7534 58.4411C17.3986 58.6784 16.9998 58.7466 16.6749 59.0508C15.9754 59.7059 15.3117 60.4153 14.7502 61.1921C14.1762 61.986 13.7401 62.8171 13.4078 63.7358C13.1527 64.4411 13.0039 65.2359 12.6726 65.9013" stroke="white" stroke-width="10.9769" stroke-linecap="round"/>
<path d="M12.4839 66.4677C11.974 66.6216 11.6875 67.7936 11.5436 68.2195C11.355 68.7781 11.1681 69.2735 11.1691 69.8656" stroke="white" stroke-width="10.9769" stroke-linecap="round"/>
<path d="M20.776 61.2652C20.7908 61.1602 20.8717 61.2641 20.9123 61.3069C21.5643 61.9942 22.1737 62.7494 22.7291 63.5152C23.4431 64.4994 23.8868 65.6732 24.2335 66.8349C24.5137 67.7739 24.7236 68.7244 25.0348 69.6527" stroke="white" stroke-width="10.9769" stroke-linecap="round"/>
<path d="M22.0311 22.9683C21.8341 24.4045 20.9112 25.923 20.2776 27.2053C19.8825 28.0049 19.4828 28.8091 19.045 29.5865C18.8637 29.9083 18.6605 30.4476 18.2963 30.0122C16.5993 27.9828 15.9049 24.9168 15.5479 22.361C15.2742 20.401 15.5083 18.4234 15.2811 16.4715C15.2549 16.246 15.2007 15.5034 14.9229 15.3821C14.4829 15.19 13.6422 16.3827 13.4578 16.6108C12.4088 17.9078 11.4914 19.5286 10.8558 21.0642C9.25883 24.9221 8.1752 29.2008 9.37795 33.3077C9.76221 34.6199 10.1742 35.7469 10.9665 36.8474C11.527 37.6258 12.248 38.2291 12.8566 38.9664C14.0792 40.4479 14.2071 42.0975 14.7566 43.8575C14.8899 44.2844 15.2864 45.1429 14.6366 44.1512C13.8848 43.0038 12.7252 41.8043 12.7227 40.3396" stroke="white" stroke-width="10.9769" stroke-linecap="round"/>
<path d="M12.7222 40.3388C12.7234 41.0306 13.1307 41.6181 13.3962 42.2346C13.6503 42.8248 14.0368 43.4858 14.4053 44.0145C14.5731 44.2552 14.7305 44.5847 14.8207 44.8627C15.0302 45.5081 15.3393 46.0448 15.6046 46.6483C15.6734 46.8049 15.7012 47.0897 15.9613 46.8939C16.2711 46.6608 16.4356 46.203 16.6199 45.8762C16.9863 45.2266 17.4451 44.6577 17.9164 44.0819C19.2662 42.4324 20.8731 40.9747 22.0478 39.1857C23.4459 37.0565 24.4069 34.5812 25.1851 32.169C25.99 29.6742 26.6741 27.0122 27.0531 24.4156C27.2833 22.8393 27.3099 21.1379 26.5316 19.6951C25.0468 16.9431 22.6428 14.9236 20.9225 12.3527C20.4265 11.6114 19.9308 10.864 19.4672 10.1019C19.2995 9.82637 19.125 9.26238 18.6957 9.4063C18.4368 9.49309 18.2717 9.77026 18.1202 9.97846C17.7609 10.4723 17.361 10.8809 16.9172 11.301C16.061 12.1117 14.9088 13.0426 14.3753 14.1141" stroke="white" stroke-width="10.9769" stroke-linecap="round"/>
<path d="M59.1554 119.246C57.7535 122.886 54.4751 125.643 52.4202 128.919C52.0676 129.481 51.8968 130.176 51.5595 130.762C50.8653 131.968 49.9215 132.925 49.1213 134.062C47.9675 135.703 47.5237 137.047 47.5269 138.93C47.528 139.57 47.5291 140.21 47.5302 140.851C47.5305 141.034 47.5326 142.261 47.5314 141.567" stroke="white" stroke-width="10.9769" stroke-linecap="round"/>
<path d="M54.1831 132.46C53.8227 133.184 53.7543 134.096 53.4199 134.859C52.8645 136.127 52.2631 137.357 51.5135 138.524C50.908 139.467 50.1595 140.723 49.0694 141.152C48.8199 141.25 48.0229 141.57 48.0044 141.915C47.9929 142.129 47.5997 142.816 47.5988 142.322" stroke="white" stroke-width="10.9769" stroke-linecap="round"/>
<path d="M47.5988 142.22C48.4387 142.219 49.285 142.17 50.1153 142.317C51.3186 142.531 52.6083 142.658 53.8279 142.458C55.3628 142.205 56.8185 141.742 58.2489 141.136C60.2149 140.302 61.8692 138.868 63.5576 137.6C66.1555 135.65 68.6383 133.058 70.3606 130.299C72.2239 127.315 72.7112 123.431 72.9891 119.993C73.0141 119.684 73.3226 117.589 72.9115 117.443C72.1002 117.153 71.1354 118.289 70.6512 118.722C66.583 122.358 62.521 125.958 59.1557 130.273C58.3771 131.272 57.8323 132.46 56.9268 133.369C56.7505 133.546 56.5401 133.443 56.34 133.359C55.2678 132.906 54.1255 132.756 52.9873 132.563C51.776 132.359 50.56 132.21 49.8648 131.096C49.374 130.309 48.5295 130.067 47.6231 130.033C46.9253 130.007 48.1436 127.704 48.2619 127.415C49.3578 124.732 50.5414 121.907 52.2034 119.52C54.072 116.837 56.8225 114.886 59.6119 113.279C62.1288 111.829 64.783 110.427 67.4927 109.384C68.209 109.108 68.895 108.859 69.6581 108.748C69.7679 108.732 70.5133 108.566 70.3462 108.567C67.982 108.571 65.7857 108.89 63.5665 109.74C60.7711 110.812 58.0768 112.46 55.766 114.358C54.8614 115.1 54.0309 115.961 53.1691 116.754C52.785 117.107 51.6318 118.107 52.116 117.913C53.0487 117.538 53.8622 116.437 54.5836 115.781C56.6961 113.861 58.9526 112.132 61.3054 110.517C63.0958 109.288 64.8918 108.074 66.8457 107.117C67.5493 106.772 68.2883 106.647 69.0336 106.436C69.696 106.249 70.5762 105.874 71.2672 106.094C72.1717 106.382 72.5388 106.741 72.7818 107.603C73.223 109.169 73.0127 110.861 73.1907 112.477C73.4234 114.589 73.8233 116.773 73.8618 118.897C73.8697 119.333 73.8633 119.77 73.864 120.206C73.8647 120.584 73.4626 121.895 74.1318 121.745C75.6307 121.41 75.108 117.878 75.015 116.903C74.7765 114.405 74.2368 111.899 73.8456 109.418C73.7122 108.572 73.76 107.698 73.4858 106.88C73.348 106.469 73.4335 105.948 73.4327 105.515" stroke="white" stroke-width="10.9769" stroke-linecap="round"/>
<path d="M81.9104 74.4248C79.2198 74.4294 77.1001 77.2507 75.7125 79.2423C73.7485 82.0612 72.8849 85.7057 72.5077 89.0761C72.4023 90.0176 72.3924 90.9406 72.394 91.886C72.3942 92.0262 72.4274 93.6045 72.5998 93.4315" stroke="white" stroke-width="10.9769" stroke-linecap="round"/>
<path d="M73.5171 95.5625C73.8211 95.8049 74.5022 95.6624 74.8601 95.6618C76.3619 95.6592 77.6058 95.2929 79.0223 94.7858C83.3408 93.2399 87.3061 90.5072 90.977 87.8033C92.5827 86.6206 94.0432 85.1929 95.512 83.8462C96.7478 82.713 97.7059 81.6289 98.4734 80.1287C99.9407 77.2606 100.411 74.0407 100.844 70.8719C101.033 69.4874 101.12 68.1201 101.215 66.7301C101.311 65.3221 101.68 63.9182 101.693 62.5091C101.704 61.2986 101.526 59.2596 99.916 59.2623C99.3735 59.2633 98.7392 59.1697 98.2121 59.2878C97.9523 59.346 97.7529 59.5143 97.5131 59.6162C97.0077 59.8311 96.4252 59.9177 95.9003 60.0816C94.2058 60.6107 92.6143 61.3307 91.0291 62.1267C89.3473 62.9712 87.6476 63.7356 86.0348 64.7136C84.8157 65.4527 83.7863 66.576 82.8238 67.619C81.2009 69.3777 79.8768 71.4049 78.1955 73.1109C77.5137 73.8027 76.9056 74.5568 76.281 75.2976C76.1888 75.4069 75.6469 76.2173 75.881 75.6424C76.5425 74.0175 77.5922 72.293 78.677 70.9322C80.0065 69.2646 81.5279 67.8466 83.1208 66.4393C84.9836 64.7937 86.7591 62.9969 88.8392 61.6226C90.3674 60.613 91.7299 59.6822 93.5179 59.1943C94.9662 58.799 96.4134 58.659 97.9064 58.6564C98.5719 58.6553 99.6683 58.8185 100.214 58.393C100.375 58.2671 100.638 58.2616 100.366 58.246C100.15 58.2337 100.032 58.0222 99.9587 57.8405" stroke="white" stroke-width="10.9769" stroke-linecap="round"/>
<path d="M99.8563 57.5357C99.8558 57.2945 99.754 57.1398 99.7537 56.9265" stroke="white" stroke-width="10.9769" stroke-linecap="round"/>
<path d="M96.2033 58.3543C95.4478 58.5031 94.6672 58.417 93.913 58.5839C93.2454 58.7317 92.6154 59.0974 91.9961 59.377C90.9298 59.8587 89.8033 60.5594 88.9642 61.3908C86.6473 63.6861 84.6237 66.2178 82.7595 68.8826C82.303 69.5351 81.7738 70.1429 81.2959 70.7807C81.1661 70.9539 81.0724 71.1761 80.8395 71.1765C80.3341 71.1773 79.6949 71.6888 79.3175 71.952C77.4773 73.2355 76.2201 74.8551 75.5178 76.9742" stroke="white" stroke-width="10.9769" stroke-linecap="round"/>
<path d="M75.5176 76.9746C75.5161 76.1399 75.4401 75.266 75.5358 74.4357C75.7123 72.9047 76.631 71.3957 77.5541 70.2065C79.8659 67.2281 83.0104 64.9768 86.2249 63.0772C87.3619 62.4053 88.6923 61.2111 90.092 61.2088C91.7498 61.2059 93.134 62.5122 94.136 63.7351C95.9716 65.9754 96.5799 68.5838 96.2592 71.4327C96.0069 73.6741 94.876 75.713 93.6857 77.5869C92.3764 79.6481 90.6663 81.3936 88.9107 83.0733C88.6584 83.3147 88.4101 83.5628 88.1672 83.8137C88.0478 83.937 88.021 84.1168 88.0206 83.8704C88.0129 79.3635 88.1079 74.8447 87.9355 70.3411C87.8578 68.3118 87.5381 66.3781 86.4701 64.6227C86.1596 64.1124 85.9644 63.4815 85.5478 63.0445C85.1588 62.6365 85.3584 62.1614 85.1393 61.725" stroke="white" stroke-width="10.9769" stroke-linecap="round"/>
<path d="M121.525 19.2129C121.529 21.7336 121.866 24.5089 121.154 26.9543C120.499 29.2029 118.168 31.2768 116.238 32.4466C114.084 33.7525 111.684 34.6929 109.44 35.8321C107.768 36.6806 106.328 37.7692 104.801 38.8415" stroke="white" stroke-width="10.9769" stroke-linecap="round"/>
<path d="M131.788 22.6481C130.84 24.8705 129.08 26.7759 127.431 28.4949C125.081 30.946 122.687 33.1805 119.984 35.2441C117.771 36.9341 115.609 38.5547 113.211 39.9667C111.415 41.0238 109.481 41.8474 107.573 42.6731C106.637 43.0782 105.643 43.593 104.913 44.3251C104.562 44.6775 104.17 45.1161 103.922 45.5455C103.706 45.9209 103.483 45.9578 103.088 46.1562" stroke="white" stroke-width="10.9769" stroke-linecap="round"/>
<path d="M103.087 46.1567C103.077 40.6508 102.726 35.1292 103.409 29.6591C103.689 27.4092 104.129 25.1407 104.954 23.0215C106.028 20.2635 108.123 18.236 110.342 16.3492C114.312 12.9743 118.95 10.223 123.966 8.7714C126.77 7.95971 129.522 7.43124 132.361 8.38471C134.692 9.16805 136.06 11.9736 136.546 14.2226C136.826 15.5217 136.763 16.5304 135.846 17.5469C134.891 18.6058 134.074 18.0319 132.974 17.3431C131.354 16.3283 129.853 15.632 127.91 15.5576C123.807 15.4005 119.987 18.587 116.98 21.0038C114.289 23.1661 111.443 25.5128 109.217 28.171C108.417 29.1263 107.665 30.3065 107.429 31.5479C107.024 33.6767 105.462 36.5596 106.741 38.6298C107.447 39.7722 109.005 41.0354 110.239 41.5745C111.441 42.0998 112.874 42.3241 114.173 42.5044C115.101 42.6333 115.827 42.4686 116.705 42.0995C118.953 41.1545 121.216 39.6865 123.029 38.066C124.268 36.9581 125.34 35.6948 126.379 34.4043C126.614 34.1128 126.627 34.0052 126.626 33.6253" stroke="white" stroke-width="10.9769" stroke-linecap="round"/>
<path d="M108.558 37.7184C108.148 38.7467 108.359 40.0599 108.36 41.1603C108.361 41.6397 108.337 42.1263 108.363 42.6046C108.39 43.1004 108.705 43.7701 109.026 44.1607C109.255 44.4401 109.313 44.7024 109.381 44.2165" stroke="white" stroke-width="10.9769" stroke-linecap="round"/>
<path d="M128.854 29.4572C128.859 32.6265 129.068 35.7885 129.073 38.9578C129.074 39.8328 129.115 40.6785 128.919 41.5365C128.825 41.9493 128.586 42.413 128.572 42.8403C128.55 43.4689 128.988 43.9371 129.24 44.4754C129.455 44.9326 129.736 45.2595 130.1 45.6023C130.712 46.1785 131.532 45.0811 131.892 44.7191C132.34 44.2702 132.799 43.8306 133.233 43.3684C133.481 43.1038 133.908 42.1526 133.909 42.5153C133.909 42.8374 133.043 43.348 132.844 43.5101C132.384 43.8849 131.948 44.2252 131.599 44.7083C131.293 45.132 130.741 45.8573 130.711 46.4137C130.7 46.6095 130.633 47.0574 130.96 46.8759C131.467 46.5943 131.805 46.0611 132.159 45.6213C132.904 44.6964 133.656 43.7745 134.406 42.853C136.626 40.1234 139.057 37.476 140.8 34.4017C141.663 32.8804 142.116 31.169 142.315 29.4342C142.588 27.0568 141.674 25.1007 141.052 22.8578C140.574 21.1365 139.98 19.3573 139.17 17.7607C138.961 17.3491 138.277 16.6965 138.276 16.2389" stroke="white" stroke-width="10.9769" stroke-linecap="round"/>
<path d="M135.831 71.2864C135.828 69.4247 135.841 67.5622 135.799 65.7009C135.752 63.6277 135.821 61.5269 135.529 59.4727C135.476 59.1072 135.519 58.7272 135.177 58.4916C134.949 58.3342 134.67 58.2682 134.488 58.0865" stroke="white" stroke-width="10.9769" stroke-linecap="round"/>
<path d="M131.176 81.0437C131.184 85.4068 131.161 72.3175 131.154 67.9544C131.151 66.4005 131.142 64.8903 130.999 63.3452C130.998 63.327 130.897 61.6856 130.782 61.653C130.236 61.498 129.126 63.4281 128.766 63.8512C127.121 65.7826 125.848 67.8954 124.907 70.267C124.189 72.0752 123.619 74.061 123.365 75.9906C123.132 77.7593 123.007 79.7322 123.978 81.2986C125.205 83.2788 126.425 85.2606 127.638 87.2503C128.41 88.5175 129.307 89.9585 130.482 90.8958" stroke="white" stroke-width="10.9769" stroke-linecap="round"/>
<path d="M127.431 88.3612C127.245 88.1988 127.358 88.5954 127.392 88.6716C127.611 89.1546 128.053 89.5879 128.348 90.0297C128.833 90.7546 129.24 91.511 129.751 92.2164C130.27 92.9315 130.674 93.7042 131.239 94.3916C131.468 94.6712 131.536 95.0074 131.607 95.3614" stroke="white" stroke-width="10.9769" stroke-linecap="round"/>
<path d="M136.427 63.5667C136.427 63.3254 136.469 63.6566 136.552 63.7471C136.93 64.1638 137.361 64.5456 137.772 64.9298C138.68 65.7776 139.478 66.6637 140.096 67.7412C141.765 70.6504 142.61 74.2424 142.646 77.582C142.678 80.5693 141.292 83.2953 139.297 85.4977C138.503 86.3737 137.624 87.1808 136.875 88.0972C136.573 88.4663 136.085 89.2608 135.557 89.2617" stroke="white" stroke-width="10.9769" stroke-linecap="round"/>
<path d="M135.557 89.2618L135.558 89.7696" stroke="white" stroke-width="10.9769" stroke-linecap="round"/>
<path d="M139.785 126.728C139.657 124.982 138.924 123.315 138.62 121.596C138.21 119.279 137.985 116.953 137.333 114.687C137.198 114.216 137.126 113.56 136.896 113.125C136.612 112.588 136.208 112.096 135.945 111.524C135.656 110.896 135.42 110.308 135.237 109.641C135.076 109.055 135.093 108.43 134.923 107.853C134.831 107.538 134.775 106.883 134.47 106.731" stroke="white" stroke-width="10.9769" stroke-linecap="round"/>
<path d="M134.468 105.411L134.47 106.731" stroke="white" stroke-width="10.9769" stroke-linecap="round"/>
<path d="M134.468 105.411C134.366 106.086 133.751 106.681 133.377 107.218C132.802 108.044 132.211 108.871 131.7 109.737C130.119 112.415 128.572 115.013 128.227 118.161C127.894 121.199 127.696 124.194 127.701 127.245C127.704 128.6 127.625 129.981 128.013 131.296C128.134 131.706 128.302 131.983 128.5 132.333C128.947 133.126 128.106 130.556 127.892 129.671C127.13 126.526 126.882 123.395 126.877 120.172C126.874 118.62 126.717 116.909 127.168 115.398C127.335 114.837 127.68 113.31 126.765 114.428C126.03 115.328 125.682 116.482 125.513 117.613C125.267 119.253 125.264 120.929 125.267 122.584C125.27 124.268 125.276 125.979 125.603 127.638C126.083 130.071 127.191 132.338 128.774 134.24C129.318 134.893 129.985 135.902 130.763 136.29" stroke="white" stroke-width="10.9769" stroke-linecap="round"/>
<path d="M128.628 134.871C128.631 136.873 128.492 138.601 129.811 140.252C130.502 141.117 131.198 141.952 132.049 142.646C132.294 142.846 132.563 143.552 132.913 143.113C133.604 142.246 134.037 141.092 134.629 140.153C135.802 138.291 137.189 136.552 138.501 134.787C140.383 132.254 141.477 129.802 142.109 126.679C142.747 123.53 143.076 120.179 142.059 117.088C141.686 115.953 141.371 114.885 140.733 113.863C140.137 112.907 139.579 111.765 138.799 110.943C138.273 110.39 137.827 109.793 137.34 109.208C137.18 109.015 137.013 108.915 137.012 108.656" stroke="white" stroke-width="10.9769" stroke-linecap="round"/>
<path d="M135.292 172.029C135.41 172.088 135.391 170.478 135.391 170.348C135.387 167.975 135.383 165.601 135.379 163.228C135.376 161.475 135.347 159.799 135.167 158.071C135.088 157.316 134.849 156.606 134.678 155.883C134.617 155.628 134.782 154.982 134.552 154.868" stroke="white" stroke-width="10.9769" stroke-linecap="round"/>
<path d="M131.344 179.653C131.346 180.633 131.347 181.613 131.349 182.593C131.35 182.966 131.247 182.432 131.179 182.305C130.51 181.041 129.534 179.976 128.894 178.681C127.978 176.83 127.403 174.952 127.112 172.913C126.696 169.982 126.96 167.214 128.012 164.46C128.791 162.419 129.974 160.508 130.947 158.553C130.993 158.461 131.272 158.155 131.183 158.045C131.025 157.848 130.31 158.355 130.208 158.436C129.537 158.967 129.104 159.748 128.727 160.498C127.484 162.971 126.339 165.567 125.468 168.193C124.093 172.341 124.771 176.799 125.817 180.926C126.575 183.915 127.366 187.41 129.432 189.812" stroke="white" stroke-width="10.9769" stroke-linecap="round"/>
<path d="M129.432 189.811C129.532 190.354 130.237 191.201 130.806 191.327C131.077 191.386 131.705 191.835 131.771 191.635" stroke="white" stroke-width="10.9769" stroke-linecap="round"/>
<path d="M133.6 191.734C133.761 191.874 133.706 191.539 133.746 191.429C133.929 190.925 134.509 190.46 134.861 190.084C136.023 188.842 137.271 187.687 138.386 186.4C139.552 185.054 140.207 183.194 140.906 181.577C141.38 180.478 141.884 179.356 142.085 178.168C142.268 177.085 142.266 175.986 142.361 174.895C142.553 172.686 142.707 170.31 142.333 168.113C141.983 166.065 140.945 164.09 139.863 162.346C139.339 161.501 138.931 160.532 138.318 159.747C138.076 159.437 137.887 159.108 137.809 158.721" stroke="white" stroke-width="10.9769" stroke-linecap="round"/>
</g>
<defs>
<clipPath id="clip0_205_3517">
<rect width="149.426" height="199.59" fill="white" transform="translate(0.803955 0.834351) rotate(-0.0977007)"/>
</clipPath>
</defs>
</svg>
