<svg width="162" height="216" viewBox="0 0 162 216" fill="none" xmlns="http://www.w3.org/2000/svg">
<g clip-path="url(#clip0_117_8362)">
<rect width="160.784" height="214.762" transform="translate(0.911133 0.640015)" fill="black"/>
<path d="M160.557 106.815C123.902 100.722 55.3013 112.22 69.8487 213.15" stroke="white" stroke-width="3.22717"/>
<path d="M159.227 104.344C163.937 145.124 152.367 223.567 67.6532 211.984" stroke="white" stroke-width="3.22717"/>
<path d="M96.8492 213.137C101.458 170.682 89.0442 91.5978 1.89007 110.956" stroke="white" stroke-width="3.22717"/>
<path d="M98.4868 211.52C63.2513 217.994 -4.90218 206.64 3.58517 108.583" stroke="white" stroke-width="3.22717"/>
<path d="M2.05588 108.084C38.7208 114.097 107.477 102.647 92.7627 1.74947" stroke="white" stroke-width="3.22717"/>
<path d="M3.42215 110.739C-1.35525 69.9688 10.0848 -8.49906 94.8184 2.89748" stroke="white" stroke-width="3.22717"/>
<path d="M65.7628 1.76144C61.2238 44.2265 73.5963 123.493 160.719 103.943" stroke="white" stroke-width="3.22717"/>
<path d="M63.9853 3.43147C99.2103 -3.11979 167.383 8.08427 159.057 106.158" stroke="white" stroke-width="3.22717"/>
<path d="M2.6338 108.023C29.4502 71.38 96.9919 22.1251 159.875 110.067" stroke="white" stroke-width="3.22717"/>
<path d="M3.20923 108.597C29.6159 143.107 96.0601 189.215 159.902 106.392" stroke="white" stroke-width="3.22717"/>
</g>
<defs>
<clipPath id="clip0_117_8362">
<rect width="160.784" height="214.762" fill="white" transform="translate(0.911133 0.640015)"/>
</clipPath>
</defs>
</svg>
