<svg width="151" height="201" viewBox="0 0 151 201" fill="none" xmlns="http://www.w3.org/2000/svg">
<g clip-path="url(#clip0_205_3160)">
<rect width="149.426" height="199.59" transform="translate(0.890381 1.08612) rotate(-0.0977007)" fill="black"/>
<path d="M71.5888 102.891C84.0896 94.9864 102.289 73.6122 75.1104 50.9232" stroke="white" stroke-width="2.99918"/>
<path d="M72.7845 102.961C62.1576 93.491 47.9782 69.9269 76.3054 51.003" stroke="white" stroke-width="2.99918"/>
<path d="M71.7036 53.8787C84.2043 45.9741 102.404 24.5999 75.2251 1.91085" stroke="white" stroke-width="2.99918"/>
<path d="M72.8998 53.9497C62.2728 44.4796 48.0934 20.9155 76.4206 1.99161" stroke="white" stroke-width="2.99918"/>
<path d="M0.941239 28.1181C10.4942 41.132 35.1452 59.3324 57.795 28.0212" stroke="white" stroke-width="2.99918"/>
<path d="M0.953286 29.427C10.4613 17.139 35.0473 -0.0835327 57.7964 29.33" stroke="white" stroke-width="2.99918"/>
<path d="M91.9451 26.5594C101.498 39.5734 126.149 57.7737 148.799 26.4625" stroke="white" stroke-width="2.99918"/>
<path d="M91.9587 27.8687C101.467 15.5806 126.053 -1.64188 148.802 27.7717" stroke="white" stroke-width="2.99918"/>
<path d="M72.906 199.459C85.4067 191.554 103.606 170.18 76.4275 147.491" stroke="white" stroke-width="2.99918"/>
<path d="M74.1024 199.53C63.4755 190.06 49.2961 166.496 77.6232 147.572" stroke="white" stroke-width="2.99918"/>
<path d="M73.0195 150.335C85.5202 142.43 103.72 121.056 76.541 98.3668" stroke="white" stroke-width="2.99918"/>
<path d="M74.2152 150.405C63.5882 140.935 49.4089 117.371 77.736 98.4471" stroke="white" stroke-width="2.99918"/>
<path d="M72.0573 171.555C72.0535 169.291 72.065 176.085 72.0689 178.35C72.0716 179.931 72.0743 181.512 72.077 183.093C72.0777 183.522 72.2219 184.771 72.0486 184.379C71.5791 183.317 71.4484 181.96 71.2468 180.838C70.693 177.753 70.4957 174.663 70.4046 171.535C70.3789 170.652 70.7383 166.503 69.2174 166.288C67.9472 166.109 67.5924 168.207 67.4011 169.054C66.7699 171.849 66.5258 175.117 66.9266 177.96C67.13 179.403 67.9321 180.621 68.9375 181.645C69.4492 182.166 70.169 182.676 70.5623 183.264" stroke="white" stroke-width="10.9769" stroke-linecap="round"/>
<path d="M68.7652 179.135C68.7665 179.894 68.6392 180.771 68.9681 181.476C69.3852 182.369 70.0269 183.066 70.5636 183.875C71.431 185.183 71.9943 186.513 72.3917 188.019C72.6479 188.991 73.411 189.828 73.7124 190.802C73.7535 190.935 74.0202 191.821 74.0199 191.658" stroke="white" stroke-width="10.9769" stroke-linecap="round"/>
<path d="M74.157 191.383C75.0892 191.382 76.3327 189.871 76.9615 189.32C78.3774 188.08 79.6686 186.787 80.7495 185.243C83.0377 181.975 83.7283 178.047 84.4492 174.227C84.8857 171.914 84.5754 169.384 84.001 167.128C83.7122 165.993 83.3813 164.377 82.4264 163.588C81.9711 163.211 81.0348 162.927 80.4748 163.262C79.7115 163.719 79.3736 164.998 79.0407 165.751C78.2142 167.619 77.3184 169.485 77.0459 171.531C76.8302 173.151 77.0207 174.68 77.0234 176.26C77.0256 177.593 77.0203 174.444 77.0199 174.224C77.0141 170.811 77.015 167.227 75.8853 163.958C75.5743 163.059 74.0933 157.595 72.2515 159.779C71.7397 160.386 71.4906 161.297 71.077 161.977C70.0919 163.598 69.5575 166.298 70.2458 168.1C70.9721 170.001 72.3911 171.528 73.6132 173.113C74.4007 174.135 75.0768 175.236 75.8145 176.292C76.4728 177.235 77.0375 178.305 77.8546 179.12" stroke="white" stroke-width="10.9769" stroke-linecap="round"/>
<path d="M78.2485 167.55C78.2456 165.834 78.2427 164.117 78.2397 162.401C78.237 160.779 77.7474 159.401 77.3445 157.858C77.0772 156.834 76.9779 156.167 76.2311 155.572C76.1174 155.481 76.1495 154.945 76.3295 154.944C76.6907 154.944 76.9881 155.97 77.158 156.198C77.9991 157.326 79.0515 158.316 79.9943 159.36C80.2877 159.685 81.3439 160.934 81.6803 160.934" stroke="white" stroke-width="10.9769" stroke-linecap="round"/>
<path d="M74.7127 113.294C74.719 117.028 74.7254 120.762 74.7318 124.496C74.733 125.244 73.9495 123.429 73.9418 123.41C73.1038 121.366 72.3897 119.281 71.6894 117.186C71.4235 116.391 71.2129 115.367 70.5835 114.74C69.1589 113.32 67.6518 119.407 67.5623 119.825C66.8067 123.358 66.5004 127.009 66.8538 130.615C67.0311 132.424 67.8093 134.094 68.9662 135.477" stroke="white" stroke-width="10.9769" stroke-linecap="round"/>
<path d="M70.1952 128.865C70.1993 131.262 70.2034 133.659 70.2075 136.057C70.2099 137.486 70.0537 138.745 70.895 139.95C71.4563 140.754 72.16 141.531 72.6666 142.357C73.3438 143.461 74.1467 142.022 74.6927 141.535C77.506 139.026 81.3977 137.629 83.3568 134.267C85.4758 130.63 86.9634 126.361 86.5113 122.104C86.2504 119.647 85.0732 117.484 84.0818 115.268C83.5004 113.968 82.6529 112.371 81.6726 111.316C80.8268 110.406 80.5233 111.505 80.3429 112.252C79.4897 115.786 78.5923 119.296 78.0657 122.899C77.6308 125.875 77.2292 134.89 77.2241 131.883" stroke="white" stroke-width="10.9769" stroke-linecap="round"/>
<path d="M77.2223 131.744C77.2101 124.573 77.5215 117.324 76.803 110.184C76.6967 109.128 76.7991 106.767 75.3431 106.575C74.3827 106.449 73.9936 108.236 73.7403 108.858C73.6185 109.157 72.4007 110.617 73.3591 109.685C74.3387 108.733 75.9975 107.742 76.3833 106.344C76.5301 105.812 76.6244 104.154 76.6253 104.706C76.6273 105.865 76.9447 106.623 77.4567 107.643" stroke="white" stroke-width="10.9769" stroke-linecap="round"/>
<path d="M70.3697 70.4699C70.3748 73.4793 70.38 76.4888 70.3851 79.4982C70.3866 80.373 70.3881 81.2478 70.3896 82.1226C70.3898 82.2492 70.4663 82.7159 70.3602 82.8342C70.1701 83.0462 69.912 82.4035 69.9003 82.3759C69.3607 81.0971 69.0529 79.6335 68.7151 78.2922C68.0374 75.601 67.7238 72.8307 67.1174 70.1235C67.0388 69.7729 66.9627 69.1109 66.511 68.9921C65.2223 68.6533 65.7091 78.0709 65.7317 78.6186C65.8741 82.0754 66.4869 85.6825 68.2738 88.6986C68.8413 89.6565 69.6411 90.5675 70.1302 91.5416" stroke="white" stroke-width="10.9769" stroke-linecap="round"/>
<path d="M70.2695 91.6798C70.2709 92.5111 70.782 93.6949 71.2382 94.402C71.3694 94.6053 71.9345 95.5217 72.066 95.2575" stroke="white" stroke-width="10.9769" stroke-linecap="round"/>
<path d="M72.3404 95.1186C73.308 95.1169 74.3931 93.4726 74.9379 92.8494C76.2617 91.3351 77.6223 89.7681 78.7707 88.1144C79.9691 86.3887 80.67 84.0401 81.3389 82.0809C82.0765 79.9203 82.4768 77.5871 82.6969 75.315C82.9083 73.1331 83.2246 70.587 82.7311 68.4289C82.474 67.305 81.7792 64.5437 80.2149 64.5464C79.6456 64.5473 79.3668 65.1816 79.1608 65.6193C78.524 66.9723 78.0473 68.3731 77.5612 69.7843C76.5575 72.6981 76.0256 75.6083 76.0308 78.6929C76.0312 78.9122 76.0323 79.5702 76.0319 79.3509C76.0295 77.9284 76.1456 76.5328 76.3002 75.1193C76.5222 73.0894 76.6647 71.0552 76.6953 69.013C76.7167 67.5836 76.8519 66.0318 76.6342 64.6137C76.5408 64.0051 76.2862 61.9841 75.4511 61.8001C74.984 61.6971 74.2766 61.7413 73.7985 61.7952C72.7061 61.9185 71.8484 63.1956 71.2161 63.9649C69.7331 65.7693 68.0283 67.4962 68.3726 70.0448C68.6732 72.2708 70.2635 74.3715 71.5887 76.1067C72.6092 77.4428 73.7916 78.5348 75.1447 79.5207C75.749 79.961 76.3207 80.4597 76.7847 81.0481C76.8399 81.1182 76.9994 81.36 76.9992 81.2008" stroke="white" stroke-width="10.9769" stroke-linecap="round"/>
<path d="M75.3155 63.4383C75.3134 62.2065 75.3113 60.9747 75.3092 59.7428C75.3084 59.3037 75.0192 58.0508 75.2457 58.4269C75.4707 58.8004 75.6037 59.2076 75.7527 59.612C75.8772 59.9497 76.8339 61.2105 76.9637 60.8188" stroke="white" stroke-width="10.9769" stroke-linecap="round"/>
<path d="M78.135 19.9133C76.7365 22.2894 75.3383 24.4486 74.3063 27.0508C73.1379 29.9969 72.5282 33.2105 71.9962 36.3279C71.9807 36.4189 72.002 37.0051 71.7979 36.7414C71.1621 35.9201 70.7501 34.8445 70.2476 33.9438C69.3876 32.4018 68.5259 30.8786 67.9442 29.2039C67.6598 28.3853 67.519 26.9683 66.8529 26.3519C66.2702 25.8128 66.1644 26.4228 66.1652 26.904C66.1686 28.8651 66.3203 30.6584 67.0011 32.5338C67.5812 34.1317 68.927 35.5226 69.8396 36.9514C70.5537 38.0693 70.9932 39.3227 71.6971 40.4448" stroke="white" stroke-width="10.9769" stroke-linecap="round"/>
<path d="M65.6202 30.9521C65.6224 32.2702 65.5212 33.6341 65.6576 34.946C65.791 36.2287 66.5555 37.1112 67.0098 38.2413C67.6461 39.8242 69.133 41.008 69.9093 42.5134C70.329 43.3275 70.6129 44.9034 71.4903 45.4029C71.903 45.6377 72.3959 46.9779 72.395 46.5031" stroke="white" stroke-width="10.9769" stroke-linecap="round"/>
<path d="M75.9735 44.9822C76.1602 44.7715 76.0931 44.5231 76.1712 44.2627C76.4456 43.3471 77.0132 42.4604 77.4214 41.5979C78.558 39.1966 79.5599 36.8277 80.4159 34.3089C81.3525 31.5531 81.4765 28.5062 81.8013 25.6301C81.9371 24.4276 81.9961 23.198 81.994 21.9878C81.9932 21.5256 81.9921 21.2372 81.7166 20.8712" stroke="white" stroke-width="10.9769" stroke-linecap="round"/>
<path d="M78.7132 36.9899C79.719 35.4193 80.209 33.5555 81.0381 31.8902C81.6755 30.61 82.4665 29.1294 82.6836 27.7022C82.8271 26.7591 82.7676 25.8493 83.0231 24.8936C83.1951 24.2504 83.1506 24.8185 83.0387 25.0619C82.635 25.9406 82.471 26.6961 82.3392 27.6492C81.9961 30.1308 81.795 32.5538 81.1888 34.9963C81.0133 35.7033 80.8875 36.5092 80.5804 37.1703C80.5026 37.3377 80.4137 37.8583 80.734 37.522C81.8744 36.3244 82.1469 34.5038 82.4171 32.9514C82.7653 30.9508 83.0729 28.8776 83.2101 26.852C83.2902 25.6693 83.5824 24.1067 82.6836 23.211" stroke="white" stroke-width="10.9769" stroke-linecap="round"/>
<path d="M68.9178 26.5401L66.4282 20.3469" stroke="white" stroke-width="10.9769" stroke-linecap="round"/>
<path d="M69.875 22.5442C70.0097 22.5944 70.0481 20.2082 70.0696 20.0189C70.2298 18.6064 70.7931 17.2466 71.3021 15.9311C71.5726 15.2321 71.8095 14.3252 70.7491 14.7079C70.2368 14.8927 69.4861 15.212 69.2819 15.7662C69.1973 15.996 69.0409 16.3481 69.3977 16.3475C70.0067 16.3465 70.4628 16.25 71.0268 16.0081C72.8413 15.2297 74.8265 14.8233 76.7938 14.82C78.2321 14.8175 79.4063 14.9947 80.4684 16.0532C80.6897 16.2737 80.5396 16.4662 80.2626 16.4667C79.614 16.4678 78.9078 15.0018 78.6143 14.5873C77.5196 13.0412 76.5436 11.5465 76.02 9.7256C75.8238 9.04343 75.4552 9.12482 75.224 9.58924" stroke="white" stroke-width="10.9769" stroke-linecap="round"/>
<path d="M28.4327 28.6746C26.8631 28.5792 25.3513 28.0799 23.81 27.8102C21.9224 27.48 20.0006 27.3118 18.086 27.315C16.4339 27.3178 14.7961 27.2335 13.1745 27.5988C12.938 27.6521 9.01686 28.7132 8.87592 28.4325" stroke="white" stroke-width="10.9769" stroke-linecap="round"/>
<path d="M8.87557 28.2949C9.55326 28.2321 10.1207 27.6788 10.6183 27.2666C11.8038 26.2847 13.2002 25.5735 14.3704 24.567C15.4289 23.6566 16.5061 23.0377 17.7409 22.4036C18.2163 22.1595 18.6373 21.7765 19.1473 21.6055C19.7727 21.3959 20.4409 21.2974 21.0746 21.1049C22.5812 20.6473 23.9842 20.1149 25.5562 19.9419C27.5488 19.7227 29.3312 19.6581 31.2948 20.0546C34.4771 20.6972 37.7375 21.0479 40.7555 22.3261C42.8257 23.2029 44.4941 24.4853 46.3008 25.7521C47.0086 26.2483 47.8492 26.791 48.4612 27.401C48.8117 27.7503 49.0339 28.1355 49.0907 28.6394C49.1244 28.938 49.6467 29.8661 49.7805 29.3269" stroke="white" stroke-width="10.9769" stroke-linecap="round"/>
<path d="M32.6777 19.2261C32.7114 19.0901 33.4637 18.9916 33.5879 18.9565C34.0577 18.8235 34.5164 18.7808 34.9921 18.9498C35.5423 19.1452 36.0689 19.4404 36.5723 19.7301C38.2912 20.7196 40.0162 21.7282 41.6331 22.879C43.2095 24.001 44.8538 25.1087 46.3243 26.369C47.4079 27.2977 48.1823 28.4099 49.4652 29.1127C50.0835 29.4514 50.7642 29.6126 51.4619 29.6114" stroke="white" stroke-width="10.9769" stroke-linecap="round"/>
<path d="M11.6299 28.6835C11.6329 30.4245 13.2758 31.8941 14.5478 32.8744C15.6452 33.7202 16.8729 34.4 18.0835 35.0685C18.944 35.5436 19.8127 35.8476 20.7662 36.098C22.5433 36.5646 24.2978 37.0214 26.1552 37.0037C30.6903 36.9604 35.0833 35.6503 39.5222 34.917" stroke="white" stroke-width="10.9769" stroke-linecap="round"/>
<path d="M34.9929 29.2563L35.152 32.703" stroke="white" stroke-width="10.9769" stroke-linecap="round"/>
<path d="M34.6039 25.2742C34.6058 26.3738 34.5687 27.5542 34.8735 28.6185C35.1567 29.6074 35.3472 30.7212 35.8489 31.6297C36.6271 33.0389 38.1773 32.461 39.3218 31.8919C40.2012 31.4546 41.1204 31.0198 42.0688 30.751C42.3123 30.682 42.6226 30.8074 42.4259 30.5461" stroke="white" stroke-width="10.9769" stroke-linecap="round"/>
<path d="M18.9099 30.3563C19.0298 30.98 19.5755 31.6424 19.913 32.1674C20.207 32.6246 20.5257 33.0701 20.8558 33.502C21.4542 34.2851 22.1833 35.0349 22.9743 35.6261C23.7247 36.1869 24.5268 36.6732 25.3556 37.0859" stroke="white" stroke-width="10.9769" stroke-linecap="round"/>
<path d="M20.6037 36.0216C21.0186 36.8045 21.7054 37.2533 22.3515 37.8229C23.0127 38.4058 23.7074 38.9046 24.5455 39.2192C25.8665 39.7152 27.5265 39.8397 28.9211 39.8373C30.5758 39.8345 32.1546 39.6147 33.7413 39.1227C35.4469 38.5939 37.0593 38.0016 38.6659 37.2164C40.3119 36.4119 41.7291 35.3059 43.2227 34.2681C43.5342 34.0517 44.3313 33.4266 44.1142 32.9942" stroke="white" stroke-width="10.9769" stroke-linecap="round"/>
<path d="M44.0381 32.918C44.4168 32.9173 47.3321 33.1041 47.3315 32.7592" stroke="white" stroke-width="10.9769" stroke-linecap="round"/>
<path d="M118.736 27.2561C118.698 27.5622 114.787 27.3669 114.341 27.3601C112.601 27.3336 110.826 27.3176 109.094 27.1192C107.431 26.9287 105.752 26.8593 104.096 26.6451C103.042 26.5087 101.968 26.5692 100.905 26.571C100.643 26.5715 99.9515 26.823 99.8259 26.5729" stroke="white" stroke-width="10.9769" stroke-linecap="round"/>
<path d="M106.629 22.4627C105.93 22.4639 105.23 22.4651 104.531 22.4663C104.024 22.4672 104.728 21.8427 104.85 21.7411C106.093 20.6994 107.751 19.9703 109.203 19.2961C111.448 18.2536 113.922 17.0765 116.403 16.7287C117.857 16.5248 119.372 16.5328 120.831 16.6976C123.383 16.9861 125.854 17.8517 128.213 18.8308C129.612 19.4115 130.87 20.021 132.052 20.9842C132.937 21.7056 133.742 22.509 134.55 23.3139C135.396 24.1571 136.32 24.9095 137.165 25.7517C137.717 26.3011 138.292 26.9499 138.956 27.358C139.516 27.7022 140.158 27.8628 140.718 28.1973C141.047 28.3943 140.713 27.0419 140.668 26.9221C139.711 24.3538 136.982 23.6577 134.582 23.0974C131.292 22.3291 128.601 24.5939 125.608 25.4796" stroke="white" stroke-width="10.9769" stroke-linecap="round"/>
<path d="M124.421 23.7035C127.59 23.6981 130.974 24.4857 133.976 25.5036C135.032 25.8615 136.127 26.2004 137.108 26.7405C138.065 27.2679 138.901 27.4057 139.965 27.4039C140.665 27.4027 141.352 27.4862 142.045 27.485" stroke="white" stroke-width="10.9769" stroke-linecap="round"/>
<path d="M102.743 27.0435C102.745 28.148 103.525 29.2335 104.028 30.1894C104.993 32.0233 106.597 33.0271 108.542 33.7251C109.449 34.0507 110.361 34.0468 111.319 34.2286C113.559 34.6534 115.914 34.9173 118.191 35.045C120.353 35.1663 122.542 35.5115 124.709 35.3351C128.535 35.0236 131.412 32.8657 134.38 30.6318C134.48 30.5565 135.273 30.0108 135.273 30.0373C135.274 30.1653 135.252 30.3034 135.316 30.4184C135.537 30.8142 133.522 31.1918 133.313 31.2735C131.319 32.0565 129.005 32.2022 126.892 32.3244C125.196 32.4225 123.49 32.4576 121.796 32.3284C120.064 32.1965 118.347 31.8985 116.623 31.6973C114.827 31.4877 113.034 31.4082 111.23 31.33C110.373 31.2929 109.472 31.0916 108.613 31.1886C108.282 31.226 108.955 31.6433 108.986 31.6727C109.741 32.3884 110.254 33.3208 110.961 34.0786C111.582 34.7434 112.332 35.192 113.119 35.6278C113.74 35.9713 114.292 36.3263 115.003 36.4622C116.905 36.8258 118.702 37.0958 120.651 37.0925C123.713 37.0873 126.566 36.0848 129.471 35.2187C131.323 34.6664 133.099 33.7132 134.6 32.4948C135.507 31.7585 136.037 30.8634 136.035 29.6972" stroke="white" stroke-width="10.9769" stroke-linecap="round"/>
</g>
<defs>
<clipPath id="clip0_205_3160">
<rect width="149.426" height="199.59" fill="white" transform="translate(0.890381 1.08612) rotate(-0.0977007)"/>
</clipPath>
</defs>
</svg>
