<svg width="161" height="215" viewBox="0 0 161 215" fill="none" xmlns="http://www.w3.org/2000/svg">
<g clip-path="url(#clip0_117_9188)">
<rect width="160.784" height="214.762" transform="translate(0.142456 0.0412598)" fill="black"/>
<path d="M27.1532 76.888C9.00233 65.5245 -15.0855 36.2449 27.3435 8.22168" stroke="white" stroke-width="3.22717"/>
<path d="M25.354 76.8952C41.9874 65.1464 65.9675 35.8513 24.9145 8.76301" stroke="white" stroke-width="3.22717"/>
<path d="M26.2359 142.943C8.08607 131.579 -17.6041 101.989 24.8224 73.9656" stroke="white" stroke-width="3.22717"/>
<path d="M24.4423 142.947C41.0756 131.198 64.0821 101.071 23.0292 73.9827" stroke="white" stroke-width="3.22717"/>
<path d="M83.0768 24.3654C95.8584 8.22925 129.142 -14.6106 160.662 23.1088" stroke="white" stroke-width="3.22717"/>
<path d="M83.0676 22.7654C96.2825 37.5534 130.17 58.0073 160.638 21.5091" stroke="white" stroke-width="3.22717"/>
<path d="M82.3552 196.87C95.1369 180.734 128.42 157.894 159.941 195.613" stroke="white" stroke-width="3.22717"/>
<path d="M82.346 195.27C95.561 210.058 129.448 230.512 159.917 194.013" stroke="white" stroke-width="3.22717"/>
<path d="M10.011 23.7658C22.7927 7.62963 54.5481 -15.5545 86.0685 22.1649" stroke="white" stroke-width="3.22717"/>
<path d="M9.70724 22.8178C22.9222 37.6058 55.8835 57.1969 86.3522 20.6987" stroke="white" stroke-width="3.22717"/>
<path d="M84.7881 193.335C71.8562 209.377 38.7239 230.549 7.55697 192.596" stroke="white" stroke-width="3.22717"/>
<path d="M84.781 194.936C71.7046 180.051 38.9539 158.489 8.14535 194.761" stroke="white" stroke-width="3.22717"/>
<path d="M76.3075 110.834C89.0891 94.6976 122.372 71.8578 153.893 109.577" stroke="white" stroke-width="3.22717"/>
<path d="M76.2982 109.234C89.5131 124.022 123.4 144.476 153.869 107.977" stroke="white" stroke-width="3.22717"/>
<path d="M78.7382 107.3C65.8063 123.343 32.674 144.514 1.50705 106.561" stroke="white" stroke-width="3.22717"/>
<path d="M78.7311 108.901C65.6547 94.0161 32.904 72.454 2.09542 108.726" stroke="white" stroke-width="3.22717"/>
<path d="M24.9004 208.135C6.85739 196.638 -18.9554 168.214 23.7314 140.505" stroke="white" stroke-width="3.22717"/>
<path d="M23.8276 208.396C40.5702 196.77 62.8791 167.63 22.0805 140.239" stroke="white" stroke-width="3.22717"/>
</g>
<defs>
<clipPath id="clip0_117_9188">
<rect width="160.784" height="214.762" fill="white" transform="translate(0.142456 0.0412598)"/>
</clipPath>
</defs>
</svg>
