<svg width="151" height="201" viewBox="0 0 151 201" fill="none" xmlns="http://www.w3.org/2000/svg">
<g clip-path="url(#clip0_205_3259)">
<rect width="149.426" height="199.59" transform="translate(0.978516 0.829712) rotate(-0.0977007)" fill="black"/>
<path d="M14.8117 101.664C27.3125 93.7594 45.512 72.3852 18.3333 49.6962" stroke="white" stroke-width="2.99918"/>
<path d="M16.0074 101.735C5.38048 92.2645 -8.79889 68.7004 19.5283 49.7765" stroke="white" stroke-width="2.99918"/>
<path d="M14.9326 52.6511C27.4333 44.7465 45.6328 23.3723 18.4541 0.683246" stroke="white" stroke-width="2.99918"/>
<path d="M16.1285 52.7224C5.50157 43.2522 -8.6778 19.6882 19.6494 0.764256" stroke="white" stroke-width="2.99918"/>
<path d="M28.2068 105.765C43.248 110.001 72.8968 109.197 71.5199 71.8171" stroke="white" stroke-width="2.99918"/>
<path d="M31.0222 97.903C30.9541 82.8642 37.4212 63.9293 72.3 72.8134" stroke="white" stroke-width="2.99918"/>
<path d="M66.7932 71.2346C81.8344 75.4706 111.483 74.6676 110.106 37.2871" stroke="white" stroke-width="2.99918"/>
<path d="M67.5832 72.225C67.5151 57.1862 76.0094 29.3997 110.888 38.2838" stroke="white" stroke-width="2.99918"/>
<path d="M105.161 36.3281C120.203 40.5641 149.851 39.761 148.474 2.38059" stroke="white" stroke-width="2.99918"/>
<path d="M105.95 37.3182C105.882 22.2794 114.376 -5.50707 149.255 3.37708" stroke="white" stroke-width="2.99918"/>
<path d="M31.5495 91.5004C29.3188 106.967 33.4321 135.908 70.3106 129.65" stroke="white" stroke-width="2.99918"/>
<path d="M31.0163 92.0356C45.9167 89.9995 73.6685 94.815 69.4264 130.557" stroke="white" stroke-width="2.99918"/>
<path d="M70.2751 124.886C68.0445 140.352 72.7216 169.64 109.6 163.382" stroke="white" stroke-width="2.99918"/>
<path d="M69.3988 125.799C84.2993 123.763 112.959 128.547 108.717 164.288" stroke="white" stroke-width="2.99918"/>
<path d="M109.904 158.354C107.673 173.82 112.35 203.109 149.229 196.851" stroke="white" stroke-width="2.99918"/>
<path d="M109.028 159.268C123.928 157.232 152.588 162.015 148.346 197.757" stroke="white" stroke-width="2.99918"/>
<path d="M16.1301 198.23C28.6308 190.326 46.8304 168.952 19.6516 146.262" stroke="white" stroke-width="2.99918"/>
<path d="M17.326 198.302C6.69908 188.832 -7.48029 165.267 20.8469 146.344" stroke="white" stroke-width="2.99918"/>
<path d="M16.2456 149.106C28.7463 141.201 46.9458 119.827 19.7671 97.1382" stroke="white" stroke-width="2.99918"/>
<path d="M17.442 149.177C6.81505 139.707 -7.36432 116.143 20.9628 97.2189" stroke="white" stroke-width="2.99918"/>
<path d="M35.3164 102.375C34.6749 102.248 34.2739 101.615 33.8028 101.208C32.7752 100.321 31.5841 99.6611 30.5235 98.8204C29.1766 97.7527 28.4862 96.5565 27.548 95.1543C25.5141 92.1148 24.6 88.8493 23.1587 85.5702C23.0988 85.434 22.0584 83.1731 21.6991 84.4389C21.1254 86.4598 22.2123 88.3711 23.0584 90.0872C24.2227 92.4487 24.4968 94.8294 24.9603 97.3542C25.2468 98.9144 23.2846 96.8806 22.9254 96.4939C22.2692 95.7877 21.6087 95.5861 20.9793 95.0216C20.4203 94.5202 19.2166 94.6844 18.7824 94.1435C18.4246 93.698 17.3975 93.3794 16.9088 92.941C16.3884 92.4743 16.1083 91.7795 15.6822 91.2335C15.0835 90.4666 14.3138 89.4609 13.986 88.5551C13.6246 87.5567 12.5383 86.7625 12.3076 85.7326C11.9379 84.0825 10.341 82.7516 10.3378 80.8772C10.3346 78.9876 10.3313 77.0981 10.3281 75.2086C10.3271 74.6295 10.6909 72.5388 9.69472 73.1222C8.74439 73.6787 8.82892 74.8169 8.31305 75.4639C8.01904 75.8327 8.02925 77.2837 8.45879 76.5074C9.22214 75.1279 10.2476 74.2465 10.6477 72.6346C11.092 70.8444 11.4575 69.0305 11.9522 67.2877C11.9917 67.1488 12.9425 65.8464 12.3997 65.8473C11.7868 65.8484 10.3719 67.233 9.91939 67.6871C9.64842 67.959 9.6682 68.1257 9.66887 68.5153C9.67003 69.1991 10.3694 67.3352 10.7997 66.8038C11.5379 65.892 12.3283 64.9454 13.1525 64.1184C13.6311 63.6382 14.1946 63.1428 14.1933 62.4071C14.1914 61.262 15.3944 61.153 16.0617 60.5504C16.7622 59.9177 19.2026 57.4984 17.4234 57.0569" stroke="white" stroke-width="10.9769" stroke-linecap="round"/>
<path d="M16.5057 88.8029C16.5076 89.8978 16.278 91.3216 16.8356 92.2935C17.4247 93.3204 17.4831 95.9224 18.3005 96.574C19.3642 97.4219 21.9034 96.8918 23.2138 96.8895C25.493 96.8856 27.7731 96.8623 30.0522 96.8779C31.9365 96.8908 33.8063 97.0742 35.6853 97.1922C35.7243 97.1946 37.5478 97.5584 37.5201 96.7572C37.4086 93.5226 30.3984 88.611 28.8113 86.8384" stroke="white" stroke-width="10.9769" stroke-linecap="round"/>
<path d="M24.2761 86.846C24.2708 83.7688 24.2656 80.6916 24.2603 77.6143C24.2569 75.5996 24.6239 72.713 23.8528 70.7947C23.4253 69.7311 22.7299 69.033 21.4924 69.0351C19.4378 69.0386 18.9675 72.4958 18.8194 73.9345C18.7761 74.3545 18.7367 82.1659 20.3062 80.4824C21.4444 79.2615 21.9246 77.1292 22.3853 75.584C22.8942 73.8771 23.6232 72.2534 24.0683 70.5244C24.5896 68.4994 24.2407 66.1117 24.2372 64.0277C24.2349 62.6711 23.6413 61.8506 22.361 61.3315C21.8683 61.1318 20.7224 60.472 20.9933 61.2799C21.928 64.0683 23.0835 66.986 24.5884 69.5157C26.419 72.5928 27.1726 75.834 27.1787 79.3909C27.1835 82.2406 26.8209 85.3697 27.5175 88.1362" stroke="white" stroke-width="10.9769" stroke-linecap="round"/>
<path d="M36.4889 93.391C36.4855 91.4309 36.4822 89.4708 36.4789 87.5107C36.4766 86.1996 37.03 85.9124 37.9001 85.0136C38.9246 83.9555 39.6237 82.5702 40.6561 81.5342C41.863 80.3233 43.461 79.2552 45.1062 78.7647C48.6408 77.7109 52.0674 75.9021 55.7327 75.5292C57.7469 75.3244 59.6812 75.1426 61.7213 75.1726C62.4897 75.1838 63.4567 75.2461 64.2163 75.3861C64.5567 75.4488 65.6855 75.7611 65.9984 75.482C66.425 75.1015 65.0901 76.2098 64.7828 76.6919C64.0698 77.8101 63.6779 78.8749 63.2938 80.1394C62.5397 82.6225 61.7465 84.7995 60.5735 87.1133C59.1425 89.936 57.2595 92.4491 55.0824 94.7353C53.5601 96.3339 52.0451 97.9125 50.2095 99.1588C48.7414 100.156 47.1593 100.906 45.6007 101.741C43.9723 102.613 42.2085 103.004 40.3859 103.007C39.2682 103.009 40.5911 101.795 40.898 101.471C42.5648 99.7132 43.8144 97.8591 44.9074 95.703C46.7106 92.1459 48.1351 88.1141 48.4119 84.1444C48.4316 83.8618 50.9824 84.1004 51.342 84.0998C52.9518 84.097 54.2438 83.6044 55.7754 83.1617C56.8386 82.8543 57.6619 82.3078 58.5547 81.6918C58.9845 81.3952 59.175 81.0572 59.7217 81.0562C61.1531 81.0538 63.0523 80.7534 64.3259 81.583C65.1965 82.1501 65.256 83.7714 65.331 84.6897C65.4831 86.5516 64.4576 88.4636 63.5681 90.0582C62.4002 92.1522 61.3949 94.4223 59.698 96.1629C58.1543 97.7462 56.4001 99.2171 54.4781 100.32C52.572 101.413 50.7713 102.232 48.6615 102.814C45.463 103.697 42.1735 104.073 38.8632 104.078C38.0849 104.08 37.0098 103.874 36.2497 104.093C35.9394 104.182 37.0795 105.012 37.1424 105.081C38.2702 106.312 38.7268 107.874 39.5057 109.304C40.3965 110.941 41.2053 112.715 42.2266 114.269C44.2993 117.423 47.1013 120.047 50.7814 121.075C52.0553 121.431 53.3203 121.703 54.614 121.96C55.133 122.063 56.1608 122.402 54.9613 122.405C53.4432 122.407 52.0878 122.445 50.6738 121.798C48.0878 120.615 45.5619 119.256 43.0249 117.97C40.1059 116.491 37.1113 114.944 35.0067 112.381C34.7097 112.019 34.7406 111.47 35.2732 111.925C36.3288 112.827 37.5737 113.501 38.6432 114.394C40.837 116.225 43.1546 117.889 45.5616 119.431C46.9372 120.312 48.0904 120.988 49.7223 121.166" stroke="white" stroke-width="10.9769" stroke-linecap="round"/>
<path d="M45.4376 116.183C45.243 116.184 46.3203 117.309 46.4198 117.439C47.2118 118.468 48.0893 119.36 49.0084 120.276C49.821 121.085 50.8773 121.648 51.8233 122.29C52.221 122.56 53.0965 123.13 53.2906 123.565C53.5586 124.165 53.2259 124.172 52.6584 124.328C51.8519 124.55 51.6417 124.122 51.0137 123.519C50.9424 123.451 50.1804 122.971 50.6167 122.946C51.561 122.892 52.4405 123.043 53.3496 123.297C55.552 123.913 57.6122 124.587 59.7187 125.504C60.794 125.972 62.1141 125.993 63.1948 126.3C63.8182 126.477 64.6997 126.42 64.6984 125.674C64.6948 123.571 64.1493 121.235 63.6182 119.201C63.0955 117.199 62.1248 115.401 61.4306 113.463C60.7824 111.654 60.0245 109.632 58.8871 108.063C57.7696 106.521 56.6065 104.524 54.8604 103.654C53.841 103.147 54.4989 104.229 53.416 104.231C52.3097 104.233 50.843 104.137 49.9723 104.959C49.2239 105.666 49.297 106.897 49.3535 107.831C49.5514 111.1 53.8325 114.835 57.0184 115.233C58.8166 115.458 60.4037 115.025 60.4004 113.089C60.397 111.13 60.4372 109.167 60.3903 107.209C60.3775 106.67 60.1252 105.7 60.6073 106.713C60.8797 107.286 60.7697 107.515 60.2119 107.07" stroke="white" stroke-width="10.9769" stroke-linecap="round"/>
<path d="M61.7788 86.0416C62.3181 85.9733 62.6748 84.4837 62.9337 84.0795C63.4126 83.3317 64.1457 82.6851 64.5832 81.9384C64.8256 81.5248 66.2968 79.8342 65.8662 79.6198" stroke="white" stroke-width="10.9769" stroke-linecap="round"/>
<path d="M17.5075 143.673C17.5015 140.188 17.4956 136.704 17.4896 133.219C17.4791 127.01 18.6921 121.043 21.1121 115.334C22.3202 112.484 23.2271 109.549 24.3542 106.677C24.9139 105.25 25.8141 103.624 25.8115 102.061C25.8096 100.978 25.1782 100.263 23.9877 100.758C23.0166 101.161 22.3874 102.864 22.0328 103.79C21.2719 105.779 19.1683 107.091 17.9429 108.747C16.453 110.76 14.8581 112.539 13.7262 114.812C12.67 116.934 12.0016 119.646 11.5902 121.964C11.0849 124.81 10.7088 127.563 10.7137 130.469C10.7174 132.641 10.8016 135.004 12.1501 136.832C12.6225 137.472 13.208 137.805 13.8453 138.244C14.0129 138.36 14.2158 138.455 14.3607 138.6C14.6285 138.867 14.7254 139.842 14.1709 137.61C12.5481 131.08 10.9035 124.554 9.26698 118.028" stroke="white" stroke-width="10.9769" stroke-linecap="round"/>
<path d="M9.44939 119.452C9.44638 117.688 9.5345 115.573 10.6975 114.114C12.0532 112.414 13.541 110.658 15.3125 109.374C17.1314 108.056 18.9878 106.644 20.7403 105.277C22.2649 104.087 23.6202 107.309 23.9527 108.191C26.0136 113.659 28.0409 120.31 26.5671 126.155C26.1616 127.763 26.0402 129.432 25.4666 131.007C24.9068 132.544 24.1773 133.862 23.4148 135.287C22.9914 136.079 22.4695 136.632 21.8541 137.25C21.3461 137.76 21.5836 138.16 21.0621 137.251" stroke="white" stroke-width="10.9769" stroke-linecap="round"/>
<path d="M17.5867 189.823C17.5829 187.615 16.6056 185.429 16.5162 183.203C16.4423 181.362 16.3219 179.554 16.3187 177.709C16.3114 173.398 15.7767 168.629 16.692 164.383C17.3375 161.389 18.1859 158.512 19.1717 155.648C19.3489 155.133 19.6388 154.315 19.4754 153.747C19.2845 153.083 17.1076 156.087 16.9061 156.424C14.8181 159.917 12.6583 163.673 11.4111 167.55C11.0631 168.632 10.5637 169.664 10.3375 170.779C10.0723 172.087 10.0409 173.459 9.72063 174.75C9.30336 176.431 9.31798 178.78 10.1855 180.303C11.833 183.194 14.088 185.784 15.4467 188.827C15.9203 189.888 16.5235 193.303 16.5215 192.142" stroke="white" stroke-width="10.9769" stroke-linecap="round"/>
<path d="M18.8314 188.397C18.8295 187.273 18.9654 186.034 19.7168 185.148C20.7226 183.962 22.0842 182.832 23.1956 181.717C24.1281 180.781 24.7438 179.357 25.3179 178.159C25.3944 178 26.1865 176.866 25.9005 177.297C25.1975 178.355 24.4728 179.387 23.7477 180.429C22.8384 181.736 22.153 183.493 21.538 184.967C21.1864 185.809 20.6109 187.005 20.6125 187.948C20.613 188.225 20.8482 188.316 21.0583 188.106C21.6795 187.482 21.9956 186.4 22.3905 185.628C23.1313 184.182 23.8051 182.618 24.3428 181.081C25.351 178.2 26.6866 175.452 26.9909 172.355C27.2061 170.165 27.0754 167.831 26.4946 165.753C26.008 164.013 25.2603 162.257 24.407 160.678C23.9526 159.838 23.9074 158.84 23.0566 158.275" stroke="white" stroke-width="10.9769" stroke-linecap="round"/>
<path d="M78.742 141.807C78.7405 140.952 78.789 140.11 78.5796 139.278" stroke="white" stroke-width="10.9769" stroke-linecap="round"/>
<path d="M60.8334 112.598C61.3044 112.597 61.6423 112.661 62.0184 112.367C62.2222 112.208 62.8649 111.951 62.5706 111.804" stroke="white" stroke-width="10.9769" stroke-linecap="round"/>
<path d="M76.8401 138.807C76.8377 137.398 76.4985 136.557 75.8507 135.332C75.5947 134.847 75.545 134.144 75.4087 133.603C75.301 133.175 74.9845 132.744 74.8095 132.33C74.7009 132.074 74.633 131.997 74.4573 131.778C74.0762 131.303 75.2182 131.762 75.4058 131.855C76.6782 132.489 77.8805 133.012 79.2107 133.508C81.0812 134.206 83.2196 134.053 85.1309 134.605C88.2199 135.496 91.0786 136.769 93.8219 138.471C97.327 140.646 100.213 143.613 101.819 147.449C102.491 149.054 103.141 150.784 103.61 152.46C103.918 153.558 104.339 154.933 104.371 156.076C104.44 158.515 102.13 158.14 100.353 157.857C97.3673 157.382 94.5466 156.529 91.6036 155.852C88.3765 155.11 85.2879 154.263 82.4656 152.461C80.0598 150.924 78.8601 148.325 78.0373 145.69C77.7706 144.835 77.9767 143.978 77.7607 143.144C77.7091 142.944 77.4149 142.699 77.5148 143.074C77.6611 143.623 78.1406 144.205 78.4658 144.653C80.4743 147.419 82.9018 149.949 85.065 152.597C86.79 154.708 88.605 156.583 90.7822 158.225C92.4768 159.502 94.1824 160.001 96.2905 159.787C96.7118 159.744 96.9558 159.282 97.1057 158.934C97.3109 158.457 97.262 157.902 97.2611 157.397C97.2585 155.871 97.3094 154.34 96.9812 152.84C96.2713 149.595 95.0087 146.569 92.4972 144.348C91.6578 143.605 90.5643 142.499 89.5516 142.017C88.5384 141.535 86.8938 140.78 86.0884 139.977C85.328 139.219 85.8964 141.395 85.9595 141.602C86.8742 144.604 87.7925 147.661 89.8376 150.113C90.653 151.09 92.0036 151.268 93.2115 151.266C94.1919 151.264 94.4287 151.008 94.5264 149.999C94.7052 148.154 93.0039 146.559 91.9368 145.253C90.0106 142.896 88.1156 140.494 86.0591 138.247C84.8292 136.903 83.1466 136.256 81.8915 135.005C81.659 134.774 80.0299 132.592 80.7893 132.338C82.0016 131.931 83.1775 132.57 84.0925 133.254C85.9103 134.613 88.4757 134.927 90.4109 136.159C92.3146 137.37 94.2908 138.444 96.2035 139.644C96.5466 139.859 99.6322 142.019 99.6046 141.333C99.5705 140.484 97.8239 139.692 97.2303 139.317C96.1966 138.665 95.1636 137.855 94.2234 137.074C92.9492 136.016 91.6083 135.213 90.2584 134.271C89.5213 133.757 88.7312 133.84 87.8954 133.722C87.461 133.661 87.0778 133.574 86.6307 133.575C86.1104 133.576 86.1563 133.449 86.1555 132.943" stroke="white" stroke-width="10.9769" stroke-linecap="round"/>
<path d="M81.1113 140.697C81.1072 138.328 81.5072 135.57 80.7474 133.304C80.6218 132.929 80.0442 132.429 79.797 132.094C79.4142 131.575 79.2457 131.059 78.5659 131.06" stroke="white" stroke-width="10.9769" stroke-linecap="round"/>
<path d="M95.3513 148.575C96.5433 149.862 97.5248 151.45 98.5988 152.846C99.389 153.873 100.285 155.228 101.335 155.993C102.048 156.512 102.829 157.515 103.42 158.202C103.76 158.597 104.239 159.679 104.378 158.833" stroke="white" stroke-width="10.9769" stroke-linecap="round"/>
<path d="M133.977 184.073C133.569 183.544 133.353 182.865 132.99 182.301C132.167 181.019 131.141 179.865 130.253 178.626C128.889 176.724 127.444 174.783 125.879 173.04C124.854 171.897 123.916 170.925 122.66 170.025C121.84 169.436 120.873 169.066 120.076 168.449C118.774 167.439 117.424 166.506 116.05 165.611C115.915 165.523 115.014 165.148 114.986 165.05C114.911 164.791 114.74 164.625 114.502 164.507" stroke="white" stroke-width="10.9769" stroke-linecap="round"/>
<path d="M114.502 164.507C117.345 164.502 120.037 165.612 122.881 165.757C124.161 165.822 125.39 166.499 126.519 167.05C127.748 167.651 129.216 168.29 130.324 169.063C132.698 170.719 134.724 172.222 136.454 174.585C137.982 176.671 139.263 178.922 140.048 181.375C140.331 182.26 140.218 183.269 140.466 184.132C140.722 185.022 141.555 183.162 141.561 182.795C141.603 180.41 141.156 177.816 139.425 176.09C138.856 175.524 138.307 174.878 137.762 174.267C137.071 173.491 136.333 172.347 135.501 171.742C134.569 171.063 134.39 170.637 133.163 170.639C132.289 170.641 131.452 171.247 130.618 171.434C128.883 171.822 127.097 172.027 125.342 172.303C122.454 172.758 119.238 173.732 116.92 171.422C116.686 171.189 116.628 170.884 116.444 170.633C116.415 170.592 116.416 170.098 116.286 170.229C115.657 170.86 116.826 173.63 116.96 174.223C117.901 178.38 119.603 183.123 123.196 185.794C124.811 186.995 126.238 188.132 128.102 188.947C130.014 189.784 131.964 190.418 133.979 190.948C136.131 191.514 138.485 191.842 140.662 191.139C141.385 190.905 143.093 190.779 143.303 189.826C143.419 189.298 143.101 189.162 143.002 188.72C142.895 188.239 142.961 187.962 142.676 187.535" stroke="white" stroke-width="10.9769" stroke-linecap="round"/>
<path d="M142.519 188.009C142.521 189.635 142.77 190.872 143.474 192.275" stroke="white" stroke-width="10.9769" stroke-linecap="round"/>
<path d="M15.5058 24.9497C15.5059 25.0116 15.5041 23.9573 15.5036 23.6595C15.5016 22.4978 15.9266 21.4145 16.3144 20.3316C16.6471 19.4024 17.3608 18.661 17.7515 17.7688C18.2723 16.5796 18.7976 15.403 19.207 14.1677C19.4704 13.3729 19.8462 12.6326 20.201 11.8778C20.5289 11.1804 20.3797 10.27 20.3784 9.51875C20.3766 8.42298 20.0284 8.31452 18.925 8.43257C17.8612 8.54639 17.3109 10.801 16.753 11.5208C14.3071 14.6765 12.0683 18.1886 9.97612 21.5924C8.86395 23.4018 8.19025 25.4489 7.88959 27.5432C7.40887 30.8919 8.00883 33.4995 9.86017 36.3499C11.1309 38.3065 12.8268 40.0704 14.7074 41.4624C15.4042 41.9782 16.2744 42.5484 17.1688 42.5469" stroke="white" stroke-width="10.9769" stroke-linecap="round"/>
<path d="M15.152 30.7567C15.1465 27.5701 15.7081 23.8546 13.7746 21.072C13.417 20.5573 12.9007 20.1405 12.5121 19.6125C12.1921 19.1776 11.832 18.5791 11.4111 18.2435C11.2108 18.0839 11.1048 17.5801 10.9962 17.337C10.7227 16.7244 10.9124 16.7512 11.3175 16.5703C12.2611 16.1491 13.1171 16.147 14.0392 16.606" stroke="white" stroke-width="10.9769" stroke-linecap="round"/>
<path d="M19.8702 10.3433C19.9437 10.8039 20.3125 11.1145 20.5904 11.4677C20.9653 11.9444 21.3062 12.4448 21.6528 12.9419C22.6785 14.4131 23.6965 15.8818 24.4375 17.5229C25.1934 19.1972 25.3043 21.1337 24.7444 22.8745C24.2741 24.3368 23.962 25.9831 23.2366 27.3401C22.4685 28.7769 21.5841 30.1923 20.6596 31.536C20.2483 32.134 19.8386 32.6994 19.1994 33.0496" stroke="white" stroke-width="10.9769" stroke-linecap="round"/>
<path d="M24.6948 20.584C24.7601 20.8645 24.9913 21.0817 25.1516 21.3103C25.5077 21.8183 25.7468 22.4558 25.9779 23.0258C26.2863 23.7862 26.2931 24.5627 26.4724 25.3506C26.7383 26.5187 26.5285 27.9873 26.2774 29.1264C25.9301 30.702 25.2581 32.4805 24.2268 33.7506C23.7534 34.3335 23.2398 34.8577 22.6703 35.3475C22.2378 35.7194 21.8217 36.1153 21.3933 36.4928C21.0917 36.7586 20.6999 37.0245 20.4399 37.331C20.0151 37.8319 19.5389 38.7388 19.2781 39.2251C18.1126 41.3984 17.5649 42.5975 16.3795 44.88" stroke="white" stroke-width="10.9769" stroke-linecap="round"/>
<path d="M23.6203 37.8515C23.6215 38.5607 22.9013 39.1375 22.5987 39.7453" stroke="white" stroke-width="10.9769" stroke-linecap="round"/>
<path d="M100.215 49.2211C100.2 49.3452 100.035 49.3033 99.9424 49.3035C99.2947 49.3046 98.7029 49.4872 98.0853 49.6709C95.9178 50.3157 93.7471 51.0143 91.756 52.1086C89.0439 53.5991 86.5548 55.5311 84.2023 57.5307C81.8723 59.5112 79.6777 62.0129 76.9271 63.394C76.4711 63.623 75.9928 63.8667 75.5715 64.1385C75.1167 64.432 74.7247 65.1359 74.381 65.5748C74.0748 65.9659 73.399 66.8997 72.8713 66.7248" stroke="white" stroke-width="10.9769" stroke-linecap="round"/>
<path d="M72.8708 66.7237C72.87 66.2533 72.8634 65.7826 72.8684 65.3122C72.8774 64.4696 73.2203 63.6385 73.5746 62.8841C74.401 61.1243 74.9745 59.2303 76.0881 57.6209C78.0811 54.7404 79.8188 51.5253 82.4208 49.1319C83.7935 47.8693 85.4993 46.8718 87.0412 45.8184C88.6645 44.7094 90.3599 43.9199 92.2735 43.4965C93.7938 43.16 95.4605 42.9173 97.017 42.9147C98.2043 42.9126 99.5216 42.9125 100.696 42.7263C101.296 42.6311 101.881 42.4146 102.498 42.4136C102.741 42.4131 102.932 42.2612 103.154 42.2485C103.326 42.2387 103.518 42.2807 103.686 42.2431C103.85 42.2065 103.963 42.1754 104.137 42.1649C104.23 42.1592 104.339 42.0097 104.424 42.0096C104.523 42.0094 104.063 42.4571 104.037 42.4929C103.686 42.9754 103.555 43.6244 103.362 44.1787C102.799 45.7882 102.436 47.4365 102.132 49.112C101.742 51.262 100.784 53.0634 99.4413 54.7626C97.0756 57.7558 93.9384 60.4033 90.4656 62.0312C88.3385 63.0282 86.2651 63.8755 83.986 64.4737C82.8463 64.7727 81.7294 65.0499 80.5586 65.1944C79.6949 65.3009 78.7913 65.3371 77.9686 65.6495C77.5128 65.8226 77.6233 66.1048 77.6241 66.5517C77.6252 67.1889 78.1772 67.4523 78.7912 67.4512C80.0053 67.4491 81.1811 67.1193 82.3832 67.1173C83.9189 67.1146 85.5704 66.8772 86.9804 66.2398C88.2519 65.665 89.3676 64.9449 90.5695 64.253C91.7424 63.5777 92.8336 62.8387 93.8439 61.9298C95.5751 60.3724 97.3106 58.8823 98.7075 57.0131C99.288 56.2364 99.746 55.3785 100.306 54.5881C100.908 53.7388 101.45 52.7507 101.822 51.7762C102.27 50.6044 102.883 49.3991 103.82 48.5582C103.922 48.4668 104.219 48.4042 104.02 48.6034C103.711 48.9134 103.341 49.0719 103.066 49.4337C102.33 50.4018 101.859 51.6311 101.286 52.7014C100.584 54.0139 99.7941 55.2709 98.9798 56.5164C97.8762 58.2043 96.7352 59.9082 95.5462 61.5399C95.1078 62.1414 94.5723 62.6448 94.0874 63.2043C94.0418 63.2569 93.4317 63.9021 93.7835 63.9015C94.0661 63.901 94.2989 63.7513 94.5206 63.5906C95.3694 62.9753 96.0355 62.158 96.7753 61.4239C98.0396 60.1694 99.3326 59.0246 100.393 57.5794C101.057 56.6747 101.503 55.6859 101.74 54.5947C101.835 54.1586 102.007 53.8324 101.861 53.397" stroke="white" stroke-width="10.9769" stroke-linecap="round"/>
<path d="M136.548 15.2279C136.029 15.2288 135.508 15.5698 135.083 15.8223C133.331 16.8645 131.656 18.0441 129.953 19.164C128.249 20.2842 126.585 21.4824 124.941 22.6877C123.547 23.7097 122.291 24.9096 120.967 26.0183C119.933 26.8848 118.885 27.6448 117.757 28.3733C117.081 28.809 116.342 29.0835 115.627 29.4423C114.931 29.7922 114.179 30.1116 113.562 30.5933C113.362 30.7493 112.828 30.9625 112.707 31.1684C112.565 31.4117 111.998 31.7799 111.743 31.9077" stroke="white" stroke-width="10.9769" stroke-linecap="round"/>
<path d="M111.743 31.9077C111.74 30.626 111.566 29.261 112.064 28.0551C112.798 26.2753 113.636 24.3431 114.846 22.8415C117.177 19.9484 119.641 17.0244 122.477 14.6144C122.998 14.1718 123.509 13.7043 124.05 13.2868C124.542 12.9072 125.135 12.6738 125.624 12.296C125.676 12.2554 126.191 11.7812 125.937 11.7309C125.038 11.5527 124.076 12.3237 123.362 12.7461C120.947 14.1744 118.973 16.0323 117.014 17.9977C116.94 18.0718 116.63 18.3496 116.637 18.094C116.652 17.4897 117.298 16.8524 117.654 16.4212C119.104 14.6617 121.037 13.212 122.873 11.8909C125.287 10.1538 128.009 8.13859 131.126 8.02939C134.846 7.89904 138.547 7.60239 142.272 7.59604C142.374 7.59586 142.845 7.40811 142.845 7.59506C142.846 7.7924 142.54 7.91253 142.441 8.05562C142.045 8.62697 141.851 9.52349 141.707 10.1878C141.325 11.9458 140.917 13.6807 140.404 15.408C139.911 17.0722 138.957 18.5075 137.803 19.779C136.843 20.836 135.807 22.0194 134.657 22.8714C133.547 23.6941 132.614 24.7507 131.447 25.5087C129.615 26.6984 127.565 27.68 125.57 28.5512C123.592 29.4145 121.447 30.061 119.34 30.5379C118.933 30.6298 118.53 30.7606 118.115 30.8132C117.636 30.8739 117.147 30.7939 116.667 30.8384C116.111 30.8899 116.06 31.0469 116.595 31.2438C117.035 31.4054 117.511 31.435 117.93 31.6513C118.276 31.83 118.699 32.0614 119.083 32.1228C119.777 32.2339 120.455 32.2207 121.159 32.2195C123.251 32.2159 125.389 31.5413 127.194 30.5245C129.532 29.2079 131.754 27.7395 133.743 25.9282C134.497 25.2416 135.361 24.7044 136.116 24.0164C136.439 23.7219 136.756 23.4163 137.071 23.1132C137.243 22.948 137.748 22.4427 137.575 22.6069C135.809 24.2878 134.116 26.0545 132.389 27.7746" stroke="white" stroke-width="10.9769" stroke-linecap="round"/>
<path d="M130.012 28.2703C130.368 28.2697 130.724 28.2824 131.077 28.223C131.877 28.0883 132.418 27.4417 133.088 27.0403C134.38 26.2663 135.632 25.4529 136.881 24.6069C137.798 23.9859 138.791 23.3714 139.528 22.5261C139.88 22.1221 142.056 19.7468 140.979 19.3182" stroke="white" stroke-width="10.9769" stroke-linecap="round"/>
</g>
<defs>
<clipPath id="clip0_205_3259">
<rect width="149.426" height="199.59" fill="white" transform="translate(0.978516 0.829712) rotate(-0.0977007)"/>
</clipPath>
</defs>
</svg>
