<svg width="162" height="216" viewBox="0 0 162 216" fill="none" xmlns="http://www.w3.org/2000/svg">
<g clip-path="url(#clip0_117_8822)">
<rect width="160.784" height="214.762" transform="translate(0.694092 0.366455)" fill="black"/>
<path d="M26.578 109.423C41.0083 90.948 78.5744 65.4356 112.878 109.482" stroke="white" stroke-width="3.22717"/>
<path d="M26.5958 107.572C40.9948 124.852 78.2071 148.972 112.573 107.204" stroke="white" stroke-width="3.22717"/>
<path d="M39.9243 192.476C54.3546 174.001 91.9207 148.488 126.225 192.535" stroke="white" stroke-width="3.22717"/>
<path d="M39.942 190.625C54.341 207.905 91.5533 232.025 125.92 190.258" stroke="white" stroke-width="3.22717"/>
<path d="M39.9243 26.3708C54.3546 7.89546 91.9207 -17.6169 126.225 26.4293" stroke="white" stroke-width="3.22717"/>
<path d="M39.942 24.5191C54.341 41.7995 91.5533 65.9192 125.92 24.1516" stroke="white" stroke-width="3.22717"/>
<path d="M161.395 152.807C137.077 156.31 91.0819 149.536 100.698 95.9502" stroke="white" stroke-width="3.22717"/>
<path d="M159.953 154.096C163.063 132.454 155.359 90.9789 99.1569 97.7515" stroke="white" stroke-width="3.22717"/>
<path d="M64.149 209.351C39.8312 212.855 -6.16407 206.08 3.45223 152.495" stroke="white" stroke-width="3.22717"/>
<path d="M62.7091 210.642C65.8197 189 58.1157 147.525 1.91308 154.298" stroke="white" stroke-width="3.22717"/>
<path d="M159.481 59.1505C135.163 62.654 89.168 55.8791 98.7843 2.29376" stroke="white" stroke-width="3.22717"/>
<path d="M158.041 60.4416C161.152 38.7995 153.448 -2.67541 97.2451 4.09724" stroke="white" stroke-width="3.22717"/>
<path d="M4.39354 60.5104C1.17562 37.8984 9.5457 -4.56121 67.1274 5.58562" stroke="white" stroke-width="3.22717"/>
<path d="M3.03905 59.1506C26.3131 62.5323 71.2308 56.3517 65.2224 4.12205" stroke="white" stroke-width="3.22717"/>
<path d="M159.141 152.408C163.801 174.803 158.166 217.648 100.036 210.687" stroke="white" stroke-width="3.22717"/>
<path d="M160.586 153.69C137.136 151.595 92.6937 160.235 102.037 212.042" stroke="white" stroke-width="3.22717"/>
<path d="M157.234 58.7508C161.894 81.1459 156.259 123.991 98.1286 117.03" stroke="white" stroke-width="3.22717"/>
<path d="M158.678 60.0329C135.229 57.9376 90.786 66.5784 100.129 118.385" stroke="white" stroke-width="3.22717"/>
</g>
<defs>
<clipPath id="clip0_117_8822">
<rect width="160.784" height="214.762" fill="white" transform="translate(0.694092 0.366455)"/>
</clipPath>
</defs>
</svg>
