<svg width="216" height="289" viewBox="0 0 216 289" fill="none" xmlns="http://www.w3.org/2000/svg">
<g clip-path="url(#clip0_205_2812)">
<rect width="215.14" height="287.365" transform="translate(0.721436 0.62262) rotate(0.0480472)" fill="black"/>
<path d="M131.315 128.843C125.418 164.993 133.9 234.045 215.699 221.815" stroke="white" stroke-width="4.31816"/>
<path d="M129.316 130.933C162.335 127.147 225.296 140.285 213.684 223.888" stroke="white" stroke-width="4.31816"/>
<path d="M216.143 195.437C182.023 189.962 117.279 200.494 130.557 287.177" stroke="white" stroke-width="4.31816"/>
<path d="M214.132 193.353C218.41 228.369 207.426 295.585 128.563 285.076" stroke="white" stroke-width="4.31816"/>
<path d="M128.3 287.479C134.132 251.316 125.527 182.282 43.7503 194.678" stroke="white" stroke-width="4.31816"/>
<path d="M130.297 285.385C97.2844 289.238 34.3001 276.228 45.7622 192.602" stroke="white" stroke-width="4.31816"/>
<path d="M43.3629 221.056C77.4929 226.461 142.218 215.798 128.784 129.142" stroke="white" stroke-width="4.31816"/>
<path d="M45.3757 223.134C41.0352 188.126 51.8985 120.888 130.78 131.237" stroke="white" stroke-width="4.31816"/>
<path d="M114.49 1.75763C110.072 31.0341 118.571 86.5856 188.523 75.1848" stroke="white" stroke-width="4.31816"/>
<path d="M112.806 3.48114C141.064 -0.192096 195.306 9.22687 186.826 76.8945" stroke="white" stroke-width="4.31816"/>
<path d="M188.421 54.8339C159.055 51.0567 103.703 60.7677 116.629 130.454" stroke="white" stroke-width="4.31816"/>
<path d="M186.657 53.1926C190.947 81.363 182.715 135.798 114.878 128.798" stroke="white" stroke-width="4.31816"/>
<path d="M114.711 129.802C119.073 100.517 110.468 44.9822 40.538 56.5164" stroke="white" stroke-width="4.31816"/>
<path d="M116.382 128.074C88.1319 131.801 33.872 122.486 42.223 54.8023" stroke="white" stroke-width="4.31816"/>
<path d="M40.6785 77.8019C70.0517 81.5231 125.386 71.7065 112.326 2.04524" stroke="white" stroke-width="4.31816"/>
<path d="M42.4418 79.4415C38.0982 51.2794 46.2259 -3.17114 114.076 3.69895" stroke="white" stroke-width="4.31816"/>
<path d="M19.9766 146.853C37.7299 135.69 63.6121 105.45 25.1572 73.1807" stroke="white" stroke-width="4.31816"/>
<path d="M21.6688 146.956C6.63505 133.49 -13.3849 100.027 26.8484 73.2971" stroke="white" stroke-width="4.31816"/>
<path d="M20.3228 77.1978C38.0761 66.035 63.9583 35.7941 25.5034 3.52528" stroke="white" stroke-width="4.31816"/>
<path d="M22.016 77.3027C6.98222 63.8367 -13.0377 30.374 27.1956 3.64396" stroke="white" stroke-width="4.31816"/>
<path d="M21.5032 283.62C39.2565 272.457 65.1387 242.216 26.6839 209.947" stroke="white" stroke-width="4.31816"/>
<path d="M23.1964 283.725C8.16264 270.259 -11.8573 236.796 28.376 210.066" stroke="white" stroke-width="4.31816"/>
<path d="M21.8462 213.966C39.5995 202.803 65.4818 172.562 27.0269 140.294" stroke="white" stroke-width="4.31816"/>
<path d="M23.5392 214.071C8.50541 200.605 -11.5145 167.142 28.7188 140.412" stroke="white" stroke-width="4.31816"/>
<path d="M97.7928 156.759C97.7868 164.003 93.043 170.052 89.388 176.046C83.8192 185.177 77.1239 193.587 70.0495 201.592C66.2536 205.886 63.3761 209.894 58.3427 212.72C57.1955 213.364 52.8641 215.873 52.866 213.554C52.8681 211.055 53.4235 208.702 54.2236 206.309C54.9355 204.179 54.5539 201.529 54.5557 199.272C54.561 193.059 54.5912 187.079 56.5749 181.145C57.397 178.685 58.9106 176.364 59.6102 173.924C60.0549 172.372 61.2059 170.817 61.8743 169.335C62.5109 167.923 62.838 166.408 63.7886 165.142C67.8027 159.799 72.0521 154.893 76.6405 150.007C78.9303 147.569 82.3608 145.239 85.128 143.327C87.8254 141.462 89.923 139.944 93.101 138.719C96.973 137.227 100.963 137.212 104.94 136.306C108.679 135.455 112.405 135.38 116.266 135.383" stroke="white" stroke-width="15.8043" stroke-linecap="round"/>
<path d="M122.973 139.582C122.971 142.13 122.969 144.678 122.967 147.225C122.964 150.465 120.901 154.732 119.51 157.615C117.847 161.062 116.981 164.913 115.609 168.494C115.16 169.664 114.543 170.757 113.928 171.848C113.627 172.383 113.072 173.944 112.879 173.361C111.718 169.871 117.225 150.063 111.453 150.059C109.12 150.057 107.527 151.651 105.928 153.246C100.008 159.157 93.8346 164.767 89.578 172.084C89.1634 172.796 85.1715 179.173 87.3585 178.956C92.1692 178.479 96.477 172.774 97.1775 168.362C97.9943 163.216 99.0554 152.109 91.0857 152.558C89.859 152.627 87.2126 155.402 86.0262 156.142C81.7753 158.794 78.1145 164.586 76.4848 169.23C76.18 170.098 75.3985 171.714 75.5498 172.678C75.8319 174.474 80.8732 169.662 81.145 169.374C86.1307 164.079 88.8438 157.16 93.7893 151.815C95.8218 149.618 98.107 147.644 100.226 145.529C100.929 144.827 101.689 143.756 102.628 143.34C104.646 142.445 104.281 143.12 102.65 144.366C99.2522 146.959 95.9805 149.609 93.1593 152.839C88.5887 158.073 84.0901 164.004 80.166 169.746C76.3366 175.348 72.1009 180.669 68.245 186.257C65.6266 190.051 64.3197 194.357 62.1065 198.345C61.3556 199.698 56.5815 207.704 60.0013 207.897C61.0388 207.955 59.9559 212.837 60.8353 213.77C64.1528 217.288 67.4933 214.066 71.4142 213.779C73.7227 213.609 76.6327 212.098 78.547 210.848C81.0384 209.223 83.7763 208.21 86.3333 206.661C87.7145 205.824 94.1963 203.092 90.295 206.245C88.391 207.783 86.468 208.616 84.35 209.805C83.9634 210.022 81.778 211.222 82.6478 211.271C84.8228 211.394 87.6444 209.158 89.3149 207.945C90.7634 206.893 92.1489 205.912 93.6515 204.989C95.0899 204.106 97.5881 203.096 98.5011 201.638C100.939 197.744 106.614 196.705 108.762 192.419C110.832 188.286 113.888 184.923 115.902 180.681C116.977 178.417 117.173 175.016 118.658 173.04C120.262 170.905 121.135 167.512 121.787 164.98C122.482 162.277 122.537 159.81 122.539 157.035C122.541 154.665 122.334 155.225 120.862 156.777C118.915 158.828 117.234 161.492 115.799 163.927C112.907 168.833 108.839 173.125 105.186 177.456C98.3404 185.571 92.5169 194.345 83.589 200.367C81.8646 201.53 78.6559 202.922 77.4105 204.579C76.4743 205.825 75.5214 206.509 75.5231 204.554" stroke="white" stroke-width="15.8043" stroke-linecap="round"/>
<path d="M120.039 137.484C120.034 143.418 119.11 125.507 120.24 119.681C120.832 116.631 122.284 114.033 124.395 111.785C128.084 107.857 131.907 104.132 135.357 99.9806C141.411 92.6948 149.051 87.7232 153.41 79.0242C157.713 70.4349 160.693 61.14 160.796 51.4411C160.884 43.1623 153.753 36.6401 146.131 34.0923C143.525 33.2212 140.46 32.3025 137.767 31.825C135.03 31.3396 132.739 30.0591 130.103 29.2787C126.421 28.1889 122.721 27.5318 118.967 26.846C115.356 26.1863 109.796 26.1343 106.197 26.8353C91.7974 29.6402 79.8717 44.4003 78.069 58.5021C77.1121 65.9871 77.8727 73.7721 80.1473 80.9667C82.2163 87.511 85.8208 95.3835 91.1297 100.037C97.4077 105.539 104.447 110.207 112.932 110.215" stroke="white" stroke-width="15.8043" stroke-linecap="round"/>
<path d="M120.022 155.938C124.304 155.942 128.551 155.88 132.791 156.602C138.756 157.616 143.686 160.306 148.77 163.419C159.065 169.722 165.379 181.639 170.976 191.889C175.952 201 178.378 210.98 178.664 221.326C178.916 230.382 177.072 237.762 170.001 243.828C162.677 250.111 153.895 254.05 144.731 256.856C138.372 258.802 129.74 261.098 123.104 259.704C117.898 258.609 112.873 254.592 108.897 251.326C101.716 245.428 94.86 239.1 88.9905 231.876C84.4854 226.332 81.0478 221.046 80.1276 213.88C79.654 210.191 79.1432 206.122 77.2008 202.879" stroke="white" stroke-width="15.8043" stroke-linecap="round"/>
<path d="M22.2 269.103C22.2065 261.369 22.0057 253.552 23.9903 246.036C24.4891 244.147 25.1156 242.233 25.1602 240.258C25.1918 238.86 24.8618 237.088 25.3737 235.761C26.0024 234.13 26.9827 228.909 25.1705 228.001" stroke="white" stroke-width="15.8043" stroke-linecap="round"/>
<path d="M22.2878 165.084L22.2625 195.283" stroke="white" stroke-width="15.8043" stroke-linecap="round"/>
<path d="M18.1258 127.751C18.822 127.229 18.5431 125.332 18.5478 124.675C18.5723 121.273 18.5535 117.871 18.5564 114.469C18.5603 109.809 18.5642 105.148 18.5681 100.488" stroke="white" stroke-width="15.8043" stroke-linecap="round"/>
<path d="M20.7273 24.9925L20.7044 52.2555" stroke="white" stroke-width="15.8043" stroke-linecap="round"/>
<path d="M16.5199 111.063C16.2293 110.998 13.2291 105.958 13.2273 108.131C13.226 109.773 13.9571 111.107 13.9559 112.525C13.9542 114.532 13.7819 116.534 14.6018 118.383C15.2792 119.911 14.458 122.077 15.4111 123.51" stroke="white" stroke-width="15.8043" stroke-linecap="round"/>
<path d="M10.7068 115.616C10.7075 114.747 10.1467 114.209 9.75303 113.499C9.47474 112.997 9.68979 112.902 9.84959 112.301C10.0757 111.449 10.2911 110.409 10.315 109.53C10.3384 108.666 10.5328 107.732 10.817 106.914C10.922 106.611 11.0967 106.3 11.2514 106.017C12.9157 102.972 14.0599 99.6754 15.3535 96.4362" stroke="white" stroke-width="15.8043" stroke-linecap="round"/>
<path d="M22.3655 95.9126C22.3662 95.0239 22.5433 93.8742 22.3018 93.0019C21.9795 91.8378 21.7398 92.2755 20.7811 92.0084C20.4061 91.9039 20.006 91.9416 19.6198 91.9412C19.3746 91.941 18.7218 92.0944 18.8849 91.9112C19.6667 91.0332 20.9056 90.3752 21.4743 89.2967C22.0942 88.1214 23.5509 87.6404 24.2256 86.4619C24.4161 86.1292 24.7553 85.8789 24.7557 85.4627C24.756 85.1554 25.0038 84.3958 24.7567 84.272" stroke="white" stroke-width="15.8043" stroke-linecap="round"/>
<path d="M27.4006 86.2587C27.3996 87.4722 28.1779 88.8082 28.75 89.8614C29.5404 91.3164 30.2176 92.7783 30.4073 94.4346C30.6606 96.6462 30.8299 98.8531 30.8281 101.08C30.8265 102.913 30.9001 104.754 30.603 106.57C30.0291 110.076 28.8232 113.27 27.243 116.424" stroke="white" stroke-width="15.8043" stroke-linecap="round"/>
<path d="M30.9692 91.8184C30.9693 91.7038 30.9617 92.4025 30.976 92.5535C31.0421 93.2537 31.643 94.1477 31.9076 94.8107C32.564 96.4559 33.1602 98.0572 33.4101 99.8175C33.6454 101.474 33.7381 103.157 33.7367 104.831C33.7353 106.468 33.9078 108.217 33.7031 109.843C33.5967 110.689 33.4367 111.526 33.3335 112.372C33.2951 112.686 32.9076 113.403 33.0824 113.709C33.4713 114.391 35.1263 111.218 35.1797 110.741C35.3517 109.205 35.6293 107.68 35.823 106.141C36.0128 104.633 35.7504 103.11 35.7239 101.613C35.7158 101.153 35.7247 100.691 35.7251 100.231C35.7253 99.9611 35.3057 101.231 35.261 101.414C34.9449 102.709 34.9282 103.934 34.9271 105.265C34.9255 107.068 34.8415 108.86 34.7829 110.66C34.717 112.683 34.3673 114.645 33.7269 116.561C33.5224 117.173 33.2318 117.713 32.9316 118.281C32.7772 118.573 32.4014 119.449 32.4017 119.118C32.4024 118.225 33.053 117.145 33.3228 116.311C33.8309 114.741 33.8295 113.086 34.0692 111.461C34.4025 109.202 35.0579 107.011 35.0598 104.721C35.0606 103.785 35.1712 102.828 35.3562 101.907C35.4284 101.547 35.6955 100.076 35.3285 99.8926" stroke="white" stroke-width="15.8043" stroke-linecap="round"/>
<path d="M22.8786 116.288C22.8756 119.924 23.3275 123.897 22.3988 127.467C22.1873 128.28 21.8992 128.75 21.405 129.326C21.0784 129.706 20.6387 130.044 20.3529 130.472C19.7975 131.303 19.7208 132.16 19.9538 133.095C20.0684 133.555 20.2293 134.022 20.3569 134.47C20.4139 134.67 20.4813 135.213 20.4813 135.205" stroke="white" stroke-width="15.8043" stroke-linecap="round"/>
<path d="M33.8593 116.165C33.8585 117.108 33.8578 118.052 33.857 118.995C33.8555 120.756 33.4213 122.363 32.6621 123.963C32.0857 125.177 31.7959 126.606 30.9464 127.666C30.4776 128.251 29.9877 128.492 29.4165 128.936C27.9435 130.08 26.4105 132.035 24.4525 132.034" stroke="white" stroke-width="15.8043" stroke-linecap="round"/>
<path d="M22.4653 135.074L22.4648 135.736" stroke="white" stroke-width="15.8043" stroke-linecap="round"/>
<path d="M21.3946 162.166C21.4271 162.162 22.2981 159.157 22.2984 158.788" stroke="white" stroke-width="15.8043" stroke-linecap="round"/>
<path d="M22.7717 158.884C22.9394 158.176 23.2751 157.651 23.5648 157.009C23.6884 156.735 23.8563 156.472 23.9182 156.175C24.0231 155.671 24.3319 155.246 24.5389 154.781C24.7208 154.373 25.2338 153.95 25.5636 153.621C25.7588 153.426 26.2255 152.592 26.2616 152.305C26.3028 151.978 26.5719 151.668 26.5722 151.299" stroke="white" stroke-width="15.8043" stroke-linecap="round"/>
<path d="M24.8402 164.114C23.5378 164.113 22.7677 164.366 21.5339 164.848C21.0013 165.056 20.2439 165.681 19.8295 165.035C19.0594 163.835 19.0287 162.05 19.9443 160.907C20.2956 160.469 19.173 161.743 18.9155 162.242C18.6046 162.845 18.3148 163.37 17.8864 163.894C17.1118 164.843 16.6234 165.85 16.034 166.916C14.2522 170.139 12.8083 173.675 12.8052 177.396C12.8023 180.781 13.7416 183.817 15.3408 186.775C16.5547 189.021 17.928 191.293 18.8034 193.706C19.6019 195.908 20.7732 197.929 21.4957 200.183C21.6872 200.781 21.8817 201.257 22.188 201.794C22.3536 202.084 22.65 202.299 22.6497 202.651" stroke="white" stroke-width="15.8043" stroke-linecap="round"/>
<path d="M23.1118 202.651C23.274 202.631 24.3216 200.569 24.4668 200.34C25.3526 198.942 26.3111 197.608 27.2792 196.266C28.2304 194.947 28.9736 193.32 29.7151 191.866C30.6252 190.082 31.6461 188.084 31.9038 186.079C32.2928 183.051 32.3534 180.05 32.6136 177.01C32.9143 173.497 32.9275 169.681 32.3915 166.193C32.1904 164.885 32.3304 163.56 32.0094 162.271C31.8046 161.449 31.6683 160.618 31.4634 159.795C31.2563 158.964 31.0115 157.646 30.2409 157.182" stroke="white" stroke-width="15.8043" stroke-linecap="round"/>
<path d="M29.9326 156.411C29.9317 157.556 30.7981 158.11 31.4806 158.965C31.93 159.527 32.4566 160.007 32.858 160.61C33.1621 161.067 33.7824 161.815 33.8671 162.358C34.1157 163.951 33.9188 168.26 33.8958 168.952C33.6568 176.137 33.2829 182.615 32.9876 189.865" stroke="white" stroke-width="15.8043" stroke-linecap="round"/>
<path d="M31.1319 198.804C31.3127 198.963 31.441 197.723 31.4413 197.417" stroke="white" stroke-width="15.8043" stroke-linecap="round"/>
<path d="M36.7104 163.662C36.7093 165.022 37.5102 165.883 38.0949 167.055C38.6986 168.264 38.8637 169.432 38.8626 170.755C38.8615 171.991 38.8605 173.227 38.8595 174.463C38.8586 175.504 39.1035 176.95 38.8223 177.966C38.4777 179.211 38.464 180.829 37.8512 181.93C37.5783 182.42 37.5948 183.018 37.2419 183.471C36.8743 183.943 37.1275 184.913 36.3848 184.318" stroke="white" stroke-width="15.8043" stroke-linecap="round"/>
<path d="M24.1634 228.217C23.762 228.261 23.3307 228.88 23.0303 229.125C21.9885 229.972 20.9281 230.96 20.0773 231.998C18.7455 233.624 17.868 235.284 17.0811 237.211C16.5277 238.566 16.0427 239.914 15.59 241.309C15.0561 242.955 14.4797 244.605 14.4782 246.358C14.4764 248.585 14.4549 250.819 15.3653 252.905C15.8689 254.058 16.0682 255.289 16.4781 256.476C17.1114 258.31 17.7617 260.092 18.6308 261.834" stroke="white" stroke-width="15.8043" stroke-linecap="round"/>
<path d="M27.4408 221.375C27.419 221.548 26.7425 221.86 26.5808 221.969C25.7382 222.54 24.785 222.9 23.9513 223.455C22.8312 224.2 21.7794 224.956 21.3372 226.279" stroke="white" stroke-width="15.8043" stroke-linecap="round"/>
<path d="M26.819 219.453L26.8191 219.402" stroke="white" stroke-width="15.8043" stroke-linecap="round"/>
<path d="M23.1027 210.583C23.1028 210.436 22.8811 209.774 22.8808 210.138" stroke="white" stroke-width="6.77329" stroke-linecap="round"/>
<path d="M17.6357 228.914C17.4563 228.757 17.3192 229.401 17.319 229.546" stroke="white" stroke-width="15.8043" stroke-linecap="round"/>
<path d="M15.1032 234.071C15.1022 235.266 14.974 236.356 14.8077 237.546C14.6879 238.404 14.5724 239.146 14.5717 240.026C14.5706 241.34 14.6688 242.603 14.779 243.911C14.9138 245.51 15.2969 247.083 15.4302 248.685C15.5904 250.61 15.4012 252.546 15.5599 254.471C15.6463 255.518 15.7161 256.561 15.7152 257.612C15.7149 258.032 15.7412 258.461 15.5036 258.817" stroke="white" stroke-width="15.8043" stroke-linecap="round"/>
<path d="M15.6038 262.924L15.7097 262.924" stroke="white" stroke-width="15.8043" stroke-linecap="round"/>
<path d="M30.8032 222.291C30.8006 225.368 33.0814 228.037 33.6916 231.033C34.1363 233.217 34.1619 235.297 34.16 237.521C34.1591 238.682 34.1004 239.736 33.8998 240.879C33.6947 242.048 33.5166 243.22 33.2768 244.383C33.1724 244.889 32.8041 246.388 32.8543 245.874C33.1244 243.107 33.9444 240.272 34.4759 237.563" stroke="white" stroke-width="15.8043" stroke-linecap="round"/>
<path d="M35.6365 232.404C35.6663 232.674 35.9381 233.009 36.057 233.247C36.3533 233.841 36.6599 234.414 36.9974 234.985C37.5676 235.949 37.7538 237.203 37.7376 238.303C37.7201 239.488 37.0632 240.381 36.7287 241.472C36.3593 242.678 36.1534 243.93 36.1523 245.192C36.1503 247.55 35.5941 249.892 34.1227 251.801C31.9022 254.683 30.6653 258.146 28.6627 261.145" stroke="white" stroke-width="15.8043" stroke-linecap="round"/>
<path d="M36.2629 240.197C36.262 241.23 36.7381 242.175 36.7869 243.192C36.8366 244.23 36.8547 245.408 37.1527 246.404C37.3458 247.05 37.4341 247.634 37.4144 248.306C37.3943 248.99 36.7122 249.805 36.3538 250.364C35.2571 252.074 34.73 253.941 34.0151 255.826C33.2608 257.814 32.1728 259.477 30.4542 260.725" stroke="white" stroke-width="15.8043" stroke-linecap="round"/>
<path d="M35.4081 253.99C35.4063 256.123 35.4815 258.351 33.8821 259.979C32.973 260.905 31.9466 261.651 30.9842 262.516C30.4945 262.956 29.9645 263.263 29.5265 263.778C29.1804 264.185 28.8215 264.564 28.4433 264.942C27.8827 265.501 27.511 266.148 27.0787 266.807C26.7079 267.371 26.2281 267.847 25.8664 268.408C25.5575 268.888 25.0493 269.172 24.6545 269.566C24.2515 269.968 24.024 270.198 23.4959 269.881" stroke="white" stroke-width="15.8043" stroke-linecap="round"/>
<path d="M24.2346 268.407C24.2339 269.322 24.3769 270.457 24.1328 271.308C24.049 271.601 23.7915 271.869 23.7108 272.15C23.6198 272.468 23.5162 272.977 23.178 272.723" stroke="white" stroke-width="15.8043" stroke-linecap="round"/>
<path d="M26.1563 22.5571C26.1552 23.854 26.1659 24.9649 25.6313 26.1898C25.0649 27.4875 24.4042 29.1348 23.1852 29.8836C22.1122 30.5426 21.0039 30.3293 20.0325 29.5886C18.9254 28.7444 18.3701 27.0741 17.1328 26.4541C16.625 26.1997 16.2049 26.9828 15.8166 27.2882C14.609 28.238 13.4916 29.7681 12.5144 30.9604C11.4127 32.3047 10.7746 34.0299 10.5059 35.7403C10.2442 37.4063 10.055 39.7238 10.543 41.3362C11.4466 44.322 12.4709 47.3169 13.2081 50.3588C13.8938 53.188 15.2038 55.8834 16.6884 58.4006C17.3882 59.5872 17.7282 61.056 18.1884 62.3482C18.3942 62.926 18.5112 63.6955 18.9386 64.1237C19.3342 64.5199 20.0536 64.7285 20.3367 65.2106C20.5296 65.5392 20.9052 65.58 21.1296 65.869C21.1918 65.9491 21.4215 66.3974 21.4217 66.1512" stroke="white" stroke-width="15.8043" stroke-linecap="round"/>
<path d="M27.4741 18.4238C27.4738 18.6832 27.4926 18.1649 27.4326 18.0897C27.2719 17.8885 27.0624 17.7445 26.9111 17.5255C26.6887 17.2037 26.2477 16.2465 26.5784 15.8339C26.8838 15.4528 27.1333 15.4061 27.1012 14.853C27.0611 14.1614 26.2478 15.1294 26.1613 15.2698C25.2852 16.6907 24.5164 17.8252 23.3392 19.0676C22.1975 20.2726 21.2986 21.7394 20.1413 22.9278C19.8843 23.1917 19.1377 24.3046 19.0128 24.0544" stroke="white" stroke-width="15.8043" stroke-linecap="round"/>
<path d="M25.9673 22.9329C26.232 24.1621 27.0465 25.2296 27.7811 26.223C29.0439 27.9307 30.4565 24.2924 31.0407 23.5009" stroke="white" stroke-width="15.8043" stroke-linecap="round"/>
<path d="M30.2902 22.1847C30.2877 25.1424 31.3234 27.5189 32.1626 30.3087C32.8899 32.7264 33.0449 35.3573 32.8662 37.868C32.5317 42.5692 29.4567 45.9142 27.0515 49.7336C25.9014 51.5599 24.817 53.7815 24.4259 55.9224C24.1664 57.343 23.6236 58.6276 23.6811 60.0978C23.7272 61.2744 27.5318 58.7744 28.0046 58.6398C28.6061 58.4685 28.9449 57.7386 29.2272 57.2314C29.7076 56.3685 30.225 55.542 30.7432 54.6957C32.6582 51.5679 35.0962 48.4914 35.5749 44.7399C36.323 38.8777 36.7037 30.866 32.166 26.3206" stroke="white" stroke-width="15.8043" stroke-linecap="round"/>
<path d="M22.9329 55.6282C23.3957 56.1497 23.0658 57.4218 23.1292 58.0609C23.177 58.5433 23.4938 59.0086 23.4934 59.4811C23.4931 59.7885 23.4334 60.1445 23.5866 60.4208C23.8458 60.8884 23.9192 61.5701 24.2848 61.9769C24.4598 62.1717 25.242 62.9892 24.8061 62.7708" stroke="white" stroke-width="15.8043" stroke-linecap="round"/>
<path d="M72.6941 48.2546C72.4925 50.3527 71.1106 52.2899 70.2525 54.1609C68.8769 57.1602 67.9804 60.1982 66.9482 63.3154C66.5925 64.3898 66.2091 65.7436 65.6554 66.7383C65.549 66.9294 65.1711 63.4335 65.0535 62.7246C64.4289 58.9573 63.7507 55.3782 62.212 51.8768C61.6097 50.5063 61.0807 49.2781 59.8101 48.403C59.2032 47.985 58.723 47.9562 58.0109 47.9556C56.8223 47.9546 55.5587 47.2591 54.5082 46.7423C53.9451 46.4653 51.484 44.7942 51.483 45.9435C51.4826 46.4548 51.705 46.7935 51.9119 47.2498C52.4615 48.4614 52.0526 50.49 52.0515 51.7728C52.0495 54.0719 52.0288 56.2904 51.7751 58.5568C51.5815 60.286 51.0227 62.072 50.8948 63.7797C50.7991 65.0561 50.0757 66.4407 49.6812 67.6646C49.1667 69.2605 49.4552 71.213 49.4538 72.888C49.4507 76.5946 49.5002 80.0809 50.241 83.7181C50.5581 85.2751 51.143 87.064 52.0845 88.3699C53.3585 90.1371 53.8632 92.1188 54.7233 94.0894C55.6388 96.1866 56.5998 98.1751 57.5848 100.239C58.5911 102.348 60.9497 104.486 62.6124 106.152" stroke="white" stroke-width="15.8043" stroke-linecap="round"/>
<path d="M64.3664 64.3C64.363 68.3974 64.1947 72.5361 64.4198 76.6265C64.8728 84.8596 70.2419 91.0165 74.6902 97.5296C75.694 98.9993 76.753 100.35 78.079 101.546C78.6222 102.035 79.6904 102.353 80.0366 103.012C80.471 103.84 78.3432 103.55 78.0615 103.409C73.0382 100.892 58.0991 93.2864 62.6512 96.5799C64.2361 97.7266 65.4639 99.3936 66.7565 100.835C70.2918 104.779 74.2344 108.314 78.6283 111.277C81.6866 113.339 85.6 117.064 89.5484 117.067" stroke="white" stroke-width="15.8043" stroke-linecap="round"/>
<path d="M67.2027 100.996C67.2015 102.494 66.6492 105.211 67.7077 106.507C68.409 107.366 69.1768 109.108 70.0621 109.662C70.4884 109.929 70.5831 110.532 71.0645 110.746C71.4139 110.902 72.0188 111.166 72.2902 111.384C73.1828 112.099 74.0223 113.147 75.0754 113.616C77.6998 114.785 80.8224 116.262 83.7524 116.49C85.1033 116.595 86.7657 116.989 88.1154 117.29C90.4931 117.82 93.4167 117.358 95.8552 117.36C96.5803 117.361 97.8995 117.263 96.8115 116.373C93.9541 114.037 91.2305 111.622 88.4407 109.216C88.1631 108.976 83.0606 104.559 84.2539 107.19C85.198 109.271 85.3937 111.471 87.1155 113.196C89.133 115.217 90.7216 116.688 93.2747 117.931C96.7134 119.605 100.163 121.344 104.021 121.683C109.457 122.16 114.78 122.301 119.646 119.387" stroke="white" stroke-width="15.8043" stroke-linecap="round"/>
<path d="M125.674 111.079C125.675 109.181 125.489 107.195 125.902 105.345C126.22 103.92 126.691 102.851 127.115 101.477C127.335 100.763 127.784 99.8378 128.136 99.1841C128.479 98.5489 129.094 96.5203 129.094 97.242C129.093 97.9769 127.603 99.848 127.116 100.473C126.49 101.277 126.086 102.322 125.394 103.052C124.924 103.547 123.294 104.48 122.59 103.846C121.16 102.557 123.394 101.134 123.979 100.295C125.729 97.784 126.464 94.497 127.697 91.7305C128.342 90.2826 129.8 88.8587 130.694 87.5605C131.805 85.9484 132.741 84.3626 134.074 82.929C138.137 78.5613 143.015 74.9741 147.478 70.9642C148.279 70.2447 149.029 69.6502 149.916 69.087C150.4 68.7794 150.629 68.1192 151.064 67.8298C152.525 66.8574 147.909 69.4707 146.634 70.6768C145.819 71.4479 144.748 72.2426 144.052 73.1113C143.886 73.3189 143.297 73.5318 143.032 73.6997C142.425 74.0851 141.834 74.493 141.248 74.9085C138.99 76.5079 139.639 74.6846 139.466 72.6774" stroke="white" stroke-width="15.8043" stroke-linecap="round"/>
<path d="M124.827 94.4509C124.828 93.3883 124.897 92.3227 124.703 91.2816C124.412 89.7221 126.305 87.1406 126.985 85.7096C128.263 83.0162 131.029 81.0996 133.09 79.0418C135.326 76.8089 137.895 74.0372 140.628 72.5027C142.086 71.6844 143.435 70.5942 144.914 69.8149C145.818 69.339 147.209 68.7071 147.21 67.5235" stroke="white" stroke-width="15.8043" stroke-linecap="round"/>
<path d="M122.014 30.2368C119.663 30.8224 127.857 44.9379 129.103 46.2321C130.925 48.1245 132.135 50.371 134.21 52.0652C136.936 54.2897 139.141 57.113 141.737 59.4769C142.738 60.388 144.63 61.9954 146.067 62.0764C148.453 62.211 147.545 57.5772 147.489 56.0259C147.343 51.9804 146.698 47.5521 145.158 43.793C144.194 41.4386 142.419 37.5445 140.228 36.049C139.02 35.2246 137.631 34.7476 136.407 33.9755C135.978 33.7046 135.399 33.8039 135.198 33.4011" stroke="white" stroke-width="15.8043" stroke-linecap="round"/>
<path d="M103.38 30.5074C103.377 34.2267 101.809 36.9413 99.9479 40.0758C99.1026 41.4995 97.8903 42.7407 96.7914 43.9749C95.4922 45.434 94.6106 47.2209 93.2679 48.6223C90.322 51.6969 87.7814 55.2417 84.9943 58.4415C84.3014 59.2369 83.4233 59.826 82.7787 60.6533C82.5451 60.9532 84.6696 60.269 84.8495 60.1613C86.9664 58.8936 87.6151 56.7161 89.2492 55.0847C92.1675 52.1713 95.307 49.5054 98.2066 46.5561C100.757 43.9615 103.613 40.5107 104.235 36.7987C104.482 35.3221 105.039 33.9623 105.098 32.4518C105.108 32.2094 105.386 31.5405 105.386 31.7831C105.385 32.4069 104.798 33.2773 104.524 33.8049C102.535 37.6335 99.933 41.1073 97.9849 44.9952C96.7307 47.4983 95.6063 50.0119 94.0292 52.3017C92.9051 53.9339 91.6602 55.1775 90.3309 56.5826C89.7538 57.1927 89.0253 57.4907 88.4663 58.1418C87.5973 59.1539 90.5895 56.5242 91.6057 55.66C93.4716 54.0733 103.519 41.5954 101.079 39.9653" stroke="white" stroke-width="15.8043" stroke-linecap="round"/>
<path d="M81.2856 58.0084C81.284 59.9085 81.26 61.8099 81.2808 63.7098C81.3144 66.7851 82.6425 70.1539 84.0442 72.8693C85.6504 75.9812 86.5109 79.2979 88.4318 82.2532C90.351 85.2059 92.1497 88.3213 95.0181 90.4764C95.5666 90.8885 97.0227 92.908 97.0239 91.4336C97.0267 88.0715 95.2722 84.8645 93.7194 81.9391C92.5945 79.8201 91.1779 77.8896 90.0457 75.7888C88.9919 73.8334 88.4442 71.7118 87.3115 69.7825C86.5504 68.4861 85.3001 66.654 85.0062 65.1781" stroke="white" stroke-width="15.8043" stroke-linecap="round"/>
<path d="M87.291 72.6336C87.422 73.8211 88.6682 74.6549 89.2952 75.5656C90.3417 77.0858 91.4456 78.6475 92.2215 80.3139C94.2675 84.7078 97.1041 88.8193 99.3296 93.14C100.704 95.8089 101.871 100.794 104.753 102.238C106.747 103.238 104.786 98.9878 104.612 98.4477C103.532 95.0759 103.56 91.1937 101.611 88.1254C99.9193 85.4619 99.0551 82.5219 97.0313 80.0313C96.1992 79.0072 95.4809 77.9838 94.6769 76.9398C93.7209 75.6983 92.2953 74.8193 91.4469 73.4971C90.6416 72.2421 88.8355 71.8198 88.4394 70.628" stroke="white" stroke-width="15.8043" stroke-linecap="round"/>
<path d="M67.8173 50.2581C67.8221 44.5419 69.7674 39.7557 73.0537 35.0694C74.4134 33.1305 75.924 29.7546 78.2189 28.7035C85.1577 25.5255 92.5844 23.9231 99.8836 21.7462C107.597 19.4459 114.778 16.758 122.884 16.7648C125.991 16.7674 128.865 16.9497 131.93 17.505C134.277 17.9303 136.728 18.4487 138.919 19.406C139.844 19.8098 141.904 20.5596 142.533 21.3679C144.665 24.1077 147.421 31.4419 148.16 33.3169C153.953 47.9975 156.566 56.1536 162.398 71.5503" stroke="white" stroke-width="15.8043" stroke-linecap="round"/>
<path d="M140.081 22.5115C143.052 22.514 145.34 22.8302 148.106 23.9516C151.256 25.2288 153.856 27.2843 156.685 29.1187C162.782 33.0706 164.278 41.6828 165.285 48.2685C166.525 56.3755 167.278 64.3896 167.271 72.5886C167.265 79.8223 163.241 86.8154 157.939 91.596C153.127 95.9349 148.183 100.004 142.593 103.352C139.86 104.989 137.161 106.642 134.435 108.282C132.026 109.731 129.596 111.582 126.994 112.64C125.39 113.292 122.291 114.236 121.433 115.948C120.677 117.457 123.346 119.102 124.52 119.103" stroke="white" stroke-width="15.8043" stroke-linecap="round"/>
<path d="M124.805 118.818C127.194 118.82 129.583 118.822 131.972 118.824C133.677 118.825 129.329 120.953 128.673 121.098C126.639 121.548 128.465 121.107 129.565 120.685C133.045 119.35 137.173 121.261 140.571 119.754C141.778 119.219 143.04 118.658 144.315 118.101C146.186 117.285 148.407 116.879 150.161 115.829C151.774 114.863 153.369 114.177 154.973 113.11C156.457 112.122 157.963 110.921 159.228 109.657C163.482 105.411 168.935 102.064 172.409 97.1349C172.906 96.4305 173.774 95.9735 174.067 95.1297C174.53 93.7972 172.828 95.1292 172.554 95.3673C170.704 96.9732 168.898 99.4817 167.532 101.526C165.5 104.569 164.142 107.808 161.569 110.472C161.116 110.941 160.523 111.554 160.214 112.111C159.45 113.483 159.784 111.181 159.785 110.534" stroke="white" stroke-width="15.8043" stroke-linecap="round"/>
<path d="M172.696 97.3587C172.699 94.2989 172.558 91.3086 173.277 88.3134C174.106 84.8662 175.158 81.4773 175.993 78.0277C176.627 75.4102 176.656 72.8006 177.035 70.1613C177.175 69.1869 177.339 70.1812 177.242 70.703C177.048 71.7465 176.525 72.6949 176.331 73.744C176.083 75.0903 176.167 76.4755 176.153 77.8367C176.118 81.2458 175.711 84.8478 174.138 87.9001C174.04 88.0887 172.946 89.3773 173.595 89.2851C174.932 89.0952 176.206 85.5264 176.689 84.51C178.528 80.6359 178.829 76.0466 178.738 71.7872C178.697 69.8678 177.881 67.9771 177.883 66.0532C177.885 63.3483 177.081 60.8763 176.743 58.2328C176.326 54.9837 174.554 51.8496 173.454 48.7861C172.493 46.1102 171.771 43.4141 170.801 40.7573C170.14 38.9471 168.058 33.5734 168.958 35.2774C169.463 36.2335 169.468 37.4126 169.752 38.4313C170.121 39.7554 171.066 40.7547 171.453 42.0479C172.66 46.0828 173.736 50.2876 175.95 53.8525C176.467 54.6854 177.934 57.5171 179.036 57.518C181.146 57.5198 180.212 54.2171 179.757 53.2028C178.268 49.8863 177.868 46.3096 176.755 42.8964C175.223 38.1971 171.817 35.0803 168.436 31.6937C165.182 28.4343 161.967 25.5049 157.852 23.3875C156.069 22.4701 154.528 20.9978 152.631 20.2936C151.574 19.901 152.448 19.8387 153.109 19.9595C153.936 20.1106 155.116 20.8402 155.863 21.2518C159.214 23.0985 162.552 24.9733 165.876 26.8342C167.111 27.5261 168.113 28.6457 169.314 29.3533C169.63 29.5401 170.489 30.8195 170.857 30.8198C171.704 30.8205 169.484 29.8211 168.74 29.4166C167.793 28.9012 167.049 27.906 166.162 27.2644C164.801 26.2795 162.209 25.1172 161.865 23.3909" stroke="white" stroke-width="15.8043" stroke-linecap="round"/>
<path d="M161.867 23.3903C159.899 23.3887 158.322 21.8451 156.709 20.806C155.141 19.7964 153.402 19.0861 151.838 18.0787C149.47 16.5534 147.258 15.8013 144.531 15.2059C138.838 13.9633 133.31 12.4732 127.461 12.4683C124.921 12.4662 122.305 12.1773 119.721 12.1752C118.286 12.174 116.827 12.0383 115.437 12.3945C114.018 12.7581 112.588 13.1705 111.136 13.3306C109.093 13.5559 107.302 14.1714 105.243 14.1697C104.097 14.1687 103.074 14.0047 101.962 13.8803C101.286 13.8045 100.617 13.3058 99.8129 13.3051C95.1876 13.3013 90.2889 13.4777 85.8449 14.7904C81.3329 16.1232 76.7108 17.5475 72.7813 20.1623C71.1342 21.2584 69.2075 22.2873 67.7777 23.6618C66.0123 25.359 64.1271 27.4635 62.1675 28.9125C60.2562 30.3259 57.4099 33.7901 57.2244 36.266C57.1424 37.3611 56.0392 38.1591 55.8045 39.2111C55.6846 39.7485 55.6703 40.8461 55.2137 41.0739" stroke="white" stroke-width="15.8043" stroke-linecap="round"/>
<path d="M107.688 21.3379C108.94 21.1824 107.069 16.9837 106.768 16.4639C106.025 15.1783 104.364 14.6207 103.251 13.7536C102.882 13.466 102.146 13.7399 101.978 13.1473C101.833 12.6392 102.249 12.1102 102.663 11.8739C103.551 11.3675 104.711 11.2627 105.69 11.5897" stroke="white" stroke-width="15.8043" stroke-linecap="round"/>
<path d="M127.229 147.294C134.439 147.3 144.117 145.651 150.63 149.339C150.858 149.469 153.608 150.943 152.44 151.526C150.385 152.552 146.374 150.315 144.499 149.601C139.866 147.834 135.537 145.329 130.964 143.565C129.061 142.832 127.539 140.811 130.7 140.58C134.764 140.282 138.912 139.888 143.068 140.111C145.679 140.25 148.213 141.332 150.742 141.929C153.841 142.661 157.237 144.509 160.309 144.896C162.402 145.159 164.309 146.301 166.304 146.873C167.573 147.237 166.016 147.326 165.584 147.326C164.127 147.325 162.201 147.652 160.84 147.055C158.149 145.876 156.3 142.236 153.381 141.585C153.173 141.539 151.669 140.804 152.476 140.625C153.752 140.343 155.317 140.898 156.5 141.321C163.033 143.661 168.596 147.477 174.27 151.385C184.613 158.508 185.557 170.653 188.611 181.889" stroke="white" stroke-width="15.8043" stroke-linecap="round"/>
<path d="M154.572 152.114C155.609 152.219 156.574 152.924 157.396 153.503C160.995 156.034 164.394 159.062 167.624 162.04C177.274 170.94 185.876 181.827 193.186 192.714C197.074 198.504 199.624 204.561 202.073 211.059C202.823 213.048 203.935 215.239 203.933 217.404" stroke="white" stroke-width="15.8043" stroke-linecap="round"/>
<path d="M133.936 157.853C134.735 162.269 139.513 166.177 142.055 169.614C145.521 174.301 149.086 179.141 152.892 183.563C156.793 188.096 159.92 193.286 163.861 197.806C168.244 202.832 172.654 209.232 178.508 212.584" stroke="white" stroke-width="15.8043" stroke-linecap="round"/>
<path d="M141.746 141.718C142.783 141.719 144.274 142.052 145.006 141.138C145.516 140.501 146.937 140.046 147.671 139.628C149.285 138.707 151.888 139.885 153.464 140.512C155.777 141.432 158.317 141.78 160.653 142.665C162.493 143.362 164.335 143.832 166.304 143.833C168.295 143.835 169.479 145.005 171.321 145.467C172.97 145.881 173.968 147.365 175.315 148.264C176.937 149.347 178.598 150.388 179.968 151.812C181.414 153.314 183.221 154.397 184.672 155.851C185.285 156.465 185.706 157.168 186.416 157.702C186.694 157.91 187.523 158.689 186.636 158.491C184.218 157.951 183.141 154.442 181.312 152.977C180.817 152.58 178.204 149.537 179.969 149.949C182.861 150.624 184.163 154.996 185.835 156.99C187.795 159.327 189.805 161.984 191.209 164.702C192.827 167.838 194.05 170.56 194.382 174.172C194.61 176.653 194.559 179.132 194.557 181.622C194.556 182.903 194.731 184.302 194.321 185.527" stroke="white" stroke-width="15.8043" stroke-linecap="round"/>
<path d="M178.753 151.06C183.341 152.338 187.154 155.711 190.723 158.636C192.717 160.27 193.275 163.224 194.753 165.274C195.613 166.467 196.233 167.808 197.116 168.988C197.578 169.604 198.013 170.244 198.473 170.864C198.863 171.39 199.492 171.719 199.804 172.275C201.03 174.46 201.818 176.287 202.294 178.731C203.034 182.53 203.325 186.35 203.643 190.203C203.754 191.555 204.045 192.853 204.092 194.2C204.118 194.951 204.149 196.96 204.606 197.589C205.267 198.498 205.846 197.201 205.939 196.594C206.135 195.329 205.955 193.915 205.956 192.637C205.957 190.877 205.785 189.205 205.261 187.631" stroke="white" stroke-width="15.8043" stroke-linecap="round"/>
<path d="M201.768 190.654C201.765 194.261 202.234 197.44 203.156 200.898C203.82 203.388 204.711 205.982 204.779 208.582C204.81 209.754 204.24 213.114 204.828 212.1C206.605 209.036 207.673 205.826 208.147 202.325C208.27 201.422 208.318 200.371 208.628 199.506C208.913 198.711 208.115 199.686 208.046 199.997C207.737 201.38 207.234 202.519 207.111 203.979C206.936 206.061 206.875 208.112 206.873 210.2C206.869 214.715 206.264 218.48 204.535 222.601C203.817 224.312 196.331 234.724 194.981 233.146C194.521 232.608 194.757 231.3 194.738 230.676C194.694 229.284 194.371 227.987 194.107 226.627C193.349 222.711 192.607 218.658 191.22 214.908C188.259 206.901 182.574 200.389 179.185 192.64C178.014 189.961 176.84 187.223 175.571 184.592C174.405 182.174 173.734 179.497 172.434 177.153C171.198 174.923 168.934 173.616 166.488 173.061C164.511 172.613 162.346 172.873 160.333 172.565C158.169 172.233 155.983 172.154 153.815 171.861C150.304 171.385 146.887 170.39 143.406 169.834C142.883 169.751 141.492 169.243 141.491 170.117C141.491 170.774 141.723 171.412 141.722 172.109C141.721 173.721 141.66 175.082 142.236 176.585C142.828 178.129 144.178 179.475 145.026 180.881C146.21 182.842 147.787 184.6 148.81 186.652C150.642 190.322 153.588 193.621 156.044 196.901C157.281 198.553 158.846 199.977 160.373 201.354C161.902 202.732 163.513 204.249 165.22 205.406C167.741 207.114 170.282 208.712 173.014 210.081C173.161 210.154 175.597 211.095 175.393 211.299C174.749 211.942 172.5 211.018 172.057 210.468C170.375 208.382 167.414 207.149 165.232 205.652C162.811 203.99 160.367 202.153 158.124 200.265C154.886 197.541 150.994 194.431 149.26 190.481C148.459 188.657 147.636 186.64 146.704 184.904C146.163 183.897 146.215 181.476 144.974 181.062" stroke="white" stroke-width="15.8043" stroke-linecap="round"/>
<path d="M90.2581 189.164C92.163 190.225 92.8096 192.146 94.0954 193.72C94.6155 194.357 94.7328 194.991 95.426 195.454C96.2931 196.033 97.3752 196.553 98.1534 197.202C98.9061 197.831 99.8849 198.403 100.726 198.899C101.066 199.099 101.333 199.389 101.436 199.753C101.516 200.034 101.655 200.808 101.656 200.115" stroke="white" stroke-width="15.8043" stroke-linecap="round"/>
<path d="M82.3222 216.86C82.4431 215.899 86.9407 217.294 87.4173 217.485C91.823 219.256 95.9253 222.2 99.5938 225.178C104.579 229.224 108.99 234.059 111.868 239.828C112.422 240.938 113.602 243.851 112.566 240.734C111.637 237.941 110.341 235.295 109.21 232.583C107.741 229.061 106.657 225.388 104.796 222.039C103.4 219.53 101.703 217.683 99.9253 215.491C99.7178 215.235 98.9111 214.779 99.2404 214.779C100.017 214.78 100.642 215.263 101.309 215.609C103.259 216.619 104.867 218.241 106.401 219.777C108.089 221.468 109.873 223.192 111.272 225.136C112.993 227.526 114.494 229.89 115.366 232.718C115.953 234.622 115.96 236.661 116.525 238.539C117.195 240.767 117.823 242.868 118.666 245.059C119.664 247.651 121.309 251.114 124.546 251.116C127.227 251.119 129.652 250.03 132.23 249.364C135.551 248.506 137.309 246.17 139.335 243.628C141.098 241.414 142.454 238.847 144.281 236.7C146.718 233.835 149.173 231.001 151.557 228.092C154.258 224.796 157.905 221.684 161.238 219.021C162.799 217.775 164.507 216.844 166.31 215.999C167.217 215.575 167.929 214.881 168.898 214.605C169.212 214.515 169.829 214.337 169.144 214.721C167.822 215.464 166.609 215.939 165.082 216.102C161.989 216.432 159.155 216.332 156.221 217.633C153.634 218.78 151.454 219.665 149.208 221.365C147.01 223.03 145.187 225.183 143.539 227.387C142.01 229.431 140.596 231.782 139.86 234.239C139.189 236.476 139.305 238.807 139.337 241.119C139.366 243.269 141.629 243.893 143.499 243.916C147.54 243.965 150.741 243.101 154.52 241.688C159.099 239.975 163.132 237.364 167.29 234.844C169.142 233.722 170.978 232.715 172.299 231.02C173.05 230.055 172.805 227.969 172.988 226.817C173.319 224.73 174.039 222.531 174.041 220.429" stroke="white" stroke-width="15.8043" stroke-linecap="round"/>
<path d="M172.175 222.29C172.174 222.974 171.03 224.004 170.595 224.513C169.168 226.186 167.412 227.809 165.767 229.269C160.639 233.819 156.057 239.079 151.205 243.922" stroke="white" stroke-width="15.8043" stroke-linecap="round"/>
<path d="M57.6036 214.725C57.6003 218.689 57.1614 222.884 57.683 226.806C58.1434 230.268 59.0556 234.13 60.3924 237.368C60.8278 238.423 61.3245 239.451 61.7656 240.501C61.8452 240.691 60.2995 238.862 60.0782 238.553C57.6926 235.231 54.1227 231.01 53.9693 226.691C53.9496 226.137 53.6237 225.449 53.7806 224.901C53.8449 224.677 54.6709 224.786 54.8658 224.745C57.0698 224.283 59.6155 224.543 61.8461 224.617C66.8379 224.782 71.7601 226.228 76.3516 228.119C78.6004 229.045 80.7477 230.048 81.9972 232.218C82.8423 233.686 83.0427 235.207 83.5594 236.806C83.8267 237.633 86.5779 244.122 85.544 244.638C84.5616 245.128 83.4139 243.989 82.7036 243.494C79.1672 241.032 75.7803 238.374 72.3181 235.812C71.7981 235.427 65.8962 230.824 65.1957 232.047C64.2121 233.765 62.7543 235.058 61.411 236.474C60.9339 236.977 60.1301 239.281 59.1716 239.067C57.4635 238.686 56.762 235.888 54.9012 235.887C54.3744 235.886 55.3888 236.633 55.4598 236.67C56.9184 237.442 58.0867 238.574 59.2382 239.739C62.0898 242.624 64.6758 245.79 67.5309 248.65C69.6078 250.73 71.975 252.215 74.686 253.399C78.8161 255.201 83.4161 255.322 87.8621 254.931C91.5272 254.608 95.6576 253.733 99.362 254.247C100.848 254.453 102.332 254.997 103.836 255.235C105.214 255.454 106.597 255.621 107.974 255.843C108.113 255.865 109.437 256.154 108.98 256.448C107.385 257.471 104.406 256.754 102.828 256.196C99.1658 254.903 95.5914 253.478 91.824 252.496C87.1752 251.284 82.4725 250.205 77.9116 248.681C72.8301 246.982 68.5543 244.199 63.8564 241.734C63.5029 241.548 59.2252 239.159 59.1933 239.94C59.1305 241.477 58.9894 242.996 58.9881 244.537C58.9853 247.895 63.1309 249.331 65.5827 250.773C67.8669 252.117 69.5322 254.12 71.6639 255.611C73.1515 256.651 74.5045 258.053 75.7773 259.328C76.8538 260.407 75.0674 260.615 74.2663 260.334C72.4295 259.689 70.7942 258.454 69.1567 257.421C67.8754 256.613 67.1292 255.89 66.2169 254.823C65.7214 254.244 65.0208 253.807 65.0215 252.988" stroke="white" stroke-width="15.8043" stroke-linecap="round"/>
<path d="M66.2349 246.949C66.3876 247.793 67.2078 248.654 67.6423 249.366C68.4754 250.732 69.4116 252.035 70.2565 253.395C71.0463 254.667 71.9719 255.852 72.7702 257.122C73.1737 257.764 73.7396 258.758 74.3681 259.216C75.2051 259.825 75.8122 260.694 76.4916 261.455C76.961 261.98 77.6976 263.137 77.8991 263.794C78.1471 264.602 79.8632 265.583 79.821 266.29C79.7657 267.217 76.9591 264.543 76.6794 264.263C75.7802 263.362 74.5786 261.883 73.4715 261.295C73.1541 261.127 73.1244 261.25 73.5722 261.251C74.1895 261.251 74.6549 261.346 75.2387 261.577C80.4008 263.615 85.1541 266.588 90.4126 268.413C96.0038 270.354 101.965 271.544 107.894 271.549C113.963 271.554 119.5 267.934 125.616 267.939C126.37 267.94 126.622 269.132 126.621 269.752C126.62 270.64 125.431 271.343 124.807 271.965C123.679 273.092 122.854 273.805 121.382 274.423C120.519 274.786 119.881 274.78 118.921 274.779C118.03 274.779 117.343 274.7 116.505 274.363C114.762 273.665 112.899 273.321 111.115 272.748C106.942 271.409 102.862 269.787 98.6791 268.476C96.4468 267.776 93.8411 267.107 91.4764 267.105C89.8675 267.104 85.7496 266.476 85.7474 269.013C85.7464 270.191 88.8724 271.317 89.7275 271.69C91.5982 272.506 93.5366 273.134 95.4081 273.954C102.942 277.258 111.213 276.988 119.277 276.995C122.803 276.998 125.924 276.742 129.122 275.191C130.855 274.35 132.739 273.724 134.583 273.182C136.146 272.722 138.156 272.525 139.573 271.676C140.491 271.126 140.615 269.864 140.918 268.959" stroke="white" stroke-width="15.8043" stroke-linecap="round"/>
<path d="M122.996 271.36C125.784 271.362 128.288 272.253 130.937 273.078C132.824 273.665 135.206 274.257 136.785 275.488C137.306 275.893 137.923 276.058 138.496 276.362C139.389 276.836 137.322 277.211 137.041 277.211C135.812 277.209 134.702 276.692 133.507 276.447C133.272 276.399 132.552 276.401 132.791 276.402C133.292 276.402 133.763 276.22 134.267 276.201C136.453 276.122 138.497 275.877 140.688 276.307C142.673 276.697 144.716 277.418 146.75 277.42C149.342 277.422 151.772 277.393 154.324 276.923C158.911 276.077 163.238 274.836 167.694 273.567C169.583 273.029 171.652 272.03 173.367 271.089C175.624 269.85 177.946 268.558 179.982 266.978C181.989 265.419 183.872 263.736 185.87 262.15C188.478 260.079 190.47 257.346 193.035 255.198C195.177 253.405 197.552 251.788 198.611 249.073C198.975 248.138 198.581 247.016 198.826 246.042C199.155 244.729 199.088 243.146 199.143 241.791C199.271 238.573 199.338 235.381 199.341 232.16C199.342 230.616 199.257 228.595 199.748 227.127" stroke="white" stroke-width="15.8043" stroke-linecap="round"/>
<path d="M199.749 227.127C199.746 229.952 199.945 232.742 199.943 235.584C199.942 236.928 199.538 238.177 199.537 239.51C199.536 240.284 199.781 240.297 200.543 240.215C201.77 240.084 202.565 238.569 203.051 237.6C203.404 236.895 203.053 235.946 203.266 235.184C203.568 234.098 203.625 233.015 203.816 231.918C203.997 230.885 204.085 229.796 204.166 228.753C204.21 228.189 204.367 227.044 204.134 226.526C203.253 224.564 199.77 224.782 198.061 225.224C196.323 225.673 195.167 227.662 194.109 228.934C191.966 231.512 189.978 234.237 187.827 236.793C184.086 241.239 180.092 245.618 175.769 249.501C174.482 250.658 173.308 252.102 171.695 252.831C169.533 253.809 167.196 254.387 164.88 254.873C162.255 255.423 159.656 255.916 157.06 256.589C155.411 257.016 153.413 257.427 152.203 258.699C151.66 259.27 151.396 260.448 151.396 261.204C151.395 262.212 152.079 262.84 153.095 263.006C154.772 263.282 156.5 262.896 158.151 262.642C158.902 262.526 159.026 262.354 159.292 262.687C159.596 263.068 160.052 263.135 160.5 263.136C162.41 263.137 163.77 262.011 165.557 261.339C168.351 260.289 171.319 259.746 174.106 258.673C176.134 257.892 177.984 256.522 179.769 255.31C181.526 254.118 183.185 252.744 184.873 251.455C186.541 250.182 187.782 249.299 189.038 247.589C190.174 246.039 190.993 244.162 191.782 242.412C192.084 241.744 192.448 240.813 191.482 240.812" stroke="white" stroke-width="15.8043" stroke-linecap="round"/>
<path d="M33.9341 68.3079C33.9306 72.5164 32.8038 76.8831 36.1032 79.8576C37.5803 81.1892 39.2292 80.5385 40.7866 81.2777C43.5656 82.597 45.9034 84.6045 48.6265 85.9688" stroke="white" stroke-width="15.8043" stroke-linecap="round"/>
<path d="M29.3269 211.01C34.2184 211.014 39.2504 210.635 44.1191 211.063C46.1537 211.241 50.0838 212.772 52.0961 211.591C55.8163 209.406 43.1499 184.852 39.8435 194.744C37.495 201.769 37.6344 212.381 41.2663 218.998C42.6571 221.531 44.0854 222.717 46.6339 223.853C49.0855 224.945 48.7985 223.973 48.8003 221.85" stroke="white" stroke-width="15.8043" stroke-linecap="round"/>
</g>
<defs>
<clipPath id="clip0_205_2812">
<rect width="215.14" height="287.365" fill="white" transform="translate(0.721436 0.62262) rotate(0.0480472)"/>
</clipPath>
</defs>
</svg>
