<svg width="136" height="180" viewBox="0 0 136 180" fill="none" xmlns="http://www.w3.org/2000/svg">
<g clip-path="url(#clip0_205_2104)">
<rect width="133.866" height="178.806" transform="translate(0.441406 1.14978) rotate(-0.397916)" fill="black"/>
<path d="M82.3194 80.2965C78.8254 102.818 84.4373 145.742 135.274 137.736" stroke="white" stroke-width="2.68687"/>
<path d="M81.085 81.6068C101.611 79.0914 140.85 86.9608 134.029 139.035" stroke="white" stroke-width="2.68687"/>
<path d="M135.42 121.321C114.164 118.08 73.9305 124.947 82.6125 178.817" stroke="white" stroke-width="2.68687"/>
<path d="M134.159 120.035C136.99 141.801 130.482 183.676 81.3615 177.52" stroke="white" stroke-width="2.68687"/>
<path d="M81.2108 179.016C84.6644 156.487 78.9755 113.575 28.1537 121.684" stroke="white" stroke-width="2.68687"/>
<path d="M82.4437 177.703C61.922 180.26 22.6697 172.47 29.3965 120.382" stroke="white" stroke-width="2.68687"/>
<path d="M28.042 138.098C49.304 141.296 89.5249 134.348 80.7462 80.495" stroke="white" stroke-width="2.68687"/>
<path d="M29.3037 139.381C26.4335 117.621 32.8671 75.732 81.9981 81.7888" stroke="white" stroke-width="2.68687"/>
<path d="M71.2326 1.30488C68.6254 19.5423 74.1827 54.0657 117.652 46.6333" stroke="white" stroke-width="2.68687"/>
<path d="M70.1942 2.38492C87.7583 -0.0374473 121.554 5.56041 116.605 47.7048" stroke="white" stroke-width="2.68687"/>
<path d="M117.491 33.9713C99.2013 31.7633 64.8076 38.0736 73.1881 81.3702" stroke="white" stroke-width="2.68687"/>
<path d="M116.387 32.9584C119.192 50.4654 114.334 84.3751 72.0916 80.3485" stroke="white" stroke-width="2.68687"/>
<path d="M71.9921 80.9746C74.5644 62.7322 68.9413 28.2196 25.4862 35.7349" stroke="white" stroke-width="2.68687"/>
<path d="M73.0236 79.8916C55.4641 82.3475 21.6581 76.8141 26.5264 34.6604" stroke="white" stroke-width="2.68687"/>
<path d="M25.6759 48.9781C43.9701 51.1512 78.3517 44.7753 69.8887 1.49473" stroke="white" stroke-width="2.68687"/>
<path d="M26.7821 49.9896C23.9431 32.488 28.7365 -1.4309 70.9866 2.51512" stroke="white" stroke-width="2.68687"/>
<path d="M13.1294 92.0424C24.1216 85.0108 40.0793 66.0693 15.9961 46.1777" stroke="white" stroke-width="2.68687"/>
<path d="M14.1829 92.0974C4.7635 83.7916 -7.85513 63.0678 17.0489 46.2413" stroke="white" stroke-width="2.68687"/>
<path d="M13.0078 48.7007C24 41.6691 39.9577 22.7277 15.8745 2.83599" stroke="white" stroke-width="2.68687"/>
<path d="M14.0627 48.7576C4.64338 40.4517 -7.97525 19.728 16.9288 2.90147" stroke="white" stroke-width="2.68687"/>
<path d="M14.7422 177.132C25.7344 170.1 41.6921 151.159 17.6089 131.267" stroke="white" stroke-width="2.68687"/>
<path d="M15.7961 177.189C6.37678 168.883 -6.24185 148.159 18.6622 131.332" stroke="white" stroke-width="2.68687"/>
<path d="M14.6187 133.791C25.6109 126.76 41.5685 107.818 17.4853 87.9268" stroke="white" stroke-width="2.68687"/>
<path d="M15.6726 133.849C6.25325 125.543 -6.36538 104.819 18.5387 87.9927" stroke="white" stroke-width="2.68687"/>
<path d="M61.5959 97.8287C61.6272 102.336 58.7049 106.123 56.4597 109.87C53.039 115.578 48.9139 120.844 44.5508 125.858C42.2099 128.549 40.4388 131.057 37.3207 132.839C36.61 133.245 33.9272 134.828 33.9171 133.385C33.9063 131.83 34.2405 130.363 34.7267 128.87C35.1593 127.541 34.9091 125.894 34.8993 124.49C34.8725 120.624 34.8623 116.903 36.0678 113.201C36.5675 111.667 37.498 110.216 37.9214 108.694C38.1906 107.726 38.8993 106.753 39.308 105.828C39.6973 104.946 39.8934 104.001 40.4787 103.21C42.9505 99.8658 45.5707 96.7924 48.402 93.73C49.815 92.2017 51.9381 90.7355 53.6506 89.5323C55.32 88.3593 56.6178 87.4046 58.5892 86.6271C60.9912 85.6798 63.4735 85.6509 65.944 85.0681C68.2659 84.5204 70.5843 84.4559 72.9863 84.4392" stroke="white" stroke-width="9.83388" stroke-linecap="round"/>
<path d="M77.1808 87.02C77.1918 88.6051 77.2028 90.1903 77.2139 91.7755C77.2279 93.7912 75.9646 96.4562 75.113 98.2568C74.0949 100.409 73.5753 102.81 72.7387 105.044C72.4652 105.775 72.0865 106.458 71.7093 107.14C71.5243 107.474 71.1868 108.448 71.0634 108.086C70.3246 105.92 73.6548 93.5691 70.0638 93.5941C68.6118 93.6042 67.6282 94.6037 66.6415 95.6043C62.9864 99.3104 59.1725 102.831 56.5594 107.404C56.3049 107.85 53.852 111.836 55.2117 111.691C58.2026 111.371 60.8554 107.8 61.2698 105.052C61.7532 101.846 62.3596 94.9301 57.4029 95.2479C56.64 95.2969 55.0069 97.0363 54.2722 97.5026C51.6401 99.1732 49.3904 102.795 48.3989 105.692C48.2134 106.234 47.735 107.243 47.8339 107.842C48.018 108.958 51.1315 105.94 51.2992 105.759C54.3757 102.44 56.0303 98.1221 59.0815 94.7723C60.3355 93.3956 61.7478 92.1563 63.056 90.8299C63.4898 90.39 63.9581 89.7201 64.5399 89.4566C65.7912 88.8901 65.5676 89.3119 64.5588 90.0945C62.4571 91.7249 60.4342 93.3892 58.6945 95.413C55.876 98.6916 53.1056 102.404 50.6919 105.995C48.3364 109.5 45.7266 112.831 43.3545 116.326C41.7437 118.699 40.9514 121.385 39.5936 123.877C39.1329 124.723 36.2012 129.727 38.33 129.831C38.9758 129.862 38.3257 132.905 38.8774 133.481C40.9586 135.654 43.0215 133.633 45.4597 133.435C46.8952 133.319 48.6985 132.364 49.8836 131.577C51.4259 130.554 53.1245 129.911 54.708 128.934C55.5633 128.407 59.5831 126.675 57.171 128.656C55.9938 129.623 54.8013 130.15 53.4892 130.9C53.2497 131.037 51.8957 131.794 52.4372 131.821C53.7911 131.886 55.5359 130.481 56.5694 129.719C57.4656 129.057 58.3229 128.44 59.2533 127.859C60.1441 127.302 61.6936 126.661 62.2545 125.75C63.7525 123.316 67.2786 122.641 68.5941 119.964C69.8626 117.382 71.7475 115.275 72.9799 112.626C73.6377 111.212 73.7435 109.095 74.6577 107.858C75.6455 106.522 76.1726 104.407 76.5657 102.828C76.9853 101.143 77.0073 99.6078 76.9953 97.8812C76.985 96.4063 76.8591 96.7563 75.9503 97.729C74.7492 99.0145 73.7159 100.68 72.835 102.202C71.0594 105.269 68.5489 107.959 66.2966 110.671C62.0768 115.754 58.4959 121.241 52.97 125.031C51.9027 125.763 49.913 126.645 49.1461 127.682C48.5696 128.462 47.98 128.892 47.9716 127.676" stroke="white" stroke-width="9.83388" stroke-linecap="round"/>
<path d="M75.345 85.7282C75.3706 89.4207 74.7088 78.2808 75.384 74.6505C75.7376 72.7496 76.6281 71.1264 77.9306 69.7175C80.2071 67.2553 82.5677 64.9191 84.6939 62.3194C88.4256 57.7568 93.1554 54.6264 95.8252 49.1927C98.4614 43.8276 100.27 38.0298 100.288 31.9946C100.302 26.843 95.8334 22.8194 91.0785 21.271C89.4529 20.7417 87.5413 20.1849 85.8638 19.9008C84.1581 19.612 82.7269 18.8264 81.0828 18.3536C78.7865 17.6933 76.481 17.3024 74.1419 16.8939C71.8918 16.5009 68.4324 16.4955 66.1967 16.9491C57.2505 18.764 49.9017 28.0056 48.8483 36.7886C48.2892 41.4505 48.8002 46.2907 50.2503 50.7562C51.5693 54.8181 53.8502 59.699 57.176 62.5685C61.1088 65.9618 65.5115 68.8323 70.7906 68.7957" stroke="white" stroke-width="9.83388" stroke-linecap="round"/>
<path d="M75.4236 97.2107C78.0877 97.1922 80.73 97.1333 83.3717 97.5615C87.0879 98.1639 90.1684 99.8137 93.3471 101.726C99.7832 105.598 103.769 112.982 107.302 119.333C110.442 124.978 111.999 131.175 112.228 137.611C112.428 143.245 111.316 147.845 106.946 151.654C102.42 155.599 96.9748 158.093 91.2862 159.883C87.3391 161.124 81.9793 162.595 77.8438 161.759C74.5989 161.104 71.453 158.628 68.9635 156.616C64.4671 152.981 60.1703 149.076 56.4833 144.61C53.6533 141.182 51.4888 137.91 50.8816 133.455C50.569 131.163 50.2315 128.633 49.0072 126.625" stroke="white" stroke-width="9.83388" stroke-linecap="round"/>
<path d="M15.1053 168.097C15.0719 163.284 14.9091 158.421 16.1075 153.735C16.4087 152.558 16.7893 151.364 16.8075 150.135C16.8204 149.265 16.6065 148.164 16.9185 147.335C17.3018 146.318 17.8865 143.064 16.7545 142.508" stroke="white" stroke-width="9.83388" stroke-linecap="round"/>
<path d="M14.6572 103.375L14.7877 122.165" stroke="white" stroke-width="9.83388" stroke-linecap="round"/>
<path d="M11.8859 80.1656C12.3165 79.838 12.1338 78.6587 12.1336 78.25C12.1323 76.1333 12.1042 74.0163 12.0895 71.8996C12.0693 68.9999 12.0492 66.1002 12.029 63.2005" stroke="white" stroke-width="9.83388" stroke-linecap="round"/>
<path d="M13.0068 16.2164L13.1246 33.1798" stroke="white" stroke-width="9.83388" stroke-linecap="round"/>
<path d="M10.8059 69.79C10.6248 69.7511 8.73368 66.6295 8.74307 67.9818C8.75017 69.0035 9.21153 69.8298 9.21766 70.7123C9.22633 71.9609 9.12881 73.2077 9.64794 74.3542C10.0768 75.3015 9.57637 76.6534 10.1763 77.5399" stroke="white" stroke-width="9.83388" stroke-linecap="round"/>
<path d="M7.211 72.6511C7.20724 72.1101 6.85572 71.778 6.60732 71.3381C6.43173 71.0272 6.56508 70.9674 6.66159 70.5923C6.79817 70.0614 6.92714 69.4134 6.93774 68.8661C6.94815 68.3286 7.06458 67.7466 7.23742 67.2358C7.3013 67.0471 7.40849 66.8529 7.50337 66.676C8.52416 64.7732 9.22013 62.7164 10.0093 60.6946" stroke="white" stroke-width="9.83388" stroke-linecap="round"/>
<path d="M14.3694 60.3351C14.3655 59.7821 14.4701 59.0659 14.3156 58.5244C14.1095 57.8016 13.9625 58.0751 13.3647 57.9135C13.1308 57.8503 12.8821 57.8757 12.6418 57.8774C12.4892 57.8784 12.0838 57.977 12.1843 57.8623C12.6665 57.3122 13.4342 56.8967 13.7828 56.223C14.1628 55.4886 15.0669 55.1823 15.481 54.4458C15.5979 54.2378 15.8078 54.0805 15.806 53.8215C15.8047 53.6303 15.9552 53.1565 15.8008 53.0806" stroke="white" stroke-width="9.83388" stroke-linecap="round"/>
<path d="M17.4554 54.3041C17.4606 55.0592 17.9514 55.8867 18.3124 56.5392C18.8112 57.4407 19.2397 58.347 19.3658 59.3767C19.5341 60.7515 19.6501 62.1238 19.6597 63.5091C19.6677 64.6497 19.7224 65.7951 19.5463 66.9264C19.2062 69.111 18.4713 71.1038 17.5034 73.0738" stroke="white" stroke-width="9.83388" stroke-linecap="round"/>
<path d="M19.7033 57.7459C19.7028 57.6746 19.7014 58.1093 19.711 58.2032C19.7555 58.6386 20.1337 59.1919 20.3016 59.6032C20.718 60.6236 21.0967 61.6171 21.2608 62.7111C21.4151 63.7407 21.481 64.7875 21.4882 65.8287C21.4953 66.8473 21.6111 67.9349 21.4916 68.9479C21.4295 69.4746 21.334 69.9961 21.2738 70.5227C21.2515 70.7186 21.0139 71.1663 21.1241 71.3562C21.3694 71.7785 22.3838 69.7965 22.4147 69.4995C22.5143 68.5427 22.6796 67.5925 22.7927 66.6338C22.9035 65.6949 22.7328 64.7483 22.7091 63.817C22.7018 63.5307 22.7051 63.2437 22.7031 62.9572C22.702 62.7893 22.4471 63.5815 22.4201 63.6956C22.2297 64.5029 22.2252 65.2653 22.231 66.0934C22.2388 67.215 22.1952 68.3303 22.1674 69.4509C22.1362 70.7098 21.9281 71.9325 21.5389 73.1278C21.4147 73.5093 21.2365 73.8467 21.0524 74.2014C20.9577 74.3839 20.7282 74.9306 20.7268 74.7251C20.7229 74.1693 21.1225 73.4943 21.2863 72.9741C21.5948 71.9944 21.586 70.9646 21.7272 69.9525C21.9237 68.5452 22.3208 67.1787 22.311 65.7544C22.3069 65.172 22.3711 64.5755 22.4817 64.0016C22.5249 63.7774 22.684 62.8612 22.4547 62.7486" stroke="white" stroke-width="9.83388" stroke-linecap="round"/>
<path d="M14.7879 73.0103C14.8036 75.2724 15.104 77.7429 14.5435 79.9684C14.4158 80.4754 14.2388 80.7693 13.9341 81.1298C13.7328 81.368 13.4608 81.5802 13.2851 81.8478C12.9435 82.3679 12.9 82.9013 13.0495 83.4822C13.123 83.7678 13.2254 84.0575 13.307 84.3357C13.3434 84.4599 13.3879 84.7974 13.3879 84.7924" stroke="white" stroke-width="9.83388" stroke-linecap="round"/>
<path d="M21.6192 72.8809C21.6232 73.4678 21.6273 74.0547 21.6314 74.6417C21.639 75.7377 21.3766 76.7396 20.912 77.7384C20.5592 78.4967 20.3858 79.3871 19.8624 80.0508C19.5735 80.417 19.2699 80.5698 18.9166 80.8486C18.0057 81.5673 17.0613 82.7915 15.843 82.8" stroke="white" stroke-width="9.83388" stroke-linecap="round"/>
<path d="M14.6216 84.7013L14.6244 85.1129" stroke="white" stroke-width="9.83388" stroke-linecap="round"/>
<path d="M14.0874 101.563C14.1075 101.561 14.6349 99.6868 14.6333 99.4573" stroke="white" stroke-width="9.83388" stroke-linecap="round"/>
<path d="M14.9283 99.5143C15.0292 99.073 15.2355 98.745 15.4127 98.3439C15.4883 98.1728 15.5915 98.0083 15.6286 97.8231C15.6914 97.5095 15.8815 97.2433 16.008 96.9532C16.1192 96.6983 16.4363 96.4326 16.64 96.2261C16.7605 96.1039 17.0468 95.583 17.0679 95.4041C17.0919 95.2002 17.2578 95.0063 17.2562 94.7765" stroke="white" stroke-width="9.83388" stroke-linecap="round"/>
<path d="M16.2398 102.759C15.4294 102.765 14.9515 102.926 14.1861 103.232C13.8557 103.363 13.3875 103.756 13.1265 103.356C12.6415 102.613 12.6138 101.503 13.1779 100.787C13.3944 100.513 12.7021 101.311 12.5443 101.623C12.3538 102 12.176 102.327 11.912 102.656C11.4346 103.25 11.1356 103.879 10.7741 104.545C9.68099 106.559 8.79973 108.766 8.81581 111.081C8.83044 113.187 9.42953 115.072 10.4389 116.905C11.2051 118.296 12.0706 119.703 12.627 121.201C13.1344 122.567 13.873 123.818 14.3335 125.217C14.4555 125.588 14.5788 125.884 14.772 126.216C14.8765 126.396 15.062 126.528 15.0635 126.747" stroke="white" stroke-width="9.83388" stroke-linecap="round"/>
<path d="M15.3508 126.745C15.4516 126.732 16.0935 125.444 16.1827 125.301C16.7271 124.426 17.3171 123.592 17.9129 122.752C18.4983 121.927 18.9529 120.911 19.4072 120.003C19.9649 118.888 20.5904 117.64 20.741 116.391C20.9684 114.506 20.9916 112.638 21.1388 110.745C21.3088 108.557 21.2985 106.183 20.9481 104.016C20.8167 103.203 20.8974 102.377 20.6914 101.577C20.56 101.066 20.4712 100.55 20.3397 100.039C20.2068 99.5234 20.0481 98.704 19.5664 98.4196" stroke="white" stroke-width="9.83388" stroke-linecap="round"/>
<path d="M19.3716 97.9413C19.3765 98.6539 19.9183 98.9941 20.3471 99.5225C20.6295 99.8705 20.9594 100.166 21.2121 100.54C21.4035 100.823 21.7931 101.285 21.8484 101.622C22.0108 102.612 21.9092 105.294 21.8982 105.725C21.7844 110.197 21.583 114.229 21.4344 118.742" stroke="white" stroke-width="9.83388" stroke-linecap="round"/>
<path d="M20.3224 124.313C20.4357 124.411 20.5096 123.639 20.5082 123.448" stroke="white" stroke-width="9.83388" stroke-linecap="round"/>
<path d="M23.6235 102.42C23.6293 103.266 24.1319 103.798 24.5014 104.524C24.8828 105.274 24.9912 105.999 24.9969 106.823C25.0023 107.592 25.0076 108.361 25.013 109.13C25.0174 109.778 25.1768 110.676 25.0068 111.309C24.7984 112.086 24.7977 113.093 24.4218 113.781C24.2543 114.087 24.2675 114.459 24.0501 114.743C23.8237 115.038 23.9859 115.64 23.5209 115.274" stroke="white" stroke-width="9.83388" stroke-linecap="round"/>
<path d="M16.1296 142.647C15.8801 142.677 15.6147 143.064 15.429 143.218C14.7848 143.75 14.1299 144.37 13.6055 145.02C12.7847 146.038 12.2468 147.075 11.7665 148.278C11.4287 149.124 11.1334 149.965 10.8585 150.835C10.5343 151.861 10.1837 152.891 10.1912 153.982C10.2009 155.367 10.1983 156.757 10.7749 158.051C11.0938 158.766 11.2238 159.531 11.4846 160.268C11.8875 161.406 12.3008 162.511 12.8499 163.591" stroke="white" stroke-width="9.83388" stroke-linecap="round"/>
<path d="M18.136 138.374C18.1233 138.482 17.7038 138.679 17.6038 138.748C17.0822 139.107 16.4909 139.336 15.9749 139.685C15.2815 140.154 14.6308 140.63 14.362 141.455" stroke="white" stroke-width="9.83388" stroke-linecap="round"/>
<path d="M17.7395 137.183L17.7393 137.15" stroke="white" stroke-width="9.83388" stroke-linecap="round"/>
<path d="M15.3842 131.68C15.3836 131.589 15.2425 131.178 15.2441 131.405" stroke="white" stroke-width="4.21452" stroke-linecap="round"/>
<path d="M12.0712 143.113C11.9589 143.016 11.8767 143.417 11.8773 143.507" stroke="white" stroke-width="9.83388" stroke-linecap="round"/>
<path d="M10.521 146.334C10.5261 147.077 10.4517 147.756 10.354 148.497C10.2836 149.032 10.2153 149.494 10.2191 150.042C10.2248 150.859 10.292 151.644 10.3669 152.458C10.4585 153.452 10.7045 154.429 10.7952 155.425C10.9042 156.622 10.7959 157.828 10.9039 159.024C10.9628 159.675 11.0112 160.324 11.0158 160.978C11.0176 161.239 11.0361 161.506 10.89 161.729" stroke="white" stroke-width="9.83388" stroke-linecap="round"/>
<path d="M10.9722 164.284L11.0365 164.284" stroke="white" stroke-width="9.83388" stroke-linecap="round"/>
<path d="M20.2324 138.928C20.2457 140.842 21.6777 142.492 22.0719 144.353C22.3592 145.71 22.3852 147.004 22.3948 148.388C22.3998 149.11 22.3684 149.766 22.2492 150.478C22.1272 151.207 22.022 151.937 21.8785 152.661C21.816 152.977 21.5941 153.912 21.6229 153.591C21.7775 151.869 22.274 150.101 22.5915 148.412" stroke="white" stroke-width="9.83388" stroke-linecap="round"/>
<path d="M23.2886 145.197C23.3084 145.365 23.4792 145.572 23.5543 145.719C23.7415 146.087 23.9351 146.443 24.1478 146.796C24.5073 147.393 24.6292 148.172 24.6244 148.857C24.6193 149.594 24.2149 150.153 24.0121 150.834C23.788 151.586 23.666 152.366 23.6714 153.151C23.6816 154.619 23.3469 156.078 22.4406 157.273C21.0729 159.077 20.3201 161.238 19.0886 163.113" stroke="white" stroke-width="9.83388" stroke-linecap="round"/>
<path d="M23.7158 150.042C23.7203 150.685 24.0211 151.271 24.0564 151.904C24.0923 152.549 24.1093 153.282 24.2995 153.901C24.4228 154.301 24.4806 154.665 24.4716 155.082C24.4623 155.509 24.0419 156.019 23.8216 156.368C23.1475 157.438 22.8286 158.602 22.3929 159.778C21.9332 161.019 21.2643 162.059 20.201 162.844" stroke="white" stroke-width="9.83388" stroke-linecap="round"/>
<path d="M23.2508 158.629C23.26 159.956 23.3175 161.342 22.3303 162.363C21.7691 162.943 21.1341 163.413 20.5395 163.955C20.2369 164.231 19.9086 164.425 19.6386 164.748C19.4252 165.003 19.2037 165.24 18.9702 165.477C18.6242 165.828 18.396 166.232 18.1302 166.644C17.9022 166.997 17.606 167.295 17.3837 167.646C17.1938 167.946 16.879 168.125 16.6352 168.372C16.3864 168.625 16.246 168.769 15.9159 168.574" stroke="white" stroke-width="9.83388" stroke-linecap="round"/>
<path d="M16.3681 167.653C16.372 168.223 16.4665 168.928 16.3187 169.459C16.268 169.641 16.1091 169.81 16.0603 169.985C16.0052 170.183 15.9432 170.501 15.7315 170.344" stroke="white" stroke-width="9.83388" stroke-linecap="round"/>
<path d="M16.374 14.6744C16.3796 15.4814 16.3916 16.1726 16.0649 16.9373C15.7188 17.7475 15.3157 18.7757 14.5608 19.2474C13.8964 19.6627 13.2058 19.5353 12.5978 19.0792C11.9048 18.5593 11.5512 17.5227 10.7784 17.1429C10.4612 16.9871 10.2036 17.4764 9.96348 17.6683C9.21671 18.2651 8.52885 19.2226 7.92663 19.9691C7.24763 20.8109 6.85898 21.8874 6.70006 22.9529C6.54528 23.9908 6.43877 25.4337 6.75023 26.4346C7.32695 28.288 7.97874 30.1465 8.45218 32.0356C8.89252 33.7926 9.72066 35.4634 10.6566 37.0224C11.0978 37.7573 11.3164 38.6696 11.609 39.4714C11.7399 39.8299 11.8164 40.3081 12.0844 40.5725C12.3325 40.8171 12.7811 40.9434 12.9596 41.242C13.0812 41.4455 13.3151 41.469 13.4561 41.6478C13.4952 41.6973 13.6403 41.9752 13.6392 41.8219" stroke="white" stroke-width="9.83388" stroke-linecap="round"/>
<path d="M17.1733 12.0964C17.1744 12.2578 17.1836 11.9352 17.1458 11.8887C17.0449 11.7643 16.9138 11.6757 16.8186 11.5401C16.6787 11.341 16.3997 10.7476 16.6034 10.4892C16.7916 10.2506 16.9466 10.2204 16.924 9.87636C16.8957 9.44626 16.3943 10.0525 16.3411 10.1403C15.8029 11.0286 15.3301 11.7382 14.6036 12.517C13.8991 13.2723 13.3469 14.1893 12.6326 14.9343C12.4739 15.0998 12.0148 15.7958 11.9359 15.6407" stroke="white" stroke-width="9.83388" stroke-linecap="round"/>
<path d="M16.2578 14.9092C16.4285 15.6727 16.9404 16.333 17.4023 16.9476C18.1963 18.004 19.0576 15.7334 19.4173 15.238" stroke="white" stroke-width="9.83388" stroke-linecap="round"/>
<path d="M18.9434 14.4229C18.9561 16.2632 19.6121 17.7368 20.1477 19.4686C20.612 20.9694 20.7211 22.6056 20.6221 24.1686C20.4368 27.0954 18.5397 29.1916 17.0617 31.5796C16.3549 32.7216 15.6909 34.1091 15.4579 35.4431C15.3033 36.3282 14.9718 37.1302 15.0148 38.0447C15.0491 38.7765 17.4043 37.2026 17.6978 37.1165C18.0712 37.007 18.2785 36.5512 18.4517 36.2343C18.7464 35.6951 19.0644 35.1783 19.3827 34.6492C20.5591 32.6938 22.0611 30.7678 22.3408 28.4312C22.7778 24.7801 22.9759 19.7933 20.1305 16.9871" stroke="white" stroke-width="9.83388" stroke-linecap="round"/>
<path d="M14.5278 35.2671C14.8183 35.5894 14.6192 36.3825 14.6618 36.7798C14.6939 37.0797 14.8932 37.3677 14.8953 37.6617C14.8966 37.853 14.8611 38.0748 14.9578 38.2459C15.1214 38.5356 15.1703 38.9594 15.3997 39.2108C15.5096 39.3311 16.0002 39.836 15.728 39.7022" stroke="white" stroke-width="9.83388" stroke-linecap="round"/>
<path d="M45.4543 30.4382C45.339 31.7447 44.4886 32.9567 43.9637 34.125C43.1224 35.9979 42.5793 37.8924 41.9521 39.837C41.736 40.5072 41.504 41.3514 41.1643 41.9731C41.099 42.0925 40.847 39.9191 40.7704 39.4786C40.3635 37.1375 39.9242 34.9139 38.9498 32.7428C38.5684 31.893 38.2333 31.1313 37.4385 30.593C37.0589 30.3359 36.76 30.3202 36.3169 30.3233C35.5773 30.3285 34.7877 29.9018 34.1316 29.5854C33.7799 29.4157 32.2405 28.3879 32.2455 29.103C32.2477 29.4211 32.3877 29.6308 32.5187 29.9137C32.8664 30.6649 32.6218 31.9291 32.6274 32.7272C32.6373 34.1578 32.6352 35.5382 32.4882 36.9497C32.3762 38.0265 32.0371 39.1405 31.9658 40.2037C31.9125 40.9983 31.4691 41.8633 31.2295 42.6267C30.9171 43.6222 31.1061 44.8357 31.1134 45.8779C31.1294 48.1841 31.1771 50.3532 31.6556 52.6126C31.8605 53.5799 32.233 54.6901 32.8252 55.4981C33.6264 56.5915 33.95 57.8221 34.4948 59.0441C35.0745 60.3445 35.6821 61.5771 36.305 62.8566C36.9413 64.1637 38.4192 65.4829 39.4618 66.5111" stroke="white" stroke-width="9.83388" stroke-linecap="round"/>
<path d="M40.3503 40.4623C40.368 43.0117 40.2833 45.5877 40.4432 48.1317C40.7649 53.2521 44.1354 57.057 46.9347 61.088C47.5664 61.9976 48.2319 62.833 49.0627 63.5704C49.4031 63.8725 50.0692 64.0651 50.2879 64.4736C50.5622 64.9861 49.2368 64.8163 49.0609 64.7298C45.9231 63.1881 36.5911 58.5282 39.4394 60.5554C40.4311 61.2611 41.2031 62.2924 42.0143 63.1833C44.2331 65.62 46.7033 67.8003 49.4516 69.6225C51.3645 70.8908 53.8175 73.1893 56.2742 73.1723" stroke="white" stroke-width="9.83388" stroke-linecap="round"/>
<path d="M42.2929 63.2814C42.2994 64.2131 41.9689 65.9065 42.6338 66.7077C43.0743 67.2385 43.5604 68.3189 44.114 68.6595C44.3805 68.8236 44.4423 69.1979 44.7429 69.329C44.9611 69.4242 45.3387 69.586 45.5087 69.7201C46.0675 70.1608 46.5949 70.8086 47.2524 71.0953C48.891 71.81 50.8411 72.7139 52.6653 72.8415C53.5063 72.9003 54.5426 73.1372 55.3838 73.3181C56.8658 73.6366 58.6826 73.3348 60.1999 73.3242C60.6511 73.3211 61.4714 73.254 60.7902 72.7057C59.0009 71.2657 57.2946 69.7765 55.5471 68.2928C55.3732 68.1451 52.177 65.4211 52.9322 67.0524C53.5297 68.343 53.6622 69.711 54.7418 70.7757C56.0069 72.0234 57.0025 72.9312 58.5971 73.6921C60.7448 74.7169 62.8993 75.7822 65.3019 75.9743C68.6864 76.2449 71.9989 76.3069 75.0128 74.47" stroke="white" stroke-width="9.83388" stroke-linecap="round"/>
<path d="M78.7226 69.271C78.7144 68.0905 78.5887 66.8554 78.8365 65.7027C79.0275 64.8142 79.3156 64.1468 79.5729 63.2896C79.7064 62.8447 79.9809 62.2667 80.1972 61.8582C80.4073 61.4614 80.7802 60.1961 80.7833 60.6452C80.7865 61.1025 79.8686 62.2739 79.5686 62.6653C79.1829 63.1683 78.9369 63.8205 78.5095 64.278C78.2198 64.5881 77.2098 65.1768 76.769 64.7856C75.873 63.9904 77.2559 63.0948 77.6157 62.5698C78.6925 60.9987 79.1341 58.95 79.8875 57.2227C80.2818 56.3187 81.1823 55.4257 81.7324 54.6136C82.4155 53.6051 82.9904 52.6139 83.8131 51.7154C86.3197 48.9781 89.3374 46.7225 92.0949 44.2059C92.5897 43.7544 93.0539 43.3809 93.6029 43.0261C93.9026 42.8324 94.0417 42.4205 94.3109 42.2383C95.2154 41.6262 92.3561 43.2746 91.5685 44.0312C91.0649 44.5149 90.4027 45.0145 89.9737 45.5584C89.8712 45.6884 89.5057 45.8237 89.3421 45.9295C88.9664 46.1722 88.6004 46.4289 88.2375 46.6903C86.8405 47.6964 87.2353 46.5587 87.118 45.3107" stroke="white" stroke-width="9.83388" stroke-linecap="round"/>
<path d="M78.1151 58.9297C78.1105 58.2685 78.148 57.6052 78.0221 56.9584C77.8334 55.9894 78.9993 54.374 79.415 53.4803C80.1975 51.7983 81.9088 50.5924 83.1814 49.3021C84.5622 47.9019 86.1468 46.1648 87.8401 45.1969C88.7431 44.6806 89.5772 43.9957 90.494 43.5037C91.0538 43.2033 91.9161 42.8033 91.911 42.0669" stroke="white" stroke-width="9.83388" stroke-linecap="round"/>
<path d="M76.0533 18.9885C74.5935 19.3643 79.7604 28.1074 80.5419 28.9066C81.6845 30.0752 82.4482 31.4672 83.7479 32.5112C85.4544 33.8821 86.8402 35.6281 88.4669 37.0864C89.0938 37.6485 90.279 38.6394 91.1734 38.6829C92.6587 38.7551 92.0716 35.8763 92.0291 34.9113C91.9184 32.3949 91.4959 29.6427 90.5196 27.3112C89.9082 25.851 88.7852 23.4366 87.4144 22.5167C86.6587 22.0096 85.7926 21.7195 85.0272 21.2451C84.7588 21.0786 84.3987 21.1432 84.2717 20.8936" stroke="white" stroke-width="9.83388" stroke-linecap="round"/>
<path d="M64.4617 19.2471C64.4777 21.5613 63.5153 23.2579 62.3726 25.2172C61.8535 26.1071 61.1052 26.8853 60.4274 27.6586C59.6262 28.5727 59.0862 29.6888 58.2576 30.5673C56.4396 32.4946 54.8759 34.7125 53.1572 36.7169C52.73 37.2152 52.1865 37.586 51.7894 38.1038C51.6455 38.2916 52.9641 37.8556 53.0755 37.7877C54.3865 36.9887 54.7796 35.6307 55.7884 34.6077C57.5901 32.7808 59.5306 31.1069 61.3205 29.2578C62.8951 27.631 64.655 25.4701 65.0239 23.1575C65.1707 22.2375 65.5106 21.3887 65.5402 20.4485C65.545 20.2977 65.7147 19.8802 65.7157 20.0311C65.7184 20.4193 65.3574 20.9637 65.1894 21.2933C63.9702 23.6851 62.3683 25.8591 61.175 28.2876C60.4068 29.8512 59.7193 31.4206 58.7491 32.853C58.0576 33.8739 57.289 34.6538 56.4687 35.5345C56.1126 35.9168 55.6608 36.1058 55.3161 36.5136C54.7803 37.1476 56.6294 35.4969 57.2575 34.9543C58.4107 33.9579 64.6021 26.1454 63.0756 25.143" stroke="white" stroke-width="9.83388" stroke-linecap="round"/>
<path d="M50.8465 36.4658C50.8547 37.648 50.849 38.8312 50.8712 40.0132C50.907 41.9266 51.7496 44.0162 52.6349 45.699C53.6494 47.6275 54.2008 49.6869 55.4104 51.5165C56.6188 53.3444 57.7531 55.2741 59.5482 56.6011C59.8915 56.8549 60.8073 58.1044 60.8009 57.187C60.7864 55.0951 59.6792 53.1081 58.6988 51.2954C57.9886 49.9824 57.0979 48.7881 56.3832 47.4864C55.7181 46.2749 55.367 44.9575 54.6529 43.7625C54.1731 42.9596 53.3862 41.8257 53.1962 40.9088" stroke="white" stroke-width="9.83388" stroke-linecap="round"/>
<path d="M54.6547 45.5363C54.7419 46.2745 55.5214 46.7872 55.9159 47.3509C56.5744 48.2917 57.2688 49.258 57.7597 50.2911C59.054 53.0151 60.8388 55.5596 62.2444 58.2372C63.1127 59.8911 63.863 62.9875 65.6627 63.8718C66.9087 64.484 65.6675 61.8493 65.5572 61.5141C64.8684 59.4213 64.8673 57.0057 63.6398 55.106C62.5742 53.457 62.0222 51.6318 60.751 50.092C60.2283 49.4588 59.7764 48.8255 59.2711 48.1798C58.6702 47.412 57.779 46.872 57.2447 46.0534C56.7375 45.2764 55.6117 45.0224 55.3595 44.2828" stroke="white" stroke-width="9.83388" stroke-linecap="round"/>
<path d="M42.4301 31.7087C42.4054 28.152 43.5926 25.1646 45.6146 22.2328C46.4512 21.0198 47.3748 18.912 48.7976 18.2469C53.0996 16.2359 57.7128 15.2029 62.2439 13.8131C67.032 12.3444 71.4872 10.6373 76.5311 10.6022C78.4637 10.5888 80.253 10.6883 82.1626 11.019C83.625 11.2722 85.1529 11.5829 86.5209 12.168C87.0979 12.4147 88.3835 12.8713 88.7787 13.3711C90.1186 15.0655 91.8688 19.6156 92.3382 20.7786C96.0136 29.885 97.6789 34.9471 101.382 44.4988" stroke="white" stroke-width="9.83388" stroke-linecap="round"/>
<path d="M87.2574 14.0945C89.1065 14.0816 90.5316 14.2673 92.2578 14.9516C94.224 15.7311 95.8515 16.9974 97.6211 18.1251C101.433 20.5545 102.406 25.9058 103.065 29.9986C103.876 35.0368 104.383 40.0196 104.418 45.1211C104.45 49.622 101.979 53.9927 98.7037 56.9929C95.7307 59.7158 92.6744 62.2718 89.2121 64.382C87.5195 65.4136 85.8483 66.4554 84.1599 67.4891C82.6683 68.4023 81.1652 69.5656 79.5512 70.2363C78.5565 70.6496 76.6326 71.2522 76.1073 72.3214C75.644 73.2642 77.3127 74.2751 78.0433 74.2701" stroke="white" stroke-width="9.83388" stroke-linecap="round"/>
<path d="M78.2203 74.0906C79.7067 74.0803 81.193 74.0699 82.6794 74.0596C83.7406 74.0523 81.0456 75.3973 80.6381 75.4909C79.3747 75.7808 80.5082 75.4975 81.1912 75.2294C83.3495 74.382 85.9272 75.5513 88.0343 74.5972C88.7829 74.2582 89.5656 73.9027 90.3558 73.5505C91.5161 73.0332 92.8963 72.7703 93.9826 72.1082C94.9812 71.4996 95.9705 71.0649 96.9634 70.393C97.8819 69.7714 98.8128 69.0167 99.5942 68.2243C102.22 65.5616 105.597 63.4524 107.735 60.3689C108.04 59.9282 108.579 59.6397 108.757 59.1132C109.038 58.2819 107.986 59.1189 107.816 59.2684C106.673 60.2766 105.561 61.8461 104.722 63.1249C103.472 65.028 102.642 67.0497 101.054 68.7196C100.775 69.0137 100.409 69.3984 100.219 69.7461C99.7506 70.6034 99.9476 69.1699 99.9448 68.7669" stroke="white" stroke-width="9.83388" stroke-linecap="round"/>
<path d="M107.914 60.5065C107.9 58.6027 107.798 56.7428 108.231 54.8756C108.73 52.7267 109.368 50.6131 109.871 48.4626C110.253 46.8309 110.258 45.2071 110.482 43.5631C110.564 42.9561 110.671 43.574 110.613 43.8991C110.497 44.5493 110.176 45.1419 110.061 45.7957C109.913 46.6345 109.972 47.496 109.97 48.3431C109.965 50.4644 109.729 52.7075 108.765 54.6143C108.705 54.7321 108.03 55.5392 108.434 55.4787C109.265 55.3541 110.04 53.1274 110.335 52.4926C111.461 50.0732 111.626 47.2162 111.549 44.5664C111.514 43.3724 110.997 42.2 110.989 41.0029C110.977 39.3199 110.465 37.7856 110.242 36.1425C109.967 34.1229 108.849 32.1814 108.15 30.2806C107.539 28.6203 107.077 26.9462 106.46 25.2979C106.04 24.1748 104.719 20.8413 105.287 21.8971C105.606 22.4896 105.614 23.2232 105.796 23.8557C106.033 24.6778 106.625 25.2949 106.872 26.0977C107.642 28.6024 108.332 31.2134 109.727 33.4209C110.053 33.9366 110.98 35.6914 111.666 35.6866C112.978 35.6775 112.381 33.6271 112.093 32.9982C111.15 30.9419 110.884 28.7183 110.175 26.6C109.199 23.6835 107.065 21.7607 104.945 19.6699C102.904 17.6576 100.89 15.8505 98.3192 14.553C97.2054 13.9908 96.239 13.0822 95.0556 12.6532C94.3959 12.414 94.9393 12.371 95.3515 12.443C95.8667 12.533 96.6046 12.9813 97.0713 13.2338C99.1652 14.3665 101.251 15.5169 103.328 16.6587C104.1 17.0832 104.729 17.775 105.479 18.2094C105.678 18.3241 106.218 19.116 106.447 19.1144C106.974 19.1107 105.588 18.4996 105.123 18.2515C104.531 17.9355 104.063 17.3199 103.508 16.925C102.657 16.3187 101.039 15.6081 100.816 14.5356" stroke="white" stroke-width="9.83388" stroke-linecap="round"/>
<path d="M100.817 14.5356C99.5928 14.5441 98.6045 13.5913 97.5956 12.9526C96.6153 12.332 95.5298 11.8984 94.5517 11.2792C93.0707 10.3416 91.6909 9.88437 89.991 9.52716C86.4428 8.78159 82.996 7.8812 79.3567 7.90648C77.7766 7.91745 76.1472 7.75039 74.5396 7.76156C73.6465 7.76776 72.7384 7.69039 71.875 7.9188C70.9941 8.15186 70.106 8.41539 69.2036 8.52202C67.9332 8.67211 66.8221 9.06376 65.5409 9.07266C64.8277 9.07762 64.1904 8.9805 63.4984 8.90848C63.0772 8.86463 62.6583 8.55756 62.1581 8.56104C59.2803 8.58102 56.2331 8.71455 53.4743 9.55285C50.6734 10.404 47.8044 11.3125 45.3721 12.9586C44.3526 13.6485 43.1587 14.298 42.2758 15.1602C41.1855 16.2248 40.0228 17.5433 38.8105 18.4544C37.6281 19.343 35.8739 21.5123 35.7705 23.0538C35.7247 23.7355 35.0422 24.2374 34.9013 24.8931C34.8293 25.228 34.8257 25.911 34.5427 26.055" stroke="white" stroke-width="9.83388" stroke-linecap="round"/>
<path d="M67.0967 13.5211C67.8751 13.4183 66.6903 10.8149 66.5009 10.4929C66.0325 9.69662 64.996 9.35776 64.2993 8.8236C64.0682 8.64644 63.6118 8.82041 63.5039 8.45256C63.4114 8.1371 63.6678 7.80593 63.9245 7.65687C64.4745 7.33751 65.1958 7.26671 65.806 7.46543" stroke="white" stroke-width="9.83388" stroke-linecap="round"/>
<path d="M79.8658 91.797C84.3517 91.7658 90.3653 90.6928 94.4356 92.9563C94.5785 93.0357 96.2968 93.9401 95.5728 94.3084C94.2991 94.9563 91.7923 93.5842 90.6224 93.1486C87.7312 92.0721 85.0254 90.534 82.1715 89.4591C80.9839 89.0117 80.0271 87.7621 81.9928 87.6028C84.52 87.3979 87.0989 87.1327 89.6858 87.2508C91.3114 87.3251 92.8934 87.986 94.4699 88.3454C96.4012 88.7857 98.5233 89.9192 100.436 90.1449C101.74 90.2986 102.932 91 104.176 91.3462C104.967 91.5663 103.999 91.6294 103.731 91.6313C102.824 91.6375 101.627 91.8506 100.778 91.4859C99.0976 90.7648 97.9295 88.5094 96.1103 88.1184C95.9801 88.0904 95.0409 87.6403 95.5423 87.5253C96.3347 87.3434 97.3113 87.6812 98.0495 87.9391C102.126 89.363 105.606 91.7106 109.155 94.1145C115.625 98.4968 116.271 106.049 118.225 113.025" stroke="white" stroke-width="9.83388" stroke-linecap="round"/>
<path d="M96.9019 94.6641C97.5478 94.7241 98.1516 95.1585 98.6658 95.5142C100.918 97.072 103.047 98.9394 105.071 100.777C111.119 106.267 116.523 113 121.124 119.738C123.572 123.322 125.188 127.079 126.743 131.11C127.219 132.344 127.922 133.702 127.931 135.049" stroke="white" stroke-width="9.83388" stroke-linecap="round"/>
<path d="M84.0898 98.3346C84.6084 101.078 87.6006 103.487 89.1989 105.613C91.378 108.513 93.6192 111.506 96.0089 114.24C98.4582 117.041 100.429 120.255 102.903 123.048C105.654 126.155 108.429 130.116 112.088 132.173" stroke="white" stroke-width="9.83388" stroke-linecap="round"/>
<path d="M88.8709 88.2572C89.5164 88.2527 90.4452 88.4529 90.8962 87.881C91.2109 87.482 92.0925 87.1921 92.5474 86.928C93.5472 86.3474 95.1721 87.0675 96.1563 87.4501C97.5997 88.0113 99.1817 88.2156 100.64 88.7549C101.788 89.1796 102.936 89.4632 104.161 89.4547C105.4 89.4461 106.142 90.1683 107.291 90.447C108.319 90.6965 108.947 91.6148 109.789 92.1679C110.804 92.8339 111.842 93.4737 112.702 94.3526C113.609 95.2804 114.738 95.9455 115.648 96.843C116.033 97.2224 116.298 97.6574 116.743 97.9862C116.916 98.1146 117.436 98.595 116.883 98.4761C115.376 98.1522 114.689 95.9741 113.544 95.0711C113.234 94.8266 111.593 92.946 112.694 93.1939C114.496 93.5999 115.328 96.3139 116.377 97.5461C117.608 98.9907 118.872 100.634 119.758 102.319C120.781 104.262 121.555 105.95 121.779 108.196C121.933 109.738 121.913 111.281 121.924 112.83C121.929 113.627 122.045 114.497 121.796 115.261" stroke="white" stroke-width="9.83388" stroke-linecap="round"/>
<path d="M111.943 93.891C114.803 94.6642 117.193 96.7442 119.427 98.5468C120.675 99.5537 121.037 101.389 121.967 102.658C122.508 103.396 122.9 104.227 123.455 104.957C123.745 105.338 124.019 105.734 124.308 106.118C124.554 106.443 124.946 106.645 125.143 106.989C125.917 108.343 126.416 109.475 126.724 110.994C127.203 113.354 127.402 115.73 127.619 118.126C127.695 118.966 127.882 119.772 127.918 120.61C127.938 121.077 127.967 122.327 128.254 122.717C128.669 123.279 129.023 122.469 129.079 122.091C129.194 121.303 129.075 120.424 129.07 119.629C129.062 118.534 128.947 117.494 128.613 116.517" stroke="white" stroke-width="9.83388" stroke-linecap="round"/>
<path d="M126.454 118.415C126.47 120.659 126.777 122.636 127.368 124.782C127.793 126.329 128.36 127.938 128.415 129.555C128.44 130.285 128.101 132.378 128.462 131.744C129.553 129.829 130.202 127.827 130.48 125.646C130.552 125.084 130.577 124.429 130.766 123.89C130.939 123.394 130.447 124.004 130.406 124.198C130.221 125.06 129.913 125.771 129.844 126.681C129.745 127.977 129.717 129.253 129.726 130.552C129.745 133.361 129.387 135.707 128.331 138.279C127.892 139.347 123.285 145.862 122.438 144.887C122.148 144.554 122.289 143.739 122.274 143.351C122.24 142.486 122.032 141.68 121.862 140.835C121.372 138.402 120.89 135.884 120.009 133.557C118.128 128.59 114.559 124.565 112.413 119.76C111.671 118.099 110.927 116.401 110.125 114.77C109.388 113.272 108.957 111.609 108.137 110.157C107.357 108.775 105.942 107.973 104.418 107.64C103.185 107.37 101.84 107.542 100.585 107.36C99.2375 107.165 97.877 107.126 96.5267 106.954C94.34 106.675 92.2088 106.073 90.0401 105.744C89.7146 105.694 88.8466 105.385 88.8503 105.929C88.8532 106.338 89.0008 106.733 89.0038 107.167C89.0107 108.17 88.9792 109.018 89.345 109.949C89.7211 110.907 90.5672 111.739 91.1017 112.609C91.8478 113.824 92.8375 114.91 93.4845 116.182C94.6416 118.456 96.491 120.494 98.0351 122.524C98.8127 123.545 99.7935 124.424 100.75 125.273C101.708 126.123 102.718 127.06 103.785 127.771C105.362 128.822 106.951 129.803 108.658 130.642C108.749 130.687 110.27 131.261 110.144 131.388C109.746 131.791 108.342 131.228 108.064 130.888C107.007 129.598 105.159 128.845 103.794 127.924C102.28 126.901 100.75 125.77 99.3452 124.607C97.3177 122.928 94.8808 121.011 93.7827 118.562C93.2757 117.431 92.7539 116.18 92.1652 115.104C91.8237 114.48 91.8444 112.974 91.0703 112.722" stroke="white" stroke-width="9.83388" stroke-linecap="round"/>
<path d="M57.0645 118.028C58.2548 118.679 58.6665 119.871 59.4741 120.844C59.8008 121.238 59.8769 121.632 60.3105 121.917C60.8528 122.273 61.5285 122.591 62.0159 122.991C62.4873 123.379 63.0991 123.73 63.6246 124.034C63.8374 124.158 64.0047 124.337 64.0709 124.563C64.1221 124.737 64.2123 125.218 64.2093 124.787" stroke="white" stroke-width="9.83388" stroke-linecap="round"/>
<path d="M52.2616 135.299C52.3322 134.701 55.1373 135.547 55.4348 135.664C58.1846 136.744 60.7514 138.556 63.0484 140.391C66.1695 142.884 68.9375 145.872 70.7564 149.447C71.1064 150.135 71.8546 151.942 71.1949 150.007C70.6037 148.274 69.7841 146.634 69.0674 144.952C68.1363 142.768 67.4444 140.487 66.2697 138.413C65.3896 136.859 64.3246 135.718 63.2077 134.362C63.0774 134.204 62.5732 133.924 62.7781 133.923C63.2611 133.919 63.6523 134.217 64.0692 134.429C65.2875 135.048 66.2957 136.049 67.2578 136.998C68.316 138.041 69.4348 139.106 70.3147 140.308C71.3967 141.787 72.3424 143.251 72.8984 145.006C73.2727 146.188 73.2871 147.457 73.6478 148.622C74.0757 150.005 74.4766 151.309 75.0118 152.669C75.6447 154.277 76.6856 156.423 78.6994 156.409C80.3674 156.398 81.8709 155.709 83.4717 155.282C85.5339 154.732 86.6165 153.27 87.8648 151.678C88.9515 150.292 89.7825 148.689 90.9088 147.344C92.4112 145.55 93.9251 143.774 95.3941 141.953C97.059 139.889 99.3129 137.935 101.374 136.262C102.339 135.479 103.398 134.891 104.515 134.357C105.078 134.089 105.517 133.653 106.119 133.477C106.314 133.42 106.697 133.306 106.272 133.548C105.453 134.016 104.701 134.318 103.751 134.427C101.829 134.647 100.065 134.599 98.2458 135.423C96.6419 136.149 95.2894 136.71 93.9005 137.779C92.5408 138.825 91.4166 140.174 90.4019 141.553C89.4609 142.832 88.5924 144.302 88.1461 145.834C87.7397 147.229 87.8231 148.679 87.8539 150.117C87.8826 151.455 89.2937 151.832 90.4572 151.837C92.9716 151.848 94.9595 151.295 97.3037 150.398C100.145 149.31 102.641 147.666 105.217 146.077C106.363 145.37 107.501 144.735 108.314 143.674C108.777 143.07 108.614 141.773 108.723 141.056C108.919 139.756 109.356 138.384 109.347 137.076" stroke="white" stroke-width="9.83388" stroke-linecap="round"/>
<path d="M108.194 138.243C108.197 138.668 107.49 139.315 107.222 139.634C106.342 140.681 105.257 141.699 104.241 142.616C101.072 145.472 98.2466 148.767 95.2513 151.804" stroke="white" stroke-width="9.83388" stroke-linecap="round"/>
<path d="M36.8704 134.09C36.8876 136.557 36.6348 139.169 36.9783 141.607C37.2816 143.759 37.8678 146.157 38.7153 148.166C38.9913 148.82 39.3054 149.457 39.5849 150.108C39.6353 150.226 38.6647 149.095 38.5255 148.905C37.0251 146.849 34.7834 144.24 34.6671 141.553C34.6522 141.209 34.446 140.782 34.541 140.441C34.5799 140.301 35.0944 140.365 35.2155 140.338C36.5846 140.04 38.1698 140.19 39.558 140.225C42.6648 140.303 45.7344 141.179 48.6005 142.334C50.0042 142.899 51.3451 143.512 52.133 144.857C52.666 145.766 52.798 146.711 53.1273 147.703C53.2976 148.217 55.0408 152.241 54.4 152.567C53.7911 152.877 53.0716 152.174 52.6272 151.869C50.4149 150.355 48.2946 148.717 46.128 147.14C45.8026 146.903 42.1081 144.067 41.6782 144.832C41.0745 145.905 40.1737 146.717 39.3448 147.604C39.0503 147.919 38.5613 149.357 37.964 149.229C36.8993 149 36.4493 147.262 35.2915 147.271C34.9637 147.273 35.5985 147.732 35.6429 147.755C36.5541 148.228 37.2865 148.927 38.0086 149.646C39.7969 151.427 41.4213 153.385 43.2116 155.15C44.5139 156.435 45.994 157.347 47.6866 158.071C50.265 159.172 53.1278 159.225 55.8922 158.96C58.1711 158.742 60.7368 158.177 63.0443 158.479C63.9697 158.6 64.8959 158.931 65.8326 159.072C66.691 159.202 67.5527 159.299 68.4104 159.43C68.4972 159.443 69.3223 159.617 69.0395 159.802C68.0521 160.446 66.195 160.014 65.2103 159.675C62.9253 158.888 60.6944 158.019 58.3456 157.426C55.4471 156.694 52.5159 156.046 49.6707 155.12C46.5007 154.087 43.8268 152.376 40.8918 150.865C40.671 150.751 37.9977 149.286 37.9817 149.772C37.9501 150.728 37.8696 151.674 37.8762 152.633C37.8908 154.722 40.4772 155.596 42.0097 156.481C43.4374 157.307 44.4833 158.545 45.8169 159.462C46.7475 160.102 47.5961 160.968 48.3943 161.755C49.0693 162.421 47.9588 162.559 47.459 162.388C46.313 161.996 45.2895 161.235 44.2656 160.6C43.4645 160.104 42.9967 159.657 42.4239 158.998C42.1128 158.64 41.6748 158.372 41.6712 157.862" stroke="white" stroke-width="9.83388" stroke-linecap="round"/>
<path d="M42.397 154.099C42.4961 154.623 43.0106 155.155 43.2844 155.596C43.8094 156.442 44.3982 157.248 44.9305 158.09C45.4281 158.878 46.0097 159.61 46.5126 160.397C46.7668 160.795 47.1237 161.41 47.517 161.692C48.0407 162.067 48.4226 162.605 48.8491 163.075C49.1436 163.399 49.6076 164.115 49.7361 164.523C49.8944 165.025 50.9669 165.627 50.9441 166.067C50.9141 166.644 49.1549 164.994 48.9795 164.821C48.4157 164.265 47.6608 163.35 46.9691 162.99C46.7708 162.887 46.7529 162.964 47.0316 162.962C47.4157 162.959 47.7057 163.016 48.07 163.156C51.2919 164.4 54.2638 166.226 57.5445 167.337C61.0327 168.517 64.7476 169.229 68.4367 169.203C72.2127 169.177 75.6404 166.898 79.4459 166.871C79.915 166.868 80.0775 167.609 80.0802 167.994C80.084 168.547 79.3472 168.99 78.9622 169.38C78.2655 170.087 77.7559 170.535 76.843 170.926C76.3078 171.156 75.9111 171.156 75.3133 171.16C74.7594 171.164 74.3314 171.118 73.8082 170.913C72.7202 170.486 71.5592 170.281 70.4464 169.934C67.8438 169.121 65.2972 168.131 62.6883 167.336C61.2959 166.911 59.6714 166.507 58.2 166.518C57.199 166.525 54.6337 166.154 54.6447 167.733C54.6498 168.466 56.6002 169.151 57.1341 169.379C58.302 169.878 59.5111 170.259 60.6796 170.76C65.3835 172.779 70.5284 172.571 75.5456 172.536C77.7398 172.521 79.6804 172.347 81.6628 171.366C82.7371 170.835 83.9058 170.436 85.0506 170.09C86.0213 169.796 87.2705 169.664 88.1483 169.129C88.7165 168.782 88.7878 167.997 88.9718 167.432" stroke="white" stroke-width="9.83388" stroke-linecap="round"/>
<path d="M77.8325 169.012C79.5675 169 81.1298 169.543 82.7816 170.043C83.9591 170.399 85.4437 170.756 86.4322 171.514C86.7582 171.764 87.1432 171.863 87.5009 172.049C88.0592 172.34 86.7744 172.583 86.5997 172.585C85.8351 172.59 85.1422 172.274 84.397 172.127C84.2511 172.098 83.8026 172.103 83.9514 172.102C84.2631 172.1 84.5557 171.984 84.8693 171.97C86.229 171.91 87.4992 171.748 88.8648 172.005C90.1015 172.238 91.3761 172.677 92.642 172.668C94.2544 172.657 95.7663 172.627 97.3519 172.322C100.202 171.774 102.888 170.981 105.655 170.169C106.827 169.825 108.11 169.194 109.173 168.6C110.571 167.818 112.009 167.003 113.268 166.01C114.51 165.03 115.674 163.974 116.909 162.978C118.521 161.676 119.747 159.966 121.333 158.617C122.657 157.491 124.127 156.474 124.773 154.779C124.995 154.196 124.745 153.499 124.892 152.892C125.09 152.074 125.041 151.089 125.068 150.246C125.133 148.243 125.159 146.256 125.145 144.252C125.138 143.292 125.076 142.034 125.374 141.118" stroke="white" stroke-width="9.83388" stroke-linecap="round"/>
<path d="M125.375 141.119C125.387 142.876 125.524 144.611 125.537 146.38C125.542 147.216 125.297 147.995 125.303 148.824C125.306 149.306 125.459 149.313 125.932 149.258C126.695 149.171 127.183 148.225 127.48 147.619C127.697 147.179 127.474 146.59 127.602 146.115C127.785 145.437 127.815 144.763 127.929 144.08C128.036 143.437 128.086 142.759 128.131 142.109C128.156 141.758 128.248 141.045 128.101 140.724C127.543 139.507 125.377 139.66 124.316 139.943C123.237 140.23 122.527 141.474 121.875 142.27C120.553 143.885 119.33 145.59 118.004 147.191C115.698 149.975 113.234 152.719 110.563 155.156C109.768 155.882 109.044 156.786 108.044 157.248C106.704 157.867 105.252 158.238 103.814 158.551C102.183 158.906 100.568 159.226 98.9562 159.657C97.932 159.931 96.6914 160.196 95.9446 160.993C95.6094 161.351 95.451 162.085 95.4543 162.556C95.4587 163.183 95.8876 163.57 96.52 163.669C97.5649 163.833 98.6383 163.584 99.6644 163.418C100.131 163.342 100.208 163.235 100.375 163.44C100.565 163.676 100.85 163.716 101.128 163.714C102.317 163.705 103.157 162.998 104.266 162.571C106 161.904 107.844 161.552 109.572 160.871C110.831 160.375 111.975 159.514 113.08 158.751C114.167 158.001 115.193 157.138 116.237 156.328C117.268 155.528 118.037 154.972 118.809 153.902C119.509 152.932 120.009 151.76 120.492 150.667C120.676 150.251 120.899 149.669 120.297 149.673" stroke="white" stroke-width="9.83388" stroke-linecap="round"/>
<path d="M21.4349 43.1033C21.453 45.7219 20.7731 48.4443 22.8405 50.2791C23.7659 51.1005 24.7888 50.6876 25.7613 51.1401C27.4968 51.9475 28.9612 53.1852 30.6621 54.0209" stroke="white" stroke-width="9.83388" stroke-linecap="round"/>
<path d="M19.2582 131.916C22.3017 131.895 25.4308 131.635 28.4623 131.877C29.7291 131.979 32.1818 132.912 33.4281 132.167C35.7323 130.79 27.7322 115.573 25.7229 121.744C24.2957 126.127 24.4338 132.729 26.7256 136.828C27.6032 138.398 28.4977 139.129 30.0889 139.823C31.6196 140.491 31.4363 139.887 31.4272 138.567" stroke="white" stroke-width="9.83388" stroke-linecap="round"/>
</g>
<defs>
<clipPath id="clip0_205_2104">
<rect width="133.866" height="178.806" fill="white" transform="translate(0.441406 1.14978) rotate(-0.397916)"/>
</clipPath>
</defs>
</svg>
