<svg width="162" height="216" viewBox="0 0 162 216" fill="none" xmlns="http://www.w3.org/2000/svg">
<g clip-path="url(#clip0_117_8484)">
<rect width="160.784" height="214.762" transform="translate(0.694092 0.925781)" fill="black"/>
<path d="M75.7188 108.947C95.4048 110.21 131.843 101.38 120.476 55.5197" stroke="white" stroke-width="3.22717"/>
<path d="M76.9531 109.963C72.9805 91.3837 76.2946 54.7777 121.702 56.545" stroke="white" stroke-width="3.22717"/>
<path d="M114.477 56.0421C134.163 57.3049 170.601 48.4753 159.234 2.61457" stroke="white" stroke-width="3.22717"/>
<path d="M115.711 57.0577C111.738 38.4788 115.052 1.87281 160.459 3.64011" stroke="white" stroke-width="3.22717"/>
<path d="M86.4691 109.148C92.1911 90.2701 91.91 52.7786 44.6653 53.3799" stroke="white" stroke-width="3.22717"/>
<path d="M87.7409 108.179C68.7456 107.807 33.8619 96.2261 45.9449 52.4207" stroke="white" stroke-width="3.22717"/>
<path d="M43.8081 59.3328C49.53 40.4544 49.249 2.96295 2.00433 3.56425" stroke="white" stroke-width="3.22717"/>
<path d="M45.0799 58.3627C26.0846 57.9906 -8.79907 46.4101 3.28388 2.60466" stroke="white" stroke-width="3.22717"/>
<path d="M1.01274 214.395C20.6988 215.658 57.1367 206.828 45.7696 160.967" stroke="white" stroke-width="3.22717"/>
<path d="M2.24703 215.412C-1.7256 196.833 1.58854 160.227 46.9955 161.995" stroke="white" stroke-width="3.22717"/>
<path d="M39.8622 161.37C59.5482 162.633 95.9862 153.803 84.6191 107.943" stroke="white" stroke-width="3.22717"/>
<path d="M41.0965 162.386C37.1239 143.807 40.438 107.201 85.845 108.968" stroke="white" stroke-width="3.22717"/>
</g>
<defs>
<clipPath id="clip0_117_8484">
<rect width="160.784" height="214.762" fill="white" transform="translate(0.694092 0.925781)"/>
</clipPath>
</defs>
</svg>
