<svg width="136" height="180" viewBox="0 0 136 180" fill="none" xmlns="http://www.w3.org/2000/svg">
<g clip-path="url(#clip0_205_1978)">
<rect width="133.866" height="178.806" transform="translate(0.0878906 1.11719) rotate(-0.397916)" fill="black"/>
<path d="M12.9521 91.3851C24.1139 84.2451 40.3177 65.0114 15.863 44.8129" stroke="white" stroke-width="2.68687"/>
<path d="M14.0244 91.4424C4.45973 83.0085 -8.35356 61.965 16.9347 44.879" stroke="white" stroke-width="2.68687"/>
<path d="M12.8306 47.4759C23.9923 40.3359 40.1961 21.1023 15.7414 0.903728" stroke="white" stroke-width="2.68687"/>
<path d="M13.9023 47.5338C4.33766 39.0998 -8.47563 18.0563 16.8126 0.970268" stroke="white" stroke-width="2.68687"/>
<path d="M24.9718 94.9965C38.4664 98.7207 65.0236 97.8622 63.6147 64.3811" stroke="white" stroke-width="2.68687"/>
<path d="M27.4571 87.9409C27.3255 74.4686 33.0302 57.4753 64.3183 65.2705" stroke="white" stroke-width="2.68687"/>
<path d="M59.378 63.8802C72.8726 67.6044 99.4299 66.7458 98.0209 33.2648" stroke="white" stroke-width="2.68687"/>
<path d="M60.0901 64.7639C59.9585 51.2916 67.4377 26.359 98.7257 34.1542" stroke="white" stroke-width="2.68687"/>
<path d="M93.587 32.4297C107.082 36.154 133.639 35.2954 132.23 1.81437" stroke="white" stroke-width="2.68687"/>
<path d="M94.2986 33.3125C94.167 19.8402 101.646 -5.09237 132.934 2.70282" stroke="white" stroke-width="2.68687"/>
<path d="M27.8993 82.2013C25.9735 96.0673 29.7942 121.975 62.8027 116.196" stroke="white" stroke-width="2.68687"/>
<path d="M27.4244 82.6831C40.7635 80.7891 65.6477 84.9728 62.0152 117.012" stroke="white" stroke-width="2.68687"/>
<path d="M62.7492 111.928C60.8235 125.794 65.151 152.01 98.1595 146.231" stroke="white" stroke-width="2.68687"/>
<path d="M61.9685 112.751C75.3076 110.857 101.005 115.008 97.3722 147.047" stroke="white" stroke-width="2.68687"/>
<path d="M98.4074 141.725C96.4817 155.591 100.809 181.807 133.818 176.027" stroke="white" stroke-width="2.68687"/>
<path d="M97.6272 142.547C110.966 140.653 136.663 144.804 133.031 176.843" stroke="white" stroke-width="2.68687"/>
<path d="M14.5869 177.888C25.7487 170.748 41.9525 151.515 17.4978 131.316" stroke="white" stroke-width="2.68687"/>
<path d="M15.6592 177.946C6.0945 169.512 -6.71879 148.469 18.5694 131.383" stroke="white" stroke-width="2.68687"/>
<path d="M14.46 133.88C25.6217 126.74 41.8255 107.506 17.3708 87.3075" stroke="white" stroke-width="2.68687"/>
<path d="M15.5322 133.937C5.96754 125.503 -6.84575 104.46 18.4425 87.374" stroke="white" stroke-width="2.68687"/>
<path d="M31.3271 91.9264C30.7519 91.8155 30.3896 91.2502 29.9657 90.8879C29.0409 90.0977 27.9708 89.5124 27.0167 88.7642C25.8051 87.814 25.181 86.7457 24.3339 85.4939C22.4975 82.7804 21.6633 79.8593 20.3567 76.9285C20.3025 76.8068 19.3598 74.7862 19.0438 75.9219C18.5394 77.735 19.5221 79.4422 20.2881 80.9756C21.3422 83.0856 21.599 85.2171 22.0261 87.4768C22.29 88.8732 20.5226 87.0604 20.199 86.7157C19.6079 86.0861 19.0152 85.9086 18.4487 85.4058C17.9455 84.9592 16.868 85.112 16.4764 84.6295C16.1539 84.232 15.2322 83.9514 14.7923 83.561C14.3239 83.1453 14.0698 82.5243 13.6854 82.0371C13.1455 81.3529 12.4513 80.4555 12.1533 79.6456C11.8249 78.7528 10.848 78.0465 10.6365 77.1249C10.2976 75.6484 8.86068 74.4636 8.84901 72.7844C8.83726 71.0917 8.8255 69.3989 8.81375 67.7062C8.81014 67.1874 9.12624 65.3127 8.23651 65.84C7.38777 66.3431 7.46883 67.3623 7.00973 67.9444C6.74807 68.2762 6.76403 69.576 7.14519 68.8786C7.82257 67.6391 8.73709 66.8447 9.08792 65.3988C9.47756 63.7929 9.79649 62.1663 10.2315 60.6026C10.2662 60.478 11.1119 59.3068 10.6256 59.3101C10.0766 59.3139 8.81554 60.561 8.41228 60.97C8.1708 61.2148 8.1893 61.3641 8.19173 61.7131C8.19598 62.3257 8.81376 60.6526 9.19673 60.1745C9.85381 59.3542 10.5575 58.5025 11.2919 57.7578C11.7184 57.3253 12.2209 56.8788 12.2163 56.2198C12.2092 55.1939 13.2865 55.0906 13.8814 54.5476C14.506 53.9776 16.6808 51.7988 15.0849 51.4116" stroke="white" stroke-width="9.83388" stroke-linecap="round"/>
<path d="M14.4111 79.8559C14.4179 80.8367 14.2189 82.1133 14.723 82.9814C15.2555 83.8986 15.3201 86.2293 16.0554 86.8092C17.0123 87.5639 19.2846 87.077 20.4586 87.0688C22.5003 87.0547 24.5429 87.023 26.5847 87.0263C28.2728 87.029 29.9488 87.1845 31.6327 87.2814C31.6676 87.2834 33.3029 87.6008 33.2743 86.8831C33.1592 83.9859 26.8561 79.6187 25.4259 78.0382" stroke="white" stroke-width="9.83388" stroke-linecap="round"/>
<path d="M21.3626 78.0663C21.3434 75.3095 21.3243 72.5528 21.3052 69.796C21.2926 67.9912 21.6079 65.4035 20.9081 63.6885C20.52 62.7377 19.8938 62.1156 18.7852 62.1233C16.9446 62.1361 16.5395 65.2354 16.4136 66.525C16.3768 66.9015 16.3781 73.8995 17.7763 72.384C18.7902 71.2849 19.2104 69.3724 19.6159 67.986C20.0638 66.4545 20.7092 64.9965 21.0998 63.4454C21.5573 61.6288 21.2336 59.4915 21.2206 57.6245C21.2122 56.4092 20.6766 55.6769 19.5272 55.2179C19.0849 55.0413 18.0553 54.4556 18.3017 55.1781C19.1522 57.6718 20.201 60.2802 21.5611 62.5393C23.2154 65.2874 23.9058 68.1874 23.9279 71.3739C23.9456 73.9268 23.6354 76.7318 24.2725 79.2069" stroke="white" stroke-width="9.83388" stroke-linecap="round"/>
<path d="M32.3344 83.8721C32.3222 82.1162 32.31 80.3602 32.2978 78.6043C32.2897 77.4297 32.7841 77.1698 33.5594 76.3606C34.4721 75.4078 35.0919 74.1635 36.012 73.2306C37.0875 72.1401 38.5141 71.1757 39.9856 70.7286C43.1471 69.7679 46.2085 68.1314 49.4903 67.7802C51.2937 67.5872 53.0258 67.4153 54.8535 67.4325C55.5419 67.439 56.4085 67.4903 57.0897 67.6121C57.3949 67.6667 58.4076 67.9412 58.6866 67.6897C59.067 67.3468 57.8764 68.346 57.6033 68.7792C56.9698 69.7844 56.6237 70.7401 56.2856 71.8747C55.6217 74.1028 54.9212 76.0568 53.8813 78.1351C52.6126 80.6706 50.9375 82.9308 48.9978 84.9891C47.6415 86.4284 46.2917 87.8497 44.6532 88.9748C43.3426 89.8747 41.9288 90.5543 40.5365 91.3093C39.0818 92.0982 37.5035 92.4567 35.8707 92.468C34.8694 92.475 36.0488 91.3817 36.3223 91.0902C37.8072 89.5073 38.918 87.8405 39.887 85.9038C41.4858 82.7087 42.743 79.0901 42.9723 75.5325C42.9886 75.2793 45.2749 75.481 45.5971 75.4788C47.0392 75.4688 48.1943 75.0214 49.5643 74.6175C50.5153 74.3372 51.2503 73.8438 52.0473 73.2877C52.431 73.02 52.6 72.7163 53.0898 72.7129C54.3721 72.704 56.0721 72.4259 57.2169 73.1631C57.9995 73.6671 58.0604 75.1193 58.132 75.9416C58.277 77.6089 57.3672 79.3266 56.5779 80.7593C55.5414 82.6407 54.6514 84.6791 53.1394 86.2463C51.764 87.6721 50.1993 88.9979 48.4827 89.9947C46.7803 90.9833 45.1709 91.7253 43.2836 92.2569C40.4223 93.0628 37.4771 93.4147 34.5116 93.4353C33.8144 93.4401 32.8503 93.2611 32.1704 93.4604C31.8929 93.5418 32.918 94.2805 32.9747 94.3417C33.9909 95.4392 34.4073 96.8358 35.1117 98.1139C35.9175 99.5757 36.6503 101.162 37.5726 102.549C39.4442 105.365 41.9668 107.702 45.2684 108.606C46.4113 108.919 47.5459 109.157 48.706 109.38C49.1715 109.47 50.0938 109.77 49.0192 109.777C47.6592 109.787 46.4452 109.827 45.1754 109.254C42.8532 108.207 40.584 107.001 38.3051 105.861C35.6832 104.549 32.9932 103.178 31.0957 100.891C30.8279 100.568 30.8531 100.076 31.3323 100.481C32.2822 101.284 33.4006 101.883 34.363 102.678C36.3369 104.307 38.4209 105.788 40.5845 107.158C41.821 107.94 42.8573 108.54 44.3201 108.693" stroke="white" stroke-width="9.83388" stroke-linecap="round"/>
<path d="M40.4577 104.249C40.2833 104.25 41.2537 105.253 41.3435 105.369C42.0577 106.287 42.8481 107.082 43.6758 107.898C44.4075 108.62 45.3565 109.118 46.207 109.69C46.5645 109.93 47.3515 110.436 47.5274 110.825C47.7703 111.361 47.4724 111.369 46.9646 111.511C46.2431 111.714 46.0528 111.331 45.4874 110.794C45.4232 110.734 44.7383 110.307 45.1291 110.283C45.9748 110.23 46.7634 110.362 47.579 110.585C49.555 111.126 51.4038 111.72 53.2952 112.532C54.2607 112.946 55.4434 112.959 56.413 113.228C56.9723 113.384 57.7617 113.329 57.7571 112.66C57.744 110.776 57.2443 108.687 56.759 106.867C56.2813 105.076 55.4033 103.47 54.7722 101.737C54.1831 100.119 53.4946 98.3111 52.4683 96.9106C51.46 95.5347 50.4086 93.7509 48.8403 92.9803C47.9247 92.5304 48.5191 93.4969 47.549 93.5037C46.558 93.5105 45.2435 93.4317 44.4673 94.1725C43.8002 94.8092 43.8715 95.9117 43.9265 96.7482C44.1191 99.6755 47.9719 103.001 50.8279 103.343C52.4399 103.536 53.8596 103.141 53.8476 101.406C53.8354 99.6517 53.8622 97.8924 53.811 96.1385C53.7969 95.6563 53.5663 94.7882 54.003 95.6938C54.2498 96.2055 54.1523 96.4112 53.6505 96.0155" stroke="white" stroke-width="9.83388" stroke-linecap="round"/>
<path d="M54.9559 77.1696C55.4388 77.1058 55.7514 75.7697 55.9813 75.4064C56.4069 74.7342 57.0606 74.1515 57.4491 73.4806C57.6642 73.1089 58.9743 71.5874 58.5875 71.3974" stroke="white" stroke-width="9.83388" stroke-linecap="round"/>
<path d="M15.5655 129.006C15.5439 125.885 15.5222 122.763 15.5005 119.641C15.4619 114.079 16.5206 108.728 18.6617 103.602C19.7307 101.043 20.5293 98.4096 21.5256 95.8311C22.0203 94.5507 22.8191 93.0895 22.8094 91.6893C22.8027 90.7189 22.2336 90.081 21.1695 90.53C20.3014 90.8963 19.7457 92.4242 19.4324 93.256C18.76 95.041 16.8817 96.2268 15.7917 97.7157C14.4664 99.5258 13.0459 101.127 12.0426 103.169C11.1063 105.075 10.5203 107.507 10.1626 109.586C9.72333 112.138 9.39926 114.606 9.41734 117.209C9.43085 119.155 9.51739 121.272 10.734 122.903C11.1602 123.474 11.6863 123.77 12.2593 124.16C12.41 124.263 12.5922 124.348 12.7227 124.476C12.9638 124.714 13.0552 125.587 12.548 123.591C11.0635 117.748 9.55962 111.91 8.06287 106.071" stroke="white" stroke-width="9.83388" stroke-linecap="round"/>
<path d="M8.23276 107.346C8.22178 105.766 8.29079 103.871 9.32584 102.558C10.5324 101.029 11.8569 99.4491 13.4379 98.2905C15.0613 97.1009 16.7177 95.8277 18.2813 94.5941C19.6415 93.5208 20.8708 96.4016 21.1728 97.1903C23.0447 102.079 24.8921 108.027 23.5992 113.27C23.2435 114.713 23.1426 116.209 22.6361 117.623C22.1418 119.002 21.4945 120.186 20.8181 121.467C20.4425 122.178 19.9776 122.676 19.4291 123.232C18.9764 123.691 19.1911 124.049 18.7196 123.237" stroke="white" stroke-width="9.83388" stroke-linecap="round"/>
<path d="M15.8533 170.35C15.8396 168.372 14.9538 166.418 14.8632 164.424C14.7883 162.776 14.672 161.156 14.6605 159.503C14.6337 155.641 14.1323 151.371 14.9323 147.564C15.4966 144.879 16.2431 142.297 17.1129 139.727C17.2692 139.265 17.525 138.53 17.376 138.022C17.2018 137.428 15.2658 140.129 15.0868 140.432C13.2327 143.572 11.3154 146.946 10.2163 150.426C9.90962 151.397 9.4671 152.323 9.2697 153.324C9.03823 154.497 9.01658 155.726 8.73569 156.884C8.36976 158.392 8.39389 160.496 9.17819 161.856C10.6677 164.439 12.7 166.748 13.9315 169.468C14.3607 170.416 14.9172 173.473 14.9099 172.432" stroke="white" stroke-width="9.83388" stroke-linecap="round"/>
<path d="M16.9623 169.066C16.9553 168.06 17.0713 166.949 17.7402 166.152C18.6357 165.085 19.8502 164.066 20.8406 163.062C21.6716 162.219 22.2165 160.94 22.7252 159.865C22.793 159.722 23.4972 158.703 23.243 159.09C22.6183 160.041 21.9739 160.969 21.3292 161.906C20.5207 163.08 19.915 164.658 19.3709 165.981C19.0599 166.737 18.5499 167.812 18.5558 168.656C18.5575 168.904 18.7687 168.985 18.9559 168.795C19.5095 168.234 19.7876 167.263 20.1377 166.57C20.7946 165.27 21.3908 163.866 21.8654 162.487C22.7551 159.901 23.9386 157.433 24.1967 154.658C24.3792 152.695 24.2512 150.604 23.7211 148.745C23.277 147.189 22.5989 145.619 21.8271 144.209C21.4161 143.458 21.3709 142.564 20.606 142.062" stroke="white" stroke-width="9.83388" stroke-linecap="round"/>
<path d="M70.4142 127.047C70.4088 126.282 70.4484 125.527 70.2568 124.783" stroke="white" stroke-width="9.83388" stroke-linecap="round"/>
<path d="M54.2339 100.964C54.6559 100.962 54.9589 101.017 55.2945 100.753C55.4763 100.609 56.0508 100.376 55.7865 100.246" stroke="white" stroke-width="9.83388" stroke-linecap="round"/>
<path d="M68.697 124.369C68.6882 123.106 68.3804 122.355 67.7943 121.26C67.5627 120.828 67.5148 120.197 67.3903 119.713C67.2917 119.331 67.0062 118.946 66.8474 118.577C66.749 118.347 66.6878 118.278 66.5293 118.083C66.1857 117.66 67.211 118.065 67.3794 118.148C68.5223 118.71 69.6018 119.173 70.7958 119.611C72.4748 120.227 74.3897 120.08 76.1046 120.565C78.8761 121.349 81.4431 122.476 83.9086 123.988C87.0589 125.921 89.6584 128.565 91.1151 131.994C91.7246 133.429 92.3146 134.975 92.7431 136.474C93.0238 137.456 93.4081 138.687 93.4422 139.711C93.5148 141.895 91.4438 141.569 89.8504 141.325C87.1736 140.914 84.6427 140.162 82.0029 139.57C79.1085 138.92 76.3376 138.176 73.8007 136.575C71.6382 135.209 70.5513 132.886 69.8018 130.529C69.5589 129.765 69.7395 128.996 69.5421 128.25C69.4949 128.071 69.2301 127.853 69.3214 128.188C69.4551 128.679 69.8874 129.199 70.1808 129.598C71.9931 132.067 74.1797 134.322 76.1301 136.684C77.6852 138.568 79.32 140.238 81.2783 141.699C82.8023 142.836 84.3326 143.275 86.2202 143.073C86.5974 143.032 86.8138 142.617 86.9465 142.305C87.1281 141.877 87.0817 141.38 87.0785 140.927C87.0691 139.56 87.1074 138.189 86.8063 136.846C86.1551 133.942 85.0099 131.238 82.7495 129.259C81.9941 128.598 81.0093 127.612 80.0997 127.185C79.1898 126.758 77.7129 126.089 76.9876 125.374C76.3028 124.698 76.8223 126.645 76.8798 126.83C77.7133 129.515 78.5503 132.25 80.3939 134.436C81.129 135.308 82.3398 135.461 83.4218 135.454C84.3002 135.447 84.5111 135.217 84.5939 134.313C84.7454 132.658 83.2138 131.238 82.2517 130.073C80.5151 127.97 78.8061 125.828 76.9533 123.824C75.8451 122.626 74.3347 122.054 73.2044 120.94C72.995 120.733 71.5254 118.787 72.2045 118.555C73.2887 118.185 74.3451 118.752 75.168 119.36C76.8029 120.569 79.1026 120.838 80.842 121.933C82.5532 123.009 84.3286 123.962 86.0477 125.028C86.3561 125.219 89.1304 127.139 89.1025 126.525C89.068 125.765 87.4996 125.063 86.9661 124.73C86.0369 124.151 85.1077 123.43 84.2618 122.735C83.1153 121.793 81.9103 121.08 80.6966 120.243C80.0338 119.785 79.3264 119.863 78.5771 119.762C78.1876 119.709 77.8439 119.633 77.4434 119.636C76.9772 119.639 77.0178 119.525 77.0147 119.072" stroke="white" stroke-width="9.83388" stroke-linecap="round"/>
<path d="M72.5311 126.042C72.5163 123.919 72.8617 121.447 72.1704 119.42C72.0561 119.085 71.5364 118.64 71.3133 118.341C70.9679 117.878 70.8145 117.416 70.2056 117.42" stroke="white" stroke-width="9.83388" stroke-linecap="round"/>
<path d="M85.3252 133.033C86.3991 134.18 87.2858 135.598 88.2545 136.844C88.9672 137.76 89.7759 138.97 90.7205 139.651C91.3618 140.112 92.0657 141.007 92.5986 141.62C92.9048 141.972 93.339 142.939 93.46 142.18" stroke="white" stroke-width="9.83388" stroke-linecap="round"/>
<path d="M120.095 164.652C119.727 164.181 119.53 163.573 119.203 163.069C118.459 161.925 117.535 160.896 116.734 159.79C115.503 158.092 114.2 156.361 112.789 154.807C111.865 153.788 111.02 152.921 109.892 152.121C109.154 151.597 108.286 151.27 107.569 150.721C106.397 149.822 105.184 148.993 103.948 148.197C103.828 148.119 103.019 147.788 102.993 147.7C102.925 147.468 102.771 147.32 102.557 147.215" stroke="white" stroke-width="9.83388" stroke-linecap="round"/>
<path d="M102.557 147.215C105.104 147.198 107.52 148.18 110.069 148.296C111.216 148.348 112.32 148.949 113.334 149.438C114.438 149.97 115.756 150.536 116.753 151.223C118.887 152.695 120.709 154.032 122.27 156.141C123.649 158.003 124.807 160.013 125.522 162.207C125.78 162.998 125.682 163.903 125.909 164.675C126.142 165.471 126.88 163.8 126.884 163.472C126.91 161.335 126.498 159.013 124.938 157.476C124.427 156.971 123.932 156.395 123.44 155.85C122.817 155.158 122.151 154.137 121.403 153.598C120.565 152.995 120.403 152.614 119.304 152.622C118.52 152.627 117.773 153.174 117.027 153.345C115.475 153.702 113.876 153.894 112.305 154.149C109.719 154.57 106.843 155.458 104.756 153.399C104.545 153.191 104.492 152.919 104.326 152.694C104.299 152.658 104.298 152.215 104.182 152.333C103.622 152.901 104.681 155.377 104.804 155.908C105.667 159.628 107.214 163.869 110.446 166.245C111.898 167.313 113.182 168.325 114.855 169.047C116.572 169.787 118.322 170.346 120.13 170.812C122.06 171.308 124.171 171.592 126.118 170.951C126.764 170.738 128.294 170.617 128.477 169.762C128.579 169.289 128.294 169.168 128.203 168.773C128.104 168.343 128.162 168.094 127.904 167.713" stroke="white" stroke-width="9.83388" stroke-linecap="round"/>
<path d="M127.766 168.139C127.776 169.595 128.005 170.703 128.642 171.956" stroke="white" stroke-width="9.83388" stroke-linecap="round"/>
<path d="M13.2152 22.6576C13.2156 22.713 13.2091 21.7685 13.2072 21.5017C13.2 20.461 13.5757 19.4886 13.918 18.5166C14.2117 17.6826 14.8475 17.015 15.1934 16.214C15.6544 15.1462 16.1194 14.0896 16.4804 12.9811C16.7126 12.2678 17.0458 11.6028 17.3601 10.925C17.6506 10.2986 17.5127 9.4838 17.508 8.81077C17.5012 7.82912 17.1888 7.73359 16.2009 7.84453C15.2483 7.95149 14.7659 9.97387 14.2695 10.6213C12.0932 13.4599 10.1041 16.6167 8.24571 19.6758C7.25785 21.302 6.66392 23.1391 6.40441 25.0167C5.98947 28.0189 6.53919 30.3521 8.2111 32.897C9.35871 34.6439 10.8862 36.216 12.5775 37.4543C13.2041 37.9131 13.9864 38.4198 14.7876 38.4143" stroke="white" stroke-width="9.83388" stroke-linecap="round"/>
<path d="M12.9261 27.8611C12.9063 25.0064 13.3919 21.6752 11.6467 19.1915C11.3239 18.732 10.8594 18.3611 10.5088 17.8899C10.2201 17.5018 9.89471 16.9673 9.51602 16.6686C9.33591 16.5266 9.2385 16.0757 9.14013 15.8585C8.89221 15.3109 9.06231 15.3341 9.42433 15.1702C10.2677 14.7883 11.0346 14.7824 11.8628 15.1894" stroke="white" stroke-width="9.83388" stroke-linecap="round"/>
<path d="M17.0565 9.55149C17.1246 9.96379 17.4564 10.2402 17.707 10.5554C18.0451 10.9807 18.3529 11.4274 18.6657 11.8711C19.5915 13.1843 20.5104 14.4952 21.1819 15.9619C21.8669 17.4583 21.9754 19.1926 21.482 20.7547C21.0675 22.0669 20.7956 23.5433 20.1521 24.7624C19.4708 26.0531 18.6851 27.3253 17.8633 28.5334C17.4975 29.071 17.1332 29.5795 16.5622 29.8961" stroke="white" stroke-width="9.83388" stroke-linecap="round"/>
<path d="M21.4273 18.7028C21.487 18.9537 21.6952 19.1472 21.8398 19.3513C22.1612 19.8047 22.3784 20.3747 22.5882 20.8842C22.868 21.564 22.8777 22.2596 23.0421 22.9646C23.2857 24.0098 23.1047 25.3264 22.8851 26.3481C22.5813 27.7612 21.9877 29.3577 21.0697 30.5003C20.6484 31.0248 20.1907 31.4967 19.6828 31.9382C19.2972 32.2735 18.9262 32.63 18.5442 32.9703C18.2753 33.2098 17.9255 33.4498 17.6941 33.7256C17.3158 34.1764 16.8935 34.991 16.6621 35.4279C15.6282 37.3804 15.1432 38.4572 14.092 40.5075" stroke="white" stroke-width="9.83388" stroke-linecap="round"/>
<path d="M20.5456 34.1771C20.55 34.8125 19.9074 35.3326 19.6392 35.8785" stroke="white" stroke-width="9.83388" stroke-linecap="round"/>
<path d="M89.2172 44.0029C89.2041 44.1142 89.0563 44.0774 88.973 44.078C88.3927 44.0821 87.8634 44.2484 87.311 44.4159C85.3723 45.0037 83.4309 45.6397 81.6523 46.6294C79.2297 47.9774 77.0088 49.7199 74.9107 51.5223C72.8327 53.3075 70.8783 55.5589 68.4207 56.8091C68.0133 57.0164 67.5859 57.237 67.2098 57.4824C66.8037 57.7475 66.4558 58.38 66.15 58.7748C65.8775 59.1266 65.2765 59.9663 64.8029 59.8121" stroke="white" stroke-width="9.83388" stroke-linecap="round"/>
<path d="M64.8027 59.8114C64.7998 59.39 64.7917 58.9683 64.7939 58.5469C64.798 57.792 65.1013 57.0459 65.4152 56.3684C66.1473 54.7879 66.6521 53.0885 67.6422 51.6415C69.4142 49.0516 70.9557 46.1632 73.2756 44.0069C74.4994 42.8693 76.0228 41.9677 77.3992 41.0168C78.8483 40.0157 80.3634 39.3004 82.0757 38.9121C83.4361 38.6035 84.928 38.3783 86.3224 38.3686C87.3861 38.3612 88.5662 38.3549 89.6171 38.1825C90.1543 38.0944 90.6775 37.8978 91.2305 37.8939C91.4482 37.8924 91.6187 37.7554 91.8168 37.743C91.9709 37.7334 92.1437 37.7701 92.294 37.7356C92.4402 37.7021 92.5417 37.6737 92.6974 37.6635C92.781 37.658 92.8778 37.5235 92.9534 37.523C93.0423 37.5224 92.6328 37.9256 92.6097 37.9578C92.2976 38.3917 92.1833 38.9738 92.0124 39.4712C91.5161 40.9157 91.1979 42.3941 90.9336 43.8965C90.5944 45.8244 89.7449 47.4427 88.5499 48.9712C86.4446 51.6639 83.6465 54.0504 80.5431 55.525C78.6422 56.4282 76.7887 57.197 74.7497 57.7435C73.7302 58.0168 72.7309 58.2704 71.6827 58.4052C70.9094 58.5047 70.1001 58.5414 69.3646 58.8252C68.957 58.9824 69.0574 59.2346 69.0602 59.635C69.0641 60.2058 69.5599 60.4392 70.11 60.4354C71.1976 60.4278 72.2494 60.1268 73.3263 60.1193C74.702 60.1098 76.1804 59.8893 77.4406 59.3116C78.577 58.7907 79.5732 58.1404 80.6466 57.5149C81.6942 56.9045 82.6682 56.2373 83.5691 55.4183C85.1127 54.015 86.6604 52.6719 87.9031 50.9908C88.4195 50.2923 88.8258 49.5216 89.3238 48.8109C89.8589 48.0472 90.3399 47.1595 90.6687 46.2847C91.0641 45.2328 91.6084 44.1501 92.4435 43.3924C92.5342 43.3101 92.8001 43.2527 92.6232 43.432C92.3479 43.7112 92.0163 43.8549 91.7718 44.1803C91.1174 45.051 90.7012 46.1545 90.1931 47.116C89.5701 48.2951 88.8684 49.425 88.1447 50.5445C87.164 52.0619 86.1498 53.5937 85.0922 55.061C84.7023 55.602 84.2249 56.0554 83.7932 56.5589C83.7526 56.6063 83.2091 57.1871 83.5243 57.1849C83.7774 57.1832 83.9853 57.0479 84.1831 56.9029C84.9407 56.3478 85.5335 55.6125 86.1928 54.9514C87.3196 53.8216 88.4725 52.7899 89.4158 51.4902C90.0064 50.6766 90.401 49.7887 90.6087 48.8101C90.6918 48.4189 90.8442 48.1259 90.7114 47.7365" stroke="white" stroke-width="9.83388" stroke-linecap="round"/>
<path d="M121.605 13.3796C121.141 13.3828 120.675 13.6907 120.295 13.9189C118.731 14.8608 117.235 15.9254 115.715 16.9367C114.194 17.9482 112.709 19.0295 111.242 20.1169C109.998 21.039 108.878 22.1199 107.698 23.1193C106.775 23.9005 105.84 24.5862 104.832 25.2441C104.229 25.6376 103.569 25.887 102.93 26.2118C102.308 26.5285 101.636 26.8182 101.085 27.2526C100.907 27.3933 100.429 27.5868 100.322 27.7719C100.196 27.9905 99.6893 28.323 99.4619 28.4387" stroke="white" stroke-width="9.83388" stroke-linecap="round"/>
<path d="M99.4622 28.4386C99.4542 27.2904 99.2918 26.0684 99.7319 24.9857C100.381 23.3878 101.123 21.6529 102.2 20.302C104.274 17.6993 106.468 15.0682 108.997 12.8959C109.462 12.497 109.918 12.0758 110.401 11.6991C110.839 11.3568 111.37 11.1449 111.806 10.8042C111.853 10.7675 112.311 10.3404 112.084 10.2964C111.278 10.1411 110.419 10.8362 109.781 11.218C107.625 12.5089 105.865 14.1825 104.12 15.9525C104.054 16.0192 103.777 16.2695 103.782 16.0405C103.793 15.4991 104.369 14.9252 104.685 14.5372C105.976 12.9541 107.701 11.6463 109.339 10.4542C111.494 8.88669 113.923 7.06853 116.715 6.95606C120.047 6.82183 123.361 6.5387 126.698 6.51553C126.79 6.51489 127.21 6.34448 127.212 6.51196C127.213 6.68875 126.94 6.7978 126.851 6.92646C126.499 7.44016 126.33 8.24422 126.204 8.84001C125.87 10.4168 125.512 11.9729 125.062 13.5227C124.627 15.0159 123.78 16.3062 122.751 17.4507C121.897 18.4021 120.974 19.4672 119.948 20.2358C118.957 20.978 118.127 21.929 117.085 22.6135C115.449 23.6879 113.617 24.5769 111.833 25.3667C110.066 26.1494 108.147 26.7387 106.262 27.1758C105.898 27.2601 105.537 27.3791 105.166 27.4281C104.737 27.4848 104.299 27.4154 103.869 27.4575C103.371 27.5063 103.326 27.6472 103.806 27.821C104.201 27.9637 104.628 27.988 105.004 28.1798C105.315 28.3384 105.694 28.5436 106.039 28.5969C106.661 28.6931 107.268 28.6781 107.9 28.6737C109.773 28.6607 111.685 28.0463 113.298 27.1269C115.386 25.9364 117.37 24.6105 119.143 22.9786C119.815 22.3599 120.587 21.8746 121.26 21.2547C121.548 20.9894 121.831 20.7141 122.111 20.4411C122.264 20.2923 122.715 19.8372 122.561 19.9852C120.986 21.4993 119.478 23.0899 117.939 24.639" stroke="white" stroke-width="9.83388" stroke-linecap="round"/>
<path d="M115.812 25.0946C116.132 25.0924 116.451 25.1021 116.767 25.0472C117.482 24.9229 117.964 24.341 118.562 23.9783C119.716 23.2788 120.834 22.5442 121.949 21.7805C122.767 21.2199 123.654 20.6648 124.31 19.904C124.624 19.5404 126.562 17.4023 125.595 17.0233" stroke="white" stroke-width="9.83388" stroke-linecap="round"/>
</g>
<defs>
<clipPath id="clip0_205_1978">
<rect width="133.866" height="178.806" fill="white" transform="translate(0.0878906 1.11719) rotate(-0.397916)"/>
</clipPath>
</defs>
</svg>
