<svg width="136" height="181" viewBox="0 0 136 181" fill="none" xmlns="http://www.w3.org/2000/svg">
<g clip-path="url(#clip0_205_2212)">
<rect width="133.866" height="178.806" transform="translate(0.595459 1.56567) rotate(-0.397916)" fill="black"/>
<path d="M82.4725 80.7127C78.9785 103.234 84.5904 146.158 135.427 138.152" stroke="white" stroke-width="2.68687"/>
<path d="M81.2385 82.0228C101.765 79.5074 141.003 87.3768 134.183 139.451" stroke="white" stroke-width="2.68687"/>
<path d="M135.575 121.737C114.319 118.496 74.0856 125.363 82.7676 179.233" stroke="white" stroke-width="2.68687"/>
<path d="M134.314 120.451C137.145 142.217 130.637 184.092 81.5165 177.936" stroke="white" stroke-width="2.68687"/>
<path d="M81.3658 179.432C84.8194 156.903 79.1306 113.991 28.3088 122.1" stroke="white" stroke-width="2.68687"/>
<path d="M82.5983 178.12C62.0765 180.677 22.8242 172.887 29.551 120.798" stroke="white" stroke-width="2.68687"/>
<path d="M28.1953 138.514C49.4574 141.712 89.6782 134.764 80.8996 80.9111" stroke="white" stroke-width="2.68687"/>
<path d="M29.4571 139.797C26.5868 118.037 33.0204 76.1482 82.1514 82.205" stroke="white" stroke-width="2.68687"/>
<path d="M71.3876 1.72077C68.7805 19.9582 74.3378 54.4816 117.807 47.0492" stroke="white" stroke-width="2.68687"/>
<path d="M70.3492 2.80118C87.9134 0.378812 121.709 5.97667 116.76 48.1211" stroke="white" stroke-width="2.68687"/>
<path d="M117.646 34.3873C99.3558 32.1793 64.9621 38.4896 73.3426 81.7862" stroke="white" stroke-width="2.68687"/>
<path d="M116.54 33.3744C119.345 50.8814 114.487 84.7911 72.245 80.7645" stroke="white" stroke-width="2.68687"/>
<path d="M72.1459 81.3903C74.7183 63.1479 69.0951 28.6352 25.64 36.1505" stroke="white" stroke-width="2.68687"/>
<path d="M73.1769 80.3075C55.6174 82.7634 21.8114 77.23 26.6797 35.0763" stroke="white" stroke-width="2.68687"/>
<path d="M25.8316 49.3941C44.1259 51.5672 78.5075 45.1913 70.0444 1.91075" stroke="white" stroke-width="2.68687"/>
<path d="M26.9371 50.4054C24.0982 32.9038 28.8915 -1.01513 71.1416 2.93089" stroke="white" stroke-width="2.68687"/>
<path d="M13.284 92.4584C24.2761 85.4268 40.2338 66.4854 16.1506 46.5937" stroke="white" stroke-width="2.68687"/>
<path d="M14.3374 92.5133C4.91804 84.2074 -7.70059 63.4837 17.2035 46.6572" stroke="white" stroke-width="2.68687"/>
<path d="M13.1624 49.1162C24.1546 42.0846 40.1122 23.1432 16.029 3.25152" stroke="white" stroke-width="2.68687"/>
<path d="M14.2168 49.1731C4.79744 40.8672 -7.82119 20.1435 17.0828 3.317" stroke="white" stroke-width="2.68687"/>
<path d="M14.8968 177.548C25.8889 170.516 41.8466 151.575 17.7634 131.683" stroke="white" stroke-width="2.68687"/>
<path d="M15.9504 177.605C6.53108 169.299 -6.08755 148.575 18.8165 131.749" stroke="white" stroke-width="2.68687"/>
<path d="M14.7718 134.207C25.7639 127.176 41.7216 108.234 17.6384 88.3425" stroke="white" stroke-width="2.68687"/>
<path d="M15.8259 134.264C6.40657 125.958 -6.21206 105.235 18.692 88.4082" stroke="white" stroke-width="2.68687"/>
<path d="M61.7504 98.2448C61.7817 102.752 58.8594 106.539 56.6143 110.286C53.1935 115.995 49.0684 121.26 44.7054 126.274C42.3644 128.965 40.5934 131.473 37.4752 133.255C36.7646 133.662 34.0817 135.244 34.0717 133.801C34.0609 132.246 34.3951 130.779 34.8813 129.286C35.3139 127.957 35.0636 126.31 35.0538 124.906C35.027 121.04 35.0169 117.319 36.2224 113.617C36.722 112.083 37.6525 110.632 38.076 109.11C38.3452 108.142 39.0538 107.169 39.4625 106.244C39.8518 105.362 40.0479 104.418 40.6333 103.626C43.105 100.282 45.7252 97.2086 48.5566 94.1461C49.9695 92.6179 52.0927 91.1516 53.8052 89.9484C55.4745 88.7755 56.7723 87.8207 58.7437 87.0432C61.1457 86.096 63.628 86.067 66.0986 85.4842C68.4204 84.9365 70.7388 84.872 73.1409 84.8553" stroke="white" stroke-width="9.83388" stroke-linecap="round"/>
<path d="M77.3349 87.4357C77.3459 89.0209 77.3569 90.6061 77.3679 92.1913C77.3819 94.207 76.1186 96.872 75.267 98.6726C74.249 100.825 73.7293 103.226 72.8928 105.46C72.6192 106.191 72.2406 106.874 71.8634 107.555C71.6784 107.89 71.3408 108.864 71.2175 108.502C70.4786 106.336 73.8088 93.9849 70.2179 94.0099C68.7659 94.0199 67.7823 95.0195 66.7955 96.02C63.1405 99.7262 59.3265 103.247 56.7134 107.82C56.4589 108.265 54.0061 112.252 55.3658 112.107C58.3567 111.787 61.0094 108.216 61.4239 105.467C61.9072 102.262 62.5137 95.3459 57.557 95.6637C56.794 95.7126 55.1609 97.4521 54.4263 97.9183C51.7942 99.5889 49.5445 103.21 48.5529 106.108C48.3675 106.65 47.8891 107.659 47.9879 108.258C48.1721 109.374 51.2856 106.356 51.4533 106.175C54.5298 102.856 56.1844 98.5379 59.2356 95.1881C60.4896 93.8114 61.9019 92.5721 63.21 91.2457C63.6439 90.8057 64.1121 90.1358 64.6939 89.8724C65.9452 89.3058 65.7216 89.7277 64.7128 90.5103C62.6111 92.1407 60.5883 93.805 58.8486 95.8287C56.0301 99.1074 53.2597 102.82 50.8459 106.411C48.4904 109.915 45.8807 113.247 43.5085 116.742C41.8978 119.115 41.1054 121.801 39.7477 124.293C39.287 125.139 36.3553 130.143 38.4841 130.247C39.1299 130.278 38.4797 133.32 39.0314 133.897C41.1126 136.07 43.1755 134.048 45.6138 133.851C47.0493 133.734 48.8526 132.78 50.0377 131.993C51.5799 130.969 53.2786 130.326 54.8621 129.35C55.7174 128.822 59.7372 127.091 57.325 129.072C56.1478 130.038 54.9554 130.566 53.6433 131.316C53.4037 131.453 52.0498 132.21 52.5912 132.236C53.9451 132.302 55.6899 130.897 56.7234 130.134C57.6196 129.473 58.4769 128.856 59.4074 128.274C60.2981 127.718 61.8476 127.077 62.4086 126.166C63.9066 123.731 67.4327 123.057 68.7481 120.38C70.0166 117.798 71.9016 115.691 73.1339 113.042C73.7917 111.628 73.8976 109.511 74.8117 108.274C75.7996 106.938 76.3266 104.823 76.7197 103.244C77.1393 101.559 77.1613 100.024 77.1493 98.297C77.1391 96.8221 77.0131 97.1721 76.1043 98.1448C74.9033 99.4303 73.87 101.096 72.989 102.618C71.2135 105.685 68.7029 108.375 66.4507 111.087C62.2308 116.17 58.6499 121.657 53.124 125.447C52.0567 126.179 50.067 127.061 49.3001 128.098C48.7237 128.878 48.1341 129.308 48.1257 128.092" stroke="white" stroke-width="9.83388" stroke-linecap="round"/>
<path d="M75.4995 86.144C75.5252 89.8365 74.8634 78.6966 75.5386 75.0662C75.8921 73.1654 76.7827 71.5421 78.0852 70.1333C80.3616 67.671 82.7223 65.3348 84.8485 62.7352C88.5802 58.1726 93.3099 55.0422 95.9798 49.6085C98.6159 44.2434 100.425 38.4456 100.442 32.4103C100.457 27.2588 95.988 23.2352 91.2331 21.6868C89.6074 21.1574 87.6959 20.6006 86.0183 20.3166C84.3126 20.0278 82.8814 19.2421 81.2373 18.7694C78.941 18.1091 76.6356 17.7182 74.2965 17.3096C72.0464 16.9167 68.5869 16.9113 66.3513 17.3648C57.405 19.1798 50.0562 28.4214 49.0029 37.2044C48.4438 41.8662 48.9547 46.7064 50.4048 51.172C51.7239 55.2339 54.0047 60.1147 57.3305 62.9843C61.2634 66.3776 65.666 69.2481 70.9451 69.2114" stroke="white" stroke-width="9.83388" stroke-linecap="round"/>
<path d="M75.5777 97.6265C78.2418 97.608 80.884 97.5491 83.5258 97.9773C87.2419 98.5797 90.3225 100.229 93.5012 102.142C99.9372 106.014 103.923 113.398 107.456 119.749C110.596 125.393 112.153 131.591 112.382 138.027C112.582 143.66 111.47 148.261 107.1 152.07C102.574 156.015 97.1289 158.508 91.4402 160.298C87.4931 161.54 82.1334 163.011 77.9979 162.175C74.753 161.519 71.607 159.044 69.1176 157.032C64.6211 153.396 60.3243 149.492 56.6373 145.026C53.8074 141.598 51.6429 138.326 51.0356 133.871C50.7231 131.579 50.3855 129.049 49.1613 127.041" stroke="white" stroke-width="9.83388" stroke-linecap="round"/>
<path d="M15.2608 168.512C15.2274 163.7 15.0646 158.837 16.2631 154.151C16.5642 152.973 16.9448 151.78 16.963 150.55C16.9759 149.68 16.762 148.58 17.0741 147.751C17.4573 146.734 18.042 143.48 16.91 142.924" stroke="white" stroke-width="9.83388" stroke-linecap="round"/>
<path d="M14.8113 103.791L14.9418 122.581" stroke="white" stroke-width="9.83388" stroke-linecap="round"/>
<path d="M12.0407 80.5817C12.4713 80.254 12.2886 79.0747 12.2883 78.666C12.2871 76.5493 12.2589 74.4323 12.2442 72.3156C12.2241 69.4159 12.204 66.5162 12.1838 63.6165" stroke="white" stroke-width="9.83388" stroke-linecap="round"/>
<path d="M13.1619 16.6321L13.2797 33.5954" stroke="white" stroke-width="9.83388" stroke-linecap="round"/>
<path d="M10.9605 70.2058C10.7794 70.1668 8.88822 67.0453 8.89761 68.3976C8.90471 69.4193 9.36607 70.2455 9.3722 71.128C9.38087 72.3767 9.28335 73.6235 9.80249 74.77C10.2314 75.7172 9.73091 77.0692 10.3309 77.9557" stroke="white" stroke-width="9.83388" stroke-linecap="round"/>
<path d="M7.3653 73.0669C7.36154 72.5258 7.01001 72.1938 6.76161 71.7539C6.58603 71.4429 6.71938 71.3831 6.81589 71.008C6.95247 70.4772 7.08144 69.8291 7.09204 69.2819C7.10245 68.7444 7.21888 68.1623 7.39172 67.6516C7.45559 67.4628 7.56279 67.2686 7.65767 67.0918C8.67845 65.189 9.37443 63.1322 10.1636 61.1104" stroke="white" stroke-width="9.83388" stroke-linecap="round"/>
<path d="M14.5239 60.751C14.5201 60.198 14.6247 59.4818 14.4702 58.9402C14.264 58.2175 14.117 58.491 13.5192 58.3294C13.2854 58.2662 13.0366 58.2916 12.7963 58.2933C12.6438 58.2943 12.2383 58.3929 12.3389 58.2782C12.8211 57.728 13.5887 57.3126 13.9374 56.6389C14.3174 55.9045 15.2214 55.5982 15.6356 54.8617C15.7525 54.6537 15.9623 54.4964 15.9605 54.2374C15.9592 54.0462 16.1097 53.5723 15.9554 53.4965" stroke="white" stroke-width="9.83388" stroke-linecap="round"/>
<path d="M17.6109 54.72C17.6161 55.4751 18.1069 56.3026 18.4679 56.9551C18.9668 57.8566 19.3952 58.7629 19.5213 59.7926C19.6896 61.1674 19.8056 62.5397 19.8153 63.925C19.8232 65.0656 19.8779 66.211 19.7018 67.3423C19.3617 69.5268 18.6269 71.5197 17.6589 73.4897" stroke="white" stroke-width="9.83388" stroke-linecap="round"/>
<path d="M19.8583 58.1618C19.8578 58.0904 19.8565 58.5252 19.8661 58.6191C19.9106 59.0545 20.2888 59.6078 20.4566 60.0191C20.873 61.0395 21.2517 62.033 21.4158 63.127C21.5702 64.1566 21.636 65.2034 21.6433 66.2446C21.6503 67.2632 21.7661 68.3508 21.6466 69.3638C21.5845 69.8905 21.489 70.412 21.4289 70.9386C21.4065 71.1345 21.1689 71.5822 21.2792 71.7721C21.5244 72.1944 22.5388 70.2124 22.5697 69.9154C22.6693 68.9586 22.8347 68.0084 22.9477 67.0497C23.0585 66.1108 22.8879 65.1642 22.8641 64.2329C22.8569 63.9466 22.8602 63.6596 22.8582 63.3731C22.857 63.2052 22.6021 63.9973 22.5752 64.1115C22.3847 64.9188 22.3803 65.6812 22.386 66.5093C22.3938 67.6309 22.3502 68.7462 22.3224 69.8668C22.2912 71.1257 22.0832 72.3484 21.6939 73.5437C21.5697 73.9252 21.3915 74.2626 21.2075 74.6173C21.1128 74.7998 20.8832 75.3465 20.8818 75.141C20.8779 74.5852 21.2775 73.9102 21.4413 73.39C21.7499 72.4103 21.741 71.3805 21.8823 70.3683C22.0787 68.9611 22.4759 67.5946 22.466 66.1703C22.4619 65.5879 22.5261 64.9914 22.6367 64.4175C22.68 64.1933 22.839 63.2771 22.6098 63.1645" stroke="white" stroke-width="9.83388" stroke-linecap="round"/>
<path d="M14.9427 73.4263C14.9584 75.6885 15.2588 78.1589 14.6983 80.3845C14.5706 80.8914 14.3936 81.1853 14.0889 81.5458C13.8876 81.784 13.6156 81.9962 13.4399 82.2638C13.0983 82.7839 13.0547 83.3173 13.2043 83.8982C13.2778 84.1838 13.3802 84.4735 13.4617 84.7517C13.4982 84.8759 13.5427 85.2134 13.5427 85.2085" stroke="white" stroke-width="9.83388" stroke-linecap="round"/>
<path d="M21.7737 73.2967C21.7778 73.8836 21.7819 74.4705 21.7859 75.0574C21.7936 76.1534 21.5312 77.1554 21.0665 78.1542C20.7138 78.9124 20.5404 79.8029 20.0169 80.4665C19.7281 80.8328 19.4245 80.9856 19.0712 81.2643C18.1603 81.9831 17.2158 83.2073 15.9976 83.2157" stroke="white" stroke-width="9.83388" stroke-linecap="round"/>
<path d="M14.7764 85.1172L14.7792 85.5288" stroke="white" stroke-width="9.83388" stroke-linecap="round"/>
<path d="M14.2414 101.979C14.2616 101.977 14.789 100.103 14.7874 99.8732" stroke="white" stroke-width="9.83388" stroke-linecap="round"/>
<path d="M15.0824 99.9303C15.1833 99.489 15.3896 99.161 15.5667 98.7599C15.6423 98.5888 15.7455 98.4243 15.7826 98.2391C15.8454 97.9255 16.0355 97.6593 16.162 97.3693C16.2732 97.1143 16.5904 96.8486 16.794 96.6422C16.9145 96.52 17.2008 95.999 17.2219 95.8201C17.246 95.6162 17.4119 95.4224 17.4103 95.1925" stroke="white" stroke-width="9.83388" stroke-linecap="round"/>
<path d="M16.3945 103.175C15.5842 103.18 15.1063 103.341 14.3409 103.647C14.0105 103.779 13.5423 104.172 13.2813 103.772C12.7963 103.029 12.7686 101.918 13.3327 101.203C13.5492 100.928 12.8569 101.727 12.6991 102.039C12.5086 102.415 12.3308 102.743 12.0668 103.071C11.5894 103.666 11.2904 104.294 10.9289 104.96C9.83577 106.975 8.95451 109.181 8.97059 111.497C8.98522 113.603 9.58431 115.487 10.5937 117.32C11.3599 118.712 12.2254 120.119 12.7817 121.616C13.2892 122.982 14.0278 124.234 14.4882 125.633C14.6103 126.004 14.7336 126.299 14.9268 126.632C15.0313 126.812 15.2167 126.944 15.2183 127.163" stroke="white" stroke-width="9.83388" stroke-linecap="round"/>
<path d="M15.5056 127.161C15.6064 127.148 16.2483 125.86 16.3375 125.717C16.8819 124.842 17.4718 124.008 18.0677 123.168C18.6531 122.343 19.1077 121.327 19.562 120.419C20.1196 119.304 20.7452 118.056 20.8958 116.807C21.1232 114.922 21.1463 113.054 21.2935 111.161C21.4636 108.974 21.4533 106.599 21.1029 104.432C20.9715 103.619 21.0522 102.793 20.8462 101.993C20.7148 101.483 20.626 100.966 20.4945 100.456C20.3616 99.9394 20.2029 99.1201 19.7212 98.8356" stroke="white" stroke-width="9.83388" stroke-linecap="round"/>
<path d="M19.5259 98.3571C19.5308 99.0697 20.0726 99.4099 20.5014 99.9383C20.7838 100.286 21.1137 100.582 21.3664 100.955C21.5578 101.238 21.9474 101.701 22.0027 102.038C22.1651 103.028 22.0635 105.71 22.0525 106.141C21.9387 110.613 21.7373 114.645 21.5887 119.157" stroke="white" stroke-width="9.83388" stroke-linecap="round"/>
<path d="M20.4767 124.729C20.59 124.826 20.6639 124.054 20.6625 123.864" stroke="white" stroke-width="9.83388" stroke-linecap="round"/>
<path d="M23.778 102.835C23.7839 103.682 24.2864 104.213 24.6559 104.94C25.0374 105.689 25.1457 106.415 25.1515 107.238C25.1568 108.007 25.1621 108.776 25.1675 109.546C25.172 110.193 25.3314 111.091 25.1613 111.725C24.953 112.501 24.9522 113.509 24.5763 114.196C24.4088 114.503 24.422 114.875 24.2046 115.158C23.9782 115.453 24.1404 116.056 23.6754 115.689" stroke="white" stroke-width="9.83388" stroke-linecap="round"/>
<path d="M16.2841 143.063C16.0346 143.092 15.7692 143.48 15.5835 143.633C14.9394 144.166 14.2844 144.786 13.7601 145.436C12.9392 146.453 12.4013 147.491 11.921 148.693C11.5832 149.539 11.288 150.38 11.0131 151.251C10.6889 152.277 10.3382 153.306 10.3458 154.397C10.3554 155.783 10.3529 157.173 10.9295 158.466C11.2484 159.182 11.3784 159.946 11.6391 160.683C12.042 161.822 12.4553 162.927 13.0045 164.006" stroke="white" stroke-width="9.83388" stroke-linecap="round"/>
<path d="M18.2896 138.79C18.2769 138.898 17.8574 139.095 17.7573 139.164C17.2358 139.523 16.6445 139.752 16.1284 140.101C15.4351 140.57 14.7843 141.046 14.5156 141.871" stroke="white" stroke-width="9.83388" stroke-linecap="round"/>
<path d="M17.894 137.598L17.8938 137.565" stroke="white" stroke-width="9.83388" stroke-linecap="round"/>
<path d="M15.5385 132.096C15.5379 132.004 15.3968 131.594 15.3984 131.821" stroke="white" stroke-width="4.21452" stroke-linecap="round"/>
<path d="M12.2255 143.529C12.1132 143.432 12.031 143.833 12.0316 143.923" stroke="white" stroke-width="9.83388" stroke-linecap="round"/>
<path d="M10.6748 146.75C10.6799 147.493 10.6055 148.172 10.5078 148.913C10.4374 149.447 10.3691 149.91 10.3729 150.457C10.3786 151.275 10.4458 152.06 10.5207 152.873C10.6123 153.868 10.8583 154.845 10.949 155.841C11.058 157.038 10.9497 158.244 11.0577 159.44C11.1166 160.091 11.1651 160.74 11.1696 161.394C11.1714 161.655 11.1899 161.922 11.0438 162.145" stroke="white" stroke-width="9.83388" stroke-linecap="round"/>
<path d="M11.1265 164.7L11.1908 164.7" stroke="white" stroke-width="9.83388" stroke-linecap="round"/>
<path d="M20.3867 139.344C20.4 141.258 21.832 142.908 22.2262 144.769C22.5135 146.126 22.5395 147.42 22.5491 148.804C22.5541 149.526 22.5227 150.182 22.4035 150.894C22.2815 151.623 22.1763 152.353 22.0328 153.077C21.9703 153.393 21.7484 154.327 21.7771 154.007C21.9318 152.285 22.4283 150.517 22.7458 148.828" stroke="white" stroke-width="9.83388" stroke-linecap="round"/>
<path d="M23.4424 145.613C23.4622 145.781 23.633 145.987 23.7081 146.135C23.8953 146.503 24.0889 146.859 24.3016 147.212C24.6611 147.809 24.783 148.588 24.7782 149.273C24.7731 150.01 24.3687 150.569 24.1659 151.25C23.9418 152.002 23.8198 152.782 23.8252 153.567C23.8354 155.034 23.5007 156.494 22.5944 157.689C21.2267 159.493 20.4739 161.654 19.2424 163.529" stroke="white" stroke-width="9.83388" stroke-linecap="round"/>
<path d="M23.8699 150.458C23.8743 151.101 24.1752 151.687 24.2104 152.319C24.2464 152.965 24.2634 153.698 24.4536 154.316C24.5769 154.717 24.6346 155.08 24.6256 155.498C24.6164 155.924 24.196 156.434 23.9757 156.784C23.3016 157.853 22.9827 159.018 22.547 160.194C22.0873 161.434 21.4184 162.475 20.3551 163.259" stroke="white" stroke-width="9.83388" stroke-linecap="round"/>
<path d="M23.4053 159.045C23.4145 160.372 23.4721 161.758 22.4848 162.779C21.9236 163.359 21.2886 163.829 20.694 164.371C20.3915 164.647 20.0631 164.841 19.7931 165.164C19.5798 165.419 19.3583 165.656 19.1248 165.893C18.7787 166.244 18.5505 166.648 18.2847 167.06C18.0568 167.413 17.7605 167.711 17.5382 168.062C17.3483 168.362 17.0335 168.541 16.7898 168.788C16.541 169.041 16.4005 169.185 16.0704 168.99" stroke="white" stroke-width="9.83388" stroke-linecap="round"/>
<path d="M16.5236 168.069C16.5275 168.639 16.622 169.344 16.4743 169.875C16.4236 170.057 16.2646 170.226 16.2158 170.401C16.1607 170.599 16.0987 170.917 15.8871 170.76" stroke="white" stroke-width="9.83388" stroke-linecap="round"/>
<path d="M16.5281 15.0901C16.5337 15.897 16.5457 16.5882 16.219 17.353C15.8728 18.1631 15.4697 19.1913 14.7149 19.6631C14.0505 20.0783 13.3598 19.951 12.7518 19.4948C12.0589 18.9749 11.7053 17.9383 10.9324 17.5586C10.6153 17.4027 10.3576 17.892 10.1175 18.0839C9.37076 18.6807 8.6829 19.6382 8.08068 20.3848C7.40168 21.2265 7.01303 22.3031 6.85412 23.3686C6.69933 24.4064 6.59282 25.8493 6.90428 26.8503C7.481 28.7036 8.1328 30.5621 8.60623 32.4512C9.04657 34.2083 9.87472 35.879 10.8106 37.4381C11.2518 38.173 11.4704 39.0852 11.7631 39.887C11.8939 40.2455 11.9704 40.7237 12.2385 40.9881C12.4865 41.2327 12.9352 41.359 13.1136 41.6577C13.2352 41.8611 13.4691 41.8847 13.6102 42.0635C13.6492 42.113 13.7943 42.3908 13.7933 42.2376" stroke="white" stroke-width="9.83388" stroke-linecap="round"/>
<path d="M17.3278 12.5123C17.3289 12.6737 17.3381 12.3511 17.3004 12.3046C17.1994 12.1802 17.0684 12.0916 16.9731 11.956C16.8332 11.7569 16.5542 11.1634 16.758 10.9051C16.9461 10.6665 17.1011 10.6363 17.0785 10.2923C17.0502 9.86215 16.5489 10.4684 16.4957 10.5562C15.9575 11.4445 15.4846 12.1541 14.7582 12.9329C14.0536 13.6881 13.5014 14.6052 12.7871 15.3502C12.6285 15.5157 12.1693 16.2117 12.0904 16.0566" stroke="white" stroke-width="9.83388" stroke-linecap="round"/>
<path d="M16.4121 15.3251C16.5828 16.0886 17.0947 16.7489 17.5566 17.3635C18.3506 18.4199 19.2119 16.1492 19.5716 15.6539" stroke="white" stroke-width="9.83388" stroke-linecap="round"/>
<path d="M19.0982 14.8386C19.1109 16.6789 19.7669 18.1526 20.3025 19.8844C20.7667 21.3852 20.8759 23.0214 20.7769 24.5844C20.5915 27.5111 18.6945 29.6073 17.2164 31.9954C16.5097 33.1373 15.8457 34.5249 15.6127 35.8588C15.4581 36.744 15.1266 37.5459 15.1695 38.4604C15.2039 39.1923 17.5591 37.6184 17.8526 37.5323C18.226 37.4228 18.4333 36.967 18.6065 36.6501C18.9012 36.1109 19.2191 35.5941 19.5375 35.065C20.7139 33.1096 22.2158 31.1836 22.4956 28.847C22.9326 25.1959 23.1307 20.2091 20.2853 17.4029" stroke="white" stroke-width="9.83388" stroke-linecap="round"/>
<path d="M14.6819 35.6827C14.9724 36.005 14.7733 36.7981 14.8158 37.1954C14.8479 37.4954 15.0473 37.7833 15.0493 38.0773C15.0506 38.2686 15.0152 38.4904 15.1118 38.6616C15.2754 38.9512 15.3244 39.3751 15.5538 39.6264C15.6636 39.7468 16.1543 40.2516 15.882 40.1179" stroke="white" stroke-width="9.83388" stroke-linecap="round"/>
<path d="M45.6084 30.8541C45.4931 32.1606 44.6427 33.3726 44.1178 34.5409C43.2764 36.4138 42.7333 38.3083 42.1062 40.2529C41.89 40.9231 41.6581 41.7673 41.3183 42.389C41.2531 42.5084 41.001 40.335 40.9245 39.8945C40.5176 37.5534 40.0783 35.3298 39.1039 33.1587C38.7225 32.3089 38.3874 31.5472 37.5926 31.0089C37.2129 30.7518 36.914 30.7361 36.4709 30.7392C35.7314 30.7443 34.9418 30.3177 34.2857 30.0013C33.9339 29.8316 32.3945 28.8037 32.3995 29.5189C32.4017 29.837 32.5417 30.0467 32.6727 30.3296C33.0205 31.0808 32.7759 32.345 32.7814 33.1431C32.7914 34.5737 32.7892 35.9541 32.6423 37.3656C32.5302 38.4424 32.1912 39.5564 32.1199 40.6196C32.0665 41.4142 31.6231 42.2792 31.3836 43.0426C31.0712 44.0381 31.2602 45.2516 31.2674 46.2938C31.2834 48.6 31.3311 50.769 31.8097 53.0285C32.0145 53.9958 32.3871 55.106 32.9792 55.914C33.7805 57.0074 34.1041 58.238 34.6488 59.4599C35.2286 60.7604 35.8362 61.993 36.459 63.2725C37.0954 64.5796 38.5732 65.8988 39.6158 66.927" stroke="white" stroke-width="9.83388" stroke-linecap="round"/>
<path d="M40.505 40.8779C40.5227 43.4273 40.4381 46.0033 40.5979 48.5473C40.9197 53.6678 44.2902 57.4727 47.0895 61.5036C47.7212 62.4132 48.3867 63.2487 49.2175 63.9861C49.5578 64.2881 50.224 64.4807 50.4427 64.8892C50.7169 65.4017 49.3916 65.232 49.2156 65.1455C46.0779 63.6038 36.7459 58.9439 39.5942 60.971C40.5859 61.6768 41.3578 62.7081 42.1691 63.599C44.3879 66.0356 46.8581 68.2159 49.6064 70.0381C51.5193 71.3064 53.9723 73.605 56.429 73.5879" stroke="white" stroke-width="9.83388" stroke-linecap="round"/>
<path d="M42.4474 63.697C42.4539 64.6288 42.1234 66.3221 42.7883 67.1234C43.2288 67.6542 43.715 68.7345 44.2685 69.0752C44.5351 69.2392 44.5969 69.6136 44.8975 69.7447C45.1156 69.8398 45.4932 70.0017 45.6632 70.1357C46.222 70.5765 46.7495 71.2242 47.4069 71.511C49.0456 72.2257 50.9956 73.1295 52.8198 73.2571C53.6608 73.3159 54.6971 73.5529 55.5383 73.7337C57.0204 74.0523 58.8372 73.7504 60.3544 73.7399C60.8056 73.7368 61.626 73.6697 60.9447 73.1214C59.1554 71.6814 57.4491 70.1922 55.7016 68.7084C55.5278 68.5608 52.3316 65.8367 53.0868 67.468C53.6843 68.7587 53.8167 70.1266 54.8964 71.1914C56.1614 72.439 57.157 73.3469 58.7516 74.1078C60.8993 75.1325 63.0538 76.1978 65.4565 76.39C68.841 76.6606 72.1534 76.7226 75.1673 74.8856" stroke="white" stroke-width="9.83388" stroke-linecap="round"/>
<path d="M78.8774 69.6868C78.8692 68.5064 78.7435 67.2713 78.9913 66.1186C79.1823 65.2301 79.4704 64.5627 79.7277 63.7055C79.8612 63.2606 80.1357 62.6826 80.3519 62.2741C80.5621 61.8773 80.935 60.612 80.9381 61.0611C80.9413 61.5183 80.0234 62.6898 79.7233 63.0812C79.3377 63.5842 79.0917 64.2364 78.6643 64.6939C78.3746 65.004 77.3646 65.5927 76.9237 65.2015C76.0278 64.4063 77.4107 63.5106 77.7705 62.9857C78.8473 61.4146 79.2889 59.3659 80.0423 57.6386C80.4366 56.7346 81.3371 55.8416 81.8872 55.0295C82.5702 54.021 83.1452 53.0298 83.9679 52.1313C86.4745 49.394 89.4922 47.1384 92.2497 44.6218C92.7445 44.1702 93.2086 43.7968 93.7577 43.442C94.0574 43.2483 94.1965 42.8364 94.4657 42.6542C95.3702 42.0421 92.5109 43.6905 91.7233 44.4471C91.2197 44.9308 90.5575 45.4304 90.1285 45.9743C90.026 46.1043 89.6605 46.2396 89.4969 46.3454C89.1212 46.5881 88.7552 46.8448 88.3923 47.1062C86.9953 48.1122 87.3901 46.9746 87.2728 45.7266" stroke="white" stroke-width="9.83388" stroke-linecap="round"/>
<path d="M78.2696 59.3454C78.265 58.6842 78.3026 58.0208 78.1766 57.374C77.988 56.405 79.1538 54.7897 79.5695 53.896C80.352 52.214 82.0634 51.008 83.3359 49.7177C84.7168 48.3175 86.3014 46.5805 87.9946 45.6125C88.8976 45.0963 89.7318 44.4114 90.6486 43.9194C91.2084 43.6189 92.0707 43.2189 92.0656 42.4825" stroke="white" stroke-width="9.83388" stroke-linecap="round"/>
<path d="M76.2083 19.4043C74.7485 19.7801 79.9154 28.5232 80.6969 29.3224C81.8396 30.491 82.6032 31.8829 83.9029 32.927C85.6094 34.2979 86.9952 36.0439 88.6219 37.5022C89.2488 38.0642 90.434 39.0552 91.3284 39.0987C92.8137 39.1708 92.2266 36.2921 92.1842 35.3271C92.0735 32.8107 91.651 30.0585 90.6747 27.727C90.0632 26.2667 88.9402 23.8524 87.5694 22.9325C86.8137 22.4254 85.9476 22.1353 85.1823 21.6608C84.9138 21.4944 84.5537 21.559 84.4267 21.3093" stroke="white" stroke-width="9.83388" stroke-linecap="round"/>
<path d="M64.616 19.6631C64.632 21.9773 63.6696 23.6739 62.5269 25.6333C62.0078 26.5232 61.2595 27.3013 60.5817 28.0746C59.7805 28.9887 59.2405 30.1049 58.4119 30.9833C56.5939 32.9106 55.0302 35.1285 53.3115 37.1329C52.8843 37.6312 52.3408 38.002 51.9437 38.5199C51.7998 38.7076 53.1184 38.2716 53.2298 38.2037C54.5408 37.4047 54.9339 36.0467 55.9427 35.0237C57.7444 33.1968 59.6849 31.5229 61.4748 29.6738C63.0494 28.047 64.8093 25.8861 65.1782 23.5735C65.325 22.6535 65.6649 21.8047 65.6945 20.8646C65.6993 20.7137 65.869 20.2962 65.87 20.4471C65.8727 20.8353 65.5117 21.3797 65.3437 21.7093C64.1245 24.1011 62.5226 26.2751 61.3293 28.7036C60.5611 30.2672 59.8736 31.8366 58.9034 33.269C58.2119 34.29 57.4433 35.0698 56.623 35.9505C56.2669 36.3329 55.8151 36.5218 55.4704 36.9297C54.9346 37.5636 56.7837 35.9129 57.4118 35.3703C58.565 34.374 64.7564 26.5614 63.2299 25.559" stroke="white" stroke-width="9.83388" stroke-linecap="round"/>
<path d="M51.0011 36.8815C51.0093 38.0638 51.0036 39.247 51.0257 40.429C51.0615 42.3424 51.9042 44.432 52.7894 46.1148C53.804 48.0432 54.3554 50.1027 55.5649 51.9323C56.7733 53.7602 57.9076 55.6899 59.7028 57.0169C60.0461 57.2706 60.9618 58.5202 60.9555 57.6027C60.9409 55.5108 59.8337 53.5239 58.8533 51.7112C58.1432 50.3982 57.2524 49.2039 56.5378 47.9022C55.8726 46.6907 55.5216 45.3732 54.8075 44.1783C54.3276 43.3754 53.5408 42.2414 53.3508 41.3245" stroke="white" stroke-width="9.83388" stroke-linecap="round"/>
<path d="M54.8095 45.9519C54.8967 46.6901 55.6761 47.2029 56.0707 47.7665C56.7292 48.7073 57.4236 49.6737 57.9144 50.7068C59.2088 53.4308 60.9936 55.9753 62.3992 58.6528C63.2675 60.3068 64.0178 63.4032 65.8175 64.2875C67.0635 64.8997 65.8223 62.265 65.712 61.9297C65.0232 59.837 65.0221 57.4214 63.7945 55.5216C62.729 53.8726 62.177 52.0475 60.9058 50.5076C60.383 49.8745 59.9312 49.2411 59.4259 48.5954C58.825 47.8276 57.9337 47.2876 57.3994 46.469C56.8923 45.6921 55.7665 45.438 55.5142 44.6984" stroke="white" stroke-width="9.83388" stroke-linecap="round"/>
<path d="M42.5839 32.1243C42.5592 28.5676 43.7464 25.5802 45.7684 22.6485C46.605 21.4355 47.5286 19.3276 48.9515 18.6625C53.2534 16.6516 57.8666 15.6185 62.3977 14.2287C67.1858 12.7601 71.641 11.0529 76.6849 11.0179C78.6175 11.0045 80.4068 11.1039 82.3164 11.4346C83.7788 11.6879 85.3067 11.9986 86.6747 12.5836C87.2517 12.8304 88.5373 13.2869 88.9325 13.7868C90.2724 15.4812 92.0226 20.0313 92.492 21.1943C96.1674 30.3006 97.8327 35.3628 101.536 44.9145" stroke="white" stroke-width="9.83388" stroke-linecap="round"/>
<path d="M87.4122 14.5104C89.2613 14.4975 90.6863 14.6831 92.4126 15.3675C94.3788 16.147 96.0063 17.4133 97.7759 18.541C101.588 20.9704 102.561 26.3217 103.219 30.4145C104.03 35.4527 104.538 40.4355 104.573 45.537C104.604 50.0379 102.134 54.4086 98.8585 57.4088C95.8855 60.1317 92.8292 62.6877 89.3668 64.7979C87.6743 65.8294 86.0031 66.8713 84.3147 67.9049C82.8231 68.8182 81.32 69.9815 79.706 70.6522C78.7113 71.0655 76.7874 71.6681 76.262 72.7373C75.7988 73.68 77.4674 74.691 78.198 74.686" stroke="white" stroke-width="9.83388" stroke-linecap="round"/>
<path d="M78.3741 74.5067C79.8605 74.4964 81.3468 74.4861 82.8332 74.4758C83.8944 74.4684 81.1994 75.8135 80.7919 75.907C79.5285 76.197 80.662 75.9137 81.345 75.6455C83.5033 74.7981 86.081 75.9674 88.1881 75.0133C88.9367 74.6744 89.7194 74.3189 90.5096 73.9666C91.6699 73.4493 93.0501 73.1865 94.1364 72.5243C95.135 71.9157 96.1243 71.4811 97.1172 70.8091C98.0357 70.1875 98.9666 69.4328 99.748 68.6405C102.374 65.9778 105.751 63.8685 107.889 60.7851C108.194 60.3444 108.732 60.0558 108.911 59.5294C109.192 58.698 108.14 59.5351 107.97 59.6845C106.827 60.6927 105.715 62.2623 104.875 63.541C103.626 65.4442 102.796 67.4659 101.208 69.1357C100.928 69.4298 100.563 69.8146 100.373 70.1622C99.9044 71.0196 100.101 69.586 100.099 69.183" stroke="white" stroke-width="9.83388" stroke-linecap="round"/>
<path d="M108.068 60.9226C108.055 59.0188 107.952 57.1589 108.386 55.2918C108.884 53.1429 109.522 51.0292 110.026 48.8788C110.408 47.2471 110.413 45.6232 110.636 43.9792C110.718 43.3722 110.825 43.9901 110.767 44.3152C110.651 44.9655 110.331 45.5581 110.215 46.2118C110.067 47.0507 110.126 47.9122 110.124 48.7592C110.119 50.8805 109.883 53.1237 108.919 55.0304C108.859 55.1483 108.184 55.9554 108.588 55.8948C109.419 55.7702 110.194 53.5435 110.49 52.9088C111.615 50.4894 111.78 47.6324 111.703 44.9826C111.668 43.7885 111.152 42.6161 111.143 41.419C111.132 39.736 110.62 38.2018 110.396 36.5586C110.121 34.539 109.003 32.5975 108.304 30.6967C107.693 29.0364 107.231 27.3624 106.615 25.714C106.194 24.5909 104.873 21.2574 105.441 22.3133C105.76 22.9057 105.769 23.6394 105.95 24.2718C106.187 25.0939 106.779 25.7111 107.026 26.5138C107.797 29.0186 108.487 31.6296 109.882 33.837C110.207 34.3527 111.134 36.1075 111.82 36.1028C113.133 36.0937 112.535 34.0432 112.247 33.4143C111.305 31.358 111.039 29.1345 110.33 27.0161C109.354 24.0996 107.219 22.1768 105.099 20.086C103.058 18.0737 101.044 16.2666 98.4735 14.9691C97.3597 14.4069 96.3933 13.4983 95.2099 13.0693C94.5502 12.8302 95.0936 12.7872 95.5058 12.8592C96.021 12.9491 96.7589 13.3974 97.2256 13.6499C99.3195 14.7826 101.406 15.933 103.483 17.0748C104.255 17.4993 104.883 18.1911 105.634 18.6256C105.832 18.7402 106.372 19.5321 106.601 19.5305C107.128 19.5269 105.742 18.9158 105.277 18.6677C104.685 18.3516 104.218 17.736 103.663 17.3411C102.811 16.7349 101.193 16.0242 100.971 14.9518" stroke="white" stroke-width="9.83388" stroke-linecap="round"/>
<path d="M100.972 14.9516C99.7473 14.9601 98.759 14.0073 97.7502 13.3686C96.7699 12.748 95.6843 12.3145 94.7062 11.6952C93.2252 10.7577 91.8455 10.3004 90.1455 9.94317C86.5974 9.1976 83.1505 8.29722 79.5112 8.32249C77.9311 8.33346 76.3017 8.16641 74.6941 8.17757C73.801 8.18378 72.8929 8.1064 72.0295 8.33481C71.1486 8.56788 70.2606 8.83141 69.3581 8.93803C68.0878 9.08812 66.9766 9.47978 65.6954 9.48868C64.9823 9.49363 64.3449 9.39652 63.6529 9.32449C63.2317 9.28065 62.8129 8.97358 62.3127 8.97705C59.4348 8.99704 56.3876 9.13057 53.6289 9.96886C50.8279 10.82 47.9589 11.7286 45.5267 13.3746C44.5071 14.0645 43.3133 14.7141 42.4303 15.5762C41.3401 16.6408 40.1773 17.9593 38.965 18.8704C37.7826 19.7591 36.0284 21.9283 35.925 23.4698C35.8793 24.1515 35.1968 24.6534 35.0558 25.3091C34.9838 25.6441 34.9802 26.327 34.6972 26.471" stroke="white" stroke-width="9.83388" stroke-linecap="round"/>
<path d="M67.2515 13.937C68.0299 13.8342 66.8451 11.2308 66.6557 10.9088C66.1872 10.1125 65.1508 9.77365 64.4541 9.23949C64.223 9.06233 63.7666 9.2363 63.6587 8.86845C63.5662 8.553 63.8226 8.22182 64.0793 8.07276C64.6293 7.75341 65.3506 7.6826 65.9608 7.88132" stroke="white" stroke-width="9.83388" stroke-linecap="round"/>
<path d="M80.0201 92.2129C84.506 92.1817 90.5196 91.1087 94.5899 93.3722C94.7328 93.4516 96.451 94.356 95.7271 94.7242C94.4534 95.3722 91.9466 94.0001 90.7767 93.5645C87.8855 92.4879 85.1797 90.9499 82.3258 89.875C81.1382 89.4276 80.1814 88.178 82.1471 88.0187C84.6743 87.8138 87.2532 87.5486 89.8401 87.6667C91.4657 87.7409 93.0477 88.4019 94.6242 88.7613C96.5555 89.2016 98.6776 90.3351 100.591 90.5608C101.894 90.7145 103.086 91.4159 104.331 91.7621C105.122 91.9822 104.153 92.0453 103.885 92.0471C102.979 92.0534 101.781 92.2665 100.932 91.9018C99.2519 91.1807 98.0838 88.9253 96.2646 88.5343C96.1344 88.5063 95.1952 88.0562 95.6966 87.9411C96.489 87.7593 97.4656 88.0971 98.2038 88.3549C102.28 89.7789 105.76 92.1265 109.309 94.5304C115.779 98.9127 116.425 106.465 118.38 113.441" stroke="white" stroke-width="9.83388" stroke-linecap="round"/>
<path d="M97.0566 95.08C97.7026 95.14 98.3063 95.5744 98.8206 95.9301C101.072 97.4879 103.202 99.3553 105.226 101.193C111.273 106.683 116.678 113.416 121.279 120.154C123.727 123.738 125.343 127.494 126.898 131.526C127.374 132.76 128.077 134.118 128.086 135.465" stroke="white" stroke-width="9.83388" stroke-linecap="round"/>
<path d="M84.2446 98.7505C84.7632 101.494 87.7554 103.902 89.3536 106.029C91.5328 108.929 93.774 111.922 96.1637 114.656C98.613 117.457 100.584 120.671 103.058 123.464C105.809 126.57 108.584 130.531 112.243 132.589" stroke="white" stroke-width="9.83388" stroke-linecap="round"/>
<path d="M89.0257 88.6731C89.6712 88.6686 90.6 88.8688 91.051 88.2969C91.3657 87.8979 92.2473 87.608 92.7022 87.3439C93.702 86.7633 95.3269 87.4834 96.3111 87.866C97.7544 88.4272 99.3365 88.6315 100.795 89.1708C101.943 89.5955 103.091 89.8791 104.316 89.8706C105.555 89.862 106.297 90.5842 107.446 90.8628C108.474 91.1124 109.102 92.0307 109.944 92.5838C110.958 93.2498 111.997 93.8896 112.856 94.7685C113.764 95.6963 114.893 96.3614 115.803 97.2589C116.188 97.6383 116.453 98.0733 116.897 98.4021C117.071 98.5305 117.59 99.0108 117.038 98.892C115.531 98.5681 114.843 96.39 113.698 95.487C113.388 95.2424 111.748 93.3619 112.848 93.6098C114.651 94.0158 115.482 96.7298 116.532 97.962C117.763 99.4066 119.027 101.05 119.913 102.735C120.935 104.678 121.709 106.366 121.934 108.612C122.087 110.154 122.068 111.697 122.078 113.246C122.084 114.043 122.199 114.913 121.95 115.677" stroke="white" stroke-width="9.83388" stroke-linecap="round"/>
<path d="M112.097 94.3069C114.958 95.0801 117.347 97.1601 119.581 98.9627C120.83 99.9696 121.191 101.805 122.121 103.073C122.662 103.812 123.054 104.643 123.61 105.373C123.9 105.754 124.174 106.15 124.463 106.534C124.708 106.859 125.101 107.061 125.298 107.405C126.071 108.759 126.57 109.891 126.878 111.41C127.357 113.77 127.557 116.145 127.773 118.542C127.849 119.382 128.036 120.188 128.072 121.026C128.092 121.493 128.121 122.743 128.408 123.132C128.824 123.695 129.178 122.885 129.233 122.507C129.349 121.719 129.229 120.84 129.224 120.045C129.216 118.95 129.101 117.91 128.768 116.933" stroke="white" stroke-width="9.83388" stroke-linecap="round"/>
<path d="M126.609 118.831C126.625 121.075 126.932 123.051 127.522 125.198C127.948 126.744 128.515 128.354 128.57 129.971C128.594 130.7 128.256 132.794 128.617 132.16C129.708 130.245 130.357 128.243 130.635 126.062C130.706 125.499 130.732 124.845 130.92 124.305C131.093 123.81 130.602 124.42 130.56 124.614C130.375 125.476 130.068 126.187 129.998 127.096C129.899 128.393 129.871 129.669 129.88 130.968C129.9 133.777 129.541 136.123 128.485 138.695C128.047 139.763 123.44 146.278 122.592 145.303C122.303 144.97 122.444 144.155 122.429 143.767C122.395 142.901 122.187 142.095 122.017 141.251C121.526 138.818 121.045 136.3 120.164 133.973C118.282 129.006 114.714 124.981 112.567 120.176C111.825 118.515 111.082 116.817 110.279 115.186C109.542 113.687 109.112 112.025 108.292 110.573C107.512 109.191 106.097 108.389 104.573 108.055C103.34 107.786 101.994 107.958 100.74 107.776C99.392 107.581 98.0316 107.542 96.6813 107.37C94.4946 107.091 92.3634 106.488 90.1946 106.16C89.8691 106.11 89.0011 105.801 89.0049 106.345C89.0077 106.754 89.1553 107.149 89.1583 107.583C89.1653 108.586 89.1337 109.433 89.4995 110.365C89.8756 111.323 90.7217 112.154 91.2563 113.025C92.0024 114.24 92.992 115.326 93.639 116.597C94.7962 118.872 96.6455 120.91 98.1897 122.939C98.9672 123.961 99.948 124.84 100.905 125.689C101.862 126.539 102.873 127.475 103.94 128.187C105.517 129.237 107.105 130.219 108.812 131.058C108.904 131.103 110.424 131.676 110.298 131.804C109.901 132.207 108.497 131.643 108.219 131.303C107.162 130.013 105.313 129.261 103.949 128.339C102.434 127.317 100.905 126.186 99.4998 125.023C97.4723 123.343 95.0353 121.427 93.9372 118.977C93.4303 117.847 92.9085 116.595 92.3198 115.52C91.9782 114.896 91.9989 113.39 91.2249 113.138" stroke="white" stroke-width="9.83388" stroke-linecap="round"/>
<path d="M57.2192 118.444C58.4096 119.095 58.8213 120.287 59.6289 121.26C59.9556 121.654 60.0317 122.048 60.4652 122.333C61.0076 122.689 61.6833 123.007 62.1707 123.407C62.6421 123.794 63.2539 124.146 63.7794 124.45C63.9922 124.573 64.1595 124.752 64.2257 124.978C64.2769 125.153 64.3671 125.634 64.3641 125.203" stroke="white" stroke-width="9.83388" stroke-linecap="round"/>
<path d="M52.4159 135.715C52.4865 135.117 55.2916 135.963 55.5891 136.08C58.3389 137.16 60.9057 138.972 63.2027 140.807C66.3238 143.3 69.0918 146.288 70.9107 149.863C71.2607 150.551 72.0089 152.358 71.3492 150.423C70.758 148.69 69.9384 147.05 69.2217 145.368C68.2905 143.184 67.5987 140.903 66.424 138.829C65.5439 137.275 64.4789 136.134 63.362 134.778C63.2317 134.62 62.7275 134.34 62.9324 134.339C63.4154 134.335 63.8066 134.633 64.2235 134.845C65.4418 135.464 66.45 136.465 67.4121 137.414C68.4703 138.457 69.5891 139.521 70.469 140.724C71.551 142.203 72.4967 143.667 73.0527 145.422C73.427 146.604 73.4414 147.873 73.8021 149.038C74.23 150.421 74.6308 151.725 75.1661 153.085C75.799 154.692 76.8399 156.839 78.8537 156.825C80.5217 156.814 82.0252 156.125 83.626 155.698C85.6882 155.148 86.7708 153.686 88.0191 152.094C89.1058 150.708 89.9368 149.105 91.0631 147.76C92.5655 145.965 94.0794 144.19 95.5484 142.369C97.2133 140.305 99.4672 138.35 101.528 136.678C102.494 135.895 103.552 135.307 104.67 134.773C105.232 134.504 105.671 134.069 106.273 133.893C106.468 133.836 106.851 133.721 106.427 133.964C105.608 134.432 104.855 134.734 103.906 134.843C101.983 135.063 100.219 135.015 98.4001 135.839C96.7962 136.565 95.4437 137.125 94.0547 138.194C92.6951 139.241 91.5709 140.59 90.5562 141.969C89.6152 143.248 88.7467 144.718 88.3004 146.25C87.894 147.645 87.9774 149.095 88.0082 150.533C88.0369 151.871 89.448 152.248 90.6115 152.253C93.1259 152.264 95.1138 151.711 97.458 150.813C100.299 149.725 102.795 148.081 105.371 146.493C106.517 145.786 107.655 145.151 108.469 144.09C108.931 143.486 108.769 142.189 108.877 141.471C109.073 140.172 109.51 138.8 109.501 137.492" stroke="white" stroke-width="9.83388" stroke-linecap="round"/>
<path d="M108.349 138.658C108.352 139.084 107.644 139.73 107.376 140.049C106.497 141.097 105.412 142.115 104.395 143.031C101.227 145.888 98.4011 149.183 95.4058 152.22" stroke="white" stroke-width="9.83388" stroke-linecap="round"/>
<path d="M37.0252 134.506C37.0424 136.972 36.7896 139.585 37.1331 142.023C37.4364 144.174 38.0226 146.573 38.8701 148.581C39.1461 149.235 39.4601 149.873 39.7397 150.524C39.7901 150.641 38.8195 149.511 38.6803 149.32C37.1799 147.265 34.9382 144.655 34.8219 141.969C34.8069 141.625 34.6008 141.198 34.6958 140.856C34.7347 140.716 35.2492 140.78 35.3703 140.754C36.7394 140.456 38.3246 140.605 39.7128 140.64C42.8196 140.719 45.8892 141.595 48.7552 142.749C50.159 143.315 51.4999 143.928 52.2878 145.272C52.8207 146.181 52.9528 147.127 53.2821 148.119C53.4523 148.632 55.1956 152.657 54.5548 152.983C53.9459 153.292 53.2263 152.589 52.782 152.285C50.5697 150.77 48.4494 149.132 46.2828 147.555C45.9574 147.318 42.2629 144.483 41.833 145.247C41.2293 146.321 40.3285 147.133 39.4996 148.02C39.2051 148.335 38.7161 149.773 38.1188 149.644C37.0541 149.416 36.6041 147.678 35.4462 147.686C35.1185 147.688 35.7533 148.148 35.7976 148.171C36.7089 148.644 37.4413 149.342 38.1634 150.062C39.9517 151.843 41.576 153.801 43.3663 155.566C44.6687 156.851 46.1488 157.763 47.8413 158.486C50.4198 159.588 53.2826 159.641 56.047 159.376C58.3259 159.157 60.8916 158.593 63.199 158.895C64.1245 159.016 65.0507 159.347 65.9874 159.488C66.8458 159.617 67.7075 159.715 68.5652 159.846C68.652 159.859 69.4771 160.033 69.1943 160.217C68.2068 160.862 66.3498 160.43 65.3651 160.091C63.0801 159.304 60.8492 158.434 58.5003 157.842C55.6019 157.11 52.6707 156.462 49.8255 155.535C46.6555 154.503 43.9816 152.792 41.0466 151.281C40.8257 151.167 38.1525 149.701 38.1364 150.187C38.1048 151.144 38.0244 152.09 38.031 153.049C38.0455 155.138 40.632 156.011 42.1645 156.897C43.5922 157.722 44.6381 158.96 45.9717 159.877C46.9023 160.518 47.7509 161.383 48.5491 162.17C49.2241 162.836 48.1136 162.974 47.6138 162.803C46.4678 162.411 45.4443 161.651 44.4204 161.016C43.6193 160.519 43.1515 160.073 42.5787 159.414C42.2676 159.056 41.8296 158.787 41.826 158.277" stroke="white" stroke-width="9.83388" stroke-linecap="round"/>
<path d="M42.5513 154.514C42.6504 155.039 43.1649 155.571 43.4387 156.012C43.9637 156.858 44.5525 157.664 45.0848 158.506C45.5824 159.294 46.164 160.026 46.6669 160.813C46.9211 161.21 47.278 161.826 47.6712 162.108C48.195 162.483 48.5769 163.02 49.0033 163.49C49.2979 163.815 49.7619 164.531 49.8904 164.939C50.0487 165.441 51.1212 166.043 51.0984 166.483C51.0684 167.06 49.3092 165.41 49.1338 165.237C48.5699 164.681 47.8151 163.766 47.1234 163.406C46.9251 163.303 46.9072 163.38 47.1859 163.378C47.57 163.375 47.86 163.432 48.2243 163.572C51.4462 164.816 54.4181 166.642 57.6988 167.752C61.187 168.933 64.9019 169.644 68.591 169.619C72.367 169.593 75.7947 167.314 79.6002 167.287C80.0693 167.284 80.2318 168.025 80.2345 168.41C80.2383 168.963 79.5015 169.406 79.1165 169.796C78.4198 170.503 77.9102 170.95 76.9973 171.342C76.4621 171.572 76.0654 171.572 75.4676 171.576C74.9137 171.58 74.4857 171.534 73.9625 171.329C72.8745 170.902 71.7135 170.697 70.6007 170.35C67.9981 169.537 65.4515 168.547 62.8426 167.752C61.4502 167.327 59.8257 166.923 58.3543 166.934C57.3533 166.941 54.788 166.57 54.799 168.148C54.8041 168.882 56.7545 169.567 57.2884 169.795C58.4563 170.294 59.6654 170.675 60.8339 171.176C65.5378 173.195 70.6827 172.987 75.6999 172.952C77.8941 172.937 79.8347 172.763 81.8171 171.782C82.8913 171.251 84.06 170.852 85.2049 170.506C86.1756 170.212 87.4248 170.08 88.3026 169.545C88.8708 169.198 88.9421 168.412 89.1261 167.847" stroke="white" stroke-width="9.83388" stroke-linecap="round"/>
<path d="M77.9866 169.428C79.7215 169.416 81.2838 169.959 82.9357 170.459C84.1131 170.815 85.5978 171.172 86.5863 171.93C86.9123 172.18 87.2972 172.279 87.6549 172.465C88.2133 172.756 86.9285 172.999 86.7538 173.001C85.9892 173.006 85.2962 172.69 84.5511 172.543C84.4051 172.514 83.9567 172.519 84.1054 172.518C84.4172 172.516 84.7098 172.4 85.0233 172.386C86.3831 172.326 87.6533 172.164 89.0189 172.421C90.2555 172.654 91.5302 173.093 92.7961 173.084C94.4085 173.073 95.9204 173.043 97.5059 172.738C100.356 172.19 103.042 171.396 105.809 170.585C106.981 170.241 108.264 169.61 109.327 169.016C110.725 168.234 112.163 167.419 113.423 166.426C114.664 165.446 115.828 164.39 117.063 163.393C118.676 162.092 119.901 160.382 121.487 159.033C122.811 157.907 124.281 156.889 124.927 155.195C125.149 154.611 124.899 153.915 125.046 153.308C125.244 152.49 125.195 151.505 125.222 150.662C125.287 148.659 125.313 146.672 125.299 144.668C125.293 143.708 125.23 142.45 125.528 141.534" stroke="white" stroke-width="9.83388" stroke-linecap="round"/>
<path d="M125.529 141.534C125.541 143.292 125.678 145.027 125.69 146.795C125.696 147.632 125.451 148.411 125.457 149.24C125.46 149.722 125.613 149.729 126.086 149.674C126.849 149.587 127.336 148.64 127.634 148.035C127.85 147.594 127.627 147.006 127.756 146.531C127.939 145.853 127.969 145.179 128.083 144.496C128.19 143.853 128.239 143.174 128.285 142.525C128.309 142.174 128.401 141.46 128.254 141.14C127.697 139.923 125.53 140.076 124.469 140.358C123.39 140.646 122.681 141.89 122.029 142.686C120.707 144.301 119.484 146.005 118.158 147.606C115.852 150.391 113.387 153.135 110.717 155.572C109.922 156.298 109.198 157.202 108.198 157.664C106.858 158.282 105.406 158.654 103.968 158.967C102.337 159.322 100.722 159.642 99.11 160.073C98.0858 160.347 96.8452 160.612 96.0984 161.409C95.7632 161.767 95.6049 162.501 95.6081 162.972C95.6125 163.599 96.0414 163.986 96.6739 164.085C97.7187 164.249 98.7922 164 99.8183 163.833C100.285 163.758 100.361 163.651 100.528 163.856C100.719 164.092 101.004 164.131 101.282 164.13C102.47 164.121 103.311 163.414 104.42 162.987C106.153 162.32 107.998 161.968 109.726 161.287C110.984 160.791 112.129 159.93 113.234 159.167C114.321 158.417 115.347 157.554 116.391 156.744C117.422 155.944 118.191 155.388 118.963 154.318C119.663 153.348 120.163 152.176 120.646 151.083C120.83 150.666 121.052 150.085 120.451 150.089" stroke="white" stroke-width="9.83388" stroke-linecap="round"/>
<path d="M21.5891 43.5191C21.6073 46.1377 20.9274 48.8601 22.9947 50.6949C23.9202 51.5163 24.9431 51.1034 25.9156 51.5559C27.6511 52.3632 29.1155 53.601 30.8164 54.4367" stroke="white" stroke-width="9.83388" stroke-linecap="round"/>
<path d="M19.4135 132.332C22.457 132.311 25.5861 132.051 28.6175 132.293C29.8843 132.394 32.3371 133.328 33.5834 132.583C35.8876 131.206 27.8875 115.989 25.8781 122.16C24.4509 126.543 24.5891 133.145 26.8809 137.244C27.7585 138.814 28.653 139.545 30.2442 140.239C31.7749 140.907 31.5916 140.303 31.5824 138.982" stroke="white" stroke-width="9.83388" stroke-linecap="round"/>
</g>
<defs>
<clipPath id="clip0_205_2212">
<rect width="133.866" height="178.806" fill="white" transform="translate(0.595459 1.56567) rotate(-0.397916)"/>
</clipPath>
</defs>
</svg>
