<svg width="162" height="216" viewBox="0 0 162 216" fill="none" xmlns="http://www.w3.org/2000/svg">
<g clip-path="url(#clip0_117_8758)">
<rect width="160.784" height="214.762" transform="translate(0.407715 0.925781)" fill="black"/>
<path d="M67.5325 113.814C64.9231 136.762 69.9986 180.294 111.539 171.313" stroke="white" stroke-width="3.22717"/>
<path d="M66.5402 115.167C83.321 112.27 115.541 119.616 110.538 172.655" stroke="white" stroke-width="3.22717"/>
<path d="M111.478 155.367C94.0352 152.426 61.1651 160.073 68.8771 214.68" stroke="white" stroke-width="3.22717"/>
<path d="M110.429 154.08C112.991 176.156 108.129 218.824 67.8358 213.383" stroke="white" stroke-width="3.22717"/>
<path d="M67.7362 214.169C70.3124 191.215 65.174 147.696 23.6468 156.781" stroke="white" stroke-width="3.22717"/>
<path d="M68.7293 212.815C51.9528 215.755 19.722 208.49 24.6482 155.438" stroke="white" stroke-width="3.22717"/>
<path d="M23.7347 173.465C41.1819 176.362 74.0409 168.632 66.25 114.044" stroke="white" stroke-width="3.22717"/>
<path d="M24.7811 174.747C22.1874 152.678 26.9874 109.998 67.2884 115.338" stroke="white" stroke-width="3.22717"/>
<path d="M11.6055 109.858C21.8569 101.587 36.7955 79.195 14.5629 55.3421" stroke="white" stroke-width="3.22717"/>
<path d="M12.5857 109.934C3.89351 99.9797 -7.68905 75.232 15.5425 55.4286" stroke="white" stroke-width="3.22717"/>
<path d="M12.752 56.439C23.0034 48.1683 37.942 25.776 15.7094 1.92316" stroke="white" stroke-width="3.22717"/>
<path d="M13.7322 56.5156C5.03999 46.561 -6.54257 21.8133 16.6889 2.00994" stroke="white" stroke-width="3.22717"/>
<path d="M11.6055 214.536C21.8569 206.265 36.7955 183.873 14.5629 160.02" stroke="white" stroke-width="3.22717"/>
<path d="M12.5857 214.613C3.89351 204.658 -7.68905 179.91 15.5425 160.107" stroke="white" stroke-width="3.22717"/>
<path d="M11.6073 161.836C21.8587 153.565 36.7973 131.173 14.5647 107.32" stroke="white" stroke-width="3.22717"/>
<path d="M12.5853 161.914C3.89314 151.959 -7.68942 127.211 15.5421 107.408" stroke="white" stroke-width="3.22717"/>
<path d="M143.676 109.858C153.927 101.587 168.866 79.195 146.633 55.3421" stroke="white" stroke-width="3.22717"/>
<path d="M144.656 109.934C135.964 99.9797 124.381 75.232 147.613 55.4286" stroke="white" stroke-width="3.22717"/>
<path d="M144.829 56.4389C155.081 48.1682 170.019 25.7759 147.787 1.92304" stroke="white" stroke-width="3.22717"/>
<path d="M145.81 56.5156C137.117 46.561 125.535 21.8133 148.766 2.00994" stroke="white" stroke-width="3.22717"/>
<path d="M143.676 214.537C153.927 206.267 168.866 183.874 146.633 160.022" stroke="white" stroke-width="3.22717"/>
<path d="M144.656 214.615C135.963 204.66 124.381 179.913 147.612 160.109" stroke="white" stroke-width="3.22717"/>
<path d="M143.676 161.837C153.927 153.566 168.866 131.174 146.633 107.321" stroke="white" stroke-width="3.22717"/>
<path d="M144.656 161.913C135.964 151.959 124.381 127.211 147.613 107.408" stroke="white" stroke-width="3.22717"/>
</g>
<defs>
<clipPath id="clip0_117_8758">
<rect width="160.784" height="214.762" fill="white" transform="translate(0.407715 0.925781)"/>
</clipPath>
</defs>
</svg>
