<svg width="217" height="289" viewBox="0 0 217 289" fill="none" xmlns="http://www.w3.org/2000/svg">
<g clip-path="url(#clip0_205_2433)">
<rect width="215.14" height="287.365" transform="translate(1.05078 0.797058) rotate(0.0480472)" fill="black"/>
<path d="M164.356 257.991C144.894 233.254 94.2052 199.074 47.8423 257.972" stroke="white" stroke-width="4.31816"/>
<path d="M164.324 255.513C144.865 278.619 94.5979 310.85 48.2471 254.924" stroke="white" stroke-width="4.31816"/>
<path d="M164.542 35.7295C145.081 10.992 94.3917 -23.1877 48.0288 35.7101" stroke="white" stroke-width="4.31816"/>
<path d="M164.511 33.2506C145.052 56.3566 94.7846 88.5881 48.4339 32.6615" stroke="white" stroke-width="4.31816"/>
<path d="M0.402214 204.771C33.2294 209.486 95.3347 200.473 82.412 128.762" stroke="white" stroke-width="4.31816"/>
<path d="M2.33779 206.5C-1.8375 177.538 8.61015 122.05 84.481 131.176" stroke="white" stroke-width="4.31816"/>
<path d="M131.638 280.539C164.465 285.254 226.57 276.241 213.647 204.529" stroke="white" stroke-width="4.31816"/>
<path d="M133.573 282.268C129.397 253.306 139.845 197.819 215.716 206.945" stroke="white" stroke-width="4.31816"/>
<path d="M3.09753 79.4554C35.9247 84.1709 98.0301 75.1577 85.1073 3.44615" stroke="white" stroke-width="4.31816"/>
<path d="M5.03261 81.185C0.857319 52.2229 11.305 -3.26443 87.1759 5.86142" stroke="white" stroke-width="4.31816"/>
<path d="M212.468 81.4498C216.838 51.1971 205.585 -5.62601 127.833 7.88591" stroke="white" stroke-width="4.31816"/>
<path d="M214.29 79.6324C182.864 84.1309 122.228 75.8101 130.398 5.93022" stroke="white" stroke-width="4.31816"/>
<path d="M3.44652 204.239C-2.87082 234.2 4.68978 291.536 83.1783 282.288" stroke="white" stroke-width="4.31816"/>
<path d="M1.49734 205.954C33.1587 203.177 93.1505 214.789 80.4782 284.1" stroke="white" stroke-width="4.31816"/>
<path d="M6.11498 78.9224C-0.202368 108.883 7.35824 166.219 85.8468 156.971" stroke="white" stroke-width="4.31816"/>
<path d="M4.16579 80.6375C35.8271 77.8604 95.8189 89.4726 83.1467 158.783" stroke="white" stroke-width="4.31816"/>
<path d="M49.5641 253.843C47.6043 253.841 53.4651 254.325 55.3628 254.815C61.2136 256.324 66.6331 259.124 72.4342 260.789C85.2607 264.473 98.7666 265.121 112.02 265.132C126.194 265.144 141.635 263.882 154.014 256.387C160.002 252.762 165.077 248.123 169.793 242.969C171.558 241.039 173.603 238.943 174.631 236.549" stroke="white" stroke-width="15.8043" stroke-linecap="round"/>
<path d="M63.6968 257.479C56.1172 257.228 49.7183 249.649 45.7457 243.932C41.6077 237.977 38.5235 231.308 34.9076 225.034C33.224 222.113 31.5045 219.366 30.1827 216.25C28.8969 213.219 27.714 209.977 27.5326 206.663C27.2187 200.925 27.0185 194.572 28.2322 188.943C28.4696 187.842 31.8434 179.873 31.1398 179.521" stroke="white" stroke-width="15.8043" stroke-linecap="round"/>
<path d="M24.2508 181.69C24.4838 182.625 25.0968 179.957 25.5619 179.113C26.61 177.211 27.6205 175.369 28.2451 173.276C30.4661 165.833 29.7307 157.333 30.4196 149.657C31.1831 141.148 31.1791 132.446 31.1862 123.902C31.1923 116.698 31.3754 109.072 30.0568 101.951C29.1084 96.8297 27.4253 91.8751 26.5053 86.7244C25.4387 80.7529 25.7063 75.4526 27.6071 69.6087C32.3858 54.9162 46.0194 48.1835 58.8028 41.8052" stroke="white" stroke-width="15.8043" stroke-linecap="round"/>
<path d="M58.8029 41.8055C64.074 41.5648 69.0266 39.623 74.1903 38.7777C78.6139 38.0536 83.0976 38.2012 87.5619 38.205C99.6083 38.2151 111.787 38.2712 123.61 35.6979C129.982 34.3108 136.646 33.0499 143.165 32.8548C147.312 32.7307 151.624 32.5902 155.751 33.0667C159.715 33.5245 163.129 35.2266 166.642 37.0026C173.588 40.5147 181.548 43.4253 186.386 49.8869" stroke="white" stroke-width="15.8043" stroke-linecap="round"/>
<path d="M38.1214 160.114C38.1216 159.941 37.6339 160.898 37.6025 160.943C36.1327 163.073 34.7165 165.23 33.1701 167.306C29.5206 172.207 26.115 177.267 22.6748 182.311C21.8659 183.497 21.1538 184.745 20.3768 185.951C19.3036 187.617 17.4869 188.757 16.3014 190.36C14.8868 192.273 15.0572 194.628 13.1724 196.221C12.4499 196.831 11.8215 197.55 11.305 198.336C11.1695 198.543 10.3708 200.043 10.371 199.801" stroke="white" stroke-width="15.8043" stroke-linecap="round"/>
<path d="M10.5451 199.979C11.0872 200.461 12.4452 200.167 13.1148 200.167C13.7844 200.168 14.0887 200.338 14.0893 199.609" stroke="white" stroke-width="15.8043" stroke-linecap="round"/>
<path d="M22.8719 179.845C22.8756 175.437 22.8793 171.03 22.883 166.623C22.8844 164.877 22.9623 162.359 23.8619 160.779C24.8505 159.043 25.6888 157.094 25.6905 155.04C25.6912 154.224 26.073 153.006 24.946 153.174C23.9665 153.32 23.6408 155.046 23.2651 155.743C22.4093 157.329 21.7989 159.015 20.9399 160.611C18.5658 165.023 16.2042 169.346 14.3383 174.014C12.5663 178.447 11.2453 183.022 9.61217 187.502C9.14774 188.776 8.70058 190.124 8.50008 191.47C8.4734 191.649 8.12584 192.901 8.12648 192.143" stroke="white" stroke-width="15.8043" stroke-linecap="round"/>
<path d="M29.2076 187.683C29.7977 188.156 29.9486 187.602 30.181 188.389C30.4241 189.212 30.3933 190.229 30.2824 191.083C30.1569 192.05 29.9544 193.287 30.4041 194.213C30.7776 194.981 31.8352 195.384 32.5582 195.707C33.721 196.224 35.6301 196.292 36.8894 196.042C37.8629 195.848 38.7154 195.322 39.6879 195.111C40.9261 194.843 42.3246 194.294 43.4713 193.747C48.3123 191.437 52.8827 188.578 56.5457 184.629C57.6047 183.487 58.7162 182.364 59.6056 181.077C60.6872 179.511 61.4271 177.572 62.2316 175.857C64.2659 171.52 66.3424 167.039 66.3465 162.161" stroke="white" stroke-width="15.8043" stroke-linecap="round"/>
<path d="M72.3261 148.364C72.3284 145.601 72.3214 153.89 72.3191 156.654C72.3163 160.024 70.6811 162.905 69.327 165.936C67.0603 171.009 64.0778 176.226 60.2791 180.321C58.9442 181.761 57.5223 182.99 56.4828 184.681C56.2867 185 55.7758 185.706 55.891 186.11C55.961 186.356 57.2484 186.215 57.466 186.215C58.5414 186.216 60.0939 185.402 60.7315 184.498C62.5235 181.956 64.0736 179.219 65.8363 176.647C67.6737 173.967 69.1357 171.046 70.7965 168.258C72.3769 165.605 72.7137 162.794 73.2491 159.805C73.9351 155.974 74.7477 152.094 74.751 148.19C74.7517 147.337 75.2879 143.93 74.1019 143.723C72.8692 143.508 71.7015 144.066 70.723 144.757C67.9933 146.684 65.6018 149.073 63.2048 151.382C57.6908 156.693 52.5749 162.346 47.5438 168.114C43.5299 172.716 39.6263 177.41 35.191 181.616C33.0746 183.624 31.0313 185.669 28.5959 187.289C27.5022 188.017 27.981 187.226 28.5448 186.377C32.1078 181.018 36.1521 175.732 40.495 170.989C44.1942 166.949 49.4629 161.534 55.3213 161.075C56.5792 160.976 58.7259 161.268 58.2107 163.077C57.7437 164.717 55.9484 167.207 55.1909 168.39C54.3416 169.717 53.4529 171.019 52.6384 172.367C44.8686 185.228 55.2751 168.299 48.0511 180.985" stroke="white" stroke-width="15.8043" stroke-linecap="round"/>
<path d="M54.9637 167.189C54.9597 171.92 48.8133 172.3 45.4466 172.59" stroke="white" stroke-width="15.8043" stroke-linecap="round"/>
<path d="M49.2286 112.16C49.2228 119.038 48.9059 125.889 48.5585 132.759C48.3169 137.536 48.399 142.887 46.971 147.514C46.5629 148.836 46.2149 150.38 45.3719 151.502C44.3417 152.873 43.82 148.329 43.8101 148.112C43.689 145.462 43.7574 142.703 45.1429 140.362C46.4416 138.168 48.3545 136.083 50.4946 134.688C51.9015 133.771 53.4643 133.378 55.1379 133.428C56.8651 133.48 58.5547 134.77 59.9338 135.691C61.6524 136.839 63.2455 138.183 64.8112 139.529C65.5233 140.141 66.7166 140.954 66.7157 142.028C66.7141 143.951 62.9964 145.281 61.5936 145.754C61.4708 145.795 58.8986 146.823 58.8992 146.073C58.8999 145.279 59.8237 144.583 60.3101 144.064C61.3847 142.916 62.5575 141.883 63.6081 140.709C65.6741 138.401 67.9815 136.241 70.1627 134.042C71.1181 133.078 72.495 131.89 72.5283 130.417C72.5347 130.136 72.6595 126.997 72.3447 126.997C71.7274 126.996 73.6983 133.342 73.7898 133.672C74.2387 135.287 74.5745 136.952 74.5731 138.625C74.5729 138.908 74.726 139.766 75.0286 139.144C75.8809 137.393 75.3922 135.629 74.5978 133.952C72.1185 128.716 69.5101 123.939 65.6465 119.562C61.986 115.415 57.6958 112.422 52.546 110.411C49.0644 109.052 45.3591 108.446 41.7301 107.594C41.2765 107.487 40.27 107.074 39.803 107.344C39.2859 107.642 41.7206 110.907 41.8308 111.096C44.5873 115.826 46.9231 120.817 50.088 125.3C52.2855 128.412 54.9537 131.899 58.6301 133.338C59.09 133.517 64.5682 134.422 64.2571 132.938C64.1688 132.517 63.5405 132.104 63.2425 131.901C61.7374 130.878 60.0149 130.1 58.3744 129.327C54.8259 127.656 51.1464 126.104 47.3733 125.018C44.9551 124.321 42.4888 124.279 41.9417 127.117C41.3312 130.284 40.9895 134.219 43.571 136.61C45.3163 138.226 48.0774 137.986 49.2501 135.91C51.6298 131.696 50.6541 126.835 48.7017 122.563C47.4444 119.812 45.611 117.285 43.9209 114.787C42.6876 112.964 41.4764 111.077 40.0499 109.396C37.924 106.89 35.6411 104.96 34.6266 101.682C34.1049 99.9956 34.1005 98.0392 33.7607 96.2924C33.5113 95.0103 33.7631 93.4059 32.9765 92.2712C32.553 91.6602 32.2831 91.0151 31.8175 90.4154C31.6316 90.176 31.8679 90.0617 32.0871 90.1773C32.5942 90.4447 32.9787 91.0994 33.3087 91.5358C34.6017 93.2455 36.7842 93.782 38.6946 94.5246C41.1336 95.4727 43.6657 96.0623 46.06 97.1421C49.4586 98.6749 52.1336 100.443 54.7385 103.128C58.1767 106.672 61.4855 110.626 64.4176 114.597C65.7779 116.44 67.0128 118.365 68.3298 120.237C69.3697 121.716 70.4155 123.093 71.1238 124.768C71.9541 126.732 72.4149 128.689 72.984 130.728C73.0739 131.05 73.0874 132.107 73.4593 132.283C74.1361 132.602 74.7591 129.782 74.7675 129.341C74.8554 124.717 74.9121 120.594 71.6692 116.945C69.6664 114.691 67.5737 112.452 65.4574 110.308C63.5094 108.335 61.5903 106.295 59.4936 104.479C57.8119 103.023 56.2825 101.554 54.3781 100.372C52.8144 99.4008 51.0655 98.7525 49.344 98.1292C47.7552 97.554 46.3048 97.0168 44.7757 96.3016C43.4549 95.6839 42.0124 95.1859 40.736 94.516C39.5185 93.8769 38.168 93.5921 36.9239 93.031C36.0817 92.6511 34.8462 92.5193 36.5718 92.7509C40.2034 93.2382 43.4846 95.4919 46.8063 96.8629C51.1491 98.6554 53.9257 101.806 57.0268 105.223C58.8292 107.209 60.703 109.315 62.0989 111.611C62.6697 112.55 63.5298 114.803 64.7073 115.115C66.2505 115.525 65.0433 112.175 64.8552 111.675C63.7737 108.801 62.606 106.261 60.551 103.941C59.8277 103.125 58.9232 102.498 58.014 101.908C57.2632 101.422 56.6928 100.731 55.9533 100.228C54.2774 99.0887 52.4419 98.2544 50.671 97.2806C48.9875 96.3549 47.2948 95.402 45.6581 94.3957C45.2948 94.1724 44.3929 93.6869 44.2083 93.3168" stroke="white" stroke-width="15.8043" stroke-linecap="round"/>
<path d="M29.6426 114.009C31.7824 115.884 26.5354 109.236 24.8301 106.959C23.567 105.271 22.3572 103.515 20.9899 101.909C20.4807 101.311 19.6592 100.765 19.4372 99.9698C18.9546 98.2406 18.0928 96.7958 18.0943 94.9741C18.0956 93.3831 17.4572 91.8069 17.1242 90.2688C16.917 89.312 16.2001 88.5054 16.0591 87.5841C15.9372 86.7873 15.87 86.0193 14.931 86.0185C13.6912 86.0174 13.6845 88.4785 13.6122 89.3022C13.4314 91.3613 12.7537 93.3463 12.5398 95.4047C12.1638 99.0214 12.0349 102.576 12.1266 106.222C12.2533 111.265 13.5385 116.351 14.7149 121.229C15.7053 125.336 17.6509 129.44 20.3112 132.736C22.2343 135.119 24.0711 137.591 26.2636 139.746C26.3966 139.877 27.8736 141.338 27.9311 140.825C28.0598 139.675 27.7336 138.571 27.4676 137.467C26.3171 132.694 25.3101 127.965 24.7233 123.082C24.3882 120.294 24.4171 117.51 24.4194 114.709C24.4198 114.321 24.6055 113.444 24.2341 113.258" stroke="white" stroke-width="15.8043" stroke-linecap="round"/>
<path d="M43.8843 21.0066C43.4908 23.161 41.7133 25.4503 40.727 27.3491C38.1147 32.3783 35.5258 37.4756 33.4213 42.7424C32.0167 46.2575 31.0918 50.4611 28.849 53.5954C26.772 56.498 23.9718 58.8576 21.951 61.7992C20.9159 63.3062 20.1331 64.9343 19.6499 66.7004C19.3598 67.7606 19.4311 68.5759 18.6279 69.3777" stroke="white" stroke-width="15.8043" stroke-linecap="round"/>
<path d="M18.6256 69.3777C18.4523 70.4121 17.4815 71.3461 17.0781 72.312C16.825 72.9179 16.6068 73.5834 16.582 74.2378C16.5332 75.5258 15.8446 76.9425 15.4251 78.1511C14.9929 79.3963 14.1632 76.8118 14.1285 76.5637C13.7926 74.1604 13.8029 71.7969 13.8049 69.3736C13.8071 66.7787 14.1366 64.1872 14.5531 61.6282C15.2771 57.1798 15.6892 52.6795 16.6038 48.2597C17.7901 42.527 20.3845 37.696 24.6711 33.7117C25.7316 32.726 27.0891 31.999 28.2373 31.1086C29.8525 29.8561 31.4703 28.6519 33.1434 27.4766C35.526 25.803 37.8526 24.0462 40.1831 22.3013C40.7603 21.8691 41.3302 21.5163 41.8426 21.0049C41.9404 20.9072 40.4127 21.7525 40.0804 21.9304C38.0999 22.991 35.8449 23.8732 33.9592 25.0876C32.2143 26.2112 30.6067 27.5795 28.5899 28.2145C28.2847 28.3106 27.6638 28.8165 27.374 28.78C27.0146 28.7348 29.5271 26.7881 29.7037 26.6394C33.3132 23.6013 37.7412 21.6438 41.7822 19.2743C44.9872 17.395 48.2793 15.1389 51.7989 13.8852C54.9354 12.768 58.5761 12.3295 61.8948 12.3074C65.5388 12.283 69.1677 12.128 72.8136 12.1311C75.1161 12.133 78.0118 11.7266 80.1471 12.7965C80.7854 13.1163 80.5994 13.9575 80.5989 14.5583C80.5971 16.6641 80.6619 18.7569 80.2228 20.831C79.4121 24.6601 76.9542 28.5214 74.0132 31.0852C70.7441 33.9351 66.7028 34.1071 62.515 34.3306C59.97 34.4664 57.3992 34.3675 54.8513 34.3654C52.7699 34.3636 50.4031 34.3123 48.567 35.452C46.3306 36.8401 44.1751 39.0848 42.7114 41.2566C42.4506 41.6436 40.8725 44.5283 42.3493 43.1619C45.55 40.2004 47.2852 35.8328 50.0734 32.5072C52.9483 29.0783 56.8376 25.5607 61.1125 24.0185C63.6534 23.1018 66.3639 23.1269 69.0342 23.2938C70.1007 23.3604 71.5204 23.4512 72.5153 23.9045C72.8735 24.0676 72.4629 24.0209 72.2061 24.1823C71.4424 24.6623 71.0601 25.1483 70.783 26.0558C70.1145 28.2459 70.5728 31.0669 70.5709 33.3279C70.5685 36.1602 70.7954 39.0808 70.1929 41.8668C69.3566 45.7342 67.5085 49.6721 64.8791 52.6471C61.4558 56.5203 56.8247 58.5791 52.398 61.1037C47.3795 63.9658 42.5211 67.0246 37.6502 70.125C36.0322 71.1549 34.5236 72.3123 32.9401 73.3863C32.538 73.659 32.0302 73.8883 31.7239 74.2814C31.1442 75.0254 33.2734 73.2052 34.0326 72.6456C47.3074 62.8598 60.4887 52.9467 73.7147 43.0955" stroke="white" stroke-width="15.8043" stroke-linecap="round"/>
<path d="M76.6822 42.542C76.6784 47.1476 73.176 51.2758 69.5344 53.8357C67.3769 55.3524 65.0162 56.5695 62.8458 58.0637C60.8392 59.445 58.9264 60.5342 56.6832 61.4783C54.8104 62.2665 53.0919 63.4947 51.3346 64.5022C49.7004 65.4392 47.9761 65.8491 46.2547 66.5169C45.6835 66.7385 42.4501 68.1859 42.175 67.3581" stroke="white" stroke-width="15.8043" stroke-linecap="round"/>
<path d="M84.6515 46.6283C85.9623 47.9413 87.1136 49.1877 88.5832 50.3398C89.1947 50.8192 89.837 51.2815 90.4773 51.7217C90.6232 51.822 91.7531 52.9176 91.6403 52.9175C90.9196 52.9169 90.1752 52.2518 89.6532 51.824C88.7236 51.0621 87.6365 50.4492 86.482 50.1114C85.4271 49.8028 84.4048 49.4086 83.3102 49.2641C82.4065 49.1449 81.9729 49.2421 83.0833 49.5112C86.8238 50.4173 90.3893 51.2755 93.9994 52.6105C97.1166 53.7633 100.04 54.8055 103.36 55.2553C106.52 55.6834 109.933 55.3973 113.115 55.3665C116.467 55.334 119.94 54.5108 123.17 53.6959C130.449 51.8596 137.843 49.4055 144.416 45.7308C148.448 43.4767 153.02 41.1969 156.32 37.902C156.717 37.5058 155.552 38.275 155.341 38.3544C152.659 39.364 149.864 39.5363 147.099 40.2119C141.473 41.5869 135.934 43.3051 130.305 44.6683C124.441 46.0886 118.496 47.2099 112.544 48.1968C108.408 48.8826 104.232 49.5627 100.048 49.8653C99.1222 49.9323 95.3344 50.6554 94.8468 49.3356C94.473 48.3238 94.6732 47.0312 94.6642 45.9775C94.6413 43.2898 94.2026 40.5832 94.022 37.9012C93.6877 32.9362 93.2687 28.1258 90.748 23.7455C90.1215 22.6568 87.2225 19.2931 88.1263 17.7895C88.8918 16.5162 89.2469 15.1626 89.6851 13.7427C89.8845 13.0967 91.8666 12.8545 92.4671 12.7459C96.4087 12.0326 100.421 11.4515 104.397 10.9636C106.493 10.7063 108.562 10.6786 110.67 10.6804C113.058 10.6824 115.482 10.5338 117.829 11.0572C122.442 12.0864 127.185 13.4599 131.267 15.8789C134.116 17.5674 137.019 19.1211 139.988 20.5936C141.612 21.3991 143.544 21.7269 145.074 22.6786C145.441 22.9068 145.638 23.0517 145.094 23.2142C143.608 23.6587 142.087 24.0397 140.561 24.3229C137.96 24.8055 135.181 24.7242 132.547 24.79C127.037 24.9275 121.549 25.1898 116.045 25.4354C111.468 25.6396 106.935 25.6197 102.365 26.0213C99.869 26.2407 96.8555 26.8273 94.3407 26.406C93.6899 26.297 93.4469 25.23 93.3945 24.6747C93.286 23.5251 95.9952 24.0125 96.6397 24.0594C98.276 24.1785 99.8935 24.5296 101.522 24.7228C105.049 25.1413 108.605 25.3089 112.151 25.4733C121.473 25.9056 130.804 26.2718 140.137 26.2796C141.301 26.2806 145.399 27.0267 145.917 25.3368C146.575 23.1883 145.366 22.1541 143.716 21.0911C142.169 20.0946 140.733 18.9433 139.269 17.8324C139.012 17.6379 137.998 17.0265 138.106 16.5439C138.227 15.9992 142.805 15.8989 143.432 15.8994C148.602 15.9037 153.665 17.0902 158.747 17.9517C160.958 18.3265 163.106 18.8975 165.194 19.7289C166.552 20.2696 167.458 21.3144 168.663 22.0391" stroke="white" stroke-width="15.8043" stroke-linecap="round"/>
<path d="M143.447 24.9845C142.959 24.9841 142.444 25.038 141.974 24.8905C141.364 24.6995 141.165 23.7348 140.852 23.2209C140.378 22.4403 139.78 21.7891 139.474 20.9124C139.24 20.2413 139.241 19.399 138.827 18.8105C137.838 17.4069 137.499 16.1175 137.007 14.6373C136.84 14.1334 140.45 15.311 140.787 15.3306C144.043 15.5194 146.999 14.7583 150.151 14.0405C154.176 13.1241 159.255 12.1366 163.316 13.3614C168.128 14.8128 172.356 17.6003 176.598 20.1916C182.396 23.7339 187.643 27.7776 191.574 33.4198C194.025 36.937 195.753 40.762 197.549 44.6319C198.909 47.5623 200.123 50.6043 200.962 53.7302C201.089 54.2053 201.813 57.1701 200.917 57.3972C199.743 57.695 198.41 55.9925 197.747 55.3344C195.751 53.3555 193.744 51.3967 191.633 49.5403C185.984 44.5739 180.246 39.7312 174.381 35.0226C173.152 34.0355 172.026 32.9542 170.84 31.9191C170.647 31.7507 170.123 31.4568 170.141 31.1254C170.223 29.5833 173.134 28.677 174.242 28.4404C176.16 28.0312 178.123 28.1655 180.073 28.1672C182.44 28.1692 184.612 28.1438 186.871 28.9248C191.453 30.5094 195.777 32.8573 198.936 36.6707C199.969 37.9163 201.374 39.3673 201.796 40.9787C201.832 41.1132 201.837 41.927 201.837 41.7204" stroke="white" stroke-width="15.8043" stroke-linecap="round"/>
<path d="M174.405 28.904C175.866 28.8566 177.029 29.0796 178.463 29.268C179.376 29.3878 180.238 29.6506 181.162 29.6513C182.482 29.6525 182.21 27.7986 183.265 27.0574C184.354 26.2927 185.584 26.206 186.851 25.8552C187.75 25.6063 188.761 25.7417 187.944 24.6509" stroke="white" stroke-width="15.8043" stroke-linecap="round"/>
<path d="M163.463 34.8277C162.835 34.9056 163.252 46.6909 163.266 47.8269C163.312 51.3694 164.617 54.1193 166.781 56.8944C166.914 57.0647 168.396 59.1273 168.892 58.5339C169.496 57.8103 153.52 49.2068 151.431 48.2805C150.594 47.9097 148.173 46.5271 148.66 48.4327C149.776 52.8039 153.2 55.9243 156.789 58.2869C160.321 60.6126 164.874 61.6538 168.981 62.3761C169.707 62.5038 171.049 62.89 169.424 62.8194C168.196 62.7662 167.366 62.242 166.345 61.5911C164.168 60.2031 161.983 58.8265 159.777 57.4859C155.466 54.8671 150.756 52.3863 146.764 49.2757C146.664 49.1985 145.775 48.425 145.662 48.8216C145.59 49.072 145.543 49.8741 145.671 50.0989C145.823 50.3647 147.058 50.203 147.216 50.2032C149.711 50.2053 152.194 50.2382 154.684 50.4155C160.707 50.8443 166.73 51.7822 172.677 52.8203C175.725 53.3524 178.937 53.8827 181.843 54.9911C182.794 55.354 184.345 55.828 185.096 56.5801C185.796 57.2815 182.628 57.4636 182.603 57.4639C178.576 57.509 174.596 57.1042 170.582 56.8976C168.394 56.7849 164.973 55.8002 163.443 57.9216C162.352 59.4345 162.377 61.3235 161.626 63.0086C161.383 63.555 161.766 63.3459 162.223 63.4211C164.14 63.7365 166.054 64.3147 167.908 64.8783C171.89 66.0887 175.859 67.5819 179.936 68.4009" stroke="white" stroke-width="15.8043" stroke-linecap="round"/>
<path d="M160.846 56.8894C159.905 56.8886 158.646 56.558 158.24 57.6392C157.782 58.8554 157.506 59.7479 157.505 61.0687C157.505 61.4295 157.377 62.0716 157.618 62.3666C158.587 63.553 160.734 64.0768 162.014 64.8219C165.911 67.0898 170.083 68.7074 174.226 70.3944C176.482 71.3133 178.567 71.9553 180.971 72.2027C184.794 72.596 188.769 72.3019 192.611 72.3052C193.087 72.3056 198.431 72.6699 198.472 71.9392C198.56 70.3735 197.746 68.5072 197.158 67.1072C196.499 65.5394 195.486 63.422 193.7 62.8913C193.26 62.7606 193.561 63.4713 193.617 63.6329C194 64.7425 195.726 65.0734 196.726 65.4381C198.293 66.0092 199.956 66.7161 201.587 67.08C201.909 67.1519 202.642 67.3962 202.73 67.7917C203.001 69.0189 203.211 71.126 204.075 72.0882C204.336 72.3787 205.331 73.2299 205.332 72.3055C205.334 70.3107 204.924 68.3757 204.678 66.3924C204.406 64.2047 204.297 61.999 203.942 59.82C203.563 57.5006 202.754 55.4251 202.052 53.2157C201.697 52.1004 201.558 50.8153 201.004 49.7848C200.829 49.4594 200.716 48.9425 200.717 48.5793" stroke="white" stroke-width="15.8043" stroke-linecap="round"/>
<path d="M10.334 202.324C10.3353 200.85 10.3316 205.271 10.3303 206.745C10.3284 209.087 10.2617 211.44 10.3733 213.78C10.5328 217.125 11.2788 220.359 11.965 223.625C13.3527 230.231 14.8161 236.847 16.3819 243.415C16.9684 245.875 17.7898 248.663 17.9753 251.196C18.1244 253.232 17.8172 251.533 17.5241 250.39C16.3311 245.734 14.6886 241.141 13.261 236.548C12.3926 233.754 12.1398 230.67 11.082 227.96C10.8507 227.368 10.3136 226.689 10.3141 226.067" stroke="white" stroke-width="15.8043" stroke-linecap="round"/>
<path d="M16.9282 203.428C16.9219 210.986 20.7964 217.97 24.3363 224.49C28.0824 231.39 32.9537 237.81 37.327 244.311C38.8279 246.542 40.3478 249.252 42.83 250.496" stroke="white" stroke-width="15.8043" stroke-linecap="round"/>
<path d="M33.6253 215.973C33.8523 215.068 39.7892 217.763 40.4386 218.177C43.1135 219.883 45.8715 221.461 48.5318 223.204C51.257 224.989 53.5975 227.034 55.9403 229.292C58.1907 231.461 60.4315 233.582 62.5544 235.881C64.9726 238.499 67.743 240.764 70.096 243.435C70.3081 243.676 74.8099 247.994 72.4616 247.883C71.6635 247.845 71.0946 247.234 70.484 246.782C67.5028 244.574 64.548 242.324 61.5127 240.191C56.6657 236.786 51.7805 232.89 46.4619 230.225C45.4919 229.739 47.1487 230.536 47.231 230.58C50.7663 232.451 53.9683 235.348 57.0078 237.904C59.7928 240.245 62.4756 242.739 65.6126 244.616C66.669 245.248 67.8297 246.036 69.0922 246.109C74.1387 246.401 65.8155 236.865 64.7776 235.516C63.7265 234.151 62.7321 232.744 61.5321 231.508C60.9926 230.952 60.0182 230.137 59.7752 229.405" stroke="white" stroke-width="15.8043" stroke-linecap="round"/>
<path d="M68.553 249.638C69.7873 250.22 71.7268 249.861 73.0717 249.862C75.3841 249.864 77.6965 249.866 80.0089 249.868C83.5166 249.871 87.0076 249.786 90.5126 249.657C93.0636 249.562 95.8557 249.115 98.4026 249.492C99.3977 249.639 100.115 250.367 100.795 251.033C102.197 252.407 103.717 253.481 105.519 254.274C107.373 255.089 109.245 255.416 111.221 255.732C114.076 256.188 115.997 255.785 118.673 254.736" stroke="white" stroke-width="15.8043" stroke-linecap="round"/>
<path d="M22.1777 234.87C22.3238 240.138 25.072 245.24 28.1012 249.422C29.6906 251.616 31.6058 253.451 33.5679 255.301C34.3858 256.072 35.3125 257.241 36.4484 257.526" stroke="white" stroke-width="15.8043" stroke-linecap="round"/>
<path d="M20.8481 246.74C20.2151 246.819 20.6387 254.612 20.8408 255.388C21.199 256.762 22.0638 259.422 23.1572 260.36C25.6054 262.462 28.1649 264.581 30.8954 266.437C34.3854 268.809 38.6495 271.378 43.0192 271.381C45.5385 271.383 47.9081 272.599 50.2846 273.195C51.9886 273.622 53.8095 273.809 55.5603 273.81C57.0543 273.811 58.4787 274.252 59.9567 274.253C62.6421 274.256 65.4395 274.798 68.1397 274.309C70.7 273.846 78.4529 273.365 75.8595 273.155C73.5865 272.972 71.7558 271.269 70.0731 269.914C64.5476 265.463 58.6241 261.624 52.2755 258.443C47.6731 256.137 42.3091 253.655 37.1109 253.178C36.474 253.12 34.0328 253.608 34.0335 252.687" stroke="white" stroke-width="15.8043" stroke-linecap="round"/>
<path d="M34.0337 252.467C34.8873 252.558 35.4599 253.291 36.0722 253.825C38.1535 255.641 40.5134 257.221 42.8832 258.63C46.272 260.646 49.3333 261.919 53.1514 262.596" stroke="white" stroke-width="15.8043" stroke-linecap="round"/>
<path d="M79.309 267.234C80.2234 267.463 81.1898 268.221 82.0314 268.653C83.3179 269.313 84.586 269.952 85.7914 270.757C87.1743 271.68 88.7649 272.249 90.0762 273.288C90.2085 273.393 91.6679 274.264 91.2965 274.45C90.4062 274.894 88.4358 274.185 87.6576 273.665C86.5919 272.953 90.3086 273.782 91.4309 274.401C92.967 275.247 94.559 276.103 95.8986 277.238C97.931 278.961 100.997 278.684 103.482 278.686C108.969 278.69 114.552 276.943 119.314 274.302C120.459 273.667 121.795 273.565 122.955 272.986C124.589 272.171 126.302 271.686 128.013 271.061C130.337 270.212 133.197 269.875 135.099 268.111C135.628 267.62 136.028 267.363 136.029 266.622" stroke="white" stroke-width="15.8043" stroke-linecap="round"/>
<path d="M136.03 266.403C137.659 266.404 139.287 266.406 140.915 266.407C141.929 266.408 143.145 266.597 144.116 266.239C144.545 266.08 144.825 265.36 144.825 264.92C144.826 263.314 144.608 261.701 144.609 260.084C144.612 256.805 144.835 253.527 144.837 250.24C144.839 248.422 143.144 246.299 141.336 245.755C139.894 245.321 138.452 245.161 136.939 245.311C135.681 245.436 136.073 247.1 136.033 247.961C136.014 248.374 135.38 251.954 135.749 252.089C137.128 252.592 139.559 250.708 140.502 249.919C141.76 248.866 141.684 247.375 140.847 246.145C139.755 244.541 138.604 242.886 136.82 242.014C135.597 241.416 134.595 240.749 133.463 240.02C129.815 237.67 125.05 237.143 120.984 235.832C117.421 234.684 113.556 233.942 109.848 233.405C107.482 233.062 105.03 232.944 102.642 232.788C100.333 232.637 97.6489 232.458 95.3632 232.868C90.9067 233.666 86.6086 235.933 82.974 238.549C82.3511 238.997 77.3656 243.71 79.6232 243.712C91.3184 243.722 102.838 244.343 114.319 246.843C120.902 248.277 127.542 250.313 133.39 253.711C135.735 255.073 137.814 257.07 140.214 258.272" stroke="white" stroke-width="15.8043" stroke-linecap="round"/>
<path d="M152.972 249.49C152.975 247.031 152.977 244.572 152.979 242.113C152.98 241.008 153.384 237.682 151.615 237.617C150.544 237.578 149.754 237.94 148.915 238.592C148.058 239.257 150.023 237.009 150.272 236.81C152.185 235.277 153.48 233.167 155.418 231.672C157.023 230.434 158.337 228.867 159.891 227.56C161.564 226.154 163.388 224.991 165.11 223.656C169.707 220.092 175.193 217.417 180.823 215.987C185.766 214.732 190.593 214.566 195.663 214.571C198.942 214.573 202.255 213.697 205.557 213.7C205.921 213.7 207.529 213.484 206.546 213.749C203.123 214.671 199.692 216.223 196.564 217.857C186.276 223.231 176.002 228.868 166.37 235.358C162.455 237.996 158.311 240.645 154.956 243.995" stroke="white" stroke-width="15.8043" stroke-linecap="round"/>
<path d="M122.839 267.272C123.103 267.978 128.505 267.496 129.275 267.497C132.278 267.499 135.116 267.483 137.885 268.823C141.324 270.487 144.24 272.733 148.116 273.18C149.868 273.381 152.061 273.469 153.807 273.221C154.39 273.138 153.462 273 153.27 273.025C152.515 273.125 151.718 273.418 150.961 273.573C148.835 274.009 146.653 274.004 144.5 273.653C142.988 273.406 141.124 273.408 139.664 272.989C138.116 272.546 142.842 272.345 144.453 272.346C149.228 272.35 154.223 272.766 158.962 272.138C165.144 271.319 171.134 269.673 176.908 267.317C181.964 265.254 186.698 262.705 190.777 259.023C193.762 256.329 196.266 252.222 197.992 248.599C199.838 244.724 201.364 240.801 202.887 236.781C204.14 233.472 205.915 230.288 206.633 226.806C207.103 224.523 208.996 222.05 208.8 219.675C208.546 216.595 201.235 222.47 200.774 222.856C197.958 225.206 194.888 227.212 192.072 229.566C188.45 232.592 184.949 235.755 181.292 238.741C174.332 244.426 167.105 249.701 159.929 255.101C159.673 255.294 154.659 259.011 156.811 259.483C159.923 260.167 163.2 258.936 166.168 258.197C171.28 256.923 176.284 255.418 181.024 253.067C186.669 250.267 190.618 246.506 194.517 241.659C196.485 239.212 198.608 236.74 201.166 234.886C201.398 234.719 206.096 230.411 206.361 230.677C206.616 230.932 206.412 232.298 206.408 232.607C206.382 234.401 206.047 236.242 205.524 237.955C203.689 243.968 198.594 249.102 194.641 253.799C193.8 254.798 192.959 255.813 192.147 256.826C191.971 257.046 193.493 257 193.563 256.998C194.951 256.964 195.929 256.392 196.887 255.413C197.45 254.838 197.672 253.992 198.085 253.314C198.619 252.438 199.259 251.668 199.7 250.726C200.548 248.912 200.975 246.676 201.512 244.743C201.822 243.63 202.003 242.55 202.004 241.397" stroke="white" stroke-width="15.8043" stroke-linecap="round"/>
</g>
<defs>
<clipPath id="clip0_205_2433">
<rect width="215.14" height="287.365" fill="white" transform="translate(1.05078 0.797058) rotate(0.0480472)"/>
</clipPath>
</defs>
</svg>
