<svg width="162" height="216" viewBox="0 0 162 216" fill="none" xmlns="http://www.w3.org/2000/svg">
<g clip-path="url(#clip0_117_8464)">
<rect width="160.784" height="214.762" transform="translate(0.497559 0.481445)" fill="black"/>
<path d="M76.3831 110.154C89.8486 101.672 109.471 78.7064 80.2677 54.2428" stroke="white" stroke-width="3.22717"/>
<path d="M77.6701 110.232C66.2528 100.023 51.0388 74.6417 81.5539 54.3313" stroke="white" stroke-width="3.22717"/>
<path d="M76.5979 57.4168C90.0633 48.9343 109.686 25.9687 80.4825 1.50514" stroke="white" stroke-width="3.22717"/>
<path d="M77.8849 57.496C66.4675 47.2865 51.2535 21.9052 81.7687 1.59482" stroke="white" stroke-width="3.22717"/>
<path d="M0.503121 29.5688C10.7583 43.5895 37.2498 63.2185 61.6788 29.5688" stroke="white" stroke-width="3.22717"/>
<path d="M0.512594 30.9772C10.7659 17.7726 37.2523 -0.713962 61.6768 30.9772" stroke="white" stroke-width="3.22717"/>
<path d="M98.4264 28.0585C108.682 42.0793 135.173 61.7083 159.602 28.0586" stroke="white" stroke-width="3.22717"/>
<path d="M98.4395 29.467C108.693 16.2623 135.179 -2.22422 159.604 29.4669" stroke="white" stroke-width="3.22717"/>
<path d="M77.6237 214.066C91.0892 205.583 110.711 182.618 81.5083 158.154" stroke="white" stroke-width="3.22717"/>
<path d="M78.9107 214.145C67.4933 203.935 52.2794 178.554 82.7945 158.244" stroke="white" stroke-width="3.22717"/>
<path d="M77.8372 161.208C91.3027 152.725 110.925 129.76 81.7218 105.296" stroke="white" stroke-width="3.22717"/>
<path d="M79.1235 161.286C67.7062 151.077 52.4922 125.696 83.0073 105.385" stroke="white" stroke-width="3.22717"/>
</g>
<defs>
<clipPath id="clip0_117_8464">
<rect width="160.784" height="214.762" fill="white" transform="translate(0.497559 0.481445)"/>
</clipPath>
</defs>
</svg>
