<svg width="217" height="289" viewBox="0 0 217 289" fill="none" xmlns="http://www.w3.org/2000/svg">
<g clip-path="url(#clip0_205_2377)">
<rect width="215.14" height="287.365" transform="translate(1.16846 0.931854) rotate(0.0480472)" fill="black"/>
<path d="M72.999 99.0192C100.962 90.4531 146.789 59.2412 106.665 2.12246" stroke="white" stroke-width="4.31816"/>
<path d="M75.2616 99.7746C59.8835 76.3039 45.0306 24.229 108.921 2.89593" stroke="white" stroke-width="4.31816"/>
<path d="M43.5898 192.739C71.5532 184.173 117.38 152.961 77.256 95.8421" stroke="white" stroke-width="4.31816"/>
<path d="M45.8468 193.491C30.4687 170.02 15.6158 117.945 79.5066 96.6122" stroke="white" stroke-width="4.31816"/>
<path d="M14.239 286.749C42.2024 278.183 88.0289 246.971 47.9052 189.852" stroke="white" stroke-width="4.31816"/>
<path d="M16.5016 287.505C1.12353 264.034 -13.7294 211.959 50.1614 190.626" stroke="white" stroke-width="4.31816"/>
<path d="M143.112 99.3684C114.845 90.7374 68.551 59.3835 109.227 2.21426" stroke="white" stroke-width="4.31816"/>
<path d="M140.831 100.118C156.423 76.6251 171.533 24.4675 106.952 2.98242" stroke="white" stroke-width="4.31816"/>
<path d="M172.697 193.332C144.431 184.701 98.1365 153.347 138.812 96.1782" stroke="white" stroke-width="4.31816"/>
<path d="M170.413 194.082C186.005 170.589 201.115 118.431 136.534 96.9464" stroke="white" stroke-width="4.31816"/>
<path d="M202.221 287.584C173.954 278.953 127.66 247.599 168.336 190.43" stroke="white" stroke-width="4.31816"/>
<path d="M199.936 288.335C215.529 264.841 230.638 212.684 166.058 191.199" stroke="white" stroke-width="4.31816"/>
<path d="M159.668 147.595C142.187 171.321 97.2111 204.52 56.3116 147.509" stroke="white" stroke-width="4.31816"/>
<path d="M159.63 149.986C142.454 127.612 97.9096 96.2726 56.2926 149.899" stroke="white" stroke-width="4.31816"/>
<path d="M27.8514 226.524C27.7821 227.075 24.4681 229.543 23.8802 230.391C22.0212 233.071 18.4892 231.691 16.9248 229.601C16.4484 228.965 14.9604 225.297 14.6257 225.631C13.7626 226.493 13.3293 228.865 12.8585 230.039C11.7444 232.817 10.0035 235.698 9.34875 238.633C8.70603 241.514 9.3188 245.143 9.31631 248.112C9.31077 254.714 11.0651 260.774 12.8031 266.876C13.5381 269.457 14.3211 271.764 15.0503 274.324C15.1943 274.83 16.2041 276.925 16.5664 277.216C16.8419 277.437 17.1067 278.19 17.3246 278.539C17.6939 279.131 19.0047 278.989 18.1084 278.54" stroke="white" stroke-width="10.757" stroke-linecap="round"/>
<path d="M27.1721 240.708C24.1165 240.705 21.3164 241.814 18.2328 241.977C15.8851 242.101 14.9304 239.901 14.8807 237.817C14.8685 237.307 15.3892 233.767 15.4171 235.531C15.4833 239.714 15.9742 243.043 17.7831 246.965C18.5546 248.638 20.7649 252.937 23.2126 252.731C24.493 252.623 24.8818 250.5 25.1602 249.585C25.9663 246.936 26.6057 244.231 27.1121 241.509C27.5243 239.294 28.0565 237.022 28.2164 234.769C28.3341 233.113 27.989 233.112 27.4445 234.62C25.6517 239.587 25.5774 245.028 25.0261 250.223C24.9575 250.869 24.1915 260.506 25.0475 260.127C26.1215 259.65 26.9762 257.475 27.5449 256.565C29.5692 253.329 31.3924 250.002 33.1656 246.622C34.7352 243.63 36.4874 240.685 37.8057 237.569C38.0311 237.036 39.3403 234.585 39.0856 233.947C38.727 233.048 38.2509 235.693 37.8511 236.574C37.0648 238.307 36.1132 239.97 35.2485 241.665C33.4251 245.237 31.5282 249.274 28.1429 251.636C26.1941 252.996 22.7355 253.498 20.4806 252.758C19.2303 252.348 18.2003 251.398 17.1713 250.617C16.5788 250.168 15.6923 249.517 16.1022 250.75C17.6499 255.406 18.5088 260.223 20.0547 264.874C20.5525 266.371 20.7353 267.639 20.734 269.239C20.7331 270.363 20.6127 271.502 20.9391 272.566C21.2535 273.591 20.5601 274.726 22.1996 274.363C22.6565 274.262 23.0086 273.98 23.5213 274.127C23.9196 274.241 23.4603 275.062 23.2531 275.181C22.9262 275.367 20.926 276.858 22.0645 276.189C23.302 275.463 23.9782 273.996 25.274 273.312C26.414 272.709 27.4815 271.939 28.6164 271.31C30.1048 270.485 30.9654 270.66 29.6993 272.499C29.0144 273.493 27.786 274.095 27.1582 275.035C26.3141 276.299 29.0275 272.639 29.9674 271.445C30.8965 270.264 33.5139 269.444 34.8991 268.717C37.3428 267.433 39.1146 265.475 41.3026 263.837C42.6795 262.806 43.4755 261.181 44.8097 260.099C45.2459 259.745 45.6451 259.383 46.043 258.986C46.3402 258.689 46.8489 258.507 46.9346 258.096C47.2089 256.782 41.5465 255.341 41.5176 255.33C40.4331 254.897 37.5193 254.017 36.8132 252.505C36.2303 251.257 38.326 249.31 38.925 248.468C40.2022 246.673 41.5473 244.939 42.8789 243.186C44.2579 241.369 44.0476 243.406 43.4123 244.463C41.9736 246.856 39.9114 248.92 38.0024 250.932C34.7319 254.378 30.7846 257.338 28.4019 261.525C27.5892 262.953 27.1993 264.569 26.3492 265.963C26.2812 266.074 25.3904 267.747 25.739 267.64C26.6117 267.372 27.3036 266.31 27.9232 265.712C29.5415 264.148 31.3738 262.805 33.2718 261.603C35.5492 260.162 38.784 259.222 40.6103 257.155C41.8853 255.713 42.5495 252.773 43.199 251.025C45.5322 244.746 45.8827 238.433 44.5513 231.873C43.8943 228.636 43.6636 225.307 43.4312 222.013C43.2145 218.944 43.5072 215.613 42.3254 212.718C41.8909 211.653 40.5519 212.159 39.9941 212.909C37.0194 216.906 34.6401 222.166 32.8408 226.77C31.412 230.426 29.8795 234.576 29.8762 238.572C29.8756 239.264 30.2618 239.423 30.9149 239.374C32.5281 239.254 33.7782 236.724 34.5706 235.577C37.2134 231.75 39.3434 226.9 40.6988 222.456C40.8722 221.888 42.4139 215.984 40.2878 216.784C39.1372 217.217 38.402 218.849 37.8503 219.826C36.7893 221.705 35.8604 223.653 34.7572 225.51C32.0745 230.024 29.2703 234.863 25.3626 238.449C24.4679 239.27 21.9748 241.348 21.8879 238.892C21.6286 231.565 24.9721 223.605 28.2015 217.16C29.7018 214.166 31.5825 211.07 34.2959 209.029C34.6673 208.749 35.6567 207.955 35.5436 208.406C35.3927 209.008 32.9109 210.374 32.3939 210.779C27.6638 214.483 22.6737 217.8 18.0568 221.665C16.6687 222.827 14.9091 224.181 13.8367 225.626C13.2129 226.467 12.8896 227.877 12.1564 228.609C10.0167 230.745 14.5724 223.033 16.2315 220.506C18.3376 217.297 20.5506 214.05 23.5588 211.603C25.1642 210.297 26.5468 208.889 28.254 207.717C29.5568 206.823 30.9373 205.913 32.1316 204.899C33.4357 203.793 35.3221 203.121 36.8256 202.349C38.3438 201.57 40.0159 201.055 41.5044 200.23C42.4903 199.683 45.7058 197.511 46.5091 199.032C48.0209 201.893 49.5797 204.76 50.8521 207.736C51.936 210.271 53.3629 212.919 53.9041 215.637C54.7434 219.852 54.5738 224.428 54.4277 228.704C54.2637 233.502 53.4476 238.473 52.3221 243.119C51.7619 245.432 50.9661 247.556 50.2823 249.829C49.996 250.78 49.1313 252.056 49.077 253.02C48.9808 254.725 51.9372 252.185 52.226 251.478C52.7536 250.186 53.5039 248.446 54.2933 247.308C55.134 246.096 55.3098 244.559 55.5143 243.137C55.8011 241.141 56.3044 239.312 56.3062 237.258C56.3091 233.694 56.3121 230.131 56.3151 226.567C56.318 223.152 55.6361 219.35 52.9081 217.062C50.7909 215.286 48.2241 214.117 46.2308 212.186C44.7394 210.742 43.0376 209.788 42.2849 207.848C42.0691 207.291 41.6632 205.573 41.6627 206.169C41.6611 208.089 43.433 210.469 43.8847 212.348C44.7662 216.013 44.8223 227.388 44.8255 223.618" stroke="white" stroke-width="10.757" stroke-linecap="round"/>
<path d="M31.6316 272.723L33.042 272.724" stroke="white" stroke-width="10.757" stroke-linecap="round"/>
<path d="M48.2617 255.65C48.6697 255.651 49.3018 255.544 49.6721 255.73" stroke="white" stroke-width="10.757" stroke-linecap="round"/>
<path d="M172.542 219.576C172.54 222.493 172.547 213.743 172.55 210.826C172.552 208.558 171.667 207.221 170.814 205.298C170.182 203.873 171.349 201.83 170.358 200.589C170.31 200.529 169.614 198.22 169.361 199.104C169.012 200.322 168.581 201.5 168.386 202.762C167.274 209.946 162.516 216.14 161.92 223.508C161.716 226.037 160.976 228.631 160.66 231.183C160.483 232.617 159.719 237.723 160.577 239.012C161.149 239.873 161.254 237.055 161.475 236.045C162.297 232.297 162.924 228.499 163.685 224.738C164.629 220.069 165.288 215.379 166.204 210.718C166.418 209.63 167.389 206.859 165.414 207.161C164.249 207.339 162.481 208.904 162.06 209.998C161.056 212.601 161.182 214.892 160.672 217.622C159.402 224.412 158.715 231.312 158.71 238.218C158.703 246.708 163.491 254.249 169.284 260.052C171.563 262.335 174.92 263.035 177.34 264.921C178.041 265.467 178.848 265.858 179.514 266.458C181.85 268.564 183.179 268.218 179.408 270.244" stroke="white" stroke-width="10.757" stroke-linecap="round"/>
<path d="M168.844 232.007C168.837 240.374 168.83 248.741 168.823 257.108C168.822 258.959 170.557 263.639 171.81 265.144C172.62 266.118 173.702 266.994 174.802 267.578C176.004 268.215 179.742 269.77 178.026 267.478" stroke="white" stroke-width="10.757" stroke-linecap="round"/>
<path d="M186.033 270.894C186.032 272.027 185.596 272.147 184.444 272.146C183.832 272.146 185.67 272.147 186.282 272.148C188.703 272.15 190.451 275.515 186.531 274.264C185.425 273.911 183.857 273.788 183.023 272.897C182.676 272.526 184.088 272.647 184.277 272.647C185.26 272.648 186.271 273.088 187.144 273.513C189.509 274.664 192.174 275.498 194.173 277.056C195.204 277.859 196.419 278.177 197.36 279.119C197.565 279.324 198.438 280.497 198.543 280.025C198.977 278.08 198.966 276.139 199.425 274.178C200.076 271.401 201.263 268.716 202.328 266.09C202.713 265.142 203.557 262.256 203.556 263.278C203.555 263.908 202.814 264.983 202.579 265.589C202.23 266.492 202.164 267.463 201.95 268.401C201.682 269.576 201.462 270.971 201.321 272.16C201.316 272.2 200.848 272.973 201.209 272.87C201.853 272.687 202.548 270.954 202.826 270.463C203.947 268.481 204.353 265.871 204.934 263.683C205.439 261.782 205.958 259.819 206.345 257.892C206.961 254.827 207.854 251.691 207.857 248.55C207.859 246.777 207.86 245.004 207.862 243.231C207.863 241.336 208.16 239.177 207.741 237.327C206.904 233.627 206.256 230.005 203.614 227.047C202.83 226.169 202.618 224.747 201.848 223.913C200.801 222.776 199.885 221.46 198.872 220.276C196.748 217.793 194.863 215.02 192.542 212.696C190.561 210.711 188.284 209.324 186.086 207.594C183.863 205.845 181.638 204.122 179.462 202.339C178.885 201.866 175.316 198.744 175.314 200.901C175.309 207.008 171.877 212.05 170.036 217.759C169.023 220.902 168.436 223.856 168.525 227.157C168.543 227.846 169.429 228.191 170.028 228.258C171.703 228.446 172.334 226.657 172.982 225.378C175.128 221.142 177.396 216.986 179.69 212.866C179.946 212.407 179.721 211.88 179.831 211.39C179.907 211.047 180.187 211.618 180.206 211.655C180.623 212.452 181.188 212.973 181.82 213.606C186.532 218.326 190.834 223.449 194.98 228.683C197.518 231.887 198.439 234.782 199.218 238.698C200.083 243.04 200.97 247.891 200.084 252.303C199.215 256.63 197.427 260.7 196.175 264.915C195.442 267.38 193.76 270.553 191.908 272.403C190.655 273.653 190.119 272.861 189.04 271.509C184.763 266.155 182.866 259.925 180.784 253.512C179.861 250.669 178.672 247.895 178.173 244.932C177.526 241.089 177.539 237.176 177.542 233.291C177.546 228.857 176.811 223.617 178.25 219.312C178.357 218.993 178.612 218.536 178.864 218.31C179.353 217.87 179.394 219.113 179.448 219.285C180.014 221.07 181.199 222.527 182.089 224.161C183.841 227.374 185.465 230.633 186.537 234.148C188.859 241.763 190.954 249.182 192.004 257.086C192.337 259.592 192.306 262.085 192.304 264.606C192.304 264.81 192.415 266.732 192.497 266.527C193.146 264.909 192.763 262.18 192.864 260.457C193.269 253.569 193.69 246.668 194.441 239.808C194.829 236.266 196.679 230.061 192.084 228.416C191.713 228.283 191.16 228.172 191.095 228.721C190.88 230.533 190.814 232.288 190.269 234.054C188.633 239.356 184.384 243.56 181.206 247.971C179.85 249.854 177.619 252.855 175.395 253.842C173.925 254.494 175.157 255.448 176.159 255.722C180.955 257.034 182.905 252.12 185.995 249.339C187.35 248.12 188.688 246.607 190.301 245.722C191.212 245.222 191.43 245.31 190.315 244.831" stroke="white" stroke-width="10.757" stroke-linecap="round"/>
<path d="M187.942 259.775C187.94 261.349 188.221 263.271 187.707 264.77C187.223 266.185 186.696 267.538 186.092 268.894C185.667 269.847 185.263 270.58 185.003 271.617C184.811 272.382 185.043 272.896 184.132 272.895" stroke="white" stroke-width="10.757" stroke-linecap="round"/>
<path d="M63.9209 148.694C65.1058 148.758 66.5284 149.056 67.446 149.873C67.8326 150.217 68.827 151.294 68.9909 150.396C69.3796 148.269 69.0601 146.478 70.6715 144.869C71.8894 143.653 70.7338 144.957 70.192 145.652C69.2379 146.877 67.4467 149.007 67.4453 150.656C67.4429 153.611 69.3087 154.994 71.663 156.537C73.331 157.629 75.906 158.052 77.8211 158.479C79.7846 158.917 81.9289 158.896 83.9369 158.898C86.2249 158.899 89.8129 159.534 91.3387 157.25C92.542 155.448 91.4424 151.909 90.3868 150.371C88.4265 147.514 80.3486 143.187 76.8742 145.614C75.7091 146.429 74.6854 148.633 75.3251 150.075C76.7079 153.194 81.9609 146.83 82.4676 146.054C83.1585 144.998 86.7173 140.263 83.4295 141.049C79.2949 142.038 78.6328 147.038 78.8289 150.622C79.0029 153.802 81.8847 154.749 84.6588 154.567C87.5412 154.377 89.3849 151.155 89.3871 148.498C89.3895 145.678 85.1268 145.218 83.1649 145.184C79.0245 145.113 74.2291 144.56 70.2137 145.761C69.5292 145.966 67.0565 147.114 67.0577 145.715C67.0595 143.521 67.7098 143.033 69.4117 141.734C71.918 139.821 74.2342 137.894 76.8603 136.146C79.6837 134.267 82.4972 132.736 85.3968 131.082C87.7724 129.727 90.982 129.907 93.5173 128.934C105.32 124.406 118.038 128.621 130.148 130.336" stroke="white" stroke-width="10.757" stroke-linecap="round"/>
<path d="M83.523 136.564C90.4976 136.57 96.7289 139.864 103.413 141.652C103.479 141.67 109.643 143.151 107.807 144.115C106.111 145.006 104.412 144.773 102.518 144.851C94.7753 145.167 87.2292 147.966 80.2459 151.166C77.0831 152.615 72.6677 156.144 69.0105 156.141C67.2302 156.139 68.2468 156.798 69.4234 156.947C72.234 157.3 73.8876 158.798 76.0591 160.369C77.7457 161.59 79.7072 162.458 81.5416 163.378C82.4629 163.839 84.6628 165.512 84.2836 163.989" stroke="white" stroke-width="10.757" stroke-linecap="round"/>
<path d="M81.9343 162.814C85.9602 162.817 89.798 165.469 93.2924 167.22C95.6612 168.407 90.8374 168.306 90.179 168.306C89.4268 168.305 85.6264 167.404 87.8072 167.52C89.1904 167.594 90.6826 168.321 91.9415 168.895C93.191 169.464 95.2958 169.915 96.3367 170.749C97.3667 171.574 99.0362 171.519 100.319 171.84C102.834 172.472 102.568 172.05 101.126 169.882" stroke="white" stroke-width="10.757" stroke-linecap="round"/>
<path d="M87.0258 167.127C91.3163 167.131 96.0165 166.629 100.15 167.552C101.61 167.877 102.569 169.196 103.674 170.058C104.578 170.762 106.718 170.876 107.308 171.541C107.457 171.709 107.104 172.136 107.242 171.998C107.642 171.599 108.004 171.47 108.57 171.455C109.845 171.419 111.126 171.457 112.401 171.458C113.682 171.459 116.715 170.998 113.293 171.85C112.378 172.078 109.295 172.592 109.44 172.544C111.313 171.921 113.285 171.285 115.057 170.481C116.699 169.736 119.158 169.916 120.913 169.528C123.135 169.036 125.319 167.867 127.467 167.074C131.019 165.761 134.414 163.128 137.745 161.314C139.395 160.417 140.606 158.741 142.08 157.596C142.533 157.244 146.106 154.684 144.933 154.638C141.181 154.491 137.393 154.632 133.637 154.629C126.397 154.623 119 154.157 111.806 155.002C103.864 155.936 96.524 159.777 88.902 161.948C86.135 162.736 91.0608 161.774 91.8189 161.646C96.5989 160.838 101.434 160.575 106.272 161.092C112.321 161.739 117.855 162.771 123.641 160.693C127.588 159.276 122.229 163.044 121.114 163.629C117.469 165.544 113.654 167.778 110.617 170.586C110.036 171.123 109.246 171.404 108.657 171.934C107.964 172.556 109.205 172.281 109.353 172.021C112.045 167.32 111.131 162.008 108.974 157.264C107.711 154.486 106.151 151.474 104.192 149.119C103.239 147.973 101.148 146.056 101.146 148.551C101.144 150.979 101.779 153.185 102.119 155.582C102.492 158.208 102.311 160.923 102.308 163.57C102.306 166.187 102.943 167.114 105.047 168.23C106.318 168.905 106.912 170.199 107.308 171.541C107.353 171.693 107.646 177.174 108.175 175.329C108.864 172.926 108.963 170.792 108.965 168.277C108.968 164.192 109.449 159.792 108.562 155.783C107.868 152.649 107.009 149.544 106.458 146.379C106.04 143.976 106.03 141.471 105.376 139.108C105.014 137.799 104.266 136.568 103.594 135.406C103.071 134.501 101.906 135.63 101.156 135.796C99.955 136.062 98.8302 136.302 97.5864 136.163C95.2607 135.903 96.1747 136.072 97.2391 135.009" stroke="white" stroke-width="10.757" stroke-linecap="round"/>
<path d="M108.21 135.412C107.308 134.282 110.623 137.015 111.734 137.939C113.852 139.701 116.173 141.585 117.911 143.734C118.313 144.231 121.577 149.561 119.932 147.502C116.01 142.591 114.106 136.026 109.585 131.582C107.795 129.823 106.088 128.355 106.255 131.492C106.329 132.881 107.492 134.069 108.298 135.107C110.159 137.504 112.183 139.733 114.256 141.946C117.2 145.09 120.34 147.795 123.651 150.508C125.799 152.268 119.628 151.179 119.08 151.027C116.368 150.276 113.732 149.277 111.007 148.561C109.603 148.192 107.964 147.965 106.72 147.164C104.485 145.725 110.203 145.768 111.031 145.513C115.106 144.26 119.547 143.548 123.246 141.301C125.127 140.158 124.153 137.861 123.076 136.404C122.772 135.993 118.653 131.794 118.487 131.981C117.076 133.565 121.002 137.448 121.703 138.253C125.162 142.224 127.734 146.762 131.705 150.297C133.13 151.566 135.286 152.103 137.167 151.869C139.427 151.589 137.982 145.852 137.499 144.839C136.386 142.5 133.952 138.086 131.411 137.085C130.683 136.799 128.974 136.872 128.974 135.995C128.976 134.024 129.697 133.531 131.762 133.908C133.314 134.191 134.589 135.401 136.027 136.001C137.798 136.741 139.586 137.255 141.423 137.79C142.23 138.025 143.098 138.301 143.86 138.663C144.144 138.798 144.643 139.5 144.643 139.186C144.644 138.686 143.905 138.576 143.555 138.576C142.706 138.575 143.072 140.129 143.118 140.621C143.448 144.117 145.881 147.618 147.55 150.659C148.137 151.727 148.543 152.292 149.725 152.293C153.02 152.296 152.743 141.86 152.849 139.628C152.885 138.854 153.177 137.195 152.677 136.494C152.44 136.161 152.487 137.103 152.437 137.19C151.434 138.942 148.691 132.597 151.348 137.581C154.518 143.526 156.939 151.284 161.78 156.134C162.434 156.789 163.327 158.412 163.412 156.81C163.876 148.133 163.172 138.937 161.889 130.363C161.604 128.46 161.174 122.754 159.154 121.742" stroke="white" stroke-width="10.757" stroke-linecap="round"/>
<path d="M134.013 127.174C134.015 125.404 134.016 123.633 134.018 121.862C134.018 121.394 133.721 121.113 133.221 121.389C132.437 121.824 132.057 123.541 131.906 124.369C131.31 127.629 133.076 117.72 134.687 114.825C135.2 113.904 135.352 112.778 136.033 111.904C136.761 110.97 137.515 109.907 138.071 108.852C138.407 108.215 138.469 106.576 138.944 106.197C139.303 105.91 138.826 105.4 139.476 105.4C139.696 105.4 139.92 105.389 140.14 105.401C140.606 105.426 140.968 105.712 141.379 105.933C145.59 108.196 149.758 110.542 153.945 112.849" stroke="white" stroke-width="10.757" stroke-linecap="round"/>
<path d="M145.974 113.639C145.366 113.79 145.706 116.319 145.705 116.782C145.702 120.456 145.699 124.13 145.696 127.804C145.694 129.791 145.693 131.778 145.691 133.765C145.69 135.179 144.6 132.185 144.571 132.126C143.018 128.932 141.714 125.532 139.828 122.516C139.507 122.003 137.21 118.603 136.26 119.002C135.846 119.176 136.254 121.275 136.288 121.525C136.639 124.098 137.821 126.148 139.336 128.226C140.056 129.213 145.789 134.387 146.593 131.36C147.322 128.617 145.324 125.234 144.49 122.727C143.706 120.368 142.513 112.995 142.785 115.466C143.058 117.946 146.198 120.704 147.678 122.493C150.019 125.323 152.424 128.177 154.945 130.851C155.054 130.966 156.373 132.582 156.523 132.003C156.95 130.346 156.47 128.194 156.055 126.602C155.369 123.965 154.486 121.416 153.952 118.736C153.614 117.04 153.468 115.24 152.613 113.704C151.326 111.389 151.381 113.16 151.299 115.001C151.221 116.757 151.427 118.366 152.343 119.9C153.139 121.235 154.631 123.492 156.116 124.153C158.566 125.244 158.979 122.958 159.631 121.102C160.341 119.077 160.26 116.341 159.917 114.27C159.849 113.864 158.937 112.2 159.195 113.119C159.707 114.947 160.236 115.927 161.522 117.37C161.923 117.82 164.687 120.685 163.498 118.7" stroke="white" stroke-width="10.757" stroke-linecap="round"/>
<path d="M145.138 157.991C145.135 161.652 146.285 164.967 148.169 168.056C148.968 169.366 148.755 170.037 146.988 169.604C144.237 168.931 136.671 164.932 139.288 166.012C141.226 166.812 143.075 167.765 144.598 169.263C146.684 171.316 148.651 173.455 150.967 175.259C152.316 176.31 154.047 176.758 155.347 177.771C155.974 178.26 157.236 178.642 158.002 178.983C158.907 179.386 159.772 179.985 160.671 180.313C162.332 180.919 163.52 181.733 164.83 182.914C165.36 183.391 166.177 183.578 166.762 183.904C167.314 184.211 167.564 185.196 168.104 185.351C168.372 185.428 168.568 185.495 168.738 185.75C169.021 186.175 169.007 184.755 169.019 184.245C169.082 181.571 170.169 179.082 171.092 176.604C171.554 175.361 171.975 174.046 172.334 172.768C172.48 172.25 172.987 171.517 173.014 171.028C173.092 169.657 173.719 169.701 172.219 169.699" stroke="white" stroke-width="10.757" stroke-linecap="round"/>
<path d="M174.08 172.359C174.078 174.321 173.669 176.675 174.089 178.571C174.229 179.205 174.773 178.238 174.812 178.085C175.03 177.244 175.152 176.391 175.346 175.547C175.931 172.998 175.933 170.209 176.341 167.61C176.542 166.332 176.975 163.68 176.212 162.534" stroke="white" stroke-width="10.757" stroke-linecap="round"/>
<path d="M176.212 162.268C176.215 158.907 176.304 155.535 176.221 152.175C176.174 150.315 175.537 148.425 175.222 146.597C174.811 144.21 174.256 141.808 173.782 139.425C173.205 136.526 171.381 133.884 170.543 131.056C169.856 128.739 168.796 126.203 168.557 123.795C168.376 121.97 168.44 122.95 168.808 124.149C169.393 126.059 171.214 127.874 172.507 129.331C173.831 130.824 175.02 132.861 175.911 134.646C177.911 138.655 178.477 142.402 178.35 146.865C178.27 149.644 177.283 152.369 177.28 155.127C177.279 156.762 177.037 161.503 176.48 159.966C175.9 158.367 175.897 156.487 175.422 154.831C174.252 150.756 172.658 146.804 171.389 142.758C170.126 138.732 168.521 134.866 166.352 131.244C165.556 129.915 165.095 128.669 164.688 127.2C164.29 125.763 164.558 124.043 164.559 122.552C164.56 121.676 164.964 121.255 165.755 121.889C166.417 122.419 166.684 122.364 166.683 123.351C166.682 125.276 168.468 127.256 169.069 129.063C171.14 135.292 168.379 140.764 164.481 145.732C163.128 147.457 161.873 149.329 160.271 150.834C158.601 152.403 156.914 153.772 155.62 155.699C153.822 158.374 152.336 162.033 155.229 164.478C157.66 166.533 161.019 166.994 163.813 168.351C164.386 168.63 166.442 170.336 167.043 169.402C168.112 167.742 167.94 165.277 168.037 163.412C168.238 159.511 168.487 155.5 168.239 151.593C168.145 150.12 167.147 151.38 166.984 152.109C166.581 153.913 166.301 155.617 166.183 157.479C165.914 161.699 165.42 165.882 165.065 170.093C164.946 171.515 165.015 173.17 164.575 174.534C164.194 175.716 163.868 176.318 162.449 176.023C159.391 175.387 156.833 172.966 154.308 171.28C153.315 170.617 152.66 169.959 152.303 168.888" stroke="white" stroke-width="10.757" stroke-linecap="round"/>
<path d="M58.1184 139.612C58.1145 144.346 57.8809 148.801 56.216 153.284C55.7367 154.575 54.6891 149.704 54.6554 149.555C52.9764 142.171 53.1675 134.377 53.2198 126.844C53.2257 125.994 54.132 119.644 52.5506 122.643C50.2745 126.959 48.9165 131.86 47.7932 136.585C46.605 141.583 45.6658 146.758 44.8711 151.838C44.6972 152.95 44.36 154.187 44.3591 155.311C44.358 156.638 44.3613 152.656 44.3624 151.329C44.3664 146.548 44.5855 142.013 45.5742 137.311C46.301 133.855 47.0306 129.926 48.3106 126.622C49.1158 124.543 49.8797 122.443 50.6796 120.369C51.1547 119.137 53.2888 115.781 52.5554 116.879C52.2387 117.353 51.4233 117.664 51.0089 118.078C50.1221 118.963 49.5132 120.093 48.8062 121.113C47.7839 122.587 47.3788 124.335 46.5112 125.875C45.319 127.99 44.5554 130.48 43.578 132.709C42.6014 134.936 41.9939 137.506 41.7719 139.926C41.4277 143.677 41.4201 147.453 41.4169 151.235C41.4165 151.716 41.2517 152.573 41.4881 153.017C41.6656 153.351 41.3744 150.642 41.2723 150.217C40.8037 148.269 41.094 146.024 41.0956 144.035C41.0967 142.829 41.0977 141.622 41.0987 140.416C41.1037 134.371 38.8344 152.293 37.8108 158.251" stroke="white" stroke-width="10.757" stroke-linecap="round"/>
<path d="M39.6141 154.116C39.6112 157.565 39.6083 161.015 39.6055 164.465C39.6044 165.707 39.4711 166.974 39.8165 168.177C40.0137 168.863 40.3367 169.573 40.4452 170.283C40.4968 170.62 40.3746 171.013 40.4681 171.341C40.5593 171.661 41.2258 172.187 41.4187 172.544C42.0833 173.773 42.6178 175.276 43.4497 176.388" stroke="white" stroke-width="10.757" stroke-linecap="round"/>
<path d="M43.4466 176.387C43.4451 178.131 43.0009 181.362 44.7261 182.55C45.0965 182.805 45.7422 184.072 45.7951 184.525C45.8436 184.941 46.2793 185.583 46.4371 184.954" stroke="white" stroke-width="10.757" stroke-linecap="round"/>
<path d="M47.506 188.596C47.8939 188.548 47.7209 187.71 47.7211 187.419C47.7217 186.76 48.1969 186.172 48.484 185.599C48.8703 184.828 49.7214 184.362 50.1272 183.673C50.6182 182.84 51.7162 182.098 52.5437 181.653C53.2872 181.254 54.4993 180.917 54.7934 180.037" stroke="white" stroke-width="10.757" stroke-linecap="round"/>
<path d="M52.2166 184.533C52.3856 182.858 54.8347 182.187 56.0853 181.515C57.5939 180.704 58.9761 179.662 60.4058 178.711C61.4555 178.012 62.4816 176.785 63.3583 175.87C64.2342 174.956 65.307 174.242 66.3461 173.529C68.2539 172.22 70.4073 171.223 72.4277 170.085C72.579 169.999 73.7846 169.134 73.7133 169.134C72.513 169.133 71.4925 169.391 70.3226 169.655C67.8996 170.199 65.5627 168.442 63.532 167.365C60.2434 165.62 57.636 163.891 55.8054 160.578C55.0369 159.187 54.2995 157.774 53.525 156.389C53.1629 155.741 52.5161 154.533 51.7066 154.353C50.0523 153.984 49.5684 161.7 49.499 162.523C49.3273 164.563 49.448 166.652 49.4463 168.697C49.4443 171.018 49.2827 173.608 49.9756 175.847C51.3194 180.19 56.0023 174.085 56.8185 172.522C58.7543 168.815 60.5084 164.967 61.5508 160.928C61.6838 160.412 61.7178 159.274 62.4087 159.275C62.7417 159.275 63.3393 159.15 63.5386 159.49C63.8022 159.939 64.3336 160.561 64.9176 160.562C66.0377 160.563 65.6067 155.053 65.6603 154.46C65.9191 151.593 66.6101 148.75 67.2257 145.944C67.7109 143.732 67.8807 141.525 68.2187 139.295C68.5583 137.054 69.6722 134.447 68.3197 132.348C67.4351 130.975 65.9321 129.962 64.3001 130.893C62.7694 131.766 62.2528 133.65 61.0492 134.852C60.5693 135.331 59.752 135.631 59.7527 134.732C59.7543 132.782 61.3964 131.727 62.4924 130.321C63.2504 129.348 64.8977 127.614 64.8988 126.302" stroke="white" stroke-width="10.757" stroke-linecap="round"/>
<path d="M64.9076 126.3C64.0812 125.197 64.2767 122.931 64.2691 121.66C64.2549 119.26 64.0491 116.718 64.3823 114.333C64.4976 113.508 64.7631 112.309 64.1586 111.632C63.885 111.326 63.2085 110.353 62.7318 110.81C61.6423 111.856 61.4374 113.592 60.7418 114.841C60.2144 115.789 60.0279 117.338 59.8704 118.374C59.6074 120.103 59.3441 121.845 59.3427 123.595C59.3422 124.147 59.0779 124.128 58.9144 123.595C58.2999 121.592 57.7865 119.478 57.4207 117.42C57.2226 116.305 56.3547 113.337 57.2109 112.269C57.4336 111.991 57.9816 111.83 58.3058 111.722C60.064 111.138 61.8456 109.849 63.4709 108.955C65.1908 108.009 66.8596 106.947 68.5529 105.962C69.0633 105.664 69.8142 105.511 69.2079 105.106" stroke="white" stroke-width="10.757" stroke-linecap="round"/>
<path d="M70.0629 105.108C70.8713 105.828 73.1151 105.44 73.5963 104.575C74.0595 103.743 76.2799 105.193 76.474 105.874C77.8935 110.858 81.1846 115.111 83.112 119.941C83.3611 120.565 85.2437 125.491 83.8451 125.235C82.7365 125.032 81.4776 123.235 80.7187 122.532C78.3827 120.369 76.0733 118.176 73.7652 115.984C73.481 115.714 69.4149 111.784 69.4139 112.935C69.4133 113.637 69.6024 114.162 69.793 114.838C70.6683 117.946 71.0597 121.178 71.9739 124.285C72.4746 125.987 73.0236 127.799 73.8968 129.354C74.2984 130.07 74.9346 130.56 75.3465 131.235C75.8492 132.059 75.9553 129.43 76.086 128.88C76.4451 127.37 76.9926 125.336 75.8282 124.17" stroke="white" stroke-width="10.757" stroke-linecap="round"/>
<path d="M96.8047 41.7768C96.8238 41.9304 102.356 40.8807 103.014 40.7967C105.153 40.5236 107.255 40.3781 109.41 40.3799C109.9 40.3803 111.65 40.0873 112.084 40.5229C112.243 40.6815 110.191 40.4224 110.161 40.4118C102.777 37.806 96.4015 32.8406 89.2145 29.7914C85.7496 28.3213 83.6937 28.8305 82.4564 32.6006C80.9391 37.2236 82.0965 41.5859 86.7946 43.5511C91.6849 45.5968 97.5527 45.8259 102.791 45.9729C106.837 46.0864 110.943 46.1384 114.989 45.9831C117.137 45.9006 118.814 45.4019 120.667 44.3615C121.312 43.9994 122.104 43.3831 120.949 42.9855C115.187 41.002 108.594 40.1087 102.53 39.8737C97.8395 39.6919 91.4074 38.9887 87.4995 42.1912C86.1755 43.2762 81.7649 49.1404 85.507 49.868C90.9809 50.9322 96.721 49.4602 101.929 47.9113C107.329 46.3054 112.687 44.4854 118.01 42.639C119.247 42.2098 122.43 41.6591 122.985 40.1723C123.41 39.0327 119.19 39.0253 118.701 38.9802C115.057 38.6441 111.125 38.3574 107.504 39.0021C101.253 40.115 95.2201 44.0135 90.2316 47.7764C85.4085 51.4145 79.8866 56.2916 77.8338 62.2472C77.4645 63.3185 77.9038 63.1461 78.5686 62.4823C80.2775 60.7763 81.5999 58.8009 82.5926 56.6057C84.3033 52.8229 85.9307 49.0047 87.6846 45.2408C89.3725 41.6186 91.1756 38.0553 92.1352 34.1569C92.196 33.9101 92.8945 32.2341 92.2776 32.2335C91.5536 32.2329 90.7628 32.9309 90.2124 33.3265C87.5674 35.2275 85.7233 38.0805 84.0446 40.7965C81.8369 44.3684 79.7514 47.9593 77.7176 51.6129C77.5072 51.9909 77.6555 51.0814 77.6556 50.9717C77.6573 48.9536 77.8697 47.0012 78.2236 45.014C78.9502 40.9334 80.2696 36.725 80.4703 32.5833C80.5158 31.6443 80.8289 30.3745 79.5801 31.1282C77.9899 32.0879 76.7288 33.6696 75.7609 35.2223C73.7478 38.4516 71.6718 41.5505 70.3417 45.1325C69.2901 47.9645 68.3669 50.3484 68.3643 53.4348C68.3627 55.4274 68.066 57.0429 68.3753 59.0646C68.6346 60.7598 69.4572 62.5745 69.9817 64.211C70.7126 66.4914 71.7288 69.4901 71.7268 71.8753" stroke="white" stroke-width="10.757" stroke-linecap="round"/>
<path d="M66.1001 62.5812C66.0981 64.9467 65.7088 67.6102 66.3129 69.9001C66.9934 72.48 67.8472 74.9518 68.6053 77.4866C69.0965 79.1287 70.5506 80.7426 70.8531 82.4146C71.0671 83.5968 71.6244 85.5387 72.2728 86.5131" stroke="white" stroke-width="10.757" stroke-linecap="round"/>
<path d="M73.8829 90.7596C73.8811 92.829 75.2108 90.7952 76.176 90.7615C77.105 90.7291 78.378 91.1665 78.379 89.946" stroke="white" stroke-width="10.757" stroke-linecap="round"/>
<path d="M80.4234 89.5393C81.2287 89.4393 82.5194 88.3695 83.2401 87.907C84.9094 86.8359 86.4188 85.4595 88.1471 84.4828C92.3282 82.1197 96.2036 79.4068 100.096 76.5917C101.195 75.7971 102.285 74.9838 103.413 74.2332C103.744 74.0129 104.546 73.8255 103.935 73.825C100.476 73.8221 96.9686 75.4519 93.705 76.4728C89.6792 77.7321 85.7629 78.9083 82.0653 80.9585C81.5975 81.2179 78.1261 83.389 77.8182 82.7032C77.1639 81.2458 78.4309 78.6884 78.9011 77.4026C79.8533 74.7986 81.2196 72.3839 82.2677 69.8222C82.8573 68.3811 83.4424 66.6332 83.509 65.0668C83.5695 63.6441 82.0339 65.2491 81.5673 65.6327C80.5624 66.459 79.3613 67.9535 78.0347 68.2408C76.3525 68.605 75.3618 66.2541 74.8815 65.0255C74.0647 62.9361 74.0935 60.5004 73.8654 58.2928C73.7828 57.4929 72.5777 55.4971 73.2317 55.9651C74.7817 57.0742 75.7362 58.6233 77.5198 59.4992C80.4678 60.947 83.5437 62.17 86.6665 63.185C87.2195 63.3647 88.9785 64.0832 89.3342 63.2553C90.3308 60.9352 90.1322 57.7944 90.4193 55.3324C90.5328 54.3587 90.6558 53.3852 90.6715 52.4038C90.6735 52.2772 90.7648 51.3603 90.547 51.9156C89.3553 54.9535 88.6821 58.1236 87.9849 61.3016C87.1308 65.1952 85.8971 69.0081 84.9328 72.8782C84.8153 73.3501 83.8489 75.6445 84.1355 76.1469C84.6183 76.9935 87.5641 74.9065 87.951 74.629C90.721 72.6424 92.5446 70.0373 93.9741 66.96C96.7955 60.886 99.3939 54.708 102.163 48.6105C102.365 48.1665 103.134 47.4671 102.698 47.2487C102.645 47.2225 101.693 49.4943 101.663 49.575C100.166 53.5812 99.8488 58.1397 99.3475 62.3555C98.9211 65.9418 98.2607 69.5406 98.2146 73.1618C98.2062 73.8213 98.0285 75.2397 99.1553 74.9903C99.9813 74.8074 100.576 73.681 100.973 73.0506C102.254 71.0197 103.133 68.7551 104.237 66.628C107.292 60.7374 111.432 55.2229 113.787 48.9949C113.857 48.81 115.356 44.1745 114.255 45.7031C113.489 46.7683 113.183 48.1393 112.845 49.38C112.138 51.9679 111.559 54.5833 111.147 57.2343C110.54 61.1323 109.953 65.0177 109.264 68.9027C109.191 69.3146 108.67 71.3188 109.091 71.7405C109.395 72.0454 109.423 71.838 109.454 72.3993C109.512 73.4603 111.356 73.8598 112.109 73.9908C113.292 74.1966 114.386 74.4992 115.252 75.367C115.822 75.9376 116.194 76.7703 116.692 77.4116C117.201 78.0664 118.287 78.4958 118.961 79.0482C119.884 79.8048 121.107 80.1107 122.127 80.6856C123.157 81.2658 124.121 81.945 125.225 82.3796C126.08 82.7165 126.934 83.2093 127.676 83.744C129.335 84.9404 127.956 85.2881 126.505 85.2869C125.321 85.2859 124.492 84.781 123.657 83.9449C123.184 83.4716 122.252 82.6711 122.932 82.2188" stroke="white" stroke-width="10.757" stroke-linecap="round"/>
<path d="M125.383 79.36C126.957 79.3613 127.867 79.3902 129.219 80.226C130.127 80.7871 131.11 81.7672 131.669 82.6801C132.354 83.7991 132.325 84.8562 132.324 86.109C132.323 87.2177 131.727 86.9258 130.734 86.925C130.24 86.9246 130.007 86.7142 130.757 86.8796C131.503 87.044 132.542 87.3484 133.038 87.96C133.609 88.6644 134.49 88.9885 135.171 89.5851C135.461 89.8396 135.786 90.2364 136.112 90.4146C136.546 90.6518 136.795 91.2212 137.326 91.2216C137.726 91.222 137.998 91.3344 138.348 91.529C138.645 91.6942 138.78 91.8159 138.87 92.1311C138.996 92.5768 139.537 91.0036 139.563 90.917C139.949 89.6527 140.097 88.3452 140.622 87.1149C141.384 85.3306 142.453 83.7554 143.317 82.0314C145.899 76.8771 147.481 70.9381 147.917 65.1888C148.055 63.3748 148.283 61.5836 148.285 59.7628C148.286 58.4041 148.158 56.9799 148.334 55.6306C148.696 52.8399 148.895 49.3479 147.898 46.6848C147.024 44.3464 146.551 41.9416 145.237 39.7464C144.002 37.6843 142.017 36.0427 140.735 33.9871C139.411 31.866 137.787 29.3564 135.733 27.8755C134.937 27.3007 134.001 26.7244 133.09 26.3521C132.356 26.0526 131.762 26.061 131.762 25.2158" stroke="white" stroke-width="10.757" stroke-linecap="round"/>
<path d="M134.821 27.6721C134.823 25.7994 131.734 24.125 130.444 22.9686C129.829 22.4181 129.086 21.9919 128.333 21.6954C127.13 21.2216 126.373 19.9617 125.418 19.1842C122.368 16.7023 119.826 13.9941 116.24 12.3766C114.456 11.5723 112.803 11.2546 110.883 10.8509C109.044 10.4645 107.414 9.87171 105.514 9.87012C103.798 9.86868 101.522 10.8927 100.097 11.8068C99.2098 12.3763 98.3384 12.9024 97.4396 13.4506C96.5005 14.0234 95.2236 14.8522 94.4181 15.6277C92.8757 17.1125 90.3873 17.9548 89.17 19.71C88.7193 20.3599 87.7027 21.1274 87.0116 21.5019C85.786 22.1658 84.988 23.402 83.9328 24.2578C83.028 24.9917 82.4339 26.0337 81.4674 26.7305C80.5689 27.3783 79.2944 28.6286 78.8312 29.6685C78.4505 30.5231 77.4613 31.7989 76.7855 32.4254C75.928 33.2203 75.2883 34.9612 74.7391 35.9996C74.2974 36.8348 74.0027 37.7438 73.7606 38.6551C73.5276 39.5324 72.951 40.3826 72.8956 41.3108C72.8454 42.1527 72.5541 42.9218 72.7346 43.8081C72.9002 44.6212 73.3291 45.2899 73.709 46.0113C73.8304 46.2416 74.1941 47.118 74.106 46.4089C73.9816 45.4064 73.7603 44.3003 73.3934 43.3546C73.0965 42.5892 72.4589 42.0685 72.0782 41.4009C71.809 40.9289 71.2641 40.6511 71.0575 40.1854C70.8444 39.7047 71.0458 38.8572 70.4456 38.8567" stroke="white" stroke-width="10.757" stroke-linecap="round"/>
<path d="M94.7785 24.981C96.8049 25.5908 98.9627 26.3734 100.861 27.3247C101.045 27.4168 101.466 27.672 101.281 27.9494C100.813 28.6491 99.1482 28.0203 98.6472 27.7769C97.7588 27.3452 93.8425 24.8367 94.5527 23.4597C95.1998 22.205 96.8206 21.9881 98.028 21.6235C100.23 20.9587 102.416 20.241 104.614 19.563C106.994 18.8289 109.008 17.796 111.155 16.6056C112.473 15.8749 113.759 14.5757 115.346 14.577C118.605 14.5798 120.57 16.2344 122.767 18.5792C125.061 21.0281 126.91 23.7616 127.766 27.0407C128.094 28.2972 128.366 30.059 128.035 31.3434C127.934 31.735 127.619 31.8484 127.263 31.6606C125.504 30.7331 123.947 29.3495 122.157 28.4096C117.153 25.7831 111.81 23.7191 106.713 21.2562C106.609 21.206 104.873 20.308 105.26 21.0506C105.881 22.2439 106.954 23.2881 107.72 24.3902C110.211 27.9722 112.618 31.6012 114.295 35.6457C114.674 36.559 115.393 38.0624 116.383 36.7145C117.323 35.4355 117.437 33.2801 118.521 32.1982C118.782 31.9375 119.158 31.949 119.498 31.9492C120.063 31.9497 117.375 32.3017 117.295 32.3107C113.585 32.7274 109.844 32.4668 106.124 32.7554C104.705 32.8655 102.529 32.668 101.22 33.2621C100.822 33.4426 101.302 33.3618 101.492 33.3645C104.54 33.4077 107.467 34.2897 110.322 35.3018C116.803 37.5988 123.239 41.169 130.069 42.3339C131.067 42.5041 136.22 43.8479 135.598 41.2488C135.431 40.5468 134.712 40.0652 134.306 39.4995C133.835 38.8434 133.632 38.128 133.297 37.4098C133.018 36.8095 133.183 38.2941 133.183 38.5336C133.177 45.0708 135.711 51.7114 134.392 58.2759C134.302 58.7224 134.187 59.1572 134.187 59.6153C134.186 60.8042 134.144 57.2369 134.065 56.0506C133.66 49.9986 133.677 43.4802 132.037 37.6131C131.385 35.2803 130.705 32.8005 130.533 30.3692C130.497 29.8543 129.624 32.2147 129.51 32.5707C129.082 33.8965 129.112 35.2773 129.052 36.657C128.915 39.818 128.829 42.9819 128.431 46.1242C127.686 52.0135 127.052 58.445 124.988 64.0349" stroke="white" stroke-width="10.757" stroke-linecap="round"/>
<path d="M121.116 54.2244C120.379 52.8401 120.687 55.4994 120.615 56.0403C120.143 59.5703 119.046 63.0291 118.472 66.5505C118.171 68.3946 118.037 70.2153 118.036 72.0787C118.035 73.2515 118.72 73.9994 119.214 75.0198C119.329 75.2576 120.56 77.4338 120.892 76.7695C121.299 75.9579 121.099 74.5362 121.099 73.7046C121.102 70.227 120.926 66.789 120.586 63.3283C120.094 58.3193 119.557 53.3059 119.191 48.2856C119.096 46.9906 119.082 43.0933 119.081 44.3917C119.079 46.4882 119.401 48.4465 120.074 50.4546C122.184 56.7423 125.563 62.6139 127.937 68.8176C129.119 71.9046 130.163 75.3504 132.028 78.1184C132.627 79.007 133.183 79.9228 134.171 80.3906C135.3 80.9246 136.103 80.5434 136.726 79.5754C137.221 78.8066 137.4 77.967 137.546 77.0672C138.12 73.5135 138.564 69.9312 139.042 66.3635C139.344 64.1026 139.477 61.8754 139.502 59.598C139.515 58.3768 139.981 56.9654 139.584 55.7724C139.188 54.5797 138.218 53.5562 137.68 52.4106C136.973 50.9046 136.791 49.0708 136.492 47.4487C136.165 45.6726 136.041 43.6917 136.043 41.8745C136.043 41.4815 136.422 41.5205 136.747 41.5799C137.668 41.7482 138.093 44.2548 138.242 44.93C139.143 48.9978 140.375 54.6041 138.481 58.5187C137.834 59.8561 137.216 60.9051 136.128 61.911C134.955 62.9957 133.594 63.8923 132.55 65.1093C131.424 66.4202 128.868 68.5935 128.867 70.4644C128.866 71.5739 131.85 71.1122 132.137 69.9676" stroke="white" stroke-width="10.757" stroke-linecap="round"/>
</g>
<defs>
<clipPath id="clip0_205_2377">
<rect width="215.14" height="287.365" fill="white" transform="translate(1.16846 0.931854) rotate(0.0480472)"/>
</clipPath>
</defs>
</svg>
