<svg width="162" height="215" viewBox="0 0 162 215" fill="none" xmlns="http://www.w3.org/2000/svg">
<g clip-path="url(#clip0_117_9267)">
<rect width="160.784" height="214.762" transform="translate(0.872925 0.0412598)" fill="black"/>
<path d="M98.5511 95.7838C94.1667 122.805 100.549 174.405 161.673 165.214" stroke="white" stroke-width="3.22717"/>
<path d="M97.0586 97.3473C121.733 94.4974 168.795 104.276 160.169 166.764" stroke="white" stroke-width="3.22717"/>
<path d="M161.99 145.499C136.487 141.429 88.1076 149.341 98.0859 214.115" stroke="white" stroke-width="3.22717"/>
<path d="M160.486 143.943C163.705 170.11 155.538 220.35 96.5937 212.546" stroke="white" stroke-width="3.22717"/>
<path d="M96.4003 214.342C100.736 187.312 94.2615 135.725 33.1539 145.04" stroke="white" stroke-width="3.22717"/>
<path d="M97.8906 212.777C73.2215 215.677 26.1421 205.993 34.656 143.488" stroke="white" stroke-width="3.22717"/>
<path d="M32.8809 164.755C58.3912 168.773 106.757 160.763 96.6623 96.0093" stroke="white" stroke-width="3.22717"/>
<path d="M34.3857 166.307C31.1199 140.147 39.1965 89.8901 98.1551 97.5745" stroke="white" stroke-width="3.22717"/>
<path d="M85.8987 0.817825C82.6153 22.7003 89.0019 64.2112 141.273 55.6471" stroke="white" stroke-width="3.22717"/>
<path d="M84.6428 2.10662C105.759 -0.656275 146.302 6.34898 140.007 56.9256" stroke="white" stroke-width="3.22717"/>
<path d="M141.185 40.4389C119.236 37.6344 77.8743 44.9266 87.5785 96.9982" stroke="white" stroke-width="3.22717"/>
<path d="M139.865 39.2127C143.089 60.2631 136.971 100.95 86.2688 95.7615" stroke="white" stroke-width="3.22717"/>
<path d="M86.1441 96.5121C89.3858 74.6234 82.92 33.1247 30.6652 41.7886" stroke="white" stroke-width="3.22717"/>
<path d="M87.3929 95.2201C66.2825 98.0232 25.7256 91.0953 31.9243 40.5068" stroke="white" stroke-width="3.22717"/>
<path d="M30.7834 57.6957C52.7377 60.4584 94.0852 53.0873 84.2816 1.03425" stroke="white" stroke-width="3.22717"/>
<path d="M32.1018 58.9201C28.838 37.8759 34.8781 -2.82262 85.59 2.26921" stroke="white" stroke-width="3.22717"/>
<path d="M15.3553 109.313C28.6162 100.96 47.9403 78.3431 19.1809 54.2511" stroke="white" stroke-width="3.22717"/>
<path d="M16.6201 109.389C5.37616 99.335 -9.60668 74.3393 20.4449 54.3375" stroke="white" stroke-width="3.22717"/>
<path d="M15.5702 57.257C28.8311 48.9033 48.1551 26.2867 19.3957 2.19475" stroke="white" stroke-width="3.22717"/>
<path d="M16.836 57.3345C5.5921 47.2801 -9.39074 22.2844 20.6608 2.28254" stroke="white" stroke-width="3.22717"/>
<path d="M16.5825 211.525C29.8434 203.172 49.1675 180.555 20.4081 156.463" stroke="white" stroke-width="3.22717"/>
<path d="M17.848 211.603C6.60407 201.549 -8.37877 176.553 21.6728 156.551" stroke="white" stroke-width="3.22717"/>
<path d="M16.7954 159.47C30.0563 151.116 49.3804 128.5 20.621 104.408" stroke="white" stroke-width="3.22717"/>
<path d="M18.0609 159.547C6.81696 149.493 -8.16588 124.497 21.8857 104.496" stroke="white" stroke-width="3.22717"/>
</g>
<defs>
<clipPath id="clip0_117_9267">
<rect width="160.784" height="214.762" fill="white" transform="translate(0.872925 0.0412598)"/>
</clipPath>
</defs>
</svg>
