<svg width="216" height="288" viewBox="0 0 216 288" fill="none" xmlns="http://www.w3.org/2000/svg">
<g clip-path="url(#clip0_205_2644)">
<rect width="215.14" height="287.365" transform="translate(0.382324 0.417313) rotate(0.0480472)" fill="black"/>
<path d="M19.928 145.646C37.9552 134.311 64.2367 103.604 25.1886 70.837" stroke="white" stroke-width="4.31816"/>
<path d="M21.6487 145.752C6.383 132.078 -13.9458 98.0994 26.9082 70.957" stroke="white" stroke-width="4.31816"/>
<path d="M20.2813 75.0793C38.3085 63.7443 64.59 33.0369 25.5419 0.270318" stroke="white" stroke-width="4.31816"/>
<path d="M22.0027 75.1863C6.737 61.5126 -13.5918 27.5337 27.2622 0.391332" stroke="white" stroke-width="4.31816"/>
<path d="M39.1991 151.601C60.8394 157.755 103.53 156.707 101.684 102.883" stroke="white" stroke-width="4.31816"/>
<path d="M43.2821 140.292C43.2392 118.64 52.6197 91.4015 102.805 104.32" stroke="white" stroke-width="4.31816"/>
<path d="M94.8822 102.025C116.523 108.179 159.213 107.131 157.368 53.3069" stroke="white" stroke-width="4.31816"/>
<path d="M96.0142 103.454C95.9712 81.801 108.303 41.8258 158.488 54.7447" stroke="white" stroke-width="4.31816"/>
<path d="M150.252 51.9087C171.892 58.0627 214.583 57.0151 212.737 3.1907" stroke="white" stroke-width="4.31816"/>
<path d="M151.383 53.3372C151.34 31.6845 163.672 -8.29073 213.857 4.62818" stroke="white" stroke-width="4.31816"/>
<path d="M44.0641 131.074C40.7958 153.334 46.6119 195.018 99.7316 186.143" stroke="white" stroke-width="4.31816"/>
<path d="M43.2945 131.843C64.7553 128.966 104.694 136.001 98.4554 187.445" stroke="white" stroke-width="4.31816"/>
<path d="M99.6982 179.284C96.4299 201.543 103.057 243.729 156.176 234.854" stroke="white" stroke-width="4.31816"/>
<path d="M98.4333 180.596C119.894 177.719 161.139 184.711 154.901 236.156" stroke="white" stroke-width="4.31816"/>
<path d="M156.632 227.615C153.363 249.875 159.99 292.061 213.11 283.185" stroke="white" stroke-width="4.31816"/>
<path d="M155.367 228.927C176.828 226.05 218.073 233.043 211.835 284.487" stroke="white" stroke-width="4.31816"/>
<path d="M21.4737 284.685C39.5009 273.35 65.7824 242.642 26.7343 209.876" stroke="white" stroke-width="4.31816"/>
<path d="M23.1953 284.793C7.92963 271.119 -12.3992 237.14 28.4549 209.998" stroke="white" stroke-width="4.31816"/>
<path d="M21.8199 213.958C39.8471 202.623 66.1286 171.916 27.0805 139.149" stroke="white" stroke-width="4.31816"/>
<path d="M23.5413 214.065C8.27558 200.391 -12.0532 166.412 28.8008 139.27" stroke="white" stroke-width="4.31816"/>
<path d="M49.4485 146.746C48.5254 146.561 47.9503 145.648 47.2735 145.06C45.7973 143.779 44.0848 142.825 42.5608 141.61C40.6255 140.068 39.6359 138.343 38.2902 136.321C35.373 131.937 34.0688 127.232 32.0057 122.506C31.9201 122.31 30.4304 119.051 29.9084 120.872C29.075 123.779 30.6329 126.535 31.8448 129.009C33.5124 132.413 33.8984 135.842 34.5565 139.479C34.9632 141.726 32.1456 138.791 31.6298 138.233C30.6877 137.214 29.7374 136.921 28.8333 136.106C28.0303 135.382 26.2966 135.614 25.6734 134.834C25.16 134.191 23.6823 133.728 22.9803 133.095C22.2327 132.421 21.832 131.42 21.2205 130.632C20.3614 129.526 19.2569 128.075 18.7882 126.77C18.2716 125.331 16.7104 124.184 16.382 122.7C15.8558 120.323 13.5614 118.401 13.5637 115.702C13.566 112.982 13.5683 110.261 13.5706 107.541C13.5713 106.707 14.1027 103.698 12.6662 104.534C11.2959 105.332 11.4135 106.971 10.6684 107.901C10.2437 108.431 10.2531 110.52 10.8744 109.404C11.9785 107.42 13.4581 106.155 14.04 103.836C14.6863 101.26 15.2192 98.6497 15.9379 96.1423C15.9952 95.9424 17.3689 94.0707 16.5874 94.07C15.7051 94.0693 13.6628 96.0577 13.0096 96.7098C12.6185 97.1003 12.6464 97.3404 12.6459 97.9014C12.6451 98.8859 13.6588 96.2049 14.2803 95.4413C15.3465 94.1313 16.488 92.7713 17.6777 91.5836C18.3685 90.894 19.1816 90.1827 19.1825 89.1235C19.1839 87.4748 20.9164 87.3222 21.8793 86.457C22.8902 85.5488 26.4126 82.0745 23.8527 81.4322" stroke="white" stroke-width="15.8043" stroke-linecap="round"/>
<path d="M22.4152 127.135C22.4139 128.712 22.0781 130.761 22.8773 132.162C23.7218 133.643 23.7964 137.389 24.9709 138.331C26.4992 139.555 30.1571 138.801 32.0438 138.803C35.3253 138.806 38.6082 138.78 41.8895 138.811C44.6025 138.837 47.2939 139.108 49.9988 139.284C50.0549 139.288 52.679 139.818 52.6421 138.665C52.4933 134.007 42.4183 126.91 40.1397 124.352" stroke="white" stroke-width="15.8043" stroke-linecap="round"/>
<path d="M33.6096 124.347C33.6133 119.916 33.6171 115.486 33.6208 111.055C33.6232 108.154 34.1622 104 33.059 101.235C32.4473 99.702 31.4487 98.6944 29.667 98.6929C26.7089 98.6904 26.019 103.666 25.8005 105.737C25.7367 106.342 25.6513 117.588 27.9172 115.17C29.5604 113.416 30.2597 110.348 30.9286 108.125C31.6676 105.669 32.723 103.334 33.3702 100.847C34.1282 97.9329 33.6347 94.4939 33.6372 91.4933C33.6388 89.5402 32.7873 88.3566 30.9458 87.6046C30.2372 87.3152 28.5898 86.3611 28.9768 87.5253C30.3124 91.5435 31.9654 95.7485 34.1228 99.3962C36.7471 103.833 37.8203 108.503 37.816 113.624C37.8125 117.727 37.2789 122.231 38.2718 126.216" stroke="white" stroke-width="15.8043" stroke-linecap="round"/>
<path d="M51.1702 133.814C51.1726 130.992 51.1749 128.17 51.1773 125.348C51.1789 123.46 51.9767 123.049 53.2327 121.758C54.7116 120.238 55.7232 118.246 57.2135 116.758C58.9555 115.019 61.2603 113.487 63.6307 112.787C68.7236 111.283 73.6638 108.691 78.9423 108.168C81.843 107.88 84.6288 107.626 87.5658 107.676C88.6721 107.695 90.0641 107.788 91.1573 107.993C91.6472 108.084 93.2713 108.538 93.7228 108.138C94.3384 107.591 92.4124 109.182 91.9682 109.875C90.9375 111.482 90.3693 113.014 89.8118 114.833C88.717 118.406 87.5668 121.537 85.8696 124.864C83.7989 128.923 81.0787 132.534 77.9357 135.818C75.738 138.114 73.551 140.381 70.9036 142.169C68.7862 143.599 66.5056 144.673 64.2586 145.869C61.9109 147.119 59.3699 147.675 56.7458 147.673C55.1365 147.672 57.0456 145.929 57.4888 145.464C59.8949 142.939 61.7008 140.274 63.2824 137.174C65.8917 132.059 67.9575 126.259 68.3705 120.545C68.3999 120.138 72.0715 120.491 72.5894 120.491C74.9072 120.493 76.7691 119.789 78.9759 119.157C80.5077 118.718 81.6951 117.935 82.9827 117.051C83.6028 116.625 83.8782 116.139 84.6654 116.14C86.7262 116.142 89.4618 115.716 91.2924 116.915C92.5438 117.735 92.6235 120.07 92.7282 121.392C92.9404 124.073 91.4568 126.822 90.1704 129.115C88.4812 132.126 87.0254 135.39 84.5759 137.89C82.3475 140.164 79.8164 142.275 77.0453 143.856C74.2969 145.423 71.7013 146.596 68.6615 147.426C64.0532 148.686 59.3156 149.214 54.5495 149.21C53.429 149.209 51.8818 148.91 50.7867 149.221C50.3396 149.349 51.9779 150.549 52.0683 150.648C53.6875 152.424 54.3393 154.674 55.4554 156.737C56.732 159.096 57.8899 161.654 59.3547 163.895C62.3274 168.443 66.3521 172.232 71.6468 173.726C73.4796 174.243 75.3 174.639 77.1617 175.013C77.9085 175.163 79.387 175.656 77.66 175.655C75.4743 175.653 73.5227 175.702 71.4892 174.766C67.7703 173.054 64.1386 171.087 60.4905 169.227C56.2933 167.086 51.9874 164.848 48.9666 161.15C48.5403 160.628 48.5869 159.838 49.3519 160.494C50.8684 161.797 52.6584 162.773 54.195 164.062C57.3469 166.706 60.6775 169.111 64.1375 171.339C66.1148 172.613 67.7727 173.59 70.1216 173.853" stroke="white" stroke-width="15.8043" stroke-linecap="round"/>
<path d="M63.9695 166.663C63.6893 166.662 65.2362 168.287 65.379 168.474C66.5154 169.959 67.7757 171.246 69.0956 172.568C70.2625 173.737 71.7814 174.55 73.1411 175.479C73.7127 175.869 74.9711 176.693 75.249 177.319C75.6326 178.184 75.1536 178.194 74.3358 178.416C73.1739 178.732 72.8728 178.115 71.9708 177.245C71.8685 177.146 70.7731 176.452 71.4014 176.418C72.7612 176.344 74.0269 176.565 75.3348 176.934C78.5036 177.828 81.4673 178.806 84.4968 180.135C86.0433 180.813 87.9438 180.848 89.4987 181.293C90.3956 181.55 91.665 181.471 91.6659 180.397C91.6684 177.369 90.8915 174.005 90.1344 171.075C89.3891 168.19 87.9981 165.598 87.0056 162.805C86.0791 160.198 84.9952 157.283 83.3634 155.02C81.7602 152.796 80.0928 149.916 77.582 148.658C76.1162 147.924 77.0594 149.484 75.5003 149.483C73.9075 149.482 71.796 149.339 70.5394 150.519C69.4593 151.534 69.56 153.307 69.638 154.652C69.9109 159.359 76.0611 164.752 80.6466 165.337C83.2348 165.667 85.5214 165.05 85.5238 162.262C85.5261 159.442 85.5911 156.615 85.5309 153.796C85.5143 153.021 85.1546 151.623 85.845 153.084C86.2352 153.909 86.0759 154.238 85.2745 153.596" stroke="white" stroke-width="15.8043" stroke-linecap="round"/>
<path d="M87.608 123.326C88.3848 123.23 88.9038 121.086 89.2779 120.505C89.9703 119.43 91.0282 118.502 91.6608 117.429C92.0113 116.834 94.1357 114.405 93.5165 114.095" stroke="white" stroke-width="15.8043" stroke-linecap="round"/>
<path d="M23.6562 206.139C23.6604 201.122 23.6647 196.105 23.6689 191.088C23.6764 182.148 25.4448 173.562 28.9498 165.352C30.6997 161.253 32.0162 157.03 33.6495 152.898C34.4605 150.847 35.7626 148.509 35.7645 146.258C35.7658 144.699 34.8593 143.666 33.1435 144.375C31.7438 144.953 30.8317 147.401 30.3178 148.734C29.2149 151.594 26.1815 153.476 24.4111 155.855C22.2585 158.748 19.9558 161.304 18.3177 164.573C16.7893 167.624 15.817 171.525 15.2162 174.861C14.4783 178.958 13.9266 182.92 13.9231 187.103C13.9205 190.231 14.0331 193.634 15.9679 196.27C16.6457 197.193 17.4875 197.675 18.4034 198.31C18.6443 198.477 18.9361 198.615 19.1442 198.824C19.5288 199.209 19.6647 200.613 18.8746 197.398C16.562 187.99 14.2181 178.589 11.8857 169.186" stroke="white" stroke-width="15.8043" stroke-linecap="round"/>
<path d="M12.143 171.238C12.1451 168.697 12.2797 165.653 13.9596 163.557C15.9177 161.113 18.0661 158.592 20.6214 156.75C23.2452 154.858 25.9231 152.833 28.4513 150.87C30.6507 149.162 32.5902 153.807 33.0657 155.078C36.0129 162.957 38.9074 172.541 36.7641 180.95C36.1744 183.264 35.9935 185.668 35.1619 187.933C34.3502 190.144 33.2951 192.038 32.1921 194.088C31.5796 195.226 30.8261 196.021 29.9378 196.908C29.2045 197.64 29.545 198.218 28.7975 196.907" stroke="white" stroke-width="15.8043" stroke-linecap="round"/>
<path d="M23.6013 272.587C23.604 269.407 22.2048 266.256 22.0842 263.05C21.9845 260.4 21.8178 257.796 21.82 255.139C21.8252 248.932 21.0729 242.064 22.4062 235.955C23.3466 231.647 24.5786 227.507 26.0085 223.387C26.2655 222.647 26.6858 221.469 26.4527 220.651C26.1802 219.694 23.0351 224.011 22.7437 224.496C19.7247 229.518 16.6013 234.917 14.7913 240.496C14.2864 242.052 13.5636 243.535 13.2338 245.141C12.8472 247.023 12.797 248.998 12.3311 250.855C11.7242 253.275 11.7366 256.657 12.98 258.852C15.3415 263.021 18.5788 266.758 20.5238 271.144C21.2017 272.673 22.0578 277.593 22.0592 275.92" stroke="white" stroke-width="15.8043" stroke-linecap="round"/>
<path d="M25.3989 270.536C25.4003 268.919 25.6006 267.135 26.6856 265.862C28.1381 264.159 30.1026 262.537 31.7068 260.935C33.0529 259.591 33.9447 257.543 34.7755 255.821C34.8863 255.591 36.0308 253.963 35.6175 254.582C34.6015 256.103 33.5544 257.585 32.5066 259.083C31.1926 260.961 30.1993 263.489 29.3084 265.608C28.7992 266.819 27.9662 268.54 27.965 269.897C27.9647 270.295 28.3031 270.428 28.6062 270.126C29.503 269.23 29.962 267.673 30.5334 266.564C31.6054 264.484 32.5811 262.235 33.3609 260.024C34.8231 255.88 36.7561 251.927 37.2055 247.471C37.5235 244.318 37.3438 240.956 36.5151 237.963C35.8209 235.456 34.7508 232.924 33.5281 230.649C32.8769 229.437 32.8156 228.001 31.5926 227.184" stroke="white" stroke-width="15.8043" stroke-linecap="round"/>
<path d="M111.827 203.677C111.828 202.447 111.901 201.235 111.603 200.036" stroke="white" stroke-width="15.8043" stroke-linecap="round"/>
<path d="M86.1502 161.557C86.8283 161.558 87.3146 161.651 87.8572 161.23C88.1512 161.002 89.0775 160.633 88.6544 160.421" stroke="white" stroke-width="15.8043" stroke-linecap="round"/>
<path d="M109.1 199.352C109.102 197.322 108.616 196.112 107.688 194.344C107.321 193.646 107.252 192.633 107.058 191.853C106.904 191.237 106.45 190.616 106.2 190.019C106.045 189.65 105.947 189.538 105.695 189.223C105.148 188.538 106.791 189.202 107.06 189.337C108.89 190.254 110.619 191.012 112.532 191.732C115.223 192.743 118.302 192.531 121.052 193.332C125.496 194.626 129.608 196.469 133.551 198.93C138.59 202.075 142.734 206.357 145.032 211.886C145.994 214.199 146.923 216.692 147.593 219.107C148.031 220.688 148.634 222.67 148.676 224.316C148.765 227.827 145.441 227.279 142.883 226.865C138.586 226.171 134.528 224.932 130.294 223.947C125.65 222.867 121.206 221.636 117.149 219.031C113.691 216.81 111.973 213.063 110.798 209.265C110.418 208.034 110.717 206.8 110.41 205.599C110.336 205.311 109.913 204.957 110.056 205.497C110.264 206.288 110.953 207.128 111.419 207.774C114.301 211.764 117.787 215.416 120.891 219.236C123.367 222.282 125.973 224.988 129.102 227.36C131.537 229.206 133.991 229.93 137.027 229.629C137.634 229.569 137.987 228.905 138.204 228.404C138.501 227.718 138.433 226.919 138.433 226.192C138.435 223.995 138.514 221.791 138.047 219.63C137.037 214.955 135.23 210.594 131.622 207.386C130.416 206.314 128.846 204.718 127.39 204.02C125.933 203.322 123.568 202.229 122.411 201.07C121.319 199.976 122.129 203.11 122.22 203.409C123.525 207.734 124.836 212.14 127.772 215.677C128.942 217.087 130.886 217.348 132.625 217.35C134.037 217.351 134.379 216.983 134.523 215.531C134.787 212.874 132.344 210.572 130.812 208.688C128.047 205.287 125.328 201.822 122.375 198.579C120.609 196.64 118.189 195.702 116.387 193.897C116.053 193.562 113.715 190.416 114.81 190.052C116.556 189.471 118.247 190.396 119.562 191.383C122.174 193.346 125.867 193.808 128.648 195.588C131.385 197.34 134.226 198.893 136.976 200.627C137.469 200.938 141.904 204.059 141.866 203.071C141.82 201.85 139.309 200.702 138.455 200.161C136.969 199.218 135.485 198.048 134.134 196.92C132.304 195.392 130.376 194.23 128.436 192.87C127.376 192.127 126.239 192.244 125.036 192.071C124.41 191.981 123.859 191.855 123.215 191.854C122.466 191.854 122.533 191.671 122.533 190.943" stroke="white" stroke-width="15.8043" stroke-linecap="round"/>
<path d="M115.242 202.087C115.245 198.676 115.831 194.708 114.745 191.442C114.566 190.902 113.736 190.179 113.381 189.696C112.832 188.948 112.591 188.204 111.613 188.203" stroke="white" stroke-width="15.8043" stroke-linecap="round"/>
<path d="M135.716 213.483C137.427 215.34 138.835 217.63 140.376 219.644C141.51 221.125 142.794 223.081 144.304 224.186C145.329 224.936 146.449 226.382 147.297 227.374C147.785 227.944 148.471 229.503 148.675 228.285" stroke="white" stroke-width="15.8043" stroke-linecap="round"/>
<path d="M191.197 264.732C190.612 263.97 190.303 262.991 189.784 262.177C188.603 260.329 187.13 258.663 185.856 256.877C183.9 254.133 181.827 251.334 179.58 248.818C178.107 247.17 176.76 245.767 174.956 244.465C173.777 243.615 172.386 243.079 171.241 242.187C169.37 240.729 167.43 239.38 165.454 238.086C165.261 237.959 163.965 237.416 163.925 237.275C163.819 236.901 163.573 236.662 163.23 236.491" stroke="white" stroke-width="15.8043" stroke-linecap="round"/>
<path d="M163.23 236.491C167.323 236.494 171.195 238.102 175.29 238.321C177.132 238.42 178.899 239.398 180.522 240.197C182.289 241.066 184.401 241.992 185.994 243.109C189.405 245.501 192.317 247.673 194.799 251.082C196.991 254.091 198.828 257.336 199.949 260.871C200.354 262.146 200.186 263.598 200.54 264.841C200.906 266.125 202.112 263.448 202.122 262.921C202.191 259.486 201.557 255.75 199.071 253.26C198.255 252.442 197.466 251.51 196.684 250.628C195.691 249.509 194.633 247.859 193.437 246.984C192.099 246.004 191.842 245.39 190.076 245.388C188.816 245.387 187.61 246.257 186.409 246.523C183.909 247.076 181.337 247.365 178.809 247.756C174.649 248.399 170.015 249.791 166.686 246.456C166.35 246.119 166.268 245.681 166.004 245.318C165.962 245.259 165.966 244.548 165.777 244.736C164.87 245.642 166.542 249.634 166.733 250.489C168.073 256.478 170.506 263.312 175.67 267.172C177.991 268.906 180.041 270.549 182.721 271.729C185.471 272.941 188.276 273.861 191.176 274.632C194.271 275.454 197.661 275.936 200.797 274.93C201.838 274.597 204.298 274.421 204.604 273.05C204.774 272.291 204.317 272.093 204.176 271.457C204.022 270.764 204.119 270.365 203.709 269.749" stroke="white" stroke-width="15.8043" stroke-linecap="round"/>
<path d="M203.482 270.431C203.48 272.772 203.833 274.555 204.842 276.577" stroke="white" stroke-width="15.8043" stroke-linecap="round"/>
<path d="M21.2091 35.1984C21.2091 35.2875 21.2103 33.7695 21.2107 33.3407C21.2121 31.6682 21.828 30.11 22.3903 28.5523C22.8727 27.2158 23.9029 26.1508 24.4688 24.8677C25.223 23.1575 25.9835 21.4653 26.5775 19.6883C26.9597 18.545 27.5034 17.4804 28.0171 16.395C28.4917 15.392 28.2803 14.0808 28.2812 12.9991C28.2825 11.4215 27.7816 11.264 26.1926 11.43C24.6604 11.5899 23.8599 14.834 23.054 15.8684C19.521 20.403 16.2848 25.4513 13.26 30.3443C11.6521 32.9454 10.6746 35.8904 10.2341 38.9046C9.52965 43.7241 10.3839 47.4806 13.039 51.5915C14.8614 54.4132 17.2966 56.9589 19.9991 58.97C21.0005 59.7152 22.2513 60.5393 23.539 60.5404" stroke="white" stroke-width="15.8043" stroke-linecap="round"/>
<path d="M20.679 43.5573C20.6828 38.9694 21.5049 33.6219 18.7314 29.6085C18.2184 28.8661 17.4765 28.2642 16.919 27.5026C16.4598 26.8753 15.9436 26.0122 15.3387 25.5275C15.0511 25.2969 14.9002 24.5712 14.7448 24.2208C14.3532 23.3377 14.6263 23.3771 15.2102 23.1182C16.5702 22.5151 17.8028 22.5152 19.1287 23.1795" stroke="white" stroke-width="15.8043" stroke-linecap="round"/>
<path d="M27.546 14.1839C27.6502 14.8474 28.1801 15.2958 28.5788 15.8054C29.1169 16.4931 29.6059 17.2148 30.1031 17.9318C31.5745 20.0538 33.0348 22.172 34.0955 24.5375C35.1778 26.951 35.3304 29.7394 34.5179 32.2438C33.8354 34.3474 33.38 36.7166 32.3306 38.6678C31.2195 40.7336 29.9409 42.7682 28.605 44.6995C28.0105 45.5589 27.4187 46.3715 26.497 46.8733" stroke="white" stroke-width="15.8043" stroke-linecap="round"/>
<path d="M34.4559 28.9455C34.5488 29.3495 34.8809 29.6631 35.1108 29.9929C35.6217 30.7256 35.9636 31.6443 36.2943 32.4658C36.7355 33.5618 36.7424 34.6798 36.9978 35.8149C37.3762 37.4975 37.0688 39.6113 36.7031 41.2504C36.1973 43.5177 35.2232 46.0758 33.7337 47.9007C33.0501 48.7383 32.3087 49.491 31.4869 50.1942C30.8629 50.7281 30.2623 51.2965 29.6441 51.8385C29.209 52.2201 28.6438 52.6015 28.2684 53.0418C27.6549 53.7614 26.966 55.0653 26.5888 55.7646C24.9027 58.8895 24.1098 60.6139 22.3948 63.8958" stroke="white" stroke-width="15.8043" stroke-linecap="round"/>
<path d="M32.8457 53.8029C32.8449 54.8241 31.8057 55.6519 31.3678 56.5259" stroke="white" stroke-width="15.8043" stroke-linecap="round"/>
<path d="M143.084 70.4531C143.062 70.6318 142.825 70.5709 142.691 70.5708C141.758 70.57 140.906 70.8308 140.016 71.093C136.893 72.0134 133.765 73.0112 130.894 74.5795C126.984 76.7155 123.393 79.4881 119.999 82.3585C116.637 85.2014 113.468 88.7952 109.502 90.7737C108.845 91.1017 108.155 91.4508 107.548 91.8406C106.892 92.2615 106.325 93.2736 105.829 93.9042C105.386 94.4662 104.41 95.8081 103.651 95.5544" stroke="white" stroke-width="15.8043" stroke-linecap="round"/>
<path d="M103.649 95.5534C103.65 94.8761 103.642 94.1984 103.651 93.5212C103.667 92.308 104.164 91.1128 104.677 90.0279C105.873 87.4971 106.706 84.7723 108.315 82.4592C111.195 78.3192 113.708 73.6967 117.463 70.2603C119.445 68.4474 121.904 67.0175 124.128 65.5065C126.469 63.9157 128.913 62.7852 131.67 62.1825C133.86 61.7037 136.26 61.3604 138.501 61.3622C140.211 61.3637 142.108 61.3683 143.799 61.1045C144.663 60.9696 145.506 60.6601 146.395 60.6608C146.745 60.6611 147.021 60.4431 147.339 60.4256C147.587 60.4121 147.864 60.4733 148.106 60.4197C148.342 60.3676 148.505 60.3233 148.755 60.3088C148.89 60.301 149.047 60.0862 149.169 60.0863C149.311 60.0864 148.648 60.7293 148.611 60.7807C148.104 61.4742 147.913 62.4081 147.632 63.2055C146.816 65.5206 146.286 67.8925 145.843 70.3037C145.274 73.3978 143.888 75.988 141.948 78.4294C138.532 82.7304 134.005 86.5307 128.999 88.8617C125.933 90.2894 122.944 91.5018 119.661 92.3546C118.019 92.781 116.41 93.176 114.724 93.3797C113.48 93.5299 112.179 93.5788 110.993 94.0256C110.336 94.2731 110.494 94.6797 110.494 95.3232C110.493 96.2406 111.287 96.6218 112.171 96.6226C113.919 96.624 115.613 96.1535 117.343 96.1549C119.554 96.1568 121.933 95.8209 123.966 94.9083C125.798 94.0855 127.407 93.0528 129.14 92.061C130.832 91.0931 132.405 90.0331 133.863 88.7281C136.362 86.4921 138.866 84.3531 140.884 81.667C141.722 80.5508 142.385 79.3173 143.194 78.1814C144.064 76.9608 144.848 75.5402 145.387 74.1384C146.036 72.4529 146.924 70.7198 148.276 69.5125C148.422 69.3814 148.85 69.2924 148.564 69.5783C148.118 70.0236 147.583 70.2504 147.186 70.7703C146.124 72.1614 145.441 73.9297 144.613 75.4685C143.597 77.3556 142.455 79.1626 141.278 80.9528C139.683 83.3791 138.034 85.828 136.316 88.1729C135.682 89.0375 134.909 89.7602 134.209 90.564C134.143 90.6396 133.263 91.5662 133.769 91.5666C134.176 91.567 134.512 91.3523 134.832 91.1217C136.056 90.239 137.018 89.0647 138.086 88.0105C139.911 86.2089 141.776 84.5653 143.309 82.4885C144.268 81.1883 144.913 79.7664 145.259 78.1962C145.398 77.5686 145.646 77.0995 145.438 76.4722" stroke="white" stroke-width="15.8043" stroke-linecap="round"/>
<path d="M195.518 21.6436C194.771 21.643 194.018 22.1321 193.406 22.4941C190.879 23.9882 188.463 25.6804 186.007 27.2866C183.551 28.8931 181.15 30.6123 178.779 32.3415C176.768 33.8078 174.955 35.5308 173.045 37.1223C171.553 38.3661 170.042 39.4565 168.414 40.5011C167.44 41.1261 166.375 41.5185 165.345 42.0326C164.34 42.5337 163.257 42.9909 162.367 43.6821C162.079 43.906 161.308 44.2109 161.134 44.5071C160.928 44.8568 160.11 45.3848 159.743 45.5679" stroke="white" stroke-width="15.8043" stroke-linecap="round"/>
<path d="M159.743 45.5679C159.744 43.7226 159.499 41.7567 160.22 40.0223C161.283 37.4624 162.497 34.6836 164.244 32.526C167.611 28.3692 171.169 24.1682 175.261 20.7089C176.013 20.0735 176.751 19.4023 177.531 18.8031C178.24 18.2584 179.096 17.9246 179.801 17.3824C179.876 17.324 180.619 16.6433 180.254 16.5699C178.96 16.3101 177.572 17.4165 176.542 18.0221C173.061 20.0696 170.211 22.7374 167.384 25.56C167.277 25.6664 166.829 26.0652 166.84 25.6972C166.865 24.8272 167.797 23.9121 168.31 23.2925C170.404 20.7646 173.194 18.6845 175.841 16.7891C179.323 14.2969 183.25 11.4054 187.738 11.2595C193.094 11.0855 198.424 10.6719 203.787 10.6764C203.935 10.6766 204.613 10.408 204.613 10.6771C204.612 10.9613 204.172 11.1331 204.029 11.3388C203.456 12.1599 203.174 13.45 202.964 14.4059C202.407 16.9357 201.814 19.432 201.07 21.9171C200.353 24.3113 198.975 26.3744 197.308 28.2008C195.922 29.719 194.426 31.4192 192.768 32.6417C191.167 33.822 189.82 35.3399 188.136 36.427C185.495 38.1332 182.54 39.5389 179.663 40.7859C176.812 42.0217 173.722 42.9447 170.686 43.6235C170.1 43.7544 169.519 43.9412 168.922 44.0154C168.231 44.1011 167.529 43.9841 166.837 44.0464C166.036 44.1186 165.962 44.3444 166.732 44.6298C167.364 44.8641 168.05 44.9084 168.652 45.2214C169.15 45.4801 169.757 45.8147 170.31 45.9046C171.31 46.0671 172.285 46.0504 173.3 46.0513C176.311 46.0538 179.391 45.0903 181.994 43.633C185.365 41.746 188.57 39.6399 191.44 37.0394C192.528 36.0536 193.775 35.2833 194.864 34.2955C195.331 33.8727 195.787 33.4338 196.242 32.9986C196.49 32.7614 197.219 32.0357 196.97 32.2715C194.421 34.6852 191.977 37.2225 189.484 39.6928" stroke="white" stroke-width="15.8043" stroke-linecap="round"/>
<path d="M186.061 40.3983C186.574 40.3987 187.086 40.4183 187.595 40.334C188.746 40.1431 189.527 39.214 190.494 38.6385C192.357 37.5289 194.163 36.3623 195.964 35.149C197.286 34.2582 198.717 33.3771 199.782 32.1628C200.291 31.5823 203.432 28.1705 201.883 27.5494" stroke="white" stroke-width="15.8043" stroke-linecap="round"/>
</g>
<defs>
<clipPath id="clip0_205_2644">
<rect width="215.14" height="287.365" fill="white" transform="translate(0.382324 0.417313) rotate(0.0480472)"/>
</clipPath>
</defs>
</svg>
