<svg width="162" height="215" viewBox="0 0 162 215" fill="none" xmlns="http://www.w3.org/2000/svg">
<g clip-path="url(#clip0_117_8274)">
<rect width="160.784" height="214.762" transform="translate(0.694092 0.0412598)" fill="black"/>
<path d="M54.438 73.302C75.331 66.8826 109.56 43.5277 79.5376 0.865334" stroke="white" stroke-width="3.22717"/>
<path d="M56.1294 73.8649C44.622 56.3338 33.489 17.4251 81.2243 1.44181" stroke="white" stroke-width="3.22717"/>
<path d="M32.5167 143.362C53.4097 136.943 87.6385 113.588 57.6163 70.9255" stroke="white" stroke-width="3.22717"/>
<path d="M34.2037 143.923C22.6962 126.392 11.5632 87.4832 59.2985 71.4999" stroke="white" stroke-width="3.22717"/>
<path d="M10.6412 213.638C31.5342 207.219 65.763 183.864 35.7408 141.202" stroke="white" stroke-width="3.22717"/>
<path d="M12.3322 214.201C0.824713 196.67 -10.3083 157.761 37.427 141.778" stroke="white" stroke-width="3.22717"/>
<path d="M106.837 73.5186C85.7069 67.0859 51.0893 43.6827 81.4525 0.931902" stroke="white" stroke-width="3.22717"/>
<path d="M105.133 74.0804C116.771 56.513 128.031 17.5237 79.7532 1.5073" stroke="white" stroke-width="3.22717"/>
<path d="M129.005 143.724C107.874 137.292 73.2567 113.888 103.62 71.1375" stroke="white" stroke-width="3.22717"/>
<path d="M127.298 144.286C138.936 126.719 150.196 87.7295 101.918 71.7131" stroke="white" stroke-width="3.22717"/>
<path d="M151.128 214.145C129.998 207.712 95.3804 184.309 125.744 141.558" stroke="white" stroke-width="3.22717"/>
<path d="M149.422 214.707C161.06 197.14 172.32 158.15 124.042 142.134" stroke="white" stroke-width="3.22717"/>
<path d="M119.24 109.551C106.19 127.293 72.5983 152.133 41.9965 109.551" stroke="white" stroke-width="3.22717"/>
<path d="M119.213 111.337C106.362 94.6276 73.0526 71.2338 41.9839 111.337" stroke="white" stroke-width="3.22717"/>
</g>
<defs>
<clipPath id="clip0_117_8274">
<rect width="160.784" height="214.762" fill="white" transform="translate(0.694092 0.0412598)"/>
</clipPath>
</defs>
</svg>
