<svg width="151" height="201" viewBox="0 0 151 201" fill="none" xmlns="http://www.w3.org/2000/svg">
<g clip-path="url(#clip0_205_3016)">
<rect width="149.426" height="199.59" transform="translate(0.457031 1.20276) rotate(-0.0977007)" fill="black"/>
<path d="M149.258 132.148C119.755 129.044 64.2624 137.583 77.7259 197.11" stroke="white" stroke-width="2.99918"/>
<path d="M147.474 130.757C151.977 154.825 144.097 201.402 75.9558 195.707" stroke="white" stroke-width="2.99918"/>
<path d="M99.0788 196.553C102.019 171.367 90.6732 124.28 21.1268 136.927" stroke="white" stroke-width="2.99918"/>
<path d="M100.677 195.011C72.5358 199.324 17.6796 193.537 22.7393 135.396" stroke="white" stroke-width="2.99918"/>
<path d="M20.7894 135.289C50.2991 138.346 105.772 129.717 92.1752 70.2114" stroke="white" stroke-width="2.99918"/>
<path d="M22.5699 136.68C18.0126 112.619 25.7891 66.0289 93.9422 71.6135" stroke="white" stroke-width="2.99918"/>
<path d="M70.8037 70.8095C67.9201 96.0005 79.3711 143.07 148.889 130.309" stroke="white" stroke-width="2.99918"/>
<path d="M69.2115 72.3515C97.3426 67.9928 152.212 73.6901 147.282 131.84" stroke="white" stroke-width="2.99918"/>
<path d="M25.6312 73.4325C8.82477 62.612 -13.502 34.6957 25.6954 7.87405" stroke="white" stroke-width="2.99918"/>
<path d="M23.9651 73.4408C39.3303 62.1976 61.462 34.1907 23.4477 8.39332" stroke="white" stroke-width="2.99918"/>
<path d="M24.8956 136.495C8.09012 125.674 -15.7191 97.4636 23.476 70.6419" stroke="white" stroke-width="2.99918"/>
<path d="M23.2309 136.505C38.5962 125.261 59.826 96.4614 21.8117 70.664" stroke="white" stroke-width="2.99918"/>
<path d="M24.8956 136.495C8.09012 125.674 -15.7191 97.4636 23.476 70.6419" stroke="white" stroke-width="2.99918"/>
<path d="M23.2309 136.505C38.5962 125.261 59.826 96.4614 21.8117 70.664" stroke="white" stroke-width="2.99918"/>
<path d="M77.2718 23.1974C89.0674 7.77147 119.814 -14.087 149.029 21.8753" stroke="white" stroke-width="2.99918"/>
<path d="M77.2652 21.6692C89.512 35.767 120.888 55.2417 149.009 20.3475" stroke="white" stroke-width="2.99918"/>
<path d="M9.6864 22.742C21.482 7.31609 50.8152 -14.8687 80.03 21.0936" stroke="white" stroke-width="2.99918"/>
<path d="M9.40472 21.8369C21.6514 35.9346 52.1696 54.587 80.2909 19.6928" stroke="white" stroke-width="2.99918"/>
<path d="M24.0523 199.722C7.24686 188.902 -16.5624 160.691 22.6327 133.869" stroke="white" stroke-width="2.99918"/>
<path d="M22.3872 199.731C37.7524 188.487 58.9823 159.687 20.9679 133.89" stroke="white" stroke-width="2.99918"/>
<path d="M32.3829 24.0376C32.8334 25.3179 32.2255 27.1073 31.9158 28.3448C31.3103 30.7641 30.506 33.0618 29.6044 35.3799C28.4978 38.225 27.3435 41.0591 26.3588 43.9494C26.2042 44.4033 26.0494 46.3475 25.0727 45.898C21.818 44.3999 19.2111 40.0429 16.8596 37.64" stroke="white" stroke-width="10.9769" stroke-linecap="round"/>
<path d="M33.2493 18.1237C32.5292 20.0395 31.9972 21.8267 30.8743 23.5775C29.1994 26.189 27.8661 28.9155 26.4358 31.6625C24.311 35.743 22.5472 39.9949 20.6424 44.1777C19.8719 45.8695 18.9977 47.771 18.6727 44.765C17.9843 38.3975 18.655 32.1661 21.7922 26.476C23.3794 23.5972 26.0072 21.5619 28.1174 19.1056C28.2728 18.9248 29.6802 17.6148 28.9662 17.4862C28.4211 17.3881 27.7913 17.4761 27.2388 17.477C26.0171 17.4791 24.0044 16.9693 23.2249 17.7515C22.2339 18.7458 25.4495 16.0208 26.6756 15.337C27.3594 14.9555 26.2124 14.6793 25.7992 15.0709C23.4723 17.2761 22.1963 20.4408 19.9003 22.7447C18.9155 23.7328 18.1353 24.8663 17.3878 26.0335C17.0337 26.5864 15.0096 29.6108 15.8936 27.2525C16.608 25.3467 18.3343 23.8041 19.4613 22.1372C19.579 21.9631 20.9251 20.9912 20.0068 20.9928C19.0646 20.9944 17.848 22.4608 17.3829 23.1869C16.7677 24.1476 15.8025 24.8449 15.2099 25.8182C13.6158 28.4368 12.0315 31.3811 11.3319 34.4131C10.7051 37.1294 10.2943 39.4461 10.2991 42.249C10.3008 43.2708 10.3025 44.2926 10.3043 45.3145C10.3071 46.9827 11.1156 48.4026 11.7354 49.9103C12.992 52.967 14.9731 54.7764 17.0031 57.2488C18.0304 58.5001 18.8914 59.93 19.9656 61.0635C20.6226 61.7567 21.2581 63.6034 22.2817 63.8939C22.7375 64.0233 23.7633 65.7396 23.9144 65.4361" stroke="white" stroke-width="10.9769" stroke-linecap="round"/>
<path d="M19.0707 50.5549C19.3728 49.7452 21.7243 51.2353 22.1136 51.535C22.7167 51.9995 23.1693 52.781 23.3456 53.5158C23.7036 55.008 23.4121 56.3686 22.9271 57.762C22.5116 58.9556 22.1485 61.0726 23.0804 62.1045C23.6088 62.6896 25.1346 62.3687 25.8788 62.3674C26.9876 62.3655 26.6788 62.6613 25.9899 63.3525C25.7609 63.5824 25.5429 64.3183 25.8934 63.7906C26.1673 63.3783 26.607 63.1076 26.8768 62.682C27.8311 61.1767 29.2894 60.0712 30.5196 58.8074C31.1149 58.1959 33.1369 56.3547 31.9986 55.788" stroke="white" stroke-width="10.9769" stroke-linecap="round"/>
<path d="M39.1895 23.2081C39.1962 27.1485 36.5171 30.6563 35.7399 34.4333C35.3968 36.1003 34.481 37.7201 33.7969 39.2604C31.9611 43.3941 31.5629 47.1729 30.9456 51.7583" stroke="white" stroke-width="10.9769" stroke-linecap="round"/>
<path d="M30.4617 54.4421C30.5894 55.4499 32.8293 53.5827 33.1428 53.4078C34.1647 52.8378 34.467 51.9317 34.8458 50.8846C35.7621 48.3512 36.5905 45.7828 37.3936 43.1975C37.7228 42.1375 37.8776 40.8649 38.0111 39.7818C38.1772 38.4344 38.7202 37.2121 39.1563 35.9453C39.4973 34.9548 40.9945 33.9367 42.0119 33.935C42.9943 33.9333 44.1594 34.1213 45.0603 33.7401C46.0531 33.3201 47.4572 33.3339 48.5278 33.0025C49.8187 32.6029 51.1943 32.3472 52.4959 31.844C53.8775 31.3099 55.3315 30.8012 56.7618 30.4411C58.2153 30.0751 59.937 30.0058 61.2856 29.39C64.9461 27.7186 72.1191 25.5884 72.1107 20.7132" stroke="white" stroke-width="10.9769" stroke-linecap="round"/>
<path d="M38.7029 46.2961C38.7035 46.6092 38.637 47.1242 38.988 47.2406" stroke="white" stroke-width="10.9769" stroke-linecap="round"/>
<path d="M45.1952 29.6538C45.4715 29.7741 45.6844 28.2132 45.7645 27.931C46.182 26.4602 46.5688 25.0302 46.6756 23.4988C46.7113 22.9863 46.7699 22.2712 46.1692 22.0561C45.8352 21.9365 45.4243 22.0019 45.0771 21.9582C44.2374 21.8526 43.4332 21.5985 42.6298 21.3429C41.2173 20.8936 39.8696 20.4806 38.3865 20.3528C37.7178 20.2951 37.2574 20.4045 37.1122 21.1371C36.9594 21.908 37.0066 22.7494 37.8347 23.0834C38.9149 23.5192 39.5339 22.8464 39.8695 21.8726C40.6181 19.6998 40.1594 16.1803 37.8735 15.0516C36.5555 14.4009 35.262 14.3313 33.8359 14.5966C32.6365 14.8196 29.7133 15.1781 29.2722 13.5229C29.1873 13.2044 29.0313 12.5785 29.3858 12.4099C29.6888 12.2657 30.0226 12.3295 30.3357 12.235C31.0431 12.0214 31.7777 11.6557 32.4497 11.3442C33.4404 10.8849 34.4994 10.6119 35.4765 10.1054C36.5129 9.56832 37.4223 9.12842 38.5664 8.87703C41.1002 8.32026 43.8342 8.38534 46.419 8.49092C49.185 8.6039 52.0206 9.25468 54.5537 10.3616C55.73 10.8757 56.7695 11.6462 57.927 12.1984C59.6505 13.0207 61.4193 13.6514 63.0495 14.6727C64.2481 15.4237 65.4243 16.2213 66.644 16.9344C66.9388 17.1067 67.1912 17.2282 67.4271 17.4633C67.4746 17.5106 67.2993 17.0808 67.2321 17.0016C66.8014 16.4944 66.2701 16.0053 65.7598 15.5815C65.124 15.0536 64.6065 14.403 63.972 13.8627C61.9951 12.1792 59.8305 11.2596 57.399 10.3988C54.9625 9.53622 52.8283 8.09678 50.1665 8.10132C48.4523 8.10424 47.3201 9.33232 46.2651 10.5962C45.5212 11.4875 45.4493 12.3979 45.4512 13.5216C45.4539 15.1063 45.2315 16.9106 45.8585 18.4082C46.6238 20.2362 47.9372 21.785 49.5513 22.9165C51.0141 23.9419 52.5562 24.83 53.9346 25.9747C54.6065 26.5327 55.2537 27.2838 56.142 27.4933C57.2868 27.7633 58.3146 27.0024 59.0585 26.1865C59.6372 25.5518 59.859 24.6971 59.3172 23.9812C57.8131 21.9937 55.4976 20.9159 53.0959 20.5377C51.7201 20.321 50.3676 20.2903 48.9799 20.2927C48.6621 20.2932 48.3813 20.3452 48.297 20.0104" stroke="white" stroke-width="10.9769" stroke-linecap="round"/>
<path d="M64.7334 17.2429C65.1094 17.5759 66.413 17.3345 66.9069 17.3336C67.2358 17.3331 67.5648 17.3325 67.8938 17.332C68.0315 17.3317 69.3601 17.3665 68.702 17.2361" stroke="white" stroke-width="10.9769" stroke-linecap="round"/>
<path d="M87.4687 20.7607C87.6608 20.7604 89.4077 20.8055 89.2628 20.874C88.9171 21.0374 88.2596 20.9089 87.8759 20.9095C87.5341 20.9101 85.1293 20.6592 84.9278 21.0641" stroke="white" stroke-width="10.9769" stroke-linecap="round"/>
<path d="M89.2599 19.5616C90.0543 19.472 91.0265 18.6237 91.6328 18.1457C92.234 17.6716 92.8952 17.2873 93.5908 16.938C96.0603 15.698 97.8205 13.4371 100.16 12.0018C100.557 11.7582 100.939 11.4773 101.347 11.2523C101.607 11.1086 102.449 10.8684 102.152 10.8689C101.456 10.87 100.649 11.6065 100.077 11.9272C99.1449 12.4495 98.2935 13.0821 97.3557 13.6012C96.0161 14.3427 94.6528 14.9834 93.2897 15.6678C92.7265 15.9506 91.793 16.5482 91.6452 15.6706" stroke="white" stroke-width="10.9769" stroke-linecap="round"/>
<path d="M99.2686 14.7603C98.7556 14.7612 100.302 14.7126 100.797 14.575C101.913 14.2641 102.937 13.6935 104.05 13.3735C104.91 13.1261 106.03 12.0053 106.439 11.3097C106.829 10.6451 107.058 9.77836 106.104 9.81532C105.618 9.83413 104.524 10.8645 104.793 10.864C105.393 10.863 106.21 10.4098 106.802 10.2626C107.859 10 108.845 9.60308 109.873 9.24413C111.103 8.81498 112.707 8.33904 114.025 8.30685C116.725 8.24086 119.065 9.01826 121.684 9.48976C124.813 10.0531 127.249 12.0534 130.145 13.1463C132.373 13.9869 133.813 15.3094 135.45 16.9411C136.092 17.5803 136.825 18.3117 137.613 18.7396C138.05 18.9773 138.39 19.5858 138.819 19.7758C139.388 20.0274 139.576 20.4692 140.017 20.8202C140.205 20.9704 140.542 21.9569 140.541 21.4173" stroke="white" stroke-width="10.9769" stroke-linecap="round"/>
<path d="M136.282 20.5801C137.77 20.5776 138.661 20.6049 139.965 21.3692C140.28 21.5537 140.586 21.7576 140.988 21.7993C141.329 21.8345 142.013 22.3113 141.704 21.798" stroke="white" stroke-width="10.9769" stroke-linecap="round"/>
<path d="M90.9885 21.8188C91.0629 22.7656 91.6134 23.5988 91.71 24.5482C91.8043 25.4748 90.5253 25.2926 89.8667 25.3004C89.0529 25.31 87.8609 25.5269 87.0796 25.2246C86.9033 25.1564 85.7564 24.5995 86.0636 24.5819C87.2834 24.5121 88.5197 24.6398 89.713 24.8818C93.4852 25.6467 97.0781 26.9514 100.938 27.3114C102.573 27.4639 104.325 27.6502 105.907 27.0935C106.391 26.9231 106.434 26.9091 106.075 26.4327" stroke="white" stroke-width="10.9769" stroke-linecap="round"/>
<path d="M102.005 20.4954C105.254 20.4898 108.502 20.4843 111.751 20.4788C112.164 20.4781 113.35 20.5528 112.983 20.3639C111.256 19.4739 109.357 18.7332 107.542 18.0534C104.29 16.835 100.878 15.9378 97.4213 15.5575C96.3843 15.4434 95.1996 15.3189 94.1509 15.4664C93.9518 15.4944 93.414 15.7213 93.7168 15.9907C94.7785 16.9354 96.5416 17.4941 97.8763 17.8604C102.981 19.2617 108.603 19.5786 113.876 19.6052C115.986 19.6159 118.318 19.8672 120.352 19.1592C120.97 18.944 122.607 18.2519 123.17 18.7839C124.068 19.6311 124.918 20.4003 125.977 21.0828C126.602 21.4853 128.57 22.5056 127.864 22.2717C127.374 22.1092 126.711 21.1639 126.364 20.8566C124.478 19.1884 122.458 17.5825 120.282 16.3079C117.949 14.941 114.985 13.6713 112.255 13.4057C110.951 13.2789 108.908 12.9789 109.486 14.8603C110.206 17.2019 113.141 18.4885 114.619 20.3289" stroke="white" stroke-width="10.9769" stroke-linecap="round"/>
<path d="M94.9031 21.3771C94.9064 23.2872 94.7645 25.1486 94.7678 27.0319C94.7691 27.8105 94.4584 29.3299 95.0305 29.9634C95.341 30.3072 95.9227 31.3079 96.0783 30.3644" stroke="white" stroke-width="10.9769" stroke-linecap="round"/>
<path d="M97.9551 26.4466C99.3971 27.8837 100.796 29.7588 102.522 30.8529C103.097 31.2173 103.784 31.2476 104.343 31.5425C104.931 31.8526 104.717 32.0896 104.119 32.0906C103.012 32.0925 104.082 32.0907 104.57 32.0899C105.462 32.0884 106.242 32.5227 107.108 32.6655C107.927 32.8006 108.756 33.008 109.566 33.209C110.593 33.4639 111.683 33.6726 112.756 33.6708C114.098 33.6685 115.797 33.9326 117.106 33.6311C118.577 33.2921 119.905 33.2738 121.309 32.5688C122.425 32.0082 123.794 31.3532 124.995 31.0079C125.617 30.8292 126.372 30.4453 126.959 30.1669C127.714 29.8089 128.469 29.4812 129.205 29.0837C130.762 28.2415 132.484 27.2883 133.799 26.0633C134.163 25.7236 134.58 25.2213 134.957 24.9336C135.575 24.4624 135.804 24.1289 134.899 24.2813C132.702 24.6514 130.381 24.5065 128.166 24.5103C124.295 24.5169 120.378 24.3682 116.51 24.5624C113.859 24.6955 111.246 24.6821 108.6 24.5436C108.116 24.5183 108.438 23.819 108.913 23.8181C111.928 23.813 114.935 23.7747 117.943 24.0202C120.827 24.2556 123.909 24.4594 126.741 25.0926C128.168 25.4117 129.749 25.2325 131.204 25.23C132.077 25.2285 133.2 25.419 134.047 25.1527C134.54 24.9976 135.133 24.8823 135.649 24.7875C136.068 24.7106 137.146 24.6871 136.663 24.2058" stroke="white" stroke-width="10.9769" stroke-linecap="round"/>
<path d="M101.284 32.9188C101.226 32.9352 102.06 33.8418 102.138 33.6853" stroke="white" stroke-width="10.9769" stroke-linecap="round"/>
<path d="M80.9274 98.3247C70.599 98.3423 59.6087 102.108 52.3231 109.68C49.5188 112.594 46.0788 114.887 43.6692 118.185C43.2277 118.789 42.3883 119.563 42.1255 120.25C41.9544 120.697 41.6922 122.043 41.6902 120.886" stroke="white" stroke-width="10.9769" stroke-linecap="round"/>
<path d="M25.2189 109.913C25.2212 111.25 25.2281 115.26 25.2258 113.923C25.2189 109.865 22.104 105.294 21.1135 101.308C19.856 96.2471 18.8177 90.7862 18.4222 85.5681C18.2698 83.5571 20.1665 88.9197 20.5826 89.8436C25.0591 99.7844 30.1795 113.296 43.1489 113.274" stroke="white" stroke-width="10.9769" stroke-linecap="round"/>
<path d="M25.2192 109.913C24.8919 107.012 29.0385 104.9 31.0208 103.121C33.6606 100.751 36.5639 98.9189 39.1372 96.4324C39.8886 95.7063 43.6274 91.3459 41.552 92.0683C39.5634 92.7605 37.2355 94.7281 35.7458 96.2228C33.653 98.3228 36.6182 102.84 38.665 103.592C43.46 105.355 49.2894 102.881 53.8134 101.386C59.021 99.6654 64.3983 98.2259 69.8199 97.3489C76.2923 96.302 57.0797 100.51 50.6111 101.58C47.2605 102.134 43.9006 102.278 40.5475 102.728C40.1682 102.779 38.2155 103.517 39.0936 102.407C40.584 100.524 43.9995 99.0714 46.2455 98.2503C47.4762 97.8004 45.5673 97.6207 45.0596 97.2835" stroke="white" stroke-width="10.9769" stroke-linecap="round"/>
<path d="M35.8686 91.0516C36.3687 90.9981 36.9605 90.4765 37.3454 90.1606C37.5557 89.9879 37.7141 89.7327 37.9118 89.5399C38.0573 89.3979 38.2847 89.3191 38.2844 89.0987" stroke="white" stroke-width="10.9769" stroke-linecap="round"/>
<path d="M28.8607 93.5327C28.8587 92.3442 28.8567 91.1557 28.8546 89.9672C28.8539 89.5095 28.9838 88.4589 28.6417 88.08C28.4285 87.844 28.2266 87.7343 28.0306 87.49C27.6948 87.0718 28.3159 86.9264 28.6019 87.1077C29.3124 87.5582 30.292 88.0631 29.7072 86.7531C29.3643 85.9852 28.7179 85.4199 27.9882 84.9924C26.7019 84.2387 25.3345 82.6435 24.7214 81.2704C24.4755 80.7197 23.8086 80.1209 23.2699 79.8143C22.7544 79.5209 22.7107 78.8908 22.4858 78.4429" stroke="white" stroke-width="10.9769" stroke-linecap="round"/>
<path d="M27.2158 80.284C27.853 80.919 28.5318 81.5857 29.0237 82.348C29.471 83.0412 30.0098 83.6863 30.5203 84.3364C30.8015 84.6945 31.0685 85.0779 31.3 85.4689C31.3364 85.5304 31.5811 86.1016 31.5807 85.8763" stroke="white" stroke-width="10.9769" stroke-linecap="round"/>
<path d="M23.9863 65.2392C23.9874 65.8548 24.1165 66.4295 24.1175 67.033" stroke="white" stroke-width="10.9769" stroke-linecap="round"/>
<path d="M17.7348 80.8838C16.5735 82.049 15.3187 83.3951 14.6662 84.9613C13.3916 88.0207 11.795 90.7797 11.2147 94.1012C10.8181 96.3711 10.2922 98.5984 9.98035 100.888C9.88361 101.598 9.95437 102.349 9.95559 103.067C9.95573 103.149 9.94166 102.785 9.89803 102.711C9.61967 102.238 9.50626 101.827 9.37588 101.281C8.93909 99.4504 8.45632 97.1656 9.55826 95.5066" stroke="white" stroke-width="10.9769" stroke-linecap="round"/>
<path d="M8.79668 103.392C8.79916 104.848 8.72816 105.985 9.33061 107.304C9.95373 108.669 11.2455 110.665 12.6068 111.493C16.5438 113.89 15.3369 104.718 15.3344 103.24C15.334 102.976 15.3301 100.695 15.3327 102.209C15.3353 103.775 15.2762 105.356 15.3876 106.919C15.5642 109.397 16.1927 111.853 16.197 114.335C16.1978 114.854 16.5552 116.555 15.7674 116.655C14.7941 116.779 13.313 114.952 12.5648 114.352C11.9942 113.895 10.9233 113.302 10.4999 112.774C10.28 112.5 9.53779 111.991 9.53839 112.342C9.53857 112.451 10.0513 112.878 10.1253 112.974C10.7856 113.827 11.5843 114.546 12.2619 115.384C13.2305 116.582 14.2618 117.501 15.3606 118.566C16.8002 119.961 17.9651 121.583 19.3753 122.988" stroke="white" stroke-width="10.9769" stroke-linecap="round"/>
<path d="M18.1513 110.835C18.148 108.85 18.1446 106.865 18.1412 104.879C18.1405 104.472 17.8532 103.776 17.5498 103.473" stroke="white" stroke-width="10.9769" stroke-linecap="round"/>
<path d="M15.8145 122.324C15.8903 123.577 17.3399 124.876 18.2903 125.444C18.9342 125.829 19.5878 126.538 20.3048 126.742C20.5696 126.817 20.8297 127.521 20.8289 127.027" stroke="white" stroke-width="10.9769" stroke-linecap="round"/>
<path d="M22.3789 130.353C22.6564 130.074 22.9646 129.862 23.2422 129.611C23.4976 129.381 23.8161 129.287 24.0256 128.982C24.8186 127.824 25.5538 126.666 26.1231 125.372C26.596 124.298 26.9074 123.138 27.5036 122.121C28.1724 120.98 28.9245 119.89 29.6417 118.779C30.2296 117.868 30.9544 117.075 31.8573 116.471C32.5781 115.989 33.1136 116.564 32.7947 117.339C32.5519 117.928 31.7656 118.289 31.286 118.643C30.2935 119.375 29.3665 120.191 28.4645 121.032C27.9128 121.546 27.0532 122.007 26.8184 122.768C26.6366 123.357 26.6133 123.974 26.4783 124.569C26.3257 125.242 27.2496 124.7 27.4586 124.483C28.1143 123.802 28.7323 122.918 29.166 122.078C29.2813 121.855 29.3435 121.646 29.3431 121.396C29.3418 120.627 29.4145 119.815 29.2188 119.065C28.5882 116.65 26.9982 114.795 24.6329 114.019C24.293 113.907 23.4733 113.491 23.4742 114.025C23.4746 114.276 23.4658 114.662 23.7161 114.787" stroke="white" stroke-width="10.9769" stroke-linecap="round"/>
<path d="M39.2476 123.009C38.5984 124.135 37.2258 124.871 36.4003 125.9C35.1531 127.454 33.3928 128.618 31.9687 130.008C31.63 130.339 31.1444 130.572 30.9071 130.989C30.7924 131.191 31.7862 130.812 31.9362 130.768C33.9015 130.194 35.9862 130.173 38.0104 129.88C40.1624 129.569 46.6127 128.81 44.4387 128.772C41.0659 128.713 37.4091 128.365 34.2296 129.667C33.5177 129.959 32.7044 130.268 32.0542 130.683C31.683 130.92 31.818 130.737 31.8173 130.312" stroke="white" stroke-width="10.9769" stroke-linecap="round"/>
<path d="M35.0496 124.441C35.4032 125.845 40.5693 125.145 41.8316 125.143C43.9256 125.139 46.4026 123.149 48.1708 121.92C52.1655 119.144 57.3219 117.927 61.1254 114.721C65.4732 111.056 69.6868 107.56 73.7163 103.517C77.025 100.197 76.0494 100.729 71.4118 100.824C62.9143 100.999 54.4053 102.887 45.8783 103.009C43.4195 103.044 37.164 105.189 36.4394 102.311" stroke="white" stroke-width="10.9769" stroke-linecap="round"/>
<path d="M41.8588 98.3025C41.9994 96.8719 44.4065 95.8622 45.4947 95.3323C47.4899 94.3608 49.674 93.5419 51.7189 92.6587C55.0564 91.2171 57.9963 89.2184 61.1736 87.4669C61.4496 87.3148 64.6199 85.8054 62.9621 86.3505C57.8698 88.0249 52.5675 89.1877 47.5336 91.0409C46.2397 91.5172 45.0128 92.2119 43.7601 92.7625C42.9187 93.1323 42.9333 93.1574 42.9316 92.2072C42.929 90.6469 45.2422 88.6637 46.3243 87.733C46.8085 87.3165 51.1792 84.3916 48.6077 85.6829C47.6656 86.1559 46.9301 86.9422 46.0229 87.4627C45.1722 87.9507 45.6877 87.3993 46.1728 87.1314C47.0901 86.6249 47.9414 85.8777 48.8177 85.2914C50.284 84.3102 52.0694 84.1103 53.6288 83.3273C54.531 82.8742 55.758 83.0625 56.727 82.6299C57.7287 82.1827 58.7032 81.7174 59.7037 81.2707C60.0062 81.1357 61.2019 80.9372 60.2147 80.9389C59.1011 80.9408 57.5533 81.2723 56.6054 81.8778C55.3738 82.6645 54.3143 81.829 56.3036 81.3517C58.0349 80.9364 59.9474 81.0539 61.6132 80.5302C62.3712 80.292 63.038 80.4247 63.7639 80.0602C64.3739 79.7538 65.2586 79.4544 65.9291 79.3042C67.2216 79.0147 68.7554 78.5367 70.0502 78.4847C72.8541 78.3721 75.5695 77.392 78.4436 77.3871C81.3092 77.3823 84.2688 77.1064 87.1845 77.1014C88.2743 77.0996 87.3248 79.9493 87.3262 80.7572C87.3292 82.5125 87.3322 84.2678 87.3351 86.0231C87.3417 89.8879 87.1266 93.0406 85.4575 96.6032C83.7424 100.264 83.5118 104.374 81.0832 107.714C79.7776 109.51 78.7032 111.007 76.8783 112.325C75.7356 113.151 74.9784 114.352 73.844 115.174C70.0093 117.953 66.0861 120.331 62.0916 122.897C59.4622 124.586 56.4391 125.938 53.5531 127.125C51.8404 127.829 50.5358 128.348 48.6804 128.352" stroke="white" stroke-width="10.9769" stroke-linecap="round"/>
<path d="M67.0442 97.989C67.0412 96.2185 66.576 94.2757 68.1492 93.1124C70.9324 91.0543 73.9372 89.5416 77.4413 89.5759C78.5275 89.5865 79.4456 89.6505 80.2862 90.3835C80.5123 90.5807 80.9228 91.4356 81.2359 91.4351C81.5992 91.4344 81.304 89.8621 81.263 89.7198C80.7679 87.9979 79.1693 86.6673 77.5556 86.025C76.3122 85.5301 74.1292 85.5996 72.8615 86.0631C72.5406 86.1804 71.443 87.1488 71.6296 87.1485C71.9955 87.1478 72.594 87.2083 72.6971 86.7404C72.8783 85.9185 73.7951 86.0941 74.4863 86.0453C75.8612 85.9481 80.3097 85.7305 80.8323 84.1538" stroke="white" stroke-width="10.9769" stroke-linecap="round"/>
<path d="M88.7871 76.5029L88.788 77.0392" stroke="white" stroke-width="10.9769" stroke-linecap="round"/>
<path d="M65.0743 77.9746C64.9137 77.957 64.7826 77.8205 64.6558 77.7363" stroke="white" stroke-width="10.9769" stroke-linecap="round"/>
<path d="M83.5062 89.8941C83.5618 90.968 84.0673 92.0912 84.3382 93.1287C84.7192 94.5882 84.5796 96.1906 84.5821 97.6845C84.5832 98.3356 84.5843 98.9868 84.5854 99.6379C84.5866 100.301 86.1775 98.6297 86.2847 98.5188C86.8287 97.9556 88.0455 96.9215 88.0568 96.0364C88.0676 95.1924 88.0539 94.3475 88.0525 93.5034C88.0524 93.4702 88.0103 92.8557 87.9604 93.0313C87.9028 93.2342 87.9559 93.5298 87.9563 93.7343C87.9578 94.6297 87.8954 95.5156 87.8159 96.4071C87.571 99.1537 87.1232 101.725 85.7523 104.144C84.8832 105.677 83.714 107.315 82.2874 108.389C81.4485 109.021 80.8026 109.91 79.9566 110.524C79.2759 111.017 78.5677 111.683 78.0385 112.335C77.2582 113.298 76.3623 114.112 75.4348 114.927C73.1566 116.927 70.706 118.731 68.0649 120.247C65.802 121.545 63.4689 122.627 61.1535 123.79C60.6544 124.04 59.9339 124.331 59.5344 124.731C58.9435 125.324 61.0478 124.016 61.808 123.665C62.1054 123.528 62.7539 123.278 62.2148 123.063" stroke="white" stroke-width="10.9769" stroke-linecap="round"/>
<path d="M62.5056 123.739C62.5235 123.88 63.6465 123.906 63.8581 123.811C64.7435 123.416 65.6848 123.109 66.5609 122.669C67.1387 122.379 67.8955 122.379 68.4381 122.033C69.1858 121.555 70.1304 121.193 70.7861 120.558C71.675 119.698 72.7644 118.951 73.7229 118.16C75.1121 117.014 76.4795 115.813 77.7523 114.536C78.4837 113.802 79.1573 113.124 79.7878 112.311C80.1543 111.838 81.3099 110.967 80.8363 110.377" stroke="white" stroke-width="10.9769" stroke-linecap="round"/>
<path d="M17.5776 162.642C17.5795 163.712 17.4375 164.879 17.5906 165.937C17.611 166.078 18.0355 166.561 18.1037 166.251C18.1854 165.881 18.0683 165.393 17.9918 165.043C17.7461 163.918 17.4583 162.794 17.1806 161.676C16.5331 159.07 15.9452 156.185 16.4563 153.491C16.592 152.775 16.8029 151.741 17.2285 151.124C17.5185 150.704 18.189 150.488 18.6037 150.243C19.8509 149.506 20.4828 148.161 20.6847 146.776C20.7754 146.154 20.8641 145.022 20.6075 144.447C20.2338 143.61 21.3986 142.197 20.7053 141.679" stroke="white" stroke-width="10.9769" stroke-linecap="round"/>
<path d="M18.0754 145.902C18.0769 146.802 17.1474 147.439 16.6952 148.138C16.0527 149.13 15.5419 150.119 15.0235 151.179C14.4698 152.312 13.9165 153.889 13.0159 154.793C12.7229 155.087 13.2683 153.081 13.313 152.954C13.7731 151.651 14.2207 150.308 14.8588 149.078C15.2224 148.377 15.7514 147.79 16.1443 147.113C16.1731 147.064 15.7094 147.612 15.5742 147.751C13.2627 150.137 11.2585 153.039 9.65675 155.934C8.02267 158.887 7.42636 162.007 7.43207 165.355C7.43607 167.705 8.60857 169.354 9.66839 171.348C10.4066 172.737 11.0535 174.225 11.6675 175.672C11.7503 175.867 12.2139 176.319 12.0638 176.17C11.5564 175.664 10.9797 175.221 10.4138 174.781C10.1765 174.596 8.06555 172.56 8.10449 173.203C8.11747 173.418 9.59958 174.088 9.79046 174.226C11.8002 175.674 13.7884 177.051 15.9923 178.199C17.2589 178.858 18.738 179.582 20.2124 179.51C20.9763 179.472 21.5839 178.974 22.1145 178.466C23.4344 177.205 24.5235 175.628 25.4315 174.053C27.2221 170.945 28.472 167.487 27.8159 163.855C27.4119 161.619 25.5791 159.264 23.5883 158.136C22.0989 157.293 22.5739 159.837 22.5893 160.606C22.6061 161.444 22.6399 165.283 24.1569 165.224C25.0399 165.189 25.7135 164.123 26.0871 163.463C26.992 161.864 27.5712 159.899 27.6303 158.063C27.6992 155.923 26.7879 154.541 24.8182 153.674C23.9549 153.294 22.9638 153.233 22.1293 152.793C20.8305 152.109 21.8837 150.987 21.9048 149.981" stroke="white" stroke-width="10.9769" stroke-linecap="round"/>
<path d="M18.2173 167.439C18.2229 170.716 19.2459 175.522 17.5987 178.416C16.8816 179.676 13.2791 176.597 12.3372 176.389C11.5442 176.215 11.8636 178.983 11.8646 179.559C11.866 180.39 12.2372 181.055 12.9655 181.469C13.3941 181.713 11.6015 179.615 11.2976 179.312C11.0547 179.07 9.7432 177.368 9.4708 177.368C9.24411 177.368 11.0374 179.371 11.2272 179.56C12.6768 181.005 14.53 182.593 15.3784 184.493C15.6955 185.203 17.2699 187.62 17.612 186.242" stroke="white" stroke-width="10.9769" stroke-linecap="round"/>
<path d="M27.0375 173.748C27.0417 176.227 27.046 178.706 27.0502 181.185C27.0524 182.476 26.7613 184.179 25.8696 185.194C24.8764 186.325 23.22 186.559 22.3192 187.865C21.9049 188.465 21.1663 189.603 21.522 190.382C21.7123 190.799 22.6874 191.753 22.3909 190.722" stroke="white" stroke-width="10.9769" stroke-linecap="round"/>
<path d="M22.3613 190.573C22.3618 190.876 22.4157 191.2 22.5647 191.467C22.6478 191.616 22.8755 192.246 22.6517 191.726" stroke="white" stroke-width="10.9769" stroke-linecap="round"/>
<path d="M27.0847 187.278C27.085 187.409 27.0389 187.608 27.1687 187.682C27.2695 187.739 27.3396 187.924 27.3744 188.027" stroke="white" stroke-width="10.9769" stroke-linecap="round"/>
<path d="M29.1812 183.643C29.9463 182.26 31.016 181.208 31.6183 179.729C32.3184 178.009 32.9952 176.334 33.5568 174.559C34.3961 171.905 34.5854 169.055 34.8849 166.317C34.9111 166.077 35.058 165.544 35.0086 166.123C34.9158 167.212 34.6782 168.297 34.572 169.39C34.4097 171.06 34.3214 172.399 33.4314 173.861C33.2213 174.206 32.6735 175.225 32.6741 175.608C32.6746 175.898 33.4709 174.95 33.4953 174.916C33.8648 174.401 34.2155 173.881 34.5788 173.362C35.5893 171.919 35.7216 170.235 35.7188 168.55C35.7178 167.999 35.6725 166.644 35.3686 167.93C34.9418 169.736 35.0614 171.574 34.8582 173.408C34.7425 174.452 34.6386 175.517 34.1263 176.443C33.8871 176.875 33.7663 177.415 33.6379 176.653" stroke="white" stroke-width="10.9769" stroke-linecap="round"/>
<path d="M36.1355 166.734C36.4304 166.697 36.3791 164.669 36.1314 164.36C35.673 163.789 35.2478 163.001 34.9332 162.33C34.0634 160.474 33.3523 158.511 32.6581 156.577C32.4537 156.008 32.0663 155.326 32.0653 154.732C32.0636 153.754 32.8802 156.509 33.3189 157.383C33.7391 158.22 33.9389 159.137 34.3085 159.965C34.8449 161.166 34.8398 159.583 34.5552 158.994C33.6389 157.1 32.949 155.319 31.7143 153.615C30.8556 152.431 30.4316 150.195 29.1237 149.399C28.6154 149.09 28.0705 148.139 27.7242 147.648C27.4455 147.254 26.8693 146.781 26.5196 146.432C25.9837 145.898 25.4607 145.025 24.7866 144.69" stroke="white" stroke-width="10.9769" stroke-linecap="round"/>
<path d="M28.5005 138.773C29.7606 138.845 30.4791 139.962 31.3644 140.709C32.9816 142.072 35.162 142.89 36.874 144.179C43.3159 149.029 51.2324 152.092 57.3723 157.376C60.222 159.829 63.2284 162.345 65.7498 165.141C65.8929 165.299 69.0653 169.547 68.8356 169.652C68.2984 169.897 65.5571 166.945 65.2171 166.647C62.1644 163.976 59.3748 161.037 56.3702 158.315C51.8486 154.218 47.0941 150.105 42.2143 146.428C40.4554 145.103 38.7491 143.831 37.4726 142.07C37.2352 141.742 35.5729 139.965 36.7999 139.963C41.5692 139.955 47.0293 140.804 51.4586 142.581C52.3127 142.924 53.2339 142.953 54.1029 143.246C55.3153 143.655 56.3543 144.428 57.5517 144.88C59.4433 145.593 61.2995 146.862 63.0272 147.932C65.6611 149.563 68.2343 151.533 70.4478 153.69C71.5111 154.726 72.3428 155.476 70.382 154.359" stroke="white" stroke-width="10.9769" stroke-linecap="round"/>
<path d="M43.7729 139.932C45.5517 139.929 47.3563 139.837 49.1327 139.923C49.5926 139.945 50.024 140.274 50.4681 140.29C51.2193 140.317 51.9404 140.446 52.6863 140.471C53.7984 140.509 55.1628 141.218 56.1999 141.615C57.2495 142.017 58.2748 142.467 59.3847 142.667C60.3183 142.835 61.3646 143.001 62.2608 143.319C63.5823 143.789 65.0492 144.037 66.3188 144.606C69.8084 146.169 73.1258 147.403 76.0515 149.919C77.5896 151.241 79.2806 152.574 80.6175 154.1C82.0884 155.779 83.4353 157.654 84.3646 159.679C84.9695 160.998 85.4217 162.616 86.1788 163.845C87.0396 165.243 90.3816 165.086 91.6846 165.129C95.7459 165.265 99.9875 164.111 103.24 161.598C105.306 160.002 107.491 158.088 108.672 155.716C109.504 154.045 109.736 152.083 110.706 150.476C111.185 149.684 112.06 149.127 112.767 148.562C113.943 147.622 115.141 146.711 116.294 145.743C117.899 144.395 118.907 143.036 119.911 141.188C121.271 138.685 121.576 136.109 121.571 133.299C121.566 130.25 121.792 127.107 121.268 124.09C120.438 119.309 118.142 113.768 114.068 110.898C112.092 109.504 109.553 108.622 107.85 106.924" stroke="white" stroke-width="10.9769" stroke-linecap="round"/>
<path d="M112.11 112.831C108.788 112.837 105.945 111.901 102.742 110.999C99.5378 110.097 96.2743 109.163 93.0247 108.428C91.9021 108.174 90.7889 107.901 89.676 107.612C88.4218 107.287 88.2584 107.25 88.2563 106.034" stroke="white" stroke-width="10.9769" stroke-linecap="round"/>
<path d="M42.2456 156.18C42.3673 158.42 45.3261 161.234 46.8692 162.689C48.7711 164.482 51.3435 166.076 53.6873 167.243C54.7658 167.78 55.9322 168.522 57.1107 168.832C60.459 169.712 65.1489 170.521 68.4879 169.292C70.4598 168.566 71.1128 167.037 69.7815 165.42C67.3975 162.525 64.4494 159.89 61.5337 157.541C60.9052 157.034 59.0412 156.43 59.8292 156.429C64.5456 156.421 68.0799 158.011 72.3416 160.014C75.51 161.504 78.7481 162.888 81.7603 164.688C82.4494 165.1 83.2169 165.665 83.2185 166.558C83.2214 168.28 79.2271 170.601 77.7777 171.01C70.2319 173.137 61.1468 169.911 53.9825 167.877C50.9399 167.014 47.8313 166.431 44.7692 165.649C43.7571 165.39 42.8972 165.095 41.8429 165.097C41.7836 165.097 40.7158 165.079 40.713 165.098C40.54 166.324 41.5304 167.44 42.05 168.563C43.6047 171.926 46.3819 177.579 47.8595 180.688" stroke="white" stroke-width="10.9769" stroke-linecap="round"/>
<path d="M42.6683 174.059C42.9375 174.089 43.8187 175.078 44.0275 175.338C44.2777 175.65 44.6126 175.916 44.8667 176.242C45.2256 176.701 45.9184 176.804 46.3677 177.152C46.8542 177.529 47.2452 177.966 47.7268 178.339C48.0611 178.598 48.7275 179.016 49.0852 179.175C49.4778 179.348 49.669 179.67 49.9912 179.927C50.2732 180.152 51.1078 180.679 50.2857 180.681C50.0071 180.681 49.6637 180.734 49.3894 180.674C49.1058 180.611 49.0624 180.299 48.7938 180.222C47.9094 179.971 47.1154 179.693 46.2958 179.213C45.3597 178.665 48.074 177.093 48.4029 176.914C50.8596 175.575 53.4307 174.032 56.2378 173.55C56.6665 173.477 57.2653 173.266 57.6285 173.615C58.3174 174.277 58.7914 175.094 59.5586 175.689C60.9091 176.736 62.042 177.315 63.7503 177.575C65.5716 177.852 67.4597 177.867 69.2963 177.968C71.7419 178.101 74.1853 178.089 76.6346 178.072C79.5898 178.052 82.4255 177.427 85.3108 176.851C87.8016 176.354 90.2102 175.52 92.7636 175.364C93.1001 175.344 96.141 175.023 96.3154 175.392C96.6132 176.022 94.1204 176.26 93.871 176.301C91.6837 176.653 89.5345 177.183 87.3222 177.367C85.0748 177.554 83.2052 177.237 81.1385 176.414C80.2576 176.064 78.9489 175.532 78.572 174.568C76.8213 170.088 88.5202 169.684 90.5588 169.446C93.4411 169.109 96.7873 169.11 99.4018 167.713C100.468 167.144 101.313 166.543 101.525 165.289C102.015 162.391 94.6643 163.265 93.1032 163.268C90.3676 163.272 87.6199 163.357 84.8856 163.273C84.5801 163.264 81.771 163.181 82.3959 162.205C82.8851 161.441 84.2172 161.022 85.0153 160.718C86.5172 160.146 88.0855 159.767 89.6538 159.429C95.3452 158.202 101.211 157.503 106.711 155.504C108.434 154.878 110.262 154.063 111.816 153.075C112.791 152.455 111.585 152.68 111.028 152.783C104.652 153.963 98.7796 156.778 92.4495 158.134C89.9912 158.66 87.5092 159.073 85.0468 159.579C84.447 159.702 83.5844 160.101 82.987 160.102C82.1786 160.103 84.2161 159.047 84.8776 158.582C85.8187 157.921 86.6808 157.119 87.588 156.408C89.0071 155.295 90.4651 154.257 91.9469 153.234C93.1823 152.382 94.5353 151.731 95.7794 150.899C97.0961 150.018 98.3328 149.118 99.7542 148.404C101.079 147.739 102.33 146.937 103.62 146.211C105.137 145.359 106.846 144.861 108.408 144.101C110.077 143.288 111.66 142.507 113.448 141.973C114.453 141.672 115.466 141.393 116.462 141.096C116.506 141.083 117.467 141.044 117.215 140.793C117.076 140.654 116.009 140.62 115.774 140.612C115.441 140.6 114.209 140.428 113.965 140.648C113.109 141.421 111.423 141.812 110.315 142.313C109.525 142.67 108.574 142.919 107.753 143.155C106.722 143.452 105.775 143.901 104.773 144.283C100.847 145.78 97.1859 148.637 94.4994 151.823C92.6994 153.957 91.3182 156.664 90.2147 159.21C88.4536 163.273 86.6155 167.3 84.4467 171.165C81.2702 176.826 76.2516 182.201 70.0364 184.559C68.6691 185.077 67.0223 185.425 65.556 185.295C64.4417 185.197 63.3582 184.48 62.4041 183.944C60.8645 183.079 59.0923 181.917 57.3738 181.456C56.4839 181.217 55.2624 180.718 54.3239 181.009C53.7566 181.184 52.7631 181.322 52.365 181.766C52.1541 182.001 53.4802 182.479 53.6899 182.601C54.225 182.915 54.7243 183.235 55.2831 183.537C56.1553 184.008 56.9614 184.666 57.799 185.191C58.1297 185.399 58.5729 185.629 58.9392 185.759C59.253 185.87 59.5676 186.209 59.8782 186.243C60.6165 186.324 59.5911 186.545 59.3426 186.546C58.6382 186.547 58.1454 186.26 57.5322 185.946C56.919 185.632 56.0545 185.194 55.353 185.195C55.2358 185.196 54.8096 185.045 55.0846 185.045C55.7296 185.044 56.3858 185.009 57.0281 185.075C59.1275 185.293 61.0852 186.282 63.1626 186.656C64.5449 186.905 65.9066 187.207 67.2688 187.554C68.6244 187.899 69.9134 187.885 71.3069 187.882C73.128 187.879 74.9212 188.178 76.7356 188.175C78.4697 188.172 81.0733 188.654 82.6491 187.863" stroke="white" stroke-width="10.9769" stroke-linecap="round"/>
<path d="M37.2393 172.56C38.0814 172.465 38.7069 173.623 39.3445 174.14C40.1806 174.817 41.1063 175.863 41.6945 176.774C42.0299 177.294 42.5416 177.844 42.9787 178.28C43.4497 178.749 44.229 178.679 44.7561 179.148C45.5127 179.821 46.4946 180.264 47.2889 180.911C47.9424 181.444 48.6082 181.961 49.3186 182.416C50.8071 183.369 52.1686 183.811 53.9956 183.991" stroke="white" stroke-width="10.9769" stroke-linecap="round"/>
<path d="M68.4649 181.555C68.0998 181.601 69.4866 183.594 69.6833 183.814C70.2924 184.497 71.103 184.952 71.7554 185.587C72.3577 186.172 73.2162 186.562 73.6766 187.275C73.8958 187.615 74.2045 188.325 74.508 188.514C74.7578 188.669 74.962 189.472 74.9625 189.761C74.963 190.079 77.1063 190.293 77.4934 190.435C78.3641 190.755 79.4448 191.186 80.3847 191.184C80.7477 191.184 81.1107 191.183 81.4737 191.182C82.2092 191.181 81.866 191.198 83.1654 190.962C85.8596 190.472 89.5999 189.71 92.1088 189.196C94.2538 188.756 98.299 187.927 100.725 187.363C101.833 187.106 101.798 187.428 101.797 186.926" stroke="white" stroke-width="10.9769" stroke-linecap="round"/>
<path d="M65.1445 179.298C65.1479 181.296 65.7507 182.786 67.1048 184.271C67.8509 185.088 68.8213 185.988 69.346 186.981C69.6886 187.629 69.9102 188.345 70.2123 189.007C70.3189 189.24 70.5919 190.549 70.5904 189.693" stroke="white" stroke-width="10.9769" stroke-linecap="round"/>
<path d="M86.5591 181.222C87.1256 181.284 87.7709 182.042 88.228 182.341C89.2491 183.011 90.6556 183.557 91.8409 183.851C93.0781 184.158 94.9266 184.34 95.6469 185.579C96.1795 186.495 96.4848 187.611 95.9872 188.611C95.6286 189.331 94.818 190.169 94.8688 191.008C94.9053 191.611 97.0158 190.505 97.2049 190.393C98.9326 189.365 101.192 189.542 103.159 189.486C104.891 189.438 106.481 188.573 107.948 187.702C109.775 186.618 112.171 186.444 114.194 185.882C115.879 185.414 117.406 184.543 118.981 183.73C119.936 183.237 121.042 182.865 121.936 182.284C122.94 181.632 123.789 180.954 124.856 180.403C125.746 179.943 126.435 179.137 127.123 178.447C128.095 177.471 128.921 176.917 128.919 175.42" stroke="white" stroke-width="10.9769" stroke-linecap="round"/>
<path d="M134.161 155.206C133.665 156.092 133.53 157.175 133.01 158.098C131.855 160.148 130.205 161.849 128.655 163.601C125.576 167.082 121.909 170.193 118.175 172.959C112.926 176.847 105.761 176.394 100.605 180.503C100.482 180.601 99.5361 181.481 99.8601 180.831C100.608 179.327 101.617 177.863 102.5 176.437C106.473 170.012 111.605 164.443 116.66 158.863C119.291 155.959 121.563 152.882 123.983 149.829C124.632 149.01 124.076 149.343 123.446 149.344" stroke="white" stroke-width="10.9769" stroke-linecap="round"/>
<path d="M120.293 157.492C120.298 159.889 120.302 162.223 119.367 164.463C119.285 164.659 118.426 166.337 118.541 166.433C119.064 166.867 120.927 163.229 121.124 162.918C123.648 158.92 127.658 156.066 130.387 152.197C132.32 149.457 134.155 146.675 136.245 144.053C138.011 141.838 133.423 141.529 132.103 141.874C130.339 142.334 128.592 144.044 127.51 145.425C127.161 145.871 126.889 146.409 126.491 146.809C125.942 147.36 126.635 145.242 126.906 144.513C127.418 143.134 127.449 141.817 127.77 140.441C127.875 139.99 127.649 139.456 128.254 139.384C128.748 139.325 129.131 138.618 129.157 138.176C129.174 137.88 130.586 138.023 130.832 138.023C131.936 138.021 132.902 137.846 133.981 137.724C134.577 137.657 135.161 137.426 135.756 137.411C136.267 137.399 136.801 137.472 137.297 137.333C137.957 137.149 138.661 137.393 139.316 137.246C140.203 137.048 140.694 136.846 141.67 137.25" stroke="white" stroke-width="10.9769" stroke-linecap="round"/>
<path d="M143.026 136.947C142.582 136.948 142.725 135.556 142.539 135.892C142.085 136.712 142.123 137.566 142.124 138.49C142.128 140.75 141.804 143.403 141.081 145.545C140.69 146.701 140.236 147.908 139.73 149.015C139.192 150.19 139.145 151.6 138.681 152.82C138.273 153.891 137.263 155.382 137.33 156.558C137.362 157.112 138.528 156.195 138.619 156.104C139.294 155.426 139.592 154.659 140.04 153.873C140.616 152.86 140.67 151.494 141.089 150.403C141.517 149.291 141.514 147.975 142.021 146.9C142.086 146.763 142.367 146.152 142.138 146.598C141.77 147.316 141.294 147.905 141.086 148.711C140.579 150.673 140.445 152.673 139.89 154.627C139.438 156.22 139.061 157.947 138.206 159.388C137.894 159.913 137.507 160.387 137.22 160.931C136.899 161.539 137.937 159.755 138.239 159.137C138.965 157.651 139.288 156.02 139.739 154.443C140.207 152.806 140.909 151.211 141.658 149.682C141.919 149.147 142.186 148.635 142.442 148.106C142.704 147.566 142.936 146.852 143.269 146.37C143.362 146.235 143.778 145.641 143.778 145.49C143.777 145.142 143.317 146.011 143.076 146.262C142.726 146.624 142.419 146.994 142.148 147.419C140.958 149.285 140.822 151.619 140.416 153.755C139.595 158.082 137.382 162.024 134.556 165.375C133.401 166.745 132.133 168.117 130.868 169.386C130.458 169.797 129.108 171.047 130.184 171.045C130.804 171.044 131.363 171.194 131.994 171.193C132.788 171.192 133.097 170.104 133.516 169.607C135.575 167.165 137.053 164.226 139.073 161.749C139.291 161.481 139.361 161.14 139.666 160.935C139.947 160.747 139.085 161.292 138.846 161.531C137.587 162.795 136.71 164.201 135.838 165.758C135.411 166.52 134.94 167.166 134.778 168.039C134.636 168.804 134.478 169.801 134.112 170.494C133.651 171.368 133.156 172.359 132.449 173.069C131.689 173.832 130.625 175.417 129.522 175.419" stroke="white" stroke-width="10.9769" stroke-linecap="round"/>
<path d="M88.3666 109.879C88.1112 109.944 88.3579 111.253 88.4056 111.447C88.5764 112.144 88.779 112.692 89.1425 113.305C89.6274 114.122 90.3631 114.716 91.2056 115.135C92.4885 115.774 93.8213 116.345 95.1272 116.939C96.7958 117.697 98.454 118.548 100.174 119.184C101.125 119.535 102.054 119.945 103.002 120.304C104.024 120.69 105.194 120.917 106.269 121.096C107.551 121.31 108.848 121.478 110.084 121.888C111.117 122.23 111.795 122.797 112.554 123.553C112.961 123.958 113.29 124.403 113.717 124.784C113.856 124.908 114.037 124.952 114.169 125.058C114.351 125.203 114.714 125.289 114.936 125.379C115.146 125.464 115.377 125.805 115.605 125.652" stroke="white" stroke-width="10.9769" stroke-linecap="round"/>
<path d="M92.9463 114.225C92.985 114.606 93.4257 114.98 93.6737 115.24C94.0194 115.603 94.4325 115.915 94.7599 116.29C95.517 117.158 96.1658 118.158 96.9817 118.971C97.5836 119.571 98.3996 119.848 99.2131 120.165C100.317 120.595 101.465 120.977 102.537 121.481C103.864 122.106 105.351 122.588 106.789 122.873C107.783 123.07 108.817 123.124 109.797 123.34C110.301 123.451 111.038 123.603 111.411 123.974C111.589 124.151 112.266 124.734 112.266 124.279" stroke="white" stroke-width="10.9769" stroke-linecap="round"/>
<path d="M109.796 123.194L109.798 124.138" stroke="white" stroke-width="10.9769" stroke-linecap="round"/>
<path d="M96.97 108.652C96.9652 105.851 96.9604 103.05 96.9557 100.248C96.953 98.6699 96.6383 96.4178 97.3045 94.9454C98.1691 93.0347 99.0971 97.3267 99.3908 97.9641C100.586 100.559 101.976 103.131 103.513 105.539C104.475 107.048 105.833 109.044 107.457 109.933C107.656 110.042 108.292 110.652 108.532 110.515C109.136 110.168 108.059 108.51 107.905 108.223C106.093 104.839 104.362 101.462 102.771 97.9583C101.931 96.1088 101.138 94.2615 100.163 92.475C99.5608 91.3699 98.9453 89.9264 97.8911 89.1385C96.4085 88.0305 94.0699 87.0078 94.0662 84.8502C94.0648 84.0023 93.967 83.1875 94.3537 82.4107C94.6749 81.7656 95.0138 80.8784 95.0126 80.1429C95.0119 79.7702 94.801 78.4299 95.0622 78.1678C95.5313 77.6971 96.4291 78.5033 96.7996 78.7083C99.1227 79.9937 102.636 79.772 105.272 79.7675C106.813 79.7649 108.338 80.0867 109.688 80.8337C111.417 81.7905 113.26 82.1809 115.046 82.9587C116.356 83.5291 117.579 84.0881 118.88 84.7019C120.52 85.4754 121.861 86.645 123.418 87.5573C124.849 88.3953 126.156 89.4274 127.585 90.3339C128.399 90.8497 129.164 91.669 129.869 92.3713C130.494 92.9947 131.07 93.875 131.768 94.3962C132.409 94.8756 133.128 96.088 133.561 96.7659C134.007 97.464 134.577 98.1896 135.129 98.8045C136.405 100.226 137.082 102.249 137.709 103.996C138.262 105.534 138.761 107.029 139.56 108.46C139.999 109.249 139.983 110.152 140.346 110.964C140.661 111.67 140.404 112.591 140.761 113.23C141.1 113.839 140.883 114.927 140.884 115.616C140.885 116.459 141.058 117.721 141.313 118.545C141.766 120.009 141.61 121.821 141.613 123.369C141.615 124.761 141.618 126.153 141.62 127.545C141.624 129.579 140.027 130.097 138.298 130.533C136.487 130.989 133.725 131.649 132.028 130.543C128.981 128.559 129.029 124.749 131.776 122.432C132.784 121.581 134.334 120.547 134.925 119.324C135.814 117.486 134.599 115.627 133.723 114.077C133.08 112.938 132.213 111.956 131.69 110.754C131.203 109.637 130.427 108.387 129.55 107.536C127.521 105.568 127.588 108.433 127.38 109.846C126.733 114.255 125.857 118.325 125.865 122.799C125.866 123.866 126.158 125.634 127.302 126.204C128.695 126.897 129.209 125.106 129.207 124.093C129.2 120.183 128.775 116.431 128.419 112.549C127.741 105.166 125.598 95.8954 119.249 91.2097C114.853 87.965 110.664 85.9619 105.163 85.9713C103.279 85.9745 105.843 89.5231 106.151 89.9197C109.208 93.858 112.641 97.4855 115.807 101.33C117.543 103.437 119.796 106.315 120.353 109.076C120.445 109.528 121.073 111.422 121.071 110.043" stroke="white" stroke-width="10.9769" stroke-linecap="round"/>
<path d="M103.135 87.6796C103.042 87.5748 103.073 87.43 103.073 87.2977C103.072 86.7824 103.093 86.2622 103.036 85.7492C102.933 84.8087 102.594 83.9901 102.391 83.083C102.214 82.2966 101.724 81.558 101.377 80.837C101.168 80.4008 100.931 80.0065 100.591 79.6548C100.304 79.359 99.9507 78.4143 99.4971 78.4151" stroke="white" stroke-width="10.9769" stroke-linecap="round"/>
</g>
<defs>
<clipPath id="clip0_205_3016">
<rect width="149.426" height="199.59" fill="white" transform="translate(0.457031 1.20276) rotate(-0.0977007)"/>
</clipPath>
</defs>
</svg>
