<svg width="120" height="120" viewBox="0 0 120 120" fill="none" xmlns="http://www.w3.org/2000/svg">
<mask id="path-1-inside-1_205_4470" fill="white">
<path fill-rule="evenodd" clip-rule="evenodd" d="M119.526 52.67H60.4868V119.899C27.6086 119.899 0.955566 93.246 0.955566 60.3677C0.955566 27.4892 27.6088 0.835938 60.4873 0.835938C90.7573 0.835938 115.751 23.4278 119.526 52.67Z"/>
</mask>
<path d="M60.4868 52.67V47.538H55.3548V52.67H60.4868ZM119.526 52.67V57.8021H125.363L124.616 52.0129L119.526 52.67ZM60.4868 119.899L60.4868 125.032L65.6189 125.032V119.899H60.4868ZM60.4868 57.8021H119.526V47.538H60.4868V57.8021ZM65.6189 119.899V52.67H55.3548V119.899H65.6189ZM60.4869 114.767C30.4429 114.767 6.08761 90.4117 6.08761 60.3677H-4.17648C-4.17648 96.0804 24.7742 125.031 60.4868 125.032L60.4869 114.767ZM6.08761 60.3677C6.08761 30.3236 30.4432 5.96799 60.4873 5.96799V-4.29611C24.7745 -4.29611 -4.17648 24.6549 -4.17648 60.3677H6.08761ZM60.4873 5.96799C88.1439 5.96799 110.987 26.611 114.436 53.3271L124.616 52.0129C120.514 20.2447 93.3708 -4.29611 60.4873 -4.29611V5.96799Z" fill="white" mask="url(#path-1-inside-1_205_4470)"/>
</svg>
