<svg width="148" height="148" viewBox="0 0 148 148" fill="none" xmlns="http://www.w3.org/2000/svg">
<circle cx="74" cy="74" r="71" fill="black" stroke="white" stroke-width="6"/>
<path d="M73.5011 115.469C73.7103 121.223 69.5061 122.028 67.3778 121.712C68.1436 124.598 72.0809 124.747 73.9538 124.461C74.9118 124.498 77.5297 123.705 80.3373 120.235C81.5146 118.238 81.5139 114.763 81.3664 113.276C80.8726 110.825 79.7392 105.016 79.156 101.385C76.9581 102.308 72.1977 102.07 70.0923 101.836C68.6331 101.649 64.7771 100.456 61.0261 97.1843C56.3373 93.0949 53.8457 86.0162 53.6393 80.0469C53.4743 75.2715 56.7111 69.1381 58.3501 66.6684C59.8369 64.8196 64.3109 59.6903 70.3122 53.9636C67.115 43.7985 69.1971 33.7725 70.6378 30.0301C71.4396 27.4531 73.9516 22.1102 77.5849 21.3545C81.2183 20.5989 83.4024 32.3124 84.0403 38.2636C84.3697 40.4726 83.9826 46.7309 79.7993 54.0926C79.8388 55.4159 75.8177 59.6695 73.8022 61.6309L75.6748 71.936C76.9691 71.9057 80.1021 71.9963 82.2792 72.601C87.0887 74.1616 89.5695 79.2178 90.2086 81.5508C90.7352 83.3551 91.386 88.0077 89.7765 92.184C88.1669 96.3602 83.2778 99.5956 81.0344 100.691C81.5033 103.214 82.5613 108.936 83.042 111.645C83.3721 112.742 83.4227 115.365 83.4067 116.538C83.3218 117.496 82.9305 119.839 82.0446 121.552C81.1587 123.265 78.4759 124.954 77.2453 125.584C76.0393 126.167 72.4526 127.014 67.7542 125.743C63.0558 124.471 61.804 119.264 61.7654 116.819C61.8072 115.502 62.4705 112.544 64.7884 111.253C64.873 110.32 73.2395 108.277 73.5011 115.469Z" fill="white"/>
<path d="M80.4868 98.6711L77.1602 79.0011C80.2487 79.1869 86.4744 81.27 86.6688 88.1161M80.4868 98.6711C82.6285 98.0053 86.8632 94.9623 86.6688 88.1161M80.4868 98.6711C82.6085 98.0051 86.8153 94.9616 86.6688 88.1161M67.3778 121.712C69.5061 122.028 73.7103 121.223 73.5011 115.469C73.2395 108.277 64.873 110.32 64.7884 111.253C62.4705 112.544 61.8072 115.502 61.7654 116.819C61.804 119.264 63.0558 124.471 67.7542 125.743C72.4526 127.014 76.0393 126.167 77.2453 125.584C78.4759 124.954 81.1587 123.265 82.0446 121.552C82.9305 119.839 83.3218 117.496 83.4067 116.538C83.4227 115.365 83.3721 112.742 83.042 111.645C82.5613 108.936 81.5033 103.214 81.0344 100.691C83.2778 99.5956 88.1669 96.3602 89.7765 92.184C91.386 88.0077 90.7352 83.3551 90.2086 81.5508C89.5695 79.2178 87.0887 74.1616 82.2792 72.601C80.1021 71.9963 76.9691 71.9057 75.6748 71.936L73.8022 61.6309C75.8177 59.6695 79.8388 55.4159 79.7993 54.0926C83.9826 46.7309 84.3697 40.4726 84.0403 38.2636C83.4024 32.3124 81.2183 20.5989 77.5849 21.3545C73.9516 22.1102 71.4396 27.4531 70.6378 30.0301C69.1971 33.7725 67.115 43.7986 70.3122 53.9636C64.3109 59.6903 59.8369 64.8196 58.3501 66.6684C56.7111 69.1381 53.4743 75.2715 53.6393 80.0469C53.8457 86.0162 56.3372 93.0949 61.0261 97.1843C64.7771 100.456 68.6331 101.649 70.0923 101.836C72.1977 102.07 76.9581 102.308 79.156 101.385C79.7392 105.016 80.8726 110.825 81.3664 113.276C81.5139 114.763 81.5146 118.238 80.3373 120.235C77.5297 123.705 74.9118 124.498 73.9538 124.461C72.0809 124.747 68.1436 124.598 67.3778 121.712ZM71.9936 51.9018C70.9863 46.6884 70.4372 35.2607 76.3001 31.2573C79.3733 29.4013 80.9209 31.5358 81.3106 32.8351C81.4817 34.347 81.7066 37.5417 81.2373 38.2255C81.2114 40.1229 77.7799 45.7744 76.0674 48.3629C75.0448 49.5471 72.7986 51.9127 71.9936 51.9018ZM71.8352 63.5451L73.6545 72.4836C70.8624 73.4041 65.2532 77.0851 65.1531 84.4448C65.053 91.8045 70.5724 94.7263 73.3446 95.2672L73.7885 94.3387C71.7432 93.2086 67.882 89.9309 68.8 85.8602C69.718 81.7896 73.2187 79.858 74.8544 79.401L78.6783 99.5091C75.1491 100.491 66.7567 100.885 61.4206 94.6018C56.0846 88.3183 58.6461 79.6598 60.5938 76.1159C61.8712 73.809 65.9079 68.0651 71.8352 63.5451Z" stroke="white" stroke-width="0.502077"/>
<path d="M86.4669 86.2759C85.4472 80.9138 79.8297 79.2127 77.1484 79.0325C77.9043 83.3559 79.6567 93.3431 80.6189 98.7045C83.5006 98.2405 87.7416 92.9786 86.4669 86.2759Z" fill="black" stroke="black" stroke-width="0.167359"/>
<path d="M73.6417 72.5159L71.8204 63.721C70.3463 64.6355 66.4605 67.7456 62.7103 72.8704C58.96 77.9951 58.2184 82.4898 58.3163 84.0966C57.8334 86.1268 58.0595 91.3536 62.8267 96.0191C67.5939 100.685 75.3716 100.359 78.6645 99.6132L74.9144 79.3623C73.3769 79.6529 70.0141 81.3084 68.863 85.6059C67.7119 89.9034 71.6585 93.2399 73.7757 94.3709L73.2599 95.2984C70.3239 94.4677 64.5883 91.2267 65.1344 84.9082C65.2439 76.8585 70.8515 73.2926 73.6417 72.5159Z" fill="black" stroke="black" stroke-width="0.167359"/>
<path d="M81.6106 36.6095C80.9426 43.4439 74.9632 49.6741 72.057 51.9349C69.8283 38.2176 74.0965 32.3618 76.5092 31.1487C78.488 30.1213 82.2787 29.7751 81.6106 36.6095Z" fill="black" stroke="black" stroke-width="0.167359"/>
</svg>
