<svg width="2300" height="550" viewBox="0 0 2300 550" fill="none" xmlns="http://www.w3.org/2000/svg">
<path d="M181.87 297.557C129.081 180.531 26.6812 449.455 5 545.965H2283.14C2333.12 446.938 2226.53 169.995 2150.04 391.549C2103.89 525.239 2050.06 446.938 1976.59 295.039C1903.11 143.141 1916.97 419.243 1821.21 468.757C1725.45 518.271 1698.12 -220.86 1608.61 73.4858C1578.5 172.513 1641.74 243.008 1494.79 446.938C1347.84 650.868 1349.64 312.663 1227.38 120.482C1105.13 -71.6989 1084.65 440.224 967.813 307.628C886.995 215.909 873.259 394.067 782.318 468.757C691.378 543.448 688.366 276.576 626.334 193.494C564.302 110.411 577.281 339.161 526.962 422.6C466.736 522.467 248.118 444.419 181.87 297.557Z" fill="black" stroke="white" stroke-width="8"/>
<rect x="17" y="518" width="2264" height="32" fill="black"/>
<path d="M9 549.5L10.5 541.5L18.5 540.5L20 549.5H9Z" fill="black" stroke="black"/>
</svg>
