<svg width="2301" height="377" viewBox="0 0 2301 377" fill="none" xmlns="http://www.w3.org/2000/svg">
<path d="M2110.8 230.626C2163.52 287.312 2268.1 152.748 2289.75 106L17.2481 106C-32.6665 153.967 69.1216 292.415 145.497 185.098C191.583 120.341 245.326 158.268 318.694 231.846C392.063 305.423 378.231 171.683 473.85 147.699C569.469 123.716 596.761 481.74 686.137 339.163C716.206 291.196 653.061 257.049 799.798 158.268C946.534 59.4878 944.73 223.309 1066.81 316.399C1188.89 409.488 1209.34 161.52 1326 225.748C1406.71 270.175 1420.42 183.878 1511.23 147.699C1602.04 111.52 1605.04 240.789 1666.99 281.033C1728.93 321.277 1715.97 210.474 1766.21 170.057C1826.35 121.683 2044.65 159.488 2110.8 230.626Z" fill="black" stroke="white" stroke-width="8"/>
<rect x="2277.75" y="118" width="2260" height="15.9999" transform="rotate(-180 2277.75 118)" fill="black"/>
<path d="M2287.75 102.5L2282.25 111L2273.75 112.5V102.5H2287.75Z" fill="black" stroke="black"/>
<rect x="4" width="2297" height="103" fill="black"/>
</svg>
