<svg width="138" height="184" viewBox="0 0 138 184" fill="none" xmlns="http://www.w3.org/2000/svg">
<g clip-path="url(#clip0_205_3910)">
<rect width="137.074" height="183.091" transform="translate(0.37793 0.552734)" fill="black"/>
<path d="M49.0708 143.893C41.4582 133.788 21.9636 119.765 4.51843 144.522" stroke="white" stroke-width="2.75126"/>
<path d="M49.0444 142.864C41.7129 152.586 22.6135 166.322 4.50037 143.493" stroke="white" stroke-width="2.75126"/>
<path d="M92.0629 144.116C84.4504 134.01 64.9558 119.987 47.5106 144.744" stroke="white" stroke-width="2.75126"/>
<path d="M92.0385 143.087C84.707 152.809 65.6076 166.544 47.4945 143.715" stroke="white" stroke-width="2.75126"/>
<path d="M134.25 145.998C126.638 135.893 107.143 121.87 89.6981 146.627" stroke="white" stroke-width="2.75126"/>
<path d="M134.226 144.971C126.894 154.692 107.795 168.428 89.6815 145.599" stroke="white" stroke-width="2.75126"/>
<path d="M21.8614 183.69C28.5873 172.974 34.7354 149.76 5.38463 142.291" stroke="white" stroke-width="2.75126"/>
<path d="M22.8174 183.3C11.1201 179.918 -8.52375 166.973 6.34367 141.909" stroke="white" stroke-width="2.75126"/>
<path d="M134.484 145.352C121.852 146.064 99.3592 154.477 110.244 182.739" stroke="white" stroke-width="2.75126"/>
<path d="M133.615 144.801C137.622 156.299 138.426 179.811 109.381 182.181" stroke="white" stroke-width="2.75126"/>
<path d="M46.4953 19.5239C54.4225 5.96676 74.7675 -12.9895 93.1142 19.6441" stroke="white" stroke-width="2.75126"/>
<path d="M46.517 18.1566C54.2248 30.9638 74.2609 48.9177 93.1272 18.2767" stroke="white" stroke-width="2.75126"/>
<path d="M39.104 79.4439C30.5652 66.9377 22.1119 39.5304 56.7548 29.5388" stroke="white" stroke-width="2.75126"/>
<path d="M37.9493 79.0173C51.7361 74.5523 74.5381 58.4046 55.5968 29.1216" stroke="white" stroke-width="2.75126"/>
<path d="M34.8634 132.609C23.4432 122.664 8.34265 98.28 39.3396 79.8639" stroke="white" stroke-width="2.75126"/>
<path d="M33.6412 132.486C45.8537 124.684 63.8388 103.302 38.1166 79.7509" stroke="white" stroke-width="2.75126"/>
<path d="M102.997 79.6082C88.5762 74.9861 65.0687 58.5538 86.2651 29.3875" stroke="white" stroke-width="2.75126"/>
<path d="M101.823 79.9798C109.959 67.9869 118.03 41.2375 85.095 29.7685" stroke="white" stroke-width="2.75126"/>
<path d="M107.296 132.664C94.2903 124.908 75.0955 103.597 102.325 79.9637" stroke="white" stroke-width="2.75126"/>
<path d="M106.072 132.762C116.703 122.913 130.601 98.6743 101.101 80.0713" stroke="white" stroke-width="2.75126"/>
<path d="M15.6043 145.78C14.5089 145.68 12.8845 145.166 12.8845 146.752C12.8845 147.055 12.7624 148.781 12.2144 147.941C11.9611 147.553 11.6267 147.041 11.229 146.785C11.1067 146.706 10.9353 146.555 10.8742 146.417C10.6101 145.823 10.1916 145.506 11.045 145.924C12.3246 146.552 13.6186 147.152 14.8948 147.79C17.003 148.844 19.287 149.754 21.5957 150.273C23.4467 150.69 25.4973 150.628 27.3835 150.628C29.5641 150.628 31.7535 150.067 33.8677 149.564C34.9503 149.306 36.0072 148.967 37.0342 148.539C38.4516 147.948 39.381 147.255 40.319 146.082C41.4842 144.626 41.2823 142.749 39.6357 141.733C37.938 140.686 36.3081 140.123 34.3341 139.749C31.392 139.192 28.0709 138.659 25.0645 139.118C22.8386 139.458 21.0743 141.321 20.2161 143.323C19.9902 143.85 19.7111 144.868 20.4067 145.162C21.0996 145.456 21.9989 145.406 22.7323 145.419C23.8672 145.438 25.0011 145.417 26.1222 145.221C27.577 144.968 31.3557 144.381 31.4501 142.259C31.5154 140.788 27.9032 140.139 26.812 139.775C22.8281 138.447 17.9771 137.804 14.3561 140.314C13.1418 141.156 12.041 142.012 10.9925 143.06C10.6954 143.357 10.4278 143.729 10.1122 144C10.0737 144.032 10.8783 143.461 11.0713 143.29C12.4961 142.031 13.9374 140.786 15.5123 139.723C16.5739 139.006 17.7179 138.43 18.8234 137.785C19.932 137.138 21.0437 136.516 22.279 136.149C22.9515 135.949 23.6298 135.867 24.3287 135.847C25.5694 135.811 26.8048 135.585 28.047 135.518C29.0305 135.465 30.1139 135.394 31.0953 135.518C32.1948 135.657 33.2672 136.309 34.2618 136.766C35.3899 137.285 36.5015 137.9 37.4743 138.678C37.833 138.965 38.1035 139.307 38.4269 139.631C38.7854 139.989 39.2415 140.222 39.5963 140.577C40.2969 141.277 40.9856 142.03 41.6197 142.797C41.8509 143.077 42.0807 143.389 42.3292 143.651C42.4018 143.728 42.5657 144.006 42.5657 143.888" stroke="white" stroke-width="10.0695" stroke-linecap="round"/>
<path d="M11.1103 147.317C11.1103 147.675 11.1231 148.014 10.992 148.355C10.3958 149.905 9.88834 151.444 9.4613 153.052C8.49894 156.677 8.66128 160.097 8.86347 163.787C8.92855 164.975 9.21822 166.15 9.21822 167.341C9.21822 168.131 8.98528 165.778 8.83719 165.002C8.2048 161.689 7.5553 158.395 7.70066 155.003C7.78986 152.922 8.34827 150.826 8.77149 148.789C8.80526 148.626 9.71612 145.494 8.68609 146.207C8.15873 146.572 7.97435 147.461 7.7992 148.026C7.14294 150.145 6.94378 152.509 6.55756 154.688C6.12941 157.103 5.81199 159.625 6.07798 162.085C6.2354 163.542 7.10173 165.072 7.97658 166.224C8.88388 167.419 10.0006 168.957 11.6358 168.957C12.2622 168.957 12.8901 169.043 13.3702 168.563C15.1415 166.792 16.117 163.762 16.7732 161.428C17.5127 158.798 17.8655 155.704 16.9046 153.092C16.8533 152.952 15.8176 150.848 15.7484 151.232C15.6434 151.815 15.8107 152.534 15.9192 153.098C16.177 154.439 16.5587 155.753 16.8258 157.092C17.2921 159.431 17.5853 161.812 18.0871 164.142C18.1559 164.461 18.2457 165.484 18.6521 165.62C19.3601 165.856 20.037 165.304 20.4456 164.799C21.3409 163.69 21.8591 162.418 22.0354 161.008C22.2302 159.45 22.5792 157.254 21.5164 155.91C21.4583 155.837 20.7289 155.102 20.6295 155.141C20.4215 155.225 20.5704 156.805 20.5704 156.922C20.5704 160.839 21.1535 165.558 18.9412 169.049C18.7582 169.338 16.6908 171.959 16.4316 171.44" stroke="white" stroke-width="10.0695" stroke-linecap="round"/>
<path d="M9.57324 165.054C9.57324 166.204 10.3226 167.004 11.0185 167.892C11.6014 168.636 12.5128 169.497 13.2982 170.021C13.9537 170.458 14.1981 170.967 14.6581 171.558C15.1832 172.233 15.219 173.183 15.8406 173.805C15.8966 173.861 16.0667 174.013 16.1428 174.035C16.2351 174.061 15.4357 173.59 15.2756 173.45C14.3159 172.612 13.6075 171.67 12.7726 170.73C11.987 169.846 13.3288 170.646 13.6595 170.862C14.2746 171.262 14.9248 171.617 15.5121 172.057C16.1116 172.507 16.834 172.788 17.4041 173.266C18.0328 173.793 19.2699 174.816 19.2699 175.756C19.2699 176.029 19.4446 177.357 19.7429 177.208C20.2495 176.955 20.3691 176.205 20.4787 175.723C20.8205 174.219 21.3459 172.71 21.7532 171.216C22.0965 169.958 22.6054 168.498 22.6926 167.189C22.7241 166.717 22.5809 166.316 22.5809 165.882" stroke="white" stroke-width="10.0695" stroke-linecap="round"/>
<path d="M37.4815 103.207C37.4815 105.524 37.5139 107.842 37.4749 110.158C37.4577 111.182 37.4103 112.22 37.3041 113.239C37.2722 113.546 37.3161 113.971 37.1859 114.257C37.1315 114.377 37.1268 114.469 37.1268 114.599C37.1268 115.127 37.0615 113.544 36.9822 113.022C36.5746 110.339 35.6531 107.729 35.1625 105.054C34.772 102.925 34.5627 100.785 34.5318 98.6219C34.5132 97.3208 34.5189 96.016 34.7617 94.7327C34.9487 93.7442 35.306 92.7874 35.4449 91.7896C35.5111 91.3147 35.4751 91.0217 35.7603 90.6465C35.9391 90.4113 36.1853 90.3037 36.3253 90.029C36.5515 89.5849 36.6438 89.1055 36.7983 88.6362C36.9629 88.1361 37.128 87.6262 37.4552 87.2172C37.5519 87.0964 37.4815 86.7651 37.4815 87.1843C37.4815 87.7712 37.5636 88.2464 37.9085 88.7413C38.7574 89.9593 39.4522 91.3229 40.1882 92.6108C40.9805 93.9975 41.8662 95.4414 42.5006 96.9073C43.2042 98.5328 43.5253 100.402 43.5124 102.169C43.4945 104.602 42.2764 107.054 41.2656 109.212C40.1379 111.619 39.0608 114.209 37.245 116.189C36.7463 116.733 35.9101 117.872 35.1165 118.081C34.4196 118.264 32.8176 112.649 32.6989 112.241C31.2565 107.281 30.9539 102.174 32.0288 97.1306C32.4117 95.334 32.9879 93.4792 32.9879 91.6254C32.9879 91.1985 33.1795 90.5607 32.7449 90.3706C32.432 90.2337 32.0401 90.0069 31.6872 90.1078C30.8956 90.334 30.5408 91.9525 30.1236 92.5648C28.9743 94.2518 28.0793 95.8765 27.4827 97.8467C26.8599 99.9031 26.7336 102.012 26.7206 104.153C26.7078 106.266 26.777 108.187 27.3119 110.237C27.7557 111.938 28.1645 113.641 28.7309 115.309C29.3737 117.201 30.2561 119.014 31.5755 120.531C32.3885 121.466 33.7077 122.037 34.407 123.047C34.807 123.625 34.7617 124.145 34.7617 124.848" stroke="white" stroke-width="10.0695" stroke-linecap="round"/>
<path d="M34.9982 118.936C34.9982 119.952 34.9982 120.968 34.9982 121.985C34.9982 122.473 35.0541 122.979 34.8537 123.43C34.6368 123.918 34.1616 124.366 33.842 124.796C33.5677 125.165 33.4609 126.129 33.4609 125.322" stroke="white" stroke-width="10.0695" stroke-linecap="round"/>
<path d="M33.5786 126.031C34.0962 125.89 34.6117 125.129 35.0042 124.789C35.9313 123.987 36.7891 123.111 37.7174 122.313C38.9389 121.262 40.2109 120.29 41.0942 118.923C42.7621 116.34 43.2235 113.059 44.195 110.185C45.2596 107.036 44.6471 103.563 43.7483 100.482C43.3249 99.0303 42.9939 97.5471 42.3293 96.1788C41.8062 95.102 41.345 94.0577 40.9102 92.9466C40.709 92.4325 40.4372 91.886 40.4372 91.324C40.4372 91.2651 40.1524 90.4717 40.4963 90.7393C40.9315 91.0777 41.1709 91.6679 41.4095 92.1451C41.877 93.08 42.5011 93.8813 43.0125 94.7861C44.3962 97.2341 44.7216 99.9929 44.9965 102.742C45.2209 104.986 45.2855 107.208 45.2855 109.462C45.2855 110.628 45.2911 111.587 44.9308 112.668" stroke="white" stroke-width="10.0695" stroke-linecap="round"/>
<path d="M47.6495 46.0933C47.6495 49.9274 46.4399 53.771 45.7575 57.5243C45.4214 59.3729 45.2405 61.1698 45.0217 63.0296C44.9748 63.4283 44.9306 64.5645 44.5684 64.8362C43.9762 65.2803 43.6599 63.9412 43.4844 63.542C42.3201 60.8941 41.6614 58.4056 41.6252 55.4943C41.6071 54.0361 41.5984 52.5925 41.9997 51.1781C42.3251 50.031 42.8973 49.0069 43.3661 47.9196C43.4339 47.7625 44.3305 45.9489 43.964 45.9947C42.867 46.1319 41.8001 47.4126 41.1062 48.143C38.0741 51.3347 35.7061 55.4365 35.7061 59.9025C35.7061 60.6974 35.7061 61.4923 35.7061 62.2872C35.7061 62.7199 36.0557 63.094 36.271 63.45C37.2063 64.9969 38.6624 66.1078 38.6624 68.0881" stroke="white" stroke-width="10.0695" stroke-linecap="round"/>
<path d="M41.147 54.9611C41.147 53.8043 41.4362 52.2557 40.8185 51.2033C40.6804 50.9679 40.1512 50.6187 40.0893 50.4018C39.9398 49.8787 39.825 49.7653 39.4257 49.3112C39.1836 49.0359 38.6362 48.7771 38.552 48.3981C38.4163 47.7877 40.1473 46.9668 40.5097 46.4929C41.3602 45.3807 42.2715 44.4815 43.2558 43.4972C44.2716 42.4814 45.3558 41.7438 46.5865 40.9811C48.2009 39.9806 49.6847 38.857 51.3429 37.9328C51.8634 37.6427 52.2971 37.3766 52.7356 36.9868C52.9577 36.7894 53.1153 36.729 53.2678 36.4546C53.3825 36.2482 53.2612 36.0111 53.3532 35.8043C53.4722 35.5365 53.4566 35.4032 53.4452 35.8043C53.42 36.684 53.112 37.343 53.34 38.2875C54.1143 41.4953 55.2416 44.5627 55.6262 47.8594C55.8923 50.1398 56.0124 52.831 54.5029 54.718C53.8532 55.5301 54.5117 55.1228 54.9167 54.6194C55.9777 53.3008 56.2921 51.8566 56.5788 50.2244C56.9682 48.0077 57.6934 45.2544 56.5197 43.1753C56.2075 42.6223 55.7226 42.2268 55.4029 41.7037C55.1369 41.2685 55.0821 40.6539 54.8642 40.1796C54.4768 39.3364 54.6417 38.4098 54.3649 37.5518C54.2034 37.051 53.6817 36.4144 53.6817 35.9225" stroke="white" stroke-width="10.0695" stroke-linecap="round"/>
<path d="M50.3701 45.3828C50.3701 46.1147 50.5065 46.8481 50.6066 47.5705C50.9978 50.3929 51.2538 53.235 51.303 56.0846C51.333 57.8273 51.4276 59.4441 50.7249 61.0578C50.2845 62.0688 49.6144 63 48.9774 63.8958C48.2139 64.9694 47.3616 65.9533 46.6517 67.0689C46.6239 67.1127 46.1803 67.6289 46.2576 67.7061C46.4642 67.9127 47.3907 67.6289 47.5715 67.5616C49.396 66.8823 50.7215 64.5909 51.9796 63.2388C53.5701 61.5297 55.655 60.0411 56.4009 57.7204C56.8749 56.2458 57.1565 54.7279 57.59 53.2466C57.7058 52.851 58.0709 52.0266 57.82 51.6502" stroke="white" stroke-width="10.0695" stroke-linecap="round"/>
<path d="M47.651 54.6067C47.651 58.1349 47.7073 61.8944 46.5802 65.2756C46.0624 66.8291 45.1674 68.0862 44.1298 69.3356C43.5703 70.0092 42.73 70.4139 41.9093 70.6627C41.5366 70.7756 41.0442 71.2124 40.7662 71.4904C40.4763 71.7803 40.2012 72.8261 40.2012 71.9897" stroke="white" stroke-width="10.0695" stroke-linecap="round"/>
<path d="M56.2832 19.4858C56.2832 19.6169 56.1714 19.374 56.1058 19.3085C55.7881 18.9908 55.4384 18.7878 55.0613 18.5464C54.8889 18.4361 54.1832 17.9725 53.9444 18.2113C53.726 18.4297 53.9244 19.1868 54.1678 19.3085C55.3841 19.9166 56.6448 20.5316 57.9124 21.0231C58.7082 21.3316 59.425 21.7597 60.1855 22.1399C61.463 22.7787 62.8746 23.0035 64.2783 23.1976C65.9606 23.4303 67.6623 23.3985 69.3566 23.3881C71.7185 23.3737 74.2007 23.3688 76.4517 22.5604C77.0569 22.343 77.8851 22.1206 78.2583 21.5421C78.8474 20.6291 78.4212 19.3192 77.6605 18.6712C76.6697 17.8272 75.2428 17.5497 73.9947 17.3573C70.8119 16.8666 67.7133 17.2054 64.6265 18.0799C62.7224 18.6195 60.7723 19.2795 59.0358 20.2479C58.7707 20.3958 58.1431 20.7242 58.0635 21.0822C57.9341 21.6647 55.4368 19.9841 55.1007 19.8143C54.1922 19.3553 53.2871 18.7702 52.3283 18.4216C52.2011 18.3753 51.509 18.2306 51.4611 18.1588C51.4288 18.1102 52.5444 17.4046 52.6174 17.3507C53.4077 16.7665 54.1741 16.0227 54.7459 15.2222C55.8491 13.6778 57.0395 11.9605 58.5168 10.7483C59.6042 9.8561 60.7366 9.04013 62.0053 8.42928C62.3105 8.28233 63.0235 8.05241 63.0235 7.66064" stroke="white" stroke-width="10.0695" stroke-linecap="round"/>
<path d="M59.0039 15.5828C59.012 15.599 59.4644 15.0709 59.5098 15.0244C60.1062 14.4122 60.6912 13.7926 61.2573 13.1521C62.0336 12.2735 62.9039 11.3967 63.8785 10.7345C64.4786 10.3267 65.1376 9.92026 65.8625 9.78845C66.8519 9.60857 67.8131 9.00129 68.7334 8.62565C69.193 8.43806 70.6633 8.15773 70.7108 7.51539C70.7582 6.87591 69.4846 6.9469 69.0619 6.89128C68.5999 6.8305 68.1044 6.68637 67.6363 6.71391C67.456 6.72451 67.2628 7.17686 67.5443 7.18691C69.4363 7.25449 71.05 7.47255 72.6817 8.54024C74.9546 10.0274 76.7491 12.0707 78.8636 13.7499C79.4306 14.2001 79.8811 14.789 80.4995 15.1755C80.6753 15.2854 80.212 14.6654 80.2104 14.6631C79.4756 13.5735 78.7132 12.5011 77.9505 11.4308C77.2238 10.4112 76.3718 9.31654 75.2964 8.63221C75.0071 8.4481 74.6063 8.23075 74.4949 7.89643" stroke="white" stroke-width="10.0695" stroke-linecap="round"/>
<path d="M74.2578 9.90894C76.1615 10.2262 77.5711 11.9586 78.8696 13.22C79.3825 13.7182 79.9857 14.199 80.5514 14.639C81.1062 15.0705 81.9589 15.6398 82.5946 15.9332C82.659 15.963 83.3851 16.4047 83.4026 16.3931C83.4233 16.3793 82.7582 15.6388 82.7128 15.585C82.3377 15.1405 81.9544 14.7086 81.6026 14.2448C81.1201 13.6089 80.6097 12.9908 80.177 12.32C80.023 12.0813 79.4317 10.5902 79.1324 10.5528C79.0177 10.5384 79.2768 10.7336 79.3426 10.8287C79.4918 11.0441 79.632 11.2574 79.8156 11.4462C80.6892 12.344 81.5672 13.2658 82.3646 14.2317C83.4005 15.4864 84.5412 16.281 85.0779 17.8909C85.4331 18.9567 85.391 19.8538 85.2618 20.9523C85.2263 21.2541 84.9005 22.5995 84.9005 21.6159" stroke="white" stroke-width="10.0695" stroke-linecap="round"/>
<path d="M82.1808 18.6584C81.5107 18.6584 83.521 18.6584 84.191 18.6584C84.5764 18.6584 84.8713 18.635 85.1633 18.8686C85.3354 19.0063 85.7816 18.9423 86.0108 19.0657C86.4509 19.3027 86.1999 18.8628 86.0831 18.6584" stroke="white" stroke-width="10.0695" stroke-linecap="round"/>
<path d="M53.917 19.9583C53.917 21.0548 54.6829 21.9729 55.2703 22.8423C56.1798 24.1884 57.6253 25.3058 58.8179 26.403C60.6898 28.1252 63.5488 28.6295 65.9327 29.2476C67.1955 29.575 68.472 29.8749 69.789 29.8914C71.8578 29.9173 73.5327 29.5818 75.452 28.7614C76.9597 28.117 78.686 27.4259 79.7222 26.0811C80.3059 25.3234 80.8884 24.9533 80.9967 23.9788" stroke="white" stroke-width="10.0695" stroke-linecap="round"/>
<path d="M95.78 66.9049C95.78 67.0492 95.78 66.4039 95.78 66.3202C95.78 65.4553 95.3112 64.5987 95.0048 63.8106C93.8273 60.7828 92.3882 57.6298 92.0616 54.3636C91.7224 50.9717 90.5729 47.7815 89.7754 44.5027C89.6008 43.7849 89.2547 43.115 88.9871 42.4268C88.7317 41.7702 88.6017 41.0339 88.3958 40.3574C88.1281 39.4779 87.9079 38.4929 87.8571 37.5784C87.8447 37.3558 87.6678 37.0011 87.5615 36.8098C87.4928 36.6862 87.5506 36.4818 87.4432 36.3959C87.3849 36.3493 87.3445 36.1594 87.3447 36.1594C87.9334 36.1594 88.743 37.2467 89.0396 37.6704C89.7415 38.6731 90.6893 39.2881 91.6149 40.0617C92.7872 41.0416 94.0113 41.9331 95.1099 42.9983C97.229 45.0532 97.9039 48.296 98.5983 51.0329C99.6757 55.2792 99.804 60.1172 99.091 64.4348C98.8617 65.8237 98.6078 67.2 98.4472 68.5998C98.3816 69.1715 98.1919 70.1814 98.4472 70.7284C98.7514 71.3802 100.068 71.0182 100.457 70.7152C100.78 70.4646 101.102 70.1273 101.193 69.7167C101.403 68.7744 101.756 67.9107 102.113 67.01C103.672 63.0774 104.614 58.0958 103.939 53.8446C103.649 52.0154 103.301 50.4706 102.52 48.7861C101.913 47.4745 101.197 46.04 100.182 45.002C98.6376 43.4245 97.2345 41.7723 95.1296 40.9486C94.3277 40.6348 93.502 40.3007 92.6529 40.1537C91.9029 40.0239 91.0371 39.9958 90.3667 39.5887C89.1148 38.8287 87.6511 37.8626 86.7403 36.6916C86.4531 36.3224 86.6459 36.3693 86.9111 36.2514C87.5944 35.9477 88.1485 36.486 88.7243 36.8164C89.6657 37.3566 90.7452 37.5615 91.5886 38.2617C91.8962 38.5171 92.0828 38.833 92.3507 39.1157C92.4232 39.1923 92.5872 39.4706 92.5872 39.3522" stroke="white" stroke-width="10.0695" stroke-linecap="round"/>
<path d="M86.6741 39.2334C86.6397 39.6114 86.4121 39.8471 86.1945 40.14C85.7942 40.6789 85.4339 41.2732 85.1105 41.8612C84.3294 43.2815 83.5634 44.8853 83.3368 46.4993C82.7268 50.842 83.2131 55.5172 84.6112 59.6515C85.8862 63.4218 88.4648 67.3023 92.1137 69.1511C93.0702 69.6358 94.111 69.8671 95.07 70.3336C97.0084 71.2766 98.5332 72.5407 100.273 73.8812" stroke="white" stroke-width="10.0695" stroke-linecap="round"/>
<path d="M96.4878 63.8306C97.0689 64.5932 97.7846 65.5005 98.0908 66.419C98.1558 66.6141 98.2679 67.0045 98.3798 66.6686" stroke="white" stroke-width="10.0695" stroke-linecap="round"/>
<path d="M105.368 117.74C105.329 114.412 104.6 111.147 104.199 107.851C103.845 104.945 103.57 102.042 103.38 99.1217C103.329 98.3343 103.324 97.6335 103.093 96.8675C102.877 96.1531 102.418 95.5261 102.168 94.8206C101.62 93.2757 101.923 91.3244 101.923 89.7061C101.923 89.0498 101.865 88.4178 101.827 87.7869C101.826 87.756 101.659 87.1196 101.806 87.2339C102.036 87.4129 102.128 87.7716 102.306 87.9995C102.933 88.8009 103.763 89.4172 104.507 90.1049C105.631 91.1444 106.815 92.2819 107.814 93.4436C110.309 96.3451 111.691 99.5491 112.11 103.359C112.489 106.804 112.037 110.462 110.823 113.721C110.093 115.681 108.915 117.345 107.782 119.08C107.223 119.935 106.552 120.722 106.017 121.589C105.78 121.974 105.572 122.382 105.326 122.759C105.131 123.057 104.794 123.434 104.794 123.817C104.794 123.891 105.421 124.75 105.512 124.822C105.623 124.91 105.655 125.211 105.655 125.348C105.655 125.425 105.355 125.832 105.528 125.832C106.082 125.832 106.571 124.89 106.825 124.492C107.785 122.992 108.837 121.571 109.94 120.175C111.553 118.135 112.803 115.914 113.306 113.338C113.777 110.922 113.976 108.477 113.024 106.166C112.745 105.489 112.392 104.792 112.019 104.162C111.711 103.641 111.377 103.686 111.302 103.003" stroke="white" stroke-width="10.0695" stroke-linecap="round"/>
<path d="M111.589 100.802C111.589 100.435 111.6 101.15 111.611 101.227C111.698 101.867 112.043 102.43 112.249 103.035C112.387 103.441 112.481 103.858 112.589 104.273C112.611 104.358 112.642 104.73 112.642 104.438" stroke="white" stroke-width="10.0695" stroke-linecap="round"/>
<path d="M102.498 91.997C102.37 92.0131 102.43 92.1002 102.381 92.1884C102.287 92.357 101.99 92.4423 101.828 92.5234C101.329 92.7727 100.671 93.0646 100.105 93.0497C99.4802 93.0333 99.0837 91.3741 99.0528 90.8487C99.0332 90.5153 98.6061 91.2718 98.5743 91.375C98.3931 91.9638 97.977 92.5119 97.6173 93.0072C95.5551 95.8476 95.2 99.0971 94.89 102.508C94.7158 104.423 94.5572 106.346 94.4381 108.266C94.3099 110.33 94.2228 112.388 95.0388 114.332C96.056 116.755 97.9929 118.424 99.6164 120.409C99.8469 120.69 100.194 120.962 100.371 121.28C100.396 121.324 100.511 121.502 100.467 121.546C100.29 121.723 100.114 120.573 100.111 120.541C99.8729 117.885 99.7358 115.096 99.9566 112.434C100.083 110.909 100.775 109.511 100.775 107.979" stroke="white" stroke-width="10.0695" stroke-linecap="round"/>
<path d="M113.79 146.833C113.79 147.039 113.891 147.149 114.024 147.317C114.795 148.293 115.623 149.23 116.448 150.161C117.224 151.036 118.143 151.777 118.915 152.649C119.432 153.232 119.825 153.949 120.276 154.584C120.447 154.825 120.541 155.107 120.818 155.254C122.065 155.914 122.681 154.305 122.998 153.298C123.251 152.496 123.464 151.626 123.338 150.778C123.211 149.92 122.171 149.102 121.403 148.789C120.238 148.316 118.895 148.268 117.66 148.268C116.081 148.268 113.982 148.099 112.854 149.481C111.809 150.761 111.883 152.906 112.95 154.106C113.839 155.106 115.978 156.159 117.331 155.733C117.867 155.564 118.134 155.121 118.171 154.553C118.218 153.833 117.957 153.291 117.496 152.756C116.765 151.907 115.972 151.092 115.14 150.342C113.71 149.05 112.24 148.46 110.324 148.46C109.46 148.46 108.495 148.343 107.671 148.656C106.945 148.933 106.359 149.367 105.714 149.784C105.048 150.213 104.881 150.412 104.162 149.986C102.862 149.215 101.776 148.179 100.536 147.317C100.116 147.025 99.5103 146.722 99.01 146.642C98.6703 146.587 98.403 146.354 98.053 146.354C97.6958 146.354 97.2556 146.426 96.91 146.349C96.1803 146.187 97.6987 144.806 97.8085 144.733C99.4684 143.626 100.955 142.297 102.615 141.187C103.475 140.611 104.33 140.028 105.198 139.464C105.885 139.018 106.62 138.827 107.399 138.603C108.983 138.147 110.525 137.823 112.184 137.837C114.737 137.859 117.018 139.222 119.245 140.325C121.402 141.394 123.75 142.376 125.539 144.015C126.889 145.251 127.26 146.998 127.815 148.662C128.047 149.359 128.947 151.499 127.932 151.905C127.266 152.171 126.759 152.171 126.22 151.66C123.298 148.894 120.147 146.372 116.565 144.504C114.141 143.24 111.363 142.194 108.707 141.516C108.224 141.393 107.003 141.019 106.528 141.389C105.353 142.302 105.705 144.357 104.545 145.302C104.176 145.602 103.766 145.904 103.316 146.067C103.174 146.119 102.914 146.348 102.886 146.503C102.729 147.363 102.777 148.588 103.024 149.411C103.276 150.251 103.922 150.891 104.741 151.182C105.188 151.34 105.738 151.905 106.182 151.905C106.217 151.905 106.396 151.93 106.283 152.001C105.886 152.248 105.118 151.853 104.784 151.682C103.546 151.049 102.392 150.177 101.121 149.619C100.747 149.455 100.34 149.375 100.052 149.087C99.8721 148.907 99.9679 149.034 100.307 149.034C101.727 149.034 103.099 149.153 104.459 149.598C106.863 150.384 109.031 151.732 111.493 152.288" stroke="white" stroke-width="10.0695" stroke-linecap="round"/>
<path d="M117.81 154.104C117.81 156.641 118.108 159.337 117.656 161.845C117.375 163.4 116.433 164.798 115.497 166.035C115.446 166.102 114.072 168.055 113.987 168.013C113.49 167.764 115.459 162.723 115.603 162.26C115.836 161.514 116.038 160.761 116.236 160.006C116.364 159.518 115.846 160.253 115.779 160.346C114.854 161.628 114.281 163.16 113.695 164.621C113.163 165.946 112.288 167.603 112.685 169.086C112.861 169.746 113.588 170.745 114.078 171.234" stroke="white" stroke-width="10.0695" stroke-linecap="round"/>
<path d="M113.503 170.755C113.503 172.517 113.503 174.279 113.503 176.04C113.503 176.529 112.694 177.772 113.046 177.433C115.325 175.238 118.366 173.723 121.085 172.191C122.479 171.405 124.153 170.738 125.136 169.416C125.664 168.705 125.986 167.821 126.114 166.949C126.179 166.513 125.944 166.506 125.944 166.141C125.944 164.562 126.1 163.035 126.231 161.462C126.367 159.832 126.571 158.173 126.614 156.539C126.631 155.878 126.825 155.53 127.092 154.965C127.46 154.19 127.56 153.202 127.645 152.36C127.689 151.93 127.589 150.225 128.097 150C128.599 149.777 129.19 150.349 129.437 150.707C130.46 152.184 130.333 154.454 130.495 156.124C130.669 157.912 130.633 159.699 130.633 161.494C130.633 163.129 130.539 164.474 129.82 165.965C128.607 168.481 126.13 170.18 123.903 171.744C122.51 172.722 121.036 173.535 119.58 174.397C118.714 174.91 117.863 175.777 116.81 175.918C116.013 176.024 115.024 176.255 114.317 176.636C114.111 176.746 113.648 176.745 113.408 176.779C113.197 176.809 112.929 177.009 112.929 176.689" stroke="white" stroke-width="10.0695" stroke-linecap="round"/>
<path d="M54.7441 144.344C54.4238 144.344 54.1717 144.221 53.9572 143.982C53.8603 143.875 54.1315 143.859 54.1912 143.844C54.5719 143.749 54.9114 143.478 55.2173 143.243C55.7291 142.851 56.0919 142.227 56.4666 141.707C56.9073 141.095 57.3592 140.565 57.9021 140.038C58.3912 139.562 59.0138 139.229 59.614 138.921C61.0879 138.166 62.4525 137.254 64.0214 136.694C65.0934 136.311 65.9576 136.114 67.0891 136.114C68.392 136.114 69.6771 136.184 70.9489 136.497C72.2921 136.827 73.4466 137.488 74.6385 138.166C75.6663 138.751 76.7967 139.168 77.8072 139.772C78.9739 140.469 80.3743 141.024 81.4437 141.856C81.9977 142.287 82.7699 142.518 83.4321 142.738C83.9386 142.907 84.6061 142.63 84.8888 143.196" stroke="white" stroke-width="10.0695" stroke-linecap="round"/>
<path d="M65.7506 139.367C64.7273 141.56 61.7086 141.676 60.2959 143.578C59.4858 144.669 59.9158 145.808 59.5781 147.023C59.5214 147.227 59.4173 147.974 59.626 148.097C60.0664 148.356 60.6201 148.369 61.1252 148.48C61.9664 148.664 63.1348 148.838 63.9643 148.517C64.88 148.163 65.7264 147.497 66.5056 146.917C67.3685 146.274 68.2612 145.62 69.0362 144.87C69.6242 144.301 70.0682 143.629 70.5887 143.004C71.1689 142.308 72.4307 142.101 73.2735 142.058C73.8292 142.029 74.5106 141.958 75.0545 142.111C75.7741 142.312 76.3968 142.843 77.0323 143.217C77.6531 143.581 78.3174 143.864 78.9356 144.227C79.2309 144.4 79.5311 144.503 79.5311 144.87C79.5311 145.995 78.1028 146.793 77.2131 147.193C75.0557 148.164 72.5841 148.783 70.2165 148.916C68.4332 149.016 66.6285 148.937 64.8415 148.937C64.6855 148.937 64.5296 148.937 64.3736 148.937C64.0718 148.937 64.8964 149.239 65.1552 149.394C65.663 149.699 66.2222 150.324 66.798 150.468C67.8015 150.719 68.8941 150.729 69.9241 150.607C71.7487 150.39 73.5565 150.018 75.3629 149.703C77.0432 149.409 78.6861 148.485 80.0521 147.496C80.5328 147.149 82.3063 146.333 82.3063 145.588" stroke="white" stroke-width="10.0695" stroke-linecap="round"/>
</g>
<defs>
<clipPath id="clip0_205_3910">
<rect width="137.074" height="183.091" fill="white" transform="translate(0.37793 0.552734)"/>
</clipPath>
</defs>
</svg>
