<svg width="272" height="366" viewBox="0 0 272 366" fill="none" xmlns="http://www.w3.org/2000/svg">
<path d="M107.455 21.8341C101.984 -2.78219 66.7112 0.631531 66.7112 26.927C66.7112 48.8656 100.189 70.0106 113.113 83.3266C127.827 98.4861 153.118 127.305 147.444 151.421C140.219 182.125 98.8278 202.655 71.6155 211.216C39.7958 221.227 30.5663 186.051 23.3269 159.909C17.7309 139.701 18.3035 105.125 32.7583 144.442C52.7166 198.728 48.9944 254.58 24.6473 305.907C22.3071 310.84 -2.95254 354.255 8.23672 359.477C20.7897 365.335 44.2243 351.853 53.6959 346.839C89.6848 327.786 124.913 301.415 151.216 270.068C163.227 255.753 155.713 258.03 158.761 273.274C162.681 292.871 188.048 297.07 204.409 299.493C208.147 300.047 214.583 300.712 215.349 295.344C217.105 283.052 197.101 276.538 188.942 273.274C168.1 264.937 144.803 258.518 144.803 232.342C144.803 178.251 245.166 223.652 267.033 201.785" stroke="white" stroke-width="9.37907" stroke-linecap="round"/>
</svg>
