<svg width="543" height="324" viewBox="0 0 543 324" fill="none" xmlns="http://www.w3.org/2000/svg">
<path d="M25.3869 320L7 100L83.0039 320L69 51.5L144.368 320L132.5 19.5L213.433 320V19.5L318.704 320L260 4L414.615 320L310.212 4L537.5 320" stroke="black" stroke-width="13"/>
<path d="M78 316H25.5L17.5 143.5L78 316Z" fill="black" stroke="black" stroke-width="13"/>
<path d="M146 316H91.6115L74 99L146 316Z" fill="black" stroke="black" stroke-width="13"/>
<path d="M204.5 316H152L141 76L204.5 316Z" fill="black" stroke="black" stroke-width="13"/>
<path d="M311 316H217.5V51.5L311 316Z" fill="black" stroke="black" stroke-width="13"/>
<path d="M411.5 315.5H321L274.5 45L411.5 315.5Z" fill="black" stroke="black" stroke-width="13"/>
<path d="M525.5 316H423L329.5 39L525.5 316Z" fill="black" stroke="black" stroke-width="13"/>
</svg>
