<svg width="162" height="215" viewBox="0 0 162 215" fill="none" xmlns="http://www.w3.org/2000/svg">
<path d="M15.2053 109.805C28.6707 101.322 48.2929 78.3569 19.0899 53.8933" stroke="white" stroke-width="3.22717"/>
<path d="M16.4923 109.884C5.07491 99.6747 -10.1391 74.2934 20.3761 53.983" stroke="white" stroke-width="3.22717"/>
<path d="M15.4212 57.0673C28.8867 48.5848 48.5089 25.6192 19.3058 1.15566" stroke="white" stroke-width="3.22717"/>
<path d="M16.7075 57.1454C5.29014 46.9359 -9.92384 21.5547 20.5913 1.24423" stroke="white" stroke-width="3.22717"/>
<path d="M16.4439 213.715C29.9094 205.232 49.5316 182.266 20.3285 157.803" stroke="white" stroke-width="3.22717"/>
<path d="M17.7309 213.794C6.31357 203.584 -8.9004 178.203 21.6147 157.893" stroke="white" stroke-width="3.22717"/>
<path d="M16.6644 160.856C30.1299 152.374 49.7521 129.408 20.549 104.945" stroke="white" stroke-width="3.22717"/>
<path d="M17.9493 160.935C6.53191 150.726 -8.68206 125.344 21.8331 105.034" stroke="white" stroke-width="3.22717"/>
<path d="M139.236 109.925C152.701 101.443 172.323 78.4774 143.12 54.0138" stroke="white" stroke-width="3.22717"/>
<path d="M140.523 110.005C129.105 99.7951 113.891 74.4138 144.406 54.1034" stroke="white" stroke-width="3.22717"/>
<path d="M139.457 57.0673C152.922 48.5848 172.545 25.6192 143.342 1.15566" stroke="white" stroke-width="3.22717"/>
<path d="M140.741 57.1461C129.324 46.9367 114.11 21.5554 144.625 1.24496" stroke="white" stroke-width="3.22717"/>
<path d="M140.482 213.714C153.947 205.232 173.569 182.266 144.366 157.803" stroke="white" stroke-width="3.22717"/>
<path d="M141.769 213.794C130.351 203.584 115.137 178.203 145.652 157.892" stroke="white" stroke-width="3.22717"/>
<path d="M140.695 160.856C154.161 152.374 173.783 129.408 144.58 104.945" stroke="white" stroke-width="3.22717"/>
<path d="M141.982 160.936C130.565 150.726 115.351 125.345 145.866 105.034" stroke="white" stroke-width="3.22717"/>
<path d="M73.9331 107.413C92.4146 106.733 125.527 95.0816 110.427 53.4661" stroke="white" stroke-width="3.22717"/>
<path d="M75.1813 108.243C69.6535 91.3248 69.1517 56.9403 111.668 54.3071" stroke="white" stroke-width="3.22717"/>
<path d="M104.959 54.3978C123.441 53.7183 156.553 42.0668 141.453 0.451343" stroke="white" stroke-width="3.22717"/>
<path d="M106.209 55.2283C100.682 38.3096 100.18 3.92513 142.696 1.29193" stroke="white" stroke-width="3.22717"/>
<path d="M14.6873 212.48C33.1688 211.8 66.2815 200.149 51.1809 158.533" stroke="white" stroke-width="3.22717"/>
<path d="M15.9355 213.31C10.4078 196.392 9.90598 162.007 52.4223 159.374" stroke="white" stroke-width="3.22717"/>
<path d="M45.7123 159.466C64.1938 158.787 97.3064 147.135 82.2059 105.52" stroke="white" stroke-width="3.22717"/>
<path d="M46.9605 160.297C41.4327 143.378 40.9309 108.994 83.4472 106.361" stroke="white" stroke-width="3.22717"/>
</svg>
