<svg width="138" height="184" viewBox="0 0 138 184" fill="none" xmlns="http://www.w3.org/2000/svg">
<g clip-path="url(#clip0_205_4351)">
<rect width="137.074" height="183.091" fill="black"/>
<path d="M12.53 92.5206C24.0097 85.289 40.7382 65.7101 15.8417 44.8541" stroke="white" stroke-width="2.75126"/>
<path d="M13.6274 92.5864C3.89376 83.8825 -9.07663 62.2442 16.9385 44.9289" stroke="white" stroke-width="2.75126"/>
<path d="M12.7189 47.5596C24.1987 40.328 40.9272 20.7492 16.0307 -0.106815" stroke="white" stroke-width="2.75126"/>
<path d="M13.8154 47.6269C4.08175 38.923 -8.88865 17.2847 17.1265 -0.0305853" stroke="white" stroke-width="2.75126"/>
<path d="M24.8131 96.3028C38.6043 100.212 65.8034 99.5219 64.5988 65.2294" stroke="white" stroke-width="2.75126"/>
<path d="M27.4086 89.0954C27.3696 75.2997 33.3318 57.9401 65.3134 66.1444" stroke="white" stroke-width="2.75126"/>
<path d="M60.2633 64.6896C74.0545 68.5989 101.254 67.9087 100.049 33.6161" stroke="white" stroke-width="2.75126"/>
<path d="M60.9853 65.5983C60.9464 51.8026 68.7819 26.3263 100.764 34.5306" stroke="white" stroke-width="2.75126"/>
<path d="M95.5147 32.7276C109.306 36.637 136.505 35.9467 135.3 1.65416" stroke="white" stroke-width="2.75126"/>
<path d="M96.2363 33.6379C96.1973 19.8422 104.033 -5.63411 136.015 2.5702" stroke="white" stroke-width="2.75126"/>
<path d="M27.9013 83.2235C25.8309 97.4078 29.5588 123.963 63.3986 118.28" stroke="white" stroke-width="2.75126"/>
<path d="M27.4107 83.7138C41.0827 81.8693 66.5328 86.3301 62.5855 119.111" stroke="white" stroke-width="2.75126"/>
<path d="M63.373 113.911C61.3025 128.095 65.5472 154.97 99.387 149.287" stroke="white" stroke-width="2.75126"/>
<path d="M62.5678 114.748C76.2397 112.904 102.522 117.337 98.5752 150.117" stroke="white" stroke-width="2.75126"/>
<path d="M99.6713 144.673C97.6008 158.857 101.846 185.732 135.685 180.049" stroke="white" stroke-width="2.75126"/>
<path d="M98.8671 145.509C112.539 143.665 138.822 148.098 134.874 180.879" stroke="white" stroke-width="2.75126"/>
<path d="M13.591 181.108C25.0707 173.876 41.7993 154.298 16.9027 133.442" stroke="white" stroke-width="2.75126"/>
<path d="M14.688 181.175C4.95431 172.471 -8.01609 150.833 17.999 133.517" stroke="white" stroke-width="2.75126"/>
<path d="M13.7726 136.043C25.2524 128.811 41.9809 109.232 17.0844 88.3761" stroke="white" stroke-width="2.75126"/>
<path d="M14.8696 136.111C5.13595 127.407 -7.83445 105.769 18.1807 88.4533" stroke="white" stroke-width="2.75126"/>
<path d="M31.3416 93.2048C30.7533 93.0871 30.3864 92.5057 29.9549 92.1317C29.0137 91.316 27.9221 90.709 26.9505 89.9362C25.7166 88.9547 25.0851 87.8563 24.2266 86.5685C22.3656 83.777 21.5322 80.78 20.2152 77.7697C20.1605 77.6448 19.2096 75.5691 18.878 76.7297C18.3486 78.5826 19.3427 80.3377 20.1161 81.9133C21.1805 84.0813 21.4282 86.2656 21.8495 88.5825C22.1098 90.0142 20.313 88.1454 19.9841 87.7901C19.3833 87.1413 18.7777 86.9553 18.2012 86.4365C17.6892 85.9756 16.5847 86.1244 16.1872 85.6276C15.8598 85.2182 14.918 84.9244 14.4704 84.5215C13.9937 84.0925 13.7379 83.4548 13.3478 82.9533C12.7999 82.2488 12.0954 81.325 11.7961 80.4936C11.4662 79.5771 10.4709 78.8469 10.2608 77.9018C9.92432 76.3875 8.46146 75.1641 8.46146 73.4446C8.46146 71.7113 8.46146 69.9779 8.46146 68.2446C8.46146 67.7134 8.79845 65.796 7.88368 66.3297C7.01103 66.8387 7.08679 67.8829 6.61256 68.4757C6.34227 68.8136 6.34937 70.1446 6.74462 69.4332C7.44703 68.1688 8.3891 67.362 8.7586 65.8839C9.16899 64.2424 9.50713 62.579 9.96369 60.9811C10.0001 60.8537 10.8744 59.6604 10.3764 59.6604C9.81424 59.6604 8.5141 60.9284 8.09828 61.3442C7.84928 61.5932 7.86717 61.7462 7.86717 62.1036C7.86717 62.7309 8.51163 61.0222 8.90717 60.5353C9.58581 59.7001 10.3124 58.833 11.0697 58.0756C11.5095 57.6359 12.0272 57.1822 12.0272 56.5074C12.0272 55.457 13.131 55.3588 13.744 54.8071C14.3876 54.2278 16.63 52.0123 14.9986 51.6045" stroke="white" stroke-width="10.0695" stroke-linecap="round"/>
<path d="M14.107 80.7253C14.107 81.7296 13.8942 83.0353 14.4042 83.9278C14.943 84.8707 14.9925 87.2577 15.7413 87.8567C16.7157 88.6362 19.0459 88.1539 20.248 88.1539C22.3388 88.1539 24.4304 88.136 26.5211 88.1539C28.2496 88.1686 29.9646 88.3398 31.6881 88.451C31.7238 88.4533 33.396 88.7899 33.3719 88.0548C33.2746 85.0874 26.8517 80.5709 25.3985 78.9424" stroke="white" stroke-width="10.0695" stroke-linecap="round"/>
<path d="M21.2366 78.9426C21.2366 76.1197 21.2366 73.2968 21.2366 70.474C21.2366 68.6258 21.5778 65.9784 20.8735 64.2174C20.4829 63.2411 19.8461 62.5996 18.7109 62.5996C16.8262 62.5996 16.3893 65.7702 16.2512 67.0898C16.2109 67.4751 16.1624 74.6406 17.6049 73.0987C18.6509 71.9806 19.0948 70.0253 19.5198 68.6085C19.9893 67.0436 20.6605 65.5552 21.0716 63.9698C21.5529 62.113 21.2366 59.9222 21.2366 58.0104C21.2366 56.766 20.6934 56.0123 19.5198 55.5342C19.0681 55.3502 18.018 54.7432 18.2652 55.4847C19.1183 58.0441 20.1737 60.7224 21.5503 63.0453C23.2247 65.8709 23.9109 68.8453 23.9109 72.1083C23.9109 74.7224 23.5734 77.5923 24.2081 80.1312" stroke="white" stroke-width="10.0695" stroke-linecap="round"/>
<path d="M32.4298 84.9658C32.4298 83.1677 32.4298 81.3696 32.4298 79.5716C32.4298 78.3688 32.9379 78.1062 33.7374 77.2831C34.6789 76.314 35.3223 75.0444 36.2711 74.0956C37.3801 72.9867 38.8477 72.0094 40.3576 71.562C43.6016 70.6008 46.7479 68.9469 50.1107 68.6106C51.9587 68.4258 53.7335 68.2621 55.6048 68.2928C56.3097 68.3043 57.1967 68.363 57.8933 68.4926C58.2054 68.5506 59.2405 68.8389 59.5279 68.5834C59.9198 68.235 58.6936 69.2496 58.4109 69.6913C57.7551 70.716 57.3939 71.6921 57.0397 72.8515C56.344 75.1282 55.6129 77.1239 54.5333 79.2446C53.2162 81.8318 51.4849 84.1342 49.4841 86.228C48.0852 87.6921 46.6929 89.1378 45.0071 90.2782C43.6588 91.1903 42.2063 91.8761 40.7753 92.6393C39.2802 93.4367 37.6615 93.7926 35.9896 93.7926C34.9642 93.7926 36.1797 92.6816 36.4618 92.385C37.9935 90.7748 39.1427 89.076 40.1487 87.0998C41.8085 83.8396 43.1215 80.1433 43.3816 76.5021C43.4001 76.243 45.7397 76.4658 46.0696 76.4658C47.5464 76.4658 48.7323 76.0159 50.138 75.6122C51.1137 75.3319 51.8698 74.8319 52.6898 74.2682C53.0846 73.9967 53.2598 73.687 53.7614 73.687C55.0744 73.687 56.8172 73.4144 57.9841 74.1774C58.7818 74.699 58.8339 76.1863 58.9013 77.0288C59.038 78.7371 58.0941 80.4894 57.2758 81.9508C56.2011 83.8699 55.2753 85.9508 53.716 87.5448C52.2974 88.9949 50.6859 90.3414 48.9211 91.3498C47.1709 92.3499 45.5177 93.0982 43.5814 93.6292C40.646 94.434 37.6277 94.7734 34.5911 94.7734C33.8771 94.7734 32.8912 94.5832 32.1937 94.7825C31.9089 94.8638 32.9533 95.6275 33.011 95.6906C34.0436 96.8216 34.4601 98.2546 35.1723 99.5682C35.9869 101.071 36.726 102.7 37.6605 104.127C39.5569 107.023 42.1232 109.435 45.4975 110.384C46.6655 110.712 47.8256 110.964 49.0119 111.201C49.4879 111.296 50.4301 111.61 49.3298 111.61C47.9372 111.61 46.6938 111.642 45.3976 111.047C43.0273 109.958 40.7123 108.707 38.387 107.523C35.7117 106.162 32.967 104.738 31.0404 102.383C30.7685 102.051 30.7978 101.548 31.2855 101.966C32.2525 102.794 33.3934 103.416 34.3731 104.236C36.3827 105.919 38.5061 107.449 40.7118 108.867C41.9723 109.678 43.0291 110.299 44.5258 110.466" stroke="white" stroke-width="10.0695" stroke-linecap="round"/>
<path d="M40.6036 105.887C40.425 105.887 41.4115 106.922 41.5026 107.04C42.2275 107.986 43.0311 108.805 43.8728 109.647C44.6169 110.391 45.585 110.908 46.4518 111.499C46.8162 111.748 47.6185 112.272 47.7959 112.671C48.0407 113.222 47.7356 113.228 47.2147 113.37C46.4745 113.572 46.2823 113.179 45.7072 112.625C45.6419 112.563 44.9437 112.121 45.3439 112.099C46.2103 112.051 47.0168 112.191 47.8503 112.426C49.8698 112.994 51.7586 113.615 53.6895 114.46C54.6752 114.891 55.8861 114.912 56.877 115.195C57.4486 115.359 58.2573 115.307 58.2573 114.623C58.2573 112.694 57.7605 110.551 57.2766 108.684C56.8002 106.847 55.9126 105.196 55.2787 103.417C54.687 101.756 53.9949 99.9001 52.9539 98.4588C51.9313 97.0428 50.8674 95.2088 49.267 94.4086C48.3327 93.9414 48.9345 94.9353 47.9412 94.9353C46.9263 94.9353 45.5809 94.8453 44.7809 95.5982C44.0933 96.2454 44.1584 97.3748 44.2088 98.2317C44.3852 101.23 48.3066 104.663 51.2285 105.034C52.8777 105.243 54.3343 104.848 54.3343 103.072C54.3343 101.275 54.3742 99.474 54.3343 97.6778C54.3233 97.1839 54.0934 96.2934 54.5341 97.2237C54.7831 97.7494 54.6818 97.9594 54.1708 97.5507" stroke="white" stroke-width="10.0695" stroke-linecap="round"/>
<path d="M55.6411 78.2635C56.136 78.2016 56.4656 76.8357 56.7036 76.4654C57.1441 75.7801 57.8177 75.1881 58.2202 74.5039C58.4431 74.1248 59.7954 72.5763 59.4007 72.3789" stroke="white" stroke-width="10.0695" stroke-linecap="round"/>
<path d="M14.9401 131.062C14.9401 127.865 14.9401 124.669 14.9401 121.472C14.9401 115.776 16.0622 110.304 18.291 105.072C19.4038 102.459 20.2403 99.7678 21.2787 97.1347C21.7944 95.8272 22.6227 94.3367 22.6227 92.9029C22.6227 91.9091 22.0446 91.252 20.9518 91.7042C20.0603 92.0731 19.4804 93.6336 19.1537 94.483C18.4526 96.306 16.5209 97.5068 15.3941 99.0236C14.0242 100.868 12.5584 102.497 11.5165 104.581C10.5443 106.526 9.9269 109.012 9.54589 111.138C9.07796 113.748 8.72858 116.273 8.72858 118.939C8.72858 120.931 8.80214 123.099 10.0363 124.778C10.4686 125.366 11.0052 125.672 11.5891 126.076C11.7427 126.183 11.9287 126.271 12.0614 126.403C12.3066 126.648 12.394 127.543 11.8888 125.495C10.4103 119.502 8.91196 113.513 7.4209 107.524" stroke="white" stroke-width="10.0695" stroke-linecap="round"/>
<path d="M7.58447 108.83C7.58447 107.211 7.66862 105.272 8.73778 103.935C9.98407 102.377 11.3516 100.769 12.9787 99.5944C14.6493 98.3878 16.3545 97.0959 17.9642 95.8439C19.3646 94.7546 20.6029 97.7131 20.9065 98.5228C22.7885 103.541 24.6378 109.646 23.2767 115.005C22.9022 116.48 22.7882 118.011 22.2596 119.455C21.7436 120.864 21.0724 122.071 20.3707 123.378C19.9811 124.103 19.5014 124.61 18.9359 125.176C18.4691 125.643 18.6864 126.011 18.2094 125.176" stroke="white" stroke-width="10.0695" stroke-linecap="round"/>
<path d="M14.9398 173.397C14.9398 171.372 14.0467 169.364 13.9681 167.322C13.9032 165.634 13.7956 163.974 13.7956 162.282C13.7956 158.327 13.3125 153.952 14.1588 150.059C14.7556 147.313 15.5384 144.675 16.4473 142.049C16.6106 141.577 16.8778 140.827 16.7288 140.306C16.5547 139.696 14.5531 142.448 14.3677 142.757C12.4469 145.959 10.4597 149.4 9.30949 152.956C8.9886 153.947 8.52889 154.893 8.31965 155.916C8.07429 157.116 8.04339 158.374 7.74754 159.558C7.36212 161.099 7.37187 163.254 8.16527 164.652C9.67209 167.307 11.7367 169.686 12.9783 172.48C13.411 173.454 13.959 176.588 13.959 175.522" stroke="white" stroke-width="10.0695" stroke-linecap="round"/>
<path d="M16.084 172.09C16.084 171.06 16.2106 169.923 16.9013 169.112C17.8258 168.025 19.0766 166.991 20.0978 165.969C20.9548 165.113 21.5218 163.807 22.0503 162.709C22.1207 162.563 22.8491 161.525 22.5861 161.919C21.9396 162.889 21.2732 163.834 20.6064 164.789C19.7702 165.986 19.1387 167.597 18.5722 168.948C18.2484 169.72 17.7186 170.817 17.7186 171.682C17.7186 171.935 17.9343 172.02 18.1272 171.827C18.6981 171.256 18.9898 170.263 19.3532 169.557C20.0351 168.231 20.6556 166.797 21.1513 165.388C22.0807 162.747 23.3101 160.228 23.5941 157.388C23.795 155.379 23.6787 153.237 23.1491 151.331C22.7055 149.734 22.0223 148.121 21.2421 146.672C20.8265 145.9 20.7867 144.985 20.007 144.465" stroke="white" stroke-width="10.0695" stroke-linecap="round"/>
<path d="M71.1157 129.445C71.1157 128.661 71.1615 127.888 70.9707 127.125" stroke="white" stroke-width="10.0695" stroke-linecap="round"/>
<path d="M54.7329 102.621C55.165 102.621 55.4749 102.681 55.8203 102.412C56.0075 102.266 56.5975 102.031 56.3278 101.896" stroke="white" stroke-width="10.0695" stroke-linecap="round"/>
<path d="M69.3749 126.692C69.3749 125.398 69.0651 124.627 68.4728 123.502C68.2386 123.057 68.1941 122.411 68.07 121.915C67.9718 121.522 67.6822 121.127 67.5223 120.747C67.4231 120.511 67.3609 120.441 67.2001 120.24C66.8512 119.803 67.8981 120.226 68.07 120.312C69.2363 120.895 70.3384 121.377 71.5579 121.834C73.2726 122.477 75.2345 122.341 76.987 122.849C79.8192 123.672 82.4396 124.844 84.9534 126.41C88.1654 128.411 90.8083 131.137 92.2755 134.658C92.8894 136.132 93.4825 137.72 93.9107 139.258C94.1911 140.265 94.5758 141.527 94.6034 142.576C94.6623 144.813 92.544 144.465 90.9142 144.203C88.1762 143.763 85.5901 142.976 82.8913 142.351C79.9322 141.665 77.1002 140.883 74.5141 139.225C72.3095 137.812 71.2131 135.426 70.4624 133.007C70.2191 132.223 70.4095 131.436 70.2127 130.671C70.1656 130.488 69.8961 130.262 69.9871 130.606C70.1205 131.11 70.5595 131.645 70.8571 132.056C72.6952 134.597 74.9181 136.922 76.8984 139.354C78.4774 141.294 80.1394 143.016 82.1342 144.526C83.6866 145.7 85.2505 146.161 87.1847 145.967C87.5712 145.929 87.7957 145.505 87.9338 145.186C88.1228 144.749 88.0788 144.24 88.0788 143.776C88.0788 142.377 88.1278 140.973 87.8291 139.596C87.183 136.618 86.0295 133.841 83.7291 131.799C82.9603 131.116 81.9589 130.1 81.0306 129.656C80.1019 129.212 78.5944 128.517 77.8569 127.779C77.1605 127.083 77.6786 129.079 77.7361 129.269C78.5705 132.025 79.4081 134.831 81.2803 137.083C82.0268 137.98 83.2654 138.146 84.3735 138.146C85.2729 138.146 85.4905 137.911 85.5817 136.986C85.7486 135.293 84.1904 133.828 83.2135 132.628C81.4503 130.463 79.7157 128.257 77.8328 126.192C76.7066 124.958 75.1641 124.361 74.0147 123.212C73.8017 122.999 72.3107 120.995 73.0078 120.763C74.1205 120.392 75.1982 120.98 76.0365 121.609C77.7019 122.858 80.0548 123.15 81.8281 124.283C83.5725 125.398 85.3836 126.386 87.1364 127.489C87.4507 127.687 90.2779 129.673 90.2537 129.044C90.2237 128.266 88.6227 127.536 88.0788 127.191C87.1316 126.591 86.1852 125.847 85.324 125.129C84.1568 124.156 82.9279 123.417 81.6911 122.551C81.0157 122.079 80.2908 122.153 79.5243 122.044C79.1259 121.987 78.7745 121.907 78.3644 121.907C77.8871 121.907 77.9294 121.79 77.9294 121.327" stroke="white" stroke-width="10.0695" stroke-linecap="round"/>
<path d="M73.2906 128.43C73.2906 126.257 73.6618 123.728 72.9684 121.648C72.8537 121.304 72.3247 120.844 72.0984 120.536C71.7481 120.059 71.5943 119.585 70.9707 119.585" stroke="white" stroke-width="10.0695" stroke-linecap="round"/>
<path d="M86.3398 135.679C87.4313 136.862 88.3291 138.32 89.3122 139.602C90.0354 140.545 90.8549 141.79 91.8173 142.494C92.4706 142.971 93.185 143.892 93.7263 144.524C94.0373 144.886 94.4751 145.879 94.6043 145.104" stroke="white" stroke-width="10.0695" stroke-linecap="round"/>
<path d="M121.717 168.304C121.344 167.819 121.147 167.195 120.815 166.677C120.062 165.5 119.122 164.439 118.31 163.302C117.062 161.555 115.74 159.772 114.307 158.171C113.367 157.121 112.509 156.228 111.358 155.4C110.607 154.859 109.72 154.518 108.99 153.95C107.797 153.022 106.56 152.164 105.301 151.34C105.178 151.26 104.352 150.914 104.326 150.825C104.258 150.586 104.101 150.434 103.883 150.325" stroke="white" stroke-width="10.0695" stroke-linecap="round"/>
<path d="M103.883 150.325C106.491 150.325 108.958 151.348 111.568 151.485C112.742 151.547 113.868 152.169 114.903 152.677C116.029 153.23 117.375 153.819 118.39 154.53C120.565 156.052 122.421 157.434 124.005 159.605C125.403 161.521 126.575 163.588 127.291 165.839C127.55 166.651 127.444 167.576 127.67 168.369C127.903 169.186 128.67 167.48 128.677 167.144C128.719 164.956 128.313 162.576 126.727 160.99C126.207 160.47 125.704 159.876 125.205 159.315C124.572 158.602 123.897 157.552 123.135 156.995C122.281 156.371 122.118 155.98 120.992 155.98C120.19 155.98 119.421 156.535 118.656 156.705C117.064 157.059 115.425 157.244 113.815 157.494C111.165 157.906 108.213 158.795 106.09 156.673C105.876 156.458 105.824 156.179 105.655 155.948C105.628 155.91 105.63 155.457 105.51 155.577C104.933 156.155 106 158.698 106.123 159.242C106.979 163.057 108.533 167.41 111.826 169.867C113.305 170.971 114.612 172.016 116.32 172.767C118.073 173.537 119.861 174.122 121.709 174.611C123.682 175.133 125.841 175.439 127.839 174.796C128.502 174.583 130.069 174.47 130.264 173.596C130.371 173.113 130.08 172.987 129.99 172.581C129.892 172.14 129.953 171.886 129.692 171.494" stroke="white" stroke-width="10.0695" stroke-linecap="round"/>
<path d="M129.547 171.929C129.547 173.42 129.773 174.556 130.417 175.843" stroke="white" stroke-width="10.0695" stroke-linecap="round"/>
<path d="M13.2888 22.1488C13.2888 22.2055 13.2888 21.2384 13.2888 20.9652C13.2888 19.8996 13.6804 18.9065 14.0378 17.9137C14.3445 17.0618 15.0003 16.3828 15.3601 15.565C15.8398 14.4749 16.3234 13.3964 16.7009 12.2638C16.9438 11.5352 17.2897 10.8566 17.6164 10.1648C17.9183 9.5255 17.7828 8.69018 17.7828 8.00101C17.7828 6.99582 17.4636 6.89578 16.4513 7.00234C15.4752 7.10509 14.9668 9.17246 14.4539 9.8319C12.2053 12.7229 10.1461 15.9411 8.22152 19.0603C7.19845 20.7184 6.57724 22.5953 6.29816 24.516C5.85194 27.5871 6.39823 29.98 8.09206 32.5978C9.25472 34.3946 10.8076 36.0153 12.5306 37.2952C13.169 37.7694 13.9663 38.2939 14.7868 38.2939" stroke="white" stroke-width="10.0695" stroke-linecap="round"/>
<path d="M12.9557 27.4755C12.9557 24.5524 13.4767 21.1449 11.7074 18.5892C11.3801 18.1165 10.9071 17.7334 10.5515 17.2484C10.2586 16.849 9.92926 16.2994 9.54362 15.9909C9.36021 15.8441 9.26368 15.3818 9.1645 15.1586C8.91454 14.5962 9.08854 14.6212 9.4604 14.4559C10.3266 14.0709 11.1119 14.0703 11.9571 14.4929" stroke="white" stroke-width="10.0695" stroke-linecap="round"/>
<path d="M17.3149 8.75635C17.3817 9.179 17.7195 9.46443 17.9739 9.78892C18.3171 10.2268 18.629 10.6863 18.9462 11.1429C19.8848 12.4941 20.8163 13.843 21.4934 15.3495C22.1843 16.8867 22.283 18.6632 21.7666 20.2593C21.3329 21.5999 21.0441 23.1097 20.3765 24.3534C19.6697 25.6702 18.8561 26.9672 18.006 28.1984C17.6277 28.7463 17.251 29.2644 16.6641 29.5845" stroke="white" stroke-width="10.0695" stroke-linecap="round"/>
<path d="M21.7245 18.1587C21.7839 18.4161 21.9957 18.6157 22.1424 18.8256C22.4682 19.2922 22.6866 19.8774 22.8977 20.4006C23.1794 21.0987 23.1844 21.811 23.3477 22.5341C23.5897 23.6059 23.395 24.9529 23.1629 25.9974C22.8418 27.4422 22.2226 29.0726 21.2745 30.2362C20.8394 30.7701 20.3674 31.2502 19.8442 31.6986C19.447 32.0391 19.0646 32.4016 18.671 32.7473C18.3939 32.9906 18.0341 33.2339 17.7951 33.5147C17.4046 33.9735 16.9664 34.8046 16.7264 35.2503C15.6539 37.2422 15.1496 38.3413 14.0586 40.4333" stroke="white" stroke-width="10.0695" stroke-linecap="round"/>
<path d="M20.7121 33.9961C20.7121 34.6467 20.0505 35.1747 19.772 35.7318" stroke="white" stroke-width="10.0695" stroke-linecap="round"/>
<path d="M90.9583 44.5464C90.9441 44.6602 90.7931 44.6216 90.7077 44.6216C90.1135 44.6216 89.5704 44.7882 89.0036 44.9557C87.0142 45.5438 85.0219 46.1812 83.1936 47.182C80.7034 48.545 78.417 50.3134 76.2559 52.1441C74.1154 53.9572 72.0982 56.2486 69.5729 57.5113C69.1542 57.7206 68.7151 57.9434 68.3282 58.1921C67.9105 58.4607 67.5498 59.1058 67.2339 59.5078C66.9523 59.8661 66.3309 60.7216 65.8472 60.5604" stroke="white" stroke-width="10.0695" stroke-linecap="round"/>
<path d="M65.8461 60.5588C65.8461 60.1273 65.8408 59.6954 65.8461 59.264C65.8557 58.491 66.1715 57.7292 66.4977 57.0377C67.2586 55.4246 67.7876 53.6881 68.8117 52.2135C70.6445 49.5742 72.2435 46.6276 74.6342 44.4362C75.8954 43.2801 77.4617 42.3677 78.8779 41.4038C80.3687 40.389 81.9251 39.6674 83.6812 39.282C85.0764 38.9757 86.6057 38.7557 88.0335 38.7557C89.1227 38.7557 90.3311 38.7576 91.4084 38.5886C91.9591 38.5022 92.4962 38.3046 93.0624 38.3046C93.2854 38.3046 93.461 38.1655 93.6639 38.1542C93.8217 38.1454 93.9984 38.1843 94.1526 38.15C94.3025 38.1167 94.4066 38.0884 94.5661 38.079C94.6517 38.074 94.7518 37.937 94.8292 37.937C94.9203 37.937 94.4981 38.347 94.4742 38.3798C94.1516 38.8219 94.0304 39.417 93.8518 39.9252C93.3334 41.4007 92.9971 42.9122 92.7157 44.4487C92.3547 46.4204 91.4734 48.0714 90.2389 49.628C88.0641 52.3701 85.182 54.7938 81.9938 56.2817C80.041 57.193 78.1376 57.967 76.046 58.5121C75.0001 58.7847 73.9751 59.0372 72.9008 59.1679C72.1083 59.2643 71.2794 59.2961 70.5242 59.5814C70.1058 59.7395 70.2067 59.9985 70.2067 60.4084C70.2067 60.9929 70.7127 61.2354 71.276 61.2354C72.3897 61.2354 73.4688 60.9347 74.5715 60.9347C75.9803 60.9347 77.4957 60.7194 78.7901 60.1369C79.9574 59.6117 80.982 58.9529 82.0857 58.32C83.1627 57.7024 84.1648 57.0262 85.093 56.194C86.6835 54.768 88.2779 53.4038 89.5622 51.6914C90.0959 50.9797 90.5175 50.1935 91.0325 49.4693C91.5858 48.6911 92.0846 47.7856 92.4275 46.8922C92.8399 45.8179 93.4049 44.7132 94.2653 43.9433C94.3588 43.8597 94.6315 43.8027 94.4491 43.9851C94.1652 44.269 93.8247 44.4138 93.572 44.7453C92.8957 45.6322 92.4617 46.7591 91.9347 47.7401C91.2883 48.943 90.5618 50.0948 89.8128 51.2361C88.7978 52.7828 87.7485 54.344 86.6551 55.839C86.2521 56.3901 85.76 56.851 85.3144 57.3635C85.2725 57.4117 84.7118 58.0026 85.0345 58.0026C85.2938 58.0026 85.5076 57.8656 85.7112 57.7185C86.4908 57.1555 87.1031 56.4068 87.7829 55.7345C88.9446 54.5857 90.1325 53.5375 91.1077 52.2135C91.7181 51.3845 92.1285 50.4782 92.3482 49.4776C92.436 49.0777 92.5941 48.7787 92.461 48.3791" stroke="white" stroke-width="10.0695" stroke-linecap="round"/>
<path d="M124.34 13.4204C123.864 13.4204 123.385 13.7324 122.995 13.9634C121.386 14.9167 119.848 15.9962 118.284 17.0208C116.719 18.0457 115.191 19.1423 113.681 20.2454C112.4 21.1807 111.246 22.2794 110.03 23.2945C109.08 24.0877 108.118 24.7833 107.081 25.4497C106.461 25.8484 105.783 26.099 105.127 26.4271C104.487 26.7469 103.797 27.0388 103.23 27.4797C103.047 27.6224 102.556 27.8172 102.445 28.0059C102.314 28.2289 101.793 28.5657 101.56 28.6826" stroke="white" stroke-width="10.0695" stroke-linecap="round"/>
<path d="M101.559 28.682C101.559 27.5063 101.402 26.2538 101.86 25.1484C102.537 23.5168 103.308 21.7457 104.421 20.3701C106.563 17.7198 108.828 15.0413 111.433 12.8351C111.912 12.4299 112.382 12.0018 112.879 11.6196C113.33 11.2722 113.875 11.059 114.324 10.7132C114.372 10.676 114.845 10.2419 114.612 10.1953C113.788 10.0305 112.904 10.7362 112.248 11.1226C110.031 12.429 108.217 14.1302 106.417 15.9301C106.349 15.998 106.064 16.2523 106.07 16.0178C106.086 15.4635 106.679 14.8799 107.006 14.4849C108.339 12.8732 110.115 11.5463 111.801 10.3373C114.018 8.74759 116.519 6.90318 119.378 6.80788C122.79 6.69412 126.186 6.42778 129.603 6.42778C129.697 6.42778 130.129 6.25629 130.129 6.42778C130.129 6.60882 129.848 6.71853 129.757 6.84964C129.393 7.37314 129.214 8.19525 129.081 8.80441C128.727 10.4165 128.35 12.0073 127.878 13.5911C127.422 15.1169 126.545 16.4321 125.484 17.5967C124.602 18.5648 123.65 19.6488 122.594 20.4286C121.574 21.1814 120.717 22.1493 119.645 22.8428C117.963 23.9313 116.081 24.8285 114.249 25.6245C112.433 26.4134 110.464 27.0032 108.531 27.4373C108.158 27.521 107.787 27.6404 107.407 27.6879C106.967 27.7429 106.519 27.6688 106.079 27.7088C105.568 27.7552 105.521 27.8991 106.012 28.0805C106.415 28.2295 106.852 28.2574 107.236 28.4564C107.553 28.621 107.94 28.8338 108.292 28.8908C108.929 28.9938 109.551 28.9827 110.197 28.9827C112.116 28.9827 114.078 28.3672 115.736 27.4373C117.882 26.2332 119.923 24.8896 121.75 23.2312C122.443 22.6025 123.237 22.1111 123.931 21.4811C124.227 21.2115 124.518 20.9316 124.808 20.6541C124.965 20.5028 125.43 20.0401 125.271 20.1905C123.648 21.7297 122.092 23.3476 120.506 24.9228" stroke="white" stroke-width="10.0695" stroke-linecap="round"/>
<path d="M118.325 25.3747C118.652 25.3747 118.978 25.3869 119.302 25.3329C120.036 25.2106 120.533 24.6182 121.148 24.2511C122.335 23.5431 123.485 22.7989 124.632 22.0248C125.474 21.4566 126.385 20.8945 127.063 20.1202C127.387 19.7501 129.386 17.5746 128.399 17.1797" stroke="white" stroke-width="10.0695" stroke-linecap="round"/>
</g>
<defs>
<clipPath id="clip0_205_4351">
<rect width="137.074" height="183.091" fill="white"/>
</clipPath>
</defs>
</svg>
