<svg width="264" height="353" viewBox="0 0 264 353" fill="none" xmlns="http://www.w3.org/2000/svg">
<g style="mix-blend-mode:darken" clip-path="url(#clip0_205_5523)">
<rect width="262.614" height="352.888" transform="translate(0.751953 0.0849609)" fill="white"/>
<path d="M42.3913 175.512C65.6036 145.793 126.032 104.754 181.212 175.606" stroke="black" stroke-width="5.19115"/>
<path d="M42.4197 172.533C65.5817 200.33 125.441 239.128 180.722 171.942" stroke="black" stroke-width="5.19115"/>
<path d="M63.8571 309.108C87.0694 279.389 147.497 238.35 202.678 309.202" stroke="black" stroke-width="5.19115"/>
<path d="M63.8851 306.131C87.047 333.928 146.906 372.726 202.187 305.54" stroke="black" stroke-width="5.19115"/>
<path d="M63.8576 41.9142C87.0699 12.1951 147.498 -28.8435 202.679 42.0083" stroke="black" stroke-width="5.19115"/>
<path d="M63.8851 38.9351C87.047 66.7319 146.906 105.53 202.187 38.344" stroke="black" stroke-width="5.19115"/>
<path d="M259.253 245.296C220.136 250.932 146.149 240.034 161.617 153.838" stroke="black" stroke-width="5.19115"/>
<path d="M256.932 247.371C261.936 212.558 249.543 145.842 159.137 156.736" stroke="black" stroke-width="5.19115"/>
<path d="M102.829 336.255C63.7119 341.89 -10.2752 330.992 5.19342 244.796" stroke="black" stroke-width="5.19115"/>
<path d="M100.511 338.33C105.515 303.517 93.122 236.802 2.71575 247.696" stroke="black" stroke-width="5.19115"/>
<path d="M256.173 94.6427C217.056 100.278 143.069 89.3804 158.538 3.18419" stroke="black" stroke-width="5.19115"/>
<path d="M253.857 96.7193C258.861 61.9063 246.468 -4.8093 156.062 6.08503" stroke="black" stroke-width="5.19115"/>
<path d="M6.70618 96.8307C1.5299 60.4576 14.9938 -7.84198 107.618 8.47999" stroke="black" stroke-width="5.19115"/>
<path d="M4.52482 94.6429C41.9629 100.083 114.217 90.1407 104.552 6.12516" stroke="black" stroke-width="5.19115"/>
<path d="M255.628 244.654C263.125 280.679 254.059 349.598 160.552 338.401" stroke="black" stroke-width="5.19115"/>
<path d="M257.954 246.716C220.234 243.345 148.744 257.245 163.774 340.581" stroke="black" stroke-width="5.19115"/>
<path d="M252.56 93.9995C260.057 130.024 250.992 198.944 157.485 187.746" stroke="black" stroke-width="5.19115"/>
<path d="M254.883 96.0626C217.163 92.6921 145.674 106.592 160.703 189.927" stroke="black" stroke-width="5.19115"/>
<path d="M112.475 173.212C126.977 173.212 141.402 173.801 155.886 174.455C162.013 174.732 168.663 175.384 174.261 172.491C184.916 166.986 193.834 157.838 201.834 149.095C202.78 148.062 203.726 146.639 204.321 145.365C204.601 144.765 200.708 147.503 200.417 147.777C193.371 154.409 190.403 165.783 188.756 174.953C187.669 181.008 188.78 185.978 192.933 190.592C194.241 192.045 191.852 190.583 191.441 190.045C189.194 187.1 187.861 183.24 186.32 179.901C184.11 175.112 183.014 169.171 180.054 164.808C179.132 163.45 177.5 163.814 176.051 163.814C174.596 163.814 175.131 165.469 175.131 166.599C175.131 169.181 177.277 168.494 179.532 169.532C182.946 171.104 185.988 173.315 189.253 175.152C192.091 176.748 195.165 177.893 197.956 179.577C201.365 181.635 204.153 184.498 206.907 187.335C213.112 193.728 219.856 200.097 224.535 207.748C228.282 213.874 228 219.298 228.488 226.023C228.662 228.417 228.93 235.452 231.522 236.316" stroke="black" stroke-width="27.1421" stroke-linecap="round"/>
<path d="M61.4561 282.861C61.9539 283.94 63.1647 284.71 64.0419 285.447C66.305 287.349 68.4071 289.423 70.6556 291.34C74.3162 294.46 78.2391 297.499 82.1426 300.316C90.1149 306.069 100.862 308.104 110.338 309.664C118.807 311.059 128.182 310.292 136.693 309.714C153.586 308.567 170.757 306.666 186.271 299.57C195.5 295.349 204.662 290.607 213.298 285.273C214.563 284.492 216.754 283.687 216.754 281.966" stroke="black" stroke-width="27.1421" stroke-linecap="round"/>
<path d="M40.1699 68.7457C53.8638 58.6555 69.4474 51.1462 84.2145 42.8071C97.4391 35.3391 112.276 33.0046 127.124 31.0581C134.299 30.1174 141.338 29.4407 148.579 29.4121C155.164 29.386 162.1 28.8416 168.643 29.7526C172.224 30.2513 175.664 31.6065 179.001 32.9311C185.457 35.4941 192.628 38.051 198.299 42.1827C201.996 44.8761 205.871 48.4428 208.771 51.9736C219.688 65.2636 229.102 78.5867 232.95 95.7911C235.736 108.247 232.897 119.023 226.849 130.102C220.844 141.101 213.218 151.564 203.634 159.673" stroke="black" stroke-width="27.1421" stroke-linecap="round"/>
<path d="M235.816 233.743C235.816 244.027 237.359 255.213 232.921 264.761C227.745 275.899 218.901 285.205 208.742 291.977" stroke="black" stroke-width="27.1421" stroke-linecap="round"/>
<path d="M101.695 168.313C101.531 169.62 94.4281 168.892 93.143 168.892C89.6345 168.892 85.4476 170.059 82.148 171.206C79.4369 172.149 76.7499 173.035 74.0463 173.971C71.8908 174.717 70.6102 176.993 68.1309 176.993" stroke="black" stroke-width="18.9995" stroke-linecap="round"/>
<path d="M61.6972 170.248C60.0181 170.248 58.4125 170.379 57.0985 171.561C56.8399 171.794 54.6231 173.511 55.7845 172.737" stroke="black" stroke-width="18.9995" stroke-linecap="round"/>
<path d="M55.7842 172.738C58.0303 172.738 59.3777 170.646 61.0053 169.315C63.4233 167.336 65.2263 164.575 67.6267 162.624C71.5613 159.427 76.1746 157.978 80.5412 155.449C87.2382 151.572 94.8019 149.232 102.446 148.015C107.2 147.259 112.272 146.352 117.089 146.287C122.048 146.22 126.633 147.532 131.369 148.932C135.569 150.173 140.255 152.009 144.145 154.084C146.097 155.125 148.725 156.277 150.317 157.87C151.016 158.569 149.885 158.423 149.453 158.423C147.112 158.423 145.143 158.057 142.918 157.334C138.846 156.011 135.066 155.528 130.747 155.38C124.033 155.151 117.064 154.949 110.381 155.692C104.49 156.346 98.6524 157.555 92.8159 158.561C90.3666 158.984 86.9253 159.328 84.7423 160.601C82.4379 161.946 80.123 162.869 78.0171 164.578C75.2108 166.855 72.4781 169.093 69.5112 171.147C68.6357 171.753 67.3078 172.22 66.6759 173.118C66.4139 173.49 66.1408 173.994 66.0708 174.449C66.0076 174.86 66.1073 174.876 66.4338 175.366C68.3706 178.271 70.7478 180.891 72.8997 183.63" stroke="black" stroke-width="18.9995" stroke-linecap="round"/>
<path d="M68.5412 175.227C68.1926 175.327 72.9808 181.764 68.0744 179.584C66.617 178.936 66.4709 179.273 68.0744 179.273C70.085 179.273 67.2978 178.348 66.7432 177.405C66.3995 176.821 64.1303 176.741 64.8069 176.783C65.8996 176.851 67.2387 177.825 68.0571 178.495C69.6045 179.761 71.6059 180.767 73.3819 181.762C76.2272 183.355 79.943 184.959 83.1672 185.496" stroke="black" stroke-width="18.9995" stroke-linecap="round"/>
<path d="M63.251 175.85C63.251 182.079 70.2915 183.36 75.0071 184.183C78.0253 184.71 81.6263 185.54 84.2737 187.053C85.7921 187.921 87.7185 187.965 89.4602 187.987C90.7348 188.002 94.3701 189.092 94.3701 187.364" stroke="black" stroke-width="18.9995" stroke-linecap="round"/>
<path d="M71.3433 175.227C71.3433 181.219 78.4334 184.761 82.2868 188.366C83.519 189.519 85.1108 190.183 86.4188 191.253C86.8544 191.61 88.4211 192.965 87.9056 192.965C85.79 192.965 83.4994 191.859 81.9238 190.458C80.1642 188.894 78.2323 188.008 76.2013 186.914C75.9036 186.754 73.8353 186.43 75.1121 186.43C79.1637 186.43 83.2199 186.354 87.2659 186.603C94.1025 187.023 101.739 188.926 108.461 186.879C111.807 185.861 116.252 184.444 118.005 181.157C120.067 177.29 112.592 177.002 110.259 177.613C108.721 178.016 107.557 179.132 106.3 180.033C104.657 181.212 102.858 182.14 101.097 183.128C97.8156 184.968 94.428 186.229 91.4324 188.626C90.281 189.547 88.6463 191.744 88.4761 193.276C88.2463 195.344 90.7012 195.939 92.2104 196.855C94.9451 198.515 97.2623 198.878 100.422 198.878C108.074 198.878 115.802 198.201 123.312 196.699C131.508 195.06 138.557 190.908 145.58 186.568C148.928 184.499 152.011 182.028 155.469 180.102C155.832 179.9 159.514 177.648 159.964 178.097C160.699 178.832 154.919 181 154.57 181.14C152.252 182.067 150.256 183.126 148.069 184.252C143.341 186.685 138.492 189.01 133.962 191.789C132.57 192.644 131.39 193.326 133.651 193.276C135.951 193.225 138.279 192.153 140.428 191.409C143.287 190.419 146.352 189.995 148.899 188.297C150.312 187.355 151.812 186.569 153.187 185.566C154.652 184.496 155.365 184.789 155.365 182.696" stroke="black" stroke-width="18.9995" stroke-linecap="round"/>
<path d="M182.436 162.158C182.436 158.585 182.559 154.991 182.419 151.422C182.373 150.264 182.502 146.867 181.261 146.149C179.421 145.083 176.961 145.718 175.624 147.203C173.664 149.382 172.296 152.133 170.3 154.24C169.279 155.317 169.357 153.297 169.366 152.753C169.407 150.231 170.386 148.318 171.475 146.114C173.083 142.862 173.725 139.455 175.746 136.346C177.606 133.484 180.255 131.129 182.92 129.016C186.985 125.792 190.951 122.03 195.506 119.524C198.293 117.991 200.55 115.722 203.39 114.269C205.77 113.051 208.348 112.292 210.772 111.122C212.812 110.138 214.942 109.371 216.978 108.391C217.746 108.021 218.892 107.926 219.537 107.457C219.662 107.367 220.056 107.324 220.056 107.561C220.056 108.052 218.919 108.652 218.603 108.875C216.292 110.504 213.914 111.97 212.068 114.165C207.455 119.655 203.026 125.482 198.774 131.246C198.35 131.821 191.772 141.863 191.945 141.913C194.649 142.686 194.261 145.05 194.261 147.705C194.261 153.863 194.159 159.9 199.482 163.956C202.175 166.007 204.938 167.978 207.643 170.007C209.166 171.149 211.73 171.674 213.624 171.113C215.361 170.598 216.719 168.762 218.068 167.621C219.857 166.107 221.876 164.587 223.358 162.763C225.214 160.478 227.556 158.58 229.357 156.245C231.092 153.996 232.527 151.564 234.025 149.157C234.775 147.952 235.543 146.705 236.082 145.388C237.049 143.024 234.767 146.393 234.422 146.909C231.908 150.681 229.269 154.435 227.403 158.596C227.014 159.464 223.362 163.915 223.859 164.785C224.364 165.668 226.589 164.285 226.954 163.973C228.723 162.456 229.849 160.423 230.792 158.32C232.918 153.577 234.688 148.572 236.583 143.728C237.925 140.299 238.728 136.694 239.851 133.2C241.314 128.648 241.696 123.942 242.825 119.334C243.093 118.237 243.333 117.138 243.568 116.032C243.572 116.013 243.879 114.623 243.983 114.753C244.779 115.748 243.52 118.65 243.188 119.559C241.486 124.207 241.896 129.453 240.94 134.289C240.179 138.139 239.429 141.932 238.52 145.734C238.19 147.113 237.206 151.313 237.206 147.532" stroke="black" stroke-width="18.9995" stroke-linecap="round"/>
<path d="M245.299 102.408C245.299 105.729 245.611 115.687 245.611 112.366" stroke="black" stroke-width="18.9995" stroke-linecap="round"/>
<path d="M164.7 41.4155C164.7 48.8182 167.435 55.4181 173.067 60.4328C176.466 63.4589 179.704 65.1631 183.89 66.8122C186.908 68.001 190.159 69.411 193.329 70.0451" stroke="black" stroke-width="18.9995" stroke-linecap="round"/>
<path d="M168.124 31.7676C168.124 34.85 171.994 38.2225 173.725 40.4118C178.121 45.969 183.137 51.0439 187.867 56.3171C190.451 59.1972 193.283 61.7516 196.079 64.4081C196.865 65.1541 197.687 66.8959 197.687 65.3762" stroke="black" stroke-width="18.9995" stroke-linecap="round"/>
<path d="M182.44 64.7539C181.603 64.8585 184.861 68.7478 185.171 69.1106C186.896 71.1272 188.61 73.0167 190.825 74.5391C192.856 75.936 194.816 76.9193 197.135 77.5819C199.583 78.2813 202.068 78.1479 204.517 78.9131C207.637 79.8882 210.394 82.0393 213.559 83.1142C214.923 83.5776 216.635 83.8917 217.846 84.6701C218.599 85.1539 219.343 85.6037 220.249 85.6037C222.774 85.6037 225.431 85.6673 227.874 86.2953C230.235 86.9024 232.065 88.0933 234.547 88.0933C235.486 88.0933 236.426 88.0933 237.365 88.0933C237.814 88.0933 238.086 87.8632 238.454 87.6265C240.48 86.3243 242.423 87.3721 244.678 87.7821" stroke="black" stroke-width="18.9995" stroke-linecap="round"/>
<path d="M234.717 69.1115C234.902 70.7802 237.798 73.1075 238.866 74.1943C239.78 75.1239 240.94 76.6275 240.94 77.9804C240.94 80.2506 241.716 81.965 242.808 83.8758C243.319 84.7707 244.925 83.6318 245.159 83.0978C246.037 81.0917 245.92 79.297 245.92 77.1333C245.92 72.0053 243.867 67.09 243.05 62.0232C242.535 58.833 240.655 56.2852 239.696 53.3099C238.92 50.904 237.122 48.2651 235.789 46.0833C232.862 41.2938 230.368 36.2346 225.692 32.8577C223.568 31.3234 221.45 29.9765 219.399 28.3454C217.483 26.8211 215.366 26.0436 213.365 24.7494C210.008 22.5771 206.371 21.3852 202.647 20.0816C194.518 17.2365 186.395 14.3418 177.699 14.3418C174.455 14.3418 171.429 14.3006 168.277 14.9642C166.509 15.3364 162.075 16.7329 161.604 18.8541C161.386 19.835 170.437 22.86 171.216 23.2108C177.935 26.2342 184.268 29.3252 190.527 33.2553C193.216 34.9434 196.072 36.3155 198.688 38.1307C201.778 40.2758 204.629 43.0451 207.487 45.4955C210.876 48.4 214.258 51.3104 217.653 54.2089C220.725 56.8311 224.177 59.2779 226.764 62.4036C227.279 63.0262 230.915 68.4832 232.054 67.8321C233.931 66.7598 223.221 53.8448 222.269 52.6183C219.365 48.8783 216.635 44.8777 213.002 41.7958C211.112 40.1918 209.053 38.8134 207.176 37.2144C205.486 35.7742 203.227 34.5104 201.73 33.0133" stroke="black" stroke-width="18.9995" stroke-linecap="round"/>
<path d="M26.8427 70.356C26.5986 72.7963 22.3075 75.8624 20.7744 77.5134C19.8557 78.5027 18.7046 79.4081 18.0602 80.6253C17.5264 81.6335 16.2781 82.5144 15.9683 83.5989C15.774 84.2788 15.013 85.9177 14.395 86.2267" stroke="black" stroke-width="18.9995" stroke-linecap="round"/>
<path d="M14.0859 86.2265C14.0859 85.2353 14.0859 84.2441 14.0859 83.2529C14.0859 80.8225 14.7017 78.9157 15.3307 76.5796C16.1846 73.4078 17.0744 70.3843 18.2006 67.313C19.37 64.1236 20.5547 60.9447 21.7101 57.7352C22.7864 54.7457 23.9823 51.3398 24.6664 48.2612C25.0539 46.5175 26.2963 44.8632 27.0868 43.2821C27.7394 41.9769 27.3837 42.1521 26.5336 43.1438C24.9772 44.9596 24.0313 46.7307 22.9722 48.849C21.9324 50.9286 21.0033 53.4821 20.3789 55.7298C20.2162 56.3157 18.1314 60.1243 18.1314 58.5305" stroke="black" stroke-width="18.9995" stroke-linecap="round"/>
<path d="M18.1299 58.2191C18.1299 55.9845 18.1348 54.1165 19.3746 52.1681C21.0081 49.6013 22.6545 47.0537 24.3537 44.5267C26.3158 41.6087 29.2149 39.2078 30.8887 36.1245C32.0299 34.0223 34.0784 32.2575 36.179 31.1454C38.9223 29.6931 41.1423 27.419 43.9588 26.0108C45.2827 25.3488 46.4444 24.324 47.6931 23.5213C49.0292 22.6623 50.5859 22.2486 51.8941 21.3429C54.6567 19.4304 57.8918 19.0223 61.057 18.231C66.8918 16.7723 73.3382 16.2083 79.3654 16.2083C84.6469 16.2083 89.9128 15.5859 95.2362 15.5859C99.4142 15.5859 103.592 15.5859 107.77 15.5859C111.026 15.5859 114.643 14.2319 117.867 13.736C120.775 13.2885 123.751 12.7852 126.736 12.7852C133.452 12.7852 140.509 12.0721 146.998 13.8743C148.601 14.3198 150.323 14.3678 151.908 14.8079C152.929 15.0917 154.365 14.6205 155.192 15.4476C155.516 15.7712 153.03 15.5859 152.582 15.5859C149.604 15.5859 146.786 16.5076 144.11 17.7815C134.778 22.2257 124.605 22.7433 114.409 22.7433C100.58 22.7433 85.9708 22.0096 72.7612 26.9271C68.4289 28.5398 64.6934 31.2595 60.7631 33.635C56.8629 35.9922 52.83 38.1026 48.9378 40.4812C43.1856 43.9964 37.6179 49.3707 33.6203 54.796C32.4237 56.4199 31.3595 57.8158 30.2663 59.3947C27.8838 62.8362 25.138 65.8067 23.4201 69.7332C22.4548 71.9398 21.553 74.1413 21.553 76.5621C21.553 77.8722 21.162 79.6998 22.0025 80.7805C22.5615 81.4992 21.9549 82.7317 22.1927 83.5639C22.298 83.9326 24.0391 83.7368 24.371 83.7368C26.1987 83.7368 28.1599 83.5275 29.9724 83.7541C30.8611 83.8652 32.1145 83.9136 32.8942 84.3592C33.9518 84.9635 28.5324 85.904 28.088 85.9151C26.349 85.9586 23.3582 85.6355 21.9333 86.9178C21.3474 87.4452 23.6745 87.1544 24.0425 87.0907C26.4299 86.6775 28.6258 85.1805 31.0789 84.9988C35.9187 84.6403 40.7943 84.6704 45.653 84.6704C46.8604 84.6704 53.7736 84.031 50.1826 82.492" stroke="black" stroke-width="18.9995" stroke-linecap="round"/>
<path d="M39.29 85.915C39.4975 87.5747 54.2016 82.3789 55.5411 81.1779C57.2275 79.6661 59.9737 78.6851 62.007 77.6684C63.4615 76.9411 64.8411 76.012 66.1562 75.0578C74.8806 68.7284 82.9035 61.1011 90.7576 53.7412C92.181 52.4075 92.1737 52.9004 91.5702 51.9951" stroke="black" stroke-width="18.9995" stroke-linecap="round"/>
<path d="M91.5698 51.6842C91.7389 52.5293 93.4433 53.5951 94.0594 54.1045C95.2208 55.065 96.5781 55.8367 97.7937 56.7324C99.7126 58.1463 101.939 58.9777 103.948 60.2246C108.277 62.9114 114.28 63.9179 119.266 64.685C125.972 65.7167 132.919 66.367 139.632 65.3766C143.839 64.7558 148.079 64.6696 152.252 64.0627C155.634 63.5708 158.827 62.6375 162.141 61.8843C164.32 61.3891 165.818 60.9285 165.184 58.3921C164.082 53.9835 159.968 53.6857 156.367 52.3065C151.506 50.445 146.246 49.4826 141.257 48.019C132.475 45.443 123.128 43.9044 113.976 43.9044C110.113 43.9044 106.177 43.6854 102.323 43.9735C100.687 44.0959 98.5063 44.05 96.9292 44.5959C93.6554 45.7292 102.638 48.8763 102.842 48.9526C107.441 50.6774 112.357 51.8446 117.088 53.171C122.357 54.6484 127.985 55.1073 133.442 55.1073C135.866 55.1073 142.605 56.6375 142.605 52.9289" stroke="black" stroke-width="18.9995" stroke-linecap="round"/>
<path d="M41.2002 279.358C36.2584 279.358 30.7804 277.1 26.302 275.214C22.5489 273.634 18.649 272.457 16.3571 268.931C14.9675 266.793 13.4469 264.983 13.4469 262.282C13.4469 260.976 13.6145 259.726 13.0229 258.543C12.743 257.983 11.354 256.169 11.7316 256.327C13.8539 257.211 15.8866 258.375 17.9568 259.41C21.0163 260.94 23.2005 261.665 26.6682 261.665C28.5056 261.665 30.343 261.665 32.1803 261.665C33.2056 261.665 33.7791 261.74 33.2211 260.624" stroke="black" stroke-width="18.9995" stroke-linecap="round"/>
<path d="M17.1924 253.793C16.9799 253.51 18.07 253.633 18.1686 253.634C19.5227 253.646 20.8097 253.874 22.1441 254.077C25.8906 254.649 29.6274 255.44 33.2541 256.553C35.7014 257.304 38.3212 257.718 40.8413 258.186C41.8927 258.381 42.9063 258.638 43.9205 258.976C44.2816 259.096 44.7138 259.336 44.9854 259.064" stroke="black" stroke-width="18.9995" stroke-linecap="round"/>
<path d="M40.9931 258.425C41.6211 258.425 42.0251 258.592 42.5549 258.957C44.088 260.013 45.5971 261.111 47.1161 262.187C50.8799 264.854 54.536 267.648 58.1729 270.484C60.2716 272.121 62.5455 273.522 64.5443 275.285C64.6719 275.398 65.6072 276.139 65.0413 276.155C62.9878 276.213 61.0526 275.743 59.0603 275.267C54.1156 274.087 49.0951 273.614 44.0901 272.818C43.3173 272.695 41.13 272.852 40.5494 272.126C40.337 271.86 42.6511 270.962 42.8477 270.884C45.6737 269.753 48.977 268.124 50.2574 265.187C50.9895 263.507 50.5284 261.785 50.7455 260.049C50.8289 259.381 51.874 260.826 51.9434 260.901C53.6682 262.744 55.891 263.953 57.8534 265.506C61.7025 268.552 65.844 271.116 69.1942 274.77C70.4877 276.181 71.6758 277.618 72.9212 279.065C74.1244 280.464 74.902 282.105 75.9827 283.582C77.1003 285.11 78.026 286.76 79.3282 288.134C79.6876 288.514 80.6527 289.253 81.1739 289.253C81.6081 289.253 83.3214 289.088 83.3214 288.534C83.3214 288.04 82.6602 287.747 82.3719 287.416C81.477 286.387 80.5573 285.385 79.7719 284.265C78.5252 282.489 77.6361 280.414 76.2578 278.746C74.6296 276.776 73.0771 274.705 71.3949 272.783C69.2089 270.284 66.8397 268.041 64.3136 265.897C63.8254 265.482 61.9177 264.548 61.9177 263.856" stroke="black" stroke-width="18.9995" stroke-linecap="round"/>
<path d="M13.5177 268.009C12.9133 268.16 13.505 273.166 13.5532 273.493C14.1006 277.203 15.4592 280.943 16.4816 284.55C18.1474 290.427 20.0137 296.402 24.3793 300.914C28.064 304.721 31.9342 307.658 36.8737 309.699C42.906 312.19 48.9449 315.715 55.5266 316.407" stroke="black" stroke-width="18.9995" stroke-linecap="round"/>
<path d="M19.5874 301.392C19.6613 302.057 20.9429 302.96 21.3444 303.469C22.6403 305.112 24.1518 306.629 25.5861 308.154C27.549 310.242 29.7708 312.414 32.0108 314.206C34.8949 316.514 38.2038 319.093 41.8253 320.081C45.0206 320.952 48.4697 321.228 51.7463 321.678C58.1388 322.556 64.3249 324.406 70.7541 324.997C75.8887 325.468 80.9461 325.831 86.1059 325.831C88.3184 325.831 90.531 325.831 92.7435 325.831C93.4357 325.831 94.1278 325.831 94.82 325.831C95.5884 325.831 94.4235 326.146 94.1811 326.151C91.6291 326.195 89.9983 324.743 88.0404 323.204C83.8348 319.9 79.0119 317.464 74.5698 314.49C68.4178 310.372 63.0208 305.281 56.9641 301.038C54.0911 299.024 51.4207 296.695 48.6227 294.577C45.9897 292.584 43.336 290.614 40.7072 288.614C38.5349 286.962 36.2061 285.1 33.3596 285.1C32.7718 285.1 32.1238 284.888 31.9221 285.544C31.6164 286.537 34.0986 288.528 34.673 289.093C38.0245 292.392 42.2405 295.174 46.2267 297.63C49.6946 299.766 53.4895 301.951 57.2836 303.469" stroke="black" stroke-width="18.9995" stroke-linecap="round"/>
<path d="M100.412 298.039C100.412 296.816 100.475 295.576 100.403 294.356C100.336 293.209 100.065 292.113 100.093 290.957C100.1 290.651 103.427 289.249 103.775 289.085C107.615 287.278 111.219 284.781 115.231 283.379C117.532 282.575 119.798 281.823 122.18 281.267C125.253 280.55 128.582 280.628 131.719 280.628C137.535 280.628 143.588 281.541 148.97 283.823C151.589 284.933 154.151 285.981 156.912 286.689C159.684 287.4 162.537 287.967 165.28 288.765C166.536 289.131 167.93 289.277 169.096 289.892C169.345 290.024 170.388 290.559 170.498 290.851C170.594 291.106 169.59 290.987 169.504 290.975C168.437 290.827 167.523 290.282 166.646 289.688C162.268 286.722 157.822 283.603 152.963 281.462C150.136 280.217 147.42 279.653 144.311 280.158C139.82 280.886 135.374 282.681 131.275 284.621C126.648 286.812 122.074 289.116 117.539 291.49C115.196 292.715 112.462 293.951 110.448 295.705C108.546 297.362 113.1 296.92 113.581 296.92C122.033 296.92 130.401 297.915 138.854 298.003C142.484 298.041 145.945 297.707 149.484 296.92C150.863 296.614 152.195 296.084 153.584 295.838C153.718 295.814 154.261 295.636 153.815 295.802C152.806 296.178 151.791 296.54 150.78 296.92C141.865 300.277 133.401 304.768 124.7 308.643C120.039 310.719 115.328 312.68 110.581 314.553C107.884 315.617 105.095 316.454 102.418 317.561C100.231 318.464 96.8945 320.059 95.9751 322.477C95.66 323.306 95.9339 323.746 96.6495 324.234C98.5769 325.548 100.766 326.64 102.914 327.535C109.285 330.19 115.901 330.79 122.748 331.014C129.962 331.25 137.131 330.874 144.338 330.783C145.621 330.767 147.67 330.904 148.81 330.144" stroke="black" stroke-width="18.9995" stroke-linecap="round"/>
<path d="M147.69 329.346C150.87 329.346 153.823 329.239 156.866 328.121C162.909 325.901 168.559 322.907 174.241 319.922C176.898 318.526 179.737 317.189 182.032 315.219C184.535 313.07 186.782 310.61 189.237 308.404C190.217 307.523 192.75 306.227 192.095 304.588" stroke="black" stroke-width="18.9995" stroke-linecap="round"/>
<path d="M172.287 315.29V315.449" stroke="black" stroke-width="18.9995" stroke-linecap="round"/>
<path d="M164.623 326.63C164.649 326.837 165.78 327.085 165.99 327.198C167.098 327.795 168.269 328.128 169.45 328.547C172.207 329.523 175.007 329.712 177.881 330.02C183.938 330.669 189.942 329.498 195.753 327.855C202.029 326.08 207.874 323.48 213.908 321.039C216.157 320.13 218.066 318.52 220.138 317.277C221.6 316.4 225.672 313.353 224.131 314.082C221.26 315.443 218.702 317.035 216.216 319.016C213.367 321.286 210.531 323.291 207.289 324.944C206.755 325.216 203.081 327.066 205.514 327.109C206.643 327.129 207.712 327.136 208.753 326.63C210.582 325.74 212.294 324.465 214.05 323.435C216.957 321.731 220.116 320.175 222.791 318.111C224.426 316.85 225.949 315.208 227.361 313.692C230.052 310.803 232.231 307.803 233.892 304.215C235.143 301.513 236.314 298.866 236.989 295.962C237.555 293.531 238.519 291.177 239.483 288.881C240.515 286.422 242.21 284.161 243.006 281.613C243.172 281.082 243.377 279.421 243.299 279.971C243.217 280.54 242.859 281.096 242.651 281.622C242.172 282.83 242.07 284.13 241.932 285.411C241.676 287.786 241.436 290.158 241.062 292.519C240.524 295.92 239.68 299.077 238.107 302.147C236.961 304.385 235.33 306.33 233.875 308.368C232.742 309.954 231.556 311.261 230.121 312.565C229.998 312.676 228.665 313.903 228.391 313.656C228.293 313.569 228.273 313.358 228.195 313.248C227.87 312.786 227.112 312.602 226.625 312.458C221.252 310.872 215.66 309.969 210.235 308.563C205.981 307.46 201.842 306.44 197.421 306.353C195.221 306.31 192.81 306.725 190.925 307.942C190.859 307.985 189.657 308.729 190.127 308.9C191.915 309.55 194.364 308.075 195.859 307.338C202.396 304.116 208.95 300.757 215.24 297.08C217.316 295.866 219.38 294.626 221.442 293.388C222.281 292.885 223.131 292.358 223.847 291.685C224.288 291.27 224.276 291.536 223.927 291.915C223.487 292.393 222.984 292.772 222.445 293.131C220.796 294.23 219.294 295.451 217.777 296.725C212.873 300.844 207.822 304.809 202.754 308.723C200.236 310.667 197.755 312.866 195.06 314.562C194.64 314.826 193.983 315.609 193.454 315.609C193.127 315.609 192.965 314.768 192.895 314.508C192.232 312.029 191.78 309.513 191.218 307.01C190.449 303.587 189.421 300.146 187.819 297.009C186.685 294.787 185.236 292.683 184.288 290.371C183.204 287.73 181.841 284.594 182.042 281.675C182.132 280.374 183.397 279.656 184.27 278.862C186.254 277.058 188.384 275.496 190.552 273.901C192.67 272.345 194.873 270.948 196.977 269.358C199.117 267.74 201.612 266.448 203.943 265.116C205.994 263.945 208 263.01 210.181 262.099C210.663 261.898 213.82 260.908 213.82 260.502" stroke="black" stroke-width="18.9995" stroke-linecap="round"/>
<path d="M240.654 281.107C240.722 281.381 243.448 280.665 243.839 280.548C245.469 280.059 246.393 278.3 247.558 277.176C247.791 276.951 248.295 276.51 247.824 277.06C247.012 278.008 246.161 278.872 245.552 279.98C244.876 281.209 244.331 282.699 244.026 284.071C243.809 285.046 243.727 285.992 243.298 286.91C242.71 288.17 245.002 286.91 245.286 286.626C246.232 285.68 246.84 284.434 247.398 283.236C248.31 281.277 249.257 279.37 250.255 277.451C253.058 272.061 253.884 265.967 254.994 260.058C255.589 256.891 256.147 253.732 256.147 250.501C256.147 249.136 256.233 247.738 256.139 246.374C256.107 245.918 255.952 245.539 255.588 245.256C254.866 244.695 253.41 246.978 252.971 247.377C250.562 249.567 247.922 251.642 245.162 253.367C243.29 254.537 241.434 255.931 239.376 256.757C237.395 257.552 235.401 258.384 233.377 259.064C232.125 259.485 230.877 259.788 229.579 260.022C229.191 260.093 228.41 260.401 228.124 259.987C227.849 259.59 227.92 259.165 227.716 258.745C227.495 258.289 227.08 258.046 226.686 257.751C226.311 257.469 225.639 256.658 225.639 257.467" stroke="black" stroke-width="18.9995" stroke-linecap="round"/>
<path d="M176.92 185.909C176.885 186.192 172.699 186.485 172.27 186.548C171.928 186.599 169.059 186.87 168.943 187.276C168.377 189.257 170.162 191.699 170.842 193.399C171.634 195.38 172.373 197.394 173.193 199.362C174.497 202.49 176.165 205.047 178.145 207.774C180.201 210.605 182.36 213.245 184.632 215.903C185.49 216.907 186.348 217.855 187.321 218.751C188.003 219.38 188.725 220.183 189.521 220.659C191.696 221.962 194.887 223.184 197.046 223.996C207.026 227.746 206.071 227.04 217.012 230.953" stroke="black" stroke-width="18.9995" stroke-linecap="round"/>
<path d="M193.215 203.479C192.318 202.432 195.237 205.355 196.224 206.318C198.6 208.639 201.142 210.787 203.562 213.062C204.927 214.345 206.323 215.586 207.272 217.224C208.039 218.55 208.729 219.915 209.49 221.244C210.333 222.716 209.308 221.909 208.541 221.182C204.268 217.131 200.089 213.221 195.274 209.797C191.547 207.147 187.728 204.649 183.854 202.228C183.207 201.824 182.559 201.578 183.339 202.538C184.77 204.299 185.676 206.276 186.542 208.359C187.941 211.722 189.441 215.029 191.299 218.165C194.434 223.456 199.076 228.301 204.006 231.982C207.766 234.788 211.924 235.969 216.536 236.463C218.82 236.708 221.092 236.702 223.387 236.702C223.839 236.702 226.044 237.014 226.279 236.543" stroke="black" stroke-width="18.9995" stroke-linecap="round"/>
<path d="M242.41 240.377C243.873 240.377 243.862 240.333 244.522 239.028C245.097 237.891 245.771 236.799 246.315 235.647C246.953 234.293 247.168 232.76 247.362 231.29C248.319 224.007 246.968 216.147 244.495 209.292C241.976 202.305 239.39 195.062 235.417 188.757C233.769 186.141 231.528 183.015 228.602 181.685C227.992 181.408 226.585 180.774 226.277 180.159" stroke="black" stroke-width="18.9995" stroke-linecap="round"/>
</g>
<defs>
<clipPath id="clip0_205_5523">
<rect width="262.614" height="352.888" fill="white" transform="translate(0.751953 0.0849609)"/>
</clipPath>
</defs>
</svg>
