<svg width="265" height="355" viewBox="0 0 265 355" fill="none" xmlns="http://www.w3.org/2000/svg">
<g style="mix-blend-mode:darken" clip-path="url(#clip0_205_6139)">
<rect width="263.786" height="354.06" transform="translate(0.37207 0.6875)" fill="white"/>
<path d="M43.8214 124.303C14.6243 106.024 -24.1229 58.9255 44.1275 13.848" stroke="black" stroke-width="5.19115"/>
<path d="M40.9261 124.315C67.6822 105.416 106.256 58.2925 40.2192 14.7189" stroke="black" stroke-width="5.19115"/>
<path d="M42.3458 230.557C13.1504 212.278 -28.1742 164.679 40.0721 119.602" stroke="black" stroke-width="5.19115"/>
<path d="M39.4602 230.565C66.2163 211.666 103.224 163.203 37.1871 119.63" stroke="black" stroke-width="5.19115"/>
<path d="M133.781 39.8155C154.341 13.8592 207.88 -22.8805 258.583 37.7941" stroke="black" stroke-width="5.19115"/>
<path d="M133.767 37.242C155.024 61.0295 209.534 93.9314 258.545 35.2211" stroke="black" stroke-width="5.19115"/>
<path d="M132.62 317.302C153.18 291.346 206.719 254.606 257.422 315.281" stroke="black" stroke-width="5.19115"/>
<path d="M132.605 314.728C153.863 338.516 208.373 371.418 257.384 312.707" stroke="black" stroke-width="5.19115"/>
<path d="M16.2474 38.8509C36.8076 12.8946 87.8888 -24.3988 138.592 36.2758" stroke="black" stroke-width="5.19115"/>
<path d="M15.7579 37.3262C37.0152 61.1137 90.036 92.6276 139.047 33.9174" stroke="black" stroke-width="5.19115"/>
<path d="M136.533 311.616C115.731 337.421 62.4346 371.477 12.3002 310.427" stroke="black" stroke-width="5.19115"/>
<path d="M136.522 314.191C115.488 290.247 62.8059 255.563 13.2479 313.91" stroke="black" stroke-width="5.19115"/>
<path d="M122.892 178.908C143.452 152.952 196.991 116.212 247.694 176.887" stroke="black" stroke-width="5.19115"/>
<path d="M122.878 176.334C144.135 200.122 198.645 233.024 247.656 174.313" stroke="black" stroke-width="5.19115"/>
<path d="M126.799 173.222C105.997 199.027 52.7012 233.083 2.56682 172.033" stroke="black" stroke-width="5.19115"/>
<path d="M126.789 175.797C105.754 151.853 53.0725 117.169 3.51449 175.516" stroke="black" stroke-width="5.19115"/>
<path d="M40.1985 335.424C11.1749 316.93 -30.3469 271.208 38.3181 226.636" stroke="black" stroke-width="5.19115"/>
<path d="M38.4729 335.844C65.4046 317.143 101.29 270.268 35.6626 226.208" stroke="black" stroke-width="5.19115"/>
<path d="M35.4897 142.465C35.6061 145.977 36.2133 149.42 36.5125 152.916C36.964 158.191 37.0239 163.509 37.0239 168.8C37.0239 170.69 37.0239 176.357 37.0239 174.468C37.0239 169.965 37.5405 165.513 38.0786 161.045C38.9953 153.432 40.8591 145.826 40.8591 138.139C40.8591 136.89 41.3523 134.863 39.5594 134.794C38.7572 134.763 38.2501 133.684 38.558 133.068" stroke="black" stroke-width="18.9995" stroke-linecap="round"/>
<path d="M38.5585 133.067C37.8758 133.295 37.1768 134.072 36.6196 134.516C35.1208 135.711 33.7497 137.184 32.4008 138.543C29.1245 141.845 25.88 145.855 23.814 150.039C20.3089 157.136 19.4658 165.33 16.8892 172.773C16.1012 175.05 15.3693 177.393 14.8756 179.751C14.7582 180.312 14.588 180.878 14.588 181.456C14.588 182.076 14.4735 180.221 14.4388 179.602C14.0975 173.5 14.0492 167.057 15.1526 161.044C15.5372 158.948 16.0488 157.226 17.262 155.451C18.0142 154.35 19.0167 153.407 19.723 152.286C20.2169 151.503 20.5327 150.681 20.5327 149.751C20.5327 148.479 18.7903 150.759 18.6363 150.976C16.8781 153.454 16.0711 156.318 15.355 159.254C14.0785 164.488 13.5021 169.468 13.6398 174.84C13.7301 178.36 16.1065 181.147 17.9332 183.97C19.5844 186.522 20.9661 189.223 22.5995 191.79C24.3063 194.472 26.4231 197.377 29.3538 198.843" stroke="black" stroke-width="18.9995" stroke-linecap="round"/>
<path d="M17.0807 176.215C16.424 176.379 16.889 184.144 16.889 185.334C16.889 188.645 17.2928 191.78 18.7853 194.795C20.1556 197.562 21.4548 199.582 23.7818 201.688C24.8706 202.673 26.1178 203.476 27.2443 204.415C28.3365 205.325 29.4338 206.357 30.6534 207.089C32.2268 208.033 34.0331 209.283 35.2025 210.722C35.7893 211.444 36.9302 212.059 37.3652 212.842C37.886 213.779 39.5172 214.963 39.5172 216.102C39.5172 218.291 42.009 215.292 42.4789 214.909C43.6618 213.944 44.5935 212.633 45.611 211.499C46.712 210.273 47.9476 209.142 48.9882 207.867C51.0803 205.302 52.7956 202.558 54.4748 199.717C56.2287 196.748 57.5096 193.186 58.3314 189.862C58.9491 187.363 59.7516 184.883 60.1212 182.33C60.5339 179.479 60.5163 176.553 60.6539 173.679C61.105 164.256 59.4125 155.027 53.7504 147.301C51.9516 144.846 49.9353 142.527 47.7844 140.376C47.3618 139.954 46.9392 139.531 46.5166 139.108C45.9036 138.495 46.0982 138.744 46.5059 139.439C47.5219 141.169 48.8684 142.737 49.9364 144.446C52.0104 147.764 54.1681 151.024 56.3072 154.3C60.855 161.266 65.6837 169.46 66.215 177.962C66.5701 183.643 65.1226 189.002 61.357 193.367C59.7003 195.287 56.8843 198.026 54.2404 198.502C52.8494 198.752 51.0484 198.872 49.702 198.396C47.9479 197.775 46.3658 196.514 44.8653 195.455C42.1214 193.519 39.3903 191.45 37.2693 188.818C34.9004 185.879 33.0675 182.231 32.2621 178.527C31.7109 175.991 31.369 172.51 32.0171 169.972C32.3766 168.563 33.1461 166.478 34.3395 165.519C35.7601 164.377 38.6433 164.638 40.2842 164.847C46.5319 165.644 47.9368 173.304 46.3355 178.409C45.6215 180.686 44.1489 182.932 42.7133 184.823C42.5143 185.085 41.6829 186.64 41.6372 185.91C41.4825 183.433 41.9226 180.864 42.106 178.399C42.4717 173.482 43.3305 168.737 44.1195 163.878C45.0047 158.427 45.4619 152.772 45.4619 147.248C45.4619 146.275 45.7388 144.834 45.3553 143.903C45.1317 143.359 44.7339 142.859 44.5457 142.315C44.3386 141.717 44.5175 141.134 44.7907 140.643C44.9663 140.327 45.6737 139.406 45.2701 139.204" stroke="black" stroke-width="18.9995" stroke-linecap="round"/>
<path d="M38.5593 181.967C39.8412 181.967 40.8803 182.217 42.107 182.638C44.7377 183.541 47.4457 184.365 50.1504 185.014C53.7853 185.886 57.5611 185.966 61.1875 186.761C64.188 187.419 67.393 188.332 70.1898 189.648C72.1197 190.556 73.8484 191.632 75.8575 192.418C76.8556 192.809 80.0862 192.609 79.0429 192.855C76.8232 193.377 74.336 192.403 72.1288 193.1C70.0158 193.767 67.411 194.635 65.5981 195.923C65.2906 196.142 64.4742 196.381 64.2984 196.733C64.1412 197.047 65.5689 196.924 65.6833 196.924C68.0613 196.924 70.1712 196.138 72.4803 195.689C74.8536 195.227 77.3878 194.935 79.6395 194.005C84.2451 192.105 88.7666 190.16 92.8287 187.24C94.6682 185.918 96.4988 184.87 98.4324 183.735C99.9797 182.827 101.645 181.789 103.301 181.115C104.699 180.545 106.218 180.111 107.36 179.048C108.107 178.353 109.324 177.689 109.853 176.789C110.4 175.859 111.922 175.879 112.431 175.063C112.613 174.773 113.059 174.97 113.145 174.584C113.237 174.171 112.98 173.85 112.655 173.625C111.912 173.111 111.038 172.831 110.279 172.283C109.771 171.916 109.285 171.577 108.841 171.132C107.136 169.427 105.538 168.025 103.567 166.626C102.083 165.571 100.514 164.585 98.9545 163.643C97.141 162.547 95.5783 161.082 93.8834 159.818C91.3636 157.94 88.8256 156.429 86.0743 154.928C83.1732 153.346 79.6749 152.869 76.4648 152.329C75.3746 152.145 71.9064 151.373 71.2445 152.456C70.2644 154.06 70.0178 155.846 69.8169 157.698C69.5088 160.54 69.0871 164.354 70.5201 166.967C72.1654 169.967 75.823 171.813 78.8938 172.965C82.1099 174.171 85.2085 175.63 88.4074 176.864C89.8555 177.422 91.5642 177.552 92.9139 178.323C94.4858 179.222 90.0664 176.083 88.5779 175.053C85.5231 172.938 82.4364 170.826 79.1921 169.012C77.9975 168.344 76.117 166.955 74.6537 167.009C74.3684 167.02 74.2882 167.3 74.1849 167.521C73.5431 168.89 72.7856 170.195 72.1714 171.58C70.3011 175.795 68.4746 180.385 68.4746 185.067C68.4746 186.586 68.6769 187.223 70.3496 187.592C73.1608 188.211 75.9906 187.103 78.6168 186.271C81.6103 185.323 84.6976 184.497 87.6084 183.309C88.1072 183.106 88.0345 182.811 88.0345 182.35" stroke="black" stroke-width="18.9995" stroke-linecap="round"/>
<path d="M178.163 171.035C177.951 171.602 174.451 171.227 173.987 171.227C170.587 171.227 167.311 171.429 163.952 171.994C160.331 172.603 156.7 173.51 153.138 174.38C150.801 174.952 148.324 175.108 146.054 175.925C145.052 176.286 143.986 176.596 142.921 176.596C141.608 176.596 140.447 176.213 139.15 176.213C138.691 176.213 138.056 176.098 137.616 176.223C137.337 176.303 136.587 176.714 136.742 176.405" stroke="black" stroke-width="18.9995" stroke-linecap="round"/>
<path d="M136.743 176.407C137.686 175.91 138.341 175.065 139.151 174.382C140.635 173.131 142.133 171.9 143.54 170.558C145.709 168.489 147.681 166.029 150.166 164.326C153.996 161.702 158.209 159.081 162.642 157.603C168.744 155.569 174.835 153.288 181.19 152.138C184.546 151.531 188.289 151.743 191.683 151.871C195.092 152 198.577 153.403 201.751 154.546C209.192 157.224 217.107 159.518 223.591 164.219C226.152 166.076 229.052 167.848 231.283 170.078C232.361 171.156 233.159 172.285 234.053 173.434C234.513 174.026 234.447 174.365 233.776 174.681C232.749 175.164 231.825 175.485 230.899 176.172C229.588 177.146 228.628 178.525 227.277 179.454C225.35 180.779 223.324 182.033 221.268 183.161C213.157 187.612 204.075 190.362 195.167 192.685C190.827 193.818 186.317 194.345 181.85 194.582C179.798 194.69 177.704 194.674 175.65 194.614C173.491 194.55 171.718 193.867 169.726 193.133C165.981 191.751 162.561 189.534 158.796 188.2C154.846 186.801 151.089 184.843 147.013 183.8C146.024 183.547 145.051 183.27 144.062 183.023C143.504 182.883 143.312 183.103 143.987 183.118C145.43 183.15 146.856 183.115 148.27 182.799C153.893 181.543 159.562 180.533 165.209 179.39C177.686 176.863 189.817 172.088 202.689 171.996C206.002 171.973 208.802 172.209 211.957 173.221C212.937 173.536 214.132 174.076 215.175 174.106C215.479 174.114 215.942 174.151 215.942 173.722C215.942 172.381 213.067 171.231 212.17 170.739C205.154 166.891 197.448 165.559 189.478 166.659C186.494 167.07 183.476 167.844 180.732 169.098C179.905 169.476 178.058 170.025 177.823 171.08C177.413 172.924 178.518 174.561 178.931 176.215" stroke="black" stroke-width="18.9995" stroke-linecap="round"/>
<path d="M178.93 176.214C180.773 176.46 182.722 177.99 184.342 178.856C186.246 179.874 188.393 180.671 190.521 181.072C191.952 181.341 193.533 181.583 194.995 181.583C195.721 181.583 195.805 181.583 195.805 180.816" stroke="black" stroke-width="18.9995" stroke-linecap="round"/>
<path d="M142.303 178.707C142.734 178.785 143.087 179.114 143.39 179.41C144.461 180.458 145.499 181.533 146.618 182.532C148.888 184.557 151.411 186.585 154.107 188.018C155.548 188.784 157.111 189.353 158.497 190.213C159.637 190.921 161.229 191.521 162.151 192.514C164.74 195.302 168.885 195.962 172.495 196.541C177.064 197.274 181.879 197.116 186.494 197.116C189.891 197.116 193.083 197.24 196.391 196.349C200.443 195.258 204.51 194.175 208.228 192.173C210.116 191.156 212.145 190.4 214.012 189.339C215.57 188.454 216.913 187.255 218.466 186.356C220.338 185.272 222.374 183.765 223.803 182.116C224.4 181.427 224.762 180.778 224.762 179.858" stroke="black" stroke-width="18.9995" stroke-linecap="round"/>
<path d="M69.4714 27.729C68.18 28.3367 66.4717 28.2716 65.0886 28.7737C61.8302 29.9567 58.5985 31.4162 55.5076 32.9782C46.625 37.4667 38.1992 43.0747 31.9117 50.8916C30.1157 53.1245 28.6937 55.5444 27.1977 57.9755C27.0708 58.1815 25.8398 60.0058 26.051 60.2433C26.351 60.5808 27.3541 57.8545 27.376 57.7971C28.5398 54.7548 29.7566 51.7171 31.0454 48.7257C33.2867 43.5233 35.6335 38.2365 39.709 34.2013C42.4514 31.4861 45.8603 29.3007 48.9843 27.0665C50.5428 25.9519 52.3227 25.0085 53.6474 23.601C54.0607 23.1619 52.7732 23.411 52.6536 23.4226C50.8247 23.6002 49.0793 24.1385 47.3535 24.7477C43.3782 26.1507 39.604 28.0124 35.8996 30.0096C31.913 32.1588 29.0684 34.3659 26.2166 37.8579C22.3894 42.5443 19.1968 48.3808 16.9541 53.9876C14.644 59.7628 15.9691 66.1429 17.6294 71.8501C18.4148 74.5499 18.874 77.4601 20.0501 80.0169C20.9243 81.9173 21.431 84.3044 22.6874 85.9796" stroke="black" stroke-width="18.9995" stroke-linecap="round"/>
<path d="M34.8409 65.3389C34.8409 73.357 34.8409 81.3752 34.8409 89.3934C34.8409 93.3523 35.2274 97.5451 34.5606 101.472C34.4641 102.04 34.4019 102.681 33.6943 102.72C33.3663 102.738 33.2819 102.707 33.1846 102.389C32.7432 100.944 31.8267 99.6239 31.0442 98.3501C30.8114 97.9711 25.7602 89.7618 25.209 90.4508C24.9271 90.8032 24.6832 91.2535 24.177 91.2535C23.221 91.2535 24.4098 91.6281 24.8012 91.9925C27.8035 94.7876 29.9503 98.4132 33.0572 101.115C34.0253 101.957 34.8375 102.978 35.7073 103.918C36.1722 104.42 36.3062 105.757 36.5737 106.389C37.062 107.544 37.9064 108.416 38.5103 109.473C38.763 109.915 39.1615 109.733 39.5423 109.944C40.1951 110.307 41.7209 111.889 41.7209 110.747" stroke="black" stroke-width="18.9995" stroke-linecap="round"/>
<path d="M40.1158 113.04C40.7771 112.776 41.3372 111.457 41.7721 110.925C43.3512 108.995 45.2571 107.401 46.9703 105.6C49.5076 102.931 52.0378 99.8961 54.0542 96.8085C58.7236 89.6584 61.2283 81.8653 62.6924 73.4802C63.1879 70.6422 63.7121 67.6095 63.7371 64.7273C63.7524 62.97 63.8576 61.1536 63.7117 59.4017C63.5838 57.8672 63.0761 56.3139 62.8198 54.7896C62.2613 51.4682 62.1979 47.9557 61.2145 44.7244C60.7521 43.2051 59.848 41.6952 59.6219 40.1123C59.5287 39.4603 59.5438 40.4572 59.469 40.6983C59.1478 41.7334 58.5982 42.706 58.0038 43.6032C56.9185 45.2414 55.5651 46.5843 54.309 48.088C52.5469 50.1973 51.0802 52.5657 49.8752 55.0316C42.6041 69.9121 43.2289 87.1681 39.1475 102.95C39.0439 103.35 37.8457 106.153 38.8545 106.377C41.0151 106.857 42.5943 105.299 44.0272 103.956C45.5968 102.485 47.0686 100.977 48.7413 99.6114C51.4835 97.3735 54.5202 95.4949 57.1629 93.1392C60.9431 89.7694 64.4718 85.6358 66.4382 80.9335C68.0674 77.0375 69.1737 72.721 69.8272 68.5623C70.3837 65.0207 71.0758 61.6141 71.0758 58.0002C71.0758 56.0299 70.3878 54.117 70.3878 52.1395C70.3878 50.7899 69.9559 48.4818 71.1013 47.4637C72.7692 45.981 75.6666 46.5336 77.6755 46.5336C82.9034 46.5336 88.449 46.003 93.5759 47.2725C94.3059 47.4533 97.5728 48.4529 95.5507 49.2856C93.8694 49.9779 92.0395 50.3298 90.3398 50.9928C88.3573 51.7662 86.5597 53.0103 84.6574 53.9614C82.8359 54.8722 81.1512 55.4776 79.1025 55.4776C78.1064 55.4776 76.9408 55.632 76.0192 56.0509C74.6879 56.656 76.7614 56.7358 77.4462 56.8026C79.6943 57.0219 82.5658 57.1705 84.7848 56.6242C89.9265 55.3586 96.3817 54.9167 100.647 51.3623C102.446 49.8633 104.243 48.0808 105.731 46.2788C106.715 45.0867 107.769 44.2466 107.769 42.6349" stroke="black" stroke-width="18.9995" stroke-linecap="round"/>
<path d="M69.4705 42.864C78.3479 42.7642 87.203 42.176 96.0859 42.176C97.8314 42.176 99.5768 42.176 101.322 42.176C102.329 42.176 98.9275 41.7704 98.5958 41.6918C94.995 40.839 91.5709 39.3512 88.0337 38.29C80.8406 36.1321 73.2131 34.0417 65.6992 33.3721C61.5251 33.0002 57.2647 33.232 53.0732 33.232C50.7811 33.232 48.0956 33.0874 46.5499 31.1552C45.3125 29.6085 45.2543 26.5834 46.2314 24.9378C49.5719 19.3116 57.0702 16.1507 63.0492 14.656C67.546 13.5318 72.062 12.592 76.72 12.592C81.0901 12.592 85.3811 12.4003 89.6645 13.3947C93.7104 14.3339 97.8353 15.4447 101.705 16.9621C105.111 18.298 107.906 20.3908 110.878 22.4406C113.487 24.2399 117.318 26.0909 118.879 28.9893C119.69 30.4953 120.775 32.1825 121.376 33.7671C121.758 34.7724 121.901 35.3467 121.3 36.0986C120.97 36.5105 119.104 36.4095 118.65 36.4936C117.299 36.7436 115.916 38.0149 114.878 38.8379C112.927 40.3867 111.031 41.9944 109.196 43.6794C107.859 44.9076 106.523 46.1388 105.297 47.4761C104.439 48.4122 103.385 49.5835 102.265 50.2026C101.435 50.6615 100.645 51.0485 99.7425 51.3493C99.2712 51.5064 98.2959 51.6669 97.9588 52.0883C97.583 52.5579 99.8942 52.4977 99.9718 52.496C101.698 52.4576 103.104 51.9064 104.507 50.9416C107.461 48.9113 110.686 47.4773 113.859 45.8453C117.065 44.1965 119.103 40.6132 121.121 37.8186C121.54 37.2386 121.856 36.6503 122.217 36.0349C122.434 35.6657 122.288 34.8642 122.676 34.6589C123.206 34.3782 123.954 34.8373 124.51 34.8373C124.784 34.8373 125.931 35.1119 125.606 35.0157C123.795 34.4791 121.899 34.4929 120.153 33.6906C117.844 32.6296 115.087 32.3774 112.662 31.6266C106.737 29.7927 100.864 28.5976 94.6971 27.9573C91.2738 27.6019 87.9326 27.2222 84.581 26.4029C82.7478 25.9548 80.827 25.2648 78.9241 25.2053C77.7084 25.1673 77.2678 25.4951 77.2678 24.0586" stroke="black" stroke-width="18.9995" stroke-linecap="round"/>
<path d="M182.532 37.5889C182.435 38.3681 166.963 37.8182 164.899 37.8182C161.397 37.8182 157.811 37.5889 154.273 37.5889C152.953 37.5889 151.632 37.5889 150.311 37.5889C149.621 37.5889 147.556 38.2711 147.215 37.5889" stroke="black" stroke-width="18.9995" stroke-linecap="round"/>
<path d="M148.363 38.0469C149.266 37.0429 150.417 36.3528 151.484 35.4987C154.224 33.3068 156.946 31.2543 159.867 29.3067C166.298 25.0198 173.177 21.1218 180.418 18.3752C182.983 17.4022 185.691 16.4544 188.381 15.9162C190.828 15.4268 193.397 15.4427 195.885 15.2282C198.613 14.9931 201.466 15.0145 204.205 15.1263C206.884 15.2357 209.461 16.1525 212.028 16.8336C214.932 17.604 217.916 18.4205 220.73 19.4709C223.628 20.5526 226.327 22.0974 229.139 23.3696C232.843 25.0452 236.039 27.5452 239.408 29.7909C240.489 30.5119 241.383 31.4021 242.504 32.0842C243.074 32.431 243.814 32.7214 244.338 33.129C244.77 33.4649 245.327 35.1628 245.116 35.6389C244.855 36.2255 243.512 35.9829 243.026 35.9829C241.404 35.9829 239.782 35.9829 238.159 35.9829C229.721 35.9829 220.966 36.9075 212.907 34.0718C208.164 32.4028 203.899 29.8554 199.415 27.6377C195.965 25.9317 192.72 24.7451 188.827 25.0004C181.911 25.4539 177.855 31.9492 171.704 34.0463C169.285 34.8707 166.746 35.08 164.237 35.5242C162.953 35.7517 161.521 36.1135 160.237 36.2122C158.467 36.3484 157.106 38.499 157.077 40.1109C157.037 42.3504 157.154 45.3476 159.256 46.7488C162.338 48.8033 166.098 49.4813 169.614 50.5201C177.813 52.9425 186.294 55.2469 194.93 55.2469C208.47 55.2469 222.807 51.4544 233.624 43.0413C235.096 41.8959 237.023 40.7359 238.236 39.321C239.146 38.2584 238.4 38.2762 237.344 38.2762C235.36 38.2762 233.377 38.2762 231.394 38.2762C226.064 38.2762 220.86 36.9736 215.544 36.6836C210.296 36.3974 205.039 36.4077 199.784 36.4416C195.204 36.4711 191.675 38.2005 187.884 40.646C186.181 41.7449 182.526 44.7337 186.024 46.0735C188.057 46.8522 190.372 46.533 192.471 47.1055C192.649 47.1541 194.66 47.7209 194.165 48.265C192.834 49.7299 188.916 49.2842 187.145 49.2842C185.195 49.2842 183.312 49.9354 181.616 50.8895C180.15 51.714 178.364 53.7853 180.52 55.0685C182.091 56.0037 184.053 56.5727 185.795 57.1325C188.334 57.9488 191.302 57.4344 193.911 57.8842C196.863 58.3933 200.176 57.9989 203.173 57.9989C206.14 57.9989 209.169 57.7205 212.092 57.2089C215.984 56.5278 219.609 54.9436 222.947 52.8007C225.575 51.1129 229.317 48.3524 229.317 44.9269" stroke="black" stroke-width="18.9995" stroke-linecap="round"/>
<path d="M60.6444 319.997C63.8831 323.235 54.1619 313.49 51.3656 309.862C46.1472 303.092 40.9612 294.959 37.8303 286.98C34.8906 279.489 33.4836 272.01 33.4836 264.054" stroke="black" stroke-width="18.9995" stroke-linecap="round"/>
<path d="M48.5316 290.601C48.5316 293.287 48.5316 285.231 48.5316 282.546C48.5316 276.77 48.7929 271.066 47.1937 265.46C45.7693 260.466 43.5047 255.358 40.6806 250.965C39.8174 249.623 38.9606 248.213 38.2463 246.784C37.6374 245.567 37.6826 243.801 37.2893 242.473C37.0633 241.71 36.5468 240.82 35.9886 240.262C35.6031 239.877 35.6554 240.537 35.2453 240.42C34.8843 240.317 35.2728 239.508 35.3846 239.351C35.3953 239.336 35.0395 239.278 34.9851 239.333C34.6975 239.62 34.6092 240.122 34.4091 240.466C34.0163 241.143 33.4942 241.846 32.9411 242.399C31.2438 244.096 29.2709 245.616 27.4593 247.193C25.3171 249.058 23.522 251.113 21.6988 253.288C20.0798 255.22 18.7568 257.01 17.7965 259.365C16.4444 262.679 15.3583 266.173 14.2473 269.576C11.9727 276.541 11.9417 284.684 14.9534 291.438C16.1389 294.096 18.4992 296.428 20.9648 297.941C23.8885 299.736 27.5582 301.162 31.0271 301.138C32.0674 301.13 32.7307 301.072 33.4614 300.311C34.5189 299.208 35.6231 298.005 35.8864 296.446C36.8838 290.538 29.9999 286.196 25.5267 283.847C23.6696 282.871 21.7882 282.099 19.7476 281.608C19.5498 281.56 17.3114 280.853 17.1275 281.106C16.511 281.954 24.4953 284.979 25.0808 285.101C25.7653 285.244 26.8877 285.429 27.515 284.971C28.4582 284.282 28.6001 282.08 28.7972 281.087C29.4381 277.859 29.8894 274.564 30.0608 271.276C30.1446 269.669 30.3314 267.591 28.9645 266.426C28.5121 266.04 26.2886 264.774 26.2886 266.045C26.2886 269.497 28.8999 272.677 31.6775 274.491C34.9882 276.652 38.1657 275.386 40.8757 273.023C43.6437 270.608 46.2457 267.402 47.8069 264.066C48.6995 262.158 49.4298 260.039 49.5815 257.924C49.6235 257.34 49.6342 256.742 49.5165 256.168C48.9169 253.245 49.2309 256.541 48.1971 254.31" stroke="black" stroke-width="18.9995" stroke-linecap="round"/>
<path d="M42.5119 241.6C42.4942 241.603 43.8867 243.23 44.1007 243.523C45.1186 244.918 46.4451 245.973 47.3619 247.463C50.2462 252.15 52.3855 257.372 54.4789 262.449C56.4737 267.288 58.0929 272.196 58.2232 277.473C58.3369 282.079 57.0844 286.203 54.8877 290.23C54.4024 291.12 53.8823 292.004 53.4754 292.934C53.1051 293.78 55.0022 291.842 55.1479 291.67C56.8195 289.695 58.1218 287.25 59.366 284.99C60.8175 282.353 61.5795 279.721 61.7074 276.702C61.765 275.343 61.8619 273.884 61.5959 272.54C61.2933 271.01 60.4874 269.544 59.7284 268.201C58.2812 265.64 56.8052 263.009 55.0735 260.628C54.2782 259.535 53.4379 258.444 52.5835 257.395C52.2722 257.013 51.747 256.558 51.5429 256.15" stroke="black" stroke-width="18.9995" stroke-linecap="round"/>
<path d="M16.4228 294.115C15.6686 294.492 16.7785 298.414 16.8873 298.946C17.1469 300.215 17.6475 301.474 18.1881 302.653C20.1729 306.984 24.2024 310.08 27.5443 313.273C29.8319 315.459 32.2702 317.305 34.8099 319.192C37.3217 321.057 40.4111 323.028 43.5158 323.679C45.881 324.175 48.5961 324.298 50.9765 323.865C51.8284 323.71 56.3876 323.067 56.5234 321.709C56.5614 321.329 55.9713 320.903 55.7801 320.734C54.5204 319.621 53.1793 318.579 51.8406 317.566C48.7029 315.189 45.3578 312.945 41.7319 311.378C39.9894 310.625 38.1735 310.118 36.3987 309.464C35.828 309.253 34.8123 308.862 34.6706 308.154C34.547 307.536 34.8167 306.921 35.2095 306.463C36.4619 305.001 38.2752 303.427 40.078 302.718C41.7902 302.045 43.8322 302.121 45.6341 302.142C48.6332 302.178 51.3868 302.948 54.1448 304.075C56.5553 305.06 59.2328 306.762 61.8844 306.983C62.2572 307.014 62.5376 307.039 62.7577 306.695C63.6398 305.317 63.946 303.458 64.4952 301.938C65.2061 299.97 66.0319 297.936 66.1862 295.824C66.3203 293.987 65.3787 292.262 64.5137 290.705C64.4263 290.547 63.5218 288.554 63.2502 289.097" stroke="black" stroke-width="18.9995" stroke-linecap="round"/>
<path d="M58.9028 322.712C58.9919 322.356 60.0222 322.569 60.2408 322.619C66.4519 324.061 72.2702 327.073 78.6372 327.925C83.1111 328.523 88.0111 328.468 92.4811 327.878C96.2597 327.379 100.341 326.34 103.454 324.032C105.927 322.198 106.418 319.423 106.864 316.543C107.188 314.449 108.018 311.171 107.077 309.138C105.923 306.643 100.641 306.685 98.576 306.564C94.6622 306.336 90.6922 306.339 86.8227 307.047C83.3535 307.682 80.0212 309.11 76.8812 310.68C75.0835 311.579 71.3532 313.095 70.749 315.326C70.212 317.309 75.3559 317.562 76.3516 317.695C79.7751 318.151 84.0287 318.809 87.436 317.909C88.2469 317.694 89.9518 316.594 88.8761 315.651C87.3494 314.313 84.8129 314.517 82.939 314.517C82.2308 314.517 80.4916 314.213 80.1796 315.149C80.0161 315.64 82.1853 315.933 82.4838 315.186" stroke="black" stroke-width="18.9995" stroke-linecap="round"/>
<path d="M47.1929 314.517C46.6601 314.716 47.0162 318.312 47.0257 318.883C47.0622 321.074 47.2436 323.429 48.5309 325.257C50.1997 327.627 52.0669 328.912 54.5329 330.349C55.7179 331.039 56.861 331.892 58.1379 332.411C59.4057 332.927 60.7613 333.187 62.0774 333.545C65.1415 334.378 68.5769 334.251 71.7309 334.251C74.6311 334.251 77.3964 334.021 80.2137 333.248C82.9977 332.483 85.7969 331.764 88.5757 330.981C90.6185 330.404 92.5536 329.624 94.4292 328.648C96.1801 327.738 97.7331 326.387 99.372 325.294C100.68 324.422 101.95 323.524 103.219 322.581C103.397 322.449 104.148 322.017 104.148 321.745C104.148 321.696 102.271 322.636 102.122 322.711C100.098 323.738 98.5956 325.409 96.7334 326.651C95.9755 327.156 95.6859 327.909 96.529 328.565C97.6054 329.402 99.3117 329.281 100.125 328.221C101.954 325.834 104.081 324.643 106.898 323.548C108.479 322.933 110.447 322.712 111.822 321.699C112.986 320.841 113.532 318.998 114.071 317.741C114.211 317.413 114.447 316.512 114.758 316.356" stroke="black" stroke-width="18.9995" stroke-linecap="round"/>
<path d="M106.566 315.354C105.733 315.354 105.362 315.225 104.689 314.695C101.327 312.046 97.7556 309.629 94.2083 307.234C87.9211 302.99 81.5342 298.535 74.8641 294.914C73.1696 293.994 75.3009 293.606 76.2021 293.483C77.6837 293.28 79.0689 293.111 80.5596 293.111C82.8897 293.111 85.1709 293.661 87.3886 294.356C90.8004 295.426 94.3074 296.077 97.6832 297.292C99.8795 298.083 101.51 299.018 103.314 300.461C105.132 301.915 106.776 303.56 108.442 305.19C109.658 306.379 111.233 307.124 112.456 308.293C113.353 309.15 114.036 310.027 114.797 311.006C115.423 311.81 116.256 313.009 117.232 313.385C118.093 313.716 118.959 314.002 119.861 314.277C120.587 314.497 121.11 314.685 121.868 314.685C122.154 314.685 123.305 314.813 122.695 314.425C121.982 313.972 121.247 312.923 120.697 312.251C120.367 311.847 120.061 311.529 119.685 311.173C119.39 310.895 119.159 311.01 119.61 310.672" stroke="black" stroke-width="18.9995" stroke-linecap="round"/>
<path d="M182.994 311.172C179.532 311.172 176.069 311.172 172.607 311.172C170.032 311.172 167.252 310.855 164.728 311.507C163.123 311.921 161.554 312.209 159.99 312.808C158.07 313.541 156.211 314.397 154.192 314.852C152.163 315.308 150.27 315.521 148.208 315.521C147.314 315.521 146.339 315.353 145.532 315.353" stroke="black" stroke-width="18.9995" stroke-linecap="round"/>
<path d="M145.532 315.353C146.549 314.372 147.691 313.851 148.914 313.179C150.747 312.171 152.678 311.13 154.378 309.908C156.8 308.167 158.946 306.015 161.615 304.64C165.122 302.834 168.42 300.673 171.789 298.629C172.929 297.937 174.002 297.2 175.208 296.622C176.694 295.911 178.259 295.695 179.863 295.442C184.889 294.648 189.881 292.912 194.971 292.608C199.479 292.339 203.716 292.363 208.043 293.816C212.952 295.465 217.632 298.168 222.147 300.664C226.917 303.299 230.748 307.278 235.266 310.261C236.847 311.305 238.86 311.991 240.228 313.309C240.504 313.575 240.843 313.822 241.194 313.978C241.742 314.221 241.441 313.444 241.259 313.262C240.679 312.683 239.808 312.407 239.178 311.841C238.292 311.044 237.445 310.266 236.604 309.425C235.163 307.984 233.407 306.898 231.903 305.523C230.803 304.517 229.842 303.322 228.67 302.401C228.138 301.983 228.452 302.401 228.837 302.559C230.283 303.151 231.591 304.063 232.767 305.095C235.354 307.366 237.433 310.143 240.061 312.343C240.609 312.802 245.347 316.608 245.71 315.52" stroke="black" stroke-width="18.9995" stroke-linecap="round"/>
<path d="M150.717 315.855C152.173 318.623 155.57 320.556 158.112 322.21C162.12 324.818 166.959 325.658 171.399 327.228C174.68 328.387 177.888 329.662 181.322 330.275C181.999 330.396 183.886 331.216 182.158 331.241C180.213 331.269 178.688 330.71 176.825 330.238C174.379 329.618 171.67 329.341 169.355 328.305C169 328.147 168.596 328.045 169.28 328.064C171.443 328.124 173.619 329.819 175.468 330.74C178.974 332.485 182.672 334.366 186.525 335.218C195.863 337.283 205.779 335.786 214.853 333.165C216.902 332.573 218.84 331.404 220.651 330.303C222.838 328.973 224.957 327.7 226.913 326.048C227.908 325.207 228.846 324.304 229.84 323.465C231.197 322.318 232.751 321.466 234.17 320.408C235.262 319.593 236.224 318.352 237.347 317.63C237.794 317.342 236.601 318.317 236.167 318.447C234.514 318.943 232.954 319.033 231.234 319.033C226.466 319.033 221.653 318.306 216.935 317.685C211.346 316.95 206.143 314.954 200.647 313.867C197.184 313.182 193.682 313.261 190.25 312.334C190.076 312.287 184.685 310.797 184.685 311.275C184.685 312.138 186.213 313.575 186.683 314.192C188.154 316.126 189.582 318.091 191.18 319.925C192.528 321.472 193.874 323.103 195.751 324.022C197.813 325.032 200.055 325.107 202.31 325.035C204.507 324.964 206.765 324.678 208.665 323.492C210.758 322.187 212.662 320.311 214.073 318.299C215.621 316.092 216.888 313.247 215.931 310.541C215.136 308.291 213.221 306.512 211.007 305.709C206.858 304.206 201.828 304.817 197.507 304.817C194.215 304.817 190.921 304.779 187.63 304.827C184.168 304.876 179.891 305.242 176.973 307.326" stroke="black" stroke-width="18.9995" stroke-linecap="round"/>
</g>
<defs>
<clipPath id="clip0_205_6139">
<rect width="263.786" height="354.06" fill="white" transform="translate(0.37207 0.6875)"/>
</clipPath>
</defs>
</svg>
