<svg width="265" height="355" viewBox="0 0 265 355" fill="none" xmlns="http://www.w3.org/2000/svg">
<g style="mix-blend-mode:darken" clip-path="url(#clip0_205_5586)">
<rect width="263.786" height="354.06" transform="translate(0.585938)" fill="white"/>
<path d="M157.71 154.011C150.658 197.476 160.924 280.479 259.247 265.694" stroke="black" stroke-width="5.19115"/>
<path d="M155.309 156.526C194.999 151.941 270.702 167.672 256.826 268.188" stroke="black" stroke-width="5.19115"/>
<path d="M259.754 233.982C218.731 227.434 140.908 240.161 156.959 344.355" stroke="black" stroke-width="5.19115"/>
<path d="M257.335 231.479C262.513 273.57 249.377 354.386 154.559 341.833" stroke="black" stroke-width="5.19115"/>
<path d="M154.248 344.721C161.223 301.242 150.808 218.26 52.5113 233.244" stroke="black" stroke-width="5.19115"/>
<path d="M156.646 342.203C116.964 346.867 41.2331 331.291 54.9283 230.746" stroke="black" stroke-width="5.19115"/>
<path d="M52.0715 264.954C93.1069 271.418 170.907 258.533 154.669 154.372" stroke="black" stroke-width="5.19115"/>
<path d="M54.4923 267.451C49.239 225.37 62.2307 144.528 157.07 156.889" stroke="black" stroke-width="5.19115"/>
<path d="M137.356 1.25127C132.074 36.451 142.348 103.225 226.43 89.4484" stroke="black" stroke-width="5.19115"/>
<path d="M135.335 3.32355C169.301 -1.12078 234.518 10.1477 224.392 91.5041" stroke="black" stroke-width="5.19115"/>
<path d="M226.288 64.9829C190.981 60.4716 124.448 72.2017 140.058 155.963" stroke="black" stroke-width="5.19115"/>
<path d="M224.164 63.0111C229.35 96.8723 219.509 162.32 137.951 153.974" stroke="black" stroke-width="5.19115"/>
<path d="M137.751 155.182C142.966 119.972 132.565 53.2181 48.5093 67.1545" stroke="black" stroke-width="5.19115"/>
<path d="M139.759 153.104C105.801 157.613 40.5621 146.469 50.5332 65.0934" stroke="black" stroke-width="5.19115"/>
<path d="M48.6972 92.7432C84.0125 97.1871 150.523 85.3302 134.753 1.59882" stroke="black" stroke-width="5.19115"/>
<path d="M50.819 94.7131C45.569 60.8619 55.2849 -4.60489 136.859 3.5857" stroke="black" stroke-width="5.19115"/>
<path d="M23.8814 175.775C45.2126 162.338 76.2969 125.957 30.0351 87.2032" stroke="black" stroke-width="5.19115"/>
<path d="M25.9157 175.897C7.82898 159.724 -16.2721 119.517 32.0682 87.342" stroke="black" stroke-width="5.19115"/>
<path d="M24.2266 92.0368C45.5578 78.5994 76.6421 42.2187 30.3804 3.46496" stroke="black" stroke-width="5.19115"/>
<path d="M26.2624 92.162C8.17566 75.9887 -15.9254 35.7813 32.4149 3.6067" stroke="black" stroke-width="5.19115"/>
<path d="M25.8541 340.19C47.1852 326.752 78.2695 290.372 32.0078 251.618" stroke="black" stroke-width="5.19115"/>
<path d="M27.8898 340.314C9.80311 324.141 -14.298 283.934 34.0423 251.759" stroke="black" stroke-width="5.19115"/>
<path d="M26.1963 256.455C47.5275 243.017 78.6118 206.637 32.3501 167.883" stroke="black" stroke-width="5.19115"/>
<path d="M28.2321 256.58C10.1454 240.407 -13.9557 200.2 34.3846 168.025" stroke="black" stroke-width="5.19115"/>
<path d="M117.439 187.604C117.439 196.313 111.742 203.59 107.355 210.799C100.669 221.782 92.6287 231.899 84.1321 241.528C79.5732 246.695 76.118 251.516 70.0698 254.918C68.6913 255.694 63.4868 258.715 63.4868 255.927C63.4868 252.922 64.1521 250.093 65.1115 247.215C65.9651 244.654 65.5037 241.468 65.5037 238.755C65.5037 231.286 65.5341 224.098 67.9128 216.961C68.8987 214.004 70.7159 211.212 71.5544 208.278C72.0875 206.412 73.4697 204.541 74.2717 202.759C75.0356 201.061 75.4272 199.239 76.5687 197.717C81.389 191.29 86.4925 185.387 92.0036 179.509C94.7539 176.575 98.8755 173.771 102.2 171.469C105.441 169.225 107.961 167.398 111.781 165.922C116.434 164.125 121.23 164.102 126.011 163.009C130.504 161.982 134.984 161.889 139.625 161.889" stroke="black" stroke-width="18.9995" stroke-linecap="round"/>
<path d="M147.694 166.931C147.694 169.993 147.694 173.056 147.694 176.119C147.694 180.013 145.217 185.145 143.548 188.612C141.552 192.757 140.516 197.389 138.87 201.694C138.331 203.102 137.591 204.416 136.853 205.728C136.491 206.371 135.826 208.249 135.592 207.549C134.194 203.354 140.793 179.536 133.855 179.536C131.05 179.536 129.136 181.454 127.216 183.374C120.105 190.485 112.689 197.236 107.58 206.036C107.082 206.893 102.289 214.563 104.918 214.3C110.701 213.722 115.874 206.859 116.712 201.554C117.688 195.368 118.953 182.014 109.372 182.562C107.898 182.646 104.719 185.985 103.294 186.876C98.186 190.068 93.791 197.034 91.8364 202.619C91.4709 203.663 90.533 205.606 90.7159 206.765C91.0568 208.924 97.1125 203.134 97.439 202.787C103.427 196.416 106.682 188.096 112.622 181.665C115.063 179.022 117.808 176.647 120.353 174.102C121.197 173.258 122.111 171.97 123.239 171.469C125.664 170.391 125.226 171.203 123.267 172.701C119.184 175.823 115.254 179.011 111.865 182.898C106.376 189.194 100.974 196.329 96.2624 203.235C91.6645 209.974 86.5778 216.375 81.948 223.096C78.8041 227.66 77.2373 232.838 74.5807 237.634C73.6793 239.262 67.9481 248.891 72.0596 249.12C73.3068 249.189 72.0099 255.058 73.068 256.179C77.0597 260.405 81.0724 256.528 85.7857 256.179C88.5607 255.973 92.0574 254.153 94.3576 252.649C97.351 250.692 100.641 249.472 103.714 247.607C105.373 246.599 113.163 243.309 108.476 247.103C106.189 248.954 103.878 249.957 101.333 251.389C100.868 251.65 98.2421 253.095 99.2878 253.153C101.903 253.299 105.292 250.607 107.299 249.148C109.04 247.882 110.704 246.701 112.51 245.59C114.238 244.526 117.24 243.31 118.336 241.556C121.263 236.873 128.085 235.618 130.662 230.463C133.147 225.492 136.817 221.446 139.234 216.345C140.524 213.622 140.757 209.534 142.539 207.157C144.466 204.588 145.512 200.509 146.293 197.464C147.126 194.214 147.189 191.248 147.189 187.912C147.189 185.062 146.941 185.737 145.172 187.604C142.835 190.072 140.816 193.276 139.094 196.204C135.622 202.105 130.736 207.269 126.348 212.479C118.127 222.242 111.135 232.796 100.408 240.044C98.3365 241.443 94.4805 243.12 92.985 245.114C91.8607 246.613 90.7159 247.436 90.7159 245.086" stroke="black" stroke-width="18.9995" stroke-linecap="round"/>
<path d="M144.164 164.41C144.164 171.545 143.035 150.013 144.388 143.009C145.097 139.341 146.839 136.217 149.375 133.512C153.806 128.786 158.398 124.304 162.541 119.31C169.811 110.545 178.991 104.561 184.222 94.0987C189.387 83.7687 192.96 72.5917 193.074 60.9318C193.172 50.9792 184.592 43.1457 175.426 40.0905C172.293 39.0459 168.607 37.9445 165.37 37.3732C162.078 36.7924 159.324 35.2553 156.154 34.3199C151.726 33.0134 147.277 32.2272 142.764 31.4066C138.422 30.6171 131.738 30.5603 127.413 31.4066C110.104 34.793 95.7825 52.5491 93.6295 69.5037C92.4868 78.5029 93.409 87.861 96.1507 96.5078C98.6445 104.373 102.986 113.834 109.373 119.422C116.925 126.031 125.393 131.636 135.592 131.636" stroke="black" stroke-width="18.9995" stroke-linecap="round"/>
<path d="M144.163 186.596C149.31 186.596 154.415 186.517 159.513 187.38C166.685 188.594 172.614 191.822 178.73 195.56C191.113 203.127 198.715 217.446 205.454 229.763C211.444 240.711 214.371 252.706 214.726 265.143C215.037 276.029 212.828 284.903 204.334 292.203C195.535 299.764 184.982 304.509 173.968 307.89C166.326 310.236 155.951 313.006 147.972 311.336C141.712 310.025 135.667 305.201 130.885 301.279C122.246 294.196 113.997 286.595 106.934 277.917C101.512 271.256 97.3745 264.906 96.261 256.291C95.688 251.857 95.0697 246.966 92.7314 243.069" stroke="black" stroke-width="18.9995" stroke-linecap="round"/>
<path d="M26.6774 322.737C26.6774 313.439 26.4281 304.042 28.8064 295.005C29.4041 292.733 30.1554 290.432 30.207 288.057C30.2435 286.377 29.845 284.248 30.4591 282.651C31.2132 280.69 32.3865 274.413 30.207 273.323" stroke="black" stroke-width="18.9995" stroke-linecap="round"/>
<path d="M26.6782 197.69V233.994" stroke="black" stroke-width="18.9995" stroke-linecap="round"/>
<path d="M21.6367 152.812C22.4731 152.185 22.1359 149.904 22.1409 149.115C22.167 145.025 22.1409 140.935 22.1409 136.845C22.1409 131.243 22.1409 125.64 22.1409 120.038" stroke="black" stroke-width="18.9995" stroke-linecap="round"/>
<path d="M24.6611 29.2764V62.0511" stroke="black" stroke-width="18.9995" stroke-linecap="round"/>
<path d="M19.6897 132.752C19.3403 132.675 15.7285 126.619 15.7285 129.231C15.7285 131.205 16.6088 132.808 16.6088 134.513C16.6088 136.926 16.4036 139.333 17.3912 141.555C18.2071 143.391 17.2221 145.996 18.3693 147.717" stroke="black" stroke-width="18.9995" stroke-linecap="round"/>
<path d="M12.7057 138.231C12.7057 137.186 12.031 136.54 11.557 135.686C11.222 135.083 11.4804 134.97 11.6719 134.246C11.9429 133.222 12.2008 131.972 12.2286 130.915C12.2559 129.877 12.4887 128.754 12.8294 127.769C12.9554 127.405 13.1651 127.032 13.3508 126.691C15.3485 123.029 16.7207 119.064 18.2725 115.169" stroke="black" stroke-width="18.9995" stroke-linecap="round"/>
<path d="M26.7013 114.534C26.7013 113.465 26.913 112.083 26.6217 111.034C26.2331 109.635 25.9454 110.162 24.7927 109.842C24.3417 109.716 23.8608 109.762 23.3965 109.762C23.1018 109.762 22.3171 109.947 22.5129 109.727C23.4519 108.67 24.9406 107.878 25.6232 106.581C26.3673 105.167 28.118 104.588 28.928 103.17C29.1566 102.77 29.5642 102.469 29.5642 101.969C29.5642 101.599 29.8613 100.686 29.5642 100.537" stroke="black" stroke-width="18.9995" stroke-linecap="round"/>
<path d="M32.745 102.922C32.745 104.381 33.682 105.986 34.3708 107.252C35.3224 109 36.1381 110.757 36.3678 112.748C36.6745 115.406 36.8803 118.059 36.8803 120.736C36.8803 122.939 36.9706 125.153 36.6152 127.336C35.9289 131.552 34.4824 135.392 32.5859 139.185" stroke="black" stroke-width="18.9995" stroke-linecap="round"/>
<path d="M37.0406 109.603C37.0406 109.465 37.0322 110.305 37.0495 110.487C37.1296 111.329 37.8529 112.403 38.1717 113.199C38.9625 115.176 39.6808 117.101 39.9831 119.217C40.2675 121.208 40.3807 123.231 40.3807 125.243C40.3807 127.211 40.5898 129.314 40.3454 131.269C40.2183 132.286 40.0268 133.292 39.9035 134.309C39.8577 134.687 39.3927 135.549 39.6031 135.917C40.0713 136.736 42.0577 132.921 42.1214 132.347C42.3267 130.5 42.6588 128.667 42.8902 126.816C43.1167 125.003 42.7998 123.172 42.7665 121.373C42.7562 120.82 42.7665 120.265 42.7665 119.712C42.7665 119.387 42.2633 120.914 42.2098 121.134C41.831 122.691 41.8122 124.164 41.8122 125.764C41.8122 127.931 41.713 130.086 41.6443 132.25C41.5671 134.682 41.1487 137.041 40.3807 139.346C40.1356 140.081 39.7868 140.73 39.4264 141.413C39.241 141.764 38.7902 142.818 38.7902 142.421C38.7902 141.347 39.5712 140.048 39.8947 139.045C40.504 137.156 40.5006 135.167 40.7872 133.213C41.1855 130.497 41.9712 127.862 41.9712 125.111C41.9712 123.985 42.1032 122.834 42.3247 121.726C42.4111 121.294 42.7307 119.526 42.2893 119.305" stroke="black" stroke-width="18.9995" stroke-linecap="round"/>
<path d="M27.3396 139.028C27.3396 143.398 27.8869 148.175 26.7741 152.468C26.5206 153.445 26.1748 154.011 25.5812 154.703C25.189 155.161 24.6607 155.567 24.3177 156.082C23.6508 157.082 23.5594 158.112 23.8405 159.236C23.9787 159.789 24.1726 160.35 24.3265 160.888C24.3952 161.129 24.4767 161.782 24.4767 161.772" stroke="black" stroke-width="18.9995" stroke-linecap="round"/>
<path d="M40.5392 138.869C40.5392 140.003 40.5392 141.137 40.5392 142.271C40.5392 144.388 40.0188 146.32 39.1077 148.244C38.416 149.704 38.0691 151.422 37.0489 152.697C36.4859 153.401 35.8972 153.692 35.211 154.226C33.4414 155.602 31.6004 157.955 29.2466 157.955" stroke="black" stroke-width="18.9995" stroke-linecap="round"/>
<path d="M26.8608 161.612V162.407" stroke="black" stroke-width="18.9995" stroke-linecap="round"/>
<path d="M25.6021 194.182C25.6411 194.177 26.6852 190.564 26.6852 190.121" stroke="black" stroke-width="18.9995" stroke-linecap="round"/>
<path d="M27.2539 190.235C27.4548 189.383 27.8578 188.752 28.2054 187.98C28.3537 187.65 28.5554 187.334 28.6295 186.977C28.7551 186.372 29.1259 185.86 29.3742 185.301C29.5925 184.81 30.2088 184.301 30.605 183.905C30.8394 183.67 31.3996 182.668 31.4427 182.322C31.4919 181.929 31.8151 181.556 31.8151 181.112" stroke="black" stroke-width="18.9995" stroke-linecap="round"/>
<path d="M29.7457 196.521C28.18 196.521 27.2545 196.826 25.7717 197.406C25.1316 197.656 24.2218 198.409 23.7229 197.633C22.7959 196.191 22.7572 194.045 23.8568 192.67C24.2787 192.143 22.9304 193.676 22.6213 194.276C22.2482 195.001 21.9003 195.632 21.3859 196.263C20.4556 197.405 19.8695 198.615 19.1621 199.897C17.0232 203.774 15.291 208.026 15.291 212.499C15.291 216.569 16.4232 220.218 18.3487 223.772C19.8103 226.471 21.4635 229.201 22.5184 232.101C23.4804 234.747 24.8906 237.176 25.7614 239.885C25.9923 240.603 26.2266 241.175 26.5953 241.82C26.7947 242.169 27.1513 242.427 27.1513 242.85" stroke="black" stroke-width="18.9995" stroke-linecap="round"/>
<path d="M27.7065 242.85C27.9015 242.826 29.1589 240.346 29.3332 240.07C30.3967 238.389 31.5476 236.784 32.7101 235.17C33.8522 233.583 34.744 231.626 35.634 229.878C36.7263 227.732 37.9516 225.329 38.2593 222.918C38.7239 219.279 38.7937 215.671 39.1035 212.015C39.4615 207.791 39.4734 203.204 38.8255 199.012C38.5826 197.44 38.7495 195.846 38.3623 194.297C38.1152 193.309 37.9506 192.311 37.7033 191.322C37.4536 190.323 37.1579 188.738 36.2311 188.182" stroke="black" stroke-width="18.9995" stroke-linecap="round"/>
<path d="M35.8599 187.254C35.8599 188.631 36.902 189.296 37.7233 190.322C38.2642 190.999 38.8977 191.574 39.3809 192.299C39.7469 192.848 40.4934 193.747 40.5957 194.399C40.8962 196.314 40.6639 201.495 40.6369 202.327C40.3569 210.964 39.9138 218.752 39.5662 227.468" stroke="black" stroke-width="18.9995" stroke-linecap="round"/>
<path d="M37.3442 238.218C37.5619 238.408 37.7149 236.917 37.7149 236.55" stroke="black" stroke-width="18.9995" stroke-linecap="round"/>
<path d="M44.0157 195.965C44.0157 197.6 44.9794 198.634 45.6835 200.042C46.4104 201.496 46.6101 202.899 46.6101 204.489C46.6101 205.975 46.6101 207.461 46.6101 208.947C46.6101 210.199 46.906 211.936 46.5689 213.158C46.156 214.655 46.141 216.601 45.4055 217.925C45.0779 218.515 45.0984 219.233 44.6746 219.778C44.2332 220.346 44.5384 221.512 43.645 220.797" stroke="black" stroke-width="18.9995" stroke-linecap="round"/>
<path d="M28.9965 273.582C28.5141 273.636 27.9962 274.381 27.6353 274.675C26.3837 275.695 25.11 276.884 24.0882 278.133C22.4887 280.088 21.4356 282.085 20.4915 284.402C19.8276 286.032 19.2459 287.652 18.703 289.33C18.0629 291.309 17.3716 293.293 17.3716 295.401C17.3716 298.078 17.3481 300.764 18.4447 303.27C19.0512 304.657 19.2921 306.136 19.786 307.562C20.5491 309.767 21.3328 311.908 22.3793 314.001" stroke="black" stroke-width="18.9995" stroke-linecap="round"/>
<path d="M32.9298 265.354C32.9038 265.562 32.0908 265.938 31.8965 266.07C30.8841 266.757 29.7386 267.19 28.7369 267.858C27.3911 268.756 26.1274 269.666 25.5972 271.256" stroke="black" stroke-width="18.9995" stroke-linecap="round"/>
<path d="M32.1812 263.043V262.984" stroke="black" stroke-width="18.9995" stroke-linecap="round"/>
<path d="M27.703 252.386C27.703 252.209 27.436 251.414 27.436 251.852" stroke="black" stroke-width="8.14263" stroke-linecap="round"/>
<path d="M21.1503 274.429C20.9346 274.24 20.7705 275.014 20.7705 275.188" stroke="black" stroke-width="18.9995" stroke-linecap="round"/>
<path d="M18.1105 280.63C18.1105 282.067 17.9576 283.377 17.7588 284.808C17.6156 285.839 17.4775 286.732 17.4775 287.79C17.4775 289.369 17.5969 290.887 17.7307 292.459C17.8944 294.382 18.3565 296.272 18.5184 298.198C18.7129 300.513 18.4874 302.84 18.6801 305.153C18.785 306.412 18.87 307.666 18.87 308.93C18.87 309.434 18.9021 309.951 18.6168 310.378" stroke="black" stroke-width="18.9995" stroke-linecap="round"/>
<path d="M18.7422 315.316H18.8688" stroke="black" stroke-width="18.9995" stroke-linecap="round"/>
<path d="M36.9731 266.452C36.9731 270.151 39.7176 273.357 40.4543 276.959C40.9911 279.583 41.0239 282.084 41.0239 284.758C41.0239 286.153 40.9544 287.421 40.7145 288.795C40.4691 290.2 40.2561 291.609 39.969 293.007C39.8441 293.616 39.4029 295.419 39.4627 294.801C39.7846 291.474 40.7675 288.066 41.4037 284.807" stroke="black" stroke-width="18.9995" stroke-linecap="round"/>
<path d="M42.7937 278.606C42.8298 278.931 43.157 279.332 43.3001 279.619C43.6569 280.332 44.0261 281.022 44.4323 281.707C45.1188 282.866 45.3438 284.373 45.3255 285.695C45.3057 287.12 44.5169 288.194 44.1159 289.507C43.673 290.956 43.4267 292.462 43.4267 293.979C43.4267 296.814 42.7604 299.629 40.9934 301.926C38.3269 305.393 36.8434 309.558 34.439 313.164" stroke="black" stroke-width="18.9995" stroke-linecap="round"/>
<path d="M43.5541 287.973C43.5541 289.215 44.1274 290.351 44.187 291.573C44.2479 292.82 44.2708 294.237 44.6301 295.434C44.8629 296.21 44.9696 296.913 44.9466 297.72C44.9231 298.543 44.104 299.523 43.6737 300.195C42.357 302.253 41.7252 304.498 40.8676 306.764C39.9629 309.155 38.6566 311.156 36.5918 312.657" stroke="black" stroke-width="18.9995" stroke-linecap="round"/>
<path d="M42.5407 304.555C42.5407 307.119 42.6333 309.798 40.7122 311.757C39.6202 312.87 38.3871 313.768 37.2311 314.809C36.6428 315.338 36.0059 315.708 35.4799 316.328C35.0643 316.817 34.6332 317.273 34.1789 317.727C33.5056 318.401 33.0593 319.179 32.5403 319.971C32.0951 320.65 31.5188 321.222 31.0845 321.898C30.7137 322.475 30.103 322.816 29.6288 323.29C29.1448 323.774 28.8715 324.051 28.2363 323.67" stroke="black" stroke-width="18.9995" stroke-linecap="round"/>
<path d="M29.1238 321.899C29.1238 322.999 29.2969 324.363 29.0042 325.387C28.9039 325.738 28.5945 326.062 28.4979 326.4C28.3888 326.782 28.2647 327.394 27.8579 327.089" stroke="black" stroke-width="18.9995" stroke-linecap="round"/>
<path d="M31.1855 26.3438C31.1855 27.9028 31.1994 29.2383 30.5579 30.7114C29.8783 32.272 29.0857 34.2531 27.621 35.1544C26.3318 35.9478 24.9992 35.6925 23.8307 34.803C22.4989 33.7892 21.8296 31.7818 20.3416 31.0378C19.7309 30.7324 19.2266 31.6743 18.7602 32.0418C17.3094 33.1848 15.9676 35.0254 14.7941 36.4597C13.471 38.0768 12.7057 40.1515 12.3843 42.208C12.0714 44.211 11.8462 46.9972 12.4345 48.9352C13.5239 52.5236 14.7582 56.123 15.6476 59.7791C16.4747 63.1796 18.0523 66.4186 19.8395 69.4432C20.682 70.869 21.0922 72.6344 21.6468 74.1874C21.8948 74.8817 22.0361 75.8067 22.5505 76.321C23.0264 76.797 23.8915 77.047 24.2323 77.6263C24.4645 78.0211 24.9161 78.0698 25.1862 78.417C25.261 78.5132 25.5376 79.052 25.5376 78.7559" stroke="black" stroke-width="18.9995" stroke-linecap="round"/>
<path d="M32.7653 21.3728C32.7653 21.6847 32.7873 21.0615 32.7151 20.9712C32.5217 20.7295 32.2697 20.5566 32.0875 20.2935C31.8199 19.9068 31.2888 18.7566 31.6859 18.2602C32.0527 17.8018 32.3526 17.7454 32.3134 17.0805C32.2645 16.2491 31.2878 17.4136 31.1839 17.5825C30.1321 19.2916 29.2091 20.6562 27.7952 22.151C26.4238 23.6007 25.3447 25.365 23.9546 26.7948C23.6459 27.1123 22.7495 28.451 22.5991 28.1503" stroke="black" stroke-width="18.9995" stroke-linecap="round"/>
<path d="M30.9585 26.7964C31.2779 28.2738 32.2582 29.5563 33.1423 30.7499C34.6621 32.8016 36.3566 28.4263 37.0582 27.4741" stroke="black" stroke-width="18.9995" stroke-linecap="round"/>
<path d="M36.1545 25.8916C36.1545 29.4472 37.402 32.3032 38.4137 35.6561C39.2904 38.5619 39.4793 41.7245 39.2671 44.7429C38.8697 50.3949 35.1765 54.4193 32.2889 59.0132C30.9081 61.2099 29.6066 63.8817 29.1386 66.4558C28.8281 68.1639 28.1768 69.7088 28.2475 71.4761C28.3041 72.8905 32.8753 69.8813 33.4435 69.719C34.1665 69.5125 34.5731 68.6346 34.912 68.0246C35.4885 66.9868 36.1098 65.9927 36.7319 64.9748C39.0309 61.2127 41.9586 57.5118 42.5303 53.0013C43.4237 45.9533 43.8734 36.3214 38.4137 30.8617" stroke="black" stroke-width="18.9995" stroke-linecap="round"/>
<path d="M27.3433 66.104C27.9002 66.7305 27.5049 68.2601 27.5817 69.0283C27.6397 69.6082 28.021 70.1672 28.021 70.7353C28.021 71.1048 27.9496 71.5329 28.134 71.8648C28.4461 72.4267 28.535 73.2462 28.9749 73.7349C29.1855 73.9689 30.1266 74.9508 29.6024 74.6888" stroke="black" stroke-width="18.9995" stroke-linecap="round"/>
<path d="M87.1571 57.1901C86.9169 59.7127 85.2576 62.0429 84.2279 64.293C82.5772 67.9001 81.5025 71.5531 80.2648 75.3016C79.8382 76.5935 79.3787 78.2214 78.714 79.4178C78.5863 79.6477 78.1285 75.4453 77.9865 74.5932C77.2318 70.0649 76.4129 65.763 74.5595 61.5553C73.8341 59.9083 73.1969 58.4323 71.6686 57.3816C70.9385 56.8797 70.3612 56.8455 69.5051 56.8455C68.0763 56.8455 66.5565 56.0107 65.2932 55.3905C64.6159 55.058 61.6556 53.0515 61.6556 54.4332C61.6556 55.0479 61.9233 55.4548 62.1725 56.0031C62.8343 57.4592 62.3448 59.8983 62.3448 61.4404C62.3448 64.2043 62.3221 66.8713 62.0193 69.5963C61.7883 71.6752 61.1184 73.8228 60.9663 75.8759C60.8527 77.4105 59.9844 79.0757 59.5113 80.5474C58.8945 82.4665 59.2433 84.8134 59.2433 86.827C59.2433 91.283 59.3063 95.4741 60.2005 99.8458C60.5833 101.717 61.2882 103.867 62.4214 105.436C63.9548 107.559 64.5634 109.941 65.5995 112.309C66.7021 114.83 67.8594 117.219 69.0457 119.699C70.2575 122.233 73.0951 124.802 75.0956 126.802" stroke="black" stroke-width="18.9995" stroke-linecap="round"/>
<path d="M77.162 76.4878C77.162 81.4135 76.9639 86.3891 77.2386 91.3062C77.7915 101.203 84.2523 108.6 89.6064 116.425C90.8146 118.191 92.0891 119.814 93.6844 121.249C94.3379 121.838 95.6224 122.219 96.0393 123.011C96.5623 124.005 94.0041 123.659 93.6652 123.489C87.6239 120.469 69.6569 111.341 75.1326 115.295C77.0391 116.672 78.5167 118.675 80.0721 120.407C84.3261 125.144 89.0693 129.39 94.3545 132.947C98.0332 135.423 102.742 139.897 107.488 139.897" stroke="black" stroke-width="18.9995" stroke-linecap="round"/>
<path d="M80.609 120.599C80.609 122.399 79.9479 125.666 81.2217 127.223C82.0656 128.255 82.9903 130.349 84.0552 131.014C84.568 131.335 84.6824 132.059 85.2613 132.316C85.6816 132.503 86.4089 132.821 86.7355 133.082C87.8093 133.941 88.8196 135.199 90.0859 135.762C93.2422 137.165 96.9976 138.937 100.52 139.208C102.144 139.333 104.143 139.805 105.766 140.166C108.625 140.801 112.139 140.242 115.071 140.242C115.942 140.242 117.528 140.124 116.219 139.055C112.782 136.249 109.505 133.349 106.149 130.459C105.815 130.171 99.6764 124.866 101.114 128.027C102.251 130.529 102.488 133.174 104.56 135.245C106.987 137.673 108.898 139.44 111.969 140.931C116.105 142.94 120.253 145.027 124.892 145.431C131.427 145.999 137.826 146.163 143.674 142.654" stroke="black" stroke-width="18.9995" stroke-linecap="round"/>
<path d="M150.911 132.661C150.911 130.38 150.685 127.992 151.179 125.768C151.56 124.054 152.126 122.769 152.634 121.116C152.898 120.258 153.436 119.145 153.859 118.359C154.271 117.595 155.008 115.156 155.008 116.023C155.008 116.907 153.219 119.158 152.634 119.91C151.882 120.876 151.398 122.133 150.566 123.011C150.003 123.607 148.043 124.73 147.197 123.969C145.477 122.42 148.16 120.709 148.863 119.699C150.964 116.678 151.845 112.726 153.323 109.399C154.097 107.658 155.849 105.945 156.923 104.383C158.256 102.444 159.38 100.536 160.981 98.8117C165.861 93.5569 171.721 89.2396 177.083 84.4145C178.045 83.5487 178.946 82.8334 180.012 82.1553C180.594 81.7851 180.868 80.9912 181.39 80.6429C183.146 79.4724 177.6 82.6187 176.068 84.0699C175.089 84.9976 173.802 85.9541 172.966 86.9991C172.767 87.2489 172.059 87.5054 171.741 87.7075C171.012 88.1715 170.302 88.6624 169.597 89.1625C166.884 91.0875 167.662 88.8949 167.453 86.4822" stroke="black" stroke-width="18.9995" stroke-linecap="round"/>
<path d="M149.876 112.673C149.876 111.396 149.958 110.115 149.723 108.863C149.372 106.989 151.646 103.883 152.461 102.162C153.995 98.9232 157.318 96.6163 159.794 94.1405C162.48 91.4539 165.565 88.1192 168.849 86.2718C170.601 85.2865 172.222 83.9745 173.999 83.0362C175.085 82.4633 176.756 81.7021 176.756 80.2793" stroke="black" stroke-width="18.9995" stroke-linecap="round"/>
<path d="M146.429 35.4795C143.603 36.1859 153.468 53.1468 154.967 54.7014C157.159 56.9745 158.616 59.6739 161.113 61.7085C164.392 64.38 167.046 67.7718 170.169 70.6111C171.373 71.7053 173.649 73.6358 175.376 73.7318C178.245 73.8911 177.149 68.3215 177.08 66.4566C176.9 61.5934 176.121 56.2705 174.266 51.753C173.104 48.9236 170.967 44.2439 168.331 42.4484C166.878 41.4585 165.208 40.8865 163.736 39.9595C163.22 39.6343 162.523 39.7543 162.281 39.2703" stroke="black" stroke-width="18.9995" stroke-linecap="round"/>
<path d="M124.03 35.8237C124.03 40.295 122.148 43.56 119.913 47.33C118.899 49.0424 117.443 50.5358 116.123 52.0206C114.562 53.776 113.504 55.9251 111.892 57.6111C108.353 61.3102 105.303 65.5742 101.955 69.4237C101.123 70.3807 100.068 71.0898 99.294 72.0849C99.0134 72.4457 101.567 71.6211 101.783 71.4914C104.326 69.9652 105.104 67.3469 107.067 65.3841C110.572 61.8787 114.344 58.6707 117.827 55.1222C120.891 52.0005 124.32 47.8492 125.064 43.3861C125.359 41.6108 126.028 39.9754 126.097 38.1595C126.109 37.8681 126.442 37.0637 126.442 37.3554C126.442 38.1053 125.737 39.1522 125.408 39.7868C123.021 44.3913 119.897 48.57 117.559 53.2459C116.053 56.2564 114.704 59.2793 112.811 62.0336C111.461 63.9969 109.965 65.4931 108.369 67.1837C107.676 67.9176 106.8 68.2766 106.129 69.0599C105.085 70.2775 108.68 67.1132 109.9 66.0733C112.142 64.1639 124.209 49.1532 121.273 47.196" stroke="black" stroke-width="18.9995" stroke-linecap="round"/>
<path d="M97.4958 68.9072C97.4958 71.1915 97.469 73.4772 97.4958 75.7612C97.5393 79.4583 99.1394 83.5068 100.827 86.7698C102.761 90.5091 103.799 94.4954 106.111 98.0463C108.421 101.594 110.587 105.337 114.037 107.925C114.697 108.42 116.45 110.847 116.45 109.074C116.45 105.032 114.337 101.179 112.467 97.6634C111.113 95.1171 109.408 92.7978 108.045 90.2734C106.776 87.9238 106.116 85.3738 104.752 83.0556C103.836 81.4979 102.331 79.2966 101.976 77.5226" stroke="black" stroke-width="18.9995" stroke-linecap="round"/>
<path d="M104.73 86.4821C104.889 87.9095 106.388 88.9106 107.143 90.0049C108.402 91.8313 109.731 93.7076 110.666 95.7102C113.13 100.99 116.544 105.93 119.223 111.122C120.879 114.329 122.287 120.321 125.752 122.054C128.151 123.254 125.788 118.147 125.58 117.497C124.277 113.445 124.307 108.778 121.961 105.091C119.925 101.891 118.883 98.3576 116.447 95.3655C115.446 94.1353 114.581 92.9056 113.614 91.6514C112.463 90.1599 110.749 89.1046 109.727 87.516C108.758 86.008 106.586 85.5022 106.109 84.0698" stroke="black" stroke-width="18.9995" stroke-linecap="round"/>
<path d="M81.2959 59.6032C81.2959 52.7314 83.6296 46.9756 87.5756 41.3386C89.2081 39.0063 91.0208 34.9464 93.7786 33.6805C102.117 29.853 111.043 27.9191 119.816 25.2948C129.086 22.5217 137.717 19.2832 147.462 19.2832C151.196 19.2832 154.652 19.4994 158.337 20.1639C161.158 20.6728 164.106 21.2936 166.741 22.4422C167.853 22.9267 170.33 23.826 171.087 24.797C173.653 28.0886 176.973 36.9028 177.865 39.156C184.843 56.7987 187.993 66.6011 195.019 85.1047" stroke="black" stroke-width="18.9995" stroke-linecap="round"/>
<path d="M168.141 26.1748C171.714 26.1748 174.464 26.5525 177.79 27.8979C181.579 29.4302 184.706 31.8985 188.11 34.101C195.443 38.8457 197.249 49.1974 198.467 57.1136C199.966 66.8582 200.88 76.4919 200.88 86.3484C200.88 95.0445 196.048 103.455 189.68 109.208C183.899 114.429 177.96 119.326 171.243 123.356C167.959 125.327 164.716 127.317 161.44 129.291C158.546 131.036 155.627 133.263 152.499 134.537C150.572 135.322 146.847 136.461 145.818 138.519C144.91 140.335 148.12 142.31 149.532 142.31" stroke="black" stroke-width="18.9995" stroke-linecap="round"/>
<path d="M149.875 141.966C152.746 141.966 155.618 141.966 158.49 141.966C160.54 141.966 155.315 144.528 154.527 144.703C152.082 145.247 154.276 144.714 155.599 144.206C159.78 142.597 164.745 144.891 168.828 143.076C170.279 142.431 171.796 141.755 173.327 141.085C175.576 140.101 178.246 139.612 180.354 138.347C182.291 137.185 184.208 136.358 186.136 135.073C187.919 133.885 189.727 132.439 191.247 130.919C196.357 125.81 202.909 121.78 207.081 115.851C207.677 115.004 208.72 114.454 209.072 113.439C209.626 111.837 207.582 113.44 207.253 113.726C205.031 115.659 202.862 118.676 201.222 121.136C198.782 124.796 197.152 128.69 194.062 131.895C193.518 132.46 192.806 133.198 192.434 133.867C191.518 135.517 191.918 132.75 191.918 131.972" stroke="black" stroke-width="18.9995" stroke-linecap="round"/>
<path d="M207.426 116.12C207.426 112.441 207.253 108.847 208.116 105.245C209.108 101.1 210.369 97.0253 211.37 92.8774C212.13 89.73 212.161 86.5928 212.615 83.4196C212.782 82.248 212.98 83.4432 212.864 84.0705C212.631 85.3252 212.004 86.4659 211.772 87.7273C211.475 89.346 211.577 91.0112 211.562 92.6476C211.524 96.7459 211.037 101.077 209.149 104.747C209.033 104.974 207.718 106.525 208.498 106.413C210.106 106.183 211.634 101.892 212.213 100.67C214.42 96.0103 214.777 90.4929 214.663 85.3724C214.612 83.065 213.629 80.793 213.629 78.4801C213.629 75.2284 212.661 72.2574 212.251 69.0798C211.747 65.1743 209.613 61.4083 208.288 57.7266C207.13 54.5107 206.26 51.2703 205.091 48.0774C204.294 45.9019 201.786 39.4439 202.87 41.4914C203.478 42.6403 203.484 44.0578 203.827 45.2822C204.273 46.8736 205.409 48.0739 205.876 49.6282C207.33 54.4776 208.628 59.5313 211.294 63.8148C211.916 64.8155 213.683 68.2182 215.008 68.2182C217.544 68.2182 216.418 64.2488 215.869 63.0299C214.076 59.0445 213.592 54.7451 212.251 50.6429C210.405 44.9951 206.306 41.2517 202.238 37.1837C198.323 33.2687 194.455 29.7503 189.506 27.209C187.362 26.1079 185.507 24.3395 183.227 23.4949C181.955 23.024 183.006 22.9482 183.801 23.0928C184.795 23.2736 186.215 24.1495 187.113 24.6436C191.143 26.8601 195.158 29.1106 199.156 31.3444C200.642 32.175 201.847 33.5199 203.291 34.3694C203.672 34.5935 204.706 36.1307 205.148 36.1307C206.166 36.1307 203.496 34.9315 202.602 34.446C201.462 33.8273 200.567 32.6318 199.5 31.8613C197.863 30.6787 194.746 29.284 194.331 27.209" stroke="black" stroke-width="18.9995" stroke-linecap="round"/>
<path d="M194.333 27.2086C191.967 27.2086 190.07 25.3545 188.129 24.107C186.244 22.8949 184.152 22.0426 182.271 20.8332C179.422 19.0019 176.763 18.1 173.483 17.387C166.638 15.899 159.991 14.1132 152.96 14.1132C149.907 14.1132 146.761 13.7686 143.655 13.7686C141.929 13.7686 140.176 13.6069 138.505 14.0366C136.8 14.4751 135.081 14.9723 133.336 15.1662C130.879 15.4391 128.727 16.1809 126.252 16.1809C124.874 16.1809 123.644 15.9847 122.308 15.8363C121.495 15.7459 120.69 15.147 119.723 15.147C114.163 15.147 108.274 15.3641 102.933 16.9467C97.5102 18.5534 91.955 20.2703 87.2338 23.4178C85.2549 24.7371 82.9396 25.976 81.2222 27.6298C79.1015 29.6719 76.8374 32.2038 74.4831 33.9477C72.1868 35.6487 68.7685 39.8161 68.548 42.7928C68.4505 44.1093 67.1252 45.0698 66.8441 46.3347C66.7005 46.9809 66.6844 48.3004 66.1357 48.5747" stroke="black" stroke-width="18.9995" stroke-linecap="round"/>
<path d="M129.199 24.796C130.705 24.6078 128.45 19.5621 128.089 18.9375C127.194 17.3928 125.197 16.7242 123.858 15.6828C123.414 15.3375 122.529 15.6675 122.326 14.9553C122.152 14.3446 122.651 13.7082 123.149 13.4237C124.216 12.8141 125.611 12.687 126.787 13.0791" stroke="black" stroke-width="18.9995" stroke-linecap="round"/>
<path d="M152.817 176.196C161.484 176.196 173.117 174.204 180.951 178.631C181.225 178.787 184.533 180.557 183.129 181.259C180.66 182.493 175.835 179.809 173.581 178.952C168.009 176.833 162.803 173.825 157.303 171.71C155.015 170.83 153.183 168.403 156.983 168.121C161.868 167.759 166.854 167.282 171.851 167.544C174.99 167.71 178.038 169.008 181.079 169.723C184.804 170.6 188.889 172.818 192.582 173.28C195.098 173.595 197.392 174.966 199.791 175.651C201.317 176.087 199.445 176.196 198.926 176.196C197.175 176.196 194.859 176.591 193.223 175.876C189.987 174.46 187.76 170.087 184.251 169.307C184 169.251 182.191 168.369 183.162 168.153C184.695 167.813 186.577 168.478 188 168.986C195.856 171.792 202.548 176.374 209.372 181.066C221.813 189.62 222.96 204.219 226.643 217.723" stroke="black" stroke-width="18.9995" stroke-linecap="round"/>
<path d="M185.693 181.964C186.94 182.089 188.101 182.936 189.089 183.63C193.419 186.67 197.508 190.306 201.394 193.884C213.004 204.572 223.355 217.653 232.154 230.732C236.834 237.689 239.906 244.968 242.856 252.777C243.76 255.168 245.099 257.801 245.099 260.404" stroke="black" stroke-width="18.9995" stroke-linecap="round"/>
<path d="M160.891 188.884C161.856 194.192 167.604 198.885 170.664 203.015C174.835 208.646 179.125 214.46 183.705 219.773C188.399 225.219 192.164 231.454 196.906 236.884C202.18 242.922 207.488 250.612 214.53 254.635" stroke="black" stroke-width="18.9995" stroke-linecap="round"/>
<path d="M170.263 169.477C171.51 169.477 173.302 169.876 174.181 168.778C174.795 168.011 176.502 167.463 177.384 166.958C179.323 165.85 182.453 167.263 184.349 168.016C187.13 169.119 190.184 169.535 192.994 170.597C195.207 171.433 197.421 171.996 199.788 171.996C202.182 171.996 203.606 173.401 205.821 173.955C207.804 174.451 209.005 176.233 210.625 177.313C212.576 178.614 214.574 179.864 216.222 181.573C217.962 183.378 220.135 184.678 221.882 186.424C222.62 187.162 223.126 188.006 223.981 188.648C224.314 188.898 225.311 189.833 224.245 189.596C221.338 188.95 220.039 184.733 217.839 182.973C217.244 182.496 214.1 178.841 216.222 179.334C219.699 180.143 221.269 185.398 223.281 187.792C225.639 190.6 228.059 193.792 229.749 197.059C231.698 200.827 233.171 204.098 233.574 208.44C233.85 211.422 233.791 214.403 233.791 217.395C233.791 218.936 234.003 220.617 233.511 222.091" stroke="black" stroke-width="18.9995" stroke-linecap="round"/>
<path d="M214.762 180.672C220.278 182.205 224.866 186.255 229.159 189.768C231.557 191.73 232.231 195.281 234.01 197.744C235.045 199.177 235.792 200.789 236.855 202.206C237.41 202.946 237.935 203.716 238.488 204.46C238.957 205.092 239.714 205.487 240.089 206.155C241.566 208.781 242.515 210.976 243.09 213.913C243.983 218.48 244.336 223.072 244.722 227.704C244.858 229.329 245.209 230.889 245.267 232.509C245.299 233.411 245.339 235.826 245.889 236.582C246.683 237.674 247.378 236.114 247.49 235.385C247.724 233.863 247.505 232.164 247.505 230.627C247.505 228.512 247.297 226.502 246.666 224.61" stroke="black" stroke-width="18.9995" stroke-linecap="round"/>
<path d="M242.469 228.247C242.469 232.584 243.036 236.405 244.149 240.561C244.95 243.554 246.023 246.671 246.108 249.796C246.146 251.206 245.463 255.246 246.17 254.025C248.303 250.34 249.583 246.481 250.15 242.271C250.296 241.186 250.354 239.922 250.725 238.882C251.067 237.926 250.109 239.099 250.026 239.473C249.656 241.135 249.052 242.505 248.906 244.261C248.698 246.765 248.626 249.23 248.626 251.74C248.626 257.167 247.902 261.694 245.828 266.65C244.966 268.708 235.978 281.233 234.353 279.337C233.799 278.691 234.082 277.117 234.058 276.368C234.004 274.695 233.614 273.135 233.296 271.501C232.381 266.794 231.485 261.922 229.814 257.415C226.246 247.793 219.405 239.97 215.323 230.657C213.912 227.438 212.498 224.148 210.97 220.987C209.565 218.081 208.756 214.863 207.192 212.047C205.703 209.367 202.98 207.798 200.04 207.133C197.662 206.597 195.06 206.911 192.639 206.543C190.037 206.147 187.409 206.054 184.803 205.703C180.582 205.135 176.472 203.942 172.287 203.278C171.659 203.178 169.986 202.569 169.986 203.62C169.986 204.41 170.266 205.176 170.266 206.014C170.266 207.952 170.193 209.588 170.888 211.394C171.601 213.249 173.225 214.867 174.246 216.555C175.671 218.912 177.569 221.024 178.801 223.49C181.006 227.9 184.552 231.862 187.508 235.804C188.997 237.788 190.88 239.499 192.717 241.152C194.556 242.807 196.495 244.63 198.547 246.018C201.579 248.07 204.636 249.988 207.922 251.631C208.098 251.719 211.028 252.847 210.783 253.093C210.009 253.866 207.305 252.758 206.772 252.098C204.747 249.591 201.186 248.112 198.563 246.314C195.65 244.318 192.71 242.113 190.011 239.846C186.117 236.574 181.434 232.839 179.346 228.092C178.381 225.9 177.39 223.476 176.267 221.391C175.616 220.181 175.676 217.27 174.184 216.773" stroke="black" stroke-width="18.9995" stroke-linecap="round"/>
<path d="M108.414 226.568C110.705 227.841 111.484 230.15 113.032 232.041C113.658 232.806 113.799 233.569 114.633 234.125C115.676 234.82 116.977 235.443 117.914 236.224C118.819 236.978 119.996 237.665 121.008 238.26C121.417 238.501 121.738 238.849 121.863 239.286C121.959 239.624 122.127 240.555 122.127 239.722" stroke="black" stroke-width="18.9995" stroke-linecap="round"/>
<path d="M98.9014 259.872C99.0458 258.716 104.454 260.388 105.027 260.618C110.325 262.743 115.26 266.278 119.673 269.853C125.67 274.712 130.977 280.521 134.443 287.453C135.111 288.787 136.532 292.288 135.283 288.542C134.164 285.185 132.603 282.005 131.241 278.747C129.471 274.514 128.165 270.099 125.923 266.075C124.244 263.061 122.202 260.842 120.062 258.208C119.812 257.901 118.842 257.353 119.238 257.353C120.171 257.353 120.923 257.933 121.725 258.348C124.071 259.561 126.005 261.508 127.851 263.354C129.882 265.385 132.029 267.456 133.713 269.791C135.783 272.663 137.591 275.503 138.641 278.902C139.349 281.191 139.359 283.642 140.041 285.899C140.849 288.576 141.606 291.101 142.622 293.735C143.823 296.849 145.805 301.011 149.696 301.011C152.919 301.011 155.833 299.7 158.931 298.897C162.923 297.862 165.034 295.052 167.467 291.993C169.585 289.331 171.212 286.243 173.406 283.66C176.333 280.214 179.282 276.804 182.144 273.305C185.388 269.34 189.769 265.594 193.774 262.39C195.649 260.89 197.701 259.769 199.868 258.752C200.958 258.241 201.813 257.406 202.978 257.073C203.355 256.965 204.096 256.75 203.273 257.213C201.685 258.107 200.227 258.679 198.391 258.877C194.674 259.277 191.267 259.16 187.741 260.727C184.633 262.108 182.012 263.174 179.314 265.22C176.673 267.224 174.483 269.814 172.504 272.465C170.669 274.924 168.972 277.752 168.089 280.706C167.285 283.396 167.427 286.198 167.467 288.977C167.504 291.562 170.225 292.31 172.473 292.335C177.331 292.391 181.179 291.349 185.72 289.646C191.223 287.582 196.069 284.439 201.066 281.405C203.29 280.055 205.497 278.842 207.083 276.803C207.985 275.643 207.688 273.135 207.907 271.75C208.303 269.241 209.166 266.597 209.166 264.07" stroke="black" stroke-width="18.9995" stroke-linecap="round"/>
<path d="M206.926 266.31C206.926 267.132 205.551 268.371 205.029 268.984C203.315 270.996 201.206 272.949 199.229 274.705C193.069 280.181 187.566 286.509 181.738 292.336" stroke="black" stroke-width="18.9995" stroke-linecap="round"/>
<path d="M69.1834 257.33C69.1834 262.095 68.66 267.14 69.291 271.854C69.848 276.015 70.9484 280.657 72.5587 284.548C73.0832 285.816 73.6814 287.051 74.2128 288.313C74.3086 288.541 72.4486 286.344 72.1822 285.974C69.311 281.982 65.0151 276.91 64.8263 271.719C64.8021 271.054 64.4096 270.226 64.5977 269.567C64.6748 269.298 65.6679 269.428 65.9022 269.379C68.5513 268.821 71.6119 269.131 74.2935 269.218C80.2946 269.411 86.2134 271.145 91.7351 273.413C94.4395 274.525 97.0219 275.728 98.5262 278.335C99.5436 280.099 99.786 281.927 100.409 283.849C100.731 284.843 104.045 292.641 102.803 293.262C101.622 293.852 100.241 292.484 99.3868 291.891C95.133 288.934 91.0586 285.742 86.8939 282.665C86.2684 282.203 79.1687 276.676 78.3278 278.147C77.147 280.213 75.3959 281.769 73.7825 283.472C73.2094 284.077 72.2453 286.848 71.0929 286.592C69.0391 286.136 68.1929 282.773 65.9559 282.773C65.3227 282.773 66.5429 283.669 66.6283 283.714C68.3825 284.64 69.7881 286 71.1736 287.399C74.6047 290.864 77.7167 294.668 81.1518 298.103C83.6508 300.602 86.498 302.385 89.7583 303.805C94.7251 305.968 100.255 306.109 105.6 305.634C110.005 305.242 114.97 304.186 119.424 304.8C121.21 305.047 122.995 305.698 124.803 305.984C126.46 306.245 128.123 306.445 129.779 306.71C129.946 306.737 131.538 307.083 130.989 307.436C129.072 308.668 125.49 307.809 123.593 307.14C119.189 305.589 114.89 303.88 110.36 302.702C104.77 301.25 99.1157 299.958 93.6312 298.13C87.5207 296.093 82.3776 292.752 76.7275 289.793C76.3024 289.57 71.1574 286.703 71.1198 287.641C71.0459 289.489 70.8778 291.315 70.8778 293.168C70.8778 297.205 75.863 298.927 78.8119 300.658C81.5592 302.272 83.5632 304.678 86.1274 306.468C87.9168 307.717 89.5447 309.401 91.0762 310.932C92.3714 312.228 90.224 312.48 89.2607 312.143C87.0519 311.37 85.0847 309.886 83.1152 308.646C81.5741 307.676 80.6763 306.807 79.5784 305.526C78.9822 304.831 78.1395 304.306 78.1395 303.321" stroke="black" stroke-width="18.9995" stroke-linecap="round"/>
<path d="M79.5918 296.059C79.7762 297.073 80.7631 298.108 81.2862 298.964C82.2891 300.605 83.4159 302.17 84.433 303.805C85.3837 305.333 86.4976 306.757 87.4587 308.283C87.9443 309.054 88.6256 310.248 89.3817 310.798C90.3885 311.53 91.1192 312.574 91.9367 313.487C92.5015 314.118 93.3882 315.508 93.6311 316.298C93.9301 317.27 95.9941 318.447 95.9441 319.297C95.8786 320.411 92.5018 317.199 92.1654 316.863C91.0835 315.781 89.6374 314.004 88.3059 313.299C87.9242 313.097 87.8886 313.245 88.4269 313.245C89.169 313.245 89.7286 313.359 90.4306 313.635C96.6385 316.081 102.356 319.649 108.679 321.838C115.403 324.166 122.57 325.59 129.698 325.59C136.993 325.59 143.646 321.233 150.999 321.233C151.905 321.233 152.209 322.667 152.209 323.412C152.209 324.479 150.78 325.325 150.031 326.074C148.675 327.43 147.685 328.288 145.916 329.033C144.879 329.469 144.112 329.463 142.957 329.463C141.887 329.463 141.061 329.369 140.052 328.965C137.956 328.127 135.716 327.715 133.571 327.029C128.553 325.424 123.647 323.477 118.617 321.905C115.933 321.067 112.799 320.265 109.957 320.265C108.022 320.265 103.071 319.515 103.071 322.564C103.071 323.981 106.83 325.331 107.859 325.778C110.109 326.758 112.439 327.51 114.69 328.495C123.751 332.459 133.694 332.126 143.387 332.126C147.627 332.126 151.378 331.815 155.221 329.947C157.304 328.935 159.567 328.181 161.784 327.527C163.663 326.972 166.078 326.733 167.782 325.711C168.884 325.05 169.032 323.533 169.395 322.443" stroke="black" stroke-width="18.9995" stroke-linecap="round"/>
<path d="M147.853 325.348C151.205 325.348 154.216 326.417 157.401 327.405C159.671 328.11 162.534 328.819 164.434 330.297C165.061 330.784 165.803 330.981 166.491 331.346C167.566 331.915 165.081 332.368 164.743 332.368C163.266 332.368 161.931 331.747 160.494 331.453C160.212 331.396 159.346 331.399 159.633 331.399C160.235 331.399 160.802 331.18 161.408 331.157C164.036 331.06 166.492 330.763 169.127 331.278C171.513 331.745 173.97 332.61 176.416 332.61C179.531 332.61 182.453 332.573 185.52 332.005C191.034 330.983 196.234 329.487 201.59 327.957C203.86 327.308 206.347 326.105 208.408 324.971C211.12 323.48 213.909 321.925 216.355 320.023C218.767 318.147 221.029 316.122 223.429 314.213C226.562 311.721 228.954 308.434 232.035 305.849C234.609 303.69 237.463 301.744 238.732 298.48C239.17 297.355 238.695 296.007 238.988 294.835C239.382 293.257 239.3 291.354 239.364 289.725C239.516 285.856 239.593 282.019 239.593 278.147C239.593 276.291 239.489 273.86 240.077 272.095" stroke="black" stroke-width="18.9995" stroke-linecap="round"/>
<path d="M240.078 272.096C240.078 275.492 240.32 278.846 240.32 282.262C240.32 283.878 239.836 285.38 239.836 286.983C239.836 287.914 240.13 287.929 241.046 287.83C242.521 287.67 243.476 285.849 244.059 284.683C244.483 283.835 244.06 282.695 244.314 281.778C244.677 280.472 244.744 279.17 244.973 277.852C245.189 276.61 245.294 275.301 245.39 274.046C245.442 273.369 245.63 271.992 245.35 271.37C244.289 269.012 240.101 269.277 238.048 269.81C235.959 270.351 234.571 272.744 233.301 274.275C230.726 277.376 228.34 280.653 225.756 283.728C221.264 289.077 216.466 294.345 211.273 299.018C209.728 300.409 208.318 302.147 206.378 303.026C203.781 304.203 200.972 304.901 198.189 305.487C195.033 306.151 191.909 306.746 188.789 307.557C186.806 308.073 184.406 308.569 182.953 310.099C182.3 310.786 181.984 312.202 181.984 313.111C181.984 314.323 182.808 315.077 184.028 315.276C186.045 315.606 188.122 315.14 190.107 314.833C191.01 314.693 191.158 314.487 191.478 314.886C191.844 315.343 192.393 315.424 192.931 315.424C195.227 315.424 196.861 314.069 199.009 313.259C202.367 311.994 205.934 311.338 209.283 310.045C211.721 309.105 213.944 307.456 216.088 305.998C218.198 304.562 220.192 302.909 222.22 301.358C224.223 299.826 225.715 298.763 227.222 296.705C228.587 294.842 229.57 292.584 230.517 290.479C230.878 289.676 231.315 288.556 230.154 288.556" stroke="black" stroke-width="18.9995" stroke-linecap="round"/>
<path d="M40.5821 81.3359C40.5821 86.3953 39.232 91.6459 43.2015 95.2184C44.9785 96.8177 46.9601 96.0338 48.833 96.921C52.1752 98.5041 54.9877 100.915 58.2626 102.553" stroke="black" stroke-width="18.9995" stroke-linecap="round"/>
<path d="M35.1865 252.894C41.0669 252.894 47.1158 252.433 52.9693 252.942C55.4154 253.155 60.1416 254.991 62.5594 253.569C67.0296 250.939 51.7777 221.433 47.8128 233.328C44.9966 241.777 45.1749 254.534 49.5477 262.484C51.2222 265.529 52.9404 266.953 56.0054 268.315C58.9537 269.626 58.6077 268.458 58.6077 265.906" stroke="black" stroke-width="18.9995" stroke-linecap="round"/>
</g>
<defs>
<clipPath id="clip0_205_5586">
<rect width="263.786" height="354.06" fill="white" transform="translate(0.585938)"/>
</clipPath>
</defs>
</svg>
