<svg width="265" height="355" viewBox="0 0 265 355" fill="none" xmlns="http://www.w3.org/2000/svg">
<g style="mix-blend-mode:darken" clip-path="url(#clip0_205_5694)">
<rect width="263.786" height="354.06" transform="translate(0.320312 0.842285)" fill="white"/>
<path d="M121.003 174.602C152.67 176.633 211.283 162.43 192.998 88.6595" stroke="black" stroke-width="5.19115"/>
<path d="M122.989 176.236C116.599 146.35 121.93 87.4664 194.971 90.3092" stroke="black" stroke-width="5.19115"/>
<path d="M183.347 89.5014C215.014 91.5325 273.627 77.3295 255.342 3.55893" stroke="black" stroke-width="5.19115"/>
<path d="M185.334 91.1341C178.944 61.2484 184.275 2.36485 257.316 5.20769" stroke="black" stroke-width="5.19115"/>
<path d="M138.297 174.927C147.501 144.56 147.049 84.2521 71.0519 85.2194" stroke="black" stroke-width="5.19115"/>
<path d="M140.342 173.367C109.786 172.769 53.6733 154.141 73.1097 83.6761" stroke="black" stroke-width="5.19115"/>
<path d="M69.6723 94.7941C78.8764 64.4267 78.4243 4.11883 2.42761 5.08606" stroke="black" stroke-width="5.19115"/>
<path d="M71.7186 93.2349C41.1632 92.6364 -14.95 74.0083 4.48641 3.54379" stroke="black" stroke-width="5.19115"/>
<path d="M0.833898 344.224C32.5004 346.255 91.1137 332.052 72.8289 258.282" stroke="black" stroke-width="5.19115"/>
<path d="M2.81909 345.859C-3.5712 315.973 1.75985 257.089 74.8005 259.932" stroke="black" stroke-width="5.19115"/>
<path d="M63.3227 258.929C94.9892 260.96 153.602 246.757 135.318 172.987" stroke="black" stroke-width="5.19115"/>
<path d="M65.3083 260.562C58.9181 230.677 64.2491 171.793 137.29 174.636" stroke="black" stroke-width="5.19115"/>
<path d="M84.3994 109.687C91.1748 116.785 97.8849 123.343 106.617 128.073C115.598 132.938 125.994 136.973 136.33 137.047C144.525 137.106 151.302 132.254 157.839 127.677C160.973 125.484 164.262 123.63 167.189 121.16C168.485 120.066 169.104 119.633 169.104 117.933" stroke="black" stroke-width="18.9995" stroke-linecap="round"/>
<path d="M244.064 22.3579C243.737 25.6251 239.785 28.8488 237.859 31.1865C233.33 36.6841 228.659 42.0382 223.866 47.303C220.798 50.6728 218.111 55.9704 213.33 56.8396" stroke="black" stroke-width="18.9995" stroke-linecap="round"/>
<path d="M16.5603 24.2324C27.0001 29.0628 34.7983 38.672 43.6292 45.8251C48.8509 50.0546 54.3663 54.1291 58.9128 59.0889" stroke="black" stroke-width="18.9995" stroke-linecap="round"/>
<path d="M114.759 194.392C114.562 196.56 113.305 198.733 112.177 200.514C107.898 207.271 102.983 213.491 98.0388 219.754C96.2704 221.994 94.7072 224.26 92.6459 226.25C89.2278 229.55 85.1098 232.279 81.4019 235.245" stroke="black" stroke-width="18.9995" stroke-linecap="round"/>
<path d="M58.5386 280.597C57.7737 283.848 55.3743 287.048 53.6662 289.821C49.0318 297.345 43.2956 304.061 37.3623 310.581C33.8288 314.464 30.3664 318.589 26.3474 321.991C22.5684 325.191 18.0813 327.384 13.5625 329.321" stroke="black" stroke-width="18.9995" stroke-linecap="round"/>
<path d="M89.5996 105.416C88.4656 103.601 85.4871 101.891 83.8975 100.302C83.3701 99.7743 81.6034 97.3392 81.0464 97.2696C79.8548 97.1207 80.1531 96.0477 81.3632 96.0477C83.0325 96.0477 80.922 95.1293 82.4946 95.8441C83.7608 96.4196 85.3847 96.8763 86.7712 97.2922C89.9481 98.2453 93.1426 100.333 96.2068 101.659C106.752 106.224 115.062 112.957 123.156 121.051C126.829 124.724 130.525 128.175 135.149 130.623C136.769 131.481 138.724 132.078 140.24 133.089C142.098 134.327 135.723 132.082 133.995 130.668C130.07 127.457 125.421 123.722 122.772 119.354C121.474 117.215 120.839 114.91 119.649 112.747C118.913 111.408 117.312 110.726 116.277 109.692C113.495 106.91 109.511 106.312 106.208 104.51C103.288 102.917 99.8808 102.423 96.9309 101.026C96.0468 100.607 94.6279 100.233 93.6726 100.121C93.0497 100.047 97.0535 99.7134 97.9039 99.7134C100.09 99.7134 101.88 100.718 103.945 101.433C108.734 103.091 113.414 107.236 116.911 110.733C120.386 114.208 124.221 117.228 127.682 120.689C127.998 121.005 129.803 122.119 129.469 122.703C128.068 125.155 120.77 117.823 120.101 117.182C115.384 112.656 108.814 109.561 103.221 106.23C101.224 105.041 99.2009 103.938 97.1798 102.791C96.2042 102.237 94.82 101.122 93.6726 100.958C91.1419 100.596 92.4575 97.6803 90.8215 96.8623" stroke="black" stroke-width="18.9995" stroke-linecap="round"/>
<path d="M78.1965 95.2324C77.7418 91.5951 78.1965 102.564 78.1965 106.229C78.1965 109.856 78.4691 113.211 79.4183 116.729C80.6619 121.337 81.5555 126.171 83.8986 130.35C90.7105 142.501 98.3532 153.168 111.187 159.585C116.055 162.019 121.946 163.251 127.389 163.251C129.743 163.251 132.029 163.403 134.222 162.391C135.597 161.756 136.941 160.924 138.182 160.06C144.584 155.602 132.856 153.228 130.33 151.846" stroke="black" stroke-width="18.9995" stroke-linecap="round"/>
<path d="M97.3384 135.555C105.693 135.555 112.159 142.236 119.649 145.149C126.062 147.643 132.503 147.221 139.199 147.366C143.19 147.453 143.416 151.377 143.363 154.607C143.33 156.576 141.541 161.214 144.381 161.214C146.245 161.214 148.542 161.563 150.309 161.011C151.582 160.613 152.887 160.445 154.133 159.992C154.967 159.689 151.624 160.46 151.101 160.626C147.7 161.708 144.165 162.002 140.896 163.432C140.175 163.747 138.594 163.611 138.068 164.269C137.037 165.557 137.253 164.446 137.253 163.251" stroke="black" stroke-width="18.9995" stroke-linecap="round"/>
<path d="M140.105 163.251C141.871 164.82 145.754 163.161 147.527 162.436C151.288 160.897 155.213 159.327 158.637 157.164C160.853 155.764 163.455 154.902 165.675 153.475C167.786 152.118 168.701 150.33 170.245 148.565C174.242 143.998 177.611 138.793 181.446 134.106C181.67 133.832 182.669 131.911 182.374 132.884C181.708 135.082 179.664 137.011 178.301 138.813C176.384 141.345 175.912 144.566 174.115 147.162C173.816 147.593 171.531 151.701 173.096 150.217C175.744 147.709 178.06 145.088 179.794 141.868C182.337 137.145 182.779 130.576 183.301 125.349C183.674 121.62 184.093 118.148 184.093 114.375C184.093 112.758 183.939 111.931 182.193 111.931C178.419 111.931 176.553 115.136 174.635 117.973C169.884 125.001 165.012 131.95 160.153 138.903C155.427 145.667 151.093 152.724 145.581 158.906C144.448 160.177 143.007 161.692 141.554 162.617C140.448 163.321 140.92 160.356 140.965 159.902C141.601 153.548 143.817 147.272 144.156 140.827C144.381 136.542 144.158 131.938 145.808 127.906C147.102 124.742 149.998 122.534 151.283 119.263C152.616 115.871 152.674 115.19 148.568 115.19C147.171 115.19 144.085 116.552 143.364 117.815C143.174 118.146 143.088 117.841 143.251 117.588C143.833 116.683 145.04 116.106 145.898 115.507C147.962 114.065 150.303 113.033 152.143 111.298C155.475 108.157 160.489 106.032 164.95 104.917C169.386 103.808 174.617 103.419 178.798 101.659C180.201 101.068 181.969 101.342 183.482 101.342C185.355 101.342 185.315 101.553 185.315 103.378C185.315 105.543 185.315 107.708 185.315 109.872C185.315 111.33 184.844 113.855 185.406 115.19C185.929 116.433 185.722 117.909 185.722 119.263C185.722 121.517 184.86 122.521 182.871 122.521" stroke="black" stroke-width="18.9995" stroke-linecap="round"/>
<path d="M182.289 106.311C182.289 105.566 183.083 105.026 183.506 104.485C184.082 103.749 184.741 103.108 185.399 102.449C186.029 101.819 187.237 100.944 187.292 99.9555C187.299 99.8293 187.516 99.5143 187.502 99.64C187.455 100.061 186.717 100.802 186.556 101.218C185.967 102.737 186.075 104.357 186.075 105.958C186.075 107.833 186.065 109.709 186.075 111.584C186.093 114.812 187.698 117.725 187.698 120.914C187.698 122.207 187.578 123.458 187.998 124.67C188.366 125.734 188.012 124.085 187.976 123.754C187.597 120.349 187.567 116.882 187.457 113.462C187.361 110.47 187.297 107.461 187.758 104.5C187.883 103.693 188.208 102.752 188.238 101.954C188.269 101.155 188.238 100.348 188.238 99.5498" stroke="black" stroke-width="18.9995" stroke-linecap="round"/>
<path d="M220.421 35.4565C219.443 36.1084 218.671 37.2967 217.874 38.1459C215.185 41.0126 212.634 44.043 210.34 47.2356C206.662 52.3542 203.214 57.7414 200.191 63.274C198.491 66.3845 197.062 69.6754 195.608 72.9046C194.923 74.4275 193.351 75.5931 192.867 77.2391C192.707 77.781 192.562 78.3626 192.326 78.8617C192.281 78.9564 192.16 79.9618 192.16 79.4026" stroke="black" stroke-width="18.9995" stroke-linecap="round"/>
<path d="M192.16 79.8079C192.222 80.2992 197.974 79.8571 198.591 79.7478C201.823 79.1754 205.111 78.2067 208.146 76.9382C211.509 75.5329 214.86 74.107 218.122 72.476C220.04 71.5172 221.884 70.4411 223.771 69.4261C225.721 68.3776 227.499 67.1915 229.361 66.0156C229.683 65.8122 230.708 65.3043 230.367 65.4747C229.632 65.8423 229.008 66.3889 228.256 66.7443C225.098 68.2381 221.962 70.1754 218.468 70.7257C217.968 70.8045 210.288 72.074 211.715 69.5388C212.226 68.6298 213.642 69.6907 214.028 70.1097C215.619 71.8363 217.374 73.6236 219.595 74.5118C220.427 74.8448 221.782 74.7929 222.585 74.3916C224.533 73.4176 226.477 72.1321 228.234 70.8534C230.295 69.3532 232.421 67.8473 234.078 65.9104C235.576 64.159 236.892 61.7618 237.804 59.6603C238.734 57.5178 239.074 55.015 239.352 52.7191C239.47 51.7432 239.679 50.7849 239.757 49.8044C239.779 49.5337 240.074 48.5254 239.757 48.332C239.097 47.9283 238.45 49.5317 238.57 49.9997C238.691 50.4697 239.576 50.6995 239.945 50.8636C240.595 51.1526 241.143 51.5496 241.726 51.9528C241.981 52.1298 242.26 52.3648 242.319 52.689C242.348 52.8466 242.281 53.0493 242.462 53.1398C243.293 53.5554 243.733 51.7676 243.814 51.2843C244.026 50.0089 244.754 48.7473 245.226 47.5582C246.129 45.2842 246.561 42.889 246.977 40.4893C247.254 38.884 247.059 37.1018 247.059 35.4787C247.059 33.775 247.225 32.0978 247.322 30.4005C247.448 28.1949 247.174 26.3596 246.443 24.3006C246.166 23.5199 245.807 22.6954 245.361 21.9944C245.2 21.741 244.896 21.2826 244.896 20.9878" stroke="black" stroke-width="18.9995" stroke-linecap="round"/>
<path d="M246.518 24.0978C245.477 24.3061 244.68 26.0379 244.22 26.8097C241.044 32.1384 237.935 37.5106 234.987 42.9683C233.368 45.9668 231.798 48.9922 230.044 51.9153C228.924 53.7822 227.669 55.558 226.521 57.4066C226.382 57.6302 226.063 57.8655 225.973 58.0902C225.67 58.8461 226.745 56.6551 227.077 55.9117C228.47 52.7921 229.704 49.5348 230.811 46.3037C231.649 43.855 232.509 41.4996 232.651 38.8967C232.911 34.1411 232.891 28.8226 230.232 24.6988C229.433 23.4594 228.652 22.7456 227.212 22.7456C226.158 22.7456 225.153 22.8869 224.147 23.2414C222.567 23.7983 221.034 24.5607 219.535 25.2997C217.909 26.1016 215.952 26.9252 214.607 28.1694C213.012 29.6449 211.417 32.0211 210.31 33.6983C206.254 39.8416 205.521 41.5674 201.355 48.1667" stroke="black" stroke-width="18.9995" stroke-linecap="round"/>
<path d="M210.821 29.1006C210.302 29.1294 209.892 29.4399 209.529 29.7917C208.755 30.5423 207.887 31.1787 207.095 31.9101C205.441 33.4379 203.637 35.1407 202.332 36.9733C201.099 38.7049 200.126 40.7857 199.147 42.6675C198.117 44.6483 197.206 46.7033 196.217 48.7073C194.464 52.2601 193.707 56.5272 193.273 60.4412C193.106 61.9415 192.702 66.443 192.702 64.9335" stroke="black" stroke-width="18.9995" stroke-linecap="round"/>
<path d="M200.949 46.4084C201.6 44.4936 202.18 42.6509 203.338 40.9846C204.565 39.2191 206.003 37.6518 207.439 36.0567C210.287 32.8943 213.169 29.7515 215.846 26.4411C216.472 25.6665 217.085 24.9448 217.904 24.3753C218.678 23.8367 219.584 23.5069 220.338 22.948C221.979 21.7302 223.695 20.6692 225.469 19.6501C227.094 18.7166 229.067 18.5712 230.802 17.8773C231.245 17.7 231.24 17.5554 230.742 17.6369C229.631 17.8191 228.567 18.4718 227.527 18.8839C226.366 19.344 225.115 19.5997 223.914 19.9356C221.333 20.657 218.842 21.6678 216.379 22.7151C214.291 23.6029 211.452 24.1998 209.768 25.8251C209.727 25.8653 209.315 26.2013 209.363 26.2308C209.927 26.578 211.336 25.8922 211.872 25.72C213.282 25.2663 214.638 24.6863 216.063 24.2626C220.205 23.0313 224.365 21.9935 228.443 20.5441C231.134 19.5879 233.826 18.6377 236.511 17.6669C238.407 16.9814 240.259 16.2153 242.236 15.7889C243.524 15.5111 244.854 15.5122 246.142 15.2781C246.386 15.2337 247.964 14.5319 248.11 14.6621C248.326 14.8537 248.005 16.1477 248.005 16.4575C248.005 18.2671 247.87 20.1055 247.87 21.9338" stroke="black" stroke-width="18.9995" stroke-linecap="round"/>
<path d="M17.6886 309.486C17.6886 314.172 15.4809 318.418 12.8518 322.192C10.9274 324.954 9.14972 327.956 9.14972 331.41C9.14972 331.977 9.67324 331.994 9.81944 332.433C10.0069 332.995 10.5902 332.89 10.7868 333.261C11.2568 334.149 9.03747 334.473 8.57302 334.684C7.70908 335.077 9.38375 334.367 9.5776 334.247C10.834 333.467 11.797 332.734 13.2424 332.34C16.1274 331.553 19.0479 330.426 22.0046 329.949C22.6911 329.839 24.5959 329.197 24.0696 329.652C22.1023 331.351 18.4558 331.566 16.0887 332.266C12.0645 333.455 8.20578 335.253 4.4896 337.195C3.85425 337.528 2.95483 338.703 2.95483 337.614" stroke="black" stroke-width="18.9995" stroke-linecap="round"/>
<path d="M19.6992 329.243C19.8352 330.331 27.0661 328.013 27.0661 331.503C27.0661 332.334 26.6982 333.634 27.773 332.759C29.9085 331.021 32.609 330.874 35.1771 330.155C37.0466 329.631 38.8564 329.062 40.5442 328.062C41.7912 327.323 43.1415 326.63 44.3207 325.792C46.1112 324.52 47.5743 322.843 49.0366 321.225C51.82 318.146 54.4319 314.785 56.5523 311.226C58.6615 307.685 59.8823 304.272 59.8823 300.11" stroke="black" stroke-width="18.9995" stroke-linecap="round"/>
<path d="M50.8418 318.862C51.9253 318.764 53.1473 317.709 54.0044 317.113C55.1832 316.295 56.1921 315.354 57.2041 314.342C58.2947 313.251 59.1296 311.892 60.0504 310.658C60.9892 309.401 62.0162 308.201 62.6549 306.751C64.2847 303.051 64.9922 299.155 65.4826 295.162C65.797 292.601 65.9365 290.047 66.3755 287.497C66.6242 286.053 67.0928 284.392 66.4127 283.032" stroke="black" stroke-width="18.9995" stroke-linecap="round"/>
<path d="M66.4121 283.033C66.4121 279.498 66.4121 275.963 66.4121 272.429C66.4121 271.506 66.447 269.973 65.3238 269.973C64.7834 269.973 64.2872 270.123 63.7704 270.271C63.0183 270.486 62.0443 270.309 61.2683 270.392C58.8088 270.653 56.3558 270.644 53.8921 270.978C51.6969 271.275 49.5231 271.566 47.3623 272.057C36.8067 274.456 30.3005 284.156 24.6105 292.595C21.1205 297.771 18.9147 303.971 16.7227 309.784C16.0335 311.612 15.5248 313.5 14.6019 315.235C14.2464 315.903 13.9614 316.745 13.3741 317.225C12.7552 317.732 12.6711 316.466 12.6672 316.146C12.6313 313.201 12.778 310.335 13.6811 307.505C15.8183 300.809 20.3662 295.228 24.4617 289.655C28.1052 284.698 32.2282 279.869 37.1119 276.084C37.349 275.901 38.7825 274.534 38.4141 274.866C36.6874 276.42 34.6505 277.605 32.7029 278.847C29.782 280.71 27.2508 283.104 24.8989 285.628C22.4277 288.279 19.8838 290.961 17.8203 293.953C17.4378 294.507 14.7426 299.652 16.3507 299.608C16.8717 299.594 17.3395 299.4 17.8389 299.273C19.9205 298.743 22.1643 298.772 24.2849 298.483C30.149 297.683 35.5539 295.449 40.4047 292.055C43.7533 289.712 46.8363 286.96 49.8645 284.223C51.1825 283.032 52.4756 281.799 53.5665 280.391C53.9369 279.913 54.6628 279.274 54.0223 278.847" stroke="black" stroke-width="18.9995" stroke-linecap="round"/>
<path d="M106.092 197.307C105.402 198.083 104.581 198.646 103.73 199.26C100.661 201.476 97.5883 203.772 94.6977 206.218C89.8908 210.285 86.0807 215.606 83.3032 221.231C81.4586 224.966 80.1538 228.922 78.4664 232.718C77.5284 234.829 76.4042 236.778 75.3782 238.83C75.0078 239.57 74.6856 238.303 74.5411 237.918C73.7138 235.712 73.6109 233.42 73.6109 231.091C73.6109 228.533 73.5372 225.964 73.6109 223.407C73.6947 220.503 74.7549 217.664 75.9642 215.055C77.9861 210.691 80.3357 206.371 83.4241 202.665C86.942 198.443 91.3641 194.822 95.9441 191.8C102.107 187.734 109.955 185.922 117.31 185.922C118.987 185.922 121.182 186.293 122.798 185.792C123.228 185.658 123.536 185.556 123.858 185.234C124.408 184.684 125.653 184.025 125.979 183.373C126.338 182.655 126.054 182.529 126.016 183.243C125.902 185.424 126.124 187.42 126.481 189.624C126.798 191.572 127.085 193.495 127.002 195.475C126.909 197.711 125.983 199.904 124.937 201.865C123.734 204.122 122.126 206.158 120.575 208.181C119.41 209.7 118.142 211.055 116.724 212.348C107.015 221.201 95.708 228.122 84.9961 235.648" stroke="black" stroke-width="18.9995" stroke-linecap="round"/>
<path d="M76.6255 233.975C75.4618 237.996 74.3334 242.026 73.2397 246.067C73.0916 246.614 72.9621 247.104 72.942 247.667C72.9235 248.186 72.4656 248.553 72.4397 249.044C72.3769 250.238 75.2821 248.352 75.6581 248.206C76.8118 247.761 78.3701 247.715 79.5834 247.704C81.4051 247.688 83.1864 247.63 84.9969 247.407C88.9944 246.914 92.9131 244.992 96.4566 243.146C99.0184 241.812 101.524 240.178 103.935 238.589C106.253 237.06 108.745 235.699 110.614 233.603C113.628 230.222 116.252 226.751 118.855 223.055C119.82 221.685 120.494 220.299 120.994 218.702C121.85 215.972 123.216 213.572 124.38 210.981C125.455 208.59 126.303 206.019 127.096 203.521C127.515 202.204 127.691 200.95 127.691 199.577C127.691 198.9 128.075 199.498 128.017 199.931C127.788 201.651 127.357 203.165 127.357 204.945C127.357 207.631 127.602 210.444 127.254 213.111C126.986 215.169 126.058 217.275 125.347 219.213C123.69 223.734 120.012 226.387 116.241 229.119C112.886 231.551 110.373 235.005 107.023 237.398C105.851 238.236 104.667 239.062 103.507 239.919C102.741 240.485 101.85 240.935 101.331 241.751C100.919 242.398 103.681 241.391 103.87 241.277C105.01 240.587 106.025 239.729 107.2 239.082C109.603 237.758 112.292 236.928 114.539 235.314C115.303 234.766 116.18 234.179 116.567 233.296C117.33 231.552 118.637 229.062 117.646 227.278" stroke="black" stroke-width="18.9995" stroke-linecap="round"/>
<path d="M19.6022 30.5677C19.6022 31.1971 19.6022 31.8264 19.6022 32.4557C19.6022 33.1373 18.5002 31.2747 18.3545 31.0602C16.4857 28.3084 14.6937 25.5675 13.4293 22.4739C12.4857 20.1654 11.1248 17.45 11.0323 14.9054C11.0163 14.4652 10.8971 14.1097 10.7039 13.7233C10.6185 13.5524 10.2839 13.1789 10.4741 13.198C11.1968 13.2702 12.0195 13.9133 12.6905 14.1666C14.7343 14.9383 16.7658 15.4613 18.9127 15.8658C23.2135 16.6761 27.393 17.3018 31.39 19.2314C35.4787 21.2053 39.4981 23.815 43.0301 26.6521C46.8784 29.7434 49.8424 33.3867 51.6575 38.0377C52.5827 40.4085 53.2946 42.8341 54.0216 45.2696C54.4515 46.7098 55.0641 48.4092 55.0641 49.924" stroke="black" stroke-width="18.9995" stroke-linecap="round"/>
<path d="M35.2642 27.9078C37.7779 27.9078 40.1203 28.2883 42.5043 29.1227C46.3719 30.4764 50.3224 32.2612 53.3563 35.0822C55.6089 37.1768 57.1514 39.704 58.8726 42.2075C59.0388 42.4493 59.6278 43.0306 59.6278 43.3403C59.6278 43.6906 58.2741 42.3591 58.2159 42.2978C54.7651 38.6605 51.4848 34.8834 48.1848 31.1092C46.6957 29.4062 45.2172 27.7999 43.4729 26.3727C43.3383 26.2626 42.5597 25.6744 42.8326 25.4287C43.4234 24.897 45.8716 26.8724 46.3542 27.1772C48.1751 28.3272 49.5561 29.9068 51.0824 31.3883C52.4156 32.6823 53.8758 34.3885 54.7353 36.0345C56.1825 38.8057 57.2385 41.6204 58.2979 44.5634C59.3924 47.6035 60.5354 50.7016 61.1218 53.8803C61.5556 56.2323 62.0847 58.5974 62.1479 60.9973C62.2106 63.3807 62.4955 66.1433 61.8606 68.4591C61.2134 70.8191 60.3107 73.1129 59.4964 75.4201C59.151 76.3987 59.0547 78.514 58.0189 79.032" stroke="black" stroke-width="18.9995" stroke-linecap="round"/>
<path d="M15.6128 24.3622C15.6128 25.7699 15.6606 27.2235 15.1613 28.5651C14.5995 30.0749 13.8648 31.5115 13.3144 33.0307C12.6209 34.9448 12.1132 36.9721 11.9517 39.0067C11.9045 39.6016 11.9189 40.2 11.9189 40.7962C11.9189 41.4756 11.7809 40.0781 11.7711 40.0081C11.3959 37.3111 11.3869 34.5582 11.0323 31.8486C10.7621 29.7831 10.681 27.6905 10.3674 25.6346C10.2847 25.0924 10.2521 23.6025 9.48088 23.4839C8.69195 23.3625 8.66821 23.9686 8.66821 24.6085C8.66821 26.9707 8.69873 29.302 8.99656 31.6516C9.68749 37.1022 10.1892 42.7518 11.9517 47.987C13.9071 53.795 17.6353 59.8856 23.7149 62.0569C26.7677 63.1472 29.9439 63.4695 33.1632 63.6329C34.1627 63.6837 36.9438 64.1373 37.7765 63.3046C38.3803 62.7008 38.3047 61.1968 38.1869 60.4151C38.0163 59.2827 37.001 58.3024 36.2989 57.46" stroke="black" stroke-width="18.9995" stroke-linecap="round"/>
<path d="M30.6835 52.4356C29.9508 51.8169 28.9569 51.0292 28.7708 50.0058C28.6388 49.2797 28.1398 48.6528 27.7612 48.0357C26.7498 46.3876 25.2198 45.0827 24.1821 43.4224" stroke="black" stroke-width="18.9995" stroke-linecap="round"/>
<path d="M27.7285 59.3809C27.6273 59.2924 27.5807 62.1495 27.5807 62.5987C27.5807 64.004 27.7866 65.579 27.433 66.9494C27.051 68.4295 26.6677 70.9033 28.2046 71.8254C31.354 73.715 35.2695 74.4015 38.7775 75.3388C40.1987 75.7185 41.5823 76.0223 43.0624 75.9298C43.6582 75.8925 44.0998 75.4481 44.3102 74.9119C45.0448 73.0398 45.3608 70.949 45.6728 68.977C46.1869 65.728 46.3459 62.5302 46.3459 59.2496C46.3459 59.1259 46.439 58.7763 46.4855 59.1018C46.6203 60.0457 46.8076 60.9598 47.1668 61.8518C47.841 63.5256 49.1424 65.6334 48.7593 67.5486C48.5527 68.5817 47.3348 68.8588 46.6086 69.3792C41.9065 72.749 49.8399 77.9599 52.248 80.067C53.4342 81.1049 55.1439 80.9535 56.6233 80.9535C58.4487 80.9535 60.0812 81.0014 61.8605 81.3968C62.2394 81.481 63.7814 81.8736 63.7814 81.1752C63.7814 80.1144 63.854 79.1585 64.044 78.1133C64.1577 77.488 64.5967 76.1665 63.7814 75.9626C60.4159 75.1212 56.7584 74.0977 53.2823 74.8134C51.2432 75.2332 49.4887 75.978 47.8974 77.3335C47.069 78.0391 46.5796 78.9468 45.8288 79.6976C45.6142 79.9122 45.4467 80.6199 45.3116 80.2148" stroke="black" stroke-width="18.9995" stroke-linecap="round"/>
<path d="M62.5081 83.0176C62.5081 83.6302 62.8197 84.1897 63.1229 84.7083C63.2794 84.976 63.4774 85.2255 63.6444 85.4878C63.7506 85.6547 63.8242 85.7309 63.7432 85.4878" stroke="black" stroke-width="18.9995" stroke-linecap="round"/>
</g>
<defs>
<clipPath id="clip0_205_5694">
<rect width="263.786" height="354.06" fill="white" transform="translate(0.320312 0.842285)"/>
</clipPath>
</defs>
</svg>
