<svg width="264" height="353" viewBox="0 0 264 353" fill="none" xmlns="http://www.w3.org/2000/svg">
<g style="mix-blend-mode:darken" clip-path="url(#clip0_205_5818)">
<rect width="262.614" height="352.888" transform="translate(0.585938)" fill="white"/>
<path d="M24.2303 174.568C45.8906 160.923 77.4544 123.981 30.479 84.6298" stroke="black" stroke-width="5.19115"/>
<path d="M26.3006 174.693C7.93493 158.27 -16.5379 117.443 32.5481 84.7717" stroke="black" stroke-width="5.19115"/>
<path d="M24.5829 89.7346C46.2431 76.0898 77.8069 39.1479 30.8316 -0.203677" stroke="black" stroke-width="5.19115"/>
<path d="M26.6527 89.861C8.28699 73.4383 -16.1859 32.6105 32.9001 -0.0603741" stroke="black" stroke-width="5.19115"/>
<path d="M47.4035 181.705C73.425 189.081 124.745 187.779 122.472 123.075" stroke="black" stroke-width="5.19115"/>
<path d="M52.3005 168.108C52.227 142.078 63.4765 109.324 123.82 124.804" stroke="black" stroke-width="5.19115"/>
<path d="M114.295 122.051C140.316 129.428 191.636 128.125 189.363 63.4211" stroke="black" stroke-width="5.19115"/>
<path d="M115.655 123.769C115.582 97.7385 130.366 49.6692 190.71 65.1493" stroke="black" stroke-width="5.19115"/>
<path d="M180.806 61.7486C206.828 69.1249 258.148 67.8225 255.875 3.11841" stroke="black" stroke-width="5.19115"/>
<path d="M182.167 63.4649C182.094 37.4348 196.878 -10.6345 257.222 4.8456" stroke="black" stroke-width="5.19115"/>
<path d="M53.231 157.027C49.3244 183.79 56.3583 233.896 120.208 223.173" stroke="black" stroke-width="5.19115"/>
<path d="M52.307 157.951C78.1035 154.471 126.124 162.888 118.676 224.739" stroke="black" stroke-width="5.19115"/>
<path d="M120.161 214.927C116.255 241.69 124.264 292.398 188.114 281.675" stroke="black" stroke-width="5.19115"/>
<path d="M118.643 216.505C144.439 213.025 194.03 221.39 186.582 283.241" stroke="black" stroke-width="5.19115"/>
<path d="M188.654 272.969C184.748 299.733 192.757 350.441 256.607 339.718" stroke="black" stroke-width="5.19115"/>
<path d="M187.136 274.548C212.933 271.068 262.523 279.433 255.076 341.284" stroke="black" stroke-width="5.19115"/>
<path d="M26.2289 341.715C47.8891 328.07 79.4529 291.128 32.4776 251.776" stroke="black" stroke-width="5.19115"/>
<path d="M28.2997 341.842C9.93396 325.42 -14.5389 284.592 34.5471 251.921" stroke="black" stroke-width="5.19115"/>
<path d="M26.5738 256.688C48.2341 243.043 79.7979 206.101 32.8225 166.749" stroke="black" stroke-width="5.19115"/>
<path d="M28.6437 256.815C10.278 240.392 -14.1949 199.564 34.8911 166.893" stroke="black" stroke-width="5.19115"/>
<path d="M59.7213 175.861C58.6113 175.639 57.9191 174.542 57.1049 173.836C55.3289 172.297 53.2693 171.152 51.436 169.693C49.1079 167.841 47.9165 165.769 46.2966 163.339C42.7852 158.072 41.2127 152.417 38.7277 146.737C38.6245 146.502 36.8304 142.585 36.2047 144.775C35.2058 148.271 37.0814 151.583 38.5408 154.555C40.549 158.646 41.0165 162.768 41.8113 167.139C42.3025 169.84 38.9123 166.314 38.2916 165.644C37.1581 164.42 36.0154 164.069 34.9277 163.09C33.9615 162.22 31.8776 162.501 31.1276 161.564C30.5098 160.791 28.7329 160.237 27.8883 159.477C26.9889 158.667 26.5063 157.464 25.7702 156.518C24.7364 155.189 23.4071 153.445 22.8423 151.877C22.2198 150.148 20.3419 148.77 19.9456 146.987C19.3107 144.129 16.5505 141.821 16.5505 138.577C16.5505 135.306 16.5505 132.036 16.5505 128.765C16.5505 127.763 17.1863 124.145 15.4603 125.152C13.8138 126.112 13.9567 128.083 13.0619 129.201C12.552 129.839 12.5654 132.35 13.3111 131.008C14.6364 128.622 16.414 127.1 17.1112 124.311C17.8855 121.214 18.5235 118.075 19.3849 115.06C19.4536 114.82 21.1032 112.568 20.1636 112.568C19.103 112.568 16.6498 114.961 15.8652 115.745C15.3954 116.215 15.4292 116.504 15.4292 117.178C15.4292 118.362 16.6452 115.138 17.3915 114.219C18.6719 112.643 20.0429 111.007 21.4718 109.578C22.3016 108.748 23.2784 107.892 23.2784 106.619C23.2784 104.637 25.361 104.452 26.5178 103.411C27.7321 102.318 31.9631 98.1377 28.885 97.3682" stroke="black" stroke-width="18.9995" stroke-linecap="round"/>
<path d="M27.2015 152.314C27.2015 154.209 26.7999 156.673 27.7622 158.357C28.7788 160.136 28.8723 164.64 30.2852 165.77C32.1237 167.241 36.5203 166.331 38.7885 166.331C42.7334 166.331 46.68 166.297 50.6247 166.331C53.8861 166.359 57.1219 166.682 60.3739 166.891C60.4413 166.896 63.5965 167.531 63.551 166.144C63.3674 160.545 51.2484 152.023 48.5066 148.95" stroke="black" stroke-width="18.9995" stroke-linecap="round"/>
<path d="M40.6572 148.95C40.6572 143.624 40.6572 138.298 40.6572 132.972C40.6572 129.484 41.301 124.489 39.972 121.167C39.2351 119.324 38.0335 118.114 35.8916 118.114C32.3355 118.114 31.5112 124.096 31.2506 126.586C31.1745 127.313 31.0831 140.833 33.8047 137.924C35.7784 135.814 36.6159 132.125 37.4179 129.452C38.3037 126.499 39.5702 123.691 40.3457 120.699C41.254 117.196 40.6572 113.062 40.6572 109.455C40.6572 107.107 39.6323 105.685 37.4179 104.783C36.5657 104.436 34.5843 103.29 35.0506 104.689C36.6604 109.519 38.6517 114.572 41.249 118.955C44.4084 124.286 45.7032 129.899 45.7032 136.055C45.7032 140.988 45.0662 146.403 46.2638 151.193" stroke="black" stroke-width="18.9995" stroke-linecap="round"/>
<path d="M61.7756 160.313C61.7756 156.921 61.7756 153.528 61.7756 150.135C61.7756 147.866 62.7343 147.37 64.243 145.817C66.0193 143.989 67.2334 141.593 69.0235 139.803C71.1159 137.711 73.8851 135.867 76.7341 135.023C82.855 133.209 88.7914 130.088 95.1365 129.454C98.6233 129.105 101.972 128.796 105.503 128.854C106.833 128.876 108.506 128.987 109.821 129.231C110.41 129.341 112.363 129.885 112.905 129.402C113.645 128.745 111.331 130.659 110.797 131.493C109.56 133.426 108.879 135.268 108.21 137.456C106.898 141.751 105.518 145.517 103.481 149.518C100.996 154.4 97.7293 158.744 93.9543 162.695C91.3146 165.457 88.6877 168.185 85.5069 170.337C82.9629 172.058 80.2223 173.352 77.5222 174.792C74.7011 176.296 71.647 176.968 68.4924 176.968C66.5577 176.968 68.8511 174.872 69.3834 174.312C72.2734 171.274 74.4417 168.068 76.34 164.34C79.4716 158.188 81.9491 151.214 82.4399 144.344C82.4748 143.855 86.8891 144.275 87.5117 144.275C90.298 144.275 92.5356 143.426 95.1879 142.665C97.029 142.136 98.4556 141.192 100.003 140.129C100.748 139.617 101.078 139.032 102.025 139.032C104.502 139.032 107.79 138.518 109.992 139.957C111.497 140.942 111.596 143.748 111.723 145.338C111.981 148.561 110.2 151.867 108.656 154.625C106.628 158.245 104.881 162.172 101.939 165.179C99.2624 167.915 96.2217 170.456 92.8919 172.359C89.5895 174.246 86.4703 175.658 82.8168 176.659C77.2781 178.178 71.5832 178.818 65.8536 178.818C64.5066 178.818 62.6463 178.46 61.3301 178.836C60.7928 178.989 62.7635 180.43 62.8722 180.549C64.8207 182.683 65.6064 185.387 66.9502 187.865C68.4873 190.701 69.882 193.774 71.6451 196.467C75.2234 201.932 80.0655 206.482 86.4322 208.273C88.636 208.893 90.8248 209.367 93.0633 209.815C93.9613 209.994 95.7392 210.586 93.663 210.586C91.0354 210.586 88.6893 210.647 86.2437 209.524C81.7713 207.469 77.4034 205.108 73.0159 202.875C67.968 200.306 62.7893 197.62 59.154 193.177C58.641 192.55 58.6963 191.6 59.6167 192.389C61.4411 193.953 63.5939 195.125 65.4424 196.673C69.2342 199.848 73.2406 202.736 77.4023 205.411C79.7806 206.94 81.7747 208.113 84.5988 208.427" stroke="black" stroke-width="18.9995" stroke-linecap="round"/>
<path d="M77.1982 199.79C76.8613 199.79 78.7225 201.742 78.8945 201.966C80.2621 203.75 81.7784 205.295 83.3666 206.883C84.7705 208.287 86.5973 209.264 88.2328 210.379C88.9203 210.848 90.434 211.836 90.7687 212.589C91.2307 213.629 90.655 213.64 89.6721 213.909C88.2755 214.289 87.9129 213.548 86.8278 212.503C86.7046 212.385 85.3871 211.552 86.1424 211.51C87.777 211.419 89.2988 211.684 90.8715 212.127C94.6819 213.198 98.2457 214.371 101.889 215.965C103.749 216.778 106.034 216.818 107.903 217.353C108.982 217.661 110.508 217.564 110.508 216.273C110.508 212.633 109.57 208.589 108.657 205.067C107.758 201.6 106.084 198.486 104.888 195.129C103.771 191.996 102.465 188.493 100.501 185.774C98.5715 183.102 96.5642 179.641 93.5445 178.132C91.7816 177.25 92.9171 179.125 91.0428 179.125C89.128 179.125 86.5895 178.956 85.08 180.376C83.7826 181.597 83.9054 183.728 84.0006 185.345C84.3334 191.003 91.7324 197.48 97.2455 198.179C100.357 198.573 103.106 197.829 103.106 194.478C103.106 191.088 103.181 187.689 103.106 184.3C103.085 183.368 102.651 181.688 103.483 183.443C103.952 184.435 103.761 184.831 102.797 184.06" stroke="black" stroke-width="18.9995" stroke-linecap="round"/>
<path d="M105.57 147.668C106.504 147.551 107.125 144.974 107.575 144.275C108.406 142.982 109.677 141.865 110.436 140.574C110.857 139.859 113.408 136.937 112.664 136.565" stroke="black" stroke-width="18.9995" stroke-linecap="round"/>
<path d="M28.7736 247.287C28.7736 241.256 28.7736 235.224 28.7736 229.193C28.7736 218.446 30.8909 208.122 35.0962 198.248C37.1958 193.319 38.7742 188.241 40.7335 183.273C41.7064 180.806 43.2694 177.993 43.2694 175.288C43.2694 173.413 42.1785 172.173 40.1166 173.026C38.4345 173.722 37.3404 176.667 36.724 178.269C35.401 181.709 31.7562 183.975 29.6303 186.837C27.0455 190.316 24.2798 193.391 22.3138 197.323C20.4795 200.992 19.3146 205.683 18.5957 209.694C17.7128 214.62 17.0536 219.384 17.0536 224.413C17.0536 228.172 17.1923 232.263 19.5209 235.43C20.3367 236.54 21.3491 237.118 22.4509 237.88C22.7407 238.081 23.0916 238.247 23.3419 238.497C23.8047 238.96 23.9695 240.647 23.0164 236.784C20.2268 225.476 17.3995 214.176 14.5862 202.875" stroke="black" stroke-width="18.9995" stroke-linecap="round"/>
<path d="M14.897 205.342C14.897 202.288 15.0557 198.628 17.0731 196.106C19.4246 193.167 22.0048 190.133 25.0749 187.916C28.2271 185.639 31.4444 183.202 34.4817 180.839C37.1241 178.784 39.4604 184.366 40.0333 185.894C43.5843 195.363 47.0736 206.881 44.5054 216.993C43.7988 219.776 43.5838 222.665 42.5864 225.389C41.6128 228.048 40.3463 230.326 39.0224 232.791C38.2872 234.16 37.3822 235.117 36.3151 236.184C35.4344 237.065 35.8443 237.759 34.9444 236.184" stroke="black" stroke-width="18.9995" stroke-linecap="round"/>
<path d="M28.7736 327.168C28.7736 323.346 27.0885 319.559 26.9402 315.705C26.8177 312.52 26.6147 309.389 26.6147 306.196C26.6147 298.734 25.7033 290.478 27.3001 283.133C28.4262 277.953 29.9031 272.974 31.618 268.02C31.9262 267.13 32.4302 265.714 32.1491 264.73C31.8206 263.58 28.044 268.773 27.6942 269.356C24.0699 275.397 20.3205 281.89 18.1502 288.598C17.5448 290.47 16.6774 292.254 16.2826 294.184C15.8196 296.448 15.7613 298.822 15.2031 301.055C14.4759 303.964 14.4943 308.03 15.9913 310.668C18.8344 315.677 22.7298 320.167 25.0726 325.438C25.889 327.275 26.9231 333.188 26.9231 331.178" stroke="black" stroke-width="18.9995" stroke-linecap="round"/>
<path d="M30.9333 324.702C30.9333 322.758 31.1723 320.613 32.4755 319.082C34.2199 317.032 36.5799 315.081 38.5068 313.154C40.1237 311.537 41.1936 309.073 42.1907 307.002C42.3236 306.726 43.698 304.767 43.2017 305.512C41.9818 307.341 40.7245 309.125 39.4663 310.926C37.8886 313.185 36.6971 316.225 35.6282 318.774C35.0173 320.231 34.0176 322.3 34.0176 323.931C34.0176 324.41 34.4245 324.57 34.7886 324.205C35.8657 323.128 36.416 321.255 37.1018 319.922C38.3884 317.42 39.5591 314.715 40.4944 312.057C42.248 307.073 44.5678 302.32 45.1036 296.962C45.4826 293.171 45.2633 289.13 44.264 285.533C43.4269 282.519 42.1379 279.477 40.6658 276.743C39.8817 275.287 39.8065 273.56 38.3355 272.579" stroke="black" stroke-width="18.9995" stroke-linecap="round"/>
<path d="M134.768 244.24C134.768 242.76 134.854 241.303 134.494 239.863" stroke="black" stroke-width="18.9995" stroke-linecap="round"/>
<path d="M103.856 193.629C104.671 193.629 105.256 193.741 105.908 193.234C106.261 192.959 107.374 192.516 106.865 192.261" stroke="black" stroke-width="18.9995" stroke-linecap="round"/>
<path d="M131.485 239.043C131.485 236.603 130.9 235.148 129.783 233.024C129.341 232.185 129.257 230.967 129.023 230.03C128.838 229.289 128.291 228.543 127.989 227.826C127.802 227.382 127.685 227.248 127.381 226.869C126.723 226.046 128.699 226.843 129.023 227.006C131.223 228.106 133.303 229.015 135.604 229.878C138.839 231.091 142.541 230.833 145.848 231.793C151.191 233.344 156.136 235.556 160.879 238.511C166.939 242.286 171.926 247.43 174.694 254.074C175.853 256.854 176.972 259.85 177.78 262.752C178.309 264.653 179.035 267.035 179.087 269.014C179.198 273.235 175.201 272.578 172.126 272.084C166.96 271.254 162.08 269.768 156.988 268.589C151.405 267.295 146.061 265.82 141.182 262.692C137.022 260.025 134.953 255.522 133.537 250.958C133.078 249.479 133.437 247.995 133.066 246.551C132.977 246.205 132.468 245.78 132.64 246.429C132.892 247.38 133.72 248.389 134.282 249.165C137.75 253.959 141.944 258.345 145.68 262.935C148.66 266.594 151.796 269.844 155.559 272.692C158.489 274.909 161.439 275.778 165.089 275.413C165.818 275.34 166.242 274.541 166.502 273.938C166.859 273.114 166.776 272.154 166.776 271.279C166.776 268.638 166.868 265.989 166.305 263.391C165.086 257.772 162.909 252.531 158.569 248.679C157.118 247.391 155.229 245.473 153.477 244.636C151.725 243.798 148.881 242.486 147.489 241.095C146.175 239.78 147.152 243.548 147.261 243.906C148.835 249.105 150.416 254.4 153.948 258.649C155.357 260.343 157.694 260.655 159.785 260.655C161.482 260.655 161.892 260.212 162.064 258.466C162.379 255.273 159.439 252.508 157.596 250.244C154.269 246.158 150.996 241.996 147.443 238.1C145.319 235.771 142.408 234.646 140.239 232.477C139.838 232.075 137.024 228.295 138.34 227.857C140.439 227.157 142.472 228.266 144.054 229.452C147.197 231.809 151.636 232.361 154.982 234.498C158.273 236.601 161.691 238.465 164.998 240.547C165.591 240.921 170.925 244.668 170.879 243.481C170.823 242.012 167.802 240.635 166.776 239.985C164.989 238.853 163.203 237.448 161.578 236.094C159.376 234.259 157.057 232.864 154.723 231.231C153.449 230.339 152.081 230.48 150.635 230.273C149.883 230.166 149.22 230.015 148.447 230.015C147.546 230.015 147.626 229.795 147.626 228.921" stroke="black" stroke-width="18.9995" stroke-linecap="round"/>
<path d="M138.871 242.325C138.871 238.224 139.572 233.453 138.263 229.528C138.047 228.879 137.049 228.011 136.622 227.43C135.961 226.531 135.671 225.637 134.494 225.637" stroke="black" stroke-width="18.9995" stroke-linecap="round"/>
<path d="M163.495 256.003C165.554 258.234 167.248 260.985 169.103 263.405C170.468 265.185 172.014 267.534 173.83 268.861C175.062 269.762 176.41 271.499 177.432 272.691C178.018 273.375 178.844 275.249 179.088 273.785" stroke="black" stroke-width="18.9995" stroke-linecap="round"/>
<path d="M230.245 317.557C229.54 316.641 229.168 315.465 228.542 314.487C227.121 312.266 225.349 310.265 223.816 308.119C221.461 304.822 218.966 301.459 216.262 298.438C214.49 296.457 212.87 294.772 210.699 293.209C209.281 292.188 207.608 291.545 206.231 290.474C203.98 288.723 201.646 287.103 199.27 285.549C199.038 285.398 197.48 284.746 197.431 284.577C197.303 284.127 197.007 283.84 196.595 283.634" stroke="black" stroke-width="18.9995" stroke-linecap="round"/>
<path d="M196.595 283.634C201.515 283.634 206.171 285.564 211.095 285.823C213.309 285.939 215.434 287.114 217.387 288.072C219.512 289.115 222.051 290.226 223.968 291.568C228.07 294.44 231.573 297.048 234.561 301.143C237.199 304.758 239.41 308.658 240.762 312.907C241.249 314.439 241.049 316.184 241.476 317.679C241.917 319.221 243.364 316.003 243.376 315.369C243.456 311.24 242.69 306.749 239.698 303.757C238.716 302.775 237.767 301.655 236.826 300.596C235.631 299.252 234.358 297.27 232.92 296.219C231.309 295.042 231.001 294.304 228.877 294.304C227.363 294.304 225.913 295.351 224.469 295.671C221.466 296.339 218.373 296.688 215.335 297.161C210.334 297.939 204.765 299.616 200.76 295.611C200.355 295.206 200.256 294.679 199.939 294.243C199.887 294.172 199.891 293.318 199.665 293.544C198.575 294.634 200.59 299.432 200.82 300.459C202.436 307.657 205.368 315.871 211.581 320.506C214.372 322.588 216.839 324.561 220.062 325.977C223.369 327.431 226.742 328.535 230.229 329.458C233.951 330.443 238.026 331.019 241.796 329.807C243.047 329.405 246.004 329.192 246.37 327.543C246.573 326.63 246.024 326.393 245.854 325.628C245.669 324.796 245.784 324.315 245.291 323.576" stroke="black" stroke-width="18.9995" stroke-linecap="round"/>
<path d="M245.02 324.396C245.02 327.21 245.446 329.353 246.661 331.783" stroke="black" stroke-width="18.9995" stroke-linecap="round"/>
<path d="M25.659 41.7905C25.659 41.8975 25.659 40.0727 25.659 39.5572C25.659 37.5466 26.3979 35.6728 27.0723 33.7996C27.6509 32.1923 28.8883 30.9111 29.5672 29.368C30.4722 27.3112 31.3848 25.2762 32.0971 23.1393C32.5554 21.7645 33.208 20.4841 33.8244 19.1788C34.394 17.9726 34.1384 16.3965 34.1384 15.0961C34.1384 13.1995 33.5361 13.0108 31.626 13.2118C29.7843 13.4057 28.8251 17.3065 27.8574 18.5507C23.6147 24.0056 19.7293 30.0778 16.0979 35.9631C14.1676 39.0916 12.9955 42.633 12.4689 46.257C11.6269 52.0516 12.6577 56.5667 15.8537 61.5059C18.0474 64.8962 20.9774 67.9542 24.2284 70.3691C25.4329 71.2639 26.9374 72.2535 28.4855 72.2535" stroke="black" stroke-width="18.9995" stroke-linecap="round"/>
<path d="M25.0299 51.8399C25.0299 46.3244 26.0128 39.895 22.6745 35.073C22.057 34.1811 21.1646 33.4581 20.4936 32.5432C19.941 31.7895 19.3195 30.7524 18.5919 30.1703C18.2458 29.8935 18.0637 29.0211 17.8765 28.6001C17.4049 27.5389 17.7332 27.5859 18.4348 27.2741C20.0693 26.5477 21.551 26.5466 23.1456 27.3439" stroke="black" stroke-width="18.9995" stroke-linecap="round"/>
<path d="M33.2557 16.522C33.3816 17.3194 34.0191 17.858 34.4989 18.4703C35.1465 19.2965 35.7351 20.1635 36.3335 21.025C38.1045 23.5745 39.8622 26.1195 41.1398 28.9622C42.4433 31.8625 42.6296 35.2145 41.6553 38.226C40.8369 40.7555 40.2919 43.6042 39.0323 45.9508C37.6987 48.4354 36.1636 50.8827 34.5596 53.2057C33.8458 54.2395 33.1351 55.217 32.0276 55.8211" stroke="black" stroke-width="18.9995" stroke-linecap="round"/>
<path d="M41.5771 34.2603C41.6891 34.7459 42.0888 35.1225 42.3655 35.5187C42.9803 36.399 43.3923 37.5031 43.7907 38.4904C44.3221 39.8075 44.3317 41.1515 44.6397 42.5158C45.0964 44.5383 44.729 47.0797 44.291 49.0505C43.6852 51.7767 42.5168 54.853 40.728 57.0483C39.907 58.0559 39.0164 58.9615 38.0292 59.8077C37.2797 60.4502 36.5582 61.1341 35.8156 61.7863C35.2928 62.2455 34.6138 62.7045 34.163 63.2343C33.4262 64.1 32.5993 65.6682 32.1465 66.5092C30.1228 70.2675 29.1713 72.3414 27.1128 76.2885" stroke="black" stroke-width="18.9995" stroke-linecap="round"/>
<path d="M39.668 64.145C39.668 65.3726 38.4196 66.3689 37.894 67.4199" stroke="black" stroke-width="18.9995" stroke-linecap="round"/>
<path d="M172.208 84.0493C172.181 84.2641 171.896 84.1912 171.735 84.1912C170.614 84.1912 169.589 84.5055 168.52 84.8217C164.766 85.9313 161.007 87.134 157.557 89.0222C152.859 91.594 148.545 94.9308 144.467 98.3848C140.428 101.806 136.622 106.129 131.857 108.512C131.067 108.907 130.239 109.327 129.509 109.796C128.721 110.303 128.04 111.52 127.444 112.279C126.913 112.955 125.74 114.569 124.828 114.265" stroke="black" stroke-width="18.9995" stroke-linecap="round"/>
<path d="M124.827 114.265C124.827 113.451 124.817 112.636 124.827 111.822C124.845 110.363 125.441 108.926 126.056 107.621C127.492 104.578 128.49 101.301 130.422 98.5187C133.88 93.5389 136.897 87.9792 141.408 83.8443C143.788 81.663 146.743 79.9415 149.415 78.1227C152.228 76.208 155.165 74.8466 158.478 74.1192C161.111 73.5414 163.996 73.1262 166.69 73.1262C168.745 73.1262 171.026 73.1298 173.058 72.811C174.097 72.648 175.111 72.2751 176.179 72.2751C176.6 72.2751 176.931 72.0126 177.314 71.9914C177.612 71.9748 177.945 72.0481 178.236 71.9835C178.519 71.9206 178.715 71.8672 179.016 71.8495C179.178 71.84 179.367 71.5815 179.513 71.5815C179.685 71.5815 178.888 72.3551 178.843 72.4169C178.234 73.2511 178.006 74.374 177.669 75.3329C176.69 78.1169 176.056 80.9689 175.525 83.868C174.844 87.5881 173.181 90.7033 170.852 93.6404C166.748 98.8143 161.31 103.387 155.295 106.195C151.61 107.914 148.019 109.375 144.072 110.403C142.099 110.917 140.165 111.394 138.138 111.641C136.642 111.822 135.078 111.882 133.653 112.421C132.864 112.719 133.054 113.208 133.054 113.981C133.054 115.084 134.009 115.542 135.072 115.542C137.173 115.542 139.209 114.974 141.29 114.974C143.948 114.974 146.807 114.568 149.25 113.469C151.452 112.478 153.386 111.235 155.468 110.041C157.5 108.875 159.391 107.599 161.142 106.029C164.143 103.339 167.152 100.765 169.575 97.5336C170.582 96.1909 171.377 94.7073 172.349 93.3409C173.393 91.8727 174.334 90.1641 174.981 88.4783C175.759 86.4515 176.825 84.3671 178.449 82.9144C178.625 82.7566 179.14 82.6491 178.796 82.9932C178.26 83.5289 177.617 83.8022 177.141 84.4275C175.865 86.101 175.046 88.2274 174.051 90.0782C172.832 92.3478 171.461 94.5212 170.048 96.6745C168.133 99.5929 166.153 102.539 164.09 105.359C163.329 106.399 162.401 107.269 161.56 108.236C161.481 108.327 160.423 109.442 161.032 109.442C161.521 109.442 161.924 109.183 162.309 108.906C163.78 107.843 164.935 106.431 166.218 105.162C168.41 102.995 170.651 101.017 172.491 98.5187C173.643 96.9547 174.417 95.2446 174.831 93.3567C174.997 92.602 175.296 92.0379 175.044 91.284" stroke="black" stroke-width="18.9995" stroke-linecap="round"/>
<path d="M235.193 25.3208C234.296 25.3208 233.391 25.9095 232.656 26.3453C229.619 28.144 226.717 30.1808 223.766 32.1142C220.814 34.0479 217.93 36.1171 215.081 38.1983C212.665 39.9631 210.487 42.0362 208.193 43.9514C206.4 45.4482 204.585 46.7605 202.629 48.018C201.459 48.7702 200.179 49.2431 198.941 49.8621C197.734 50.4656 196.432 51.0163 195.363 51.8481C195.016 52.1175 194.091 52.485 193.881 52.8411C193.634 53.2617 192.651 53.8974 192.21 54.1179" stroke="black" stroke-width="18.9995" stroke-linecap="round"/>
<path d="M192.21 54.1175C192.21 51.8991 191.913 49.536 192.777 47.4502C194.054 44.3717 195.51 41.0299 197.608 38.4344C201.651 33.4338 205.925 28.3799 210.841 24.2171C211.743 23.4526 212.63 22.6449 213.567 21.9237C214.42 21.2682 215.448 20.8661 216.294 20.2136C216.385 20.1433 217.278 19.3242 216.838 19.2363C215.283 18.9253 213.615 20.2568 212.377 20.9859C208.194 23.4509 204.772 26.6608 201.376 30.0569C201.248 30.185 200.709 30.6648 200.721 30.2224C200.751 29.1766 201.87 28.0754 202.487 27.3301C205.002 24.289 208.353 21.7855 211.534 19.5043C215.717 16.5048 220.436 13.0247 225.83 12.8449C232.269 12.6302 238.676 12.1277 245.123 12.1277C245.301 12.1277 246.116 11.8041 246.116 12.1277C246.116 12.4693 245.587 12.6763 245.414 12.9237C244.727 13.9114 244.39 15.4626 244.138 16.612C243.471 19.6538 242.76 22.6553 241.868 25.6436C241.009 28.5226 239.354 31.0041 237.352 33.2014C235.688 35.028 233.891 37.0734 231.899 38.5447C229.975 39.9653 228.357 41.7914 226.335 43.0999C223.16 45.1538 219.609 46.8467 216.152 48.3486C212.726 49.8371 209.012 50.9499 205.363 51.769C204.66 51.9269 203.961 52.1521 203.243 52.2418C202.413 52.3456 201.568 52.2057 200.737 52.2812C199.774 52.3688 199.685 52.6404 200.611 52.9826C201.372 53.2637 202.196 53.3163 202.92 53.6919C203.519 54.0024 204.249 54.404 204.914 54.5115C206.116 54.7059 207.288 54.6849 208.508 54.6849C212.128 54.6849 215.83 53.5235 218.958 51.769C223.008 49.497 226.859 46.9619 230.307 43.8328C231.613 42.6466 233.111 41.7194 234.42 40.5307C234.981 40.022 235.529 39.4939 236.076 38.9703C236.373 38.6849 237.25 37.8117 236.95 38.0955C233.888 40.9996 230.952 44.0524 227.958 47.0246" stroke="black" stroke-width="18.9995" stroke-linecap="round"/>
<path d="M223.844 47.8755C224.461 47.8755 225.077 47.8986 225.688 47.7967C227.072 47.566 228.01 46.4483 229.171 45.7556C231.411 44.4198 233.58 43.0155 235.744 41.555C237.333 40.4829 239.052 39.4222 240.331 37.9613C240.942 37.2629 244.715 33.1581 242.853 32.4131" stroke="black" stroke-width="18.9995" stroke-linecap="round"/>
</g>
<defs>
<clipPath id="clip0_205_5818">
<rect width="262.614" height="352.888" fill="white" transform="translate(0.585938)"/>
</clipPath>
</defs>
</svg>
