<svg width="264" height="355" viewBox="0 0 264 355" fill="none" xmlns="http://www.w3.org/2000/svg">
<g style="mix-blend-mode:darken" clip-path="url(#clip0_205_5878)">
<rect width="262.614" height="354.06" transform="translate(0.543945 0.394531)" fill="white"/>
<path d="M24.202 176.958C45.8623 163.313 77.4261 126.372 30.4507 87.02" stroke="black" stroke-width="5.19115"/>
<path d="M26.2718 177.085C7.90613 160.662 -16.5667 119.835 32.5193 87.1637" stroke="black" stroke-width="5.19115"/>
<path d="M24.5499 92.1252C46.2102 78.4804 77.774 41.5385 30.7986 2.18695" stroke="black" stroke-width="5.19115"/>
<path d="M26.6195 92.2507C8.25378 75.8279 -16.2191 35.0002 32.8669 2.32927" stroke="black" stroke-width="5.19115"/>
<path d="M26.1954 344.105C47.8557 330.46 79.4195 293.518 32.4441 254.166" stroke="black" stroke-width="5.19115"/>
<path d="M28.265 344.232C9.89929 327.809 -14.5736 286.982 34.5124 254.311" stroke="black" stroke-width="5.19115"/>
<path d="M26.5475 259.078C48.2077 245.434 79.7715 208.492 32.7962 169.14" stroke="black" stroke-width="5.19115"/>
<path d="M28.6144 259.205C10.2487 242.783 -14.2242 201.955 34.8618 169.284" stroke="black" stroke-width="5.19115"/>
<path d="M223.715 177.151C245.375 163.506 276.939 126.564 229.963 87.2128" stroke="black" stroke-width="5.19115"/>
<path d="M225.785 177.278C207.419 160.855 182.946 120.028 232.032 87.3566" stroke="black" stroke-width="5.19115"/>
<path d="M224.07 92.1252C245.731 78.4804 277.294 41.5385 230.319 2.18695" stroke="black" stroke-width="5.19115"/>
<path d="M226.138 92.2521C207.772 75.8294 183.299 35.0016 232.385 2.33074" stroke="black" stroke-width="5.19115"/>
<path d="M225.718 344.106C247.378 330.461 278.942 293.52 231.967 254.168" stroke="black" stroke-width="5.19115"/>
<path d="M227.788 344.232C209.422 327.809 184.949 286.982 234.035 254.311" stroke="black" stroke-width="5.19115"/>
<path d="M226.061 259.078C247.721 245.434 279.285 208.492 232.309 169.14" stroke="black" stroke-width="5.19115"/>
<path d="M228.13 259.205C209.765 242.782 185.292 201.954 234.378 169.283" stroke="black" stroke-width="5.19115"/>
<path d="M118.67 173.11C148.399 172.017 201.663 153.275 177.373 86.3332" stroke="black" stroke-width="5.19115"/>
<path d="M120.678 174.446C111.786 147.231 110.979 91.9211 179.37 87.6854" stroke="black" stroke-width="5.19115"/>
<path d="M168.578 87.8315C198.307 86.7385 251.571 67.9961 227.281 1.05436" stroke="black" stroke-width="5.19115"/>
<path d="M170.589 89.1675C161.697 61.9524 160.89 6.64227 229.281 2.40657" stroke="black" stroke-width="5.19115"/>
<path d="M23.3698 342.119C53.0988 341.026 106.363 322.283 82.0726 255.341" stroke="black" stroke-width="5.19115"/>
<path d="M25.3772 343.456C16.4853 316.241 15.6781 260.931 84.0689 256.695" stroke="black" stroke-width="5.19115"/>
<path d="M73.2758 256.842C103.005 255.749 156.269 237.007 131.979 170.065" stroke="black" stroke-width="5.19115"/>
<path d="M75.2839 258.179C66.3921 230.964 65.5849 175.654 133.976 171.418" stroke="black" stroke-width="5.19115"/>
<path d="M23.3547 53.4238C23.3547 55.4433 23.4944 56.9128 24.1222 58.7961" stroke="black" stroke-width="18.9995" stroke-linecap="round"/>
<path d="M27.1931 291.341C27.1931 296.937 30.4044 298.827 35.7632 300.167C42.1737 301.77 46.7099 297.409 50.5584 292.705C53.5975 288.991 56.8042 285.522 60.1944 282.131C62.9098 279.416 65.7996 278.393 63.2643 275.224" stroke="black" stroke-width="18.9995" stroke-linecap="round"/>
<path d="M90.8918 219.198C92.0893 220.096 91.6458 217.347 91.6593 216.725C91.7534 212.399 93.7864 210.049 97.0316 207.345C98.3088 206.281 109.598 198.236 107.009 196.941" stroke="black" stroke-width="18.9995" stroke-linecap="round"/>
<path d="M136.94 148.591C143.146 138.674 149.826 129.457 157.151 120.365C158.357 118.867 159.965 117.603 159.965 115.589" stroke="black" stroke-width="18.9995" stroke-linecap="round"/>
<path d="M190.663 59.5644C191.489 55.0236 196.189 50.0141 198.636 46.2615C201.374 42.0632 204.005 35.6566 208.699 33.1719C215.319 29.6668 226.269 33.1744 229.975 39.1837C235.284 47.794 236.711 78.8899 236.711 68.774" stroke="black" stroke-width="18.9995" stroke-linecap="round"/>
<path d="M232.875 120.962C232.875 128.13 232.107 149.619 232.107 142.451" stroke="black" stroke-width="18.9995" stroke-linecap="round"/>
<path d="M227.5 203.849V232.245" stroke="black" stroke-width="18.9995" stroke-linecap="round"/>
<path d="M231.339 285.968V312.829" stroke="black" stroke-width="18.9995" stroke-linecap="round"/>
<path d="M28.7273 192.337C30.7716 192.592 29.4948 213.128 29.4948 216.129" stroke="black" stroke-width="18.9995" stroke-linecap="round"/>
<path d="M24.1208 115.589V143.218" stroke="black" stroke-width="18.9995" stroke-linecap="round"/>
<path d="M30.0374 303.248C30.0374 297.633 30.0374 314.476 30.0374 320.091C30.0374 321.453 30.4316 322.995 29.7018 324.227C29.5313 324.514 29.1819 325.334 28.8039 325.442C28.3315 325.577 27.3605 329.49 28.0057 329.859C28.8815 330.359 29.7546 329.399 30.4456 328.952C32.0668 327.903 34.0369 327.647 35.8966 327.256C38.1772 326.776 40.4829 326.386 42.7717 325.941C45.7789 325.356 49.2705 325.304 51.9595 323.701C55.423 321.636 58.2421 318.079 60.3402 314.712C61.4533 312.926 62.4863 311.022 63.3605 309.107C63.6704 308.428 64.2003 307.422 64.1314 306.631C64.0762 305.995 59.3326 306.343 58.753 306.368C54.2605 306.559 50.0605 308.79 46.191 310.894C44.6541 311.729 43.1573 312.689 41.7014 313.66C40.9678 314.149 39.7121 314.032 38.8716 314.023C36.9207 314.002 34.9229 313.652 32.9761 313.932C31.0926 314.203 29.435 315.295 27.7518 316.109C19.5664 320.067 20.5528 307.156 20.0786 302.704C19.8685 300.731 19.6375 298.766 19.4618 296.79C19.4024 296.122 19.5958 294.764 18.7362 294.468C16.9281 293.844 15.9712 296.767 15.9971 298.06C16.0474 300.576 16.5686 303.085 17.1762 305.515C18.1962 309.595 19.2804 313.755 20.7316 317.705C20.8134 317.928 22.6724 322.204 23.0173 321.859" stroke="black" stroke-width="18.9995" stroke-linecap="round"/>
<path d="M18.9341 305.207C18.9341 300.566 18.9341 295.925 18.9341 291.284C18.9341 289.563 19.0235 288.123 19.7232 286.514C19.8491 286.224 20.2625 285.573 20.0588 285.217C19.8167 284.793 18.0105 286.7 17.8276 286.895C17.4928 287.25 17.3197 287.506 17.8548 286.931C18.4586 286.282 19.0828 285.644 19.6506 284.963C21.4435 282.811 22.9322 280.281 24.4849 277.952C25.7827 276.005 27.5336 274.06 29.3464 272.591C30.4651 271.685 31.6374 270.422 32.2851 269.126C32.5284 268.64 31.598 267.47 31.1786 267.331" stroke="black" stroke-width="18.9995" stroke-linecap="round"/>
<path d="M29.3838 278.922C29.3838 281.32 33.9773 280.555 35.4244 280.555C36.0773 280.555 37.5029 280.794 38.0365 280.229C38.3045 279.945 38.2034 279.393 38.1635 279.059C37.9796 277.519 37.4738 275.969 36.8574 274.551C36.4087 273.518 35.7996 272.247 34.9165 271.503C34.6378 271.269 34.9576 271.948 34.9709 271.975C36.6078 275.249 38.42 278.19 39.1612 281.861C39.4178 283.132 39.7878 284.857 39.2066 286.106C38.8396 286.894 38.2121 287.456 37.6193 288.065C37.127 288.571 37.9864 287.872 38.0365 287.829C39.069 286.951 40.0865 286.064 41.1748 285.253C44.6456 282.669 47.7921 279.712 51.1154 276.945C53.3829 275.057 55.6989 273.8 58.3714 272.592C60.2418 271.746 62.1065 270.871 64.0855 270.306C64.3862 270.22 63.4717 270.447 63.1876 270.578C61.1401 271.521 59.3661 273.122 57.6095 274.496C49.1107 281.146 40.1346 287.064 31.3066 293.253C29.9083 294.233 28.4543 295.245 27.3068 296.527C27.222 296.622 26.4824 297.49 27.1163 297.298C28.5288 296.87 29.8105 295.911 31.1706 295.339C34.1775 294.074 37.3803 293.312 40.5036 292.4C44.9083 291.115 49.3235 289.742 53.5553 287.956C55.2355 287.247 56.4342 286.563 57.6277 285.29" stroke="black" stroke-width="18.9995" stroke-linecap="round"/>
<path d="M58.1172 283.82C60.6816 281.598 63.5955 279.803 66.4888 278.052C69.0279 276.514 71.7983 275.186 74.2617 273.544C74.8887 273.126 74.7585 272.815 74.9692 272.065C75.2494 271.068 75.41 270.111 75.4227 269.072C75.425 268.883 75.5368 268.187 75.3864 268.02C75.1849 267.796 75.4504 267.878 75.9125 267.812C76.9672 267.661 75.5311 267.176 75.2776 267.095C74.4214 266.823 73.2957 267.218 72.484 267.494C72.0904 267.628 71.482 268.406 71.3412 267.984" stroke="black" stroke-width="18.9995" stroke-linecap="round"/>
<path d="M71.3406 267.82C71.3406 271.146 71.3406 274.472 71.3406 277.797C71.3406 281.478 71.6717 285.301 70.6513 288.881C69.4574 293.069 67.3397 296.898 64.8919 300.481C62.8466 303.476 60.6216 306.564 57.3003 308.145" stroke="black" stroke-width="18.9995" stroke-linecap="round"/>
<path d="M74.1158 270.27C74.1891 271.222 74.585 272.156 74.8777 273.054C75.6859 275.535 76.4993 278.053 76.8005 280.655C77.3298 285.226 77.1876 289.482 75.3856 293.779C74.1924 296.624 72.6579 299.416 71.0592 302.051C70.0203 303.763 68.8262 305.368 67.531 306.894C65.2663 309.562 62.6146 310.986 59.5857 312.717" stroke="black" stroke-width="18.9995" stroke-linecap="round"/>
<path d="M24.8123 320.064C25.0785 320.369 25.8599 320.27 26.2362 320.409C26.8145 320.622 27.3865 320.985 27.9595 321.234C30.2106 322.213 32.4622 322.931 34.7892 323.711C36.0715 324.14 37.1104 324.846 38.1995 325.624C39.2846 326.399 39.5944 328.004 39.9954 329.207" stroke="black" stroke-width="18.9995" stroke-linecap="round"/>
<path d="M39.9951 329.206C42.5814 329.206 45.0821 329.362 47.5867 328.635C52.1145 327.32 56.0614 324.346 59.9853 321.823C61.9662 320.55 63.2375 318.572 64.7199 316.798C67.4454 313.538 70.0386 309.896 72.13 306.196C73.5752 303.639 73.955 300.821 75.0143 298.132C75.4427 297.045 75.6604 296.438 75.4224 295.248" stroke="black" stroke-width="18.9995" stroke-linecap="round"/>
<path d="M30.6897 242.679C30.6897 243.425 30.6054 241.181 30.4267 240.457C29.404 236.313 28.1556 232.272 27.352 228.068C25.9054 220.498 24.8938 212.84 23.1979 205.329C22.968 204.311 23.0585 202.35 22.037 201.737C21.1001 201.175 20.2601 202.708 19.9509 203.334C19.2696 204.712 19.0723 206.372 18.6085 207.832C17.6416 210.876 16.8967 214.054 17.2299 217.265C17.434 219.232 17.7725 221.243 18.4543 223.106C18.9743 224.527 19.8541 225.827 20.5586 227.161C21.6557 229.237 22.748 231.317 23.8147 233.41C24.5687 234.889 25.4182 236.198 25.8827 237.791C26.221 238.95 26.6535 240.114 26.6083 241.337C26.5941 241.719 26.2834 241.933 26.0822 241.518C25.5541 240.429 24.9517 239.433 24.2863 238.416C22.2408 235.291 20.2702 232.127 18.282 228.965" stroke="black" stroke-width="18.9995" stroke-linecap="round"/>
<path d="M17.4644 226.025L21.5458 229.617" stroke="black" stroke-width="18.9995" stroke-linecap="round"/>
<path d="M38.0357 210.027C38.0357 207.191 38.0357 215.699 38.0357 218.534C38.0357 222.155 38.3336 225.76 36.3305 228.938C35.5994 230.097 34.5886 231.042 33.537 231.913C31.9387 233.235 30.7763 235.006 29.7094 236.765C28.9554 238.008 28.0768 239.352 28.0768 240.847C28.0768 241.593 28.0768 242.34 28.0768 243.087C28.0768 243.472 27.9136 246.055 27.9136 244.638" stroke="black" stroke-width="18.9995" stroke-linecap="round"/>
<path d="M27.9133 244.474C27.9133 244.73 27.9526 246.557 28.2398 246.269" stroke="black" stroke-width="18.9995" stroke-linecap="round"/>
<path d="M35.424 238.27C37.7626 236.633 40.2867 234.695 41.9454 232.311C42.1988 231.947 42.3978 231.643 42.4714 231.214C42.8808 228.826 43.3497 226.462 43.6687 224.057C43.9575 221.88 44.2401 219.744 44.2401 217.545C44.2401 215.609 44.4636 213.528 43.9589 211.641C42.6596 206.783 39.6352 202.48 37.5464 197.954C36.0228 194.653 34.3188 191.432 33.1384 187.986C32.7935 186.979 32.4901 185.676 31.9593 184.757C31.7373 184.373 31.2895 184.285 30.8891 184.467C30.1132 184.82 29.8443 186.032 29.3834 186.68C28.3479 188.138 27.2446 189.443 26.1001 190.816C24.9345 192.215 23.7207 193.869 22.8893 195.496C22.6691 195.927 22.6609 196.668 22.3633 196.965" stroke="black" stroke-width="18.9995" stroke-linecap="round"/>
<path d="M19.4231 199.088C19.3567 199.819 18.9333 200.476 18.9333 201.21" stroke="black" stroke-width="18.9995" stroke-linecap="round"/>
<path d="M47.3415 219.985C47.4244 218.991 47.9171 218.204 48.2213 217.291C48.6791 215.918 48.8275 214.248 48.8109 212.802C48.7966 211.562 48.3318 210.382 47.9946 209.201C47.538 207.603 47.0998 206.002 46.6159 204.412C45.7538 201.579 44.7293 198.875 43.2238 196.313C41.7246 193.761 40.1303 191.375 38.3895 188.993C37.4706 187.736 36.3421 186.617 35.7138 185.175C35.021 183.584 34.0951 182.075 33.1379 180.64" stroke="black" stroke-width="18.9995" stroke-linecap="round"/>
<path d="M18.608 121.54C18.5147 122.1 18.1478 122.661 17.9277 123.173C17.0686 125.169 16.5124 127.211 16.0865 129.34C15.2322 133.612 14.9135 138.79 16.3223 142.972C17.1113 145.315 18.0527 147.527 19.4243 149.584C19.4636 149.643 19.5694 149.758 19.5694 149.838C19.5694 150.279 19.2374 149.022 19.0978 148.605C17.7469 144.567 16.796 140.546 16.5219 136.288C16.2334 131.807 16.3223 127.307 16.3223 122.819C16.3223 122.442 16.3784 122.338 16.2226 122.719C15.6554 124.106 15.3214 125.439 15.3609 126.964C15.4709 131.21 16.7822 135.315 18.3359 139.226C19.9625 143.322 21.6318 147.414 23.3969 151.453C24.2399 153.382 25.1879 155.271 26.1179 157.131" stroke="black" stroke-width="18.9995" stroke-linecap="round"/>
<path d="M19.7513 151.416C19.7096 151.384 19.5826 154.849 19.5971 155.37C19.6316 156.614 19.7576 157.871 20.5494 158.889C21.0993 159.596 21.8777 160.079 22.5086 160.703C24.1734 162.352 25.4642 164.297 26.9347 166.109" stroke="black" stroke-width="18.9995" stroke-linecap="round"/>
<path d="M40.3221 128.888L31.9958 159.417" stroke="black" stroke-width="18.9995" stroke-linecap="round"/>
<path d="M39.8315 127.907C40.2776 128.967 39.9948 130.531 39.9948 131.662C39.9948 133.314 40.0959 135.004 39.9675 136.65C39.7518 139.419 38.4693 142.567 37.2556 145.049C36.8384 145.903 36.3726 146.764 36.013 147.643C35.8058 148.15 37.1125 147.455 37.5912 147.19C38.6054 146.627 39.5363 146.022 40.3031 145.149C42.0603 143.148 43.0372 140.925 43.659 138.319C44.1846 136.117 44.0762 133.855 44.0762 131.608C44.0762 130.378 44.5181 128.002 43.6227 126.964C43.2973 126.586 43.2111 127.692 43.1692 127.871C42.5596 130.475 42.2979 133.108 41.8541 135.743C40.8789 141.535 39.4346 147.368 36.9291 152.704C36.4679 153.687 36.0121 154.709 35.4235 155.625C35.1897 155.989 35.2602 155.904 35.2602 155.498" stroke="black" stroke-width="18.9995" stroke-linecap="round"/>
<path d="M41.9538 127.253C41.9538 125.455 41.9604 123.769 41.2826 122.065C40.3486 119.718 39.2468 117.539 38.0446 115.336C35.9311 111.461 32.3744 107.993 32.004 103.363C31.9217 102.333 31.9104 101.521 30.5256 102.075C29.6754 102.415 30.0359 100.072 30.0359 99.6626" stroke="black" stroke-width="18.9995" stroke-linecap="round"/>
<path d="M29.711 100.154C29.0964 100.564 28.4058 100.68 27.8426 101.206C26.6299 102.338 25.479 103.564 24.5049 104.906C23.5091 106.279 22.7518 107.716 22.1739 109.305C21.7303 110.525 21.4704 111.901 20.895 113.051" stroke="black" stroke-width="18.9995" stroke-linecap="round"/>
<path d="M20.5671 114.03C19.6842 114.295 19.1848 116.323 18.9345 117.06C18.6064 118.026 18.2815 118.883 18.2815 119.908" stroke="black" stroke-width="18.9995" stroke-linecap="round"/>
<path d="M34.9351 105.05C34.961 104.868 35.1007 105.048 35.1709 105.122C36.2974 106.314 37.3499 107.623 38.3091 108.95C39.542 110.656 40.3064 112.689 40.9031 114.7C41.3854 116.326 41.7458 117.972 42.2817 119.58" stroke="black" stroke-width="18.9995" stroke-linecap="round"/>
<path d="M37.22 38.7679C36.8748 41.2533 35.273 43.8788 34.1725 46.0965C33.4863 47.4792 32.7921 48.8701 32.032 50.2143C31.7172 50.7709 31.3639 51.7037 30.735 50.9489C27.8037 47.4314 26.6107 42.1224 26.0004 37.6977C25.5324 34.3044 25.9434 30.8822 25.556 27.503C25.5112 27.1127 25.4196 25.8272 24.9392 25.6165C24.1781 25.2827 22.7196 27.3446 22.3997 27.7389C20.5802 29.9807 18.9875 32.7833 17.8828 35.4393C15.1074 42.1121 13.2191 49.5147 15.2888 56.6267C15.95 58.8989 16.6598 60.8509 18.0279 62.758C18.9957 64.107 20.242 65.1533 21.2931 66.4314C23.405 68.9992 23.6215 71.8548 24.5674 74.9027C24.7968 75.642 25.4805 77.129 24.3588 75.4106C23.0609 73.4225 21.0573 71.3428 21.0573 68.8077" stroke="black" stroke-width="18.9995" stroke-linecap="round"/>
<path d="M21.0566 68.8067C21.0566 70.0041 21.76 71.0223 22.2176 72.09C22.6557 73.1123 23.3228 74.2576 23.959 75.1738C24.2487 75.591 24.5202 76.1617 24.6756 76.6431C25.0361 77.7609 25.5696 78.6906 26.027 79.736C26.1457 80.0073 26.193 80.5004 26.6437 80.1623C27.1806 79.7597 27.4666 78.9677 27.7866 78.4027C28.4227 77.2793 29.2186 76.2961 30.0359 75.3008C32.3772 72.4497 35.1627 69.9314 37.2012 66.8385C39.6274 63.1573 41.2982 58.8757 42.6523 54.7029C44.0528 50.387 45.2446 45.7816 45.9084 41.2884C46.3113 38.5607 46.3625 35.6158 45.0195 33.1163C42.4577 28.3485 38.3027 24.846 35.3328 20.3911C34.4764 19.1065 33.6206 17.8115 32.8204 16.4911C32.531 16.0136 32.2306 15.0369 31.4871 15.2847C31.0387 15.4342 30.7522 15.9135 30.4894 16.2734C29.8661 17.127 29.1726 17.8332 28.4033 18.559C26.9189 19.9597 24.9219 21.5674 23.9953 23.4205" stroke="black" stroke-width="18.9995" stroke-linecap="round"/>
<path d="M101.193 205.52C98.7553 211.816 93.0728 216.578 89.5064 222.242C88.8943 223.214 88.5967 224.416 88.0112 225.429C86.806 227.515 85.1697 229.168 83.7813 231.135C81.7794 233.971 81.0073 236.295 81.0073 239.555C81.0073 240.663 81.0073 241.772 81.0073 242.88C81.0073 243.197 81.0073 245.321 81.0073 244.119" stroke="black" stroke-width="18.9995" stroke-linecap="round"/>
<path d="M92.5468 228.377C91.9209 229.629 91.7998 231.207 91.2187 232.527C90.2538 234.72 89.2092 236.847 87.9083 238.865C86.8575 240.495 85.5581 242.667 83.6701 243.406C83.238 243.575 81.8576 244.127 81.8244 244.724C81.8039 245.094 81.1213 246.282 81.1213 245.427" stroke="black" stroke-width="18.9995" stroke-linecap="round"/>
<path d="M81.1226 245.251C82.5763 245.251 84.0413 245.17 85.4779 245.427C87.5602 245.8 89.792 246.025 91.9035 245.681C94.561 245.248 97.082 244.451 99.5596 243.406C102.965 241.969 105.832 239.491 108.759 237.302C113.261 233.934 117.566 229.455 120.555 224.685C123.789 219.526 124.644 212.804 125.135 206.854C125.179 206.32 125.719 202.695 125.008 202.44C123.605 201.937 121.932 203.899 121.092 204.647C114.04 210.929 106.999 217.148 101.161 224.607C99.8106 226.333 98.864 228.389 97.294 229.959C96.9883 230.264 96.6246 230.086 96.2784 229.939C94.4239 229.152 92.4473 228.889 90.4778 228.553C88.3818 228.195 86.2776 227.934 85.0775 226.004C84.2303 224.641 82.7693 224.22 81.2007 224.158C79.9928 224.111 82.1083 220.128 82.3139 219.627C84.2188 214.988 86.2757 210.101 89.1595 205.975C92.4017 201.336 97.168 197.967 102.001 195.194C106.362 192.692 110.96 190.273 115.653 188.475C116.893 188 118.082 187.57 119.403 187.382C119.593 187.355 120.884 187.069 120.594 187.069C116.502 187.069 112.7 187.615 108.856 189.081C104.015 190.927 99.3463 193.772 95.341 197.049C93.7732 198.332 92.3332 199.82 90.8391 201.19C90.1733 201.8 88.1744 203.527 89.013 203.192C90.6285 202.546 92.0397 200.643 93.2902 199.51C96.9523 196.192 100.863 193.207 104.94 190.419C108.043 188.297 111.155 186.2 114.54 184.55C115.759 183.955 117.038 183.741 118.329 183.378C119.476 183.055 121 182.409 122.196 182.792C123.76 183.293 124.395 183.916 124.813 185.409C125.572 188.12 125.203 191.049 125.506 193.846C125.903 197.502 126.589 201.284 126.649 204.959C126.661 205.714 126.649 206.47 126.649 207.225C126.649 207.879 125.949 210.148 127.108 209.891C129.703 209.314 128.809 203.199 128.651 201.512C128.245 197.188 127.319 192.848 126.649 188.554C126.42 187.089 126.506 185.575 126.034 184.159C125.796 183.447 125.946 182.546 125.946 181.796" stroke="black" stroke-width="18.9995" stroke-linecap="round"/>
<path d="M140.711 128.008C136.054 128.008 132.377 132.885 129.97 136.328C126.562 141.202 125.056 147.507 124.394 153.34C124.208 154.969 124.188 156.567 124.188 158.203C124.188 158.446 124.241 161.177 124.54 160.879" stroke="black" stroke-width="18.9995" stroke-linecap="round"/>
<path d="M126.121 164.57C126.646 164.991 127.826 164.746 128.445 164.746C131.044 164.746 133.199 164.116 135.652 163.242C143.131 160.579 150.002 155.861 156.364 151.192C159.147 149.149 161.679 146.683 164.225 144.356C166.368 142.398 168.029 140.524 169.362 137.93C171.91 132.97 172.733 127.398 173.493 121.915C173.824 119.519 173.979 117.153 174.147 114.747C174.317 112.311 174.96 109.882 174.987 107.443C175.01 105.348 174.707 101.818 171.92 101.818C170.982 101.818 169.884 101.654 168.971 101.857C168.521 101.957 168.176 102.248 167.76 102.423C166.885 102.794 165.877 102.942 164.968 103.224C162.033 104.135 159.276 105.376 156.53 106.749C153.617 108.206 150.673 109.524 147.878 111.212C145.766 112.488 143.981 114.429 142.312 116.232C139.498 119.271 137.2 122.776 134.285 125.723C133.102 126.919 132.048 128.222 130.964 129.503C130.805 129.692 129.864 131.093 130.271 130.098C131.421 127.288 133.243 124.306 135.125 121.954C137.431 119.072 140.068 116.622 142.829 114.191C146.058 111.348 149.137 108.243 152.741 105.87C155.389 104.127 157.75 102.52 160.847 101.681C163.355 101.001 165.86 100.763 168.444 100.763C169.596 100.763 171.493 101.049 172.438 100.314C172.717 100.097 173.173 100.088 172.702 100.06C172.328 100.038 172.124 99.6716 171.999 99.3569" stroke="black" stroke-width="18.9995" stroke-linecap="round"/>
<path d="M171.823 98.8291C171.823 98.4116 171.647 98.1436 171.647 97.7744" stroke="black" stroke-width="18.9995" stroke-linecap="round"/>
<path d="M165.496 100.235C164.188 100.491 162.837 100.339 161.531 100.626C160.375 100.88 159.284 101.511 158.211 101.993C156.364 102.824 154.412 104.033 152.957 105.47C148.941 109.436 145.431 113.812 142.196 118.418C141.404 119.547 140.486 120.597 139.657 121.7C139.432 121.999 139.269 122.383 138.866 122.383C137.991 122.383 136.883 123.267 136.229 123.721C133.04 125.937 130.86 128.737 129.638 132.403" stroke="black" stroke-width="18.9995" stroke-linecap="round"/>
<path d="M129.638 132.403C129.638 130.958 129.509 129.446 129.677 128.009C129.987 125.359 131.581 122.75 133.183 120.694C137.193 115.546 142.642 111.659 148.211 108.38C150.181 107.221 152.488 105.158 154.91 105.158C157.78 105.158 160.172 107.423 161.902 109.542C165.073 113.425 166.118 117.942 165.555 122.872C165.111 126.751 163.148 130.277 161.082 133.516C158.81 137.08 155.845 140.096 152.801 142.999C152.364 143.416 151.933 143.844 151.512 144.278C151.305 144.491 151.258 144.802 151.258 144.375C151.258 136.575 151.436 128.754 151.151 120.958C151.022 117.445 150.475 114.098 148.631 111.056C148.095 110.172 147.759 109.079 147.04 108.322C146.368 107.614 146.714 106.793 146.336 106.037" stroke="black" stroke-width="18.9995" stroke-linecap="round"/>
<path d="M209.44 32.562C209.44 36.9251 210.016 41.7297 208.776 45.9601C207.636 49.8502 203.594 53.4329 200.251 55.4521C196.519 57.706 192.362 59.3267 188.474 61.2918C185.578 62.7555 183.082 64.6354 180.437 66.487" stroke="black" stroke-width="18.9995" stroke-linecap="round"/>
<path d="M227.195 38.5376C225.547 42.3815 222.494 45.6742 219.636 48.6448C215.562 52.8803 211.41 56.7408 206.727 60.3046C202.891 63.2233 199.144 66.0219 194.989 68.4587C191.878 70.2832 188.528 71.7029 185.223 73.1266C183.602 73.825 181.879 74.7131 180.614 75.9781C180.005 76.587 179.325 77.3449 178.895 78.0874C178.519 78.7366 178.134 78.7998 177.45 79.1421" stroke="black" stroke-width="18.9995" stroke-linecap="round"/>
<path d="M177.447 79.1424C177.447 69.6124 176.856 60.0544 178.053 50.5884C178.545 46.6949 179.314 42.7699 180.748 39.1043C182.615 34.3338 186.246 30.8307 190.094 27.5714C196.974 21.7417 205.011 16.9934 213.696 14.4956C218.553 13.0989 223.318 12.1924 228.227 13.8511C232.261 15.2138 234.619 20.0738 235.454 23.968C235.936 26.2173 235.822 27.9631 234.233 29.7198C232.577 31.5497 231.164 30.554 229.262 29.3585C226.461 27.5973 223.867 26.3876 220.503 26.2531C213.402 25.9691 206.78 31.4732 201.568 35.6474C196.905 39.3822 191.972 43.4355 188.111 48.0299C186.724 49.681 185.418 51.7215 185.006 53.8696C184.299 57.5529 181.588 62.5382 183.795 66.1252C185.013 68.1046 187.706 70.2956 189.84 71.2324C191.919 72.1452 194.399 72.5375 196.646 72.8535C198.252 73.0794 199.51 72.7965 201.031 72.1602C204.925 70.5311 208.845 67.997 211.988 65.1974C214.136 63.2835 215.995 61.1 217.798 58.8695C218.205 58.3657 218.228 58.1794 218.228 57.5219" stroke="black" stroke-width="18.9995" stroke-linecap="round"/>
<path d="M186.941 64.5527C186.23 66.3315 186.59 68.6049 186.59 70.5096C186.59 71.3395 186.545 72.1816 186.59 73.0096C186.635 73.8678 187.178 75.0279 187.732 75.7048C188.128 76.1892 188.227 76.6434 188.347 75.8025" stroke="black" stroke-width="18.9995" stroke-linecap="round"/>
<path d="M222.095 50.3139C222.095 55.7995 222.446 61.2731 222.446 66.7588C222.446 68.2733 222.514 69.7372 222.173 71.2216C222.009 71.9358 221.594 72.7377 221.568 73.4774C221.529 74.5653 222.285 75.377 222.72 76.3093C223.09 77.1014 223.575 77.668 224.204 78.2624C225.262 79.2615 226.684 77.3646 227.31 76.739C228.085 75.9634 228.882 75.2038 229.634 74.4051C230.064 73.9479 230.806 72.3027 230.806 72.9305C230.806 73.488 229.305 74.3693 228.96 74.6492C228.163 75.2965 227.408 75.8843 226.802 76.7195C226.27 77.4519 225.312 78.7057 225.259 79.6686C225.24 80.0075 225.122 80.7825 225.689 80.4694C226.568 79.9835 227.154 79.0615 227.769 78.3015C229.061 76.7027 230.365 75.1092 231.665 73.5164C235.516 68.7985 239.732 64.2234 242.758 58.9074C244.256 56.2767 245.046 53.316 245.395 50.3139C245.874 46.1997 244.299 42.8113 243.227 38.9274C242.405 35.9467 241.384 32.8653 239.985 30.0995C239.625 29.3864 238.442 28.2549 238.442 27.4629" stroke="black" stroke-width="18.9995" stroke-linecap="round"/>
<path d="M234.048 122.735C234.048 119.512 234.076 116.289 234.009 113.067C233.934 109.478 234.06 105.843 233.56 102.286C233.471 101.653 233.545 100.996 232.954 100.587C232.56 100.314 232.078 100.199 231.763 99.8838" stroke="black" stroke-width="18.9995" stroke-linecap="round"/>
<path d="M225.963 139.61C225.963 147.162 225.963 124.506 225.963 116.954C225.963 114.265 225.953 111.651 225.71 108.976C225.707 108.944 225.537 106.103 225.338 106.046C224.394 105.776 222.468 109.114 221.842 109.845C218.989 113.183 216.78 116.836 215.143 120.938C213.895 124.066 212.903 127.502 212.458 130.841C212.05 133.901 211.827 137.316 213.503 140.03C215.621 143.461 217.728 146.895 219.821 150.342C221.154 152.538 222.701 155.035 224.733 156.66" stroke="black" stroke-width="18.9995" stroke-linecap="round"/>
<path d="M219.459 152.265C219.137 151.983 219.332 152.67 219.391 152.802C219.768 153.639 220.531 154.39 221.041 155.156C221.879 156.412 222.58 157.722 223.463 158.944C224.358 160.184 225.057 161.522 226.031 162.714C226.428 163.199 226.544 163.781 226.666 164.394" stroke="black" stroke-width="18.9995" stroke-linecap="round"/>
<path d="M235.102 109.376C235.102 108.958 235.175 109.531 235.317 109.688C235.972 110.411 236.716 111.073 237.426 111.739C238.995 113.209 240.373 114.745 241.44 116.612C244.32 121.652 245.772 127.872 245.825 133.652C245.872 138.823 243.465 143.537 240.004 147.343C238.628 148.857 237.105 150.252 235.805 151.836C235.282 152.474 234.434 153.847 233.52 153.847" stroke="black" stroke-width="18.9995" stroke-linecap="round"/>
<path d="M233.52 153.848V154.727" stroke="black" stroke-width="18.9995" stroke-linecap="round"/>
<path d="M240.729 218.708C240.513 215.686 239.248 212.798 238.727 209.822C238.024 205.811 237.641 201.784 236.52 197.859C236.287 197.043 236.165 195.909 235.768 195.154C235.278 194.223 234.581 193.372 234.127 192.381C233.629 191.293 233.222 190.275 232.906 189.119C232.63 188.105 232.661 187.022 232.369 186.023C232.21 185.477 232.115 184.343 231.588 184.08" stroke="black" stroke-width="18.9995" stroke-linecap="round"/>
<path d="M231.588 181.796V184.081" stroke="black" stroke-width="18.9995" stroke-linecap="round"/>
<path d="M231.589 181.796C231.409 182.964 230.343 183.992 229.695 184.921C228.698 186.348 227.673 187.778 226.785 189.276C224.041 193.906 221.356 198.398 220.75 203.846C220.164 209.104 219.812 214.287 219.812 219.568C219.812 221.913 219.672 224.303 220.339 226.58C220.548 227.29 220.838 227.77 221.179 228.377C221.952 229.75 220.503 225.299 220.134 223.768C218.825 218.322 218.406 212.902 218.406 207.323C218.406 204.637 218.139 201.675 218.924 199.061C219.215 198.091 219.816 195.449 218.23 197.381C216.955 198.936 216.349 200.932 216.052 202.889C215.623 205.727 215.613 208.629 215.613 211.492C215.613 214.408 215.617 217.369 216.179 220.242C217.004 224.455 218.914 228.381 221.648 231.677C222.587 232.809 223.739 234.559 225.085 235.232" stroke="black" stroke-width="18.9995" stroke-linecap="round"/>
<path d="M221.394 232.77C221.394 236.234 221.147 239.226 223.425 242.087C224.619 243.586 225.822 245.034 227.292 246.237C227.716 246.584 228.178 247.807 228.786 247.047C229.985 245.549 230.737 243.554 231.764 241.93C233.801 238.711 236.207 235.705 238.483 232.653C241.748 228.274 243.648 224.035 244.752 218.63C245.865 213.181 246.445 207.383 244.694 202.029C244.051 200.064 243.509 198.214 242.409 196.443C241.38 194.787 240.416 192.808 239.069 191.385C238.16 190.425 237.391 189.39 236.549 188.377C236.272 188.042 235.983 187.868 235.983 187.42" stroke="black" stroke-width="18.9995" stroke-linecap="round"/>
<path d="M232.819 297.105C233.022 297.207 232.994 294.419 232.994 294.195C232.994 290.087 232.994 285.979 232.994 281.871C232.994 278.838 232.95 275.936 232.643 272.945C232.509 271.638 232.097 270.407 231.803 269.156C231.699 268.715 231.985 267.597 231.588 267.398" stroke="black" stroke-width="18.9995" stroke-linecap="round"/>
<path d="M225.962 310.289C225.962 311.985 225.962 313.681 225.962 315.377C225.962 316.023 225.785 315.099 225.669 314.879C224.513 312.688 222.828 310.842 221.724 308.6C220.144 305.393 219.153 302.14 218.657 298.61C217.944 293.536 218.411 288.746 220.239 283.981C221.594 280.452 223.647 277.147 225.337 273.767C225.416 273.608 225.9 273.079 225.747 272.888C225.473 272.546 224.234 273.422 224.058 273.561C222.895 274.479 222.143 275.83 221.489 277.126C219.33 281.403 217.339 285.894 215.825 290.436C213.433 297.612 214.593 305.329 216.392 312.477C217.694 317.652 219.053 323.702 222.622 327.867" stroke="black" stroke-width="18.9995" stroke-linecap="round"/>
<path d="M222.624 327.866C222.794 328.805 224.012 330.274 224.997 330.493C225.466 330.597 226.551 331.375 226.666 331.03" stroke="black" stroke-width="18.9995" stroke-linecap="round"/>
<path d="M229.831 331.206C230.109 331.449 230.015 330.869 230.085 330.679C230.403 329.808 231.408 329.004 232.018 328.355C234.034 326.207 236.197 324.213 238.131 321.988C240.154 319.662 241.293 316.445 242.506 313.648C243.331 311.747 244.206 309.806 244.557 307.75C244.877 305.876 244.878 303.974 245.045 302.086C245.384 298.264 245.658 294.151 245.016 290.348C244.417 286.802 242.626 283.379 240.758 280.358C239.853 278.894 239.15 277.215 238.092 275.856C237.674 275.319 237.347 274.749 237.213 274.079" stroke="black" stroke-width="18.9995" stroke-linecap="round"/>
</g>
<defs>
<clipPath id="clip0_205_5878">
<rect width="262.614" height="354.06" fill="white" transform="translate(0.543945 0.394531)"/>
</clipPath>
</defs>
</svg>
