<svg width="264" height="355" viewBox="0 0 264 355" fill="none" xmlns="http://www.w3.org/2000/svg">
<g style="mix-blend-mode:darken" clip-path="url(#clip0_205_5977)">
<rect width="263.786" height="354.06" transform="translate(0.0634766 0.925781)" fill="white"/>
<path d="M157.187 154.935C150.135 198.4 160.401 281.404 258.724 266.618" stroke="black" stroke-width="5.19115"/>
<path d="M154.787 157.451C194.478 152.867 270.18 168.597 256.305 269.113" stroke="black" stroke-width="5.19115"/>
<path d="M259.232 234.907C218.208 228.36 140.385 241.087 156.436 345.281" stroke="black" stroke-width="5.19115"/>
<path d="M256.812 232.403C261.99 274.494 248.853 355.31 154.036 342.756" stroke="black" stroke-width="5.19115"/>
<path d="M153.725 345.646C160.7 302.167 150.285 219.184 51.9883 234.169" stroke="black" stroke-width="5.19115"/>
<path d="M156.123 343.127C116.441 347.792 40.7102 332.215 54.4053 231.671" stroke="black" stroke-width="5.19115"/>
<path d="M51.5471 265.88C92.5824 272.344 170.382 259.46 154.144 155.298" stroke="black" stroke-width="5.19115"/>
<path d="M53.9694 268.378C48.7161 226.298 61.7078 145.456 156.547 157.817" stroke="black" stroke-width="5.19115"/>
<path d="M136.834 2.17461C131.552 37.3743 141.826 104.148 225.908 90.3718" stroke="black" stroke-width="5.19115"/>
<path d="M134.812 4.24835C168.778 -0.195977 233.996 11.0725 223.869 92.4289" stroke="black" stroke-width="5.19115"/>
<path d="M225.765 65.9077C190.458 61.3964 123.925 73.1265 139.535 156.888" stroke="black" stroke-width="5.19115"/>
<path d="M223.642 63.9355C228.828 97.7966 218.987 163.245 137.429 154.899" stroke="black" stroke-width="5.19115"/>
<path d="M137.23 156.106C142.444 120.897 132.043 54.1429 47.9873 68.0793" stroke="black" stroke-width="5.19115"/>
<path d="M139.237 154.029C105.28 158.538 40.0406 147.394 50.0118 66.0187" stroke="black" stroke-width="5.19115"/>
<path d="M48.1752 93.668C83.4905 98.1119 150.001 86.255 134.231 2.52363" stroke="black" stroke-width="5.19115"/>
<path d="M50.2975 95.6369C45.0475 61.7857 54.7634 -3.68106 136.337 4.50953" stroke="black" stroke-width="5.19115"/>
<path d="M23.358 176.7C44.6891 163.263 75.7734 126.882 29.5117 88.1285" stroke="black" stroke-width="5.19115"/>
<path d="M25.3927 176.822C7.30603 160.649 -16.795 120.441 31.5452 88.2669" stroke="black" stroke-width="5.19115"/>
<path d="M23.7037 92.9616C45.0348 79.5242 76.1191 43.1435 29.8574 4.38976" stroke="black" stroke-width="5.19115"/>
<path d="M25.7389 93.0868C7.65223 76.9135 -16.4488 36.7061 31.8914 4.5315" stroke="black" stroke-width="5.19115"/>
<path d="M25.3311 341.114C46.6623 327.677 77.7466 291.296 31.4849 252.543" stroke="black" stroke-width="5.19115"/>
<path d="M27.3683 341.239C9.28162 325.065 -14.8194 284.858 33.5208 252.683" stroke="black" stroke-width="5.19115"/>
<path d="M25.6734 257.38C47.0046 243.943 78.0889 207.562 31.8271 168.808" stroke="black" stroke-width="5.19115"/>
<path d="M27.7091 257.505C9.62244 241.332 -14.4786 201.125 33.8616 168.95" stroke="black" stroke-width="5.19115"/>
<path d="M116.917 188.53C116.917 197.239 111.22 204.515 106.833 211.724C100.147 222.707 92.1067 232.824 83.6101 242.454C79.0512 247.62 75.596 252.442 69.5478 255.844C68.1694 256.619 62.9648 259.64 62.9648 256.852C62.9648 253.848 63.6302 251.019 64.5896 248.14C65.4432 245.58 64.9818 242.394 64.9818 239.681C64.9818 232.211 65.0121 225.023 67.3908 217.887C68.3767 214.929 70.194 212.138 71.0325 209.203C71.5655 207.337 72.9477 205.467 73.7497 203.684C74.5136 201.987 74.9052 200.164 76.0467 198.642C80.867 192.215 85.9705 186.312 91.4817 180.434C94.232 177.5 98.3536 174.696 101.678 172.394C104.919 170.151 107.439 168.323 111.259 166.848C115.912 165.05 120.708 165.027 125.489 163.934C129.982 162.907 134.462 162.814 139.103 162.814" stroke="black" stroke-width="18.9995" stroke-linecap="round"/>
<path d="M147.171 167.855C147.171 170.918 147.171 173.981 147.171 177.044C147.171 180.938 144.695 186.07 143.025 189.537C141.03 193.682 139.993 198.314 138.347 202.619C137.809 204.027 137.068 205.341 136.33 206.653C135.968 207.296 135.303 209.174 135.07 208.474C133.671 204.278 140.271 180.461 133.333 180.461C130.527 180.461 128.614 182.379 126.694 184.299C119.583 191.41 112.167 198.161 107.057 206.961C106.559 207.818 101.767 215.488 104.396 215.225C110.179 214.646 115.352 207.784 116.189 202.479C117.166 196.292 118.43 182.939 108.85 183.486C107.375 183.571 104.197 186.909 102.771 187.8C97.6635 190.993 93.2685 197.959 91.314 203.544C90.9484 204.588 90.0106 206.531 90.1935 207.689C90.5344 209.848 96.5901 204.059 96.9165 203.712C102.905 197.341 106.159 189.021 112.099 182.59C114.541 179.947 117.286 177.572 119.831 175.027C120.675 174.183 121.589 172.895 122.716 172.394C125.141 171.316 124.704 172.128 122.744 173.626C118.662 176.748 114.731 179.936 111.343 183.823C105.854 190.119 100.452 197.254 95.74 204.16C91.1421 210.899 86.0554 217.3 81.4255 224.021C78.2817 228.584 76.7148 233.763 74.0582 238.559C73.1569 240.187 67.4257 249.816 71.5371 250.044C72.7843 250.114 71.4874 255.983 72.5455 257.104C76.5373 261.33 80.5499 257.453 85.2633 257.104C88.0382 256.898 91.535 255.078 93.8351 253.574C96.8285 251.617 100.119 250.397 103.191 248.532C104.851 247.524 112.64 244.233 107.953 248.028C105.666 249.879 103.355 250.882 100.81 252.313C100.346 252.575 97.7196 254.02 98.7653 254.078C101.38 254.223 104.77 251.532 106.777 250.072C108.517 248.807 110.182 247.626 111.987 246.515C113.716 245.451 116.718 244.235 117.814 242.481C120.741 237.798 127.562 236.543 130.139 231.388C132.625 226.417 136.295 222.371 138.711 217.27C140.001 214.547 140.234 210.459 142.017 208.082C143.943 205.513 144.99 201.434 145.77 198.389C146.604 195.139 146.667 192.173 146.667 188.837C146.667 185.987 146.419 186.662 144.65 188.529C142.312 190.996 140.294 194.201 138.571 197.129C135.1 203.03 130.213 208.194 125.825 213.404C117.605 223.166 110.613 233.72 99.8858 240.968C97.814 242.368 93.958 244.045 92.4625 246.039C91.3383 247.538 90.1935 248.361 90.1935 246.011" stroke="black" stroke-width="18.9995" stroke-linecap="round"/>
<path d="M143.641 165.335C143.641 172.469 142.512 150.938 143.865 143.933C144.574 140.265 146.316 137.141 148.852 134.437C153.283 129.71 157.875 125.228 162.018 120.234C169.288 111.47 178.468 105.485 183.699 95.0231C188.864 84.693 192.437 73.516 192.551 61.8561C192.649 51.9035 184.069 44.07 174.903 41.0148C171.77 39.9702 168.084 38.8688 164.847 38.2975C161.555 37.7167 158.801 36.1796 155.631 35.2442C151.203 33.9377 146.754 33.1515 142.241 32.3309C137.899 31.5414 131.215 31.4846 126.89 32.3309C109.581 35.7173 95.2595 53.4734 93.1066 70.428C91.9638 79.4272 92.886 88.7853 95.6277 97.4321C98.1216 105.297 102.463 114.758 108.85 120.346C116.402 126.955 124.87 132.56 135.069 132.56" stroke="black" stroke-width="18.9995" stroke-linecap="round"/>
<path d="M143.64 187.52C148.787 187.52 153.892 187.442 158.991 188.305C166.162 189.518 172.092 192.747 178.207 196.484C190.59 204.051 198.192 218.371 204.931 230.688C210.921 241.636 213.848 253.63 214.203 266.068C214.514 276.954 212.305 285.828 203.811 293.128C195.012 300.689 184.459 305.433 173.445 308.815C165.803 311.161 155.428 313.93 147.449 312.26C141.189 310.95 135.144 306.126 130.362 302.204C121.723 295.12 113.474 287.519 106.411 278.841C100.989 272.181 96.8515 265.83 95.7381 257.216C95.165 252.782 94.5468 247.891 92.2085 243.994" stroke="black" stroke-width="18.9995" stroke-linecap="round"/>
<path d="M26.1545 323.661C26.1545 314.363 25.9051 304.966 28.2834 295.928C28.8811 293.657 29.6324 291.356 29.6841 288.981C29.7206 287.301 29.3221 285.171 29.9362 283.575C30.6903 281.614 31.8636 275.336 29.6841 274.247" stroke="black" stroke-width="18.9995" stroke-linecap="round"/>
<path d="M26.1553 198.614V234.919" stroke="black" stroke-width="18.9995" stroke-linecap="round"/>
<path d="M21.1138 153.737C21.9501 153.11 21.613 150.829 21.618 150.039C21.644 145.95 21.618 141.859 21.618 137.77C21.618 132.167 21.618 126.565 21.618 120.962" stroke="black" stroke-width="18.9995" stroke-linecap="round"/>
<path d="M24.1387 30.2021V62.9769" stroke="black" stroke-width="18.9995" stroke-linecap="round"/>
<path d="M19.1677 133.677C18.8184 133.6 15.2065 127.544 15.2065 130.156C15.2065 132.13 16.0868 133.733 16.0868 135.438C16.0868 137.85 15.8817 140.258 16.8692 142.48C17.6852 144.316 16.7001 146.921 17.8473 148.642" stroke="black" stroke-width="18.9995" stroke-linecap="round"/>
<path d="M12.1833 139.157C12.1833 138.112 11.5086 137.465 11.0346 136.612C10.6995 136.009 10.958 135.895 11.1494 135.172C11.4204 134.148 11.6783 132.898 11.7061 131.841C11.7334 130.802 11.9662 129.68 12.307 128.695C12.4329 128.331 12.6426 127.957 12.8283 127.617C14.826 123.955 16.1982 119.99 17.75 116.095" stroke="black" stroke-width="18.9995" stroke-linecap="round"/>
<path d="M26.1793 115.459C26.1793 114.39 26.391 113.008 26.0998 111.96C25.7111 110.561 25.4234 111.087 24.2707 110.767C23.8198 110.642 23.3388 110.687 22.8746 110.687C22.5798 110.687 21.7951 110.872 21.991 110.652C22.9299 109.596 24.4186 108.803 25.1013 107.506C25.8453 106.093 27.596 105.513 28.406 104.096C28.6346 103.695 29.0422 103.394 29.0422 102.894C29.0422 102.524 29.3394 101.611 29.0422 101.462" stroke="black" stroke-width="18.9995" stroke-linecap="round"/>
<path d="M32.2225 103.848C32.2225 105.306 33.1595 106.912 33.8484 108.177C34.8 109.926 35.6156 111.682 35.8453 113.673C36.1521 116.332 36.3578 118.985 36.3578 121.661C36.3578 123.865 36.4482 126.079 36.0928 128.262C35.4064 132.478 33.96 136.318 32.0635 140.111" stroke="black" stroke-width="18.9995" stroke-linecap="round"/>
<path d="M36.5187 110.527C36.5187 110.39 36.5102 111.23 36.5275 111.411C36.6077 112.253 37.3309 113.327 37.6497 114.124C38.4405 116.101 39.1588 118.025 39.4611 120.141C39.7455 122.132 39.8587 124.156 39.8587 126.167C39.8587 128.135 40.0678 130.238 39.8234 132.194C39.6963 133.21 39.5048 134.217 39.3816 135.233C39.3357 135.611 38.8707 136.473 39.0811 136.841C39.5493 137.661 41.5357 133.845 41.5994 133.272C41.8047 131.425 42.1368 129.591 42.3682 127.74C42.5947 125.928 42.2778 124.097 42.2445 122.297C42.2342 121.744 42.2445 121.189 42.2445 120.636C42.2445 120.311 41.7413 121.838 41.6878 122.059C41.309 123.616 41.2902 125.089 41.2902 126.689C41.2902 128.856 41.191 131.01 41.1223 133.174C41.0451 135.606 40.6268 137.966 39.8587 140.27C39.6136 141.005 39.2648 141.655 38.9044 142.338C38.7191 142.689 38.2682 143.742 38.2682 143.345C38.2682 142.271 39.0492 140.972 39.3727 139.969C39.982 138.081 39.9787 136.091 40.2652 134.138C40.6636 131.421 41.4492 128.787 41.4492 126.035C41.4492 124.91 41.5812 123.758 41.8027 122.651C41.8892 122.218 42.2087 120.45 41.7673 120.229" stroke="black" stroke-width="18.9995" stroke-linecap="round"/>
<path d="M26.8167 139.953C26.8167 144.323 27.364 149.1 26.2512 153.392C25.9977 154.37 25.6518 154.935 25.0583 155.628C24.6661 156.086 24.1378 156.492 23.7947 157.006C23.1278 158.007 23.0365 159.037 23.3176 160.161C23.4557 160.714 23.6497 161.275 23.8035 161.813C23.8723 162.054 23.9538 162.706 23.9538 162.697" stroke="black" stroke-width="18.9995" stroke-linecap="round"/>
<path d="M40.0172 139.793C40.0172 140.927 40.0172 142.061 40.0172 143.195C40.0172 145.313 39.4969 147.245 38.5857 149.169C37.8941 150.629 37.5471 152.347 36.5269 153.622C35.9639 154.326 35.3753 154.617 34.689 155.151C32.9195 156.527 31.0784 158.88 28.7246 158.88" stroke="black" stroke-width="18.9995" stroke-linecap="round"/>
<path d="M26.3384 162.537V163.332" stroke="black" stroke-width="18.9995" stroke-linecap="round"/>
<path d="M25.0796 195.107C25.1186 195.102 26.1627 191.489 26.1627 191.045" stroke="black" stroke-width="18.9995" stroke-linecap="round"/>
<path d="M26.731 191.159C26.9318 190.308 27.3348 189.677 27.6825 188.905C27.8308 188.575 28.0324 188.259 28.1065 187.901C28.2321 187.296 28.6029 186.785 28.8512 186.226C29.0695 185.735 29.6858 185.226 30.082 184.83C30.3165 184.595 30.8766 183.593 30.9198 183.247C30.969 182.854 31.2921 182.481 31.2921 182.037" stroke="black" stroke-width="18.9995" stroke-linecap="round"/>
<path d="M29.2233 197.445C27.6575 197.445 26.7321 197.751 25.2492 198.331C24.6092 198.581 23.6994 199.333 23.2005 198.557C22.2735 197.115 22.2348 194.969 23.3343 193.595C23.7562 193.068 22.408 194.6 22.0989 195.201C21.7257 195.926 21.3779 196.557 20.8634 197.188C19.9331 198.33 19.3471 199.54 18.6396 200.822C16.5008 204.699 14.7686 208.951 14.7686 213.424C14.7686 217.494 15.9007 221.142 17.8263 224.697C19.2878 227.395 20.9411 230.125 21.9959 233.026C22.958 235.672 24.3681 238.1 25.2389 240.81C25.4698 241.528 25.7041 242.1 26.0729 242.745C26.2723 243.094 26.6288 243.352 26.6288 243.775" stroke="black" stroke-width="18.9995" stroke-linecap="round"/>
<path d="M27.1841 243.774C27.379 243.75 28.6364 241.27 28.8108 240.995C29.8742 239.313 31.0252 237.709 32.1876 236.094C33.3297 234.508 34.2216 232.55 35.1115 230.802C36.2038 228.657 37.4291 226.253 37.7368 223.843C38.2015 220.203 38.2713 216.595 38.5811 212.94C38.939 208.716 38.951 204.129 38.3031 199.937C38.0601 198.364 38.2271 196.77 37.8398 195.221C37.5927 194.233 37.4281 193.235 37.1809 192.246C36.9312 191.247 36.6355 189.662 35.7086 189.106" stroke="black" stroke-width="18.9995" stroke-linecap="round"/>
<path d="M35.3374 188.18C35.3374 189.557 36.3795 190.222 37.2009 191.248C37.7418 191.924 38.3752 192.5 38.8584 193.225C39.2245 193.774 39.9709 194.673 40.0733 195.325C40.3738 197.24 40.1414 202.42 40.1145 203.253C39.8344 211.89 39.3914 219.678 39.0437 228.394" stroke="black" stroke-width="18.9995" stroke-linecap="round"/>
<path d="M36.8218 239.142C37.0394 239.332 37.1924 237.842 37.1924 237.474" stroke="black" stroke-width="18.9995" stroke-linecap="round"/>
<path d="M43.4932 196.89C43.4932 198.525 44.457 199.558 45.161 200.967C45.8879 202.42 46.0876 203.823 46.0876 205.414C46.0876 206.9 46.0876 208.386 46.0876 209.872C46.0876 211.124 46.3835 212.861 46.0464 214.083C45.6335 215.58 45.6186 217.526 44.8831 218.85C44.5554 219.439 44.5759 220.158 44.1521 220.703C43.7107 221.27 44.016 222.437 43.1226 221.722" stroke="black" stroke-width="18.9995" stroke-linecap="round"/>
<path d="M28.4741 274.507C27.9916 274.561 27.4737 275.306 27.1128 275.6C25.8613 276.62 24.5875 277.809 23.5658 279.058C21.9663 281.013 20.9131 283.01 19.969 285.327C19.3051 286.957 18.7234 288.578 18.1806 290.256C17.5404 292.234 16.8492 294.218 16.8492 296.326C16.8492 299.003 16.8256 301.689 17.9222 304.196C18.5288 305.582 18.7696 307.061 19.2636 308.488C20.0267 310.692 20.8103 312.833 21.8568 314.926" stroke="black" stroke-width="18.9995" stroke-linecap="round"/>
<path d="M32.4068 266.28C32.3809 266.488 31.5678 266.863 31.3735 266.995C30.3612 267.682 29.2157 268.116 28.2139 268.784C26.8681 269.681 25.6045 270.591 25.0742 272.182" stroke="black" stroke-width="18.9995" stroke-linecap="round"/>
<path d="M31.6587 263.968V263.909" stroke="black" stroke-width="18.9995" stroke-linecap="round"/>
<path d="M27.1806 253.31C27.1806 253.134 26.9136 252.338 26.9136 252.776" stroke="black" stroke-width="8.14263" stroke-linecap="round"/>
<path d="M20.6268 275.354C20.4112 275.165 20.2471 275.939 20.2471 276.113" stroke="black" stroke-width="18.9995" stroke-linecap="round"/>
<path d="M17.588 281.556C17.588 282.992 17.4351 284.303 17.2364 285.734C17.0932 286.765 16.9551 287.658 16.9551 288.715C16.9551 290.295 17.0744 291.813 17.2083 293.385C17.3719 295.308 17.8341 297.198 17.9959 299.124C18.1904 301.438 17.9649 303.766 18.1577 306.079C18.2626 307.338 18.3475 308.592 18.3475 309.855C18.3475 310.36 18.3796 310.876 18.0944 311.304" stroke="black" stroke-width="18.9995" stroke-linecap="round"/>
<path d="M18.2192 316.241H18.3458" stroke="black" stroke-width="18.9995" stroke-linecap="round"/>
<path d="M36.4507 267.377C36.4507 271.076 39.1952 274.283 39.9318 277.884C40.4686 280.508 40.5015 283.009 40.5015 285.683C40.5015 287.078 40.432 288.346 40.192 289.72C39.9467 291.125 39.7337 292.534 39.4466 293.933C39.3217 294.541 38.8804 296.344 38.9402 295.726C39.2621 292.4 40.245 288.991 40.8812 285.733" stroke="black" stroke-width="18.9995" stroke-linecap="round"/>
<path d="M42.2713 279.531C42.3074 279.855 42.6345 280.257 42.7776 280.543C43.1344 281.257 43.5036 281.947 43.9099 282.632C44.5964 283.791 44.8214 285.298 44.803 286.62C44.7832 288.044 43.9945 289.119 43.5934 290.431C43.1505 291.881 42.9042 293.387 42.9042 294.904C42.9042 297.739 42.2379 300.554 40.4709 302.851C37.8044 306.317 36.321 310.482 33.9165 314.089" stroke="black" stroke-width="18.9995" stroke-linecap="round"/>
<path d="M43.0316 288.897C43.0316 290.139 43.605 291.276 43.6646 292.498C43.7254 293.745 43.7484 295.162 44.1076 296.359C44.3404 297.135 44.4472 297.838 44.4241 298.645C44.4006 299.468 43.5815 300.448 43.1512 301.12C41.8345 303.178 41.2027 305.422 40.3452 307.689C39.4404 310.08 38.1341 312.08 36.0693 313.582" stroke="black" stroke-width="18.9995" stroke-linecap="round"/>
<path d="M42.0182 305.48C42.0182 308.045 42.1108 310.723 40.1898 312.682C39.0978 313.795 37.8646 314.694 36.7086 315.734C36.1204 316.263 35.4834 316.634 34.9575 317.253C34.5418 317.743 34.1107 318.198 33.6564 318.653C32.9831 319.326 32.5369 320.104 32.0178 320.896C31.5726 321.576 30.9963 322.148 30.5621 322.823C30.1912 323.4 29.5805 323.741 29.1063 324.215C28.6223 324.699 28.349 324.976 27.7139 324.595" stroke="black" stroke-width="18.9995" stroke-linecap="round"/>
<path d="M28.6003 322.824C28.6003 323.924 28.7734 325.288 28.4808 326.312C28.3804 326.663 28.0711 326.986 27.9744 327.325C27.8653 327.707 27.7413 328.319 27.3345 328.014" stroke="black" stroke-width="18.9995" stroke-linecap="round"/>
<path d="M30.663 27.2686C30.663 28.8276 30.677 30.1632 30.0354 31.6362C29.3558 33.1968 28.5632 35.1779 27.0986 36.0792C25.8093 36.8726 24.4768 36.6173 23.3082 35.7278C21.9764 34.714 21.3072 32.7066 19.8191 31.9626C19.2085 31.6572 18.7041 32.5991 18.2377 32.9666C16.7869 34.1096 15.4451 35.9502 14.2716 37.3845C12.9485 39.0016 12.1832 41.0763 11.8619 43.1328C11.5489 45.1358 11.3238 47.922 11.9121 49.86C13.0014 53.4484 14.2358 57.0478 15.1251 60.7039C15.9523 64.1044 17.5298 67.3434 19.3171 70.368C20.1596 71.7938 20.5697 73.5592 21.1244 75.1122C21.3724 75.8065 21.5137 76.7315 22.028 77.2459C22.504 77.7218 23.369 77.9718 23.7098 78.5511C23.942 78.9459 24.3936 78.9946 24.6637 79.3418C24.7385 79.438 25.0151 79.9768 25.0151 79.6807" stroke="black" stroke-width="18.9995" stroke-linecap="round"/>
<path d="M32.2433 22.2991C32.2433 22.611 32.2654 21.9878 32.1931 21.8975C31.9997 21.6558 31.7477 21.4829 31.5656 21.2197C31.2979 20.8331 30.7669 19.6828 31.1639 19.1865C31.5307 18.728 31.8306 18.6717 31.7915 18.0067C31.7426 17.1754 30.7658 18.3399 30.6619 18.5088C29.6102 20.2178 28.6871 21.5825 27.2732 23.0772C25.9018 24.527 24.8227 26.2912 23.4326 27.721C23.1239 28.0386 22.2275 29.3772 22.0771 29.0765" stroke="black" stroke-width="18.9995" stroke-linecap="round"/>
<path d="M30.4365 27.7212C30.756 29.1986 31.7362 30.4811 32.6204 31.6747C34.1401 33.7264 35.8346 29.3511 36.5362 28.3989" stroke="black" stroke-width="18.9995" stroke-linecap="round"/>
<path d="M35.6321 26.8164C35.6321 30.372 36.8795 33.228 37.8912 36.5809C38.7679 39.4867 38.9569 42.6493 38.7447 45.6677C38.3473 51.3197 34.654 55.3441 31.7664 59.938C30.3856 62.1347 29.0842 64.8065 28.6162 67.3806C28.3056 69.0887 27.6544 70.6336 27.7251 72.4009C27.7816 73.8153 32.3529 70.8062 32.9211 70.6438C33.644 70.4373 34.0506 69.5594 34.3895 68.9495C34.9661 67.9117 35.5873 66.9175 36.2094 65.8996C38.5084 62.1375 41.4361 58.4366 42.0079 53.9261C42.9013 46.8781 43.3509 37.2462 37.8912 31.7865" stroke="black" stroke-width="18.9995" stroke-linecap="round"/>
<path d="M26.8208 67.0293C27.3777 67.6558 26.9824 69.1854 27.0593 69.9536C27.1173 70.5335 27.4985 71.0925 27.4985 71.6605C27.4985 72.0301 27.4271 72.4582 27.6115 72.7901C27.9236 73.352 28.0126 74.1715 28.4524 74.6602C28.663 74.8942 29.6041 75.8761 29.0799 75.614" stroke="black" stroke-width="18.9995" stroke-linecap="round"/>
<path d="M86.6351 58.1145C86.3949 60.637 84.7356 62.9672 83.7059 65.2174C82.0552 68.8244 80.9805 72.4774 79.7428 76.2259C79.3162 77.5178 78.8567 79.1457 78.1921 80.3421C78.0644 80.572 77.6065 76.3696 77.4645 75.5175C76.7098 70.9892 75.8909 66.6873 74.0375 62.4796C73.3121 60.8326 72.6749 59.3567 71.1466 58.3059C70.4166 57.804 69.8393 57.7698 68.9832 57.7698C67.5544 57.7698 66.0346 56.935 64.7712 56.3148C64.0939 55.9823 61.1336 53.9758 61.1336 55.3575C61.1336 55.9722 61.4013 56.3791 61.6505 56.9274C62.3124 58.3835 61.8228 60.8226 61.8228 62.3647C61.8228 65.1287 61.8001 67.7956 61.4974 70.5206C61.2664 72.5996 60.5965 74.7471 60.4444 76.8003C60.3307 78.3348 59.4624 80 58.9893 81.4717C58.3725 83.3908 58.7213 85.7377 58.7213 87.7514C58.7213 92.2073 58.7843 96.3984 59.6786 100.77C60.0614 102.642 60.7663 104.792 61.8994 106.361C63.4328 108.484 64.0415 110.866 65.0775 113.234C66.1801 115.754 67.3375 118.144 68.5237 120.624C69.7355 123.158 72.5731 125.726 74.5736 127.727" stroke="black" stroke-width="18.9995" stroke-linecap="round"/>
<path d="M76.64 77.4126C76.64 82.3383 76.4419 87.3139 76.7166 92.231C77.2695 102.128 83.7303 109.524 89.0845 117.35C90.2926 119.115 91.5672 120.739 93.1624 122.174C93.8159 122.762 95.1004 123.144 95.5173 123.936C96.0403 124.929 93.4821 124.584 93.1433 124.414C87.1019 121.394 69.1349 112.265 74.6106 116.22C76.5171 117.597 77.9947 119.6 79.5501 121.332C83.8041 126.069 88.5473 130.315 93.8325 133.872C97.5113 136.348 102.22 140.822 106.966 140.822" stroke="black" stroke-width="18.9995" stroke-linecap="round"/>
<path d="M80.0866 121.524C80.0866 123.325 79.4254 126.592 80.6992 128.149C81.5431 129.18 82.4679 131.274 83.5327 131.939C84.0455 132.26 84.1599 132.984 84.7389 133.241C85.1591 133.428 85.8865 133.746 86.2131 134.007C87.2868 134.866 88.2971 136.125 89.5635 136.687C92.7197 138.09 96.4751 139.863 99.9977 140.134C101.622 140.259 103.621 140.73 105.243 141.091C108.102 141.726 111.617 141.167 114.548 141.167C115.42 141.167 117.006 141.049 115.697 139.98C112.259 137.174 108.983 134.274 105.626 131.384C105.292 131.097 99.154 125.791 100.591 128.953C101.728 131.454 101.966 134.099 104.037 136.171C106.465 138.598 108.376 140.365 111.447 141.857C115.582 143.865 119.73 145.952 124.37 146.356C130.905 146.924 137.304 147.088 143.151 143.58" stroke="black" stroke-width="18.9995" stroke-linecap="round"/>
<path d="M150.389 133.586C150.389 131.305 150.162 128.917 150.657 126.694C151.038 124.979 151.603 123.694 152.112 122.041C152.376 121.184 152.914 120.071 153.337 119.284C153.748 118.52 154.486 116.081 154.486 116.949C154.486 117.832 152.697 120.083 152.112 120.835C151.36 121.802 150.876 123.059 150.044 123.937C149.48 124.532 147.521 125.656 146.674 124.894C144.954 123.346 147.638 121.634 148.34 120.625C150.442 117.604 151.322 113.651 152.801 110.324C153.575 108.583 155.327 106.87 156.4 105.308C157.733 103.369 158.858 101.462 160.459 99.737C165.339 94.4822 171.199 90.1649 176.56 85.3398C177.522 84.474 178.424 83.7586 179.489 83.0806C180.071 82.7104 180.345 81.9164 180.868 81.5681C182.624 80.3977 177.077 83.5439 175.546 84.9952C174.566 85.9229 173.28 86.8793 172.444 87.9244C172.244 88.1742 171.536 88.4307 171.219 88.6328C170.49 89.0968 169.779 89.5877 169.074 90.0878C166.362 92.0128 167.14 89.8202 166.93 87.4075" stroke="black" stroke-width="18.9995" stroke-linecap="round"/>
<path d="M149.354 113.598C149.354 112.321 149.436 111.04 149.201 109.788C148.85 107.914 151.124 104.809 151.939 103.088C153.473 99.8485 156.796 97.5416 159.272 95.0658C161.958 92.3792 165.043 89.0445 168.327 87.1971C170.079 86.2118 171.7 84.8998 173.477 83.9615C174.563 83.3886 176.234 82.6274 176.234 81.2046" stroke="black" stroke-width="18.9995" stroke-linecap="round"/>
<path d="M145.906 36.4043C143.08 37.1107 152.945 54.0716 154.445 55.6262C156.636 57.8993 158.093 60.5987 160.59 62.6333C163.869 65.3048 166.523 68.6967 169.646 71.5359C170.85 72.6301 173.126 74.5606 174.853 74.6566C177.722 74.8159 176.626 69.2463 176.557 67.3814C176.377 62.5182 175.598 57.1954 173.743 52.6778C172.581 49.8484 170.444 45.1688 167.808 43.3732C166.355 42.3833 164.685 41.8113 163.213 40.8843C162.697 40.5591 162 40.6791 161.758 40.1951" stroke="black" stroke-width="18.9995" stroke-linecap="round"/>
<path d="M123.507 36.749C123.507 41.2203 121.625 44.4852 119.391 48.2553C118.376 49.9677 116.92 51.4611 115.6 52.9459C114.04 54.7012 112.982 56.8504 111.369 58.5364C107.831 62.2355 104.78 66.4995 101.433 70.349C100.601 71.306 99.5455 72.015 98.7715 73.0102C98.4909 73.371 101.044 72.5464 101.26 72.4167C103.804 70.8905 104.582 68.2722 106.544 66.3093C110.05 62.804 113.821 59.596 117.304 56.0475C120.368 52.9257 123.797 48.7745 124.541 44.3114C124.837 42.536 125.505 40.9007 125.575 39.0847C125.586 38.7934 125.92 37.989 125.92 38.2806C125.92 39.0305 125.215 40.0775 124.886 40.7121C122.498 45.3166 119.374 49.4953 117.036 54.1712C115.531 57.1817 114.182 60.2046 112.288 62.9589C110.938 64.9222 109.443 66.4184 107.846 68.109C107.153 68.8429 106.278 69.2019 105.606 69.9852C104.563 71.2028 108.157 68.0385 109.378 66.9986C111.619 65.0892 123.686 50.0785 120.75 48.1213" stroke="black" stroke-width="18.9995" stroke-linecap="round"/>
<path d="M96.9724 69.832C96.9724 72.1163 96.9455 74.4021 96.9724 76.686C97.0159 80.3831 98.6159 84.4316 100.304 87.6946C102.238 91.4339 103.276 95.4202 105.588 98.9712C107.898 102.519 110.063 106.262 113.514 108.85C114.174 109.345 115.926 111.771 115.926 109.999C115.926 105.957 113.814 102.103 111.944 98.5882C110.59 96.0419 108.885 93.7226 107.521 91.1982C106.253 88.8486 105.592 86.2986 104.228 83.9804C103.312 82.4227 101.807 80.2214 101.452 78.4474" stroke="black" stroke-width="18.9995" stroke-linecap="round"/>
<path d="M104.208 87.4079C104.367 88.8353 105.866 89.8364 106.62 90.9306C107.88 92.7571 109.209 94.6334 110.143 96.6359C112.607 101.916 116.021 106.856 118.701 112.048C120.356 115.255 121.764 121.247 125.23 122.98C127.629 124.179 125.266 119.072 125.057 118.423C123.755 114.371 123.785 109.704 121.439 106.017C119.402 102.817 118.36 99.2834 115.925 96.2913C114.924 95.061 114.059 93.8314 113.091 92.5771C111.941 91.0857 110.226 90.0304 109.205 88.4418C108.236 86.9338 106.064 86.4279 105.586 84.9956" stroke="black" stroke-width="18.9995" stroke-linecap="round"/>
<path d="M80.7739 60.5275C80.7739 53.6557 83.1077 47.8999 87.0536 42.2629C88.6862 39.9306 90.4988 35.8707 93.2566 34.6048C101.595 30.7773 110.522 28.8435 119.294 26.2191C128.564 23.446 137.195 20.2075 146.94 20.2075C150.674 20.2075 154.13 20.4237 157.815 21.0882C160.637 21.5971 163.584 22.2179 166.219 23.3665C167.331 23.851 169.808 24.7503 170.565 25.7214C173.131 29.0129 176.451 37.8271 177.343 40.0803C184.321 57.723 187.471 67.5254 194.497 86.029" stroke="black" stroke-width="18.9995" stroke-linecap="round"/>
<path d="M167.619 27.0996C171.191 27.0996 173.942 27.4773 177.268 28.8227C181.056 30.355 184.183 32.8233 187.587 35.0258C194.92 39.7705 196.727 50.1222 197.945 58.0384C199.444 67.783 200.357 77.4167 200.357 87.2732C200.357 95.9693 195.526 104.38 189.157 110.133C183.377 115.354 177.438 120.251 170.72 124.281C167.436 126.251 164.194 128.242 160.918 130.216C158.024 131.96 155.104 134.188 151.977 135.462C150.05 136.247 146.325 137.386 145.295 139.444C144.388 141.259 147.598 143.235 149.009 143.235" stroke="black" stroke-width="18.9995" stroke-linecap="round"/>
<path d="M149.352 142.891C152.224 142.891 155.096 142.891 157.967 142.891C160.018 142.891 154.793 145.453 154.004 145.629C151.56 146.172 153.753 145.64 155.076 145.131C159.258 143.523 164.222 145.816 168.306 144.001C169.757 143.356 171.274 142.68 172.805 142.01C175.054 141.026 177.724 140.537 179.831 139.272C181.769 138.11 183.686 137.283 185.613 135.999C187.396 134.81 189.205 133.364 190.725 131.844C195.834 126.735 202.386 122.705 206.558 116.777C207.154 115.929 208.198 115.379 208.549 114.364C209.104 112.762 207.06 114.365 206.73 114.652C204.508 116.584 202.339 119.602 200.7 122.061C198.26 125.721 196.63 129.616 193.539 132.82C192.995 133.385 192.284 134.123 191.912 134.792C190.995 136.443 191.395 133.676 191.395 132.897" stroke="black" stroke-width="18.9995" stroke-linecap="round"/>
<path d="M206.904 117.045C206.904 113.367 206.731 109.772 207.594 106.171C208.586 102.026 209.847 97.9505 210.848 93.8027C211.608 90.6553 211.639 87.5181 212.093 84.3449C212.26 83.1733 212.458 84.3685 212.342 84.9958C212.109 86.2505 211.482 87.3912 211.25 88.6526C210.953 90.2713 211.055 91.9365 211.04 93.5729C211.002 97.6712 210.515 102.002 208.627 105.673C208.511 105.9 207.196 107.45 207.977 107.338C209.584 107.109 211.112 102.817 211.691 101.595C213.898 96.9356 214.255 91.4182 214.141 86.2977C214.09 83.9903 213.107 81.7183 213.107 79.4054C213.107 76.1537 212.139 73.1827 211.729 70.0051C211.225 66.0996 209.091 62.3336 207.766 58.6519C206.608 55.436 205.738 52.1956 204.569 49.0027C203.772 46.8272 201.264 40.3692 202.348 42.4167C202.956 43.5656 202.962 44.9831 203.305 46.2075C203.751 47.7989 204.887 48.9992 205.354 50.5535C206.808 55.4029 208.106 60.4566 210.772 64.7401C211.394 65.7408 213.161 69.1435 214.486 69.1435C217.022 69.1435 215.896 65.1741 215.347 63.9552C213.554 59.9698 213.07 55.6703 211.729 51.5682C209.883 45.9204 205.784 42.177 201.716 38.109C197.801 34.194 193.933 30.6756 188.984 28.1343C186.84 27.0332 184.985 25.2648 182.705 24.4202C181.433 23.9493 182.484 23.8735 183.279 24.0181C184.273 24.1989 185.693 25.0748 186.591 25.5689C190.621 27.7854 194.636 30.0359 198.634 32.2697C200.12 33.1003 201.325 34.4452 202.769 35.2947C203.15 35.5188 204.184 37.056 204.626 37.056C205.644 37.056 202.974 35.8568 202.08 35.3713C200.94 34.7526 200.045 33.5571 198.978 32.7866C197.341 31.604 194.224 30.2093 193.809 28.1343" stroke="black" stroke-width="18.9995" stroke-linecap="round"/>
<path d="M193.81 28.1348C191.444 28.1348 189.547 26.2808 187.607 25.0333C185.721 23.8212 183.629 22.9689 181.748 21.7595C178.899 19.9282 176.24 19.0262 172.96 18.3133C166.115 16.8252 159.468 15.0395 152.437 15.0395C149.384 15.0395 146.238 14.6948 143.132 14.6948C141.407 14.6948 139.653 14.5332 137.982 14.9629C136.277 15.4013 134.558 15.8986 132.813 16.0925C130.356 16.3654 128.204 17.1072 125.729 17.1072C124.351 17.1072 123.121 16.911 121.785 16.7625C120.972 16.6722 120.167 16.0733 119.2 16.0733C113.64 16.0733 107.751 16.2904 102.41 17.873C96.9872 19.4797 91.4321 21.1966 86.7109 24.3441C84.7319 25.6634 82.4167 26.9022 80.6993 28.556C78.5786 30.5982 76.3144 33.13 73.9601 34.874C71.6638 36.5749 68.2456 40.7424 68.0251 43.7191C67.9276 45.0356 66.6023 45.9961 66.3212 47.261C66.1776 47.9072 66.1615 49.2266 65.6128 49.501" stroke="black" stroke-width="18.9995" stroke-linecap="round"/>
<path d="M128.676 25.7208C130.181 25.5326 127.927 20.4869 127.565 19.8623C126.671 18.3176 124.673 17.649 123.334 16.6076C122.89 16.2623 122.006 16.5923 121.803 15.8801C121.628 15.2694 122.128 14.633 122.626 14.3485C123.693 13.7389 125.087 13.6118 126.263 14.0039" stroke="black" stroke-width="18.9995" stroke-linecap="round"/>
<path d="M152.295 177.12C160.962 177.12 172.595 175.128 180.428 179.555C180.703 179.711 184.011 181.481 182.607 182.183C180.137 183.418 175.313 180.733 173.058 179.876C167.487 177.757 162.28 174.749 156.781 172.634C154.492 171.754 152.661 169.327 156.46 169.046C161.346 168.684 166.332 168.206 171.328 168.469C174.468 168.634 177.515 169.932 180.556 170.648C184.282 171.524 188.366 173.743 192.059 174.204C194.576 174.519 196.869 175.89 199.269 176.576C200.794 177.011 198.923 177.12 198.404 177.12C196.653 177.12 194.337 177.516 192.7 176.8C189.465 175.384 187.238 171.011 183.728 170.231C183.477 170.175 181.669 169.293 182.639 169.078C184.172 168.737 186.055 169.403 187.477 169.911C195.334 172.717 202.025 177.299 208.85 181.991C221.291 190.544 222.438 205.144 226.121 218.647" stroke="black" stroke-width="18.9995" stroke-linecap="round"/>
<path d="M185.17 182.889C186.417 183.013 187.578 183.861 188.566 184.555C192.896 187.595 196.985 191.231 200.871 194.808C212.481 205.497 222.832 218.577 231.631 231.657C236.311 238.614 239.383 245.893 242.334 253.702C243.237 256.093 244.576 258.726 244.576 261.328" stroke="black" stroke-width="18.9995" stroke-linecap="round"/>
<path d="M160.368 189.809C161.333 195.116 167.082 199.809 170.141 203.939C174.312 209.57 178.602 215.384 183.182 220.697C187.877 226.143 191.641 232.378 196.384 237.808C201.657 243.846 206.966 251.536 214.007 255.56" stroke="black" stroke-width="18.9995" stroke-linecap="round"/>
<path d="M169.741 170.403C170.988 170.403 172.78 170.803 173.659 169.704C174.273 168.937 175.98 168.389 176.862 167.885C178.801 166.776 181.931 168.189 183.827 168.942C186.608 170.046 189.662 170.461 192.472 171.523C194.685 172.359 196.899 172.922 199.266 172.922C201.66 172.922 203.084 174.327 205.299 174.881C207.282 175.377 208.483 177.16 210.103 178.239C212.054 179.54 214.052 180.79 215.7 182.5C217.44 184.304 219.614 185.604 221.36 187.35C222.098 188.089 222.604 188.933 223.459 189.574C223.793 189.824 224.79 190.759 223.723 190.522C220.816 189.876 219.517 185.659 217.317 183.899C216.722 183.422 213.578 179.767 215.7 180.261C219.177 181.069 220.747 186.324 222.759 188.719C225.117 191.526 227.537 194.718 229.227 197.985C231.176 201.753 232.649 205.024 233.052 209.366C233.328 212.348 233.269 215.329 233.269 218.322C233.269 219.862 233.481 221.544 232.989 223.017" stroke="black" stroke-width="18.9995" stroke-linecap="round"/>
<path d="M214.239 181.597C219.755 183.129 224.343 187.18 228.636 190.693C231.035 192.655 231.708 196.205 233.487 198.669C234.523 200.102 235.27 201.714 236.333 203.131C236.888 203.871 237.412 204.641 237.965 205.385C238.435 206.017 239.191 206.412 239.567 207.08C241.043 209.706 241.992 211.9 242.567 214.838C243.461 219.405 243.814 223.997 244.2 228.629C244.335 230.254 244.686 231.814 244.744 233.433C244.776 234.336 244.816 236.751 245.366 237.507C246.16 238.599 246.855 237.038 246.967 236.31C247.201 234.788 246.983 233.088 246.983 231.552C246.983 229.436 246.774 227.427 246.143 225.535" stroke="black" stroke-width="18.9995" stroke-linecap="round"/>
<path d="M241.946 229.172C241.946 233.508 242.513 237.33 243.626 241.485C244.427 244.479 245.5 247.595 245.585 250.721C245.623 252.13 244.94 256.17 245.647 254.95C247.78 251.265 249.06 247.406 249.627 243.196C249.773 242.11 249.831 240.846 250.202 239.806C250.544 238.851 249.586 240.024 249.503 240.397C249.133 242.06 248.53 243.43 248.383 245.186C248.175 247.689 248.103 250.155 248.103 252.664C248.103 258.091 247.379 262.619 245.305 267.575C244.444 269.632 235.455 282.157 233.831 280.261C233.276 279.615 233.559 278.042 233.535 277.292C233.481 275.619 233.091 274.059 232.773 272.425C231.858 267.718 230.962 262.846 229.291 258.339C225.723 248.717 218.882 240.894 214.8 231.582C213.389 228.362 211.975 225.073 210.447 221.911C209.042 219.005 208.233 215.787 206.669 212.971C205.18 210.291 202.457 208.722 199.517 208.058C197.139 207.521 194.537 207.835 192.116 207.467C189.514 207.071 186.886 206.978 184.28 206.627C180.059 206.059 175.95 204.866 171.764 204.202C171.136 204.102 169.463 203.493 169.463 204.544C169.463 205.334 169.743 206.1 169.743 206.938C169.743 208.876 169.67 210.513 170.365 212.318C171.078 214.174 172.702 215.791 173.723 217.48C175.148 219.837 177.046 221.948 178.278 224.414C180.484 228.824 184.029 232.787 186.985 236.728C188.474 238.712 190.357 240.423 192.194 242.076C194.033 243.731 195.972 245.554 198.024 246.943C201.056 248.994 204.113 250.912 207.399 252.555C207.575 252.643 210.505 253.772 210.26 254.017C209.487 254.791 206.782 253.682 206.249 253.022C204.224 250.515 200.663 249.036 198.04 247.238C195.127 245.243 192.187 243.037 189.488 240.77C185.594 237.499 180.911 233.763 178.823 229.016C177.858 226.825 176.867 224.401 175.744 222.315C175.093 221.105 175.153 218.195 173.661 217.697" stroke="black" stroke-width="18.9995" stroke-linecap="round"/>
<path d="M107.892 227.494C110.183 228.767 110.962 231.076 112.509 232.967C113.135 233.732 113.277 234.494 114.111 235.05C115.154 235.746 116.455 236.369 117.391 237.149C118.297 237.904 119.474 238.591 120.485 239.186C120.895 239.427 121.215 239.775 121.34 240.212C121.437 240.55 121.605 241.481 121.605 240.648" stroke="black" stroke-width="18.9995" stroke-linecap="round"/>
<path d="M98.3794 260.797C98.5239 259.641 103.932 261.314 104.505 261.543C109.803 263.668 114.738 267.203 119.151 270.779C125.148 275.637 130.455 281.446 133.922 288.379C134.589 289.713 136.01 293.213 134.761 289.467C133.642 286.111 132.081 282.93 130.719 279.672C128.949 275.439 127.643 271.024 125.401 267.001C123.722 263.986 121.68 261.767 119.54 259.133C119.29 258.826 118.32 258.278 118.716 258.278C119.649 258.278 120.401 258.858 121.203 259.273C123.549 260.486 125.483 262.434 127.329 264.28C129.36 266.31 131.507 268.381 133.191 270.716C135.261 273.589 137.069 276.428 138.119 279.827C138.827 282.116 138.837 284.567 139.519 286.824C140.327 289.501 141.084 292.026 142.1 294.66C143.301 297.775 145.283 301.936 149.174 301.936C152.397 301.936 155.311 300.625 158.409 299.822C162.401 298.787 164.512 295.977 166.945 292.919C169.063 290.256 170.69 287.169 172.884 284.585C175.811 281.139 178.76 277.729 181.622 274.23C184.866 270.265 189.247 266.519 193.252 263.316C195.127 261.815 197.179 260.694 199.346 259.678C200.436 259.166 201.291 258.331 202.456 257.998C202.833 257.891 203.574 257.675 202.751 258.138C201.163 259.032 199.705 259.604 197.869 259.802C194.152 260.202 190.745 260.085 187.219 261.652C184.111 263.034 181.49 264.099 178.792 266.145C176.151 268.149 173.961 270.74 171.982 273.391C170.147 275.849 168.45 278.677 167.567 281.631C166.763 284.321 166.905 287.123 166.945 289.902C166.982 292.487 169.703 293.235 171.951 293.261C176.809 293.316 180.657 292.274 185.198 290.571C190.702 288.507 195.547 285.365 200.544 282.331C202.768 280.98 204.975 279.767 206.561 277.729C207.463 276.568 207.166 274.061 207.385 272.676C207.781 270.167 208.644 267.522 208.644 264.995" stroke="black" stroke-width="18.9995" stroke-linecap="round"/>
<path d="M206.403 267.234C206.403 268.057 205.028 269.296 204.506 269.909C202.792 271.921 200.683 273.873 198.707 275.63C192.546 281.106 187.043 287.434 181.215 293.261" stroke="black" stroke-width="18.9995" stroke-linecap="round"/>
<path d="M68.6619 258.255C68.6619 263.02 68.1385 268.064 68.7695 272.778C69.3265 276.94 70.427 281.581 72.0373 285.473C72.5618 286.74 73.16 287.976 73.6913 289.238C73.7871 289.466 71.9271 287.269 71.6607 286.898C68.7895 282.907 64.4936 277.835 64.3049 272.644C64.2807 271.978 63.8881 271.151 64.0762 270.492C64.1533 270.222 65.1465 270.353 65.3807 270.304C68.0298 269.746 71.0904 270.056 73.772 270.143C79.7731 270.336 85.6919 272.07 91.2136 274.338C93.918 275.449 96.5004 276.653 98.0047 279.26C99.0221 281.024 99.2645 282.852 99.8874 284.774C100.209 285.768 103.523 293.566 102.281 294.187C101.101 294.777 99.7197 293.409 98.8653 292.815C94.6115 289.859 90.5371 286.666 86.3725 283.59C85.7469 283.128 78.6472 277.6 77.8063 279.072C76.6256 281.138 74.8744 282.694 73.261 284.397C72.6879 285.002 71.7239 287.773 70.5715 287.517C68.5176 287.061 67.6714 283.698 65.4345 283.698C64.8012 283.698 66.0215 284.594 66.1068 284.639C67.861 285.565 69.2666 286.924 70.6522 288.324C74.0832 291.789 77.1952 295.593 80.6303 299.028C83.1293 301.527 85.9765 303.31 89.2368 304.73C94.2036 306.893 99.7338 307.034 105.078 306.559C109.484 306.167 114.448 305.111 118.902 305.725C120.689 305.971 122.474 306.623 124.281 306.908C125.938 307.17 127.602 307.37 129.257 307.635C129.424 307.661 131.016 308.008 130.467 308.361C128.551 309.593 124.969 308.734 123.071 308.065C118.667 306.514 114.369 304.804 109.839 303.627C104.249 302.175 98.5943 300.883 93.1097 299.055C86.9992 297.018 81.8561 293.677 76.206 290.718C75.7809 290.495 70.6359 287.628 70.5984 288.566C70.5245 290.413 70.3563 292.24 70.3563 294.093C70.3563 298.129 75.3415 299.851 78.2904 301.583C81.0377 303.197 83.0418 305.603 85.6059 307.393C87.3953 308.642 89.0233 310.326 90.5547 311.857C91.8499 313.152 89.7025 313.405 88.7392 313.068C86.5304 312.294 84.5632 310.811 82.5937 309.571C81.0526 308.601 80.1548 307.732 79.0569 306.451C78.4607 305.756 77.618 305.231 77.618 304.246" stroke="black" stroke-width="18.9995" stroke-linecap="round"/>
<path d="M79.0693 296.984C79.2538 297.999 80.2407 299.033 80.7637 299.889C81.7667 301.53 82.8934 303.096 83.9105 304.73C84.8613 306.258 85.9752 307.682 86.9362 309.208C87.4219 309.98 88.1032 311.173 88.8592 311.723C89.866 312.455 90.5967 313.499 91.4143 314.413C91.9791 315.044 92.8658 316.434 93.1087 317.223C93.4077 318.195 95.4717 319.372 95.4217 320.222C95.3561 321.336 91.9794 318.124 91.6429 317.788C90.561 316.706 89.115 314.929 87.7834 314.224C87.4017 314.022 87.3661 314.17 87.9044 314.17C88.6465 314.17 89.2061 314.284 89.9081 314.56C96.116 317.006 101.833 320.575 108.157 322.764C114.88 325.091 122.048 326.515 129.175 326.515C136.471 326.515 143.124 322.158 150.476 322.158C151.383 322.158 151.687 323.592 151.687 324.337C151.687 325.404 150.257 326.251 149.508 327C148.153 328.355 147.162 329.213 145.393 329.958C144.356 330.395 143.59 330.388 142.435 330.388C141.364 330.388 140.538 330.294 139.53 329.891C137.434 329.052 135.193 328.641 133.048 327.954C128.031 326.349 123.124 324.403 118.094 322.831C115.41 321.992 112.277 321.19 109.434 321.19C107.5 321.19 102.549 320.44 102.549 323.49C102.549 324.906 106.308 326.256 107.336 326.704C109.586 327.683 111.917 328.435 114.168 329.42C123.229 333.384 133.171 333.051 142.865 333.051C147.104 333.051 150.856 332.741 154.699 330.872C156.782 329.86 159.045 329.106 161.261 328.452C163.141 327.897 165.556 327.658 167.259 326.636C168.361 325.975 168.51 324.458 168.873 323.369" stroke="black" stroke-width="18.9995" stroke-linecap="round"/>
<path d="M147.33 326.274C150.682 326.274 153.693 327.343 156.878 328.331C159.148 329.036 162.011 329.745 163.911 331.222C164.538 331.71 165.28 331.907 165.969 332.271C167.043 332.84 164.558 333.293 164.22 333.293C162.743 333.293 161.408 332.673 159.971 332.379C159.689 332.321 158.823 332.325 159.11 332.325C159.713 332.325 160.279 332.106 160.885 332.083C163.513 331.986 165.969 331.689 168.604 332.204C170.99 332.671 173.447 333.535 175.893 333.535C179.008 333.535 181.93 333.498 184.997 332.93C190.511 331.909 195.711 330.413 201.067 328.883C203.337 328.234 205.824 327.031 207.885 325.897C210.597 324.406 213.387 322.851 215.832 320.948C218.244 319.073 220.506 317.048 222.906 315.139C226.039 312.647 228.431 309.359 231.512 306.775C234.086 304.616 236.94 302.67 238.209 299.405C238.647 298.281 238.172 296.933 238.465 295.761C238.859 294.183 238.778 292.28 238.841 290.651C238.993 286.782 239.07 282.944 239.07 279.072C239.07 277.217 238.966 274.786 239.554 273.021" stroke="black" stroke-width="18.9995" stroke-linecap="round"/>
<path d="M239.555 273.021C239.555 276.417 239.797 279.771 239.797 283.187C239.797 284.803 239.313 286.305 239.313 287.907C239.313 288.838 239.608 288.854 240.524 288.755C241.998 288.595 242.953 286.774 243.536 285.608C243.96 284.76 243.537 283.62 243.791 282.703C244.154 281.397 244.221 280.095 244.45 278.776C244.666 277.535 244.771 276.226 244.867 274.971C244.919 274.294 245.107 272.917 244.827 272.295C243.766 269.937 239.579 270.202 237.525 270.735C235.436 271.276 234.048 273.669 232.778 275.199C230.203 278.3 227.817 281.578 225.234 284.653C220.741 290.002 215.943 295.27 210.75 299.943C209.205 301.334 207.795 303.072 205.855 303.95C203.258 305.127 200.449 305.825 197.666 306.411C194.51 307.076 191.386 307.671 188.266 308.482C186.284 308.998 183.883 309.494 182.43 311.024C181.777 311.711 181.461 313.127 181.461 314.036C181.461 315.247 182.285 316.002 183.505 316.201C185.522 316.531 187.599 316.065 189.584 315.757C190.487 315.618 190.636 315.411 190.955 315.811C191.321 316.268 191.87 316.349 192.408 316.349C194.704 316.349 196.338 314.994 198.486 314.184C201.844 312.919 205.411 312.263 208.76 310.97C211.198 310.029 213.421 308.38 215.565 306.922C217.675 305.487 219.669 303.834 221.697 302.283C223.7 300.751 225.192 299.688 226.699 297.63C228.064 295.767 229.047 293.509 229.994 291.404C230.355 290.601 230.793 289.481 229.631 289.481" stroke="black" stroke-width="18.9995" stroke-linecap="round"/>
<path d="M40.0597 82.2612C40.0597 87.3206 38.7095 92.5712 42.679 96.1437C44.456 97.743 46.4377 96.9591 48.3106 97.8463C51.6528 99.4294 54.4653 101.84 57.7402 103.478" stroke="black" stroke-width="18.9995" stroke-linecap="round"/>
<path d="M34.6636 253.818C40.544 253.818 46.5929 253.357 52.4463 253.866C54.8924 254.079 59.6186 255.915 62.0365 254.493C66.5066 251.863 51.2547 222.358 47.2898 234.252C44.4737 242.701 44.652 255.458 49.0247 263.408C50.6992 266.453 52.4175 267.877 55.4824 269.24C58.4307 270.55 58.0848 269.382 58.0848 266.83" stroke="black" stroke-width="18.9995" stroke-linecap="round"/>
</g>
<defs>
<clipPath id="clip0_205_5977">
<rect width="263.786" height="354.06" fill="white" transform="translate(0.0634766 0.925781)"/>
</clipPath>
</defs>
</svg>
