<svg width="265" height="355" viewBox="0 0 265 355" fill="none" xmlns="http://www.w3.org/2000/svg">
<g style="mix-blend-mode:darken" clip-path="url(#clip0_205_6085)">
<rect width="263.786" height="354.06" transform="translate(0.225586 0.342773)" fill="white"/>
<path d="M43.6744 123.957C14.4773 105.678 -24.2699 58.5798 43.9805 13.5023" stroke="black" stroke-width="5.19115"/>
<path d="M40.7796 123.969C67.5357 105.07 106.11 57.9468 40.0727 14.3732" stroke="black" stroke-width="5.19115"/>
<path d="M42.2003 230.213C13.0049 211.934 -28.3197 164.335 39.9266 119.257" stroke="black" stroke-width="5.19115"/>
<path d="M39.3137 230.22C66.0698 211.321 103.077 162.859 37.0406 119.286" stroke="black" stroke-width="5.19115"/>
<path d="M133.634 39.4702C154.194 13.514 207.733 -23.2257 258.436 37.4489" stroke="black" stroke-width="5.19115"/>
<path d="M133.62 36.8967C154.877 60.6843 209.387 93.5861 258.398 34.8759" stroke="black" stroke-width="5.19115"/>
<path d="M132.473 316.957C153.033 291.001 206.572 254.261 257.275 314.936" stroke="black" stroke-width="5.19115"/>
<path d="M132.459 314.383C153.716 338.171 208.226 371.072 257.237 312.362" stroke="black" stroke-width="5.19115"/>
<path d="M16.1009 38.5061C36.6612 12.5499 87.7423 -24.7436 138.445 35.931" stroke="black" stroke-width="5.19115"/>
<path d="M15.6109 36.9814C36.8682 60.769 89.889 92.2829 138.9 33.5726" stroke="black" stroke-width="5.19115"/>
<path d="M136.386 311.272C115.584 337.077 62.2882 371.133 12.1537 310.082" stroke="black" stroke-width="5.19115"/>
<path d="M136.376 313.846C115.341 289.903 62.6594 255.219 13.1014 313.565" stroke="black" stroke-width="5.19115"/>
<path d="M122.745 178.563C143.305 152.606 196.844 115.867 247.547 176.541" stroke="black" stroke-width="5.19115"/>
<path d="M122.731 175.988C143.988 199.776 198.498 232.677 247.509 173.967" stroke="black" stroke-width="5.19115"/>
<path d="M126.653 172.877C105.851 198.682 52.5548 232.738 2.42033 171.687" stroke="black" stroke-width="5.19115"/>
<path d="M126.643 175.452C105.609 151.508 52.9269 116.824 3.36899 175.17" stroke="black" stroke-width="5.19115"/>
<path d="M40.0523 335.08C11.0286 316.586 -30.4932 270.864 38.1718 226.291" stroke="black" stroke-width="5.19115"/>
<path d="M38.3262 335.499C65.2578 316.799 101.143 269.924 35.5158 225.864" stroke="black" stroke-width="5.19115"/>
<path d="M35.3438 142.12C35.4601 145.633 36.0673 149.075 36.3665 152.571C36.818 157.846 36.8779 163.164 36.8779 168.456C36.8779 170.345 36.8779 176.013 36.8779 174.123C36.8779 169.62 37.3945 165.169 37.9326 160.7C38.8493 153.087 40.7132 145.481 40.7132 137.795C40.7132 136.545 41.2063 134.518 39.4134 134.45C38.6112 134.419 38.1041 133.339 38.412 132.724" stroke="black" stroke-width="18.9995" stroke-linecap="round"/>
<path d="M38.4118 132.724C37.7291 132.951 37.0301 133.728 36.4729 134.173C34.9741 135.368 33.603 136.84 32.254 138.2C28.9777 141.501 25.7333 145.511 23.6673 149.695C20.1622 156.793 19.3191 164.986 16.7424 172.43C15.9544 174.706 15.2225 177.049 14.7289 179.408C14.6115 179.969 14.4413 180.535 14.4413 181.112C14.4413 181.732 14.3267 179.877 14.2921 179.258C13.9507 173.156 13.9025 166.713 15.0059 160.7C15.3904 158.604 15.902 156.882 17.1153 155.107C17.8674 154.006 18.8699 153.063 19.5763 151.943C20.0702 151.159 20.386 150.337 20.386 149.407C20.386 148.135 18.6436 150.415 18.4896 150.632C16.7314 153.11 15.9243 155.974 15.2083 158.91C13.9318 164.144 13.3553 169.124 13.4931 174.496C13.5833 178.016 15.9598 180.803 17.7865 183.626C19.4377 186.178 20.8194 188.879 22.4527 191.446C24.1596 194.128 26.2764 197.033 29.2071 198.499" stroke="black" stroke-width="18.9995" stroke-linecap="round"/>
<path d="M16.9345 175.87C16.2777 176.034 16.7427 183.8 16.7427 184.99C16.7427 188.301 17.1466 191.436 18.6391 194.45C20.0094 197.217 21.3086 199.237 23.6356 201.343C24.7243 202.328 25.9716 203.131 27.098 204.07C28.1903 204.98 29.2875 206.012 30.5072 206.744C32.0806 207.688 33.8869 208.938 35.0562 210.377C35.643 211.099 36.7839 211.714 37.2189 212.497C37.7398 213.435 39.3709 214.618 39.3709 215.757C39.3709 217.946 41.8628 214.947 42.3326 214.564C43.5156 213.599 44.4472 212.288 45.4648 211.155C46.5658 209.928 47.8013 208.798 48.842 207.522C50.9341 204.957 52.6494 202.214 54.3286 199.372C56.0825 196.404 57.3634 192.842 58.1852 189.517C58.8028 187.018 59.6054 184.539 59.975 181.985C60.3876 179.134 60.3701 176.208 60.5076 173.335C60.9587 163.911 59.2663 154.683 53.6041 146.956C51.8054 144.502 49.7891 142.182 47.6381 140.031C47.2155 139.609 46.7929 139.186 46.3703 138.764C45.7573 138.151 45.9519 138.4 46.3597 139.094C47.3757 140.824 48.7222 142.392 49.7901 144.101C51.8642 147.42 54.0218 150.679 56.161 153.956C60.7088 160.921 65.5375 169.116 66.0688 177.617C66.4239 183.299 64.9764 188.658 61.2108 193.022C59.554 194.943 56.7381 197.681 54.0942 198.157C52.7031 198.408 50.9022 198.527 49.5558 198.051C47.8016 197.43 46.2195 196.169 44.719 195.11C41.9752 193.175 39.2441 191.105 37.123 188.473C34.7541 185.534 32.9212 181.887 32.1158 178.182C31.5646 175.646 31.2227 172.165 31.8708 169.627C32.2304 168.219 32.9999 166.133 34.1933 165.174C35.6138 164.032 38.497 164.294 40.138 164.503C46.3857 165.299 47.7906 172.959 46.1892 178.065C45.4752 180.341 44.0026 182.587 42.567 184.478C42.368 184.74 41.5366 186.295 41.491 185.565C41.3362 183.088 41.7764 180.519 41.9598 178.054C42.3254 173.138 43.1842 168.392 43.9733 163.533C44.8585 158.082 45.3156 152.428 45.3156 146.903C45.3156 145.93 45.5926 144.489 45.2091 143.558C44.9854 143.015 44.5877 142.514 44.3994 141.97C44.1923 141.372 44.3713 140.789 44.6445 140.298C44.82 139.982 45.5274 139.061 45.1239 138.86" stroke="black" stroke-width="18.9995" stroke-linecap="round"/>
<path d="M38.4126 181.623C39.6945 181.623 40.7335 181.873 41.9602 182.294C44.591 183.197 47.299 184.021 50.0037 184.67C53.6386 185.542 57.4144 185.622 61.0408 186.417C64.0413 187.075 67.2463 187.988 70.0431 189.304C71.9729 190.213 73.7017 191.288 75.7108 192.074C76.7088 192.465 79.9395 192.266 78.8962 192.511C76.6764 193.033 74.1892 192.059 71.982 192.756C69.8691 193.423 67.2643 194.291 65.4514 195.579C65.1438 195.798 64.3275 196.037 64.1516 196.389C63.9944 196.703 65.4222 196.581 65.5366 196.581C67.9146 196.581 70.0245 195.794 72.3336 195.345C74.7068 194.883 77.2411 194.591 79.4928 193.662C84.0983 191.761 88.6198 189.816 92.6819 186.897C94.5214 185.574 96.352 184.527 98.2857 183.392C99.833 182.483 101.498 181.445 103.154 180.771C104.553 180.201 106.071 179.768 107.213 178.704C107.96 178.009 109.177 177.345 109.706 176.445C110.253 175.516 111.775 175.535 112.285 174.72C112.466 174.429 112.912 174.627 112.998 174.24C113.09 173.828 112.833 173.506 112.508 173.281C111.765 172.767 110.891 172.487 110.132 171.939C109.624 171.572 109.139 171.233 108.694 170.788C106.989 169.084 105.391 167.682 103.421 166.282C101.936 165.227 100.367 164.241 98.8077 163.299C96.9942 162.203 95.4315 160.738 93.7366 159.474C91.2168 157.596 88.6788 156.085 85.9276 154.584C83.0265 153.002 79.5282 152.526 76.318 151.985C75.2279 151.801 71.7596 151.03 71.0978 152.113C70.1176 153.717 69.871 155.502 69.6702 157.354C69.3621 160.196 68.9404 164.01 70.3733 166.623C72.0187 169.623 75.6763 171.469 78.7471 172.621C81.9631 173.827 85.0618 175.286 88.2607 176.52C89.7087 177.079 91.4175 177.208 92.7672 177.98C94.339 178.878 89.9197 175.739 88.4312 174.709C85.3764 172.594 82.2897 170.482 79.0454 168.668C77.8508 168.001 75.9703 166.611 74.5069 166.665C74.2217 166.676 74.1415 166.956 74.0382 167.177C73.3964 168.546 72.6389 169.851 72.0246 171.236C70.1543 175.452 68.3279 180.041 68.3279 184.723C68.3279 186.242 68.5302 186.88 70.2029 187.248C73.0141 187.868 75.8439 186.759 78.4701 185.927C81.4635 184.979 84.5509 184.154 87.4617 182.965C87.9605 182.762 87.8878 182.467 87.8878 182.007" stroke="black" stroke-width="18.9995" stroke-linecap="round"/>
<path d="M178.017 170.691C177.804 171.259 174.304 170.883 173.84 170.883C170.44 170.883 167.164 171.085 163.805 171.65C160.184 172.259 156.553 173.166 152.991 174.037C150.654 174.608 148.178 174.764 145.907 175.581C144.906 175.942 143.84 176.253 142.775 176.253C141.461 176.253 140.3 175.869 139.003 175.869C138.544 175.869 137.91 175.754 137.469 175.88C137.19 175.959 136.441 176.37 136.596 176.061" stroke="black" stroke-width="18.9995" stroke-linecap="round"/>
<path d="M136.596 176.061C137.54 175.565 138.195 174.72 139.004 174.037C140.489 172.785 141.986 171.554 143.393 170.213C145.562 168.144 147.534 165.684 150.02 163.98C153.849 161.357 158.062 158.736 162.495 157.258C168.597 155.224 174.688 152.943 181.043 151.793C184.399 151.185 188.142 151.398 191.537 151.526C194.945 151.655 198.43 153.058 201.604 154.2C209.045 156.879 216.96 159.173 223.444 163.874C226.006 165.731 228.906 167.503 231.136 169.733C232.214 170.811 233.012 171.94 233.906 173.089C234.367 173.681 234.3 174.02 233.629 174.336C232.603 174.819 231.678 175.14 230.753 175.827C229.441 176.801 228.481 178.18 227.13 179.108C225.203 180.433 223.177 181.688 221.122 182.816C213.011 187.267 203.928 190.016 195.02 192.34C190.68 193.472 186.171 194 181.703 194.236C179.651 194.345 177.558 194.329 175.503 194.268C173.345 194.205 171.571 193.522 169.58 192.788C165.835 191.406 162.415 189.189 158.649 187.855C154.699 186.456 150.943 184.498 146.866 183.455C145.877 183.202 144.904 182.924 143.915 182.677C143.358 182.538 143.166 182.758 143.841 182.773C145.283 182.805 146.709 182.77 148.123 182.454C153.746 181.198 159.415 180.188 165.063 179.044C177.539 176.518 189.67 171.742 202.542 171.651C205.855 171.627 208.655 171.864 211.81 172.876C212.79 173.19 213.986 173.731 215.028 173.76C215.333 173.769 215.795 173.805 215.795 173.377C215.795 172.035 212.921 170.886 212.024 170.394C205.007 166.546 197.301 165.214 189.331 166.313C186.347 166.725 183.329 167.499 180.585 168.753C179.759 169.131 177.911 169.679 177.676 170.735C177.267 172.579 178.371 174.216 178.784 175.87" stroke="black" stroke-width="18.9995" stroke-linecap="round"/>
<path d="M178.783 175.87C180.626 176.115 182.575 177.646 184.195 178.512C186.099 179.529 188.246 180.327 190.374 180.728C191.805 180.997 193.386 181.239 194.848 181.239C195.574 181.239 195.658 181.239 195.658 180.472" stroke="black" stroke-width="18.9995" stroke-linecap="round"/>
<path d="M142.157 178.362C142.588 178.441 142.941 178.769 143.243 179.065C144.314 180.114 145.352 181.188 146.471 182.187C148.742 184.213 151.265 186.24 153.961 187.674C155.401 188.439 156.964 189.008 158.35 189.868C159.491 190.576 161.083 191.177 162.004 192.169C164.593 194.957 168.738 195.617 172.349 196.196C176.917 196.929 181.732 196.772 186.348 196.772C189.744 196.772 192.936 196.895 196.245 196.005C200.297 194.914 204.364 193.83 208.081 191.828C209.97 190.811 211.999 190.055 213.866 188.995C215.424 188.11 216.767 186.91 218.319 186.012C220.192 184.928 222.228 183.42 223.657 181.771C224.254 181.082 224.615 180.433 224.615 179.513" stroke="black" stroke-width="18.9995" stroke-linecap="round"/>
<path d="M69.3256 27.3838C68.0343 27.9915 66.326 27.9264 64.9428 28.4285C61.6845 29.6115 58.4528 31.071 55.3618 32.633C46.4792 37.1215 38.0535 42.7295 31.766 50.5464C29.97 52.7793 28.548 55.1992 27.0519 57.6303C26.9251 57.8363 25.6941 59.6605 25.9052 59.8981C26.2052 60.2356 27.2083 57.5093 27.2303 57.4519C28.3941 54.4096 29.6108 51.3719 30.8996 48.3805C33.141 43.1781 35.4877 37.8913 39.5633 33.8561C42.3056 31.1409 45.7145 28.9555 48.8385 26.7213C50.397 25.6066 52.177 24.6633 53.5017 23.2558C53.9149 22.8167 52.6275 23.0658 52.5079 23.0774C50.679 23.255 48.9336 23.7933 47.2077 24.4024C43.2325 25.8055 39.4583 27.6672 35.7538 29.6644C31.7673 31.8136 28.9227 34.0207 26.0709 37.5127C22.2436 42.1991 19.0511 48.0356 16.8084 53.6424C14.4983 59.4176 15.8233 65.7977 17.4836 71.5049C18.269 74.2047 18.7282 77.1149 19.9044 79.6717C20.7785 81.5721 21.2853 83.9592 22.5417 85.6344" stroke="black" stroke-width="18.9995" stroke-linecap="round"/>
<path d="M34.6952 64.9937C34.6952 73.0118 34.6952 81.03 34.6952 89.0481C34.6952 93.007 35.0816 97.1999 34.4149 101.126C34.3183 101.695 34.2561 102.336 33.5485 102.375C33.2205 102.393 33.1361 102.362 33.0389 102.044C32.5974 100.599 31.6809 99.2787 30.8985 98.0049C30.6656 97.6259 25.6144 89.4166 25.0632 90.1056C24.7813 90.458 24.5374 90.9083 24.0312 90.9083C23.0753 90.9083 24.2641 91.2828 24.6555 91.6473C27.6577 94.4424 29.8046 98.068 32.9115 100.77C33.8796 101.611 34.6917 102.633 35.5616 103.573C36.0264 104.075 36.1605 105.412 36.4279 106.044C36.9162 107.198 37.7607 108.071 38.3645 109.128C38.6173 109.57 39.0157 109.387 39.3965 109.599C40.0493 109.962 41.5752 111.544 41.5752 110.402" stroke="black" stroke-width="18.9995" stroke-linecap="round"/>
<path d="M39.9689 112.695C40.6302 112.43 41.1902 111.112 41.6251 110.58C43.2043 108.65 45.1101 107.056 46.8234 105.254C49.3606 102.586 51.8908 99.5509 53.9072 96.4633C58.5766 89.3132 61.0814 81.52 62.5454 73.135C63.0409 70.297 63.5651 67.2643 63.5902 64.3821C63.6054 62.6248 63.7107 60.8084 63.5647 59.0565C63.4368 57.522 62.9291 55.9687 62.6728 54.4444C62.1144 51.123 62.0509 47.6104 61.0675 44.3792C60.6051 42.8599 59.701 41.35 59.4749 39.767C59.3818 39.1151 59.3969 40.112 59.322 40.3531C59.0008 41.3881 58.4512 42.3608 57.8568 43.258C56.7715 44.8962 55.4182 46.239 54.162 47.7427C52.4 49.8521 50.9332 52.2204 49.7282 54.6864C42.4571 69.5669 43.082 86.8229 39.0006 102.604C38.8969 103.005 37.6987 105.807 38.7075 106.032C40.8681 106.512 42.4473 104.954 43.8803 103.611C45.4498 102.139 46.9216 100.631 48.5943 99.2662C51.3365 97.0283 54.3733 95.1497 57.0159 92.7939C60.7962 89.4242 64.3248 85.2906 66.2912 80.5883C67.9205 76.6922 69.0267 72.3758 69.6802 68.2171C70.2368 64.6755 70.9288 61.2689 70.9288 57.655C70.9288 55.6847 70.2408 53.7717 70.2408 51.7943C70.2408 50.4447 69.8089 48.1366 70.9543 47.1184C72.6222 45.6358 75.5197 46.1884 77.5285 46.1884C82.7564 46.1884 88.302 45.6578 93.429 46.9273C94.1589 47.1081 97.4259 48.1077 95.4038 48.9404C93.7224 49.6327 91.8925 49.9846 90.1928 50.6476C88.2103 51.4209 86.4127 52.6651 84.5104 53.6162C82.6889 54.527 81.0042 55.1324 78.9555 55.1324C77.9594 55.1324 76.7938 55.2868 75.8722 55.7057C74.5409 56.3108 76.6144 56.3906 77.2992 56.4574C79.5473 56.6767 82.4188 56.8252 84.6379 56.279C89.7795 55.0134 96.2348 54.5715 100.5 51.0171C102.299 49.518 104.096 47.7356 105.584 45.9336C106.568 44.7415 107.622 43.9014 107.622 42.2897" stroke="black" stroke-width="18.9995" stroke-linecap="round"/>
<path d="M69.3245 42.5192C78.2019 42.4195 87.057 41.8312 95.9399 41.8312C97.6854 41.8312 99.4308 41.8312 101.176 41.8312C102.183 41.8312 98.7815 41.4256 98.4498 41.3471C94.849 40.4943 91.4249 39.0065 87.8877 37.9453C80.6946 35.7874 73.0671 33.6969 65.5532 33.0274C61.3791 32.6554 57.1187 32.8872 52.9272 32.8872C50.6351 32.8872 47.9496 32.7427 46.4039 30.8105C45.1665 29.2637 45.1083 26.2387 46.0854 24.593C49.4259 18.9669 56.9242 15.806 62.9032 14.3113C67.4 13.1871 71.916 12.2473 76.574 12.2473C80.9441 12.2473 85.2351 12.0556 89.5186 13.0499C93.5644 13.9892 97.6893 15.1 101.559 16.6173C104.965 17.9532 107.76 20.0461 110.732 22.0959C113.341 23.8952 117.172 25.7462 118.733 28.6446C119.544 30.1505 120.629 31.8377 121.23 33.4224C121.612 34.4277 121.755 35.002 121.154 35.7539C120.824 36.1658 118.958 36.0648 118.504 36.1489C117.153 36.3989 115.77 37.6701 114.732 38.4932C112.781 40.0419 110.885 41.6496 109.05 43.3346C107.713 44.5629 106.377 45.7941 105.151 47.1314C104.293 48.0675 103.239 49.2388 102.119 49.8579C101.289 50.3168 100.499 50.7037 99.5965 51.0046C99.1252 51.1617 98.1499 51.3221 97.8128 51.7435C97.437 52.2132 99.7482 52.153 99.8258 52.1512C101.552 52.1129 102.958 51.5617 104.362 50.5969C107.315 48.5666 110.54 47.1326 113.713 45.5006C116.919 43.8518 118.957 40.2685 120.975 37.4739C121.394 36.8938 121.71 36.3056 122.071 35.6902C122.288 35.321 122.142 34.5195 122.53 34.3142C123.06 34.0335 123.808 34.4926 124.364 34.4926C124.638 34.4926 125.785 34.7672 125.46 34.6709C123.649 34.1344 121.753 34.1482 120.007 33.3459C117.698 32.2848 114.941 32.0327 112.516 31.2819C106.591 29.448 100.718 28.2528 94.5511 27.6126C91.1278 27.2572 87.7866 26.8775 84.435 26.0582C82.6018 25.6101 80.681 24.9201 78.7781 24.8606C77.5624 24.8226 77.1218 25.1504 77.1218 23.7139" stroke="black" stroke-width="18.9995" stroke-linecap="round"/>
<path d="M182.386 37.2451C182.288 38.0243 166.816 37.4745 164.752 37.4745C161.25 37.4745 157.664 37.2451 154.127 37.2451C152.806 37.2451 151.485 37.2451 150.164 37.2451C149.474 37.2451 147.409 37.9274 147.068 37.2451" stroke="black" stroke-width="18.9995" stroke-linecap="round"/>
<path d="M148.216 37.7036C149.12 36.6997 150.27 36.0095 151.338 35.1555C154.078 32.9635 156.8 30.9111 159.721 28.9635C166.152 24.6765 173.031 20.7786 180.272 18.0319C182.837 17.0589 185.544 16.1111 188.235 15.573C190.682 15.0835 193.251 15.0995 195.739 14.885C198.466 14.6499 201.32 14.6713 204.059 14.7831C206.738 14.8924 209.315 15.8092 211.882 16.4903C214.786 17.2607 217.769 18.0773 220.584 19.1276C223.482 20.2093 226.18 21.7542 228.993 23.0263C232.697 24.702 235.893 27.202 239.262 29.4476C240.343 30.1686 241.237 31.0589 242.358 31.741C242.927 32.0878 243.668 32.3781 244.192 32.7857C244.624 33.1217 245.181 34.8196 244.969 35.2956C244.709 35.8823 243.366 35.6396 242.88 35.6396C241.258 35.6396 239.635 35.6396 238.013 35.6396C229.575 35.6396 220.82 36.5642 212.761 33.7285C208.017 32.0595 203.753 29.5122 199.268 27.2945C195.818 25.5884 192.573 24.4019 188.681 24.6571C181.765 25.1106 177.709 31.6059 171.557 33.703C169.139 34.5274 166.6 34.7368 164.091 35.181C162.807 35.4084 161.375 35.7702 160.091 35.869C158.321 36.0051 156.96 38.1557 156.931 39.7676C156.891 42.0072 157.008 45.0043 159.11 46.4055C162.191 48.46 165.952 49.138 169.468 50.1768C177.667 52.5992 186.148 54.9036 194.784 54.9036C208.324 54.9036 222.66 51.1111 233.477 42.698C234.95 41.5526 236.877 40.3926 238.089 38.9777C239 37.9151 238.254 37.933 237.198 37.933C235.214 37.933 233.231 37.933 231.248 37.933C225.917 37.933 220.713 36.6303 215.398 36.3404C210.15 36.0541 204.892 36.0644 199.638 36.0983C195.057 36.1278 191.529 37.8573 187.738 40.3027C186.035 41.4016 182.379 44.3905 185.878 45.7303C187.911 46.5089 190.225 46.1897 192.325 46.7623C192.503 46.8108 194.514 47.3777 194.019 47.9217C192.687 49.3867 188.77 48.941 186.999 48.941C185.049 48.941 183.166 49.5922 181.47 50.5463C180.004 51.3707 178.218 53.442 180.374 54.7252C181.945 55.6605 183.907 56.2295 185.649 56.7892C188.188 57.6055 191.156 57.0912 193.764 57.5409C196.717 58.05 200.03 57.6556 203.027 57.6556C205.994 57.6556 209.022 57.3772 211.945 56.8657C215.838 56.1845 219.463 54.6003 222.801 52.4574C225.429 50.7696 229.171 48.0091 229.171 44.5836" stroke="black" stroke-width="18.9995" stroke-linecap="round"/>
<path d="M60.4977 319.653C63.7364 322.892 54.0151 313.146 51.2189 309.518C46.0005 302.749 40.8144 294.615 37.6835 286.637C34.7439 279.145 33.3369 271.666 33.3369 263.71" stroke="black" stroke-width="18.9995" stroke-linecap="round"/>
<path d="M48.3861 290.257C48.3861 292.942 48.3861 284.887 48.3861 282.202C48.3861 276.425 48.6474 270.722 47.0482 265.115C45.6238 260.122 43.3592 255.014 40.5351 250.621C39.6719 249.278 38.8151 247.869 38.1008 246.44C37.4919 245.222 37.5371 243.456 37.1438 242.129C36.9178 241.366 36.4012 240.476 35.8431 239.918C35.4576 239.532 35.5099 240.193 35.0998 240.076C34.7388 239.973 35.1273 239.164 35.2391 239.007C35.2498 238.992 34.894 238.934 34.8396 238.989C34.552 239.276 34.4637 239.777 34.2636 240.122C33.8708 240.799 33.3487 241.502 32.7956 242.055C31.0983 243.752 29.1254 245.272 27.3138 246.849C25.1716 248.713 23.3765 250.769 21.5533 252.944C19.9343 254.875 18.6113 256.666 17.651 259.02C16.2989 262.335 15.2128 265.829 14.1018 269.231C11.8272 276.197 11.7962 284.34 14.8079 291.093C15.9934 293.752 18.3537 296.084 20.8193 297.597C23.743 299.391 27.4127 300.818 30.8816 300.793C31.9219 300.786 32.5852 300.728 33.3159 299.966C34.3734 298.864 35.4775 297.661 35.7409 296.101C36.7383 290.193 29.8544 285.852 25.3812 283.503C23.5241 282.527 21.6427 281.755 19.6021 281.263C19.4043 281.216 17.1659 280.509 16.982 280.762C16.3655 281.609 24.3498 284.635 24.9353 284.757C25.6198 284.9 26.7421 285.085 27.3695 284.627C28.3127 283.938 28.4546 281.736 28.6517 280.743C29.2926 277.514 29.7438 274.22 29.9153 270.932C29.9991 269.325 30.1859 267.247 28.819 266.082C28.3666 265.696 26.1431 264.43 26.1431 265.701C26.1431 269.153 28.7544 272.333 31.532 274.146C34.8427 276.308 38.0201 275.042 40.7302 272.678C43.4982 270.264 46.1002 267.058 47.6614 263.722C48.554 261.814 49.2843 259.694 49.436 257.58C49.4779 256.996 49.4887 256.398 49.371 255.824C48.7714 252.901 49.0854 256.197 48.0516 253.966" stroke="black" stroke-width="18.9995" stroke-linecap="round"/>
<path d="M42.3649 241.256C42.3473 241.259 43.7397 242.886 43.9537 243.18C44.9716 244.575 46.2981 245.629 47.2149 247.119C50.0993 251.806 52.2386 257.029 54.3319 262.106C56.3268 266.944 57.9459 271.852 58.0762 277.129C58.19 281.735 56.9375 285.859 54.7407 289.886C54.2555 290.776 53.7354 291.66 53.3285 292.59C52.9581 293.437 54.8552 291.498 55.0009 291.326C56.6725 289.351 57.9748 286.906 59.2191 284.646C60.6705 282.01 61.4325 279.378 61.5604 276.358C61.618 274.999 61.7149 273.54 61.4489 272.196C61.1463 270.667 60.3405 269.2 59.5814 267.857C58.1342 265.297 56.6582 262.666 54.9265 260.285C54.1313 259.191 53.2909 258.1 52.4365 257.051C52.1252 256.669 51.6 256.215 51.3959 255.806" stroke="black" stroke-width="18.9995" stroke-linecap="round"/>
<path d="M16.277 293.769C15.5228 294.147 16.6328 298.069 16.7416 298.601C17.0011 299.87 17.5017 301.129 18.0423 302.308C20.0271 306.639 24.0567 309.734 27.3985 312.928C29.6862 315.114 32.1245 316.96 34.6642 318.846C37.176 320.712 40.2653 322.683 43.37 323.334C45.7353 323.83 48.4504 323.953 50.8308 323.52C51.6826 323.365 56.2418 322.722 56.3776 321.364C56.4157 320.984 55.8256 320.558 55.6343 320.389C54.3746 319.276 53.0335 318.234 51.6949 317.22C48.5571 314.844 45.2121 312.599 41.5861 311.032C39.8436 310.279 38.0278 309.773 36.253 309.118C35.6822 308.908 34.6665 308.517 34.5248 307.808C34.4013 307.191 34.671 306.576 35.0637 306.117C36.3161 304.656 38.1295 303.082 39.9323 302.373C41.6445 301.7 43.6865 301.776 45.4884 301.797C48.4875 301.833 51.2411 302.602 53.9991 303.73C56.4096 304.715 59.0871 306.417 61.7386 306.638C62.1115 306.669 62.3918 306.694 62.612 306.35C63.494 304.972 63.8003 303.112 64.3494 301.593C65.0603 299.625 65.8862 297.591 66.0404 295.479C66.1746 293.642 65.2329 291.917 64.368 290.36C64.2805 290.202 63.376 288.209 63.1044 288.752" stroke="black" stroke-width="18.9995" stroke-linecap="round"/>
<path d="M58.7563 322.368C58.8455 322.012 59.8757 322.224 60.0943 322.275C66.3054 323.717 72.1237 326.729 78.4908 327.58C82.9647 328.178 87.8647 328.124 92.3346 327.534C96.1133 327.035 100.194 325.995 103.307 323.687C105.781 321.854 106.272 319.078 106.717 316.199C107.041 314.105 107.872 310.827 106.931 308.794C105.777 306.299 100.495 306.34 98.4296 306.22C94.5158 305.992 90.5457 305.995 86.6763 306.703C83.207 307.338 79.8747 308.766 76.7347 310.336C74.937 311.235 71.2067 312.751 70.6026 314.981C70.0655 316.965 75.2094 317.218 76.2051 317.351C79.6286 317.807 83.8822 318.465 87.2895 317.564C88.1004 317.35 89.8053 316.249 88.7296 315.307C87.2029 313.969 84.6664 314.173 82.7926 314.173C82.0843 314.173 80.3451 313.869 80.0331 314.805C79.8696 315.295 82.0388 315.588 82.3373 314.842" stroke="black" stroke-width="18.9995" stroke-linecap="round"/>
<path d="M47.046 314.173C46.5131 314.373 46.8692 317.968 46.8787 318.54C46.9152 320.73 47.0966 323.085 48.3839 324.913C50.0527 327.284 51.9199 328.568 54.386 330.005C55.5709 330.695 56.714 331.548 57.9909 332.068C59.2587 332.584 60.6143 332.844 61.9304 333.201C64.9946 334.034 68.4299 333.907 71.5839 333.907C74.4842 333.907 77.2495 333.677 80.0667 332.904C82.8507 332.14 85.65 331.421 88.4288 330.637C90.4716 330.061 92.4066 329.28 94.2822 328.305C96.0331 327.394 97.5861 326.043 99.2251 324.951C100.533 324.079 101.803 323.18 103.072 322.238C103.25 322.105 104.001 321.673 104.001 321.401C104.001 321.353 102.124 322.292 101.975 322.368C99.9508 323.394 98.4487 325.066 96.5864 326.307C95.8285 326.812 95.539 327.565 96.382 328.221C97.4584 329.058 99.1647 328.938 99.9777 327.877C101.807 325.491 103.934 324.299 106.751 323.204C108.332 322.589 110.3 322.368 111.675 321.355C112.839 320.498 113.385 318.654 113.924 317.397C114.064 317.07 114.3 316.168 114.611 316.012" stroke="black" stroke-width="18.9995" stroke-linecap="round"/>
<path d="M106.419 315.009C105.586 315.009 105.215 314.88 104.542 314.349C101.18 311.701 97.6089 309.283 94.0616 306.889C87.7744 302.644 81.3874 298.189 74.7174 294.569C73.0229 293.649 75.1542 293.261 76.0553 293.138C77.537 292.935 78.9222 292.766 80.4129 292.766C82.743 292.766 85.0242 293.316 87.2419 294.011C90.6536 295.08 94.1607 295.732 97.5365 296.947C99.7328 297.738 101.363 298.673 103.167 300.115C104.985 301.57 106.629 303.214 108.296 304.845C109.512 306.034 111.086 306.779 112.309 307.948C113.206 308.805 113.89 309.682 114.651 310.661C115.276 311.465 116.109 312.664 117.085 313.039C117.946 313.371 118.812 313.657 119.714 313.931C120.44 314.152 120.963 314.34 121.721 314.34C122.007 314.34 123.158 314.468 122.548 314.08C121.836 313.627 121.1 312.578 120.551 311.906C120.22 311.502 119.914 311.183 119.538 310.828C119.243 310.55 119.012 310.665 119.464 310.326" stroke="black" stroke-width="18.9995" stroke-linecap="round"/>
<path d="M182.848 310.828C179.386 310.828 175.923 310.828 172.461 310.828C169.885 310.828 167.106 310.511 164.582 311.163C162.977 311.577 161.408 311.865 159.843 312.463C157.924 313.197 156.065 314.053 154.046 314.507C152.017 314.964 150.124 315.176 148.062 315.176C147.168 315.176 146.193 315.009 145.386 315.009" stroke="black" stroke-width="18.9995" stroke-linecap="round"/>
<path d="M145.386 315.008C146.403 314.028 147.545 313.507 148.768 312.834C150.601 311.826 152.532 310.785 154.231 309.564C156.654 307.822 158.8 305.671 161.469 304.295C164.975 302.489 168.274 300.328 171.643 298.284C172.783 297.592 173.856 296.855 175.062 296.277C176.548 295.566 178.113 295.35 179.717 295.097C184.743 294.304 189.735 292.567 194.824 292.263C199.332 291.994 203.569 292.018 207.897 293.471C212.806 295.12 217.485 297.823 222.001 300.319C226.771 302.955 230.602 306.933 235.12 309.917C236.701 310.961 238.713 311.647 240.082 312.964C240.358 313.23 240.697 313.477 241.048 313.633C241.596 313.876 241.295 313.1 241.113 312.918C240.533 312.338 239.661 312.063 239.032 311.496C238.146 310.699 237.299 309.921 236.458 309.08C235.017 307.64 233.261 306.553 231.757 305.178C230.657 304.172 229.696 302.978 228.523 302.056C227.992 301.639 228.305 302.057 228.691 302.214C230.137 302.806 231.444 303.718 232.621 304.751C235.208 307.021 237.287 309.798 239.914 311.998C240.463 312.457 245.201 316.263 245.563 315.175" stroke="black" stroke-width="18.9995" stroke-linecap="round"/>
<path d="M150.57 315.51C152.027 318.278 155.423 320.211 157.966 321.865C161.973 324.473 166.812 325.313 171.252 326.882C174.533 328.042 177.742 329.317 181.175 329.93C181.853 330.051 183.739 330.871 182.011 330.896C180.066 330.924 178.542 330.365 176.678 329.893C174.233 329.273 171.523 328.996 169.208 327.96C168.853 327.801 168.45 327.7 169.134 327.718C171.296 327.779 173.472 329.474 175.321 330.394C178.828 332.139 182.526 334.021 186.378 334.873C195.717 336.938 205.633 335.441 214.707 332.819C216.755 332.228 218.693 331.059 220.504 329.958C222.692 328.628 224.81 327.354 226.767 325.702C227.761 324.862 228.699 323.959 229.693 323.119C231.05 321.973 232.604 321.121 234.023 320.063C235.115 319.248 236.077 318.006 237.201 317.285C237.648 316.997 236.454 317.972 236.021 318.102C234.367 318.598 232.807 318.688 231.087 318.688C226.32 318.688 221.506 317.961 216.788 317.34C211.199 316.605 205.996 314.609 200.5 313.522C197.037 312.837 193.535 312.916 190.104 311.989C189.93 311.942 184.538 310.452 184.538 310.929C184.538 311.793 186.067 313.23 186.536 313.847C188.007 315.78 189.435 317.746 191.033 319.579C192.381 321.127 193.727 322.758 195.604 323.677C197.667 324.687 199.909 324.762 202.164 324.69C204.361 324.619 206.618 324.333 208.519 323.147C210.611 321.842 212.515 319.965 213.926 317.953C215.474 315.747 216.741 312.901 215.784 310.195C214.989 307.946 213.074 306.166 210.86 305.364C206.712 303.861 201.682 304.472 197.36 304.472C194.069 304.472 190.775 304.434 187.484 304.481C184.021 304.531 179.744 304.897 176.827 306.981" stroke="black" stroke-width="18.9995" stroke-linecap="round"/>
</g>
<defs>
<clipPath id="clip0_205_6085">
<rect width="263.786" height="354.06" fill="white" transform="translate(0.225586 0.342773)"/>
</clipPath>
</defs>
</svg>
