<svg width="266" height="354" viewBox="0 0 266 354" fill="none" xmlns="http://www.w3.org/2000/svg">
<g style="mix-blend-mode:darken" clip-path="url(#clip0_205_6193)">
<rect width="264.959" height="352.888" transform="translate(0.561523 0.131836)" fill="white"/>
<path d="M97.1067 200.399C96.0948 177.327 107.754 134.873 161.022 148.611" stroke="black" stroke-width="5.19115"/>
<path d="M95.945 198.943C117.54 203.768 160.349 200.223 159.352 147.017" stroke="black" stroke-width="5.19115"/>
<path d="M126.495 199.59C103.9 204.362 60.1105 199.804 64.9507 145.007" stroke="black" stroke-width="5.19115"/>
<path d="M125.252 200.97C126.479 178.878 115.98 137.225 63.6539 146.911" stroke="black" stroke-width="5.19115"/>
<path d="M63.6801 309.157C86.8924 279.438 147.32 238.4 202.501 309.251" stroke="black" stroke-width="5.19115"/>
<path d="M63.7098 306.179C86.8717 333.976 146.731 372.774 202.012 305.588" stroke="black" stroke-width="5.19115"/>
<path d="M63.6801 41.9621C86.8924 12.243 147.32 -28.7956 202.501 42.0562" stroke="black" stroke-width="5.19115"/>
<path d="M63.71 38.9834C86.872 66.7803 146.731 105.579 202.012 38.3923" stroke="black" stroke-width="5.19115"/>
<path d="M259.068 245.346C219.951 250.981 145.964 240.084 161.433 153.887" stroke="black" stroke-width="5.19115"/>
<path d="M256.749 247.419C261.753 212.606 249.36 145.89 158.954 156.785" stroke="black" stroke-width="5.19115"/>
<path d="M102.652 336.306C63.5354 341.941 -10.4517 331.043 5.01691 244.847" stroke="black" stroke-width="5.19115"/>
<path d="M100.332 338.378C105.336 303.565 92.9435 236.849 2.53729 247.744" stroke="black" stroke-width="5.19115"/>
<path d="M255.998 94.6935C216.881 100.329 142.894 89.4312 158.363 3.23497" stroke="black" stroke-width="5.19115"/>
<path d="M253.689 96.7672C258.693 61.9541 246.3 -4.76145 155.894 6.13288" stroke="black" stroke-width="5.19115"/>
<path d="M6.52747 96.8786C1.35119 60.5054 14.8151 -7.79412 107.44 8.52785" stroke="black" stroke-width="5.19115"/>
<path d="M4.34782 94.6907C41.7859 100.13 114.04 90.1886 104.375 6.17301" stroke="black" stroke-width="5.19115"/>
<path d="M255.454 244.705C262.951 280.729 253.885 349.649 160.379 338.451" stroke="black" stroke-width="5.19115"/>
<path d="M257.777 246.767C220.057 243.396 148.567 257.296 163.596 340.631" stroke="black" stroke-width="5.19115"/>
<path d="M252.385 94.0493C259.882 130.074 250.816 198.993 157.31 187.796" stroke="black" stroke-width="5.19115"/>
<path d="M254.708 96.1114C216.987 92.741 145.498 106.64 160.527 189.976" stroke="black" stroke-width="5.19115"/>
<path d="M22.4516 270.357C22.3682 270.357 25.0285 271.602 25.6921 272.062C29.4515 274.669 33.2306 277.3 36.863 280.078C46.2965 287.292 57.5842 293.333 68.5 297.986C82.9463 304.143 98.8497 308.501 114.165 311.8C124.502 314.027 134.948 315.637 145.546 315.637C152.68 315.637 160.264 316.357 167.333 315.296C180.217 313.364 192.503 307.062 202.978 299.52C216.363 289.884 226.465 275.249 232.398 259.825C235.361 252.12 237.581 244.871 237.344 236.588C237.159 230.136 231.518 222.946 228.049 217.742C218.861 203.959 207.524 189.099 194.195 179.027C190.93 176.56 186.284 174.651 182.555 172.93C179.637 171.583 184.8 167.871 185.923 166.748C194.677 157.994 206.19 150.854 205.11 136.816" stroke="black" stroke-width="18.9995" stroke-linecap="round"/>
<path d="M81.5476 167.514C92.191 167.514 102.675 169.049 113.355 169.049C116.056 169.049 130.869 170.946 132.201 168.281" stroke="black" stroke-width="18.9995" stroke-linecap="round"/>
<path d="M47.0098 65.4403C52.2071 65.4403 57.5484 60.8926 62.2739 59.1299C77.0416 53.6214 91.7355 47.9224 106.915 43.6099C119.599 40.0066 132.676 37.6186 145.843 36.8732C160.681 36.0334 175.817 35.1213 190.143 39.7726C207.249 45.3265 225.208 56.7068 230.265 75.4174C231.437 79.7527 235.808 92.1878 235.808 87.6969" stroke="black" stroke-width="18.9995" stroke-linecap="round"/>
<path d="M73.6478 157.106C77.168 157.441 81.5451 160.379 83.8856 162.995C84.9032 164.132 81.9882 162.78 81.7688 162.629C80.5684 161.801 79.575 160.665 78.2279 160.147C77.2389 159.766 74.9444 158.295 74.4175 157.452C73.9114 156.643 72.5991 156.048 72.2622 155.374" stroke="black" stroke-width="18.9995" stroke-linecap="round"/>
<path d="M78.8435 156.067C81.6521 156.067 84.487 155.95 87.2916 156.087C90.2509 156.231 93.5142 158.034 96.1247 159.339C100.727 161.64 105.291 164.034 110.519 164.034C113.163 164.034 115.628 164.198 118.14 163.265C121.542 162.001 124.713 160.46 127.916 158.762C133.163 155.98 139.481 154.735 145.389 154.682C148.459 154.654 152.574 153.964 155.396 155.375" stroke="black" stroke-width="18.9995" stroke-linecap="round"/>
<path d="M74.3393 160.571C72.3344 161.073 76.3354 166.548 76.8411 167.153C79.847 170.747 84.0327 173.717 88.0026 176.14C91.2505 178.122 94.7641 180.096 97.5476 182.74C100.363 185.415 94.7131 183.163 93.6796 182.548C88.9203 179.715 83.5918 177.845 78.8809 174.966C78.6842 174.846 77.131 173.914 78.0149 174.254C80.0258 175.027 81.4532 175.941 83.1531 177.352C87.1817 180.697 90.9166 185.251 95.9696 187.07C96.817 187.375 100.669 189.337 100.319 187.936" stroke="black" stroke-width="18.9995" stroke-linecap="round"/>
<path d="M79.5349 169.23C79.5349 172.139 79.8296 174.028 81.9597 176.158C83.4776 177.676 84.903 179.204 86.482 180.661C87.6826 181.77 88.8213 183.656 90.3501 184.202C93.387 185.287 96.4046 185.91 99.4717 186.896C104.922 188.648 109.462 189.321 115.213 189.321C118.18 189.321 121.395 188.289 124.104 187.089C128.646 185.077 133.501 182.701 137.652 179.969C141.74 177.278 144.832 173.618 147.89 169.827C148.226 169.41 150.762 166.113 149.314 166.113C145.702 166.113 143.091 168.759 139.807 169.923C130.033 173.389 120.431 177.456 110.71 181.085C110.453 181.181 107.978 181.944 107.978 182.22C107.978 182.487 111.651 182.562 111.903 182.605C114.51 183.047 116.921 184.232 119.563 184.626C121.66 184.938 123.817 184.818 125.932 184.818C128.684 184.818 131.436 184.818 134.188 184.818C134.977 184.818 137.473 184.953 136.69 183.779" stroke="black" stroke-width="18.9995" stroke-linecap="round"/>
<path d="M168.212 154.681C168.212 159.348 168.114 163.945 169.329 168.498C171.556 176.851 175.578 184.466 180.317 191.687C181.977 194.217 188.766 202.096 191.555 196.518C195.861 187.907 189.475 178.741 184.724 172.039C183.896 170.872 178.092 160.52 175.487 162.995C174.637 163.801 174.304 164.943 173.889 165.997C172.781 168.811 171.859 171.649 170.849 174.503C169.515 178.272 169.144 182.733 169.79 186.703C170.132 188.802 170.73 192.1 172.023 193.824" stroke="black" stroke-width="18.9995" stroke-linecap="round"/>
<path d="M187.264 162.302C185.595 162.928 180.752 158.118 179.547 156.991C178.291 155.816 177.374 154.46 176.718 152.872C175.665 150.322 174.555 147.45 175.217 144.636C175.445 143.664 175.735 142.644 176.025 141.692C176.257 140.929 177.172 140.186 177.218 139.44C177.286 138.362 176.053 141.261 175.506 142.192C174.764 143.453 173.462 144.967 173.062 146.368C172.697 147.644 173.328 144.943 173.562 144.482C174.382 142.866 175.46 141.392 176.333 139.806C178.206 136.4 180.641 133.478 183.299 130.607C186.335 127.329 189.945 124.864 193.306 121.966C194.779 120.697 196.458 119.575 198.002 118.387C198.978 117.636 201.077 117.051 201.466 115.885" stroke="black" stroke-width="18.9995" stroke-linecap="round"/>
<path d="M181.72 144.984C181.72 140.803 181.276 136.409 183.029 132.513C183.768 130.87 184.347 129.099 184.915 127.395C185.596 125.35 183.467 126.988 182.605 127.645C182.186 127.965 179.654 130.148 181.066 128.838C182.659 127.358 184.303 125.955 185.915 124.489C188.738 121.923 191.155 118.933 194.19 116.599C196.081 115.144 198.754 114.441 200.425 112.769" stroke="black" stroke-width="18.9995" stroke-linecap="round"/>
<path d="M197.656 138.747C197.656 140.004 197.656 141.262 197.656 142.519C197.656 144.321 198.283 147.573 196.963 149.081C196.182 149.974 195.986 147.799 195.943 147.542C195.432 144.474 195.674 141.398 196.771 138.478C199.331 131.664 204.8 125.282 209.664 120.023C214.042 115.29 218.517 110.643 223.135 106.148C225.488 103.858 228.573 101.516 230.679 98.9888C231.903 97.52 227.565 101.257 226.291 102.684C225.96 103.054 225.021 104.512 225.021 103.415" stroke="black" stroke-width="18.9995" stroke-linecap="round"/>
<path d="M210.125 113.808C209.405 113.717 211.048 110.961 211.319 110.536C211.843 109.712 212.863 109.997 213.782 109.997C219.91 109.997 225.597 107.919 231.679 107.919C234.636 107.919 238.258 108.453 240.781 106.706C242.04 105.835 241.911 106.025 241.994 104.455C242.034 103.683 243.847 103.572 242.34 103.069" stroke="black" stroke-width="18.9995" stroke-linecap="round"/>
<path d="M241.648 102.723C241.648 105.966 242.706 108.886 243.11 112.075C243.685 116.611 243.669 121.072 241.994 125.354C240.367 129.512 239.569 134.063 238.53 138.401C237.562 142.443 235.57 146.51 233.315 150.005C230.446 154.451 227.381 158.903 223.635 162.649C220.295 165.989 216.095 169.664 211.781 171.655C210.454 172.267 201.682 177.792 201.466 173.579C201.221 168.802 204.208 163.59 206.47 159.57C212.472 148.898 220.892 139.677 226.676 128.875C229.831 122.982 230.909 116.783 230.909 110.17C230.909 107.903 230.112 110.014 229.639 110.978C225.524 119.373 219.685 127.013 215.168 135.226C213.719 137.861 218.113 134.262 218.632 133.879C220.561 132.452 222.447 130.847 224.674 129.895C226.503 129.114 228.449 128.924 230.371 128.51C232.982 127.947 235.202 127.073 237.472 125.796C238.591 125.167 239.033 125.801 239.377 126.778C241.345 132.371 242.433 137.219 242.34 143.174C242.279 147.096 238.391 150.156 236.105 152.95C234.442 154.982 232.382 156.673 230.736 158.684C229.529 160.16 228.888 161.994 226.753 160.57" stroke="black" stroke-width="18.9995" stroke-linecap="round"/>
<path d="M176.526 38.6396C176.526 41.1606 176.526 43.6816 176.526 46.2026C176.526 47.7532 177.205 51.2408 176.333 52.6108C175.505 53.9133 173.196 50.7644 172.869 50.417C171.084 48.5203 165.748 42.8808 167.192 45.0479C168.277 46.6743 170.101 48.1853 171.522 49.4933C174.285 52.0365 176.829 54.7696 179.643 57.2679C182.29 59.6169 184.945 61.9387 187.572 64.3112C188.595 65.2355 189.744 66.9467 191.074 67.3903" stroke="black" stroke-width="18.9995" stroke-linecap="round"/>
<path d="M187.611 42.7969C188.514 45.8949 191.924 48.0372 193.153 51.1103" stroke="black" stroke-width="18.9995" stroke-linecap="round"/>
<path d="M166.825 40.7188C166.825 44.9436 165.879 49.5734 168.134 53.3044C169.186 55.0467 170.401 56.8244 171.597 58.4618C172.994 60.3733 175.175 62.271 177.14 63.5807C178.214 64.2966 179.366 64.6177 180.507 65.3126C183.403 67.0753 185.99 69.295 188.879 71.0281C192.319 73.0924 196.829 73.4506 200.618 74.5113C203.96 75.4471 207.74 76.8604 210.817 78.3986C214.029 80.0046 219.079 80.9189 220.593 84.6337C220.691 84.8739 222.026 86.2662 222.229 85.5574C222.452 84.7754 220.735 83.5441 220.323 83.1326C217.377 80.186 215.103 76.7554 212.664 73.3951C208.522 67.6884 203.381 63.6631 197.846 59.424C195.876 57.9148 193.54 55.1914 191.072 54.5745" stroke="black" stroke-width="18.9995" stroke-linecap="round"/>
<path d="M191.073 54.2271C191.073 59.7344 189.817 66.9511 192.69 71.9316C193.704 73.6894 195.349 75.0204 196.346 76.7426C196.615 77.2061 197.106 77.5791 197.482 77.955C197.849 78.3222 198.304 78.5573 198.771 78.7825C204.061 81.3296 209.575 83.4525 214.975 85.7488" stroke="black" stroke-width="18.9995" stroke-linecap="round"/>
<path d="M202.852 69.1221C206.028 72.982 209.593 76.7813 212.32 80.9956C212.6 81.4283 212.691 81.4825 213.167 81.6692C214.282 82.1072 215.64 83.8484 215.322 81.9386" stroke="black" stroke-width="18.9995" stroke-linecap="round"/>
<path d="M239.569 103.762C239.569 100.096 239.36 96.3583 239.781 92.7158C239.904 91.65 241.669 85.7602 240.262 85.0566" stroke="black" stroke-width="18.9995" stroke-linecap="round"/>
<path d="M242.686 123.161C242.686 124.803 242.686 126.445 242.686 128.087C242.686 128.8 243.106 131.583 242.34 130.435" stroke="black" stroke-width="18.9995" stroke-linecap="round"/>
<path d="M245.803 98.9134C246.291 99.2182 246.15 95.5663 246.15 95.1801C246.15 92.1845 246.255 89.1666 246.13 86.1739C246.009 83.2655 245.237 80.3126 244.495 77.514C243.27 72.8972 242.534 68.125 240.742 63.6776C238.21 57.3944 235.305 50.993 231.601 45.2995C228.83 41.0404 225.293 38.1783 220.632 36.1393C209.359 31.2072 197.476 28.688 185.396 26.3441C179.702 25.2393 174.264 25.1317 168.481 25.1317C167.58 25.1317 160.97 25.6035 160.937 24.7084C160.843 22.165 162.579 20.6798 164.189 19.0699C165.403 17.8564 166 17.8575 167.692 17.8575C169.919 17.8575 171.595 16.8948 173.677 16.1255C176.263 15.1695 179.049 14.7399 181.798 14.7399C184.693 14.7399 187.209 14.9192 190.034 15.4327C193.186 16.0058 196.186 17.1583 199.233 18.0114C202.034 18.7959 205.234 19.3954 207.854 20.7056C210.952 22.2546 213.656 24.7114 216.783 26.1709C223.231 29.1798 227.577 35.6888 231.293 41.4314C234.057 45.7019 236.604 49.4064 237.913 54.3827C238.471 56.503 241.42 66.5026 235.604 64.4088C233.408 63.6183 231.02 60.9228 229.273 59.5208C223.792 55.1245 217.991 51.3762 212.28 47.3009C207.137 43.6303 202.177 39.5573 196.596 36.5627C191.412 33.7807 186.088 31.257 181.028 28.2493C176.943 25.821 173.06 23.2203 169.212 20.4362C167.11 18.9151 165.265 16.9764 163.054 15.6252C162.117 15.0524 160.79 14.7421 159.782 15.4135C158.896 16.0042 161.914 15.4799 162.977 15.4135C164.275 15.3323 165.431 14.7399 166.749 14.7399C169.954 14.7399 164.379 15.4339 163.362 15.7791C158.784 17.3322 154.641 19.8072 150.353 16.2987C149.056 15.2373 146.655 15.0908 145.08 14.8169C143.701 14.577 137.968 15.5647 137.382 14.3936" stroke="black" stroke-width="18.9995" stroke-linecap="round"/>
<path d="M68.7981 49.378C68.7981 49.3894 68.7981 47.8149 68.7981 47.4343C68.7981 45.1291 69.6961 43.6748 70.9534 41.7573C74.5984 36.1988 80.3007 31.7953 86.0985 28.6329C90.8475 26.0425 95.8994 24.1847 100.705 21.782C103.631 20.319 106.55 18.9396 109.518 17.5483C111.632 16.5574 113.553 15.4326 115.908 15.162C119.099 14.7952 122.402 13.7547 125.607 13.6995C129.692 13.6291 135.281 12.9213 138.923 15.239C139.889 15.8537 139.528 16.7203 138.615 17.1634C134.997 18.9208 131.288 20.4758 127.646 22.1861C118.228 26.6099 107.911 29.0501 98.6456 33.7903C93.1211 36.6168 87.0373 40.2538 83.8469 45.8371C83.5781 46.3076 82.8294 47.89 83.8277 47.9731C88.0476 48.3248 92.5106 46.1098 96.5673 45.2405C103.112 43.8381 109.774 43.2208 116.177 41.18C125.454 38.2231 134.219 33.9024 143.465 30.9037C148.056 29.4146 152.49 28.5944 157.301 28.5944C159.973 28.5944 163.236 28.1082 165.827 28.9408C167.652 29.5275 165.751 30.4519 164.941 30.692C160.297 32.0681 155.491 32.0393 150.72 32.6356C132.342 34.9329 113.601 37.5161 95.7398 42.5271C91.9353 43.5944 88.0834 44.8322 84.4627 46.4336C84.2939 46.5083 81.5082 47.8372 82.5383 48.4927C86.2409 50.8489 90.2667 52.955 93.8731 55.5938C96.2888 57.3613 98.958 59.551 101.782 60.5395C109.011 63.0694 115.998 64.9656 123.721 64.9656C131.169 64.9656 138.586 64.5946 145.774 62.5409C148.451 61.776 151.043 60.9989 153.703 60.2508C156.742 59.396 159.222 57.7602 161.978 56.3058C163.304 55.6058 164.443 55.6051 162.671 56.9216C161.191 58.0209 158.595 58.9749 156.801 59.4234C155.778 59.6791 155.036 60.8089 154.011 60.8089C152.841 60.8089 151.378 61.0601 150.354 60.4048C148.791 59.4044 147.609 57.8808 146.005 56.9216C141.845 54.4334 136.696 53.3596 131.938 52.8804C123.685 52.0492 114.684 52.0652 106.593 54.1505C106.524 54.1684 104.257 54.6755 104.958 54.5354C106.642 54.1986 108.255 53.5225 109.923 53.1113C115.841 51.6521 121.945 50.7355 128.012 50.1862C137.558 49.3219 147.145 50.0474 156.705 49.6474C158.94 49.5538 163.478 49.7644 164.749 47.646" stroke="black" stroke-width="18.9995" stroke-linecap="round"/>
<path d="M129.417 49.0327C129.601 52.3521 134.816 55.151 137.307 56.6534C139.148 57.7638 142.171 59.729 143.273 61.6568C143.912 62.7763 146.042 63.6624 146.371 64.8128C146.566 65.4957 147.118 67.2529 147.429 66.006" stroke="black" stroke-width="18.9995" stroke-linecap="round"/>
<path d="M15.1053 79.8599C15.1053 81.13 15.1053 82.4001 15.1053 83.6702C15.1053 85.4509 14.9547 85.3111 15.1245 83.6125C15.6211 78.6465 17.481 74.1671 18.5692 69.3911C19.6568 64.6176 20.9493 60.2979 22.5335 55.6509C25.9845 45.5278 32.6553 37.1311 41.2002 30.8261C49.1146 24.9863 57.0847 21.3565 66.7948 19.626C72.4962 18.61 78.2443 17.8844 84.0375 17.8556C86.1554 17.845 90.4979 16.9666 92.3509 18.202" stroke="black" stroke-width="18.9995" stroke-linecap="round"/>
<path d="M14.4126 71.8929C14.4126 67.9555 14.5719 64.5229 15.4518 60.6737C16.4034 56.5103 18.6602 53.4133 21.071 49.9932C26.2193 42.6899 31.7905 36.4817 38.8718 30.9993C43.1837 27.6611 47.0579 24.5135 52.0924 22.4357C57.8569 20.0568 63.5735 19.934 69.797 19.934C78.9862 19.934 88.1809 19.0066 97.316 18.279C97.8843 18.2338 105.44 17.8863 101.896 16.8165C97.4986 15.4889 91.9191 16.6468 87.4053 16.7972C80.3559 17.0322 72.7218 17.1961 65.8327 18.8948C60.7556 20.1467 56.7439 21.6015 52.2079 24.2639C46.8213 27.4256 41.7232 30.8884 36.8127 34.7712C35.2518 36.0053 33.5816 37.1694 32.1556 38.5622C31.7976 38.912 29.4478 41.2496 30.6931 39.6014C32.3759 37.3741 33.5411 33.8337 36.0429 32.4041C36.6701 32.0458 38.6401 32.1935 39.5068 30.9416C39.9237 30.3395 41.9058 28.4847 40.7385 27.901" stroke="black" stroke-width="18.9995" stroke-linecap="round"/>
<path d="M25.4981 63.2339C25.4981 66.8409 25.5916 69.7688 24.2857 73.1061C23.1948 75.8939 21.7631 78.2073 19.6864 80.2841C18.6793 81.2911 17.2322 82.7433 16.4726 83.8827C16.0388 84.5335 15.1091 84.9843 14.7599 85.5955C14.3557 86.3028 13.9894 87.1708 13.7207 86.0958" stroke="black" stroke-width="18.9995" stroke-linecap="round"/>
<path d="M13.7205 85.7496C18.1594 85.7496 22.5984 85.7496 27.0373 85.7496C31.5029 85.7496 35.69 84.4633 40.0463 83.6713C43.0456 83.126 45.783 81.7464 48.7061 80.9771C51.9683 80.1187 55.2632 79.0684 58.3859 77.7826C65.4158 74.8879 70.8533 69.9618 76.5715 65.1585C79.9696 62.3041 82.8171 58.913 85.9434 55.7867C86.4685 55.2616 86.0576 55.48 85.6932 55.8444C84.6956 56.842 83.7412 57.954 82.8643 59.0582C80.895 61.5381 79.7525 64.4727 78.4189 67.3139C76.2791 71.8725 73.5385 74.5518 68.8162 76.2046C67.9505 76.5076 66.7648 77.0898 65.8526 77.0898C65.0484 77.0898 64.7274 74.8559 64.5632 74.2417C63.3606 69.7429 63.3975 64.8118 63.2931 60.1936C63.181 55.2313 63.6785 50.6595 65.0251 45.876C65.675 43.5673 69.6483 36.0283 65.6024 35.0608C61.1708 34.0011 59.6152 36.4441 57.2697 39.7949C50.2086 49.8822 42.7125 59.9486 37.3521 71.0857C35.608 74.7094 33.5764 79.045 33.4648 83.1709C33.3596 87.0633 33.3165 75.3771 33.5418 71.4898C34.0304 63.0613 36.8366 55.0601 41.2202 47.8966C41.6832 47.14 45.0237 42.5145 43.5102 41.7578" stroke="black" stroke-width="18.9995" stroke-linecap="round"/>
<path d="M18.6545 264.882C19.085 267.608 22.4668 270.862 24.2952 272.691C28.2722 276.668 32.3413 281.022 36.8327 284.391" stroke="black" stroke-width="18.9995" stroke-linecap="round"/>
<path d="M17.7374 270.891C17.7374 268.652 15.971 266.378 14.7476 264.626C13.9017 263.415 12.5897 261.562 12.5897 260.024C12.5897 258.914 12.2292 258.081 11.7058 257.086C11.2048 256.134 14.1189 256.604 14.7996 256.748C19.7045 257.789 24.5562 257.87 29.5665 258.009C34.1915 258.138 38.5919 258.462 43.1636 259.192C48.4988 260.044 53.7635 262.713 58.5025 265.198C64.6109 268.401 69.9235 272.544 74.2834 277.885C78.7028 283.299 82.668 289.055 86.0606 295.174C86.3655 295.724 89.7564 300.814 88.8164 301.179C87.4255 301.72 86.0407 300.904 85.0337 300.022C78.3561 294.18 71.7379 288.562 64.5341 283.345C59.6258 279.79 54.776 276.076 49.6631 272.815C47.7333 271.584 45.8654 271.012 43.6836 270.41C38.8775 269.085 33.8939 268.273 29.0206 267.2C26.9995 266.754 22.74 265.421 21.0001 267.161C18.7474 269.413 17.6529 273.785 16.8014 276.741C16.1953 278.846 15.8827 280.972 15.8655 283.163C15.8483 285.349 15.5811 287.8 16.3335 289.896C16.3498 289.942 17.1817 291.515 17.2564 290.806C17.5821 287.712 16.8969 284.208 16.2035 281.213C15.4823 278.097 14.7289 275.005 14.1106 271.866C14.0154 271.383 13.5452 268.594 12.8237 268.552C10.4532 268.412 14.3302 276.561 14.5136 276.936C19.239 286.608 23.8688 295.98 31.3344 303.857C34.5099 307.208 38.4449 309.536 42.3836 311.839C43.3233 312.388 43.381 313.011 42.1497 312.333C36.6699 309.313 31.8962 304.953 26.7197 301.465C23.7786 299.484 20.6155 297.582 17.3344 296.201C16.4001 295.807 15.9598 295.626 16.9574 296.318C19.48 298.067 21.4636 300.268 23.275 302.739C26.0497 306.525 29.0271 310.007 32.2833 313.386C38.1015 319.422 45.9238 323.056 54.2908 323.85C58.2101 324.221 62.2763 324.085 66.211 323.993C66.8044 323.979 69.9159 324.221 70.0977 323.07C70.1503 322.737 68.5597 322.573 68.4598 322.55C66.6681 322.129 65.0554 321.34 63.4682 320.418C55.3806 315.719 47.9287 309.968 39.9268 305.118C35.3672 302.355 30.7459 299.667 26.0958 297.059C23.3674 295.528 20.9453 293.581 18.2573 292.002C17.7197 291.686 17.246 291.375 16.8534 290.884C16.7392 290.741 16.6967 290.287 16.5674 290.416C16.372 290.611 16.3405 291.917 16.0865 292.314C14.5383 294.733 15.1857 296.03 17.6854 297.046C19.5918 297.82 22.0068 297.891 24.0289 297.982C30.152 298.254 36.3111 297.686 42.3966 298.645C46.3335 299.265 50.0095 300.824 53.4199 302.856C55.8548 304.307 58.2684 306.372 61.0243 307.159" stroke="black" stroke-width="18.9995" stroke-linecap="round"/>
<path d="M61.0239 307.16C62.8795 307.206 64.5698 307.668 66.3016 308.33C70.4575 309.917 74.5769 311.628 78.7937 313.048C84.4876 314.967 90.7806 316.519 96.8234 316.519" stroke="black" stroke-width="18.9995" stroke-linecap="round"/>
<path d="M67.5751 316.051C66.811 316.242 67.3412 324.389 67.3412 325.969C67.3412 328.099 75.0068 329.001 76.6615 329.128C81.0063 329.462 85.5704 329.7 89.9076 329.154C93.7124 328.675 97.4537 327.814 101.165 326.866C104.436 326.03 107.632 324.709 111.018 324.422C114.333 324.141 116.758 324.728 119.585 326.567C122.296 328.331 124.853 330.42 128.125 331C132.283 331.737 137.283 331.624 141.371 330.558C142.244 330.33 145.315 329.204 142.593 329.414C139.541 329.649 136.57 330.536 133.507 330.792C128.578 331.202 123.603 331.026 118.662 331.026C114.961 331.026 111.452 330.922 107.794 330.324C106.547 330.12 105.481 330.354 105.481 328.92" stroke="black" stroke-width="18.9995" stroke-linecap="round"/>
<path d="M127.942 331.493C131.374 331.493 134.806 331.493 138.238 331.493C144.032 331.493 149.009 330.276 154.396 328.217C159.576 326.236 164.814 324.34 169.605 321.509C172.941 319.538 176.165 317.323 179.419 315.218C180.017 314.831 181.845 313.998 181.135 313.944C179.646 313.829 178.27 313.832 176.832 313.307C173.754 312.184 170.989 310.025 168.188 308.38C162.885 305.266 157.776 302.081 151.939 300.048C141.602 296.447 130.925 296.575 120.117 297.396C111.692 298.036 102.558 298.929 94.5088 301.881C93.5097 302.247 90.739 302.843 90.739 301.075C90.739 298.817 92.8747 296.542 94.2488 294.939C95.4064 293.589 96.7341 292.579 98.1225 291.468C100.883 289.26 103.557 287.007 106.611 285.203C111.742 282.171 117.764 281.07 123.666 280.965C132.058 280.817 140.317 281.408 148.585 282.876C155.613 284.124 163.44 286.439 169.358 290.545C174.165 293.882 178.338 298.26 182.305 302.544C182.405 302.652 183.52 304.09 182.578 304.09C182.219 304.09 182.929 301.138 182.929 300.841" stroke="black" stroke-width="18.9995" stroke-linecap="round"/>
<path d="M168.189 322.368C167.868 322.368 168.65 322.467 168.761 322.524C169.87 323.088 170.863 323.946 171.881 324.655C173.905 326.066 176.183 326.838 178.458 327.723C180 328.323 181.784 328.648 183.411 328.919C185.073 329.196 186.722 329.153 188.403 329.153C188.551 329.153 189.868 329.303 188.988 329.621C186.609 330.481 183.021 329.875 180.538 329.673C177.299 329.41 174.096 328.919 170.841 328.919C168.98 328.919 174.496 328.155 176.352 328.035C180.973 327.738 185.67 327.983 190.301 327.983C193.45 327.983 196.633 328.152 199.751 327.632C201.571 327.329 207.027 326.495 205.184 326.579C201.222 326.759 197.649 327.103 193.641 326.579C190.302 326.143 186.967 325.654 183.606 325.409C180.38 325.174 177.146 325.279 173.922 325.058C171.771 324.911 169.027 324.521 166.915 325.188C165.637 325.592 165.546 326.447 166.889 326.631C169.751 327.023 172.441 327.79 175.209 328.568C176.09 328.816 177.698 329.139 178.432 329.673C178.667 329.844 178.726 329.863 179.056 329.855C181.35 329.8 183.648 329.279 185.894 328.867C191.215 327.89 196.569 327.216 201.844 326.007C208.26 324.537 213.612 321.126 219.146 317.74C227.134 312.851 231.108 305.188 234.796 296.837C235.565 295.098 236.342 292.966 237.526 291.443C238.699 289.934 235.599 294.757 234.874 296.525C233.119 300.809 231.678 305.237 229.155 309.16C226.722 312.944 223.247 316.101 219.73 318.858C216.789 321.164 213.689 323.271 210.514 325.24C209.156 326.083 207.65 326.918 206.419 327.944C205.657 328.58 207.105 328.474 207.433 328.373C209.321 327.792 210.856 325.906 212.412 324.759C219.705 319.385 228.773 315.013 233.666 307.016C235.12 304.638 235.791 301.864 236.525 299.203C238.107 293.471 238.911 287.515 239.866 281.654C240.264 279.214 240.49 276.867 240.49 274.401C240.49 274.146 240.4 271.809 240.542 273.101C241.724 283.883 239.676 294.521 234.653 304.104C233.027 307.208 231.166 310.381 228.596 312.813C228.5 312.904 226.12 315.005 226.269 315.062C227.03 315.355 228.987 312.87 229.363 312.436C231.82 309.595 233.789 306.359 235.706 303.142C239.561 296.673 243.005 290.298 243.883 282.746C244.015 281.607 244.907 279.427 243.038 280.796C239.606 283.311 236.463 286.264 233.107 288.882C225.268 294.997 217.144 300.736 208.98 306.405C204.284 309.666 199.568 313.754 194.317 316.141C194.016 316.278 192.539 311.299 192.484 311.136C191.165 307.216 190.068 303.224 188.741 299.307C187.664 296.131 186.547 292.159 184.152 289.662C183.24 288.711 182.93 288.586 182.93 287.257C182.93 285.394 184.43 283.089 185.452 281.602C187.532 278.577 190.612 277.128 193.719 275.181C198.217 272.362 202.883 269.858 207.628 267.485C210.807 265.896 214.15 264.577 217.261 262.858C218.531 262.156 218.854 261.946 217.157 261.532C214.034 260.77 212.243 262.977 209.838 264.574C205.196 267.654 200.568 270.817 195.799 273.699C190.435 276.94 185.298 280.223 180.837 284.683C179.52 286 178.203 287.318 176.885 288.635C176.054 289.466 175.699 290.178 176.82 288.83C178.7 286.57 180.231 284.061 182.046 281.758C183.318 280.145 184.847 278.793 186.375 277.43C189.541 274.604 192.727 271.779 196.059 269.149C203.26 263.466 211.887 259 221.03 257.593C225.362 256.927 238.449 255.837 234.146 256.67C231.703 257.143 229.359 258.349 227.335 259.764C217.776 266.447 209.365 275.278 201.415 283.734C195.186 290.359 188.86 297.16 183.372 304.429C183.165 304.703 179.846 309.288 180.759 309.186C183.855 308.843 186.766 306.425 189.248 304.793C198.733 298.552 208.313 292.465 217.612 285.944C228.727 278.149 237.66 268.66 243.714 256.488C244.017 255.879 245.638 250.607 245.638 253.524C245.638 258.352 246.244 263.078 245.924 267.927C245.894 268.38 245.717 271.886 246.86 271.723C248.01 271.559 248.46 268.635 248.627 267.875C249.541 263.735 250.248 259.553 251.006 255.383C251.273 253.917 251.479 252.114 252.072 250.73C252.135 250.583 252.764 250.036 252.371 250.457C251.229 251.681 250.494 253.166 249.979 254.746C248.531 259.19 247.592 263.795 246.808 268.395C246.452 270.481 245.96 272.526 245.534 274.596C245.434 275.078 245.327 275.647 245.417 276.143C245.529 276.761 246.358 278.978 247.146 278.847C248.58 278.608 248.909 275.324 249.095 274.323C250.435 267.145 251.904 260.003 253.294 252.835C254.101 248.674 254.997 244.487 254.997 240.239" stroke="black" stroke-width="18.9995" stroke-linecap="round"/>
<path d="M245.401 243.75C245.867 244.158 245.635 242.233 245.635 242.086C245.635 239.452 245.635 236.817 245.635 234.183C245.635 228.547 245.068 223.435 243.581 217.986C242.96 215.708 242.519 213.396 241.553 211.226C239.571 206.772 237.061 202.4 234.313 198.383C231.752 194.64 228.764 191.079 225.773 187.672C225.455 187.31 221.814 183.643 221.847 183.629C223.968 182.72 225.829 183.957 227.67 184.786C229.91 185.794 232.017 186.75 233.728 188.569C236.833 191.868 238.667 196.632 240.487 200.697C242.758 205.768 244.643 210.993 247.039 216.01C247.819 217.644 248.911 219.597 248.911 221.47C248.911 221.656 248.959 222.133 248.625 221.886C248.281 221.631 248.036 221.197 247.819 220.846C246.752 219.116 245.709 217.376 244.621 215.659C239.539 207.638 234.552 199.554 229.49 191.52C227.674 188.638 225.516 185.835 224.226 182.68C223.817 181.683 223.655 181.166 224.629 180.574C224.893 180.414 226.669 180.176 226.63 180.223C226.305 180.63 225.323 180.754 224.863 181.276C224.212 182.014 223.482 182.764 222.692 183.356C221.629 184.153 219.8 184.042 218.558 184.071C215.11 184.152 211.665 184.056 208.224 183.85C204.243 183.613 200.262 183.551 196.291 183.148C191.315 182.644 186.383 181.917 181.394 181.523C179.182 181.349 176.993 181.276 174.777 181.276C173.135 181.276 172.332 182.076 171.28 183.278C169.736 185.044 169.682 187.246 169.85 189.518C170.008 191.644 170.791 193.723 171.488 195.718C172.776 199.404 174.036 203.129 175.674 206.677C178.704 213.242 183.548 219.693 189.544 223.835C195.987 228.287 204.187 230.438 211.837 231.531C214.705 231.941 217.96 231.882 220.69 232.974C220.818 233.025 220.414 232.936 220.287 232.883C218.861 232.281 217.635 231.136 216.53 230.101C210.867 224.797 206.594 217.988 202.062 211.746C199.296 207.936 196.876 203.719 193.795 200.151C193.459 199.762 192.59 198.483 191.923 198.604C190.011 198.952 192.885 201.625 193.145 201.893C196.218 205.052 198.656 208.652 200.944 212.396C201.732 213.685 202.706 214.571 203.908 215.477C206.657 217.55 209.18 220.068 211.655 222.458C214.769 225.462 216.55 229.657 219.78 232.493C221.492 233.996 223.395 234.877 225.461 235.743C227.094 236.428 228.106 237.445 229.49 238.368" stroke="black" stroke-width="18.9995" stroke-linecap="round"/>
</g>
<defs>
<clipPath id="clip0_205_6193">
<rect width="264.959" height="352.888" fill="white" transform="translate(0.561523 0.131836)"/>
</clipPath>
</defs>
</svg>
