<svg width="263" height="355" viewBox="0 0 263 355" fill="none" xmlns="http://www.w3.org/2000/svg">
<g style="mix-blend-mode:darken" clip-path="url(#clip0_205_6259)">
<rect width="262.614" height="354.06" transform="translate(0.138672 0.891602)" fill="white"/>
<path d="M92.0147 271.349C77.6511 252.282 40.8682 225.823 7.95226 272.535" stroke="black" stroke-width="5.19115"/>
<path d="M91.965 269.408C78.1318 287.752 42.0946 313.668 7.91833 270.594" stroke="black" stroke-width="5.19115"/>
<path d="M173.134 271.765C158.77 252.697 121.988 226.238 89.0716 272.95" stroke="black" stroke-width="5.19115"/>
<path d="M173.09 269.823C159.257 288.166 123.219 314.082 89.0431 271.008" stroke="black" stroke-width="5.19115"/>
<path d="M252.735 275.323C238.372 256.256 201.589 229.797 168.673 276.509" stroke="black" stroke-width="5.19115"/>
<path d="M252.691 273.381C238.857 291.724 202.82 317.64 168.644 274.566" stroke="black" stroke-width="5.19115"/>
<path d="M40.6758 346.434C53.3664 326.215 64.9668 282.414 9.58702 268.323" stroke="black" stroke-width="5.19115"/>
<path d="M42.4793 345.698C20.4085 339.317 -16.656 314.892 11.3962 267.601" stroke="black" stroke-width="5.19115"/>
<path d="M253.175 274.104C229.341 275.447 186.901 291.32 207.44 344.646" stroke="black" stroke-width="5.19115"/>
<path d="M251.539 273.063C259.1 294.758 260.616 339.12 205.813 343.592" stroke="black" stroke-width="5.19115"/>
<path d="M87.1547 36.6869C102.112 11.1069 140.499 -24.6603 175.116 36.9135" stroke="black" stroke-width="5.19115"/>
<path d="M87.1959 34.1079C101.739 58.2728 139.544 92.1488 175.141 34.3346" stroke="black" stroke-width="5.19115"/>
<path d="M73.2125 149.744C57.1012 126.147 41.1513 74.434 106.516 55.5817" stroke="black" stroke-width="5.19115"/>
<path d="M71.0321 148.939C97.0454 140.515 140.069 110.047 104.33 54.7947" stroke="black" stroke-width="5.19115"/>
<path d="M65.2101 250.053C43.6621 231.289 15.1701 185.28 73.6558 150.532" stroke="black" stroke-width="5.19115"/>
<path d="M62.9033 249.824C85.9461 235.103 119.881 194.758 71.3475 150.322" stroke="black" stroke-width="5.19115"/>
<path d="M193.761 150.055C166.552 141.334 122.198 110.329 162.192 55.2977" stroke="black" stroke-width="5.19115"/>
<path d="M191.548 150.756C206.898 128.127 222.128 77.6559 159.985 56.0159" stroke="black" stroke-width="5.19115"/>
<path d="M201.878 250.16C177.338 235.526 141.121 195.315 192.498 150.723" stroke="black" stroke-width="5.19115"/>
<path d="M199.569 250.346C219.628 231.764 245.85 186.029 190.19 150.928" stroke="black" stroke-width="5.19115"/>
<path d="M28.8674 274.908C26.8006 274.72 23.7356 273.749 23.7356 276.743C23.7356 277.313 23.5052 280.572 22.4713 278.986C21.9934 278.254 21.3623 277.287 20.612 276.805C20.3812 276.656 20.0579 276.37 19.9426 276.111C19.4443 274.989 18.6547 274.391 20.2649 275.181C22.6791 276.365 25.1208 277.497 27.5287 278.701C31.5065 280.69 35.816 282.407 40.1722 283.387C43.6647 284.173 47.5337 284.056 51.0927 284.056C55.2072 284.056 59.338 282.998 63.3271 282.048C65.3699 281.562 67.364 280.922 69.3018 280.114C71.9763 279 73.7298 277.691 75.4996 275.478C77.6982 272.73 77.3172 269.189 74.2105 267.273C71.0072 265.296 67.9318 264.235 64.2072 263.529C58.6559 262.477 52.3896 261.472 46.7171 262.339C42.5172 262.981 39.1882 266.494 37.5691 270.272C37.1428 271.267 36.6162 273.188 37.9286 273.743C39.2361 274.296 40.9329 274.202 42.3166 274.226C44.458 274.264 46.5975 274.223 48.7127 273.855C51.4578 273.376 58.5876 272.268 58.7656 268.264C58.8889 265.489 52.0733 264.265 50.0143 263.579C42.4974 261.073 33.3444 259.859 26.5123 264.595C24.2211 266.183 22.1441 267.798 20.1657 269.776C19.6052 270.337 19.1002 271.039 18.5047 271.549C18.4322 271.611 19.9502 270.532 20.3145 270.21C23.0028 267.835 25.7223 265.486 28.6939 263.479C30.6968 262.127 32.8554 261.04 34.9413 259.823C37.0329 258.603 39.1306 257.429 41.4613 256.736C42.7303 256.359 44.01 256.204 45.3288 256.166C47.6698 256.099 50.0009 255.672 52.3447 255.546C54.2003 255.447 56.2445 255.312 58.0962 255.546C60.1708 255.808 62.1942 257.038 64.0709 257.901C66.1994 258.881 68.2967 260.04 70.1323 261.509C70.8091 262.05 71.3194 262.696 71.9297 263.306C72.6061 263.982 73.4667 264.421 74.1361 265.091C75.458 266.413 76.7574 267.832 77.9539 269.281C78.3901 269.809 78.8238 270.397 79.2926 270.892C79.4295 271.036 79.7389 271.562 79.7389 271.338" stroke="black" stroke-width="18.9995" stroke-linecap="round"/>
<path d="M20.3885 277.809C20.3885 278.486 20.4127 279.125 20.1654 279.768C19.0404 282.693 18.0829 285.596 17.2772 288.631C15.4614 295.47 15.7677 301.923 16.1492 308.885C16.272 311.126 16.8185 313.344 16.8185 315.591C16.8185 317.081 16.379 312.642 16.0996 311.178C14.9064 304.927 13.6809 298.712 13.9552 292.312C14.1235 288.385 15.1771 284.431 15.9756 280.586C16.0394 280.279 17.758 274.369 15.8145 275.715C14.8195 276.403 14.4716 278.081 14.1411 279.148C12.9028 283.146 12.5271 287.606 11.7983 291.717C10.9905 296.274 10.3916 301.032 10.8935 305.675C11.1905 308.422 12.8251 311.31 14.4758 313.484C16.1877 315.739 18.2947 318.64 21.3801 318.64C22.562 318.64 23.7467 318.803 24.6526 317.897C27.9947 314.555 29.8353 308.839 31.0735 304.435C32.4688 299.472 33.1344 293.634 31.3214 288.705C31.2247 288.442 29.2704 284.472 29.1398 285.197C28.9417 286.297 29.2574 287.653 29.462 288.717C29.9485 291.247 30.6688 293.727 31.1726 296.254C32.0525 300.667 32.6058 305.159 33.5526 309.554C33.6824 310.157 33.8518 312.088 34.6186 312.343C35.9545 312.789 37.2317 311.749 38.0026 310.794C39.6919 308.703 40.6696 306.303 41.0023 303.642C41.3698 300.702 42.0284 296.558 40.0231 294.023C39.9135 293.884 38.5372 292.498 38.3497 292.573C37.9572 292.729 38.2381 295.712 38.2381 295.932C38.2381 303.324 39.3383 312.226 35.164 318.814C34.8188 319.359 30.9181 324.304 30.4289 323.326" stroke="black" stroke-width="18.9995" stroke-linecap="round"/>
<path d="M17.4895 311.277C17.4895 313.447 18.9035 314.957 20.2165 316.632C21.3163 318.035 23.0359 319.66 24.5178 320.648C25.7546 321.473 26.2158 322.433 27.0837 323.549C28.0745 324.823 28.1421 326.615 29.3149 327.788C29.4206 327.894 29.7415 328.181 29.8851 328.222C30.0594 328.272 28.551 327.383 28.2489 327.119C26.438 325.537 25.1014 323.759 23.5262 321.987C22.0439 320.32 24.5756 321.829 25.1996 322.235C26.3601 322.991 27.587 323.66 28.6951 324.491C29.8261 325.339 31.1892 325.87 32.265 326.772C33.4512 327.767 35.7854 329.695 35.7854 331.47C35.7854 331.985 36.115 334.491 36.6779 334.209C37.6337 333.731 37.8595 332.317 38.0662 331.408C38.7112 328.57 39.7025 325.722 40.4709 322.904C41.1187 320.529 42.0789 317.775 42.2435 315.306C42.3029 314.414 42.0328 313.659 42.0328 312.839" stroke="black" stroke-width="18.9995" stroke-linecap="round"/>
<path d="M70.1461 194.585C70.1461 198.955 70.2072 203.33 70.1337 207.699C70.1012 209.632 70.0118 211.589 69.8114 213.513C69.7512 214.091 69.8341 214.893 69.5883 215.434C69.4857 215.66 69.4768 215.833 69.4768 216.079C69.4768 217.074 69.3536 214.088 69.2041 213.104C68.435 208.04 66.6963 203.116 65.7705 198.068C65.0338 194.051 64.6388 190.014 64.5805 185.932C64.5454 183.477 64.5563 181.015 65.0143 178.594C65.3672 176.729 66.0414 174.924 66.3035 173.041C66.4283 172.145 66.3605 171.592 66.8985 170.884C67.2358 170.44 67.7004 170.238 67.9645 169.719C68.3913 168.881 68.5656 167.977 68.857 167.091C69.1675 166.148 69.4792 165.185 70.0965 164.414C70.2789 164.186 70.1461 163.561 70.1461 164.352C70.1461 165.459 70.3009 166.356 70.9518 167.289C72.5535 169.588 73.8645 172.16 75.2531 174.59C76.7482 177.207 78.4192 179.931 79.6163 182.697C80.9439 185.764 81.5498 189.292 81.5253 192.626C81.4915 197.215 79.1933 201.842 77.286 205.914C75.1583 210.456 73.126 215.343 69.6999 219.078C68.7589 220.104 67.1811 222.254 65.6837 222.648C64.3688 222.994 61.3462 212.399 61.1221 211.628C58.4007 202.271 57.8297 192.635 59.8578 183.119C60.5802 179.729 61.6675 176.229 61.6675 172.731C61.6675 171.926 62.029 170.722 61.2089 170.364C60.6186 170.105 59.8792 169.677 59.2132 169.868C57.7197 170.294 57.0502 173.348 56.2631 174.504C54.0944 177.687 52.4059 180.752 51.28 184.47C50.105 188.35 49.8666 192.329 49.8422 196.37C49.818 200.356 49.9486 203.98 50.9578 207.848C51.7952 211.058 52.5666 214.271 53.6352 217.417C54.8481 220.989 56.5131 224.409 59.0025 227.272C60.5365 229.036 63.0256 230.113 64.345 232.019C65.0998 233.109 65.0143 234.091 65.0143 235.416" stroke="black" stroke-width="18.9995" stroke-linecap="round"/>
<path d="M65.4604 224.26C65.4604 226.177 65.4604 228.094 65.4604 230.011C65.4604 230.934 65.5658 231.888 65.1877 232.738C64.7785 233.659 63.8818 234.505 63.2788 235.317C62.7613 236.013 62.5598 237.831 62.5598 236.308" stroke="black" stroke-width="18.9995" stroke-linecap="round"/>
<path d="M62.7834 237.647C63.76 237.381 64.7327 235.945 65.4733 235.305C67.2225 233.791 68.841 232.138 70.5927 230.631C72.8974 228.649 75.2975 226.816 76.964 224.235C80.111 219.362 80.9817 213.172 82.8147 207.749C84.8234 201.807 83.6677 195.255 81.9718 189.441C81.173 186.702 80.5484 183.904 79.2944 181.322C78.3074 179.29 77.4373 177.32 76.6169 175.223C76.2373 174.253 75.7244 173.222 75.7244 172.161C75.7244 172.05 75.187 170.553 75.836 171.058C76.657 171.697 77.1088 172.81 77.559 173.711C78.441 175.475 79.6186 176.987 80.5835 178.694C83.1943 183.313 83.8083 188.518 84.327 193.705C84.7504 197.94 84.8724 202.133 84.8724 206.386C84.8724 208.585 84.8829 210.395 84.203 212.435" stroke="black" stroke-width="18.9995" stroke-linecap="round"/>
<path d="M89.3335 86.8174C89.3335 94.0517 87.0512 101.304 85.7636 108.386C85.1294 111.874 84.7881 115.264 84.3753 118.773C84.2868 119.526 84.2035 121.669 83.52 122.182C82.4027 123.02 81.8059 120.493 81.4747 119.74C79.2778 114.744 78.035 110.049 77.9668 104.556C77.9326 101.804 77.9162 99.0803 78.6733 96.4116C79.2874 94.2473 80.367 92.3149 81.2516 90.2634C81.3795 89.9668 83.0711 86.5451 82.3796 86.6315C80.3099 86.8902 78.2968 89.3067 76.9875 90.6848C71.2665 96.707 66.7983 104.447 66.7983 112.873C66.7983 114.373 66.7983 115.873 66.7983 117.373C66.7983 118.189 67.4581 118.895 67.8644 119.567C69.6291 122.485 72.3764 124.581 72.3764 128.318" stroke="black" stroke-width="18.9995" stroke-linecap="round"/>
<path d="M77.0629 103.552C77.0629 101.369 77.6086 98.447 76.4431 96.4613C76.1824 96.0172 75.1841 95.3583 75.0672 94.949C74.7852 93.962 74.5685 93.748 73.8152 92.8913C73.3583 92.3718 72.3255 91.8835 72.1666 91.1684C71.9107 90.0167 75.1768 88.4677 75.8605 87.5736C77.4653 85.4751 79.1846 83.7785 81.0418 81.9213C82.9585 80.0045 85.0042 78.6129 87.3264 77.1737C90.3724 75.2861 93.172 73.1661 96.3008 71.4222C97.2829 70.8748 98.1011 70.3728 98.9287 69.6372C99.3477 69.2648 99.6451 69.1509 99.9327 68.6332C100.149 68.2436 99.9203 67.7964 100.094 67.406C100.318 66.9009 100.289 66.6493 100.267 67.406C100.22 69.066 99.6389 70.3094 100.069 72.0916C101.53 78.1441 103.657 83.9317 104.383 90.1519C104.885 94.4547 105.111 99.5325 102.263 103.093C101.037 104.625 102.28 103.857 103.044 102.907C105.046 100.419 105.639 97.694 106.18 94.6143C106.915 90.4319 108.283 85.2368 106.069 81.3139C105.48 80.2705 104.564 79.5243 103.961 78.5373C103.459 77.7161 103.356 76.5565 102.945 75.6615C102.214 74.0705 102.525 72.3222 102.003 70.7032C101.698 69.7584 100.714 68.5573 100.714 67.6291" stroke="black" stroke-width="18.9995" stroke-linecap="round"/>
<path d="M94.4651 85.4785C94.4651 86.8595 94.7225 88.2432 94.9114 89.6062C95.6496 94.9317 96.1326 100.294 96.2253 105.671C96.282 108.959 96.4604 112.01 95.1345 115.054C94.3037 116.962 93.0392 118.719 91.8373 120.409C90.3967 122.435 88.7887 124.291 87.4492 126.396C87.3967 126.479 86.5597 127.453 86.7055 127.599C87.0953 127.989 88.8436 127.453 89.1846 127.326C92.6272 126.044 95.1282 121.721 97.5021 119.17C100.503 115.945 104.437 113.136 105.844 108.757C106.739 105.975 107.27 103.111 108.088 100.316C108.306 99.5697 108.995 98.0142 108.522 97.3039" stroke="black" stroke-width="18.9995" stroke-linecap="round"/>
<path d="M89.3344 102.882C89.3344 109.539 89.4405 116.633 87.3139 123.013C86.3369 125.944 84.6482 128.316 82.6904 130.673C81.6348 131.944 80.0494 132.708 78.5007 133.177C77.7976 133.39 76.8685 134.214 76.3439 134.739C75.7969 135.286 75.2778 137.259 75.2778 135.681" stroke="black" stroke-width="18.9995" stroke-linecap="round"/>
<path d="M105.623 36.6153C105.623 36.8625 105.412 36.4043 105.288 36.2806C104.689 35.6812 104.029 35.2981 103.317 34.8427C102.992 34.6346 101.66 33.7599 101.21 34.2105C100.798 34.6226 101.172 36.051 101.631 36.2806C103.926 37.4281 106.305 38.5884 108.697 39.5158C110.198 40.098 111.551 40.9056 112.986 41.6231C115.396 42.8283 118.059 43.2525 120.708 43.6188C123.882 44.0578 127.093 43.9977 130.29 43.9782C134.746 43.9511 139.43 43.9418 143.677 42.4164C144.819 42.0063 146.382 41.5865 147.086 40.4951C148.197 38.7724 147.393 36.3009 145.958 35.0782C144.088 33.4857 141.396 32.9622 139.041 32.5991C133.036 31.6732 127.189 32.3124 121.365 33.9626C117.772 34.9806 114.093 36.2259 110.816 38.0532C110.316 38.3322 109.132 38.9519 108.982 39.6274C108.738 40.7264 104.026 37.5555 103.391 37.235C101.677 36.3689 99.9696 35.265 98.1605 34.6072C97.9205 34.5199 96.6146 34.2469 96.5243 34.1114C96.4632 34.0197 98.5683 32.6884 98.7059 32.5867C100.197 31.4845 101.643 30.0809 102.722 28.5705C104.804 25.6564 107.05 22.4163 109.837 20.1291C111.889 18.4457 114.025 16.9061 116.419 15.7535C116.995 15.4762 118.34 15.0424 118.34 14.3032" stroke="black" stroke-width="18.9995" stroke-linecap="round"/>
<path d="M110.753 29.2523C110.769 29.2829 111.622 28.2865 111.708 28.1987C112.833 27.0437 113.937 25.8746 115.005 24.6659C116.47 23.0083 118.112 21.3539 119.951 20.1043C121.083 19.335 122.327 18.5681 123.694 18.3194C125.561 17.98 127.375 16.8341 129.111 16.1254C129.978 15.7714 132.753 15.2425 132.842 14.0305C132.932 12.8239 130.529 12.9579 129.731 12.8529C128.859 12.7382 127.924 12.4663 127.041 12.5182C126.701 12.5383 126.336 13.3918 126.868 13.4107C130.438 13.5382 133.482 13.9497 136.561 15.9642C140.85 18.7703 144.235 22.6255 148.225 25.7939C149.295 26.6433 150.145 27.7545 151.312 28.4838C151.643 28.6911 150.769 27.5214 150.766 27.5169C149.38 25.4611 147.941 23.4376 146.502 21.4183C145.131 19.4943 143.523 17.429 141.494 16.1378C140.949 15.7904 140.192 15.3803 139.982 14.7494" stroke="black" stroke-width="18.9995" stroke-linecap="round"/>
<path d="M139.536 18.5435C143.128 19.1421 145.788 22.4108 148.238 24.7908C149.205 25.7308 150.343 26.638 151.411 27.4683C152.458 28.2824 154.066 29.3566 155.266 29.9102C155.388 29.9663 156.758 30.7999 156.791 30.7779C156.83 30.7519 155.575 29.3547 155.489 29.2532C154.781 28.4144 154.058 27.5996 153.394 26.7245C152.484 25.5246 151.521 24.3583 150.704 23.0926C150.414 22.6424 149.298 19.8288 148.733 19.7582C148.517 19.7312 149.006 20.0995 149.13 20.2788C149.411 20.6853 149.676 21.0878 150.023 21.444C151.671 23.138 153.327 24.8773 154.832 26.6997C156.787 29.0671 158.939 30.5665 159.951 33.6041C160.622 35.6149 160.542 37.3076 160.298 39.3804C160.232 39.9498 159.617 42.4882 159.617 40.6324" stroke="black" stroke-width="18.9995" stroke-linecap="round"/>
<path d="M154.486 35.0535C153.221 35.0535 157.014 35.0535 158.279 35.0535C159.006 35.0535 159.562 35.0093 160.113 35.4501C160.438 35.7099 161.28 35.5892 161.712 35.822C162.543 36.2692 162.069 35.4391 161.849 35.0535" stroke="black" stroke-width="18.9995" stroke-linecap="round"/>
<path d="M101.158 37.5078C101.158 39.5768 102.603 41.309 103.711 42.9495C105.427 45.4893 108.155 47.5977 110.405 49.6679C113.937 52.9174 119.331 53.869 123.829 55.0352C126.212 55.6529 128.621 56.2189 131.105 56.2499C135.009 56.2987 138.169 55.6657 141.79 54.1179C144.635 52.9019 147.892 51.598 149.848 49.0605C150.949 47.631 152.048 46.9326 152.252 45.0939" stroke="black" stroke-width="18.9995" stroke-linecap="round"/>
<path d="M180.145 126.088C180.145 126.36 180.145 125.142 180.145 124.984C180.145 123.352 179.26 121.736 178.682 120.249C176.46 114.536 173.745 108.587 173.129 102.424C172.489 96.0244 170.32 90.0049 168.815 83.8186C168.485 82.4641 167.832 81.2001 167.327 79.9016C166.846 78.6628 166.6 77.2735 166.212 75.9969C165.707 74.3376 165.291 72.479 165.195 70.7536C165.172 70.3335 164.838 69.6643 164.638 69.3033C164.508 69.0702 164.617 68.6845 164.415 68.5224C164.304 68.4344 164.228 68.0762 164.229 68.0762C165.339 68.0762 166.867 70.1276 167.427 70.9272C168.751 72.8189 170.539 73.9794 172.286 75.4391C174.498 77.288 176.807 78.97 178.88 80.98C182.879 84.8572 184.152 90.9757 185.462 96.1398C187.495 104.152 187.737 113.28 186.392 121.427C185.959 124.048 185.48 126.644 185.177 129.286C185.053 130.364 184.695 132.27 185.177 133.302C185.751 134.532 188.235 133.849 188.97 133.277C189.578 132.804 190.186 132.168 190.358 131.393C190.754 129.615 191.42 127.985 192.094 126.286C195.036 118.866 196.813 109.466 195.54 101.445C194.992 97.9936 194.335 95.0789 192.862 91.9005C191.716 89.4257 190.366 86.7191 188.45 84.7606C185.536 81.784 182.889 78.6667 178.917 77.1126C177.404 76.5205 175.846 75.89 174.244 75.6127C172.829 75.3678 171.196 75.3147 169.931 74.5467C167.569 73.1126 164.807 71.2898 163.088 69.0802C162.546 68.3836 162.91 68.4721 163.41 68.2497C164.7 67.6767 165.745 68.6924 166.832 69.3157C168.608 70.335 170.645 70.7216 172.236 72.0428C172.817 72.5246 173.169 73.1207 173.674 73.6542C173.811 73.7986 174.12 74.3238 174.12 74.1004" stroke="black" stroke-width="18.9995" stroke-linecap="round"/>
<path d="M162.964 73.877C162.899 74.5901 162.47 75.0349 162.059 75.5875C161.304 76.6043 160.624 77.7257 160.014 78.8352C158.54 81.5149 157.095 84.5411 156.667 87.5865C155.516 95.7804 156.434 104.602 159.072 112.402C161.478 119.516 166.343 126.838 173.228 130.326C175.032 131.241 176.996 131.677 178.806 132.558C182.463 134.337 185.34 136.722 188.623 139.251" stroke="black" stroke-width="18.9995" stroke-linecap="round"/>
<path d="M181.482 120.286C182.578 121.725 183.929 123.437 184.506 125.17C184.629 125.538 184.841 126.275 185.052 125.641" stroke="black" stroke-width="18.9995" stroke-linecap="round"/>
<path d="M198.238 222.003C198.163 215.724 196.788 209.562 196.031 203.345C195.364 197.861 194.845 192.384 194.486 186.873C194.39 185.388 194.382 184.066 193.945 182.62C193.537 181.272 192.672 180.089 192.199 178.758C191.165 175.843 191.738 172.161 191.738 169.108C191.738 167.87 191.627 166.677 191.557 165.487C191.554 165.428 191.24 164.228 191.517 164.443C191.951 164.781 192.124 165.458 192.46 165.888C193.643 167.4 195.21 168.563 196.613 169.86C198.734 171.822 200.967 173.968 202.853 176.16C207.561 181.635 210.167 187.68 210.958 194.868C211.673 201.368 210.82 208.271 208.53 214.42C207.153 218.118 204.931 221.258 202.792 224.531C201.738 226.145 200.472 227.629 199.462 229.266C199.014 229.991 198.623 230.762 198.158 231.473C197.791 232.035 197.155 232.747 197.155 233.469C197.155 233.608 198.339 235.229 198.509 235.365C198.718 235.532 198.78 236.099 198.78 236.358C198.78 236.503 198.213 237.271 198.539 237.271C199.585 237.271 200.507 235.493 200.987 234.743C202.798 231.913 204.783 229.232 206.865 226.598C209.907 222.749 212.267 218.557 213.215 213.697C214.104 209.139 214.479 204.525 212.683 200.165C212.157 198.887 211.491 197.573 210.787 196.383C210.207 195.4 209.576 195.485 209.433 194.196" stroke="black" stroke-width="18.9995" stroke-linecap="round"/>
<path d="M209.976 190.043C209.976 189.352 209.996 190.7 210.016 190.846C210.182 192.052 210.833 193.116 211.22 194.256C211.481 195.024 211.659 195.81 211.862 196.594C211.904 196.754 211.962 197.456 211.962 196.904" stroke="black" stroke-width="18.9995" stroke-linecap="round"/>
<path d="M192.821 173.431C192.58 173.461 192.693 173.625 192.601 173.792C192.424 174.11 191.863 174.271 191.557 174.424C190.616 174.894 189.375 175.445 188.307 175.417C187.128 175.386 186.379 172.255 186.321 171.264C186.284 170.635 185.478 172.062 185.418 172.257C185.076 173.368 184.291 174.402 183.613 175.337C179.722 180.696 179.052 186.827 178.467 193.263C178.138 196.877 177.839 200.506 177.614 204.127C177.372 208.022 177.208 211.904 178.747 215.572C180.667 220.145 184.321 223.294 187.384 227.038C187.819 227.57 188.475 228.082 188.809 228.683C188.855 228.766 189.073 229.102 188.989 229.185C188.656 229.519 188.323 227.349 188.317 227.289C187.869 222.277 187.61 217.014 188.026 211.991C188.265 209.114 189.571 206.476 189.571 203.585" stroke="black" stroke-width="18.9995" stroke-linecap="round"/>
<path d="M214.128 276.895C214.128 277.284 214.319 277.491 214.569 277.808C216.025 279.649 217.587 281.418 219.144 283.174C220.607 284.825 222.341 286.224 223.798 287.869C224.773 288.969 225.515 290.322 226.366 291.52C226.689 291.975 226.866 292.507 227.39 292.784C229.742 294.03 230.904 290.993 231.502 289.093C231.98 287.579 232.382 285.938 232.144 284.338C231.904 282.72 229.941 281.175 228.493 280.586C226.295 279.693 223.761 279.603 221.431 279.603C218.452 279.603 214.49 279.284 212.363 281.89C210.39 284.307 210.53 288.353 212.543 290.618C214.221 292.505 218.257 294.491 220.809 293.687C221.821 293.369 222.324 292.533 222.394 291.46C222.483 290.103 221.99 289.08 221.12 288.07C219.741 286.468 218.244 284.931 216.676 283.515C213.977 281.079 211.203 279.964 207.588 279.964C205.957 279.964 204.137 279.743 202.582 280.336C201.212 280.857 200.108 281.677 198.89 282.462C197.634 283.273 197.318 283.647 195.961 282.843C193.509 281.39 191.46 279.435 189.12 277.808C188.329 277.257 187.185 276.685 186.241 276.534C185.6 276.431 185.096 275.992 184.435 275.992C183.761 275.992 182.931 276.127 182.279 275.982C180.902 275.676 183.767 273.071 183.974 272.932C187.106 270.844 189.912 268.336 193.042 266.241C194.666 265.155 196.28 264.056 197.917 262.991C199.212 262.15 200.6 261.789 202.07 261.366C205.059 260.506 207.967 259.895 211.099 259.922C215.915 259.963 220.219 262.535 224.42 264.616C228.49 266.633 232.92 268.486 236.297 271.578C238.844 273.91 239.544 277.206 240.591 280.346C241.029 281.662 242.727 285.699 240.812 286.465C239.555 286.967 238.598 286.966 237.581 286.003C232.069 280.783 226.123 276.026 219.364 272.501C214.791 270.116 209.549 268.141 204.538 266.863C203.627 266.631 201.322 265.925 200.425 266.623C198.209 268.347 198.872 272.222 196.684 274.006C195.989 274.572 195.215 275.142 194.366 275.45C194.097 275.548 193.607 275.98 193.554 276.273C193.259 277.896 193.349 280.207 193.815 281.76C194.29 283.344 195.509 284.552 197.055 285.1C197.897 285.399 198.935 286.465 199.773 286.465C199.839 286.465 200.177 286.512 199.964 286.645C199.216 287.113 197.766 286.366 197.135 286.043C194.8 284.85 192.622 283.204 190.223 282.151C189.518 281.842 188.751 281.692 188.207 281.148C187.868 280.809 188.048 281.048 188.689 281.048C191.368 281.048 193.957 281.272 196.523 282.111C201.059 283.595 205.15 286.138 209.795 287.187" stroke="black" stroke-width="18.9995" stroke-linecap="round"/>
<path d="M221.712 290.617C221.712 295.403 222.276 300.49 221.421 305.223C220.891 308.157 219.115 310.794 217.348 313.128C217.252 313.255 214.66 316.939 214.499 316.859C213.562 316.39 217.276 306.878 217.549 306.005C217.989 304.598 218.369 303.177 218.743 301.752C218.984 300.832 218.006 302.219 217.88 302.394C216.135 304.813 215.053 307.703 213.948 310.459C212.944 312.961 211.293 316.087 212.042 318.886C212.375 320.131 213.746 322.015 214.67 322.938" stroke="black" stroke-width="18.9995" stroke-linecap="round"/>
<path d="M213.585 322.036C213.585 325.359 213.585 328.683 213.585 332.007C213.585 332.929 212.058 335.275 212.722 334.635C217.022 330.494 222.759 327.634 227.89 324.744C230.521 323.262 233.68 322.003 235.533 319.508C236.529 318.167 237.136 316.499 237.379 314.853C237.501 314.03 237.058 314.018 237.058 313.328C237.058 310.349 237.353 307.468 237.6 304.501C237.856 301.426 238.241 298.294 238.322 295.212C238.355 293.964 238.721 293.307 239.225 292.243C239.918 290.78 240.108 288.916 240.268 287.327C240.35 286.516 240.163 283.299 241.121 282.873C242.067 282.453 243.182 283.533 243.649 284.207C245.579 286.995 245.339 291.277 245.645 294.429C245.973 297.803 245.906 301.174 245.906 304.561C245.906 307.646 245.728 310.184 244.371 312.997C242.083 317.744 237.41 320.95 233.206 323.902C230.578 325.747 227.797 327.28 225.051 328.907C223.417 329.875 221.812 331.511 219.824 331.776C218.321 331.977 216.455 332.412 215.12 333.13C214.732 333.339 213.858 333.336 213.404 333.401C213.007 333.458 212.501 333.834 212.501 333.231" stroke="black" stroke-width="18.9995" stroke-linecap="round"/>
<path d="M102.718 272.199C102.114 272.199 101.638 271.967 101.234 271.517C101.051 271.314 101.563 271.285 101.675 271.256C102.393 271.077 103.034 270.565 103.611 270.123C104.577 269.383 105.261 268.206 105.968 267.224C106.8 266.069 107.653 265.07 108.677 264.074C109.6 263.177 110.775 262.547 111.907 261.967C114.688 260.543 117.263 258.822 120.223 257.764C122.246 257.042 123.876 256.671 126.011 256.671C128.469 256.671 130.894 256.804 133.294 257.393C135.828 258.016 138.007 259.263 140.256 260.543C142.195 261.646 144.328 262.434 146.234 263.572C148.436 264.887 151.078 265.935 153.096 267.505C154.141 268.318 155.598 268.754 156.848 269.17C157.803 269.489 159.063 268.966 159.596 270.033" stroke="black" stroke-width="18.9995" stroke-linecap="round"/>
<path d="M123.486 262.811C121.555 266.948 115.859 267.167 113.193 270.755C111.665 272.813 112.476 274.962 111.839 277.256C111.732 277.641 111.536 279.05 111.93 279.282C112.76 279.771 113.805 279.795 114.758 280.004C116.346 280.352 118.55 280.68 120.115 280.075C121.843 279.406 123.44 278.15 124.91 277.055C126.538 275.842 128.223 274.607 129.685 273.193C130.794 272.12 131.632 270.85 132.614 269.672C133.709 268.358 136.09 267.969 137.68 267.886C138.728 267.832 140.014 267.699 141.041 267.987C142.398 268.367 143.573 269.369 144.772 270.073C145.944 270.761 147.197 271.295 148.363 271.979C148.921 272.306 149.487 272.5 149.487 273.193C149.487 275.316 146.792 276.821 145.113 277.577C141.043 279.408 136.379 280.576 131.912 280.827C128.547 281.016 125.142 280.867 121.77 280.867C121.476 280.867 121.182 280.867 120.888 280.867C120.318 280.867 121.874 281.437 122.362 281.73C123.32 282.305 124.375 283.484 125.462 283.756C127.355 284.229 129.417 284.247 131.36 284.017C134.803 283.608 138.214 282.907 141.622 282.311C144.793 281.757 147.893 280.013 150.47 278.148C151.377 277.492 154.723 275.954 154.723 274.547" stroke="black" stroke-width="18.9995" stroke-linecap="round"/>
</g>
<defs>
<clipPath id="clip0_205_6259">
<rect width="262.614" height="354.06" fill="white" transform="translate(0.138672 0.891602)"/>
</clipPath>
</defs>
</svg>
