<svg width="138" height="184" viewBox="0 0 138 184" fill="none" xmlns="http://www.w3.org/2000/svg">
<g clip-path="url(#clip0_205_4183)">
<rect width="137.074" height="183.091" fill="black"/>
<path d="M12.5412 93.501C24.0209 86.2694 40.7495 66.6906 15.8529 45.8346" stroke="white" stroke-width="2.75126"/>
<path d="M13.6372 93.5679C3.90353 84.8639 -9.06687 63.2256 16.9483 45.9103" stroke="white" stroke-width="2.75126"/>
<path d="M12.7248 48.5399C24.2045 41.3083 40.9331 21.7294 16.0365 0.87341" stroke="white" stroke-width="2.75126"/>
<path d="M13.8213 48.6064C4.08761 39.9025 -8.88279 18.2642 17.1323 0.948907" stroke="white" stroke-width="2.75126"/>
<path d="M68.7671 75.3693C82.3328 75.6003 107.049 68.3706 97.6282 37.2892" stroke="white" stroke-width="2.75126"/>
<path d="M69.6476 76.0258C66.2653 63.4138 67.2536 38.2052 98.5032 37.9527" stroke="white" stroke-width="2.75126"/>
<path d="M70.3388 122.196C81.2897 114.186 96.621 93.4952 70.3388 74.4149" stroke="white" stroke-width="2.75126"/>
<path d="M71.4396 122.186C61.1261 114.178 46.6871 93.4904 71.4396 74.4136" stroke="white" stroke-width="2.75126"/>
<path d="M93.5288 37.8405C107.094 38.0715 131.811 30.8418 122.39 -0.239618" stroke="white" stroke-width="2.75126"/>
<path d="M94.4098 38.496C91.0275 25.884 92.0158 0.675411 123.265 0.422929" stroke="white" stroke-width="2.75126"/>
<path d="M71.0668 76.0976C75.5671 63.2981 76.5069 37.563 44.0407 36.6939" stroke="white" stroke-width="2.75126"/>
<path d="M71.969 75.4668C58.9341 74.6962 35.3257 65.803 44.9479 36.0706" stroke="white" stroke-width="2.75126"/>
<path d="M43.269 40.7616C47.7693 27.9621 48.7091 2.22707 16.2429 1.358" stroke="white" stroke-width="2.75126"/>
<path d="M44.1697 40.1299C31.1348 39.3593 7.52634 30.4661 17.1486 0.733697" stroke="white" stroke-width="2.75126"/>
<path d="M13.5969 182.087C25.0766 174.855 41.8051 155.277 16.9086 134.421" stroke="white" stroke-width="2.75126"/>
<path d="M14.6938 182.154C4.96017 173.45 -8.01023 151.812 18.0049 134.496" stroke="white" stroke-width="2.75126"/>
<path d="M13.7819 137.025C25.2617 129.793 41.9902 110.215 17.0937 89.3585" stroke="white" stroke-width="2.75126"/>
<path d="M14.8789 137.092C5.14522 128.388 -7.82517 106.75 18.19 89.4343" stroke="white" stroke-width="2.75126"/>
<path d="M118.281 92.5211C129.761 85.2895 146.489 65.7106 121.593 44.8546" stroke="white" stroke-width="2.75126"/>
<path d="M119.377 92.5874C109.644 83.8835 96.6734 62.2451 122.688 44.9299" stroke="white" stroke-width="2.75126"/>
<path d="M118.468 47.5606C129.948 40.329 146.677 20.7502 121.78 -0.105838" stroke="white" stroke-width="2.75126"/>
<path d="M119.566 47.626C109.833 38.9221 96.8623 17.2837 122.877 -0.031562" stroke="white" stroke-width="2.75126"/>
<path d="M119.343 181.108C130.823 173.877 147.552 154.298 122.655 133.442" stroke="white" stroke-width="2.75126"/>
<path d="M120.44 181.175C110.706 172.471 97.7359 150.833 123.751 133.517" stroke="white" stroke-width="2.75126"/>
<path d="M119.523 136.045C131.002 128.814 147.731 109.235 122.834 88.379" stroke="white" stroke-width="2.75126"/>
<path d="M120.62 136.112C110.886 127.408 97.9156 105.77 123.931 88.4543" stroke="white" stroke-width="2.75126"/>
<path d="M113.222 17.6377C113.302 18.4646 113.674 19.2689 113.955 20.0423C114.725 22.1653 115.588 24.2475 116.291 26.395C117.176 29.0981 118.212 31.9708 118.44 34.8283C118.576 36.5282 118.901 38.2792 118.901 39.9702C118.901 40.8124 118.291 38.5185 118.253 38.3586C117.577 35.5792 116.77 32.8182 115.865 30.1043C115.005 27.5256 113.969 24.8553 112.454 22.5834C112.239 22.2608 111.84 21.3734 111.84 22.2509C111.84 23.9377 112.169 25.8402 112.616 27.4609C113.309 29.9741 114.319 32.2868 115.908 34.3593C116.562 35.2126 117.716 36.6702 118.909 36.6702C119.923 36.6702 120.47 35.9877 121.263 35.4593C122.483 34.6459 123.502 33.6156 124.682 32.7477C126.735 31.2373 128.407 29.7126 128.843 27.0346C128.954 26.3518 127.732 27.5048 127.649 27.5803C126.734 28.4224 126.111 29.4709 125.535 30.5648C124.555 32.4249 123.851 34.4156 122.738 36.2097C122.316 36.8899 122.153 37.7291 121.663 38.3586C121.387 38.7136 121.264 39.2099 121.365 39.6632C121.585 40.6519 122.945 38.7479 123.045 38.5803C124.325 36.427 125.73 34.3002 126.873 32.0741C129.038 27.8582 130.149 23.7741 129.764 19.002C129.533 16.1358 127.353 13.9113 125.501 11.9586C124.789 11.2087 124.284 10.3497 123.539 9.62222C123.216 9.30639 122.476 8.70563 121.97 8.7354C121.639 8.75488 121.768 13.4511 121.749 13.7323C121.391 18.7958 120.866 23.7655 120.896 28.8594C120.905 30.4345 120.908 31.9215 121.587 33.3531C122.099 34.4352 122.418 31.484 122.422 31.3237C122.606 24.6023 122.298 17.6268 121.126 10.9866C120.965 10.0718 120.827 9.04046 120.555 8.15556C120.428 7.74278 119.991 7.51779 119.975 7.08114C119.958 6.62548 119.702 6.29105 119.668 5.85324C119.606 5.04676 118.975 6.13098 118.866 6.34781C118.466 7.14778 118.249 8.0104 117.886 8.82067C117.224 10.2973 116.104 11.7286 115.225 13.1013C115.073 13.3401 114.454 14.4631 114.62 13.4679C114.729 12.8135 115.146 12.2542 115.362 11.6346C115.599 10.9521 115.753 10.2191 115.899 9.51137C116.198 8.06072 115.759 6.82604 114.142 6.5951C112.528 6.36444 111.171 7.79927 109.93 8.65866C108.62 9.56539 107.71 10.7551 106.741 11.9928C105.543 13.5227 104.228 14.9579 103.091 16.5292C101.34 18.9504 100.301 21.5716 99.5611 24.4423C99.3767 25.1583 99.4076 25.8838 99.4076 26.6167C99.4076 27.0736 99.9029 26.3431 99.9448 26.2757C100.432 25.4917 100.809 24.56 101.087 23.6834C101.541 22.2534 101.745 20.751 102.273 19.3431C102.733 18.1167 103.436 17.0013 104.089 15.8726C104.702 14.8146 105.461 13.4631 106.4 12.6493C106.853 12.2565 107.335 11.8316 107.508 11.2253C107.725 10.467 105.991 9.6621 105.428 9.53695C104.12 9.24636 103.489 10.1127 103.398 11.3788C103.352 12.022 102.77 12.7353 102.443 13.2548C101.794 14.2882 101.279 15.3891 100.67 16.4439C98.7589 19.7509 98.1254 23.637 97.2588 27.3074" stroke="white" stroke-width="10.0695" stroke-linecap="round"/>
<path d="M103.37 25.4241C103.328 26.1799 102.111 26.3604 101.612 26.7489C100.812 27.3711 100.025 28.0439 99.2194 28.6743C98.7877 29.0121 98.3317 29.1608 97.9851 29.6274C97.6468 30.0827 97.5077 30.6981 97.5371 31.2572C97.5469 31.4427 97.7777 31.4792 97.9184 31.5194C98.033 31.5521 97.6695 31.9096 97.6229 31.9912C97.5271 32.1588 97.3837 32.1872 97.2416 32.2819C96.8212 32.5622 98.0927 31.7099 98.576 31.5622C99.418 31.305 100.35 31.3864 101.216 31.324C102.123 31.2586 103.011 31.1673 103.904 30.9999C104.386 30.9096 106.63 30.6289 106.63 29.9705" stroke="white" stroke-width="10.0695" stroke-linecap="round"/>
<path d="M120.156 35.866C120.156 36.4305 120.22 37.0296 120.098 37.5805C120.037 37.8565 120.062 38.2125 119.858 38.4419C119.737 38.5778 119.595 38.7053 119.555 38.885C119.491 39.1755 119.322 39.4706 119.265 39.7837C119.232 39.9673 119.261 41.1035 119.261 40.3387" stroke="white" stroke-width="10.0695" stroke-linecap="round"/>
<path d="M118.914 77.6138C118.914 83.1751 118.914 66.4911 118.914 60.9298C118.914 58.9714 118.909 56.7954 119.33 54.8994C119.437 54.4178 119.913 53.4828 120.297 53.0989C120.545 52.8515 121.036 52.0673 121.036 51.7151" stroke="white" stroke-width="10.0695" stroke-linecap="round"/>
<path d="M121.114 51.0425C121.285 51.622 121.812 52.1616 122.147 52.6542C122.969 53.8645 123.721 55.1035 124.345 56.4293C125.37 58.6063 126.332 61.104 126.391 63.5375C126.431 65.2096 125.719 66.752 124.901 68.1693C123.992 69.7426 123.032 71.2357 121.818 72.5899" stroke="white" stroke-width="10.0695" stroke-linecap="round"/>
<path d="M124.281 57.4493C124.281 57.3979 124.331 57.5395 124.36 57.5823C124.568 57.894 124.85 58.1544 125.119 58.4117C126.13 59.3794 126.995 60.4035 127.712 61.6117C128.918 63.6407 129.633 65.8005 130.016 68.1213C130.537 71.2745 129.89 74.9696 127.904 77.518C126.55 79.2555 124.701 80.476 122.936 81.7508C121.851 82.5345 120.969 83.5934 120.056 84.5596C119.92 84.7046 119.806 84.9178 119.595 84.9782C119.422 85.0277 119.493 85.344 119.493 85.5102C119.493 85.7192 119.435 85.8988 119.423 86.1088C119.415 86.2366 119.363 86.2251 119.348 86.1048C119.315 85.8404 119.21 85.569 119.125 85.3185C118.611 83.7927 117.874 82.289 117.162 80.8471C116.311 79.1268 115.315 77.3719 114.771 75.5228C114.34 74.0558 114.212 72.6231 114.212 71.1023C114.212 69.1536 114.141 67.2076 114.141 65.2577C114.141 63.8949 114.119 62.5258 114.497 61.2009C114.791 60.1726 115.248 59.207 115.585 58.1965C115.647 58.0099 115.715 57.8165 115.757 57.6253C115.79 57.4785 115.616 57.6938 115.55 57.7466C114.818 58.3319 114.483 59.2868 114.196 60.1408C112.936 63.8921 113.158 67.8508 113.758 71.7086C113.774 71.8104 113.777 72.7564 113.875 72.8548C114.078 73.0571 114.271 72.4913 114.29 72.4323C114.799 70.837 114.926 69.15 115.229 67.511C115.593 65.5419 116.08 63.5974 116.395 61.6195C116.562 60.5723 116.715 59.5185 116.923 58.4782C116.99 58.1406 117.126 57.6326 117.025 57.2772C116.991 57.1594 116.925 57.7027 116.919 57.7388C116.731 58.8145 116.775 59.9833 116.95 61.0562C117.15 62.2773 117.493 63.4783 117.756 64.6865C118.085 66.1995 118.386 67.7198 118.679 69.2401C119.09 71.3688 119.439 73.5217 119.775 75.6637C120.182 78.2601 120.549 80.8681 120.549 83.4955C120.549 84.1736 120.406 84.6153 120.182 85.2481C120.085 85.5204 119.916 85.8159 119.916 86.1088" stroke="white" stroke-width="10.0695" stroke-linecap="round"/>
<path d="M119.845 118.078C119.845 115.072 119.696 112.028 119.97 109.033C120.173 106.823 120.727 104.671 120.956 102.469C121.037 101.692 121.166 101.006 121.48 100.286C121.803 99.5489 122.122 98.8454 122.31 98.0563C122.423 97.5802 122.437 97.1546 122.451 96.6714C122.464 96.2033 122.591 95.742 122.591 95.2631C122.591 95.0317 122.515 94.8518 122.607 95.1379C122.985 96.3109 123.93 97.3707 124.634 98.3614C125.72 99.89 126.841 101.489 127.587 103.216C127.941 104.037 128.331 104.87 128.491 105.755C128.626 106.506 128.692 107.287 128.749 108.048C128.88 109.792 128.718 111.513 128.076 113.153C127.345 115.021 126.111 116.757 124.9 118.344C123.852 119.716 122.683 120.899 121.426 122.076C120.789 122.673 120.104 123.353 119.65 124.102C119.372 124.561 119.18 125.032 119.086 125.558C118.986 126.122 119.656 126.138 120.068 126.25C120.554 126.383 121.174 126.5 121.684 126.454C122.155 126.411 122.636 126.126 123.014 125.863C123.74 125.358 124.467 124.822 125.126 124.232C125.857 123.577 126.663 122.874 127.2 122.045C127.553 121.5 127.86 120.912 128.15 120.331C128.781 119.071 129.402 117.813 129.774 116.451C130.448 113.978 131.09 111.158 130.717 108.587C130.609 107.845 130.302 106.941 129.946 106.279C129.558 105.558 129.208 104.671 128.632 104.081C127.682 103.107 126.713 102.149 125.76 101.178C125.312 100.721 124.938 100.199 124.571 99.6758C124.278 99.2578 123.933 98.877 123.734 98.4005C123.477 97.7877 123.222 97.0462 123.1 96.3897C123.079 96.2764 122.97 95.2709 122.838 95.2709C122.773 95.2709 122.451 96.3798 122.451 96.4954C122.451 97.9962 121.824 99.4649 121.394 100.896" stroke="white" stroke-width="10.0695" stroke-linecap="round"/>
<path d="M120.62 96.7427C120.363 96.8994 120.169 97.1882 119.97 97.4077C119.44 97.992 118.918 98.5871 118.46 99.2307C117.326 100.826 116.323 102.496 115.479 104.262C114.669 105.958 114.151 107.784 113.875 109.645C113.626 111.327 113.367 112.993 113.367 114.699C113.367 115.362 113.326 116.043 113.414 116.702C113.512 117.441 113.832 118.149 114.102 118.838C114.544 119.961 115.188 121.017 115.796 122.057C116.533 123.317 117.15 124.629 117.873 125.895" stroke="white" stroke-width="10.0695" stroke-linecap="round"/>
<path d="M117.875 125.895C117.925 126.4 118.452 126.928 118.72 127.327C118.946 127.665 119.177 128.247 119.51 128.5C119.73 128.668 119.867 128.933 120.057 129.134C120.114 129.194 120.422 129.576 120.269 129.345" stroke="white" stroke-width="10.0695" stroke-linecap="round"/>
<path d="M120.41 172.65C120.41 173.722 120.364 170.507 120.371 169.435C120.378 168.099 120.504 166.775 120.605 165.445C120.732 163.788 120.762 162.137 120.762 160.476C120.762 156.646 120.769 152.721 121.435 148.94C121.698 147.443 121.929 146.004 122.35 144.55C122.543 143.885 122.733 143.2 122.733 142.504C122.733 142.007 122.915 141.095 122.632 140.65C122.594 140.591 122.573 140.334 122.663 140.486C122.742 140.619 122.735 140.793 122.765 140.94C122.859 141.401 123.043 141.836 123.277 142.242C124.712 144.73 126.519 146.931 127.733 149.554C129 152.29 129.703 155.278 129.552 158.301C129.303 163.277 126.371 167.894 123.179 171.555C122.667 172.142 122.167 172.765 121.536 173.229C121.337 173.376 121.029 173.65 120.762 173.636C120.535 173.624 120.256 173.271 120.093 173.139C119.618 172.755 119.219 172.282 118.861 171.79C117.632 170.1 116.664 168.135 116.326 166.07C116.015 164.176 115.855 162.224 115.911 160.304C115.958 158.685 116.063 156.982 116.31 155.383C116.651 153.171 118.095 151.439 119.205 149.562C119.788 148.575 120.447 147.622 121.059 146.651C121.436 146.054 121.682 145.418 121.955 144.77C122.308 143.932 121.928 143.569 121.087 143.569C120.378 143.569 119.972 144.063 119.635 144.625C118.751 146.098 117.897 147.633 117.456 149.304C116.824 151.699 116.193 154.118 115.688 156.545C115.239 158.701 115.105 160.814 114.956 163.007C114.915 163.622 114.891 164.237 114.847 164.85C114.821 165.206 114.461 164.07 114.448 164.028C113.272 160.379 113.324 156.381 114.252 152.668C114.763 150.625 115.542 148.792 116.764 147.089C116.811 147.023 117.588 146.131 117.593 146.362C117.692 151.026 120.132 155.302 121.177 159.796C121.791 162.44 122.003 165.417 121.497 168.097C121.296 169.163 120.839 170.142 120.652 171.211C120.528 171.922 120.551 172.636 120.551 173.355C120.551 173.66 120.551 173.965 120.551 174.27C120.551 174.627 120.697 174.975 120.269 174.904" stroke="white" stroke-width="10.0695" stroke-linecap="round"/>
<path d="M125.972 152.653C125.972 151.198 125.993 149.742 125.972 148.287C125.965 147.75 125.502 147.543 125.765 147.082C125.948 146.761 126.105 146.245 126.504 146.245C126.669 146.245 126.885 146.203 127.013 146.331C127.158 146.476 127.142 146.692 126.958 146.738" stroke="white" stroke-width="10.0695" stroke-linecap="round"/>
<path d="M52.9943 49.2907C52.9943 48.3447 52.5263 47.6074 52.1241 46.803C51.4981 45.5509 50.6844 44.4211 49.5903 43.5321C49.3667 43.3504 49.063 42.8794 48.7559 42.841C48.5851 42.8197 48.0743 42.2089 48.4078 42.1961C48.8378 42.1795 49.1211 42.443 49.4981 42.6158C50.1766 42.9268 50.9073 43.1208 51.5713 43.445C53.103 44.1931 54.7463 44.7753 56.1833 45.7024C57.6282 46.6347 58.9032 47.7131 60.2374 48.7891C61.0155 49.4166 61.7263 50.0712 62.4436 50.7701C63.1334 51.4422 63.6611 52.2748 64.3734 52.9251C64.4077 52.9564 64.8682 53.4678 64.9518 53.3244C65.1012 53.0683 64.2121 52.3749 64.0919 52.2597C63.4493 51.6439 62.8639 50.9721 62.3003 50.2838C61.2416 48.9908 60.2938 47.7339 58.9321 46.7313C58.2041 46.1953 57.5053 45.647 56.7515 45.1445C56.1571 44.7482 55.6008 44.2581 54.9702 43.9262C54.7434 43.8069 54.7676 43.7246 55.0418 43.7829C56.1606 44.0209 57.1118 44.5467 58.0619 45.165C59.6041 46.1686 61.04 47.33 62.4436 48.5127C64.1679 49.9655 65.6749 51.7715 66.8202 53.7185C67.3232 54.5736 67.8013 55.4573 68.3354 56.2933C68.6434 56.7755 68.9433 57.3107 69.4359 57.6242C70.27 58.1549 71.0107 57.1245 71.6114 56.6977C73.3752 55.4445 75.7545 54.5674 77.0783 52.8022C77.5289 52.2014 77.901 51.606 78.4041 51.0414C78.9856 50.3886 79.9488 49.8646 80.728 49.475C82.3832 48.6474 84.1082 47.9658 85.8264 47.2842C86.7037 46.9361 87.4957 46.4178 88.3756 46.0659C89.562 45.5913 91.0835 45.4772 92.015 44.5456C92.3501 44.2106 92.7384 43.8345 93.1207 43.5372C93.4496 43.2814 93.8609 43.1291 93.2589 42.8615C92.5229 42.5344 91.1405 43.1333 90.4743 43.4143C89.337 43.8941 88.1378 44.258 86.9832 44.7043C85.4701 45.2892 83.7654 45.7177 82.3865 46.588C81.3146 47.2645 80.4174 48.3052 79.8476 49.4341C79.585 49.9543 79.2028 51.0258 79.8988 51.369C80.9208 51.873 82.2784 51.6863 83.3796 51.6863C85.3076 51.6863 87.3357 51.6138 89.1434 50.8571C90.4811 50.2971 91.2035 48.7663 92.1993 47.7704C92.7166 47.2532 93.0062 48.2839 93.2128 48.743C93.6815 49.7845 93.9039 50.8737 93.9039 52.0139C93.9039 53.5008 93.1102 54.8521 92.4092 56.1295C91.4843 57.8148 90.5061 59.2937 89.3379 60.8081C88.0008 62.5413 86.1053 63.6264 84.2293 64.6984C82.9939 65.4043 81.6646 65.8706 80.3595 66.4285C79.147 66.9469 77.9137 67.5707 76.633 67.9028C74.492 68.4578 72.3749 68.8343 70.1884 69.1466C68.4825 69.3903 66.9944 69.0452 65.4381 68.3686C62.9284 67.2774 60.4765 66.0146 58.195 64.4936C56.607 63.4349 55.1617 62.2391 53.7314 60.9719C51.8388 59.2951 50.0264 57.4984 48.9607 55.1671C48.1817 53.4632 47.5581 51.3736 47.5581 49.4801C47.5581 49.0808 47.7803 48.9696 48.1621 49.214C48.8431 49.6498 49.4474 50.2242 50.1278 50.6728C51.7872 51.7671 53.4863 52.8011 55.1442 53.8977C56.4955 54.7915 57.7172 55.8423 58.9475 56.8922C60.3405 58.0809 61.7864 59.2127 63.1551 60.4293C64.6562 61.7635 66.3614 63.327 68.3661 63.8282C70.9729 64.4799 73.5161 63.6721 75.8652 62.5587C77.2572 61.8989 78.6174 61.1862 79.9039 60.3371C80.8372 59.7212 81.6618 58.9757 82.5708 58.3306C83.1882 57.8924 83.8276 57.3167 84.6183 57.3068C85.072 57.3011 86.3126 57.079 86.6044 57.5832C87.1802 58.5776 88.6794 57.2913 89.5119 57.1021C89.7483 57.0483 89.97 56.987 90.2183 57.0509C90.5713 57.1416 90.8535 57.4712 91.2319 57.4911C91.3768 57.4987 91.4433 57.4587 91.5492 57.358C92.0579 56.8742 92.5761 56.4081 93.0337 55.8735C93.6783 55.1203 94.1399 54.4288 94.5693 53.5701C94.6046 53.4996 94.5496 54.1004 94.5028 54.2202C94.1851 55.032 94.0499 55.8715 93.8066 56.7079C93.3814 58.1695 92.8555 59.6076 92.0253 60.8849C91.4593 61.7556 90.1105 62.2126 89.256 62.743C88.1669 63.419 86.9538 63.8016 85.8469 64.4424C84.3794 65.292 82.8594 66.0678 81.3321 66.8176C79.9148 67.5133 78.3078 68.0638 76.7712 68.4095C76.09 68.5628 75.5504 68.732 74.8363 68.732C74.4377 68.732 73.8947 68.6274 73.5105 68.7371C73.162 68.8367 74.2352 68.841 74.5957 68.8037C75.6941 68.69 76.6194 68.0483 77.667 67.739C80.1008 67.0202 82.5592 66.3832 84.8948 65.3741C85.5549 65.0888 86.0925 64.5879 86.7375 64.3093C86.8672 64.2533 87.4118 64.0299 87.362 64.0534C85.9153 64.7387 84.6514 65.7989 83.1237 66.3364C82.1327 66.6851 81.2654 67.3001 80.3032 67.7185C79.5642 68.0398 78.6874 68.087 77.8973 68.087C76.3362 68.087 74.8067 68.0241 73.2853 67.6315C72.0329 67.3083 70.6997 67.2528 69.4155 67.1145C68.0444 66.9668 66.6715 66.7871 65.2948 66.705C62.8051 66.5563 60.1489 66.196 57.8162 65.2717C56.5281 64.7613 55.0666 64.3393 53.9157 63.5518C53.4847 63.2569 52.9631 62.984 52.6257 62.5792C52.3782 62.2822 52.4254 62.09 52.81 62.2823C53.9751 62.8649 54.961 63.7684 55.9427 64.6062C57.4672 65.9072 59.0777 67.0497 60.8466 67.9949C61.8707 68.5422 62.938 68.9086 64.0919 69.0801C64.4545 69.134 65.1578 69.3745 65.3409 69.0084" stroke="white" stroke-width="10.0695" stroke-linecap="round"/>
<path d="M87.8242 49.4755C88.8207 49.4755 89.8171 49.4755 90.8136 49.4755C91.0189 49.4755 91.8479 49.6169 92.0421 49.4551C92.4213 49.1391 94.0705 47.9822 93.5368 47.4485" stroke="white" stroke-width="10.0695" stroke-linecap="round"/>
<path d="M30.0518 21.5578C29.8878 21.8447 27.4239 20.1169 27.2211 19.9812C25.0543 18.5313 23.0974 16.9125 21.2116 15.1234C19.8832 13.8632 18.6199 12.5215 17.3366 11.2382C16.8665 10.7681 16.2178 10.6796 15.7703 10.1326C15.6358 9.96822 15.3096 9.75732 15.3096 9.53367C15.3096 9.07256 15.7825 8.86121 16.1286 8.66347C16.5099 8.44557 16.9198 8.52004 17.2854 8.26932C17.6328 8.0311 18.1349 7.94275 18.5447 7.92636C19.2823 7.89685 20.012 7.8291 20.7509 7.8291C22.0515 7.8291 23.2818 7.83234 24.5644 8.05433C26.076 8.31596 27.3534 9.08094 28.5775 9.96877C30.0026 11.0023 31.3622 12.0914 32.821 13.0861C33.44 13.5081 34.0898 13.8627 34.6997 14.2993C35.4201 14.815 35.9412 15.4967 36.481 16.1932C36.8745 16.701 37.2133 17.2475 37.5099 17.8159C37.7754 18.3248 37.4513 18.1182 37.2181 17.775C35.9756 15.9457 34.968 14.0253 33.4967 12.3439C32.4132 11.1056 31.3418 9.7952 30.0159 8.8068C29.7949 8.64206 29.2137 8.01193 28.8744 8.05433C28.8462 8.05785 29.2242 8.29522 29.2328 8.30003C29.633 8.52516 29.9594 8.8323 30.2565 9.18047C31.6424 10.8044 32.6748 12.7267 33.722 14.5757C34.5281 15.9991 35.2908 17.4138 35.9026 18.9318C36.2268 19.7364 36.5015 20.5672 36.5015 21.4452C36.5015 22.0277 35.9496 22.1331 35.447 22.1823C33.8417 22.3393 32.1012 21.8064 30.5636 21.4144C29.4671 21.1349 28.3732 20.8337 27.2876 20.5442" stroke="white" stroke-width="10.0695" stroke-linecap="round"/>
<path d="M20.1012 15.0157C19.9693 14.9497 20.009 16.0965 20.009 16.193C20.009 17.1144 20.009 18.0358 20.009 18.9572C20.009 21.6462 20.3364 23.9123 22.1231 26.016C23.4193 27.5422 25.1099 28.5222 26.8938 29.3996C28.2321 30.0577 29.4106 30.5464 30.8609 30.884C32.5921 31.2869 34.4232 31.6432 35.949 32.6142C36.7381 33.1163 37.5855 33.4107 38.3907 33.858C38.5645 33.9546 38.7697 33.8536 38.9435 33.9502C39.1331 34.0555 39.2119 34.2071 39.3582 34.2931C39.4107 34.324 39.569 34.5218 39.6141 34.3955C39.7606 33.9853 39.7967 33.4717 39.8905 33.0442C40.0885 32.1414 40.1874 31.1179 40.1874 30.193C40.1874 29.0089 40.2499 27.7867 40.039 26.6149C39.8503 25.5666 39.468 24.565 39.1534 23.5539C38.7733 22.3322 38.5764 21.0639 38.3037 19.8171C38.2443 19.5458 38.1604 19.2526 38.1604 18.9776" stroke="white" stroke-width="10.0695" stroke-linecap="round"/>
<path d="M36.5029 23.4011C36.5029 24.0307 36.5029 24.6604 36.5029 25.29C36.5029 26.3435 36.9042 27.2704 37.2605 28.2435C37.7597 29.6067 38.6814 30.787 39.4411 32.011C39.7181 32.4573 39.808 32.9827 40.0963 33.4238C40.1724 33.54 40.2806 33.8194 40.2806 33.951C40.2806 34.1229 40.5422 35.2246 40.6492 35.0106" stroke="white" stroke-width="10.0695" stroke-linecap="round"/>
<path d="M15.5858 8.01245C15.2881 8.60779 14.7401 9.04244 14.2754 9.50715C13.1714 10.6111 12.1197 11.7389 11.3013 13.075C10.5295 14.3351 9.74757 15.5513 9.25893 16.9601C8.6443 18.7322 8.27687 20.5945 7.79495 22.4066C7.12658 24.9196 6.72138 27.6967 7.47758 30.2384C7.82876 31.4187 8.23396 32.4947 8.90573 33.5349C9.30463 34.1525 9.65776 34.901 10.3339 35.265C10.8285 35.5314 11.3803 35.7493 11.89 35.3469C12.7072 34.7018 13.3939 33.7806 14.0041 32.9513C15.546 30.8558 17.0278 28.4848 17.8381 26C18.4937 23.9893 18.7683 21.8341 18.8106 19.7243C18.8238 19.0688 18.9126 18.2753 18.7185 17.6358C18.539 17.0446 18.4382 18.1019 18.3858 18.2552C17.2846 21.4739 13.5341 22.8547 11.9207 25.7031C11.4693 26.4999 10.8878 28.0348 11.4088 28.9279C11.8655 29.7108 12.5889 30.0325 13.3745 30.4022" stroke="white" stroke-width="10.0695" stroke-linecap="round"/>
<path d="M20.5621 27.0854C20.682 27.2203 20.6543 27.3487 20.6543 27.5257C20.6543 28.1229 20.6543 28.7201 20.6543 29.3173C20.6543 30.7028 20.6972 31.9495 20.0503 33.2127C19.2772 34.7219 18.2701 36.2616 16.7844 37.1695C16.0423 37.623 15.251 37.9823 14.481 38.3673C14.2636 38.476 13.9469 38.3582 13.9281 38.6949C13.8933 39.3224 13.6972 39.9458 13.6466 40.5787C13.6238 40.8637 13.5596 41.1237 13.5596 41.413C13.5596 41.6151 13.6423 42.0339 13.3753 41.715C12.8207 41.0526 12.0931 40.2957 11.7731 39.4781C11.7247 39.3543 11.5087 38.7597 11.6452 38.6233C11.8896 38.3788 13.2972 38.6859 13.6005 38.7C14.1522 38.7257 15.077 38.6704 15.5866 38.8997C15.8434 39.0152 15.7376 39.2718 15.776 39.4832C15.8142 39.6929 16.1465 40.1868 15.9552 39.7085" stroke="white" stroke-width="10.0695" stroke-linecap="round"/>
<path d="M12.9142 81.5391C12.9142 77.6491 12.9435 73.8223 13.2827 69.9398C13.5885 66.4402 14.1261 62.9127 14.9208 59.4872C15.2028 58.2715 15.5551 57.0292 15.9087 55.8324C16.0802 55.252 16.2597 54.6912 16.3233 54.0869C16.3507 53.8272 16.5294 53.3221 16.395 53.0682C16.3167 52.9203 16.139 52.3259 16.139 52.6536C16.139 55.1203 18.4439 57.0317 19.712 58.9651C21.2275 61.2757 22.167 63.7738 23.0494 66.372C23.5643 67.8879 23.7695 69.759 23.0341 71.2298C20.7679 75.7621 16.4994 79.2728 12.6838 82.5014C12.6083 82.5654 12.3906 82.8009 12.3102 82.8239C11.9599 82.924 11.4946 80.0135 11.4604 79.8192C10.9806 77.0894 10.8305 74.3339 10.1807 71.629C9.69132 69.5917 9.24081 67.7245 9.22864 65.6196C9.21942 64.0239 9.41292 62.4505 9.41292 60.8539C9.41292 60.7132 9.48868 60.2653 9.25423 60.2653C8.53662 60.2653 8.24184 60.9513 7.91822 61.4733C6.56403 63.6575 6.2802 66.0561 6.2802 68.5833C6.2802 70.8487 5.93386 73.3199 6.94053 75.4221C7.81801 77.2545 9.15213 79.1149 10.795 80.3413C11.4274 80.8134 12.2964 81.3253 13.0626 80.7815C14.5582 79.7201 15.7454 78.073 16.8966 76.6762C18.3865 74.8686 20.3312 72.8478 21.0941 70.5746C21.3702 69.7518 21.4105 68.9051 21.0941 68.0868C20.9212 67.6397 20.6151 67.5632 20.3314 67.2576C19.9243 66.8192 19.452 67.101 18.9544 66.9607C18.3095 66.7788 17.8254 66.2339 17.388 65.7629C16.609 64.924 15.802 64.1358 15.2688 63.1062C14.5417 61.7021 14.1826 59.9247 14.4089 58.3406C14.5468 57.3752 15.41 56.6126 15.8831 55.8119C16.2277 55.2287 16.139 54.5072 16.139 53.8565C16.139 53.372 15.6606 53.332 15.2177 53.3446C14.7631 53.3576 14.454 53.7397 14.1581 54.0357C13.3726 54.8211 12.5175 55.5293 11.7113 56.2931C11.3256 56.6584 10.932 57.0378 10.5288 57.3834C10.046 57.7973 11.5105 56.5745 11.9928 56.16C13.3488 54.9945 14.7508 53.7246 15.9394 52.3874C16.1429 52.1585 16.6419 51.594 16.0469 51.594C15.7393 51.594 15.4477 51.7789 15.3098 52.0547" stroke="white" stroke-width="10.0695" stroke-linecap="round"/>
<path d="M14.297 78.315C14.297 80.0469 14.297 81.7788 14.297 83.5106C14.297 84.2631 14.297 85.0156 14.297 85.768C14.297 86.0879 14.3285 86.3993 14.1997 86.6997C14.0692 87.0041 13.8674 87.3647 13.6315 87.6006C13.5759 87.6561 14.0449 87.5417 14.1127 87.5084C14.756 87.1926 15.2772 86.673 15.7507 86.1468C16.6651 85.1308 17.4529 83.977 18.3101 82.9117C19.4997 81.4334 20.7589 80.0128 21.9291 78.5198C22.3552 77.9761 22.9009 77.3052 23.0553 76.6105C23.0954 76.43 23.7301 75.6753 23.4904 75.4792C23.0681 75.1337 22.2391 75.7903 21.7602 75.5509" stroke="white" stroke-width="10.0695" stroke-linecap="round"/>
<path d="M13.9288 127.701C13.9288 129.165 13.9179 124.773 13.9493 123.309C14.036 119.27 14.3926 115.212 14.8041 111.193C15.1261 108.048 15.7711 104.947 16.1197 101.81C16.1731 101.329 16.1393 100.788 16.3449 100.336C16.5565 99.8702 16.7493 99.4706 16.78 98.9486C16.8349 98.0155 16.9694 97.0733 16.9694 96.1435C16.9694 96.0258 16.9694 95.6726 16.9694 95.7903C16.9694 96.5752 17.5513 97.4643 17.9522 98.0938C19.9185 101.181 22.1128 104.349 22.9994 107.937C23.378 109.47 23.5112 111.057 23.5112 112.631C23.5112 114.643 22.7353 116.448 21.7913 118.2C20.2545 121.053 18.1687 123.79 15.6795 125.879C15.3476 126.157 15.0456 126.589 14.6659 126.8C14.1921 127.063 13.6812 126.215 13.4528 125.925C10.6184 122.327 8.27883 117.746 8.21622 113.071C8.19226 111.283 8.21653 109.693 8.82024 107.994C9.23752 106.819 9.84042 106.152 10.6477 105.229C11.4595 104.302 12.1406 103.242 12.6747 102.133C13.321 100.79 14.1276 99.5885 15.3058 98.6312C15.6073 98.3863 16.6559 96.4475 16.1401 96.1896" stroke="white" stroke-width="10.0695" stroke-linecap="round"/>
<path d="M17.9824 96.5584C17.9824 96.4151 17.9985 96.7632 18.0029 96.7837C18.1423 97.4343 18.623 97.9787 18.9448 98.5445C19.8465 100.13 20.6005 101.832 21.1151 103.581C21.7374 105.697 22.3477 107.925 22.4 110.144C22.4238 111.156 22.434 112.182 22.4051 113.195C22.3665 114.545 22.0656 110.514 21.8471 109.181C21.3654 106.243 20.5164 103.396 20.0299 100.459C19.888 99.602 19.7051 98.7654 19.6358 97.8996C19.6167 97.6605 19.5556 97.4013 19.4566 97.2034" stroke="white" stroke-width="10.0695" stroke-linecap="round"/>
<path d="M18.627 101.994C18.8187 102.778 19.2747 103.494 19.5688 104.246C19.924 105.154 20.3118 106.051 20.654 106.964C21.1783 108.362 21.7848 109.713 22.1794 111.156C22.3187 111.666 22.6007 113.415 23.3311 113.506C23.7202 113.555 23.8623 113.368 24.058 113.05C24.2114 112.801 24.2305 112.545 24.2474 112.257C24.3601 110.342 24.4326 108.424 24.5238 106.508" stroke="white" stroke-width="10.0695" stroke-linecap="round"/>
<path d="M23.141 104.666C23.1766 105.022 23.3791 105.352 23.5096 105.68C23.6945 106.145 23.7599 106.582 23.832 107.072C23.9466 107.851 24.1127 108.811 23.9293 109.59C23.0763 113.216 22.7169 117.042 21.2163 120.493C20.3314 122.529 19.2495 124.775 17.7048 126.411C17.2689 126.872 16.6467 127.251 16.1077 127.639C15.7161 127.922 15.1644 128.382 14.6642 128.438C14.4991 128.456 14.5032 129.895 14.5926 130.096C14.6339 130.189 14.6874 130.375 14.7973 130.229C15.0492 129.896 15.2298 129.48 15.4423 129.124C16.0377 128.126 16.7054 127.176 17.3823 126.232C19.3092 123.545 21.3189 120.926 23.0693 118.118C23.9497 116.706 25.1118 115.45 25.813 113.931C26.0783 113.356 26.6893 112.821 26.1816 112.314" stroke="white" stroke-width="10.0695" stroke-linecap="round"/>
<path d="M14.1128 175.521C14.1128 169.032 14.1128 162.543 14.1128 156.054C14.1128 153.165 14.8304 150.368 15.4949 147.567C15.7418 146.527 15.8899 145.475 16.0989 144.43C16.2119 143.865 16.4411 143.328 16.5545 142.761C16.5693 142.687 16.783 141.256 16.5494 141.256C16.4129 141.256 15.9859 142.256 15.9095 142.402C15.6541 142.894 15.2406 143.435 14.8448 143.831C14.139 144.536 13.4296 145.272 12.7819 146.032C12.0429 146.898 11.4772 147.805 10.934 148.811C10.291 150.002 9.60982 151.173 9.00425 152.384C8.27824 153.836 8.00043 155.44 7.94466 157.058C7.82539 160.516 7.99986 163.857 8.95306 167.193C9.48788 169.065 9.98106 170.893 11.2361 172.44C11.8021 173.137 12.114 173.494 13.0276 173.494C13.6078 173.494 14.2154 173.162 14.7783 173.013C15.8504 172.729 16.9091 172.488 17.9622 172.133C18.6707 171.893 19.3317 171.617 19.938 171.191C20.3646 170.891 20.5577 170.487 20.8594 170.065C22.4125 167.89 22.8657 165.447 23.4393 162.888C24.0078 160.352 24.4159 157.364 23.9512 154.79C23.3805 151.629 21.759 149.026 20.3066 146.221C19.9941 145.618 19.7478 144.96 19.4569 144.378" stroke="white" stroke-width="10.0695" stroke-linecap="round"/>
<path d="M67.2385 107.917C67.2385 104.924 68.3858 102.032 68.7935 99.0708C69.1803 96.2612 69.7218 93.5225 70.4291 90.7777C70.9027 88.9397 71.2814 87.2191 71.2814 85.3181C71.2814 84.3179 71.2814 83.3177 71.2814 82.3176C71.2814 81.8911 71.4186 81.4765 70.9128 81.3846C70.0419 81.2262 69.9005 81.7727 69.4155 82.3924C67.678 84.6126 65.4306 86.2738 64.1286 88.8426C62.866 91.3337 62.5833 94.0128 62.4297 96.7787C62.303 99.0587 62.1573 101.538 62.6888 103.782C63.0103 105.139 63.4511 106.555 64.2553 107.709C64.9725 108.739 65.8217 109.385 66.8584 110.076C67.6454 110.601 68.6768 110.927 69.6228 111.004C70.8609 111.104 72.3128 109.26 73.1013 108.521C74.9169 106.821 76.6674 104.631 77.8929 102.469C78.5441 101.319 78.886 99.9653 79.1023 98.6676C79.5954 95.709 79.6536 92.4089 78.3075 89.6719C77.9051 88.8537 77.3627 88.1201 76.9829 87.2761C76.6327 86.4979 76.4187 85.6655 75.8887 84.984C75.1496 84.0338 75.1023 84.8284 74.9615 85.5887C74.6185 87.4406 74.1139 89.232 73.6887 91.0656C72.9868 94.0926 72.6545 97.2451 72.3756 100.338C72.1851 102.451 72.3394 104.563 72.1914 106.673C72.1436 107.354 72.1201 108.096 71.9034 108.746" stroke="white" stroke-width="10.0695" stroke-linecap="round"/>
<path d="M68.4808 107.605C68.4808 106.879 68.3784 109.067 68.5038 109.782C68.706 110.934 69.4459 112 69.8284 113.093C70.0157 113.628 70.4504 114.332 70.4504 114.907C70.4504 115.259 70.7578 115.343 71.0724 115.253C71.4983 115.131 71.6825 114.574 71.9017 114.239C72.2152 113.76 72.4594 113.238 72.7771 112.765C73.5915 111.551 74.6186 110.508 75.3226 109.217C75.7568 108.421 76.0327 107.663 76.3131 106.821C76.5802 106.02 76.9785 105.526 76.5665 104.702" stroke="white" stroke-width="10.0695" stroke-linecap="round"/>
<path d="M77.2944 101.697C77.2944 101.191 77.5018 102.695 77.5018 103.2C77.5018 103.395 77.7091 103.854 77.7091 103.771" stroke="white" stroke-width="10.0695" stroke-linecap="round"/>
</g>
<defs>
<clipPath id="clip0_205_4183">
<rect width="137.074" height="183.091" fill="white"/>
</clipPath>
</defs>
</svg>
