<svg width="810" height="577" viewBox="0 0 810 577" fill="none" xmlns="http://www.w3.org/2000/svg">
<path d="M95.6135 287.838C24.8797 286.08 -83.4095 317.499 100.889 370.491C331.263 436.731 89.7516 246.219 189.99 257.942C290.229 269.666 307.229 275.528 283.195 370.491C259.161 465.454 341.814 515.281 402.778 480.109C463.742 444.938 347.676 300.734 432.674 355.25C517.672 409.766 565.153 440.834 524.706 505.315C484.259 569.797 560.824 570.383 609.704 570.383C662.461 570.383 794.354 526.577 664.22 480.109C534.085 433.641 784.975 375.181 784.975 324.182C784.975 261.238 696.46 287.838 609.704 329.458C522.947 371.077 328.918 264.977 410.985 229.805C493.052 194.634 518.104 259.638 574.532 236.253C639.6 209.288 505.362 148.913 483.673 115.499C455.831 72.6061 578.994 117.565 629.048 52.1903C686.495 -22.8409 772.187 -1.82582 738.188 69.1033C704.189 140.032 749.804 138.948 784.975 154.775C843.008 180.89 780.403 259.467 722.253 211.636" stroke="black" stroke-width="13" stroke-dasharray="35.17 35.17"/>
</svg>
