<svg width="138" height="184" viewBox="0 0 138 184" fill="none" xmlns="http://www.w3.org/2000/svg">
<g clip-path="url(#clip0_205_4067)">
<rect width="137.074" height="183.091" fill="black"/>
<path d="M12.53 92.5201C24.0097 85.2885 40.7382 65.7096 15.8417 44.8536" stroke="white" stroke-width="2.75126"/>
<path d="M13.6264 92.5874C3.89278 83.8835 -9.07761 62.2451 16.9375 44.9299" stroke="white" stroke-width="2.75126"/>
<path d="M12.7165 47.5582C24.1962 40.3266 40.9248 20.7477 16.0282 -0.108279" stroke="white" stroke-width="2.75126"/>
<path d="M13.8139 47.6262C4.08028 38.9223 -8.89011 17.284 17.125 -0.0313178" stroke="white" stroke-width="2.75126"/>
<path d="M19.5353 87.7051C27.1931 99.6541 47.8089 116.993 69.4218 90.7811" stroke="white" stroke-width="2.75126"/>
<path d="M19.4732 88.8574C28.4983 78.605 51.0266 64.8617 69.3504 91.9328" stroke="white" stroke-width="2.75126"/>
<path d="M66.5655 87.531C74.2233 99.48 94.8392 116.819 116.452 90.607" stroke="white" stroke-width="2.75126"/>
<path d="M66.504 88.6814C75.5291 78.429 98.0574 64.6857 116.381 91.7568" stroke="white" stroke-width="2.75126"/>
<path d="M13.589 181.107C25.0688 173.875 41.7973 154.297 16.9008 133.441" stroke="white" stroke-width="2.75126"/>
<path d="M14.686 181.173C4.95235 172.469 -8.01804 150.831 17.9971 133.515" stroke="white" stroke-width="2.75126"/>
<path d="M13.7722 136.042C25.2519 128.81 41.9804 109.231 17.0839 88.3754" stroke="white" stroke-width="2.75126"/>
<path d="M14.8691 136.107C5.13546 127.403 -7.83494 105.765 18.1802 88.4499" stroke="white" stroke-width="2.75126"/>
<path d="M118.272 92.5189C129.751 85.2873 146.48 65.7084 121.583 44.8524" stroke="white" stroke-width="2.75126"/>
<path d="M119.369 92.5862C109.635 83.8823 96.6651 62.2439 122.68 44.9286" stroke="white" stroke-width="2.75126"/>
<path d="M118.46 47.5591C129.94 40.3276 146.668 20.7487 121.772 -0.107303" stroke="white" stroke-width="2.75126"/>
<path d="M119.557 47.6262C109.823 38.9223 96.8531 17.284 122.868 -0.0313178" stroke="white" stroke-width="2.75126"/>
<path d="M119.332 181.106C130.812 173.874 147.54 154.295 122.644 133.439" stroke="white" stroke-width="2.75126"/>
<path d="M120.429 181.172C110.695 172.468 97.7246 150.829 123.74 133.514" stroke="white" stroke-width="2.75126"/>
<path d="M119.515 136.042C130.995 128.811 147.724 109.232 122.827 88.3759" stroke="white" stroke-width="2.75126"/>
<path d="M120.613 136.11C110.879 127.406 97.9087 105.767 123.924 88.4521" stroke="white" stroke-width="2.75126"/>
<path d="M16.0341 14.7653C16.0341 14.5185 16.2557 7.07031 15.8669 7.07031C15.2609 7.07031 14.4538 8.77495 14.1135 9.21401C12.5827 11.1893 10.7814 12.9174 9.42958 15.0379C8.28011 16.841 7.5934 19.0134 7.28589 21.1221C7.02388 22.9187 7.22393 24.881 7.22393 26.6981C7.22393 28.6063 7.47134 30.6081 7.89306 32.4725C8.16984 33.6961 9.2146 35.4284 10.4581 35.8429" stroke="white" stroke-width="10.0695" stroke-linecap="round"/>
<path d="M15.811 11.1957L18.9336 10.415" stroke="white" stroke-width="10.0695" stroke-linecap="round"/>
<path d="M18.5993 7.29346C18.5993 9.37387 19.3747 11.2719 19.7641 13.297C20.1182 15.1384 20.3837 16.8521 20.3837 18.7306C20.3837 22.592 19.0871 26.4013 16.9265 29.5978C16.098 30.8235 15.1528 32.0823 14.2004 33.2161C14.043 33.4034 13.838 33.6208 13.7172 33.8356C13.7063 33.855 13.6924 32.6898 13.6924 32.4974C13.6924 27.3543 15.3338 22.3668 15.6998 17.2437C15.767 16.3018 16.1485 14.6592 15.6998 13.7617" stroke="white" stroke-width="10.0695" stroke-linecap="round"/>
<path d="M18.152 14.3184C18.2852 14.3351 18.3627 14.6241 18.4494 14.7273C18.8787 15.2385 19.2431 15.7806 19.6265 16.3258C20.3938 17.4168 20.8799 18.4355 21.4419 19.6219C21.6622 20.0871 22.0025 20.7186 22.2163 19.8325C22.5218 18.5672 22.3634 16.6294 22.0305 15.3965C21.8916 14.8822 21.5909 14.4014 21.3304 13.9405C21.2893 13.8678 20.9559 13.475 20.94 13.7608C20.8616 15.1724 21.8021 16.5545 22.2783 17.8375C23.1474 20.1794 23.6165 22.6005 23.6165 25.0989C23.6165 26.4245 23.5115 27.215 22.7244 28.3082C21.507 29.999 19.6187 31.069 18.2635 32.6328C17.1706 33.8938 16.3043 35.2885 15.3082 36.6166C14.8867 37.1786 14.5135 37.5729 14.2239 38.1841C13.9372 38.7894 13.7838 39.3558 13.5796 39.9684" stroke="white" stroke-width="10.0695" stroke-linecap="round"/>
<path d="M13.5796 39.9692V40.8614" stroke="white" stroke-width="10.0695" stroke-linecap="round"/>
<path d="M16.7031 33.0552C16.792 33.4996 17.3828 33.9802 17.5953 34.3934C17.7657 34.7248 17.7308 35.0851 17.8431 35.4219C17.9276 35.6753 18.03 36.4447 18.2892 36.0415C18.5244 35.6756 18.8648 35.3857 19.0885 35.013C19.177 34.8654 19.1737 34.6622 19.2929 34.5297C19.3646 34.4501 19.4218 34.3594 19.3735 34.2385C19.3561 34.1953 19.063 34.5971 19.0203 34.6413C18.5488 35.1296 18.0679 35.5936 17.5953 36.0663C17.4672 36.1944 17.0557 36.5826 17.0377 36.7354C16.9812 37.2153 16.9276 37.0191 16.8146 36.6239" stroke="white" stroke-width="10.0695" stroke-linecap="round"/>
<path d="M39.2896 89.3868C36.1483 89.3868 33.007 89.3868 29.8657 89.3868C29.062 89.3868 27.9108 89.5948 27.1316 89.3722C25.24 88.8318 27.6784 88.1287 28.2951 87.9325C29.7215 87.4786 30.8651 86.7544 32.0763 86.0419C32.7076 85.6705 33.3985 84.9366 34.185 84.9366C36.6696 84.9366 38.8033 82.6721 41.1802 82.5806C42.899 82.5145 45.717 81.6664 47.4046 82.377C48.6358 82.8954 50.0631 82.7493 51.2149 83.4823C52.1619 84.0849 53.3834 84.2733 54.3417 84.8057C56.1805 85.8273 58.3244 86.1707 59.839 87.6852C60.5198 88.3661 60.8871 88.749 61.3369 89.6486C61.7498 90.4744 61.4721 91.2192 62.5876 91.2192" stroke="white" stroke-width="10.0695" stroke-linecap="round"/>
<path d="M38.3845 86.5702C38.0015 86.5223 37.6803 85.3164 37.6405 84.9583C37.5923 84.5242 37.1335 84.0794 36.8346 83.7804C36.5161 83.4619 36.0621 82.4785 35.5327 82.4785C35.4787 82.4785 34.7427 84.5025 34.651 84.6483C32.7332 87.6994 29.6486 90.1202 30.9451 94.0096C31.3877 95.3375 32.3451 96.0806 33.6177 96.6133C34.8417 97.1257 36.0876 97.3839 37.3925 97.6053C37.9435 97.6987 38.8688 98.0676 39.3764 97.7293" stroke="white" stroke-width="10.0695" stroke-linecap="round"/>
<path d="M40.7412 87.9333C40.8087 88.3048 41.2106 88.6001 41.4714 88.8288C42.3123 89.5665 43.2243 90.2331 44.1303 90.8884C44.7501 91.3368 45.531 91.9271 46.3483 91.7495C46.9709 91.6141 47.4509 91.0646 48.0635 90.854C49.2221 90.4557 51.0585 90.4241 52.0794 91.1571C53.6281 92.269 55.1197 93.2649 57.0803 93.2649C58.3822 93.2649 56.6883 94.0322 56.3088 94.1948C55.1113 94.708 53.9446 95.3331 52.7544 95.8687C50.681 96.8018 48.5808 97.308 46.3483 97.6321C45.4953 97.7559 44.6409 97.7285 43.779 97.7285C43.2197 97.7285 44.4357 97.9974 44.6813 98.073C44.8552 98.1264 45.8338 98.4528 45.8248 98.5965C45.8142 98.7652 45.0868 98.8444 44.9362 98.8444C44.555 98.8444 43.4388 98.9791 43.7927 98.8376C44.8697 98.4068 46.3832 98.5965 47.5331 98.5965C48.5649 98.5965 49.6047 98.582 50.5984 98.2796C52.3692 97.7407 54.1977 97.3937 55.7715 96.3647C56.3717 95.9723 57.0903 95.7652 57.6658 95.3176C58.2091 94.895 58.6976 94.9234 58.4717 94.1328" stroke="white" stroke-width="10.0695" stroke-linecap="round"/>
<path d="M90.3352 92.0252C88.4634 91.5776 86.7575 90.4449 84.9692 89.7452C83.762 89.2728 82.5721 88.7932 81.3252 88.4295C79.9521 88.029 78.7152 87.6855 77.2887 87.6855C75.7672 87.6855 74.5801 87.8383 73.1006 88.3055" stroke="white" stroke-width="10.0695" stroke-linecap="round"/>
<path d="M77.4372 88.3186C77.4372 88.5859 77.4372 87.7841 77.4372 87.5168C77.4372 87.1477 77.8168 86.7621 78.1095 86.5773C79.1654 85.9104 80.6378 85.4041 81.8757 85.2247C83.3365 85.013 84.7266 84.4112 86.1683 84.0908C86.3729 84.0453 86.9298 83.8595 87.0269 83.6534C87.2094 83.2654 85.3005 83.361 85.164 83.3618C84.3195 83.3671 83.6401 83.6198 82.8314 83.7668C82.1844 83.8844 81.5005 83.7589 80.8471 83.8073C80.6035 83.8253 79.0676 84.1775 80.0857 83.8721C82.0539 83.2816 84.0126 82.6405 86.0387 82.3089C87.2218 82.1153 88.4419 81.7582 89.6267 81.7582C91.2672 81.7582 92.6987 81.9423 94.2758 82.4223C97.2206 83.3186 99.9155 84.2498 102.586 85.8321C103.986 86.6621 104.995 87.7788 106.303 88.7236C106.851 89.1193 108.462 89.6861 108.628 90.4325C108.699 90.7508 108.525 90.9191 108.927 90.9428C109.144 90.9555 109.487 91.0886 109.008 91.0886C107.91 91.0886 106.811 91.0886 105.712 91.0886C104.864 91.0886 103.952 90.9141 103.112 90.797C101.112 90.5183 99.0219 90.3772 97.0862 89.7765C95.4272 89.2616 93.7025 88.5445 92.2266 87.6221C91.3583 87.0794 90.604 86.4234 89.5376 86.4234C88.2595 86.4234 87.207 86.4935 85.9901 86.9498C84.2995 87.5838 82.5694 88.3291 80.7904 88.675C79.8079 88.866 78.8232 88.8055 77.8422 88.9342C77.2166 89.0162 76.1636 89.0341 75.6878 89.4849C74.6347 90.4826 78.5516 93.5801 79.3325 94.1825C82.0112 96.249 85.0803 97.0781 88.3713 97.6166C89.7043 97.8348 91.0341 98.0864 92.3805 98.0864C93.8524 98.0864 95.1791 97.9931 96.6165 97.7948C99.9099 97.3406 103.106 95.7054 105.866 93.9314C106.592 93.4647 107.309 92.8728 107.939 92.2873C108.293 91.9585 108.785 91.8465 109.146 91.5259C109.544 91.172 109.939 90.7196 110.385 90.4325C111.347 89.8141 112.295 88.7868 113.01 87.9136C114.767 85.7659 116.322 83.5152 117.537 81.0049C118.423 79.1743 118.94 77.284 119.683 75.4083C120.425 73.5379 121.152 71.6707 121.903 69.8036C122.632 67.9899 123.263 66.1689 123.911 64.3284C124.111 63.7596 124.235 63.1182 124.235 62.5142" stroke="white" stroke-width="10.0695" stroke-linecap="round"/>
<path d="M95.5151 85.8391C95.5151 86.568 95.5151 84.3812 95.5151 83.6522C95.5151 82.8057 95.7586 82.5448 96.5357 82.2673C97.6212 81.8796 97.7229 82.7099 98.5767 82.9233" stroke="white" stroke-width="10.0695" stroke-linecap="round"/>
<path d="M114.467 85.4017C114.467 87.4882 114.406 81.2227 114.176 79.149C113.999 77.5572 113.884 76.0601 113.884 74.4595C113.884 72.689 114.03 70.9324 114.03 69.1544C114.03 67.6954 114.641 66.3614 114.767 64.9185C114.801 64.5298 115.203 63.1351 114.872 62.837C114.28 62.3037 113.693 63.6545 113.52 63.9628C112.907 65.0524 113.009 66.8948 113.009 68.1339C113.009 69.7322 113.009 71.3305 113.009 72.9287C113.009 73.5798 113.231 73.4644 113.447 72.8639C113.891 71.6249 114.488 70.4624 114.905 69.2111C115.797 66.5342 116.562 63.8092 117.456 61.128C117.832 60.0011 118.302 58.4177 119.06 57.4914C119.746 56.6525 119.943 55.846 120.299 54.8672C120.551 54.1737 121.174 53.4236 121.174 52.6642C121.174 52.4815 121.288 51.74 121.028 51.7247C120.482 51.6926 119.998 52.4065 119.651 52.7371C118.588 53.7489 117.451 54.9362 116.573 56.1064C115.838 57.0866 115.779 57.4417 115.779 58.6415C115.779 59.2659 118.119 59.0141 118.452 59.0141C119.506 59.0141 120.558 59.1475 121.319 58.277C121.842 57.6799 122.223 56.9595 122.34 56.1712C122.424 55.6062 122.599 54.3794 123.215 54.0897C123.358 54.0223 123.472 54.932 123.506 55.0697C123.653 55.6558 124.107 56.4187 124.413 56.9406C126.839 61.0726 128.212 65.9988 126.681 70.7095C125.783 73.4725 124.201 75.8989 122.664 78.3391C121.366 80.3984 119.984 82.4468 118.29 84.203C117.766 84.7462 116.654 85.7498 116.654 86.568C116.654 87.1809 117.199 87.0846 117.747 86.9892C118.618 86.8378 119.202 85.8087 119.748 85.2235C121.973 82.8394 124.082 80.4595 125.547 77.5291C127.11 74.403 127.734 70.8392 127.734 67.3564C127.734 65.8161 127.906 64.2519 127.88 62.6912C127.865 61.7945 127.439 60.9584 127.232 60.0994C127.14 59.7201 126.796 58.3556 127.297 59.3866C127.575 59.9597 127.744 60.7556 127.888 61.3791C128.263 63.005 128.734 64.5756 129.046 66.2225C129.369 67.9277 129.483 69.5884 129.483 71.317C129.483 72.7796 129.161 73.6528 128.026 74.6134" stroke="white" stroke-width="10.0695" stroke-linecap="round"/>
<path d="M120.736 20.9653C120.736 18.5355 120.736 16.1057 120.736 13.6759C120.736 12.0375 120.775 10.3922 121.206 8.80009C121.334 8.3248 121.784 7.73459 121.756 7.26122C121.743 7.0371 121.452 7.15992 121.351 6.96964C121.209 6.70048 121.378 6.76432 121.1 7.04253C119.867 8.27534 118.823 9.68206 117.707 11.0517C116.802 12.1623 116.043 13.4258 115.455 14.7288C114.641 16.5313 113.592 18.116 113.592 20.1715C113.592 22.5995 113.513 25.0338 113.738 27.4528C113.929 29.5024 114.48 31.2324 115.309 33.0981C116.054 34.7737 117.13 36.4881 117.391 38.314C117.502 39.0906 118.024 39.7411 118.695 40.0959C118.958 40.2352 119.242 40.4428 119.456 40.6143C119.923 40.9877 120.341 39.9162 120.525 39.699C122.501 37.3638 124.24 34.8048 125.976 32.2881C127.498 30.0807 128.874 27.6387 129.483 24.9987C130.07 22.4566 130.194 20.0748 129.92 17.4745C129.629 14.7059 128.241 12.4592 126.454 10.3876C125.425 9.19445 124.042 8.59458 122.858 7.62569C122.677 7.47767 121.967 7.21647 122.056 6.90484C122.133 6.63426 123.568 6.22085 123.392 6.79145C123.248 7.26001 123.214 7.67653 123.214 8.16834C123.214 9.64867 123.1 11.128 123.036 12.6068C122.827 17.4684 122.631 22.3275 122.631 27.1937C122.631 28.2635 122.886 29.6908 122.275 30.6521C121.729 31.5101 121.377 30.6438 121.319 30.0041" stroke="white" stroke-width="10.0695" stroke-linecap="round"/>
<path d="M119.423 117.769C119.423 113.84 119.308 109.915 119.278 105.992C119.264 104.192 119.142 102.304 119.496 100.533C119.684 99.5927 120.012 98.6703 120.152 97.7227C120.29 96.7956 120.384 95.6331 120.663 94.7421C120.733 94.5166 120.803 94.1509 120.444 94.1509C120.054 94.1509 120.477 95.0963 120.525 95.22C121.228 97.0395 122.781 98.4657 123.797 100.128C125.538 102.978 126.655 105.781 127.49 109.021C128.416 112.612 128.065 115.98 126.851 119.445C125.811 122.41 124.05 124.77 122.193 127.245C121.527 128.133 120.491 129.144 120.039 130.16C119.832 130.626 120.642 130.283 120.744 130.217C121.589 129.668 122.075 128.478 122.574 127.642C123.669 125.807 124.658 123.921 125.773 122.094C126.417 121.038 127.048 119.913 127.579 118.797C128.443 116.983 128.821 114.984 129.596 113.136C130.257 111.56 130.212 110.151 130.212 108.438C130.212 107.146 130.228 105.537 129.191 104.575C128.497 103.93 127.578 102.576 127.296 101.659C127.048 100.855 126.164 100.369 125.692 99.7232C125.207 99.0594 124.382 97.301 123.433 97.5121C123.043 97.5988 122.401 98.8585 122.129 99.1806C121.363 100.085 120.285 100.747 119.423 101.586C118.544 102.442 117.703 103.103 117.058 104.178C116.218 105.578 115.441 107.223 115.349 108.875C115.231 111.01 115.283 113.188 115.633 115.29C115.884 116.797 116.521 118.202 116.945 119.664C117.321 120.957 117.562 122.381 118.144 123.6C118.678 124.719 119.218 125.835 119.747 126.953C120.134 127.77 118.673 127.515 118.322 127.164C117.202 126.044 116.446 124.572 115.771 123.155C114.863 121.249 113.603 119.278 113.333 117.153C113.115 115.441 113.317 113.673 113.851 112.05C114.499 110.082 114.95 108.041 115.633 106.089C116.146 104.623 116.675 103.08 117.083 101.586C117.236 101.023 117.637 100.346 117.382 99.8366" stroke="white" stroke-width="10.0695" stroke-linecap="round"/>
<path d="M124.963 96.3362C124.963 95.8288 124.867 95.7072 124.671 95.3157" stroke="white" stroke-width="10.0695" stroke-linecap="round"/>
<path d="M121.028 162.087C121.028 156.363 121.028 150.64 121.028 144.916C121.028 144.133 120.956 142.808 121.498 142.146C121.762 141.824 121.697 141.338 121.87 140.948C121.91 140.858 121.903 140.328 121.903 140.51C121.903 141.221 122.003 141.793 122.356 142.422C123.399 144.276 125.124 145.646 126.049 147.581C126.951 149.466 127.151 151.576 127.151 153.631C127.151 159.605 123.686 165.373 120.186 170.04C119.749 170.623 119.278 171.085 119.278 171.855C119.278 172.433 119.862 172.648 119.862 173.167C119.862 173.399 120.007 173.572 120.007 173.75C120.007 173.938 119.742 174.112 119.716 174.333C119.678 174.653 119.733 174.727 120.121 174.365C120.64 173.882 121.004 173.314 121.4 172.737C122.257 171.492 123.602 170.635 124.462 169.384C125.207 168.301 126.079 167.373 126.681 166.169C128.179 163.173 128.64 159.708 129.419 156.482C129.7 155.317 129.907 153.571 129.548 152.392C129.192 151.22 128.279 150.423 127.807 149.322C127.372 148.308 126.725 147.156 125.985 146.334C124.883 145.109 124.095 143.658 122.923 142.486C122.487 142.05 122.022 141.482 121.724 140.948C121.525 140.588 121.319 139.37 121.319 139.781C121.319 141.734 119.441 143.112 118.12 144.301C117.016 145.295 115.804 146.626 115.358 148.075C115.069 149.015 114.668 149.888 114.548 150.877C114.365 152.397 114.434 154.008 114.476 155.534C114.573 159.123 115.42 162.705 115.998 166.242C116.252 167.793 116.291 169.452 117.059 170.834C117.861 172.277 118.443 170.227 118.663 169.376C119.582 165.822 120.456 162.266 121.465 158.734C121.979 156.934 122.338 155.145 122.632 153.299C122.871 151.796 123.261 150.295 123.344 148.771C123.472 146.444 123.506 144.083 123.506 141.749C123.506 140.718 123.534 139.863 123.215 138.906" stroke="white" stroke-width="10.0695" stroke-linecap="round"/>
<path d="M126.712 145.467C126.77 144.945 127.441 144.648 127.441 144.155" stroke="white" stroke-width="10.0695" stroke-linecap="round"/>
<path d="M15.4517 69.6914C15.4517 71.8302 15.4517 65.4138 15.4517 63.275C15.4517 61.9661 15.3399 60.6002 15.4933 59.296C15.6021 58.3716 15.8266 57.5012 15.8266 56.5669C15.8266 55.8535 16.23 51.8796 15.2642 51.8796" stroke="white" stroke-width="10.0695" stroke-linecap="round"/>
<path d="M14.9675 56.4094C13.8685 56.4094 12.8683 56.6886 11.7967 56.9142C10.9819 57.0857 10.6941 57.1466 10.3421 57.8135C9.87839 58.6922 9.35029 59.5392 8.94257 60.4566C8.2281 62.0642 8.14832 63.7558 7.98813 65.4858C7.84611 67.0197 7.76637 68.513 7.78164 70.056C7.79763 71.6704 8.42999 73.1771 8.85998 74.7089C9.22941 76.025 9.42436 77.5643 10.076 78.7745C10.2787 79.1509 10.4723 79.965 10.9203 80.1143" stroke="white" stroke-width="10.0695" stroke-linecap="round"/>
<path d="M14.3063 67.5601C14.5441 67.7087 14.3889 68.7957 14.3889 69.0147C14.3889 71 14.3889 72.9854 14.3889 74.9707C14.3889 75.7046 14.4222 76.4501 14.3063 77.1779C14.2202 77.718 13.8936 78.1875 13.6455 78.6646C12.9528 79.9967 11.6953 80.62 11.5852 82.2162C11.527 83.0603 11.4227 83.7712 12.2001 84.2031C12.5024 84.371 13.2909 84.045 12.9848 84.6573" stroke="white" stroke-width="10.0695" stroke-linecap="round"/>
<path d="M13.0688 84.6557C13.0688 84.9448 13.0688 85.2339 13.0688 85.523C13.0688 86.234 14.3072 84.5219 14.4317 84.3758C14.6438 84.1268 14.8208 83.7902 15.0695 83.582C15.4778 83.2402 15.856 82.9311 16.2075 82.5266C17.1541 81.4371 17.8397 80.2416 18.5385 78.975C19.4742 77.279 20.2032 75.6259 20.8282 73.7898C21.1953 72.7115 21.5173 71.5814 21.6588 70.4493C21.8005 69.3155 21.8177 68.1598 21.902 67.0216C21.9471 66.4123 22.028 66.7708 21.98 67.1547C21.8592 68.1208 21.7414 69.0133 21.7414 69.9996C21.7414 71.7095 21.6752 73.3774 21.3468 75.0563C21.2404 75.5997 21.2577 76.1725 21.099 76.7082C20.8799 77.4476 21.796 75.3296 22.0764 74.6112C22.5633 73.3635 22.9752 72.0871 23.2694 70.7797C23.4986 69.7612 23.6411 68.7299 23.6411 67.6869C23.6411 66.5241 22.8196 65.4322 22.3379 64.3923C22.0767 63.8283 21.7236 63.2876 21.5119 62.7037C21.2618 62.0137 21.0284 61.2801 20.6676 60.6388C20.3173 60.016 19.908 59.6956 19.4287 59.2163" stroke="white" stroke-width="10.0695" stroke-linecap="round"/>
<path d="M23.3096 63.1822C23.3096 64.1121 23.3298 61.322 23.3096 60.3923C23.3006 59.9808 22.9132 59.527 22.6763 59.2084C22.3425 58.7594 22.1473 58.2082 21.7861 57.7813C21.505 57.4491 20.6665 56.6776 20.6665 56.2441" stroke="white" stroke-width="10.0695" stroke-linecap="round"/>
<path d="M19.1504 89.3048C19.1504 87.868 19.1504 92.1784 19.1504 93.6152C19.1504 96.9406 18.9227 100.204 18.286 103.474C17.6479 106.752 17.1757 110.031 16.2885 113.257C16.0755 114.032 15.8108 114.741 15.4825 115.471C15.346 115.774 15.2893 116.085 15.0503 116.324" stroke="white" stroke-width="10.0695" stroke-linecap="round"/>
<path d="M17.2582 95.1926C17.2582 95.6251 16.9236 95.9106 16.6741 96.2498C16.1781 96.9244 15.7384 97.6134 15.2257 98.2765C14.3778 99.3729 13.8351 100.698 13.1581 101.898C12.3868 103.264 11.7793 104.638 11.3475 106.15C10.9423 107.568 10.7116 108.989 10.4889 110.448C10.4146 110.936 10.3195 112.597 10.3195 111.138C10.3195 109.273 10.8104 107.486 11.1839 105.671C11.4401 104.426 11.641 103.159 11.9491 101.927C12.2809 100.599 11.1123 101.895 10.8393 102.359C9.44184 104.735 8.10939 107.31 8.01246 110.121C7.90066 113.364 8.78327 116.613 10.1093 119.56C11.0663 121.687 11.7935 123.899 12.8193 125.996C13.2193 126.814 13.7471 127.458 14.2561 128.198C14.3802 128.379 14.7263 128.809 14.9453 128.835C15.0802 128.851 15.194 129.003 15.3191 129.039C15.5748 129.112 15.801 128.586 15.8915 128.414C16.3178 127.606 17.0286 126.883 17.5794 126.154C18.2971 125.204 19.1035 124.295 19.7755 123.315C22.1712 119.822 23.7764 115.442 23.7764 111.173C23.7764 109.711 23.9384 108.149 23.7297 106.699C23.5443 105.411 23.1114 104.096 22.7776 102.838C22.5448 101.96 22.1424 101.133 21.884 100.262C21.7965 99.9675 21.5686 99.5859 21.5686 99.2928" stroke="white" stroke-width="10.0695" stroke-linecap="round"/>
<path d="M15.9956 163.529C15.9956 166.866 15.9835 156.855 15.9956 153.518C16.0083 149.99 15.9771 146.374 16.3928 142.864C16.4473 142.404 17.0464 140.399 16.4161 140.084" stroke="white" stroke-width="10.0695" stroke-linecap="round"/>
<path d="M16.4172 140.084C15.3507 140.671 14.3534 141.738 13.5553 142.642C12.4362 143.911 11.3756 145.455 10.746 147.029C9.76124 149.49 9.59778 152.049 9.21571 154.639C9.0592 155.7 9.05802 156.746 9.05802 157.816C9.05802 159.033 9.01726 160.191 9.37925 161.367C9.96697 163.277 10.5913 165.227 11.3709 167.068C11.8288 168.149 12.0869 169.501 12.9479 170.362C13.5866 171.001 14.1028 171.551 14.63 172.254" stroke="white" stroke-width="10.0695" stroke-linecap="round"/>
<path d="M13.1577 168.363C13.1577 170.325 13.0455 172.109 13.8469 173.941C14.0368 174.375 14.377 175.327 14.8398 174.542C15.33 173.712 15.6424 172.889 16.2649 172.142C17.2172 170.999 18.3876 170.059 19.4423 169.017C21.3859 167.098 22.8201 165.013 23.776 162.464C24.2696 161.148 24.5918 159.65 24.6988 158.247C24.8305 156.521 24.9045 154.546 24.6638 152.827C24.5179 151.785 23.9968 150.722 23.6125 149.749C23.2697 148.881 22.9667 147.917 22.5144 147.103C22.0757 146.313 21.6775 145.503 21.1477 144.767C20.9088 144.435 20.5898 144.118 20.4118 143.762" stroke="white" stroke-width="10.0695" stroke-linecap="round"/>
</g>
<defs>
<clipPath id="clip0_205_4067">
<rect width="137.074" height="183.091" fill="white"/>
</clipPath>
</defs>
</svg>
