<svg width="2257" height="1162" viewBox="0 0 2257 1162" fill="none" xmlns="http://www.w3.org/2000/svg">
<g clip-path="url(#clip0_512_5911)">
<rect width="2257" height="1162" fill="white"/>
<circle cx="99" cy="115" r="7" fill="black"/>
<circle cx="206" cy="115" r="7" fill="black"/>
<circle cx="314" cy="115" r="7" fill="black"/>
<ellipse cx="421.5" cy="115" rx="6.5" ry="7" fill="black"/>
<circle cx="529" cy="115" r="7" fill="black"/>
<circle cx="637" cy="115" r="7" fill="black"/>
<ellipse cx="744.5" cy="115" rx="6.5" ry="7" fill="black"/>
<circle cx="852" cy="115" r="7" fill="black"/>
<circle cx="960" cy="115" r="7" fill="black"/>
<circle cx="1067" cy="115" r="7" fill="black"/>
<circle cx="1175" cy="115" r="7" fill="black"/>
<ellipse cx="1282.5" cy="115" rx="6.5" ry="7" fill="black"/>
<circle cx="1390" cy="115" r="7" fill="black"/>
<circle cx="52" cy="57" r="7" fill="black"/>
<ellipse cx="159.5" cy="57" rx="6.5" ry="7" fill="black"/>
<circle cx="267" cy="57" r="7" fill="black"/>
<circle cx="375" cy="57" r="7" fill="black"/>
<circle cx="482" cy="57" r="7" fill="black"/>
<circle cx="590" cy="57" r="7" fill="black"/>
<ellipse cx="697.5" cy="57" rx="6.5" ry="7" fill="black"/>
<circle cx="805" cy="57" r="7" fill="black"/>
<circle cx="913" cy="57" r="7" fill="black"/>
<ellipse cx="1020.5" cy="57" rx="6.5" ry="7" fill="black"/>
<circle cx="1128" cy="57" r="7" fill="black"/>
<circle cx="1236" cy="57" r="7" fill="black"/>
<circle cx="1343" cy="57" r="7" fill="black"/>
<circle cx="1498" cy="115" r="7" fill="black"/>
<circle cx="1605" cy="115" r="7" fill="black"/>
<circle cx="1713" cy="115" r="7" fill="black"/>
<ellipse cx="1820.5" cy="115" rx="6.5" ry="7" fill="black"/>
<circle cx="1928" cy="115" r="7" fill="black"/>
<circle cx="1451" cy="57" r="7" fill="black"/>
<ellipse cx="1558.5" cy="57" rx="6.5" ry="7" fill="black"/>
<circle cx="1666" cy="57" r="7" fill="black"/>
<circle cx="1774" cy="57" r="7" fill="black"/>
<circle cx="1881" cy="57" r="7" fill="black"/>
<ellipse cx="2035.5" cy="115" rx="6.5" ry="7" fill="black"/>
<circle cx="2143" cy="115" r="7" fill="black"/>
<circle cx="1989" cy="57" r="7" fill="black"/>
<circle cx="2096" cy="57" r="7" fill="black"/>
<circle cx="92" cy="231" r="7" fill="black"/>
<circle cx="199" cy="231" r="7" fill="black"/>
<circle cx="307" cy="231" r="7" fill="black"/>
<ellipse cx="414.5" cy="231" rx="6.5" ry="7" fill="black"/>
<circle cx="522" cy="231" r="7" fill="black"/>
<circle cx="630" cy="231" r="7" fill="black"/>
<ellipse cx="737.5" cy="231" rx="6.5" ry="7" fill="black"/>
<circle cx="845" cy="231" r="7" fill="black"/>
<circle cx="953" cy="231" r="7" fill="black"/>
<circle cx="1060" cy="231" r="7" fill="black"/>
<circle cx="1168" cy="231" r="7" fill="black"/>
<ellipse cx="1275.5" cy="231" rx="6.5" ry="7" fill="black"/>
<circle cx="1383" cy="231" r="7" fill="black"/>
<circle cx="52" cy="173" r="7" fill="black"/>
<ellipse cx="159.5" cy="173" rx="6.5" ry="7" fill="black"/>
<circle cx="267" cy="173" r="7" fill="black"/>
<circle cx="375" cy="173" r="7" fill="black"/>
<circle cx="482" cy="173" r="7" fill="black"/>
<circle cx="590" cy="173" r="7" fill="black"/>
<ellipse cx="697.5" cy="173" rx="6.5" ry="7" fill="black"/>
<circle cx="805" cy="173" r="7" fill="black"/>
<circle cx="913" cy="173" r="7" fill="black"/>
<ellipse cx="1020.5" cy="173" rx="6.5" ry="7" fill="black"/>
<circle cx="1128" cy="173" r="7" fill="black"/>
<circle cx="1236" cy="173" r="7" fill="black"/>
<circle cx="1343" cy="173" r="7" fill="black"/>
<circle cx="1491" cy="231" r="7" fill="black"/>
<circle cx="1598" cy="231" r="7" fill="black"/>
<circle cx="1706" cy="231" r="7" fill="black"/>
<ellipse cx="1813.5" cy="231" rx="6.5" ry="7" fill="black"/>
<circle cx="1921" cy="231" r="7" fill="black"/>
<circle cx="1451" cy="173" r="7" fill="black"/>
<ellipse cx="1558.5" cy="173" rx="6.5" ry="7" fill="black"/>
<circle cx="1666" cy="173" r="7" fill="black"/>
<circle cx="1774" cy="173" r="7" fill="black"/>
<circle cx="1881" cy="173" r="7" fill="black"/>
<ellipse cx="2028.5" cy="231" rx="6.5" ry="7" fill="black"/>
<circle cx="2136" cy="231" r="7" fill="black"/>
<circle cx="1989" cy="173" r="7" fill="black"/>
<circle cx="2096" cy="173" r="7" fill="black"/>
<circle cx="2204" cy="173" r="7" fill="black"/>
<circle cx="106" cy="347" r="7" fill="black"/>
<circle cx="213" cy="347" r="7" fill="black"/>
<circle cx="321" cy="347" r="7" fill="black"/>
<ellipse cx="428.5" cy="347" rx="6.5" ry="7" fill="black"/>
<circle cx="536" cy="347" r="7" fill="black"/>
<circle cx="644" cy="347" r="7" fill="black"/>
<ellipse cx="751.5" cy="347" rx="6.5" ry="7" fill="black"/>
<circle cx="859" cy="347" r="7" fill="black"/>
<circle cx="967" cy="347" r="7" fill="black"/>
<circle cx="1074" cy="347" r="7" fill="black"/>
<circle cx="1182" cy="347" r="7" fill="black"/>
<ellipse cx="1289.5" cy="347" rx="6.5" ry="7" fill="black"/>
<circle cx="1397" cy="347" r="7" fill="black"/>
<circle cx="52" cy="289" r="7" fill="black"/>
<ellipse cx="159.5" cy="289" rx="6.5" ry="7" fill="black"/>
<circle cx="267" cy="289" r="7" fill="black"/>
<circle cx="375" cy="289" r="7" fill="black"/>
<circle cx="482" cy="289" r="7" fill="black"/>
<circle cx="590" cy="289" r="7" fill="black"/>
<ellipse cx="697.5" cy="289" rx="6.5" ry="7" fill="black"/>
<circle cx="805" cy="289" r="7" fill="black"/>
<circle cx="913" cy="289" r="7" fill="black"/>
<ellipse cx="1020.5" cy="289" rx="6.5" ry="7" fill="black"/>
<circle cx="1128" cy="289" r="7" fill="black"/>
<circle cx="1236" cy="289" r="7" fill="black"/>
<circle cx="1343" cy="289" r="7" fill="black"/>
<circle cx="1505" cy="347" r="7" fill="black"/>
<circle cx="1612" cy="347" r="7" fill="black"/>
<circle cx="1720" cy="347" r="7" fill="black"/>
<ellipse cx="1827.5" cy="347" rx="6.5" ry="7" fill="black"/>
<circle cx="1935" cy="347" r="7" fill="black"/>
<circle cx="1451" cy="289" r="7" fill="black"/>
<ellipse cx="1558.5" cy="289" rx="6.5" ry="7" fill="black"/>
<circle cx="1666" cy="289" r="7" fill="black"/>
<circle cx="1774" cy="289" r="7" fill="black"/>
<circle cx="1881" cy="289" r="7" fill="black"/>
<ellipse cx="2042.5" cy="347" rx="6.5" ry="7" fill="black"/>
<circle cx="2150" cy="347" r="7" fill="black"/>
<circle cx="1989" cy="289" r="7" fill="black"/>
<circle cx="2096" cy="289" r="7" fill="black"/>
<circle cx="2204" cy="289" r="7" fill="black"/>
<circle cx="106" cy="463" r="7" fill="black"/>
<circle cx="213" cy="463" r="7" fill="black"/>
<circle cx="321" cy="463" r="7" fill="black"/>
<ellipse cx="428.5" cy="463" rx="6.5" ry="7" fill="black"/>
<circle cx="536" cy="463" r="7" fill="black"/>
<circle cx="644" cy="463" r="7" fill="black"/>
<ellipse cx="751.5" cy="463" rx="6.5" ry="7" fill="black"/>
<circle cx="859" cy="463" r="7" fill="black"/>
<circle cx="967" cy="463" r="7" fill="black"/>
<circle cx="1074" cy="463" r="7" fill="black"/>
<circle cx="1182" cy="463" r="7" fill="black"/>
<ellipse cx="1289.5" cy="463" rx="6.5" ry="7" fill="black"/>
<circle cx="1397" cy="463" r="7" fill="black"/>
<circle cx="52" cy="405" r="7" fill="black"/>
<ellipse cx="159.5" cy="405" rx="6.5" ry="7" fill="black"/>
<circle cx="267" cy="405" r="7" fill="black"/>
<circle cx="375" cy="405" r="7" fill="black"/>
<circle cx="482" cy="405" r="7" fill="black"/>
<circle cx="590" cy="405" r="7" fill="black"/>
<ellipse cx="697.5" cy="405" rx="6.5" ry="7" fill="black"/>
<circle cx="805" cy="405" r="7" fill="black"/>
<circle cx="913" cy="405" r="7" fill="black"/>
<ellipse cx="1020.5" cy="405" rx="6.5" ry="7" fill="black"/>
<circle cx="1128" cy="405" r="7" fill="black"/>
<circle cx="1236" cy="405" r="7" fill="black"/>
<circle cx="1343" cy="405" r="7" fill="black"/>
<circle cx="1505" cy="463" r="7" fill="black"/>
<circle cx="1612" cy="463" r="7" fill="black"/>
<circle cx="1720" cy="463" r="7" fill="black"/>
<ellipse cx="1827.5" cy="463" rx="6.5" ry="7" fill="black"/>
<circle cx="1935" cy="463" r="7" fill="black"/>
<circle cx="1451" cy="405" r="7" fill="black"/>
<ellipse cx="1558.5" cy="405" rx="6.5" ry="7" fill="black"/>
<circle cx="1666" cy="405" r="7" fill="black"/>
<circle cx="1774" cy="405" r="7" fill="black"/>
<circle cx="1881" cy="405" r="7" fill="black"/>
<ellipse cx="2042.5" cy="463" rx="6.5" ry="7" fill="black"/>
<circle cx="2150" cy="463" r="7" fill="black"/>
<circle cx="1989" cy="405" r="7" fill="black"/>
<circle cx="2096" cy="405" r="7" fill="black"/>
<circle cx="2204" cy="405" r="7" fill="black"/>
<circle cx="99" cy="579" r="7" fill="black"/>
<circle cx="206" cy="579" r="7" fill="black"/>
<circle cx="314" cy="579" r="7" fill="black"/>
<ellipse cx="421.5" cy="579" rx="6.5" ry="7" fill="black"/>
<circle cx="529" cy="579" r="7" fill="black"/>
<circle cx="637" cy="579" r="7" fill="black"/>
<ellipse cx="744.5" cy="579" rx="6.5" ry="7" fill="black"/>
<circle cx="852" cy="579" r="7" fill="black"/>
<circle cx="960" cy="579" r="7" fill="black"/>
<circle cx="1067" cy="579" r="7" fill="black"/>
<circle cx="1175" cy="579" r="7" fill="black"/>
<ellipse cx="1282.5" cy="579" rx="6.5" ry="7" fill="black"/>
<circle cx="1390" cy="579" r="7" fill="black"/>
<circle cx="52" cy="521" r="7" fill="black"/>
<ellipse cx="159.5" cy="521" rx="6.5" ry="7" fill="black"/>
<circle cx="267" cy="521" r="7" fill="black"/>
<circle cx="375" cy="521" r="7" fill="black"/>
<circle cx="482" cy="521" r="7" fill="black"/>
<circle cx="590" cy="521" r="7" fill="black"/>
<ellipse cx="697.5" cy="521" rx="6.5" ry="7" fill="black"/>
<circle cx="805" cy="521" r="7" fill="black"/>
<circle cx="913" cy="521" r="7" fill="black"/>
<ellipse cx="1020.5" cy="521" rx="6.5" ry="7" fill="black"/>
<circle cx="1128" cy="521" r="7" fill="black"/>
<circle cx="1236" cy="521" r="7" fill="black"/>
<circle cx="1343" cy="521" r="7" fill="black"/>
<circle cx="1498" cy="579" r="7" fill="black"/>
<circle cx="1605" cy="579" r="7" fill="black"/>
<circle cx="1713" cy="579" r="7" fill="black"/>
<ellipse cx="1820.5" cy="579" rx="6.5" ry="7" fill="black"/>
<circle cx="1928" cy="579" r="7" fill="black"/>
<circle cx="1451" cy="521" r="7" fill="black"/>
<ellipse cx="1558.5" cy="521" rx="6.5" ry="7" fill="black"/>
<circle cx="1666" cy="521" r="7" fill="black"/>
<circle cx="1774" cy="521" r="7" fill="black"/>
<circle cx="1881" cy="521" r="7" fill="black"/>
<ellipse cx="2035.5" cy="579" rx="6.5" ry="7" fill="black"/>
<circle cx="2143" cy="579" r="7" fill="black"/>
<circle cx="1989" cy="521" r="7" fill="black"/>
<circle cx="2096" cy="521" r="7" fill="black"/>
<circle cx="2204" cy="521" r="7" fill="black"/>
<circle cx="92" cy="695" r="7" fill="black"/>
<circle cx="199" cy="695" r="7" fill="black"/>
<circle cx="307" cy="695" r="7" fill="black"/>
<ellipse cx="414.5" cy="695" rx="6.5" ry="7" fill="black"/>
<circle cx="522" cy="695" r="7" fill="black"/>
<circle cx="630" cy="695" r="7" fill="black"/>
<ellipse cx="737.5" cy="695" rx="6.5" ry="7" fill="black"/>
<circle cx="845" cy="695" r="7" fill="black"/>
<circle cx="953" cy="695" r="7" fill="black"/>
<circle cx="1060" cy="695" r="7" fill="black"/>
<circle cx="1168" cy="695" r="7" fill="black"/>
<ellipse cx="1275.5" cy="695" rx="6.5" ry="7" fill="black"/>
<circle cx="1383" cy="695" r="7" fill="black"/>
<circle cx="52" cy="637" r="7" fill="black"/>
<ellipse cx="159.5" cy="637" rx="6.5" ry="7" fill="black"/>
<circle cx="267" cy="637" r="7" fill="black"/>
<circle cx="375" cy="637" r="7" fill="black"/>
<circle cx="482" cy="637" r="7" fill="black"/>
<circle cx="590" cy="637" r="7" fill="black"/>
<ellipse cx="697.5" cy="637" rx="6.5" ry="7" fill="black"/>
<circle cx="805" cy="637" r="7" fill="black"/>
<circle cx="913" cy="637" r="7" fill="black"/>
<ellipse cx="1020.5" cy="637" rx="6.5" ry="7" fill="black"/>
<circle cx="1128" cy="637" r="7" fill="black"/>
<circle cx="1236" cy="637" r="7" fill="black"/>
<circle cx="1343" cy="637" r="7" fill="black"/>
<circle cx="1491" cy="695" r="7" fill="black"/>
<circle cx="1598" cy="695" r="7" fill="black"/>
<circle cx="1706" cy="695" r="7" fill="black"/>
<ellipse cx="1813.5" cy="695" rx="6.5" ry="7" fill="black"/>
<circle cx="1921" cy="695" r="7" fill="black"/>
<circle cx="1451" cy="637" r="7" fill="black"/>
<ellipse cx="1558.5" cy="637" rx="6.5" ry="7" fill="black"/>
<circle cx="1666" cy="637" r="7" fill="black"/>
<circle cx="1774" cy="637" r="7" fill="black"/>
<circle cx="1881" cy="637" r="7" fill="black"/>
<ellipse cx="2028.5" cy="695" rx="6.5" ry="7" fill="black"/>
<circle cx="2136" cy="695" r="7" fill="black"/>
<circle cx="1989" cy="637" r="7" fill="black"/>
<circle cx="2096" cy="637" r="7" fill="black"/>
<circle cx="2204" cy="637" r="7" fill="black"/>
<circle cx="106" cy="811" r="7" fill="black"/>
<circle cx="213" cy="811" r="7" fill="black"/>
<circle cx="321" cy="811" r="7" fill="black"/>
<ellipse cx="428.5" cy="811" rx="6.5" ry="7" fill="black"/>
<circle cx="536" cy="811" r="7" fill="black"/>
<circle cx="644" cy="811" r="7" fill="black"/>
<ellipse cx="751.5" cy="811" rx="6.5" ry="7" fill="black"/>
<circle cx="859" cy="811" r="7" fill="black"/>
<circle cx="967" cy="811" r="7" fill="black"/>
<circle cx="1074" cy="811" r="7" fill="black"/>
<circle cx="1182" cy="811" r="7" fill="black"/>
<ellipse cx="1289.5" cy="811" rx="6.5" ry="7" fill="black"/>
<circle cx="1397" cy="811" r="7" fill="black"/>
<circle cx="52" cy="753" r="7" fill="black"/>
<ellipse cx="159.5" cy="753" rx="6.5" ry="7" fill="black"/>
<circle cx="267" cy="753" r="7" fill="black"/>
<circle cx="375" cy="753" r="7" fill="black"/>
<circle cx="482" cy="753" r="7" fill="black"/>
<circle cx="590" cy="753" r="7" fill="black"/>
<ellipse cx="697.5" cy="753" rx="6.5" ry="7" fill="black"/>
<circle cx="805" cy="753" r="7" fill="black"/>
<circle cx="913" cy="753" r="7" fill="black"/>
<ellipse cx="1020.5" cy="753" rx="6.5" ry="7" fill="black"/>
<circle cx="1128" cy="753" r="7" fill="black"/>
<circle cx="1236" cy="753" r="7" fill="black"/>
<circle cx="1343" cy="753" r="7" fill="black"/>
<circle cx="1505" cy="811" r="7" fill="black"/>
<circle cx="1612" cy="811" r="7" fill="black"/>
<circle cx="1720" cy="811" r="7" fill="black"/>
<ellipse cx="1827.5" cy="811" rx="6.5" ry="7" fill="black"/>
<circle cx="1935" cy="811" r="7" fill="black"/>
<circle cx="1451" cy="753" r="7" fill="black"/>
<ellipse cx="1558.5" cy="753" rx="6.5" ry="7" fill="black"/>
<circle cx="1666" cy="753" r="7" fill="black"/>
<circle cx="1774" cy="753" r="7" fill="black"/>
<circle cx="1881" cy="753" r="7" fill="black"/>
<ellipse cx="2042.5" cy="811" rx="6.5" ry="7" fill="black"/>
<circle cx="2150" cy="811" r="7" fill="black"/>
<circle cx="1989" cy="753" r="7" fill="black"/>
<circle cx="2096" cy="753" r="7" fill="black"/>
<circle cx="2204" cy="753" r="7" fill="black"/>
<circle cx="106" cy="927" r="7" fill="black"/>
<ellipse cx="428.5" cy="927" rx="6.5" ry="7" fill="black"/>
<circle cx="536" cy="927" r="7" fill="black"/>
<circle cx="644" cy="927" r="7" fill="black"/>
<ellipse cx="751.5" cy="927" rx="6.5" ry="7" fill="black"/>
<circle cx="859" cy="927" r="7" fill="black"/>
<circle cx="967" cy="927" r="7" fill="black"/>
<circle cx="1074" cy="927" r="7" fill="black"/>
<circle cx="1182" cy="927" r="7" fill="black"/>
<ellipse cx="1289.5" cy="927" rx="6.5" ry="7" fill="black"/>
<circle cx="1397" cy="927" r="7" fill="black"/>
<circle cx="52" cy="869" r="7" fill="black"/>
<circle cx="482" cy="869" r="7" fill="black"/>
<circle cx="590" cy="869" r="7" fill="black"/>
<ellipse cx="697.5" cy="869" rx="6.5" ry="7" fill="black"/>
<circle cx="805" cy="869" r="7" fill="black"/>
<circle cx="913" cy="869" r="7" fill="black"/>
<ellipse cx="1020.5" cy="869" rx="6.5" ry="7" fill="black"/>
<circle cx="1128" cy="869" r="7" fill="black"/>
<circle cx="1236" cy="869" r="7" fill="black"/>
<circle cx="1343" cy="869" r="7" fill="black"/>
<circle cx="1505" cy="927" r="7" fill="black"/>
<circle cx="1612" cy="927" r="7" fill="black"/>
<circle cx="1720" cy="927" r="7" fill="black"/>
<ellipse cx="1827.5" cy="927" rx="6.5" ry="7" fill="black"/>
<circle cx="1935" cy="927" r="7" fill="black"/>
<circle cx="1451" cy="869" r="7" fill="black"/>
<ellipse cx="1558.5" cy="869" rx="6.5" ry="7" fill="black"/>
<circle cx="1666" cy="869" r="7" fill="black"/>
<circle cx="1774" cy="869" r="7" fill="black"/>
<circle cx="1881" cy="869" r="7" fill="black"/>
<ellipse cx="2042.5" cy="927" rx="6.5" ry="7" fill="black"/>
<circle cx="2150" cy="927" r="7" fill="black"/>
<circle cx="1989" cy="869" r="7" fill="black"/>
<circle cx="2096" cy="869" r="7" fill="black"/>
<circle cx="2204" cy="869" r="7" fill="black"/>
<circle cx="106" cy="1043" r="7" fill="black"/>
<ellipse cx="428.5" cy="1043" rx="6.5" ry="7" fill="black"/>
<circle cx="536" cy="1043" r="7" fill="black"/>
<circle cx="644" cy="1043" r="7" fill="black"/>
<ellipse cx="751.5" cy="1043" rx="6.5" ry="7" fill="black"/>
<circle cx="859" cy="1043" r="7" fill="black"/>
<circle cx="967" cy="1043" r="7" fill="black"/>
<circle cx="1074" cy="1043" r="7" fill="black"/>
<circle cx="1182" cy="1043" r="7" fill="black"/>
<ellipse cx="1289.5" cy="1043" rx="6.5" ry="7" fill="black"/>
<circle cx="1397" cy="1043" r="7" fill="black"/>
<circle cx="52" cy="985" r="7" fill="black"/>
<circle cx="482" cy="985" r="7" fill="black"/>
<circle cx="590" cy="985" r="7" fill="black"/>
<ellipse cx="697.5" cy="985" rx="6.5" ry="7" fill="black"/>
<circle cx="805" cy="985" r="7" fill="black"/>
<circle cx="913" cy="985" r="7" fill="black"/>
<ellipse cx="1020.5" cy="985" rx="6.5" ry="7" fill="black"/>
<circle cx="1128" cy="985" r="7" fill="black"/>
<circle cx="1236" cy="985" r="7" fill="black"/>
<circle cx="1343" cy="985" r="7" fill="black"/>
<circle cx="1505" cy="1043" r="7" fill="black"/>
<circle cx="1612" cy="1043" r="7" fill="black"/>
<circle cx="1720" cy="1043" r="7" fill="black"/>
<ellipse cx="1827.5" cy="1043" rx="6.5" ry="7" fill="black"/>
<circle cx="1935" cy="1043" r="7" fill="black"/>
<circle cx="1451" cy="985" r="7" fill="black"/>
<ellipse cx="1558.5" cy="985" rx="6.5" ry="7" fill="black"/>
<circle cx="1666" cy="985" r="7" fill="black"/>
<circle cx="1774" cy="985" r="7" fill="black"/>
<circle cx="1881" cy="985" r="7" fill="black"/>
<ellipse cx="2042.5" cy="1043" rx="6.5" ry="7" fill="black"/>
<circle cx="2150" cy="1043" r="7" fill="black"/>
<circle cx="1989" cy="985" r="7" fill="black"/>
<circle cx="2096" cy="985" r="7" fill="black"/>
<circle cx="2204" cy="985" r="7" fill="black"/>
<circle cx="52" cy="1101" r="7" fill="black"/>
<ellipse cx="159.5" cy="1101" rx="6.5" ry="7" fill="black"/>
<circle cx="267" cy="1101" r="7" fill="black"/>
<circle cx="375" cy="1101" r="7" fill="black"/>
<circle cx="482" cy="1101" r="7" fill="black"/>
<circle cx="590" cy="1101" r="7" fill="black"/>
<ellipse cx="697.5" cy="1101" rx="6.5" ry="7" fill="black"/>
<circle cx="805" cy="1101" r="7" fill="black"/>
<circle cx="913" cy="1101" r="7" fill="black"/>
<ellipse cx="1020.5" cy="1101" rx="6.5" ry="7" fill="black"/>
<circle cx="1128" cy="1101" r="7" fill="black"/>
<circle cx="1236" cy="1101" r="7" fill="black"/>
<circle cx="1343" cy="1101" r="7" fill="black"/>
<circle cx="1451" cy="1101" r="7" fill="black"/>
<ellipse cx="1558.5" cy="1101" rx="6.5" ry="7" fill="black"/>
<circle cx="1666" cy="1101" r="7" fill="black"/>
<circle cx="1774" cy="1101" r="7" fill="black"/>
<circle cx="1881" cy="1101" r="7" fill="black"/>
<circle cx="1989" cy="1101" r="7" fill="black"/>
<circle cx="2096" cy="1101" r="7" fill="black"/>
<circle cx="2204" cy="1101" r="7" fill="black"/>
<path d="M1.33286e-05 157L1.39951e-05 0L213 3.00344e-06C60.5 54 69 64.5 1.33286e-05 157Z" fill="black" stroke="black" stroke-width="1.17238"/>
<path d="M2257 111L2257 3.05176e-05L2246.66 2.96307e-05L2106 2.31232e-06C2213 27.4999 2216.5 48.4999 2257 111Z" fill="black" stroke="black" stroke-width="1.17238"/>
<path d="M9.44888e-06 1056L-3.77654e-07 1167H10.3444L151 1167C44 1139.5 40.5 1118.5 9.44888e-06 1056Z" fill="black" stroke="black" stroke-width="1.17238"/>
<path d="M2257 1056L2257 1167L2246.66 1167L2106 1167C2213 1139.5 2216.5 1118.5 2257 1056Z" fill="black" stroke="black" stroke-width="1.17238"/>
<path d="M-149.5 954.5C-13.3612 819.27 227 670.5 399 743C638.34 843.884 696.695 540.822 795 400.5C1043 46.5 1748 -39.5476 1870 -11.0474" stroke="black" stroke-width="8"/>
<path d="M-116 218C20.9581 262.135 345 348 516.5 535.5C633.917 663.872 664.5 973 918 1008C1315.23 1062.84 1488.19 601.295 1730.5 703.5C2120.5 868 2308.47 866.732 2438.5 760.5" stroke="black" stroke-width="8"/>
<path d="M1250.5 -3.04736C1298 276.953 1960.5 519.5 2269 413" stroke="black" stroke-width="8"/>
<circle cx="1143.5" cy="587.5" r="218.5" stroke="#ACACAC" stroke-width="10" stroke-dasharray="25 25"/>
<path d="M254.669 906.055L201.487 854.528C230.151 835.725 262.556 834.791 275.175 836.675L254.669 906.055Z" fill="black" stroke="black" stroke-width="4.15142"/>
<path d="M303.716 952.209L235.737 981.819L258.237 911.245L303.716 952.209Z" fill="black" stroke="black" stroke-width="4.41119"/>
<path d="M255.456 908.697L199.686 855.719C125.925 911.57 145.415 985.544 164.38 1015.55L233.193 983.448L255.456 908.697Z" fill="white" stroke="black" stroke-width="4.15142"/>
<path d="M252.342 920.066L190.59 862.984L182.287 869.73L248.71 931.482L252.342 920.066Z" fill="black" stroke="black" stroke-width="0.518928"/>
<path d="M245.596 941.083L174.695 877.515L167.498 886.855L241.426 953.797L245.596 941.083Z" fill="black" stroke="black" stroke-width="0.518928"/>
<path d="M238.591 963.916L162.568 895.417L156.341 905.537L234.42 976.63L238.591 963.916Z" fill="black" stroke="black" stroke-width="0.518928"/>
<path d="M228.472 983.894L153.746 916.953L149.335 928.629L217.574 989.603L228.472 983.894Z" fill="black" stroke="black" stroke-width="0.518928"/>
<path d="M208.752 994.273L147.259 940.824V956.132L197.336 1000.24L208.752 994.273Z" fill="black" stroke="black" stroke-width="0.518928"/>
<path d="M187.995 1003.09L148.038 969.105L152.189 988.046L174.503 1009.06L187.995 1003.09Z" fill="black" stroke="black" stroke-width="0.518928"/>
<path d="M209.524 1057.58C190.495 1049.84 171.675 1026.89 164.644 1016.38L231.066 984.414C227.476 996.721 218.141 1028.59 209.524 1057.58Z" fill="black" stroke="black" stroke-width="4.15142"/>
<path d="M375.847 917.212L301.64 952.61C311.855 962.225 339.254 988.17 367.136 1015.03C389.218 973.038 381.773 932.581 375.847 917.212Z" fill="black" stroke="black" stroke-width="4.24805"/>
<path d="M302.71 950.78L234.174 982.754C232.028 989.784 224.561 1014.77 211.866 1058.5C299.076 1092.96 352.616 1042.17 368.485 1012.46L302.71 950.78Z" fill="white" stroke="black" stroke-width="4.07168"/>
<ellipse cx="269.04" cy="1028.06" rx="15.9871" ry="15.778" fill="black"/>
<path d="M303.05 1061.68C304.546 1070.27 296.639 1066.57 287.937 1068.05C279.235 1069.52 273.034 1075.62 271.538 1067.03C270.042 1058.44 275.883 1050.28 284.585 1048.81C293.287 1047.33 301.554 1053.1 303.05 1061.68Z" fill="black"/>
<ellipse cx="298.846" cy="968.696" rx="15.9871" ry="15.778" fill="black"/>
<ellipse cx="305.892" cy="1009.35" rx="15.9871" ry="15.778" fill="black"/>
<ellipse cx="350.33" cy="1015.23" rx="15.9871" ry="15.778" fill="black"/>
<ellipse cx="246.821" cy="993.3" rx="15.9871" ry="15.778" fill="black"/>
<ellipse cx="228.395" cy="1049.99" rx="15.9871" ry="15.778" fill="black"/>
<path d="M300.58 950.052L256 907.573C258.091 900.231 265.274 875.838 277.282 837C337.14 844.732 367.188 892.514 374.73 915.439L300.58 950.052Z" fill="white" stroke="black" stroke-width="4.15193"/>
<path d="M331.835 885.187L301.554 947.593L273.642 924.421L331.835 885.187Z" fill="black" stroke="black" stroke-width="0.526635"/>
<path d="M331.835 884.661L270.482 866.492L257.843 906.253L331.835 884.661Z" fill="black" stroke="black" stroke-width="0.526635"/>
<path d="M331.309 884.66L316.036 850.429C321.513 850.429 335.873 861.664 342.368 867.282L331.309 884.66Z" fill="black" stroke="black" stroke-width="0.526635"/>
<path d="M335.259 932.584L331.309 884.66L356.324 924.421L335.259 932.584Z" fill="black" stroke="black" stroke-width="0.526635"/>
<path d="M375.02 915.731L331.835 885.187H360.537C361.59 885.187 370.631 905.55 375.02 915.731Z" fill="black" stroke="black" stroke-width="0.526635"/>
<path d="M275.222 850.429L331.309 884.661L291.548 840.423L278.119 837.527L275.222 850.429Z" fill="black" stroke="black" stroke-width="0.526635"/>
</g>
<defs>
<clipPath id="clip0_512_5911">
<rect width="2257" height="1162" fill="white"/>
</clipPath>
</defs>
</svg>
