<svg width="236" height="225" viewBox="0 0 236 225" fill="none" xmlns="http://www.w3.org/2000/svg">
<path d="M89.6503 219.668L5 139.008C8.9702 125.066 22.6107 78.7468 45.4109 5C159.072 19.6811 216.129 110.414 230.451 153.945L89.6503 219.668Z" fill="white" stroke="black" stroke-width="7.88389"/>
<path d="M149 96.5L91.5 215L38.5 171L149 96.5Z" fill="black" stroke="black"/>
<path d="M149 95.5L32.5 61L8.5 136.5L149 95.5Z" fill="black" stroke="black"/>
<path d="M148 95.5L119 30.5C129.4 30.5 156.667 51.8333 169 62.5L148 95.5Z" fill="black" stroke="black"/>
<path d="M155.5 186.5L148 95.5L195.5 171L155.5 186.5Z" fill="black" stroke="black"/>
<path d="M231 154.5L149 96.5H203.5C205.5 96.5 222.667 135.167 231 154.5Z" fill="black" stroke="black"/>
<path d="M41.5 30.5L148 95.5L72.5 11.5L47 6L41.5 30.5Z" fill="black" stroke="black"/>
</svg>
