<svg width="214" height="313" viewBox="0 0 214 313" fill="none" xmlns="http://www.w3.org/2000/svg">
<path d="M208.866 106.071L103.52 6C-35.8088 111.498 1.00572 251.229 36.829 307.908L166.812 247.272L208.866 106.071Z" fill="white" stroke="black" stroke-width="7.84176"/>
<path d="M202.985 127.547L86.3385 19.7227L70.6549 32.4655L196.123 149.112L202.985 127.547Z" fill="black" stroke="black" stroke-width="0.98022"/>
<path d="M190.242 167.246L56.3147 47.1689L42.7187 64.8129L182.364 191.261L190.242 167.246Z" fill="black" stroke="black" stroke-width="0.98022"/>
<path d="M177.009 210.376L33.4066 80.9868L21.6439 100.101L169.131 234.391L177.009 210.376Z" fill="black" stroke="black" stroke-width="0.98022"/>
<path d="M157.895 248.114L16.7428 121.666L8.41098 143.72L137.31 258.896L157.895 248.114Z" fill="black" stroke="black" stroke-width="0.98022"/>
<path d="M120.646 267.718L4.49014 166.756V195.672L99.0814 278.991L120.646 267.718Z" fill="black" stroke="black" stroke-width="0.98022"/>
<path d="M81.4374 284.382L5.96045 220.178L13.8022 255.956L55.9517 295.655L81.4374 284.382Z" fill="black" stroke="black" stroke-width="0.98022"/>
</svg>
