<svg width="306" height="235" viewBox="0 0 306 235" fill="none" xmlns="http://www.w3.org/2000/svg">
<path d="M176.598 5L47.1392 65.3977C43.0846 78.6767 28.9802 125.881 5 208.468C169.734 273.577 270.868 177.626 300.843 121.512L176.598 5Z" fill="white" stroke="black" stroke-width="7.69112"/>
<ellipse cx="112.998" cy="150.987" rx="30.1985" ry="29.8036" fill="black"/>
<path d="M177.24 214.491C180.067 230.713 165.13 223.722 148.693 226.511C132.256 229.3 120.543 240.814 117.717 224.592C114.891 208.37 125.924 192.958 142.361 190.169C158.798 187.38 174.414 198.269 177.24 214.491Z" fill="black"/>
<ellipse cx="169.3" cy="38.8446" rx="30.1985" ry="29.8036" fill="black"/>
<ellipse cx="182.608" cy="115.627" rx="30.1985" ry="29.8036" fill="black"/>
<ellipse cx="266.55" cy="126.741" rx="30.1985" ry="29.8036" fill="black"/>
<ellipse cx="71.0273" cy="85.3183" rx="30.1985" ry="29.8036" fill="black"/>
<ellipse cx="36.2223" cy="192.409" rx="30.1985" ry="29.8036" fill="black"/>
</svg>
