<svg width="599" height="415" viewBox="0 0 599 415" fill="none" xmlns="http://www.w3.org/2000/svg">
<circle cx="499.561" cy="241.415" r="25.7924" fill="black"/>
<circle cx="541.766" cy="267.207" r="25.7924" fill="black"/>
<circle cx="572.248" cy="303.551" r="25.7924" fill="black"/>
<circle cx="572.248" cy="355.136" r="25.7924" fill="black"/>
<circle cx="534.732" cy="389.135" r="25.7924" fill="black"/>
<circle cx="485.492" cy="389.135" r="25.7924" fill="black"/>
<circle cx="442.114" cy="363.343" r="25.7924" fill="black"/>
<circle cx="412.804" cy="322.309" r="25.7924" fill="black"/>
<circle cx="364.736" cy="311.758" r="25.7924" fill="black"/>
<circle cx="316.668" cy="329.344" r="25.7924" fill="black"/>
<circle cx="268.601" cy="348.102" r="25.7924" fill="black"/>
<circle cx="224.05" cy="322.309" r="25.7924" fill="black"/>
<circle cx="208.809" cy="277.759" r="25.7924" fill="black"/>
<circle cx="241.636" cy="241.415" r="25.7924" fill="black"/>
<circle cx="274.463" cy="201.554" r="25.7924" fill="black"/>
<circle cx="259.222" cy="154.658" r="25.7924" fill="black"/>
<circle cx="222.877" cy="123.004" r="25.7924" fill="black"/>
<circle cx="172.465" cy="120.659" r="25.7924" fill="black"/>
<circle cx="129.087" cy="146.452" r="25.7924" fill="black"/>
<circle cx="77.5024" cy="142.935" r="25.7924" fill="black"/>
<circle cx="57.5717" cy="97.2119" r="25.7924" fill="black"/>
<circle cx="65.7783" cy="50.3164" r="25.7924" fill="black"/>
<circle cx="25.9174" cy="25.7924" r="25.7924" fill="black"/>
</svg>
