<svg width="120" height="119" viewBox="0 0 120 119" fill="none" xmlns="http://www.w3.org/2000/svg">
<mask id="path-1-inside-1_205_4467" fill="white">
<path fill-rule="evenodd" clip-rule="evenodd" d="M51.8332 -9.8951e-06L51.8332 59.0388L119.063 59.0388L119.063 58.7987C119.063 58.8786 119.064 58.9586 119.064 59.0385C119.064 91.917 92.4102 118.57 59.5318 118.57C26.6533 118.57 -1.16505e-06 91.917 -2.60222e-06 59.0386C-3.92535e-06 28.7688 22.5914 3.77564 51.8332 -9.8951e-06Z"/>
</mask>
<path fill-rule="evenodd" clip-rule="evenodd" d="M51.8332 -9.8951e-06L51.8332 59.0388L119.063 59.0388L119.063 58.7987C119.063 58.8786 119.064 58.9586 119.064 59.0385C119.064 91.917 92.4102 118.57 59.5318 118.57C26.6533 118.57 -1.16505e-06 91.917 -2.60222e-06 59.0386C-3.92535e-06 28.7688 22.5914 3.77564 51.8332 -9.8951e-06Z" fill="white"/>
<path d="M51.8332 59.0388L46.7012 59.0388L46.7012 64.1709L51.8332 64.1709L51.8332 59.0388ZM51.8332 -9.8951e-06L56.9653 -1.01194e-05L56.9653 -5.8373L51.176 -5.08981L51.8332 -9.8951e-06ZM119.063 59.0388L119.063 64.1709L124.195 64.1709L124.195 59.0388L119.063 59.0388ZM119.063 58.7987L124.195 58.7786L113.931 58.7987L119.063 58.7987ZM56.9653 59.0388L56.9653 -1.01194e-05L46.7012 -9.67077e-06L46.7012 59.0388L56.9653 59.0388ZM119.063 53.9068L51.8332 53.9068L51.8332 64.1709L119.063 64.1709L119.063 53.9068ZM113.931 58.7987L113.931 59.0388L124.195 59.0388L124.195 58.7987L113.931 58.7987ZM113.931 58.8188C113.931 58.8921 113.931 58.9654 113.931 59.0385L124.196 59.0385C124.196 58.9517 124.195 58.865 124.195 58.7786L113.931 58.8188ZM113.931 59.0385C113.931 89.0827 89.5759 113.438 59.5318 113.438L59.5318 123.702C95.2446 123.702 124.196 94.7514 124.196 59.0385L113.931 59.0385ZM59.5318 113.438C29.4876 113.438 5.13205 89.0827 5.13205 59.0386L-5.13205 59.0386C-5.13205 94.7514 23.8189 123.702 59.5318 123.702L59.5318 113.438ZM5.13205 59.0386C5.13204 31.3823 25.7746 8.53928 52.4904 5.08979L51.176 -5.08981C19.4082 -0.988 -5.13205 26.1554 -5.13205 59.0386L5.13205 59.0386Z" fill="white" mask="url(#path-1-inside-1_205_4467)"/>
</svg>
