<svg width="616" height="615" viewBox="0 0 616 615" fill="none" xmlns="http://www.w3.org/2000/svg">
<path d="M611.502 307.165C611.502 474.591 475.515 610.329 307.751 610.329C139.987 610.329 4 474.591 4 307.165C4 139.739 139.987 4 307.751 4C475.515 4 611.502 139.739 611.502 307.165Z" fill="black" stroke="white" stroke-width="8"/>
<path d="M545.848 306.578C545.848 437.419 439.52 543.503 308.337 543.503C177.154 543.503 70.8262 437.419 70.8262 306.578C70.8262 175.737 177.154 69.6533 308.337 69.6533C439.52 69.6533 545.848 175.737 545.848 306.578Z" fill="black" stroke="white" stroke-width="8"/>
<path d="M469.643 307.165C469.643 396.239 397.175 468.471 307.751 468.471C218.327 468.471 145.858 396.239 145.858 307.165C145.858 218.091 218.327 145.859 307.751 145.859C397.175 145.859 469.643 218.091 469.643 307.165Z" fill="white" stroke="white" stroke-width="8"/>
<path d="M406.334 306.578C406.334 360.355 362.481 403.989 308.337 403.989C254.193 403.989 210.34 360.355 210.34 306.578C210.34 252.801 254.193 209.167 308.337 209.167C362.481 209.167 406.334 252.801 406.334 306.578Z" fill="black" stroke="white" stroke-width="8"/>
<path d="M354.749 306.579C354.749 332.579 333.926 353.577 308.337 353.577C282.747 353.577 261.924 332.579 261.924 306.579C261.924 280.578 282.747 259.58 308.337 259.58C333.926 259.58 354.749 280.578 354.749 306.579Z" fill="black" stroke="white" stroke-width="8"/>
<path d="M172.559 188.59L244.942 249.5" stroke="black" stroke-width="10"/>
<path d="M223.442 161L240.192 197.5L256.942 234" stroke="black" stroke-width="10"/>
<path d="M399.995 154.146L354.594 237.14" stroke="black" stroke-width="10"/>
<path d="M437.098 198.572L404.629 222.206L372.16 245.84" stroke="black" stroke-width="10"/>
<path d="M458.792 414.374L382.823 358" stroke="black" stroke-width="10"/>
<path d="M409.69 445.021L390.741 409.613L371.793 374.204" stroke="black" stroke-width="10"/>
<path d="M230.037 464.502L263.19 375.901" stroke="black" stroke-width="10"/>
<path d="M187 425.796L215.783 397.79L244.567 369.784" stroke="black" stroke-width="10"/>
<path d="M194.306 180.268C194.492 178.784 198.284 181.888 198.816 182.272C202.01 184.579 204.329 188.126 206.904 191.076C211.466 196.301 216.73 200.852 221.364 206.001C223.952 208.877 228.849 212.57 230.383 216.022C231.254 217.983 234.289 220.905 235.68 222.643C236.664 223.874 239.518 229.519 238.113 226.007" stroke="black" stroke-width="30" stroke-linecap="round"/>
<path d="M223.296 200.239C223.296 194.09 220.469 186.655 216.532 181.843C213.563 178.214 212.57 176.192 207.835 179.481C205.136 181.355 202.391 182.295 199.961 184.634C198.584 185.961 197.972 188.158 196.561 189.287C195.513 190.125 202.857 193.416 201.393 191.22" stroke="black" stroke-width="30" stroke-linecap="round"/>
<path d="M422.36 188.643C419.936 189.389 417.796 191.533 415.488 192.651C411.735 194.47 408.123 196.532 404.715 198.95C404.023 199.442 399.012 204.95 398.023 203.961C397.899 203.837 410.612 174.47 406.612 174.47C401.598 174.47 402.049 179.284 400.778 183.095C399.343 187.403 396.727 190.905 394.157 194.584C389.229 201.64 384.897 209.333 380.128 216.487C377.508 220.416 376.454 225.532 373.256 229.085C370.765 231.853 374.415 227.693 375.296 226.723C377.98 223.77 380.48 220.817 383.707 218.42C386.818 216.109 390.651 215.126 393.692 212.801C397.834 209.634 401.85 206.519 406.397 203.961C411.006 201.369 421.469 199.291 423.004 193.152" stroke="black" stroke-width="25" stroke-linecap="round"/>
<path d="M377.909 368.38C378.079 369.913 380.585 370.897 381.452 372.245C382.933 374.549 385.125 376.474 386.785 378.687C389.37 382.135 392.241 385.32 394.945 388.673C398.111 392.598 399.894 397.689 402.067 402.201C404.764 407.804 408.19 413.838 411.73 418.951C413.853 422.018 417.275 423.708 419.282 426.216C420.564 427.819 420.7 426.73 422.36 425.071C424.162 423.269 425.866 421.567 427.012 419.273C428.47 416.357 430.09 414.558 430.09 411.22C430.09 409.664 429.054 407.758 428.158 406.532C427.423 405.527 426.293 405.291 425.259 404.707C423.325 403.614 422.001 401.449 420.391 399.946C417.196 396.964 413.309 391.556 409.475 389.639" stroke="black" stroke-width="25" stroke-linecap="round"/>
<path d="M413.985 434.09V437.955" stroke="black" stroke-width="25" stroke-linecap="round"/>
<path d="M215.566 436.667C215.566 436.806 215.84 432.148 216.138 431.084C218.402 423.008 223.55 415.682 227.663 408.464C230.067 404.244 232.815 402.432 236.682 399.946C238.837 398.561 244.11 387.806 243.911 387.706" stroke="black" stroke-width="25" stroke-linecap="round"/>
<path d="M212.989 418.629C208.398 419.088 203.258 423.134 200.104 426.288C196.887 429.505 203.201 428.816 205.759 429.079C208.79 429.392 211.717 430.176 214.778 430.225C216.062 430.245 217.815 429.901 219.073 430.26C219.471 430.374 222.507 442.299 222.652 443.753C222.692 444.156 222.971 448.042 223.976 445.865C226.522 440.348 227.22 434.05 230.239 428.793C231.931 425.849 239.697 415.059 236.825 412.187" stroke="black" stroke-width="25" stroke-linecap="round"/>
</svg>
