<svg width="703" height="703" viewBox="0 0 703 703" fill="none" xmlns="http://www.w3.org/2000/svg">
<circle cx="351.129" cy="351.129" r="347.129" fill="black" stroke="white" stroke-width="8"/>
<circle cx="351.823" cy="350.434" r="271.491" fill="white" stroke="white" stroke-width="8"/>
<circle cx="351.129" cy="351.128" r="184.749" fill="black" stroke="white" stroke-width="8"/>
<circle cx="351.823" cy="350.434" r="111.886" fill="black" stroke="white" stroke-width="8"/>
<circle cx="351.823" cy="350.435" r="53.5963" fill="black" stroke="white" stroke-width="8"/>
<path d="M175 140L314 311.5" stroke="white" stroke-width="10"/>
<path d="M347.5 162.5L351 294" stroke="white" stroke-width="10"/>
<path d="M339.873 332.473C339.873 337.122 337.936 351.513 345.912 350.735C354.402 349.907 352.28 337.191 349.325 332.473C346.727 328.324 342.466 325.108 337.568 324.45C332.683 323.794 330.702 326.494 328.349 330.343C324.572 336.524 322.452 342.399 322.544 349.685C322.555 350.545 322.398 352.113 323.332 352.632C324.909 353.508 324.3 349.124 324.382 347.322C324.642 341.608 323.382 334.286 325.578 328.797C327.587 323.775 321.425 325.156 319.656 328.301C314.671 337.163 314.667 349.378 314.667 359.254C314.667 362.282 314.279 365.503 315.192 368.414C316.587 372.86 315.461 369.596 314.667 367.102C313.55 363.591 312.041 360.227 312.041 356.512C312.041 355.133 312.806 350.447 311.516 349.802" stroke="white" stroke-width="25" stroke-linecap="round"/>
<path d="M331.471 317.769C329.643 317.769 328.161 317.206 326.511 316.457C325.293 315.903 326.435 314.603 326.862 313.452C328.985 307.718 326.39 303.031 323.623 297.844C321.12 293.151 318.433 288.588 315.98 283.87C313.033 278.202 309.446 272.868 306.557 267.124C302.842 259.737 299.448 252.149 295.763 244.777" stroke="white" stroke-width="25" stroke-linecap="round"/>
<path d="M311.516 349.802C311.516 355.723 313.946 360.471 315.192 366.081C315.762 368.644 317.034 372.891 318.343 375.124C319.957 377.878 320.878 379.228 323.565 381.076C326.681 383.218 328.57 386.454 332.025 388.398C334.588 389.84 338.926 390.664 341.857 390.761C346.105 390.903 350.835 392.068 355.101 391.17C360.621 390.008 367.946 387.229 372.664 384.226C377.503 381.147 382.639 375.932 385.033 370.544C386.369 367.539 388.192 365.002 389.118 361.763C390.055 358.484 389.759 354.768 389.759 351.377C389.759 344.383 388.856 336.299 384.246 330.664C382.465 328.487 379.096 327.062 377.798 324.596C376.597 322.313 373.684 319.745 371.38 318.411C370.375 317.829 369.639 317.142 368.725 316.457C368.3 316.138 365.204 314.033 367.208 314.91C369.537 315.929 373.175 317.148 375.056 318.82C376.606 320.197 378.788 321.613 380.541 322.729C382.608 324.044 378.882 323.265 378.178 322.933C374.5 321.202 371.286 318.209 367.704 316.194C363.867 314.036 360.66 311.687 356.677 310.009C355.163 309.372 352.398 309.893 350.784 309.893C348.605 309.893 346.697 310.181 344.57 310.447C341.846 310.787 340.481 313.054 338.035 313.598C335.85 314.083 331.499 317.749 330.421 319.636C329.362 321.489 327.795 323.485 327.795 325.646C327.795 330.164 328.32 334.651 328.32 339.183C328.32 342.954 327.422 348.096 329.079 351.611C331.719 357.211 335.488 364.247 340.369 368.152C346.626 373.158 355.96 369.091 360.644 363.922C365.442 358.628 372.888 350.061 368.93 342.333C366.255 337.111 362.008 331.423 355.627 331.423" stroke="white" stroke-width="25" stroke-linecap="round"/>
<path d="M315.717 292.038C315.613 292.766 312.83 288.494 312.567 288.1C310.742 285.363 309.086 281.789 306.761 279.465C302.215 274.918 297.82 270.085 294.187 264.732C289.489 257.809 284.314 249.579 278.2 243.756C273.811 239.576 270.318 235.222 267.173 230.074C262.664 222.696 254.278 215.351 254.278 206.181C254.278 204.841 250.148 205.327 249.027 205.393C248.57 205.42 247.124 205.393 248.21 205.393C251.37 205.393 253.62 204.404 256.495 203.293C259.017 202.319 260.193 201.893 261.921 199.588C263.341 197.695 265.295 196.334 267.144 194.891C269.971 192.684 272.336 189.994 275.166 187.802C280.492 183.676 287.111 180.413 293.662 178.729C298.102 177.587 302.692 175.78 307.199 175.053C309.476 174.686 329.906 169.589 330.917 173.128C332.876 179.987 331.24 188.92 330.012 195.825C329.108 200.913 329.774 206.861 330.45 211.928C330.751 214.191 332.819 214.22 333.834 212.424C335.205 209.998 335.147 207.813 335.147 205.131C335.147 203.255 335.189 201.375 335.147 199.5C335.031 194.394 331.007 194.401 326.745 194.366C319.896 194.309 313.108 193.942 306.265 193.578C297.935 193.135 289.836 192.187 282.43 196.466C277.464 199.336 273.411 203.465 270.148 208.136C267.591 211.797 271.359 212.863 274.583 213.387C279.844 214.242 284.268 218.33 289.344 219.98C295.537 221.993 294.253 217.462 297.163 213.679C300.387 209.487 311.479 208.387 315.951 211.024C318.744 212.671 323.282 218.752 319.51 221.614C317.65 223.024 314.815 223.429 312.567 223.656C308.445 224.072 304.41 224.569 300.314 225.231C294.877 226.11 288.112 226.569 287.477 233.342C286.975 238.697 294.724 239.926 298.417 238.301C302.188 236.642 304.94 233.141 308.366 230.92C311.543 228.86 314.826 227.259 318.605 226.719C321.717 226.275 324.823 226.57 327.941 226.369C329.214 226.287 330.205 225.532 331.442 225.377C332.725 225.217 335.26 224.937 335.643 226.661C335.927 227.939 334.997 229.953 334.622 231.124C333.487 234.662 333.376 237.716 332.93 241.335C331.557 252.465 330.421 263.213 330.421 274.476C330.421 276.643 330.009 306.272 330.946 306.217C334.036 306.035 335.331 289.773 335.789 287.079C336.779 281.246 336.722 275.677 336.722 269.75C336.722 260.827 339.223 249.47 329.896 244.427C327.825 243.308 321.418 240.138 319.918 243.611C316.652 251.175 315.192 259.761 315.192 267.941C315.192 272.413 316.017 276.793 316.767 281.186C317.121 283.255 318.175 285.239 318.343 287.312C318.516 289.452 319.711 289.842 318.868 287.312" stroke="white" stroke-width="25" stroke-linecap="round"/>
</svg>
