<svg width="650" height="650" viewBox="0 0 650 650" fill="none" xmlns="http://www.w3.org/2000/svg">
<circle cx="324.796" cy="324.796" r="320.796" fill="black" stroke="white" stroke-width="8"/>
<circle cx="325.437" cy="324.153" r="250.83" fill="black" stroke="white" stroke-width="8"/>
<circle cx="324.796" cy="324.795" r="170.594" fill="black" stroke="white" stroke-width="8"/>
<circle cx="325.437" cy="324.154" r="103.195" fill="black" stroke="white" stroke-width="8"/>
<circle cx="325.437" cy="324.153" r="49.2768" fill="white" stroke="white" stroke-width="8"/>
<path d="M61 504.5L119.741 470.699" stroke="white" stroke-width="8"/>
<path d="M91.5 544.5L138 494" stroke="white" stroke-width="8"/>
<path d="M13 397.744L78.9225 382.019" stroke="white" stroke-width="8"/>
<path d="M30.8829 444.76L89.8112 409.546" stroke="white" stroke-width="8"/>
<path d="M8.66315 278L78.2064 290.139" stroke="white" stroke-width="8"/>
<path d="M5.99997 328.237L77.0466 319.72" stroke="white" stroke-width="8"/>
<path d="M158.363 595.169L199.067 540.982" stroke="white" stroke-width="8"/>
<path d="M202.141 619.943L225.021 555.22" stroke="white" stroke-width="8"/>
<path d="M296.702 641.38L308.285 574.605" stroke="white" stroke-width="8"/>
<path d="M346.958 643.515L337.875 575.47" stroke="white" stroke-width="8"/>
<path d="M449.403 616.932L429.918 552.021" stroke="white" stroke-width="8"/>
<path d="M495.314 596.378L456.774 539.569" stroke="white" stroke-width="8"/>
<path d="M566.231 534.189L520.612 484.069" stroke="white" stroke-width="8"/>
<path d="M598.754 495.816L539.452 461.236" stroke="white" stroke-width="8"/>
<path d="M633.8 415.856L570.494 391.662" stroke="white" stroke-width="8"/>
<path d="M645.549 366.946L577.027 362.789" stroke="white" stroke-width="8"/>
<path d="M644.492 298.456L576.82 302.133" stroke="white" stroke-width="8"/>
<path d="M635.31 249L571.032 273.101" stroke="white" stroke-width="8"/>
<path d="M19.4268 300.738C19.4268 299.691 20.2318 290.234 18.1409 290.832C17.5524 291 17.7736 292.826 17.7736 293.18C17.7736 295.849 17.6817 298.272 17.065 300.896C15.9896 305.471 13.9503 309.754 12.8664 314.331C12.755 314.801 12.8595 314.944 13.3387 314.909C13.7673 314.877 14.1056 314.592 14.4933 314.436C16.0301 313.818 17.7814 313.724 19.4137 313.623C28.5557 313.056 37.7282 313.47 46.8101 312.193C49.5771 311.803 52.9744 311.95 55.5092 310.605C56.9276 309.852 58.6772 309.783 60.049 309.057C61.0242 308.54 60.9906 306.808 61.348 305.934C61.6573 305.178 62.5672 302.774 61.4529 302.286C60.8928 302.041 60.1606 302.155 59.5635 302.155C58.4885 302.155 57.6258 301.77 56.6376 301.394C52.4955 299.819 48.6342 298.597 44.199 297.904C41.5387 297.488 38.5781 296.962 36.0116 296.146C34.7219 295.735 36.4115 296.01 36.9825 296.015C41.0902 296.048 45.0283 296.918 49.0275 297.773C52.5538 298.526 55.8552 299.37 59.4192 299.61C61.2014 299.729 62.9612 299.793 64.7463 299.793C65.5946 299.793 65.8688 299.994 65.7172 299.085" stroke="white" stroke-width="25" stroke-linecap="round"/>
<path d="M64.7725 309.004C64.7725 309.955 65.4405 310.833 65.9534 311.602" stroke="white" stroke-width="25" stroke-linecap="round"/>
<path d="M35.3915 407.792C32.8427 406.462 29.9223 403.977 26.9443 403.977C26.4567 403.977 26.8744 404.453 27.0351 404.663C28.0097 405.935 28.7805 407.306 29.4976 408.74C31.345 412.435 32.8434 416.367 34.0795 420.306C34.6908 422.254 35.4346 424.206 35.8355 426.21C36.0202 427.133 36.2184 428.032 36.3401 428.965C36.388 429.332 36.3885 429.896 36.5723 430.227C36.8466 430.721 37.0392 430.086 37.2484 429.772C38.1283 428.453 39.3878 427.23 40.6192 426.25C44.1163 423.467 47.9929 421.159 51.5794 418.489C54.5631 416.268 57.4892 414.169 60.8844 412.626C62.5413 411.873 64.2462 410.624 66.0112 410.153C68.2922 409.545 70.1307 408.153 71.5821 406.338C72.2824 405.463 73.1161 404.726 73.54 403.654C74.0595 402.34 73.7217 400.502 73.7217 399.112C73.7217 398.314 73.985 397.092 72.8739 397.074C70.8622 397.041 68.9037 396.825 66.8792 396.932C61.5807 397.215 56.2779 398.141 51.0949 399.254C49.5126 399.593 47.9079 399.832 46.3415 400.243C45.8619 400.368 45.4457 400.628 45.0194 400.344" stroke="white" stroke-width="25" stroke-linecap="round"/>
<path d="M87.3462 507.886C85.0947 507.886 83.0553 506.274 80.7257 506.251C79.6256 506.241 77.0909 505.896 76.3053 507.018C76.2823 507.051 79.6283 509.548 79.666 509.582C82.9021 512.494 85.8215 515.676 88.638 518.988C89.6421 520.168 90.3634 521.375 90.9794 522.782C91.1954 523.276 91.8495 524.124 91.8877 524.639C91.9218 525.1 92.0281 525.986 91.8473 526.416C91.7099 526.742 91.782 527.114 91.6152 527.415C91.0885 528.363 92.132 527.088 92.2914 526.839C95.9456 521.148 100.553 516.438 104.866 511.257C106.733 509.015 108.279 506.562 110.104 504.293C110.565 503.721 111.226 503.305 110.417 502.981" stroke="white" stroke-width="25" stroke-linecap="round"/>
<path d="M110.054 502.981C106.321 502.981 102.907 502.909 99.3256 501.801C98.8647 501.658 95.2798 500.888 96.6512 500.035C97.8143 499.311 98.9951 498.772 100.244 498.218C103.537 496.758 106.432 494.33 109.377 492.294C111.666 490.711 114.277 489.843 116.553 488.267C116.973 487.976 116.708 486.758 117.229 486.642C117.701 486.537 118.57 487.46 119.046 487.611C120.061 487.933 121.125 488.088 122.144 488.408C123.715 488.902 120.046 491.745 119.783 492.082C119.228 492.791 118.549 493.519 118.158 494.332C117.853 494.966 117.818 495.382 117.683 494.443" stroke="white" stroke-width="25" stroke-linecap="round"/>
<path d="M206.878 572.557C206.878 575.281 206.515 567.117 206.515 564.393C206.515 562.605 206.055 560.6 204.335 559.74C203.754 559.449 202.862 558.797 202.71 558.115C202.568 557.474 203.247 557.712 203.608 557.883C205.209 558.64 206.864 559.055 208.513 559.679C209.512 560.057 210.521 560.629 211.602 560.749C211.887 560.781 211.815 561.215 211.682 561.385C210.423 563.004 209.129 564.601 207.867 566.219C205.578 569.155 202.986 571.519 200.167 573.92C199.602 574.401 196.347 577.921 195.696 576.311C194.776 574.038 195.269 570.87 195.525 568.51C195.593 567.883 195.838 567.078 195.767 566.441C195.721 566.027 194.41 567.405 194.344 567.471C192.162 569.631 190.188 571.998 188.258 574.384C184.637 578.86 180.913 583.497 178.035 588.503C177.013 590.28 175.957 590.999 174.18 591.853C173.873 592.001 173.005 592.241 172.918 592.631C172.819 593.076 174.023 593.062 174.26 593.125C176.291 593.663 178.308 594.905 180.003 596.112C181.005 596.826 181.909 597.651 182.879 598.403C183.828 599.139 184.925 599.593 185.947 600.21C187.358 601.061 188.747 602.129 189.873 603.338C190.389 603.893 190.717 604.559 191.215 605.115C191.573 605.514 192.323 606.136 192.568 606.528C192.638 606.64 192.753 606.717 192.891 606.709C193.358 606.683 193.431 605.185 193.466 605.004C194.637 598.855 197.589 593.483 200.641 588.079C202.216 585.291 204.051 582.714 205.839 580.066C206.207 579.52 206.699 579.325 206.152 578.915" stroke="white" stroke-width="25" stroke-linecap="round"/>
<path d="M323.141 603.439C322.216 603.069 321.763 600.639 321.506 599.846C320.846 597.817 320.099 595.81 319.326 593.821C318.693 592.194 318.081 591.132 317.156 589.744C317.025 589.548 316.79 589.282 317.227 589.27C318.807 589.227 320.38 589.29 321.96 589.169C323.894 589.02 325.823 588.681 327.743 588.402C328.158 588.342 328.443 588.085 328.227 588.462C327.679 589.422 327.854 590.696 327.874 591.753C327.969 596.818 328.501 601.948 329.277 606.951C329.705 609.716 330.332 612.405 331.174 615.025C332.803 620.093 331.556 625.367 332.446 630.507C332.588 631.33 333.393 631.049 333.677 631.687C333.841 632.058 334.242 633.287 334.02 633.676C333.758 634.133 331.631 633.618 331.295 633.554C328.987 633.117 326.765 633.05 324.422 633.05C321.168 633.05 318.013 633.09 314.784 633.413C313.838 633.508 312.252 633.477 311.474 634.099C310.898 634.56 312.298 632.167 312.322 632.121C313.327 630.214 313.701 628.522 313.916 626.409C314.152 624.095 314.69 621.845 314.875 619.516C315.016 617.744 314.935 615.973 314.966 614.198C314.995 612.562 315.597 610.966 315.773 609.333C315.913 608.04 315.874 606.736 315.874 605.438" stroke="white" stroke-width="25" stroke-linecap="round"/>
<path d="M464.654 578.189C465.817 579.546 461.902 575.888 460.687 574.576C459.705 573.513 458.818 572.329 457.609 571.508C456.826 570.975 455.977 570.548 455.207 569.994C452.259 567.871 449.85 564.804 446.679 563.02C445.765 562.506 445.123 561.632 444.489 560.84C444.107 560.362 445.679 560.161 446.023 560.002C447.095 559.508 447.821 558.593 448.93 558.105C449.411 557.893 450.95 556.334 451.029 555.663C451.11 554.976 451.348 556.06 451.392 556.167C451.926 557.459 453.226 558.55 454.016 559.7C456.34 563.08 458.575 566.488 460.455 570.155C461.314 571.831 460.476 569.731 460.475 569.731C460.425 569.731 460.674 571.422 460.475 569.832" stroke="white" stroke-width="25" stroke-linecap="round"/>
<path d="M460.112 561.476C460.207 561.997 460.696 562.402 461.02 562.788C461.53 563.396 461.904 564.053 462.282 564.746C462.938 565.948 462.873 568.101 461.898 569.075C460.509 570.465 457.395 570.404 455.611 570.66C453.929 570.901 452.194 571.195 450.494 571.275C448.256 571.382 447.522 571.394 447.588 573.899C447.699 578.137 449.678 582.345 451.201 586.252C452.17 588.741 452.709 591.375 453.572 593.902C454.109 595.473 454.287 597.266 454.481 598.908C454.653 600.373 454.844 601.862 454.844 603.338C454.844 603.746 454.824 604.404 455.389 604.348C455.984 604.288 456.495 603.583 456.953 603.258C458.446 602.198 460.366 601.787 462.09 601.28C464.624 600.534 467.109 599.712 469.558 598.716C471.413 597.962 473.393 597.229 475.19 596.355C475.747 596.084 476.187 595.34 476.825 595.265C477.365 595.201 477.178 594.483 477.006 594.175C476.553 593.358 475.624 592.708 475.018 591.995C474.262 591.106 473.659 590.096 473.01 589.129C472.484 588.344 471.193 587.184 471.193 586.182" stroke="white" stroke-width="25" stroke-linecap="round"/>
<path d="M553.635 489.466C549.218 488.583 545.13 485.959 540.585 485.622C539.793 485.563 538.687 485.758 538.061 485.131C537.284 484.355 536.06 484.451 536.33 483.044C536.654 481.359 538.597 480.109 539.336 478.539C539.782 477.592 539.268 476.364 540.612 476.818C542.402 477.423 544.313 477.496 546.053 478.299C547.812 479.11 549.389 480.377 550.995 481.447C552.889 482.711 554.69 484.16 556.507 485.533C557.799 486.509 559.53 487.563 560.539 488.824" stroke="white" stroke-width="25" stroke-linecap="round"/>
<path d="M544.804 487.219C544.346 487.333 544.644 490.509 544.644 490.902C544.644 493.035 544.636 494.99 545.643 496.941C546.458 498.521 548.228 499.644 549.648 500.634C552.576 502.676 555.844 504.288 558.273 506.967C560.163 509.051 561.676 511.49 562.929 513.996C563.426 514.99 563.766 516.125 564.392 517.047C564.475 517.168 565.28 518.046 565.356 518.046C565.624 518.046 566.151 516.089 566.257 515.843C567.676 512.531 569.872 509.738 572.474 507.288C574.908 504.996 577.129 502.631 578.646 499.653C578.791 499.369 579.094 499.057 578.994 498.707C578.954 498.566 578.659 498.618 578.566 498.618C577.773 498.618 577.122 498.368 576.434 497.976C574.206 496.705 572.505 494.746 570.44 493.257C570.062 492.985 569.361 492.653 569.209 492.196" stroke="white" stroke-width="25" stroke-linecap="round"/>
<path d="M591.954 373.207C590.23 373.207 588.461 373.326 586.75 373.095C586.13 373.011 585.644 372.759 585.024 372.759C584.22 372.759 584.576 374.095 584.576 374.684C584.576 376.796 583.617 379.136 582.614 380.981C581.887 382.32 582.24 382.213 583.521 382.534C584.999 382.903 586.352 383.712 587.706 384.384C590.826 385.934 593.88 387.551 596.922 389.253C601.638 391.891 606.212 394.791 611.192 396.903C613.707 397.97 616.368 398.62 618.855 399.76C620.588 400.554 621.769 401.481 623.698 401.374C624.643 401.322 625.565 397.247 625.76 396.767C627.371 392.801 628.489 388.911 629.238 384.707C629.741 381.876 630.91 379.091 631.287 376.262C631.395 375.449 628.501 376.689 628.07 376.734C619.85 377.581 611.909 374.283 603.802 373.877" stroke="white" stroke-width="25" stroke-linecap="round"/>
<path d="M601.343 277.302C601.693 277.702 599.437 277.523 599.17 277.513C597.273 277.442 595.281 277.082 593.382 277.327C591.931 277.514 590.304 278.318 588.923 278.817C588.254 279.059 587.259 279.133 587.259 279.985C587.259 281.889 586.741 283.843 587.06 285.76C587.224 286.741 588.292 286.643 589.023 286.741C589.487 286.803 591.495 287.564 589.967 287.585C588.801 287.602 587.247 287.341 586.266 288.144C586.205 288.194 585.323 288.863 585.657 288.914C588.098 289.29 590.991 287.959 593.469 287.859C599.415 287.618 605.403 287.809 611.353 287.809C616.032 287.809 620.886 288.144 625.574 287.797C626.758 287.709 627.759 287.138 628.939 287.138C629.66 287.138 630.918 287.651 631.473 288.082C632.146 288.606 630.833 286.497 630.616 285.673C629.61 281.848 629.085 278 627.66 274.284C627.038 272.662 626.144 269.97 626.654 268.186C626.818 267.613 626.978 267.218 627.263 266.696C627.392 266.458 628.16 265.979 627.697 265.913C626.894 265.798 625.959 265.91 625.189 266.124C624.004 266.454 622.896 266.559 621.686 266.795C620.165 267.092 618.936 267.657 617.526 268.248C615.802 268.971 613.873 269.234 612.235 270.148C611.897 270.337 611.187 270.645 611.614 271.092C612.921 272.461 614.953 273.31 616.47 274.421C618.977 276.256 621.144 278.474 623.587 280.382C625.263 281.692 627.1 282.775 628.741 284.133C630.022 285.193 631.24 286.408 632.417 287.585C632.603 287.771 633.57 288.739 632.864 288.033" stroke="white" stroke-width="25" stroke-linecap="round"/>
<path d="M614.98 270.148C615.028 270.536 620.488 268.248 621.14 267.913C622.375 267.278 624.174 266.349 625.214 265.404C625.81 264.862 626.081 264.031 626.778 263.541C627.461 263.061 627.948 263.041 627.052 262.324" stroke="white" stroke-width="25" stroke-linecap="round"/>
</svg>
