<svg width="384" height="384" viewBox="0 0 384 384" fill="none" xmlns="http://www.w3.org/2000/svg">
<rect width="383.096" height="383.096" rx="59.2167" fill="#BD7DD8"/>
<path d="M117.334 274.189C104.88 274.189 93.7547 272.208 83.9581 268.248C74.2136 264.236 66.5535 258.816 60.9778 251.99C55.4542 245.111 52.6924 237.347 52.6924 228.697C52.6924 222.079 54.2817 216.008 57.4604 210.485C60.6391 204.961 64.9381 200.375 70.3575 196.728C75.829 193.028 81.9258 190.657 88.6479 189.615V188.364C79.8414 186.749 72.6243 182.658 66.9964 176.092C61.4207 169.527 58.6329 161.84 58.6329 153.034C58.6329 144.696 61.1602 137.271 66.2148 130.757C71.3215 124.243 78.2781 119.111 87.0846 115.359C95.9433 111.607 106.026 109.731 117.334 109.731C128.642 109.731 138.699 111.607 147.506 115.359C156.364 119.111 163.321 124.243 168.375 130.757C173.482 137.271 176.036 144.696 176.036 153.034C176.036 161.893 173.196 169.605 167.516 176.171C161.888 182.684 154.723 186.749 146.021 188.364V189.615C152.691 190.657 158.735 193.028 164.155 196.728C169.626 200.375 173.951 204.961 177.13 210.485C180.361 216.008 181.976 222.079 181.976 228.697C181.976 237.347 179.188 245.111 173.612 251.99C168.037 258.816 160.377 264.236 150.632 268.248C140.94 272.208 129.841 274.189 117.334 274.189ZM117.334 246.753C122.076 246.753 126.245 245.867 129.841 244.095C133.436 242.272 136.25 239.744 138.282 236.513C140.367 233.283 141.409 229.635 141.409 225.57C141.409 221.402 140.367 217.702 138.282 214.471C136.198 211.24 133.332 208.713 129.684 206.889C126.089 205.013 121.972 204.075 117.334 204.075C112.749 204.075 108.632 205.013 104.984 206.889C101.337 208.713 98.4706 211.24 96.3862 214.471C94.3018 217.702 93.2596 221.402 93.2596 225.57C93.2596 229.635 94.2758 233.283 96.308 236.513C98.3924 239.692 101.232 242.193 104.828 244.017C108.476 245.841 112.644 246.753 117.334 246.753ZM117.334 176.796C121.399 176.796 124.994 175.962 128.121 174.295C131.3 172.627 133.775 170.308 135.546 167.338C137.37 164.368 138.282 161.007 138.282 157.255C138.282 153.503 137.37 150.194 135.546 147.328C133.775 144.462 131.326 142.221 128.199 140.606C125.072 138.938 121.451 138.105 117.334 138.105C113.27 138.105 109.648 138.938 106.469 140.606C103.291 142.221 100.816 144.462 99.0438 147.328C97.2721 150.194 96.3862 153.503 96.3862 157.255C96.3862 161.007 97.2721 164.368 99.0438 167.338C100.868 170.256 103.369 172.575 106.548 174.295C109.726 175.962 113.322 176.796 117.334 176.796ZM266.081 274.189C253.627 274.189 242.501 272.208 232.705 268.248C222.96 264.236 215.3 258.816 209.724 251.99C204.201 245.111 201.439 237.347 201.439 228.697C201.439 222.079 203.028 216.008 206.207 210.485C209.386 204.961 213.685 200.375 219.104 196.728C224.576 193.028 230.672 190.657 237.395 189.615V188.364C228.588 186.749 221.371 182.658 215.743 176.092C210.167 169.527 207.379 161.84 207.379 153.034C207.379 144.696 209.907 137.271 214.961 130.757C220.068 124.243 227.025 119.111 235.831 115.359C244.69 111.607 254.773 109.731 266.081 109.731C277.389 109.731 287.446 111.607 296.252 115.359C305.111 119.111 312.067 124.243 317.122 130.757C322.229 137.271 324.782 144.696 324.782 153.034C324.782 161.893 321.942 169.605 316.262 176.171C310.634 182.684 303.469 186.749 294.767 188.364V189.615C301.437 190.657 307.482 193.028 312.901 196.728C318.373 200.375 322.698 204.961 325.876 210.485C329.107 216.008 330.723 222.079 330.723 228.697C330.723 237.347 327.935 245.111 322.359 251.99C316.783 258.816 309.123 264.236 299.379 268.248C289.686 272.208 278.587 274.189 266.081 274.189ZM266.081 246.753C270.823 246.753 274.992 245.867 278.587 244.095C282.183 242.272 284.997 239.744 287.029 236.513C289.113 233.283 290.155 229.635 290.155 225.57C290.155 221.402 289.113 217.702 287.029 214.471C284.944 211.24 282.078 208.713 278.431 206.889C274.835 205.013 270.719 204.075 266.081 204.075C261.495 204.075 257.379 205.013 253.731 206.889C250.083 208.713 247.217 211.24 245.133 214.471C243.048 217.702 242.006 221.402 242.006 225.57C242.006 229.635 243.022 233.283 245.055 236.513C247.139 239.692 249.979 242.193 253.575 244.017C257.222 245.841 261.391 246.753 266.081 246.753ZM266.081 176.796C270.145 176.796 273.741 175.962 276.867 174.295C280.046 172.627 282.521 170.308 284.293 167.338C286.117 164.368 287.029 161.007 287.029 157.255C287.029 153.503 286.117 150.194 284.293 147.328C282.521 144.462 280.072 142.221 276.946 140.606C273.819 138.938 270.197 138.105 266.081 138.105C262.016 138.105 258.395 138.938 255.216 140.606C252.037 142.221 249.562 144.462 247.79 147.328C246.019 150.194 245.133 153.503 245.133 157.255C245.133 161.007 246.019 164.368 247.79 167.338C249.614 170.256 252.115 172.575 255.294 174.295C258.473 175.962 262.068 176.796 266.081 176.796Z" fill="white"/>
<ellipse cx="116.196" cy="153.859" rx="28.1679" ry="23.9808" fill="white"/>
<ellipse cx="116.196" cy="226.943" rx="28.1679" ry="23.9808" fill="white"/>
<ellipse cx="266.176" cy="159.187" rx="28.1679" ry="23.9808" fill="white"/>
<ellipse cx="265.407" cy="225.42" rx="28.1679" ry="23.9808" fill="white"/>
<path d="M146.677 152.216C122.632 121.858 98.0685 139.567 88.7923 152.216C95.015 159.728 102.979 168.399 115.413 169.019C124.707 169.482 138.032 165.694 146.677 152.216Z" fill="black" stroke="black" stroke-width="3.42166"/>
<path d="M295.133 229.621C271.088 199.262 246.524 216.972 237.248 229.621C243.471 237.133 251.435 245.804 263.868 246.424C273.163 246.887 286.488 243.098 295.133 229.621Z" fill="black" stroke="black" stroke-width="3.42166"/>
<path d="M146.677 224.292C122.632 193.933 98.0685 211.642 88.7923 224.292C95.015 231.804 102.979 240.475 115.413 241.095C124.707 241.558 138.032 237.769 146.677 224.292Z" stroke="black" stroke-width="3.42166"/>
<path d="M295.133 157.299C271.088 126.941 246.524 144.65 237.248 157.299C243.471 164.811 251.435 173.482 263.868 174.102C273.163 174.565 286.488 170.777 295.133 157.299Z" stroke="black" stroke-width="3.42166"/>
<path d="M295.133 146.64C271.088 116.282 246.524 133.991 237.248 146.64C243.471 154.152 251.435 162.823 263.868 163.443C273.163 163.907 286.488 160.118 295.133 146.64Z" stroke="black" stroke-width="3.42166"/>
<path d="M146.677 236.472C122.632 206.113 98.0684 223.823 88.7922 236.472C95.015 243.984 102.979 252.655 115.413 253.275C124.707 253.738 138.032 249.95 146.677 236.472Z" stroke="black" stroke-width="3.42166"/>
<ellipse cx="118.099" cy="145.103" rx="12.5614" ry="12.1807" fill="white"/>
<ellipse cx="266.554" cy="237.219" rx="12.5614" ry="12.1807" fill="white"/>
</svg>
