<svg width="1268" height="69" viewBox="0 0 1268 69" fill="none" xmlns="http://www.w3.org/2000/svg">
<ellipse cx="56.844" cy="40.5547" rx="24.4563" ry="24.186" fill="white"/>
<path d="M108.645 34.611C65.6233 -19.7063 21.6741 11.9788 5.07715 34.611C16.2109 48.0514 30.4601 63.5655 52.7061 64.6746C69.3363 65.5038 93.1775 58.7251 108.645 34.611Z" stroke="white" stroke-width="7.3708"/>
<ellipse cx="181.023" cy="40.5547" rx="24.4563" ry="24.186" fill="white"/>
<path d="M232.821 34.4757C189.8 -19.8415 145.85 11.8435 129.253 34.4757C140.387 47.9161 154.636 63.4302 176.882 64.5394C193.513 65.3685 217.354 58.5898 232.821 34.4757Z" stroke="white" stroke-width="7.3708"/>
<ellipse cx="56.844" cy="40.5547" rx="24.4563" ry="24.186" fill="white"/>
<path d="M108.645 34.611C65.6233 -19.7063 21.6741 11.9788 5.07715 34.611C16.2109 48.0514 30.4601 63.5655 52.7061 64.6746C69.3363 65.5038 93.1775 58.7251 108.645 34.611Z" stroke="white" stroke-width="7.3708"/>
<ellipse cx="181.023" cy="40.5547" rx="24.4563" ry="24.186" fill="white"/>
<path d="M232.821 34.4757C189.8 -19.8415 145.85 11.8435 129.253 34.4757C140.387 47.9161 154.636 63.4302 176.882 64.5394C193.513 65.3685 217.354 58.5898 232.821 34.4757Z" stroke="white" stroke-width="7.3708"/>
<path d="M370.192 34.611C327.171 -19.7063 283.221 11.9788 266.625 34.611C277.758 48.0514 292.007 63.5655 314.253 64.6746C330.884 65.5038 354.725 58.7251 370.192 34.611Z" stroke="white" stroke-width="7.3708"/>
<path d="M494.368 34.4757C451.347 -19.8415 407.398 11.8435 390.801 34.4757C401.935 47.9161 416.184 63.4302 438.43 64.5394C455.06 65.3685 478.901 58.5898 494.368 34.4757Z" stroke="white" stroke-width="7.3708"/>
<path d="M370.192 34.611C327.171 -19.7063 283.221 11.9788 266.625 34.611C277.758 48.0514 292.007 63.5655 314.253 64.6746C330.884 65.5038 354.725 58.7251 370.192 34.611Z" stroke="white" stroke-width="7.3708"/>
<path d="M494.368 34.4757C451.347 -19.8415 407.398 11.8435 390.801 34.4757C401.935 47.9161 416.184 63.4302 438.43 64.5394C455.06 65.3685 478.901 58.5898 494.368 34.4757Z" stroke="white" stroke-width="7.3708"/>
<path d="M1147.84 34.6115C1104.82 -19.7058 1060.87 11.9793 1044.28 34.6115C1055.41 48.0519 1069.66 63.5659 1091.91 64.6751C1108.54 65.5043 1132.38 58.7256 1147.84 34.6115Z" stroke="#BD7DD8" stroke-width="7.3708"/>
<path d="M1272.02 34.4757C1229 -19.8415 1185.05 11.8435 1168.45 34.4757C1179.59 47.9161 1193.84 63.4302 1216.08 64.5394C1232.71 65.3685 1256.55 58.5898 1272.02 34.4757Z" stroke="#BD7DD8" stroke-width="7.3708"/>
<ellipse cx="579.666" cy="28.6704" rx="24.4563" ry="24.186" fill="#BD7DD8"/>
<path d="M631.014 34.6105C587.992 -19.7067 544.043 11.9783 527.446 34.6105C538.58 48.0509 552.829 63.565 575.075 64.6741C591.705 65.5033 615.547 58.7246 631.014 34.6105Z" stroke="#BD7DD8" stroke-width="7.3708"/>
<ellipse cx="702.404" cy="28.6704" rx="24.4563" ry="24.186" fill="#BD7DD8"/>
<path d="M755.19 34.4757C712.169 -19.8415 668.219 11.8435 651.623 34.4757C662.756 47.9161 677.006 63.4302 699.251 64.5394C715.882 65.3685 739.723 58.5898 755.19 34.4757Z" stroke="#BD7DD8" stroke-width="7.3708"/>
<ellipse cx="579.666" cy="28.6704" rx="24.4563" ry="24.186" fill="#BD7DD8"/>
<path d="M631.014 34.6105C587.992 -19.7067 544.043 11.9783 527.446 34.6105C538.58 48.0509 552.829 63.565 575.075 64.6741C591.705 65.5033 615.547 58.7246 631.014 34.6105Z" stroke="#BD7DD8" stroke-width="7.3708"/>
<ellipse cx="702.404" cy="28.6704" rx="24.4563" ry="24.186" fill="#BD7DD8"/>
<path d="M755.19 34.4757C712.169 -19.8415 668.219 11.8435 651.623 34.4757C662.756 47.9161 677.006 63.4302 699.251 64.5394C715.882 65.3685 739.723 58.5898 755.19 34.4757Z" stroke="#BD7DD8" stroke-width="7.3708"/>
<ellipse cx="820.023" cy="34.5151" rx="24.4563" ry="24.186" fill="white"/>
<path d="M887.446 34.611C844.424 -19.7063 800.475 11.9788 783.878 34.611C795.012 48.0514 809.261 63.5655 831.507 64.6746C848.137 65.5038 871.979 58.7251 887.446 34.611Z" stroke="white" stroke-width="7.3708"/>
<ellipse cx="945.688" cy="34.5151" rx="24.4563" ry="24.186" fill="white"/>
<path d="M1011.62 34.4757C968.601 -19.8415 924.651 11.8435 908.054 34.4757C919.188 47.9161 933.437 63.4302 955.683 64.5394C972.314 65.3685 996.155 58.5898 1011.62 34.4757Z" stroke="white" stroke-width="7.3708"/>
<ellipse cx="820.023" cy="34.5151" rx="24.4563" ry="24.186" fill="white"/>
<path d="M887.446 34.611C844.424 -19.7063 800.475 11.9788 783.878 34.611C795.012 48.0514 809.261 63.5655 831.507 64.6746C848.137 65.5038 871.979 58.7251 887.446 34.611Z" stroke="white" stroke-width="7.3708"/>
<ellipse cx="945.688" cy="34.5151" rx="24.4563" ry="24.186" fill="white"/>
<path d="M1011.62 34.4757C968.601 -19.8415 924.651 11.8435 908.054 34.4757C919.188 47.9161 933.437 63.4302 955.683 64.5394C972.314 65.3685 996.155 58.5898 1011.62 34.4757Z" stroke="white" stroke-width="7.3708"/>
</svg>
