<svg width="384" height="384" viewBox="0 0 384 384" fill="none" xmlns="http://www.w3.org/2000/svg">
<rect width="383.096" height="383.096" rx="59.2167" fill="white"/>
<path d="M313.515 114.244C295.423 50.4538 239.726 30.8101 214.139 28.962C210.878 19.1768 195.719 5.84864 188.548 0.407715H46.5242V274.819C52.8257 291.631 74.3279 324.882 109.925 323.392C87.0814 293.427 96.701 260.975 104.366 248.494C116.231 234.029 147.528 199.684 177.798 178.025C208.067 156.367 221.805 126.48 224.889 114.244C228.844 127.472 241.946 155.93 262.713 163.932C283.479 171.934 305.234 201.877 313.515 215.848V114.244Z" fill="#BD7DD8" stroke="#BD7DD8" stroke-width="0.705391"/>
<path d="M225.155 113.945C236.498 81.2829 222.902 43.6508 214.687 28.9175C277.315 34.0527 306.694 87.7425 313.555 113.945C314.679 154.999 316.252 233.126 313.555 217.201C310.857 201.276 280.716 175.7 265.983 164.903C256.536 163.666 235.143 151.743 225.155 113.945Z" fill="#BD7DD8" stroke="#BD7DD8" stroke-width="0.705391"/>
<path d="M234.64 334.173C214.72 355.109 190.045 363.71 180.198 365.394C179.225 368.131 163.342 363.131 107.599 321.236C86.9904 285.91 99.0121 254.149 107.599 242.684C119.567 228.468 150.842 194.63 180.198 173.005C209.554 151.381 221.736 123.741 224.158 112.624C224.158 115.577 227.115 125.876 238.943 143.449C253.728 165.415 260.895 156.964 278.628 173.005C292.815 185.838 284.54 235.507 278.628 258.738C270.719 277.69 250.847 319.309 234.64 334.173Z" fill="black" stroke="black" stroke-width="0.705391"/>
<path d="M147.409 383.232C161.098 367.656 153.113 355.585 147.409 349.733C158.367 357.236 174.424 356.225 181.083 356.546C189.928 356.467 213.958 353.776 236.553 332.998C238.832 349.725 267.433 372.57 281.795 383.232H147.409Z" fill="#BD7DD8"/>
<path d="M199.938 288.06C195.965 284.098 189.282 286.409 186.437 288.06C182.622 284.888 176.514 286.738 173.937 288.06C169.441 291.3 160.092 299.925 158.658 308.502C160.882 316.29 171.492 325.507 176.519 329.142H193.392C195.574 328.479 199.938 327.034 199.938 326.56C199.938 325.968 216.021 315.641 214.624 308.502C213.227 301.364 204.904 293.012 199.938 288.06Z" fill="white" stroke="white" stroke-width="0.705391"/>
<path d="M199.941 301.44C197.21 297.084 189.746 298.638 186.355 299.959C185.802 299.191 181.215 299.282 178.991 299.423C176.621 300.095 171.198 302.721 168.466 307.845C170.08 312.969 174.283 315.473 176.183 316.084C178.168 315.732 183.119 315.695 187.046 318.37C189.778 316.338 195.201 316 197.571 316.084C199.734 315.238 204.201 312.791 204.766 309.778C205.471 306.011 203.355 306.886 199.941 301.44Z" fill="#BD7DD8" stroke="#BD7DD8" stroke-width="0.705391"/>
<path d="M186.393 299.755C182.521 298.028 177.396 299.807 175.318 300.912C175.487 302.627 178.925 304.505 180.622 305.229H194.603C196.607 304.571 200.483 302.862 199.964 301.293C199.315 299.332 193.037 297.173 186.393 299.755Z" fill="black" stroke="black" stroke-width="0.705391"/>
<path d="M47.3999 277.282C47.4112 277.304 47.4225 277.327 47.4338 277.349C47.4338 277.908 47.4214 277.927 47.3999 277.282C40.6158 263.741 19.5451 229.948 0 213.299V54.3805C0.100709 40.382 10.6348 9.54498 47.1317 0.602051C46.2606 210.535 47.2045 271.411 47.3999 277.282Z" fill="#BD7DD8"/>
</svg>
