<svg width="1278" height="451" viewBox="0 0 1278 451" fill="none" xmlns="http://www.w3.org/2000/svg">
<g clip-path="url(#clip0_486_2)">
<rect width="450.601" height="1277.89" transform="translate(1277.89) rotate(90)" fill="black"/>
<circle cx="106.86" cy="119.329" r="82.818" transform="rotate(-90 106.86 119.329)" fill="white"/>
<circle cx="106.86" cy="331.272" r="82.818" transform="rotate(-90 106.86 331.272)" fill="white"/>
<circle cx="319.692" cy="119.329" r="82.818" transform="rotate(-90 319.692 119.329)" fill="white"/>
<circle cx="319.692" cy="331.272" r="82.818" transform="rotate(-90 319.692 331.272)" fill="#BD7DD8"/>
<circle cx="532.525" cy="119.329" r="82.818" transform="rotate(-90 532.525 119.329)" fill="white"/>
<circle cx="532.525" cy="331.272" r="82.818" transform="rotate(-90 532.525 331.272)" fill="white"/>
<circle cx="745.357" cy="119.329" r="82.818" transform="rotate(-90 745.357 119.329)" fill="#BD7DD8"/>
<circle cx="745.357" cy="331.272" r="82.818" transform="rotate(-90 745.357 331.272)" fill="white"/>
<circle cx="958.194" cy="119.329" r="82.818" transform="rotate(-90 958.194 119.329)" fill="white"/>
<circle cx="958.194" cy="331.272" r="82.818" transform="rotate(-90 958.194 331.272)" fill="white"/>
<circle cx="1171.03" cy="119.329" r="82.818" transform="rotate(-90 1171.03 119.329)" fill="white"/>
<circle cx="1171.03" cy="331.272" r="82.818" transform="rotate(-90 1171.03 331.272)" fill="#BD7DD8"/>
<ellipse cx="127.268" cy="120.733" rx="27.5352" ry="27.231" fill="black"/>
<path d="M165.584 119.254C117.147 58.0989 67.6642 93.773 48.9778 119.254C61.5132 134.387 77.5564 151.854 102.603 153.103C121.327 154.037 148.17 146.404 165.584 119.254Z" stroke="black" stroke-width="4.56385"/>
<ellipse cx="107.687" cy="324.663" rx="27.5352" ry="27.231" fill="black"/>
<path d="M165.584 331.199C117.147 270.043 67.6642 305.717 48.9778 331.199C61.5132 346.331 77.5564 363.799 102.603 365.047C121.327 365.981 148.17 358.349 165.584 331.199Z" stroke="black" stroke-width="4.56385"/>
<ellipse cx="319.624" cy="324.662" rx="27.5352" ry="27.231" fill="black"/>
<path d="M378.421 331.198C329.983 270.042 280.501 305.716 261.815 331.198C274.35 346.33 290.393 363.798 315.44 365.046C334.164 365.98 361.007 358.348 378.421 331.198Z" stroke="black" stroke-width="4.56385"/>
<ellipse cx="550.264" cy="330.897" rx="27.5352" ry="27.231" fill="black"/>
<path d="M591.244 331.201C542.806 270.045 493.324 305.719 474.637 331.201C487.173 346.333 503.216 363.801 528.263 365.049C546.987 365.983 573.829 358.351 591.244 331.201Z" stroke="black" stroke-width="4.56385"/>
<ellipse cx="764.88" cy="332.676" rx="27.5352" ry="27.231" fill="black"/>
<path d="M804.084 331.199C755.647 270.043 706.164 305.717 687.478 331.199C700.013 346.331 716.057 363.799 741.103 365.047C759.827 365.981 786.67 358.349 804.084 331.199Z" stroke="black" stroke-width="4.56385"/>
<ellipse cx="1171.85" cy="324.662" rx="27.5352" ry="27.231" fill="black"/>
<path d="M1229.75 331.198C1181.31 270.042 1131.83 305.716 1113.15 331.198C1125.68 346.33 1141.72 363.798 1166.77 365.046C1185.49 365.98 1212.34 358.348 1229.75 331.198Z" stroke="black" stroke-width="4.56385"/>
<ellipse cx="1171.42" cy="125.955" rx="27.5352" ry="27.231" fill="black"/>
<path d="M1229.75 119.257C1181.31 58.1018 1131.83 93.7759 1113.15 119.257C1125.68 134.39 1141.72 151.857 1166.77 153.106C1185.49 154.039 1212.34 146.407 1229.75 119.257Z" stroke="black" stroke-width="4.56385"/>
<ellipse cx="977.711" cy="120.731" rx="27.5352" ry="27.231" fill="black"/>
<path d="M1016.91 119.254C968.475 58.0989 918.993 93.773 900.307 119.254C912.842 134.387 928.885 151.854 953.932 153.103C972.656 154.037 999.499 146.404 1016.91 119.254Z" stroke="black" stroke-width="4.56385"/>
<ellipse cx="728.371" cy="120.733" rx="27.5352" ry="27.231" fill="black"/>
<path d="M804.082 119.254C755.645 58.0989 706.163 93.773 687.476 119.254C700.012 134.387 716.055 151.854 741.101 153.103C759.825 154.037 786.668 146.404 804.082 119.254Z" stroke="black" stroke-width="4.56385"/>
<ellipse cx="532.909" cy="125.954" rx="27.5352" ry="27.231" fill="black"/>
<path d="M591.245 119.255C542.807 58.0998 493.325 93.7739 474.638 119.255C487.174 134.388 503.217 151.855 528.264 153.104C546.988 154.038 573.83 146.405 591.245 119.255Z" stroke="black" stroke-width="4.56385"/>
<ellipse cx="338.326" cy="118.952" rx="27.5352" ry="27.231" fill="black"/>
<path d="M378.42 119.255C329.982 58.0998 280.5 93.7739 261.814 119.255C274.349 134.388 290.392 151.855 315.439 153.104C334.163 154.038 361.006 146.405 378.42 119.255Z" stroke="black" stroke-width="4.56385"/>
<ellipse cx="959.009" cy="324.662" rx="27.5352" ry="27.231" fill="black"/>
<path d="M1016.91 331.198C968.475 270.042 918.993 305.716 900.307 331.198C912.842 346.33 928.885 363.798 953.932 365.046C972.656 365.98 999.499 358.348 1016.91 331.198Z" stroke="black" stroke-width="4.56385"/>
<path d="M81.9222 252.015C95.7257 232.87 90.5301 206.747 85.9292 196.358L89.0464 188.344C103.295 183.743 136.51 185.317 125.112 198.14C113.713 210.964 124.964 241.924 130.901 256.024C117.098 265.077 68.1082 271.175 81.9222 252.015Z" fill="white"/>
<path d="M508.241 252.143C522.044 232.998 516.849 206.875 512.248 196.486L515.365 188.471C529.613 183.871 562.829 185.445 551.43 198.268C540.032 211.092 551.282 242.052 557.219 256.152C543.416 265.205 494.427 271.303 508.241 252.143Z" fill="white"/>
<path d="M933.904 252.143C947.707 232.998 942.512 206.875 937.911 196.486L941.028 188.471C955.276 183.871 988.492 185.445 977.093 198.268C965.695 211.092 976.946 242.052 982.882 256.152C969.079 265.205 920.09 271.303 933.904 252.143Z" fill="white"/>
<path d="M1037.58 101.276C1056.73 115.08 1082.85 109.884 1093.24 105.283L1101.25 108.401C1105.86 122.649 1104.28 155.864 1091.46 144.466C1078.63 133.067 1047.67 144.318 1033.57 150.255C1024.52 136.452 1018.42 87.4625 1037.58 101.276Z" fill="white"/>
<path d="M824.745 307.876C843.89 321.68 870.013 316.484 880.402 311.883L888.417 315C893.018 329.248 891.444 362.464 878.62 351.065C865.797 339.667 834.836 350.918 820.737 356.854C811.683 343.052 805.586 294.062 824.745 307.876Z" fill="white"/>
<path d="M611.918 307.876C631.063 321.68 657.186 316.484 667.575 311.883L675.59 315C680.191 329.248 678.617 362.464 665.793 351.065C652.97 339.667 622.01 350.918 607.91 356.854C598.856 343.052 592.759 294.062 611.918 307.876Z" fill="white"/>
<path d="M400.864 95.9356C420.008 109.739 446.131 104.544 456.521 99.9426L464.535 103.06C469.136 117.308 467.562 150.524 454.739 139.125C441.915 127.726 410.955 138.977 396.855 144.914C387.801 131.111 381.704 82.1216 400.864 95.9356Z" fill="white"/>
<path d="M188.027 95.9347C207.171 109.738 233.294 104.543 243.684 99.9416L251.698 103.059C256.299 117.307 254.725 150.523 241.902 139.124C229.078 127.725 198.118 138.976 184.018 144.913C174.964 131.11 168.867 82.1207 188.027 95.9347Z" fill="white"/>
</g>
<defs>
<clipPath id="clip0_486_2">
<rect width="450.601" height="1277.89" fill="white" transform="translate(1277.89) rotate(90)"/>
</clipPath>
</defs>
</svg>
