<svg width="3333" height="106" viewBox="0 0 3333 106" fill="none" xmlns="http://www.w3.org/2000/svg">
<rect x="3332.23" y="91.4834" width="3254.13" height="69.3059" transform="rotate(-180 3332.23 91.4834)" fill="url(#paint0_linear_383_17)"/>
<rect x="3205.78" y="102.572" width="13.9463" height="94.256" transform="rotate(-180 3205.78 102.572)" fill="black"/>
<rect x="3174.17" y="102.572" width="13.9463" height="94.256" transform="rotate(-180 3174.17 102.572)" fill="black"/>
<rect x="3143.49" y="105.345" width="13.9463" height="94.256" transform="rotate(-180 3143.49 105.345)" fill="black"/>
<rect x="3111.88" y="105.345" width="13.9463" height="94.256" transform="rotate(-180 3111.88 105.345)" fill="black"/>
<rect x="2989.15" y="94.2559" width="18.6351" height="94.256" transform="rotate(-180 2989.15 94.2559)" fill="black"/>
<rect x="2946.91" y="94.2559" width="18.6351" height="94.256" transform="rotate(-180 2946.91 94.2559)" fill="black"/>
<rect x="2905.91" y="97.0283" width="18.6351" height="94.256" transform="rotate(-180 2905.91 97.0283)" fill="black"/>
<rect x="2863.67" y="97.0283" width="18.6351" height="94.256" transform="rotate(-180 2863.67 97.0283)" fill="black"/>
<rect x="2700" y="91.4844" width="24.1735" height="69.3059" transform="rotate(-180 2700 91.4844)" fill="black"/>
<rect x="2645.14" y="91.4844" width="24.1735" height="69.3059" transform="rotate(-180 2645.14 91.4844)" fill="black"/>
<rect x="2592.14" y="91.4844" width="24.1735" height="69.3059" transform="rotate(-180 2592.14 91.4844)" fill="black"/>
<rect x="2537.29" y="91.4844" width="24.1735" height="69.3059" transform="rotate(-180 2537.29 91.4844)" fill="black"/>
<rect x="2318.8" y="93.8857" width="29.0949" height="75.4049" transform="rotate(-180 2318.8 93.8857)" fill="black"/>
<rect x="2252.85" y="93.8857" width="29.0949" height="75.4049" transform="rotate(-180 2252.85 93.8857)" fill="black"/>
<rect x="2188.84" y="96.1035" width="29.0949" height="75.4049" transform="rotate(-180 2188.84 96.1035)" fill="black"/>
<rect x="2122.89" y="96.1035" width="29.0949" height="75.4049" transform="rotate(-180 2122.89 96.1035)" fill="black"/>
<rect x="1899.48" y="93.9375" width="44.6042" height="73.6095" transform="rotate(-180 1899.48 93.9375)" fill="black"/>
<rect x="1798.38" y="93.9375" width="44.6042" height="73.6095" transform="rotate(-180 1798.38 93.9375)" fill="black"/>
<rect x="1700.25" y="96.1035" width="44.6042" height="73.6095" transform="rotate(-180 1700.25 96.1035)" fill="black"/>
<rect x="1599.15" y="96.1035" width="44.6042" height="73.6095" transform="rotate(-180 1599.15 96.1035)" fill="black"/>
<rect x="1304.44" y="93.8857" width="59.0314" height="75.4049" transform="rotate(-180 1304.44 93.8857)" fill="black"/>
<rect x="1170.64" y="93.8857" width="59.0314" height="75.4049" transform="rotate(-180 1170.64 93.8857)" fill="black"/>
<rect x="1040.77" y="96.1035" width="59.0314" height="75.4049" transform="rotate(-180 1040.77 96.1035)" fill="black"/>
<rect x="906.963" y="96.1035" width="59.0314" height="75.4049" transform="rotate(-180 906.963 96.1035)" fill="black"/>
<rect x="569.938" y="93.8857" width="73.6992" height="75.4049" transform="rotate(-180 569.938 93.8857)" fill="black"/>
<rect x="402.887" y="93.8857" width="73.6992" height="75.4049" transform="rotate(-180 402.887 93.8857)" fill="black"/>
<rect x="240.75" y="96.1035" width="73.6992" height="75.4049" transform="rotate(-180 240.75 96.1035)" fill="black"/>
<rect x="73.6992" y="96.1035" width="73.6992" height="75.4049" transform="rotate(-180 73.6992 96.1035)" fill="black"/>
<defs>
<linearGradient id="paint0_linear_383_17" x1="6586.36" y1="126.136" x2="3332.23" y2="126.136" gradientUnits="userSpaceOnUse">
<stop stop-color="#B43CE7"/>
<stop offset="1" stop-color="white"/>
</linearGradient>
</defs>
</svg>
