<svg width="3231" height="375" viewBox="0 0 3231 375" fill="none" xmlns="http://www.w3.org/2000/svg">
<rect x="0.958984" y="73.2109" width="3240.74" height="226.399" fill="url(#paint0_linear_260_2)"/>
<path d="M715.592 54.6486L1008.03 51.578L701.068 303.006L395.108 306.218L715.592 54.6486Z" fill="black"/>
<path d="M1234.03 61.4278L1526.47 58.3573L1219.51 309.785L913.55 312.997L1234.03 61.4278Z" fill="black"/>
<path d="M1758.1 61.4278L2050.53 58.3573L1743.57 309.785L1437.61 312.997L1758.1 61.4278Z" fill="black"/>
<path d="M2259.96 72.5157L2552.39 69.4451L2245.43 320.873L1939.47 324.085L2259.96 72.5157Z" fill="black"/>
<path d="M3122.32 61.4278L3414.76 58.3573L3107.8 309.785L2801.84 312.997L3122.32 61.4278Z" fill="black"/>
<rect x="0.958984" y="73.2109" width="3240.74" height="226.399" fill="url(#paint1_linear_260_2)"/>
<path d="M715.592 54.6486L1008.03 51.578L701.068 303.006L395.108 306.218L715.592 54.6486Z" fill="black"/>
<path d="M1234.03 61.4278L1526.47 58.3573L1219.51 309.785L913.55 312.997L1234.03 61.4278Z" fill="black"/>
<path d="M1758.1 61.4278L2050.53 58.3573L1743.57 309.785L1437.61 312.997L1758.1 61.4278Z" fill="black"/>
<path d="M2259.96 72.5157L2552.39 69.4451L2245.43 320.873L1939.47 324.085L2259.96 72.5157Z" fill="black"/>
<path d="M3122.32 61.4278L3414.76 58.3573L3107.8 309.785L2801.84 312.997L3122.32 61.4278Z" fill="black"/>
<defs>
<linearGradient id="paint0_linear_260_2" x1="0.958984" y1="186.411" x2="3241.7" y2="186.411" gradientUnits="userSpaceOnUse">
<stop stop-color="#CE87EC"/>
<stop offset="1" stop-color="#25142D"/>
</linearGradient>
<linearGradient id="paint1_linear_260_2" x1="0.958984" y1="186.411" x2="3241.7" y2="186.411" gradientUnits="userSpaceOnUse">
<stop stop-color="#CE87EC"/>
<stop offset="1" stop-color="#25142D"/>
</linearGradient>
</defs>
</svg>
