<svg width="3234" height="98" viewBox="0 0 3234 98" fill="none" xmlns="http://www.w3.org/2000/svg">
<rect x="3234.28" y="91.4844" width="3234.28" height="69.3059" transform="rotate(-180 3234.28 91.4844)" fill="url(#paint0_linear_260_3)"/>
<rect x="2893.29" y="94.2578" width="18.5214" height="94.256" transform="rotate(-180 2893.29 94.2578)" fill="black"/>
<rect x="2851.31" y="94.2578" width="18.5214" height="94.256" transform="rotate(-180 2851.31 94.2578)" fill="black"/>
<rect x="2810.56" y="97.0293" width="18.5214" height="94.256" transform="rotate(-180 2810.56 97.0293)" fill="black"/>
<rect x="2768.58" y="97.0293" width="18.5214" height="94.256" transform="rotate(-180 2768.58 97.0293)" fill="black"/>
<rect x="2227.03" y="93.8867" width="28.9174" height="75.4049" transform="rotate(-180 2227.03 93.8867)" fill="black"/>
<rect x="2161.48" y="93.8867" width="28.9174" height="75.4049" transform="rotate(-180 2161.48 93.8867)" fill="black"/>
<rect x="2097.87" y="96.1055" width="28.9174" height="75.4049" transform="rotate(-180 2097.87 96.1055)" fill="black"/>
<rect x="2032.32" y="96.1055" width="28.9174" height="75.4049" transform="rotate(-180 2032.32 96.1055)" fill="black"/>
<rect x="1218.86" y="93.8867" width="58.6712" height="75.4049" transform="rotate(-180 1218.86 93.8867)" fill="black"/>
<rect x="1085.87" y="93.8867" width="58.6712" height="75.4049" transform="rotate(-180 1085.87 93.8867)" fill="black"/>
<rect x="956.799" y="96.1055" width="58.6712" height="75.4049" transform="rotate(-180 956.799 96.1055)" fill="black"/>
<rect x="823.811" y="96.1055" width="58.6712" height="75.4049" transform="rotate(-180 823.811 96.1055)" fill="black"/>
<defs>
<linearGradient id="paint0_linear_260_3" x1="3234.28" y1="126.137" x2="6468.55" y2="126.137" gradientUnits="userSpaceOnUse">
<stop stop-color="white"/>
<stop offset="1" stop-color="#B55BDB"/>
</linearGradient>
</defs>
</svg>
