<svg width="624" height="490" viewBox="0 0 624 490" fill="none" xmlns="http://www.w3.org/2000/svg">
<path d="M3.19531 70.9314C20.7925 48.2689 66.2498 16.5415 108.168 70.9313" stroke="white" stroke-width="5.74966"/>
<path d="M3.17578 69.9846C20.7762 78.1541 66.2421 89.5915 108.168 69.9846" stroke="white" stroke-width="5.74966"/>
<path d="M3.17578 69.8674C20.7762 93.9304 66.2421 127.619 108.168 69.8675" stroke="white" stroke-width="5.74966"/>
<line x1="21.6156" y1="10.3181" x2="33.3864" y2="46.4966" stroke="white" stroke-width="5.74966"/>
<line x1="60.8948" y1="2.84153" x2="61.1632" y2="40.8858" stroke="white" stroke-width="5.74966"/>
<line x1="97.7985" y1="12.4356" x2="85.217" y2="48.3402" stroke="white" stroke-width="5.74966"/>
<line y1="-2.87483" x2="39.2307" y2="-2.87483" transform="matrix(0.30004 -0.953927 -0.947765 -0.318968 18.8818 132.366)" stroke="white" stroke-width="5.74966"/>
<line y1="-2.87483" x2="39.3541" y2="-2.87483" transform="matrix(0.00682092 -0.999977 -0.999973 -0.00729832 58.02 141.002)" stroke="white" stroke-width="5.74966"/>
<line y1="-2.87483" x2="39.2131" y2="-2.87483" transform="matrix(-0.320849 -0.94713 -0.940145 0.340775 95.0854 132.083)" stroke="white" stroke-width="5.74966"/>
<path d="M132.531 238.867C150.128 216.205 195.586 184.478 237.504 238.867" stroke="#BD7DD8" stroke-width="5.74966"/>
<path d="M132.513 237.923C150.114 246.092 195.58 257.529 237.506 237.923" stroke="#BD7DD8" stroke-width="5.74966"/>
<path d="M132.513 237.807C150.114 261.87 195.58 295.558 237.506 237.807" stroke="#BD7DD8" stroke-width="5.74966"/>
<line x1="150.955" y1="178.259" x2="162.726" y2="214.438" stroke="#BD7DD8" stroke-width="5.74966"/>
<line x1="190.231" y1="170.785" x2="190.5" y2="208.829" stroke="#BD7DD8" stroke-width="5.74966"/>
<line x1="227.136" y1="180.376" x2="214.554" y2="216.281" stroke="#BD7DD8" stroke-width="5.74966"/>
<line y1="-2.87483" x2="39.2307" y2="-2.87483" transform="matrix(0.30004 -0.953927 -0.947765 -0.318968 148.221 300.309)" stroke="#BD7DD8" stroke-width="5.74966"/>
<line y1="-2.87483" x2="39.3541" y2="-2.87483" transform="matrix(0.00682092 -0.999977 -0.999973 -0.00729832 187.356 308.94)" stroke="#BD7DD8" stroke-width="5.74966"/>
<line y1="-2.87483" x2="39.2131" y2="-2.87483" transform="matrix(-0.320849 -0.94713 -0.940145 0.340775 224.423 300.024)" stroke="#BD7DD8" stroke-width="5.74966"/>
<path d="M264.659 411.957C282.256 389.295 327.714 357.567 369.632 411.957" stroke="#BD7DD8" stroke-width="5.74966"/>
<path d="M264.646 411.01C282.246 419.18 327.712 430.617 369.638 411.01" stroke="#BD7DD8" stroke-width="5.74966"/>
<path d="M264.646 410.894C282.246 434.957 327.712 468.645 369.638 410.894" stroke="#BD7DD8" stroke-width="5.74966"/>
<line x1="283.085" y1="351.347" x2="294.856" y2="387.525" stroke="#BD7DD8" stroke-width="5.74966"/>
<line x1="322.356" y1="343.87" x2="322.625" y2="381.915" stroke="#BD7DD8" stroke-width="5.74966"/>
<line x1="359.265" y1="353.461" x2="346.683" y2="389.366" stroke="#BD7DD8" stroke-width="5.74966"/>
<line y1="-2.87483" x2="39.2307" y2="-2.87483" transform="matrix(0.30004 -0.953927 -0.947765 -0.318968 280.352 473.396)" stroke="#BD7DD8" stroke-width="5.74966"/>
<line y1="-2.87483" x2="39.3541" y2="-2.87483" transform="matrix(0.00682092 -0.999977 -0.999973 -0.00729832 319.481 482.028)" stroke="#BD7DD8" stroke-width="5.74966"/>
<line y1="-2.87483" x2="39.2131" y2="-2.87483" transform="matrix(-0.320849 -0.94713 -0.940145 0.340775 356.552 473.111)" stroke="#BD7DD8" stroke-width="5.74966"/>
<path d="M515.705 234.464C533.302 211.801 578.759 180.074 620.677 234.464" stroke="#BD7DD8" stroke-width="5.74966"/>
<path d="M515.682 233.519C533.283 241.689 578.748 253.126 620.675 233.519" stroke="#BD7DD8" stroke-width="5.74966"/>
<path d="M515.682 233.404C533.283 257.467 578.748 291.155 620.675 233.404" stroke="#BD7DD8" stroke-width="5.74966"/>
<line x1="534.126" y1="173.855" x2="545.897" y2="210.033" stroke="#BD7DD8" stroke-width="5.74966"/>
<line x1="573.404" y1="166.379" x2="573.673" y2="204.423" stroke="#BD7DD8" stroke-width="5.74966"/>
<line x1="610.304" y1="175.973" x2="597.723" y2="211.877" stroke="#BD7DD8" stroke-width="5.74966"/>
<line y1="-2.87483" x2="39.2307" y2="-2.87483" transform="matrix(0.30004 -0.953927 -0.947765 -0.318968 531.392 295.903)" stroke="#BD7DD8" stroke-width="5.74966"/>
<line y1="-2.87483" x2="39.3541" y2="-2.87483" transform="matrix(0.00682092 -0.999977 -0.999973 -0.00729832 570.53 304.536)" stroke="#BD7DD8" stroke-width="5.74966"/>
<line y1="-2.87483" x2="39.2131" y2="-2.87483" transform="matrix(-0.320849 -0.94713 -0.940145 0.340775 607.591 295.618)" stroke="#BD7DD8" stroke-width="5.74966"/>
<path d="M389.009 68.865C406.606 46.2025 452.064 14.4751 493.982 68.8649" stroke="#BD7DD8" stroke-width="5.74966"/>
<path d="M388.987 67.9206C406.588 76.0901 452.054 87.5275 493.98 67.9206" stroke="#BD7DD8" stroke-width="5.74966"/>
<path d="M388.987 67.8015C406.588 91.8645 452.054 125.553 493.98 67.8016" stroke="#BD7DD8" stroke-width="5.74966"/>
<line x1="407.431" y1="8.2546" x2="419.202" y2="44.4331" stroke="#BD7DD8" stroke-width="5.74966"/>
<line x1="446.7" y1="0.778545" x2="446.969" y2="38.8228" stroke="#BD7DD8" stroke-width="5.74966"/>
<line x1="483.609" y1="10.3696" x2="471.028" y2="46.2743" stroke="#BD7DD8" stroke-width="5.74966"/>
<line y1="-2.87483" x2="39.2307" y2="-2.87483" transform="matrix(0.30004 -0.953927 -0.947765 -0.318968 404.697 130.304)" stroke="#BD7DD8" stroke-width="5.74966"/>
<line y1="-2.87483" x2="39.3541" y2="-2.87483" transform="matrix(0.00682092 -0.999977 -0.999973 -0.00729832 443.826 138.936)" stroke="#BD7DD8" stroke-width="5.74966"/>
<line y1="-2.87483" x2="39.2131" y2="-2.87483" transform="matrix(-0.320849 -0.94713 -0.940145 0.340775 480.896 130.02)" stroke="#BD7DD8" stroke-width="5.74966"/>
<path d="M259.791 70.9314C277.388 48.2689 322.845 16.5415 364.763 70.9313" stroke="#BD7DD8" stroke-width="5.74966"/>
<path d="M259.768 69.8674C277.368 93.9304 322.834 127.619 364.76 69.8675" stroke="#BD7DD8" stroke-width="5.74966"/>
<line x1="278.217" y1="10.3181" x2="289.988" y2="46.4966" stroke="#BD7DD8" stroke-width="5.74966"/>
<line x1="317.49" y1="2.84153" x2="317.759" y2="40.8858" stroke="#BD7DD8" stroke-width="5.74966"/>
<line x1="354.395" y1="12.4356" x2="341.814" y2="48.3402" stroke="#BD7DD8" stroke-width="5.74966"/>
<path d="M5.54883 239.752C23.146 217.089 68.6034 185.362 110.522 239.752" stroke="#BD7DD8" stroke-width="5.74966"/>
<path d="M5.52344 238.688C23.1239 262.751 68.5898 296.439 110.516 238.688" stroke="#BD7DD8" stroke-width="5.74966"/>
<line x1="23.9652" y1="179.141" x2="35.736" y2="215.32" stroke="#BD7DD8" stroke-width="5.74966"/>
<line x1="63.239" y1="171.662" x2="63.5074" y2="209.707" stroke="#BD7DD8" stroke-width="5.74966"/>
<line x1="100.149" y1="181.256" x2="87.5671" y2="217.161" stroke="#BD7DD8" stroke-width="5.74966"/>
<path d="M389.009 234.464C406.606 211.801 452.064 180.074 493.982 234.464" stroke="white" stroke-width="5.74966"/>
<path d="M388.987 233.404C406.588 257.467 452.054 291.155 493.98 233.404" stroke="white" stroke-width="5.74966"/>
<line x1="407.431" y1="173.855" x2="419.202" y2="210.033" stroke="white" stroke-width="5.74966"/>
<line x1="446.7" y1="166.379" x2="446.969" y2="204.423" stroke="white" stroke-width="5.74966"/>
<line x1="483.609" y1="175.973" x2="471.028" y2="211.877" stroke="white" stroke-width="5.74966"/>
<path d="M515.705 411.81C533.302 389.148 578.759 357.42 620.677 411.81" stroke="#BD7DD8" stroke-width="5.74966"/>
<path d="M515.682 410.747C533.283 434.81 578.748 468.498 620.675 410.747" stroke="#BD7DD8" stroke-width="5.74966"/>
<line x1="534.126" y1="351.2" x2="545.897" y2="387.379" stroke="#BD7DD8" stroke-width="5.74966"/>
<line x1="573.404" y1="343.724" x2="573.673" y2="381.768" stroke="#BD7DD8" stroke-width="5.74966"/>
<line x1="610.304" y1="353.317" x2="597.723" y2="389.222" stroke="#BD7DD8" stroke-width="5.74966"/>
<path d="M129.743 420.472C147.34 397.809 192.797 366.082 234.715 420.472" stroke="white" stroke-width="5.74966"/>
<path d="M129.729 419.408C147.329 443.471 192.795 477.16 234.721 419.408" stroke="white" stroke-width="5.74966"/>
<line x1="148.165" y1="359.862" x2="159.936" y2="396.041" stroke="white" stroke-width="5.74966"/>
<line x1="187.438" y1="352.385" x2="187.706" y2="390.429" stroke="white" stroke-width="5.74966"/>
<line x1="224.343" y1="361.977" x2="211.761" y2="397.881" stroke="white" stroke-width="5.74966"/>
<path d="M132.458 70.9314C150.056 48.2689 195.513 16.5415 237.431 70.9313" stroke="#BD7DD8" stroke-width="5.74966"/>
<path d="M132.44 69.8674C150.04 93.9304 195.506 127.619 237.432 69.8675" stroke="#BD7DD8" stroke-width="5.74966"/>
<line y1="-2.87483" x2="39.2307" y2="-2.87483" transform="matrix(0.30004 -0.953927 -0.947765 -0.318968 148.15 132.366)" stroke="#BD7DD8" stroke-width="5.74966"/>
<line y1="-2.87483" x2="39.3541" y2="-2.87483" transform="matrix(0.00682092 -0.999977 -0.999973 -0.00729832 187.28 141.002)" stroke="#BD7DD8" stroke-width="5.74966"/>
<line y1="-2.87483" x2="39.2131" y2="-2.87483" transform="matrix(-0.320849 -0.94713 -0.940145 0.340775 224.346 132.083)" stroke="#BD7DD8" stroke-width="5.74966"/>
<path d="M262.314 234.603C279.912 211.94 325.369 180.213 367.287 234.603" stroke="#BD7DD8" stroke-width="5.74966"/>
<path d="M262.293 233.537C279.893 257.6 325.359 291.289 367.285 233.537" stroke="#BD7DD8" stroke-width="5.74966"/>
<line y1="-2.87483" x2="39.2307" y2="-2.87483" transform="matrix(0.30004 -0.953927 -0.947765 -0.318968 278.003 296.039)" stroke="#BD7DD8" stroke-width="5.74966"/>
<line y1="-2.87483" x2="39.3541" y2="-2.87483" transform="matrix(0.00682092 -0.999977 -0.999973 -0.00729832 317.134 304.673)" stroke="#BD7DD8" stroke-width="5.74966"/>
<line y1="-2.87483" x2="39.2131" y2="-2.87483" transform="matrix(-0.320849 -0.94713 -0.940145 0.340775 354.202 295.755)" stroke="#BD7DD8" stroke-width="5.74966"/>
<path d="M393.855 411.947C411.452 389.285 456.91 357.558 498.828 411.947" stroke="#BD7DD8" stroke-width="5.74966"/>
<path d="M393.838 410.882C411.439 434.945 456.905 468.633 498.831 410.882" stroke="#BD7DD8" stroke-width="5.74966"/>
<line y1="-2.87483" x2="39.2307" y2="-2.87483" transform="matrix(0.30004 -0.953927 -0.947765 -0.318968 409.541 473.386)" stroke="#BD7DD8" stroke-width="5.74966"/>
<line y1="-2.87483" x2="39.3541" y2="-2.87483" transform="matrix(0.00682092 -0.999977 -0.999973 -0.00729832 448.672 482.016)" stroke="#BD7DD8" stroke-width="5.74966"/>
<line y1="-2.87483" x2="39.2131" y2="-2.87483" transform="matrix(-0.320849 -0.94713 -0.940145 0.340775 485.736 473.1)" stroke="#BD7DD8" stroke-width="5.74966"/>
<path d="M5.54883 419.728C23.146 397.065 68.6034 365.338 110.522 419.728" stroke="#BD7DD8" stroke-width="5.74966"/>
<path d="M5.52344 418.662C23.1239 442.725 68.5898 476.414 110.516 418.662" stroke="#BD7DD8" stroke-width="5.74966"/>
<line y1="-2.87483" x2="39.2307" y2="-2.87483" transform="matrix(0.30004 -0.953927 -0.947765 -0.318968 21.2314 481.165)" stroke="#BD7DD8" stroke-width="5.74966"/>
<line y1="-2.87483" x2="39.3541" y2="-2.87483" transform="matrix(0.00682092 -0.999977 -0.999973 -0.00729832 60.3643 489.798)" stroke="#BD7DD8" stroke-width="5.74966"/>
<line y1="-2.87483" x2="39.2131" y2="-2.87483" transform="matrix(-0.320849 -0.94713 -0.940145 0.340775 97.4355 480.882)" stroke="#BD7DD8" stroke-width="5.74966"/>
<path d="M516.295 68.8537C533.892 46.1913 579.349 14.4638 621.268 68.8537" stroke="#BD7DD8" stroke-width="5.74966"/>
<path d="M516.276 67.7922C533.876 91.8552 579.342 125.543 621.268 67.7923" stroke="#BD7DD8" stroke-width="5.74966"/>
<line y1="-2.87483" x2="39.2307" y2="-2.87483" transform="matrix(0.30004 -0.953927 -0.947765 -0.318968 531.983 130.29)" stroke="#BD7DD8" stroke-width="5.74966"/>
<line y1="-2.87483" x2="39.3541" y2="-2.87483" transform="matrix(0.00682092 -0.999977 -0.999973 -0.00729832 571.11 138.927)" stroke="#BD7DD8" stroke-width="5.74966"/>
<line y1="-2.87483" x2="39.2131" y2="-2.87483" transform="matrix(-0.320849 -0.94713 -0.940145 0.340775 608.181 130.008)" stroke="#BD7DD8" stroke-width="5.74966"/>
<ellipse cx="184.319" cy="430.181" rx="23.6717" ry="23.0799" transform="rotate(-23.7136 184.319 430.181)" fill="white"/>
<ellipse cx="312.92" cy="64.1889" rx="23.6717" ry="23.0799" transform="rotate(-23.7136 312.92 64.1889)" fill="#BD7DD8"/>
<ellipse cx="584.665" cy="412.124" rx="23.6717" ry="23.0799" transform="rotate(-23.7136 584.665 412.124)" fill="#BD7DD8"/>
<ellipse cx="424.793" cy="235.075" rx="23.6717" ry="23.0799" transform="rotate(-23.7136 424.793 235.075)" fill="white"/>
<ellipse cx="63.6346" cy="246.964" rx="23.6717" ry="23.0799" transform="rotate(-23.7136 63.6346 246.964)" fill="#BD7DD8"/>
</svg>
