<svg width="3318" height="1170" viewBox="0 0 3318 1170" fill="none" xmlns="http://www.w3.org/2000/svg">
<g clip-path="url(#clip0_760_3730)">
<rect width="1169.96" height="3317.96" transform="translate(3317.96) rotate(90)" fill="black"/>
<circle cx="277.457" cy="309.827" r="215.031" transform="rotate(-90 277.457 309.827)" fill="white"/>
<circle cx="277.457" cy="860.126" r="215.031" transform="rotate(-90 277.457 860.126)" fill="white"/>
<circle cx="830.059" cy="309.828" r="215.031" transform="rotate(-90 830.059 309.828)" fill="white"/>
<circle cx="1382.67" cy="309.827" r="215.031" transform="rotate(-90 1382.67 309.827)" fill="white"/>
<circle cx="1382.67" cy="860.126" r="215.031" transform="rotate(-90 1382.67 860.126)" fill="white"/>
<circle cx="1935.27" cy="860.126" r="215.031" transform="rotate(-90 1935.27 860.126)" fill="white"/>
<circle cx="2487.88" cy="309.827" r="215.031" transform="rotate(-90 2487.88 309.827)" fill="white"/>
<circle cx="2487.88" cy="860.126" r="215.031" transform="rotate(-90 2487.88 860.126)" fill="white"/>
<circle cx="3040.5" cy="309.827" r="215.031" transform="rotate(-90 3040.5 309.827)" fill="white"/>
<circle cx="3040.5" cy="860.126" r="215.031" transform="rotate(-90 3040.5 860.126)" fill="#BD7DD8"/>
<path d="M429.929 309.638C304.163 150.852 175.686 243.477 127.168 309.638C159.715 348.929 201.37 394.281 266.402 397.523C315.018 399.947 384.713 380.131 429.929 309.638Z" stroke="black" stroke-width="11.8497"/>
<path d="M429.929 859.937C304.163 701.15 175.686 793.776 127.168 859.937C159.715 899.227 201.37 944.58 266.402 947.822C315.018 950.246 384.713 930.43 429.929 859.937Z" stroke="black" stroke-width="11.8497"/>
<ellipse cx="1428.73" cy="859.155" rx="71.4934" ry="70.7034" fill="black"/>
<path d="M1535.13 859.941C1409.36 701.154 1280.89 793.78 1232.37 859.941C1264.91 899.231 1306.57 944.584 1371.6 947.826C1420.22 950.25 1489.91 930.434 1535.13 859.941Z" stroke="black" stroke-width="11.8497"/>
<path d="M2087.75 859.937C1961.99 701.15 1833.51 793.776 1784.99 859.937C1817.54 899.227 1859.19 944.58 1924.23 947.822C1972.84 950.246 2042.54 930.43 2087.75 859.937Z" stroke="black" stroke-width="11.8497"/>
<ellipse cx="3042.63" cy="842.959" rx="71.4934" ry="70.7034" fill="black"/>
<path d="M3192.97 859.93C3067.21 701.144 2938.73 793.769 2890.21 859.93C2922.76 899.22 2964.41 944.573 3029.45 947.815C3078.06 950.239 3147.76 930.423 3192.97 859.93Z" stroke="black" stroke-width="11.8497"/>
<ellipse cx="3041.51" cy="327.034" rx="71.4934" ry="70.7034" fill="black"/>
<path d="M3192.97 309.643C3067.21 150.857 2938.73 243.482 2890.21 309.643C2922.76 348.933 2964.41 394.286 3029.45 397.528C3078.06 399.952 3147.76 380.136 3192.97 309.643Z" stroke="black" stroke-width="11.8497"/>
<path d="M2640.35 309.638C2514.58 150.852 2386.1 243.477 2337.59 309.638C2370.13 348.929 2411.79 394.281 2476.82 397.523C2525.44 399.947 2595.13 380.131 2640.35 309.638Z" stroke="black" stroke-width="11.8497"/>
<ellipse cx="1383.66" cy="327.03" rx="71.4934" ry="70.7034" fill="black"/>
<path d="M1535.13 309.638C1409.36 150.852 1280.89 243.477 1232.37 309.638C1264.91 348.929 1306.57 394.281 1371.6 397.523C1420.22 399.947 1489.91 380.131 1535.13 309.638Z" stroke="black" stroke-width="11.8497"/>
<path d="M982.542 309.638C856.777 150.852 728.299 243.477 679.781 309.638C712.329 348.929 753.984 394.281 819.016 397.523C867.631 399.947 937.326 380.131 982.542 309.638Z" stroke="black" stroke-width="11.8497"/>
<ellipse cx="2490" cy="842.959" rx="71.4934" ry="70.7034" fill="black"/>
<path d="M2640.35 859.93C2514.58 701.144 2386.1 793.769 2337.59 859.93C2370.13 899.22 2411.79 944.573 2476.82 947.815C2525.44 950.239 2595.13 930.423 2640.35 859.93Z" stroke="black" stroke-width="11.8497"/>
<path d="M212.707 654.339C248.547 604.63 235.057 536.804 223.111 509.829L231.205 489.02C268.199 477.073 354.441 481.161 324.845 514.456C295.25 547.751 324.462 628.137 339.876 664.747C304.038 688.254 176.84 704.085 212.707 654.339Z" fill="white"/>
<path d="M1319.62 654.675C1355.46 604.966 1341.97 537.14 1330.02 510.165L1338.11 489.356C1375.11 477.409 1461.35 481.497 1431.76 514.792C1402.16 548.087 1431.37 628.473 1446.79 665.082C1410.95 688.59 1283.75 704.421 1319.62 654.675Z" fill="white"/>
<path d="M2424.82 654.675C2460.66 604.966 2447.17 537.14 2435.22 510.165L2443.31 489.356C2480.31 477.409 2566.55 481.497 2536.95 514.792C2507.36 548.087 2536.57 628.473 2551.99 665.082C2516.15 688.59 2388.95 704.421 2424.82 654.675Z" fill="white"/>
<path d="M2694.01 262.956C2743.72 298.796 2811.55 285.306 2838.52 273.36L2859.33 281.454C2871.28 318.448 2867.19 404.69 2833.89 375.094C2800.6 345.499 2720.21 374.711 2683.6 390.125C2660.1 354.287 2644.26 227.089 2694.01 262.956Z" fill="white"/>
<path d="M2141.39 799.38C2191.1 835.22 2258.93 821.73 2285.9 809.784L2306.71 817.877C2318.66 854.872 2314.57 941.114 2281.28 911.518C2247.98 881.923 2167.6 911.135 2130.99 926.549C2107.48 890.711 2091.65 763.513 2141.39 799.38Z" fill="white"/>
<path d="M1588.8 799.38C1638.51 835.22 1706.34 821.73 1733.31 809.784L1754.12 817.877C1766.07 854.872 1761.98 941.114 1728.69 911.518C1695.39 881.923 1615.01 911.135 1578.4 926.549C1554.89 890.711 1539.06 763.513 1588.8 799.38Z" fill="white"/>
<path d="M1040.82 249.092C1090.53 284.932 1158.35 271.442 1185.33 259.496L1206.14 267.589C1218.08 304.584 1214 390.826 1180.7 361.23C1147.41 331.634 1067.02 360.847 1030.41 376.261C1006.9 340.423 991.073 213.225 1040.82 249.092Z" fill="white"/>
<path d="M488.202 249.092C537.911 284.932 605.737 271.442 632.712 259.496L653.521 267.589C665.468 304.584 661.38 390.826 628.085 361.23C594.79 331.634 514.404 360.847 477.795 376.261C454.287 340.423 438.456 213.225 488.202 249.092Z" fill="white"/>
</g>
<defs>
<clipPath id="clip0_760_3730">
<rect width="1169.96" height="3317.96" fill="white" transform="translate(3317.96) rotate(90)"/>
</clipPath>
</defs>
</svg>
