<svg width="1036" height="397" viewBox="0 0 1036 397" fill="none" xmlns="http://www.w3.org/2000/svg">
<g clip-path="url(#clip0_334_34991)">
<rect width="1035.86" height="395.914" transform="translate(0 0.398438)" fill="black"/>
<path d="M374.372 217.672C421.425 157.075 542.973 72.2392 655.058 217.672" stroke="#BD7DD8" stroke-width="6.84215"/>
<path d="M374.319 215.146C421.381 236.991 542.952 267.573 655.058 215.146" stroke="#BD7DD8" stroke-width="6.84215"/>
<path d="M374.319 214.83C421.381 279.172 542.952 369.251 655.058 214.83" stroke="#BD7DD8" stroke-width="6.84215"/>
<line x1="419.573" y1="56.9279" x2="451.047" y2="153.665" stroke="#BD7DD8" stroke-width="6.84215"/>
<path d="M519.334 34.9268L519.334 135.729" stroke="#BD7DD8" stroke-width="6.84215"/>
<line x1="618.257" y1="59.1353" x2="584.616" y2="155.14" stroke="#BD7DD8" stroke-width="6.84215"/>
<path d="M436.226 396.313L506.05 302.733H533.405L592.792 396.313H436.226Z" fill="white"/>
<path d="M639.582 396.313L575.156 292.296L601.43 277.539L825.301 396.313H639.582Z" fill="#BD7DD8" stroke="#BD7DD8" stroke-width="3.02951"/>
<path d="M397.458 396.313L461.42 292.926L435.335 278.259L213.074 396.313H397.458Z" fill="#BD7DD8" stroke="#BD7DD8" stroke-width="3.02951"/>
<path d="M957.753 395.953L628.064 251.984L645.7 232.188L1035.86 253.784V395.953H957.753Z" fill="white"/>
<path d="M77.4137 397.753L405.633 254.864L386.71 235.068L0.000549316 256.521V397.753H77.4137Z" fill="white"/>
<path d="M1036.94 165.243L647.5 202.675L630.943 185.039L1036.94 25.9531V165.243Z" fill="#BD7DD8"/>
<path d="M0.719482 165.929L383.317 202.315L399.153 185.399L0.719482 29.1924V165.929Z" fill="#BD7DD8"/>
<path d="M923.92 0.0386331L620.506 175.681L603.229 162.364L687.811 -0.321289L923.92 0.0386331Z" fill="white"/>
<path d="M120.934 -0.687718L418.23 170.642L435.866 158.764L353.068 -1.04102L120.934 -0.687718Z" fill="white"/>
</g>
<defs>
<clipPath id="clip0_334_34991">
<rect width="1035.86" height="395.914" fill="white" transform="translate(0 0.398438)"/>
</clipPath>
</defs>
</svg>
