<svg width="1036" height="397" viewBox="0 0 1036 397" fill="none" xmlns="http://www.w3.org/2000/svg">
<g clip-path="url(#clip0_334_35008)">
<rect width="1035.86" height="395.914" transform="translate(0 0.21875)" fill="black"/>
<path d="M374.372 217.492C421.425 156.895 542.973 72.0595 655.058 217.492" stroke="#BD7DD8" stroke-width="6.84215"/>
<path d="M374.319 214.966C421.381 236.811 542.952 267.393 655.058 214.967" stroke="#BD7DD8" stroke-width="6.84215"/>
<path d="M374.319 214.65C421.381 278.992 542.952 369.071 655.058 214.65" stroke="#BD7DD8" stroke-width="6.84215"/>
<line x1="419.573" y1="56.7482" x2="451.047" y2="153.486" stroke="#BD7DD8" stroke-width="6.84215"/>
<path d="M519.334 34.7471L519.334 135.549" stroke="#BD7DD8" stroke-width="6.84215"/>
<line x1="618.257" y1="58.9556" x2="584.616" y2="154.961" stroke="#BD7DD8" stroke-width="6.84215"/>
<path d="M436.226 396.133L506.05 302.554H533.405L592.792 396.133H436.226Z" fill="white"/>
<path d="M957.753 395.773L628.064 251.805L645.7 232.009L1035.86 253.604V395.773H957.753Z" fill="white"/>
<path d="M77.4137 397.573L405.633 254.683L386.71 234.888L0.000549316 256.341V397.573H77.4137Z" fill="white"/>
<path d="M923.92 -0.141054L620.506 175.501L603.229 162.184L687.811 -0.500977L923.92 -0.141054Z" fill="white"/>
<path d="M120.934 -0.867405L418.23 170.462L435.866 158.585L353.068 -1.2207L120.934 -0.867405Z" fill="white"/>
</g>
<defs>
<clipPath id="clip0_334_35008">
<rect width="1035.86" height="395.914" fill="white" transform="translate(0 0.21875)"/>
</clipPath>
</defs>
</svg>
