<svg width="1036" height="397" viewBox="0 0 1036 397" fill="none" xmlns="http://www.w3.org/2000/svg">
<g clip-path="url(#clip0_334_35021)">
<rect width="1035.86" height="395.914" transform="translate(0 0.308594)" fill="black"/>
<path d="M374.372 217.582C421.425 156.985 542.973 72.1494 655.058 217.582" stroke="#BD7DD8" stroke-width="6.84215"/>
<path d="M374.319 215.056C421.381 236.901 542.952 267.483 655.058 215.056" stroke="#BD7DD8" stroke-width="6.84215"/>
<path d="M374.319 214.74C421.381 279.082 542.952 369.161 655.058 214.74" stroke="#BD7DD8" stroke-width="6.84215"/>
<line x1="419.573" y1="56.838" x2="451.047" y2="153.576" stroke="#BD7DD8" stroke-width="6.84215"/>
<path d="M519.334 34.8369L519.334 135.639" stroke="#BD7DD8" stroke-width="6.84215"/>
<line x1="618.257" y1="59.0454" x2="584.616" y2="155.051" stroke="#BD7DD8" stroke-width="6.84215"/>
<path d="M639.582 396.224L575.156 292.206L601.43 277.449L825.301 396.224H639.582Z" fill="#BD7DD8" stroke="#BD7DD8" stroke-width="3.02951"/>
<path d="M397.458 396.223L461.42 292.836L435.335 278.169L213.074 396.223H397.458Z" fill="#BD7DD8" stroke="#BD7DD8" stroke-width="3.02951"/>
<path d="M1036.94 165.153L647.5 202.585L630.943 184.949L1036.94 25.8633V165.153Z" fill="#BD7DD8"/>
<path d="M0.719482 165.839L383.317 202.225L399.153 185.309L0.719482 29.1025V165.839Z" fill="#BD7DD8"/>
</g>
<defs>
<clipPath id="clip0_334_35021">
<rect width="1035.86" height="395.914" fill="white" transform="translate(0 0.308594)"/>
</clipPath>
</defs>
</svg>
